<?xml version="1.0" encoding="UTF-8" standalone="no"?>
<!-- Creator: CorelDRAW X7 -->

<svg
   xmlns:dc="http://purl.org/dc/elements/1.1/"
   xmlns:cc="http://creativecommons.org/ns#"
   xmlns:rdf="http://www.w3.org/1999/02/22-rdf-syntax-ns#"
   xmlns:svg="http://www.w3.org/2000/svg"
   xmlns="http://www.w3.org/2000/svg"
   xmlns:sodipodi="http://sodipodi.sourceforge.net/DTD/sodipodi-0.dtd"
   xmlns:inkscape="http://www.inkscape.org/namespaces/inkscape"
   xml:space="preserve"
   width="350"
   height="411"
   version="1.1"
   style="clip-rule:evenodd;fill-rule:evenodd;image-rendering:optimizeQuality;shape-rendering:geometricPrecision;text-rendering:geometricPrecision"
   viewBox="0 0 9260.4165 10874.375"
   id="svg115"
   sodipodi:docname="additional.svg"
   inkscape:version="0.92.4 (5da689c313, 2019-01-14)"><metadata
   id="metadata119"><rdf:RDF><cc:Work
       rdf:about=""><dc:format>image/svg+xml</dc:format><dc:type
         rdf:resource="http://purl.org/dc/dcmitype/StillImage" /><dc:title></dc:title></cc:Work></rdf:RDF></metadata><sodipodi:namedview
   pagecolor="#ffffff"
   bordercolor="#666666"
   borderopacity="1"
   objecttolerance="10"
   gridtolerance="10"
   guidetolerance="10"
   inkscape:pageopacity="0"
   inkscape:pageshadow="2"
   inkscape:window-width="1920"
   inkscape:window-height="1017"
   id="namedview117"
   showgrid="false"
   units="px"
   inkscape:zoom="1.6819304"
   inkscape:cx="407.89266"
   inkscape:cy="222.3299"
   inkscape:window-x="-8"
   inkscape:window-y="32"
   inkscape:window-maximized="1"
   inkscape:current-layer="svg115" />
 <defs
   id="defs4">
  <style
   type="text/css"
   id="style2">
   <![CDATA[
    .str5 {stroke:#2B2A29;stroke-width:75}
    .str1 {stroke:#FEFEFE;stroke-width:75;stroke-linecap:round;stroke-linejoin:round}
    .str0 {stroke:#2B2A29;stroke-width:75;stroke-linecap:round;stroke-linejoin:round}
    .str4 {stroke:black;stroke-width:75;stroke-linecap:round;stroke-linejoin:round}
    .str3 {stroke:#FEEC0C;stroke-width:75;stroke-linecap:round;stroke-linejoin:round}
    .str2 {stroke:white;stroke-width:75;stroke-linecap:round;stroke-linejoin:round}
    .fil0 {fill:none}
    .fil2 {fill:#1F1B20}
    .fil3 {fill:black}
    .fil1 {fill:white}
   ]]>
  </style>
 </defs>
 <g
   id="Слой_x0020_1"
   transform="matrix(0.44468785,0,0,0.44468785,-429.99211,-877.27106)">
  <metadata
   id="CorelCorpID_0Corel-Layer" />
  <g
   id="_2904687690736">
   <path
   class="fil0 str0"
   d="m 11395,5723 c 248,135 410,533 671,1525 262,992 623,2577 829,3483 205,905 255,1132 501,2675 246,1543 688,4401 894,5854 206,1453 176,1499 -192,1612 -368,114 -1074,293 -1873,413 -800,119 -1692,178 -2240,132 -547,-46 -750,-197 -813,-1359 -63,-1162 14,-3335 147,-5263 134,-1927 326,-3609 528,-5060 202,-1451 416,-2671 690,-3345 274,-674 610,-802 858,-667 z"
   id="path7"
   inkscape:connector-curvature="0"
   style="fill:none;stroke:#2b2a29;stroke-width:75;stroke-linecap:round;stroke-linejoin:round" />
   <path
   class="fil1 str0"
   d="m 13902,16947 c 188,167 362,534 540,1117 178,583 359,1381 390,1951 32,569 -86,910 -315,1082 -229,173 -567,178 -829,197 -262,19 -446,53 -541,-161 -96,-215 -103,-677 -73,-1278 30,-601 96,-1341 143,-1866 46,-524 72,-833 185,-1004 113,-171 313,-204 500,-38 z"
   id="path9"
   inkscape:connector-curvature="0"
   style="fill:#ffffff;stroke:#2b2a29;stroke-width:75;stroke-linecap:round;stroke-linejoin:round" />
   <path
   class="fil1 str0"
   d="m 9589,18049 c -185,-444 -324,-803 -470,-786 -146,18 -300,413 -363,1003 -63,590 -37,1375 -12,1975 24,601 45,1016 195,1268 150,252 429,341 667,337 239,-3 438,-99 605,-263 167,-164 302,-397 301,-748 -1,-351 -139,-819 -323,-1317 -185,-498 -416,-1025 -600,-1469 z"
   id="path11"
   inkscape:connector-curvature="0"
   style="fill:#ffffff;stroke:#2b2a29;stroke-width:75;stroke-linecap:round;stroke-linejoin:round" />
   <path
   class="fil0 str0"
   d="m 13334,21284 c 81,307 162,614 227,1072 65,459 113,1069 -16,1504 -129,435 -434,693 -671,1043 -236,350 -403,791 -570,1233"
   id="path13"
   inkscape:connector-curvature="0"
   style="fill:none;stroke:#2b2a29;stroke-width:75;stroke-linecap:round;stroke-linejoin:round" />
   <path
   class="fil0 str0"
   d="m 10286,21467 c -178,449 -356,898 -319,1391 38,492 293,1027 583,1393 290,365 616,561 866,765 249,205 422,418 555,601 134,183 229,335 323,488"
   id="path15"
   inkscape:connector-curvature="0"
   style="fill:none;stroke:#2b2a29;stroke-width:75;stroke-linecap:round;stroke-linejoin:round" />
   <path
   class="fil0 str0"
   d="m 12664,21919 c 82,329 164,659 70,1064 -94,406 -364,888 -635,1370"
   id="path17"
   inkscape:connector-curvature="0"
   style="fill:none;stroke:#2b2a29;stroke-width:75;stroke-linecap:round;stroke-linejoin:round" />
   <path
   class="fil0 str0"
   d="m 17222,9093 c 3,-57 4,-68 -34,-258 -37,-191 -114,-562 -254,-818 -140,-256 -344,-398 -540,-495 -195,-96 -382,-147 -592,-182 -210,-35 -443,-54 -680,14 -237,68 -479,223 -660,416 -181,192 -302,422 -337,668 -35,246 15,509 49,698 33,188 50,303 169,428 119,126 340,262 575,346 235,84 483,117 734,142 250,25 502,43 708,16 206,-28 366,-101 500,-228 135,-126 244,-307 301,-448 56,-142 59,-243 61,-299 z M 14432,7946 c 126,-117 274,-136 485,-120 211,15 485,66 751,187 266,120 524,312 630,568 106,257 58,579 -50,822 -107,244 -276,409 -462,488 -185,80 -389,73 -632,4 -244,-69 -527,-201 -699,-321 -172,-119 -232,-227 -272,-405 -40,-179 -61,-429 -20,-661 41,-232 144,-446 269,-562 z m 1894,-30 c 94,27 187,55 279,136 92,82 183,216 219,330 36,113 18,206 0,299 m 71,213 c 4,72 9,144 -12,196 -21,52 -67,84 -113,116 m 480,-119 c 45,-1 153,72 242,217 90,146 162,363 162,566 1,203 -69,391 -195,544 -125,153 -306,270 -427,341 -122,70 -183,93 -234,83 -51,-10 -93,-54 -136,-100 -44,-45 -91,-93 -96,-137 -6,-44 30,-85 111,-143 81,-58 207,-134 311,-234 105,-101 189,-227 222,-355 33,-128 15,-257 -7,-335 -22,-78 -48,-106 -43,-146 5,-41 41,-95 51,-160 10,-65 -7,-140 39,-141 z m -1174,1049 c 26,38 15,104 -14,122 -29,18 -76,-11 -182,-37 -106,-26 -272,-48 -493,-90 -220,-42 -496,-104 -687,-163 -190,-59 -295,-115 -356,-165 -61,-49 -78,-91 -94,-172 -15,-80 -28,-199 -7,-196 21,2 76,126 205,234 129,108 332,201 532,261 200,61 396,91 552,110 156,19 272,28 362,38 90,9 155,20 182,58 z m -147,95 c 225,52 358,126 518,276 160,149 349,374 454,590 105,217 128,426 131,608 3,182 -14,338 -47,456 -34,118 -84,198 -164,247 -81,48 -191,65 -307,26 -116,-38 -237,-132 -306,-333 -69,-202 -84,-511 -94,-477 -10,35 -15,413 -94,682 -79,268 -233,428 -429,580 -195,153 -433,298 -652,389 -218,91 -419,128 -605,125 -186,-3 -358,-45 -471,-108 -112,-63 -166,-146 -181,-237 -16,-91 7,-189 63,-301 56,-112 144,-239 195,-358 50,-119 63,-231 36,-314 -27,-82 -94,-136 -188,-171 -94,-35 -215,-52 -365,-52 -150,0 -328,16 -475,-19 -147,-34 -263,-118 -342,-217 -78,-99 -119,-212 -147,-341 -27,-129 -41,-273 -5,-355 36,-82 121,-102 238,-90 117,12 264,56 394,89 130,33 243,55 345,58 101,3 192,-12 266,-29 74,-17 130,-35 193,-82 62,-47 130,-124 142,-163 12,-40 -32,-42 -131,-36 -98,6 -252,21 -423,-9 -171,-31 -359,-106 -478,-190 -119,-84 -168,-178 -151,-295 16,-117 99,-257 190,-306 91,-50 191,-8 217,-14 26,-6 -21,-61 -43,-113 -23,-52 -21,-100 33,-125 54,-26 160,-27 264,17 104,44 206,134 292,189 86,55 155,75 218,78 63,3 120,-10 158,-55 38,-45 58,-122 80,-129 22,-7 46,55 182,132 135,78 381,171 663,233 282,61 600,92 826,144 z m -695,421 c 162,95 298,185 364,307 65,121 60,273 17,408 -43,134 -125,250 -214,342 -88,91 -183,157 -293,170 -111,13 -236,-27 -395,-104 -158,-77 -349,-190 -493,-294 -144,-103 -242,-196 -313,-262 -72,-67 -118,-108 -121,-158 -4,-51 36,-111 108,-203 71,-91 174,-214 255,-314 81,-101 139,-179 226,-206 88,-28 205,-4 358,58 152,62 339,161 501,256 z m 936,-345 c -151,15 -301,30 -438,100 -137,70 -260,195 -384,320 m 1144,-190 c -179,-4 -358,-8 -514,49 -156,57 -289,174 -378,244 -88,71 -132,96 -147,164 -15,69 -1,181 -37,323 -36,141 -121,310 -207,408 -85,97 -171,121 -256,146 m -32,-1053 c 60,15 127,47 166,109 39,61 50,152 21,209 -29,56 -98,77 -173,74 -75,-2 -156,-28 -205,-70 -48,-42 -64,-99 -55,-157 10,-59 45,-119 89,-149 44,-31 97,-32 157,-16 z m -475,-136 c 95,-7 183,48 209,117 27,70 -9,154 -75,201 -66,46 -162,55 -239,20 -77,-35 -135,-114 -113,-188 22,-73 123,-143 218,-150 z m 667,1201 c 25,136 51,273 132,400 82,127 220,245 306,327 86,82 121,128 155,174 m 197,-216 c -131,-125 -263,-251 -351,-386 -89,-135 -134,-280 -156,-356 -22,-77 -21,-85 -20,-94 m -290,1475 c -113,-45 -227,-90 -397,-180 -169,-90 -395,-226 -536,-323 -141,-97 -197,-156 -253,-216 m 3118,-743 c -143,23 -286,47 -429,69 -144,22 -286,43 -429,64 M 13740,9790 c -103,117 -206,234 -262,379 -55,144 -63,316 -71,488 m 1070,-335 c -36,-107 -72,-213 -116,-303 -44,-90 -97,-164 -150,-238 m 88,596 c -19,-74 -38,-148 -76,-225 -37,-77 -93,-158 -149,-239 m -1510,761 c -81,20 -161,39 -211,91 -50,51 -69,135 -73,219 -5,85 6,172 16,258 m 21,100 c 24,76 48,152 68,196 19,45 35,58 42,63 8,4 7,-1 7,-6 m 5101,-220 c 28,288 56,576 1,773 -56,197 -194,302 -332,407 m 539,-649 c -20,151 -39,302 -101,420 -61,119 -164,205 -268,291 m -415,-1821 c 0,-42 0,-85 -24,-129 -24,-44 -72,-91 -124,-124 -51,-33 -107,-52 -162,-72 m 509,207 c 6,-66 11,-133 -16,-183 -26,-50 -85,-82 -142,-105 -56,-23 -110,-37 -164,-50 m 563,138 c -20,-58 -41,-115 -91,-164 -50,-49 -130,-89 -184,-107 -53,-18 -81,-15 -109,-12 m 540,60 c -14,-66 -27,-131 -65,-178 -38,-46 -100,-74 -156,-88 -56,-15 -106,-17 -155,-18 m 467,-8 c -48,-70 -96,-139 -151,-180 -54,-40 -115,-52 -160,-56 -45,-4 -74,0 -103,5 m 382,-155 c -48,-32 -96,-64 -154,-81 -59,-16 -128,-18 -175,-15 -48,3 -74,11 -100,18 m 336,-140 c -71,-33 -142,-66 -202,-66 -60,0 -108,33 -157,66 m -344,524 c 36,19 71,39 100,78 29,39 52,97 63,142 11,45 10,76 10,108 m 34,545 c 3,100 6,200 -1,291 -7,92 -24,175 -40,258"
   id="path19"
   inkscape:connector-curvature="0"
   style="fill:none;stroke:#2b2a29;stroke-width:75;stroke-linecap:round;stroke-linejoin:round" />
   <path
   class="fil2 str0"
   d="m 14183,9169 c -40,-179 -61,-429 -20,-661 41,-232 144,-446 269,-562 126,-117 274,-136 485,-120 211,15 485,66 751,187 266,120 524,312 630,568 106,257 58,579 -50,822 -107,244 -276,409 -462,488 -185,80 -389,73 -632,4 -244,-69 -527,-201 -699,-321 -172,-119 -232,-227 -272,-405 z"
   id="path21"
   inkscape:connector-curvature="0"
   style="fill:#1f1b20;stroke:#2b2a29;stroke-width:75;stroke-linecap:round;stroke-linejoin:round" />
   <path
   class="fil0 str1"
   d="m 15705,8491 c 81,102 163,203 197,333 35,131 24,291 16,375 -8,84 -13,91 -17,99"
   id="path23"
   inkscape:connector-curvature="0"
   style="fill:none;stroke:#fefefe;stroke-width:75;stroke-linecap:round;stroke-linejoin:round" />
   <path
   class="fil0 str0"
   d="m 12273,8132 c -262,157 -524,314 -890,332 -366,17 -836,-104 -1306,-225"
   id="path25"
   inkscape:connector-curvature="0"
   style="fill:none;stroke:#2b2a29;stroke-width:75;stroke-linecap:round;stroke-linejoin:round" />
   <path
   class="fil0 str0"
   d="m 10758,22153 c 36,369 73,738 296,1099 224,361 634,714 1045,1066"
   id="path27"
   inkscape:connector-curvature="0"
   style="fill:none;stroke:#2b2a29;stroke-width:75;stroke-linecap:round;stroke-linejoin:round" />
   <path
   class="fil3 str0"
   d="m 7454,10787 c -201,62 -369,141 -513,284 -143,143 -261,349 -307,622 -45,273 -19,611 172,863 190,253 543,420 914,482 371,62 760,20 994,-167 234,-188 314,-520 329,-893 15,-373 -35,-787 -199,-1017 -164,-230 -442,-277 -699,-278 -256,-2 -490,43 -691,104 z"
   id="path29"
   inkscape:connector-curvature="0"
   style="fill:#000000;stroke:#2b2a29;stroke-width:75;stroke-linecap:round;stroke-linejoin:round" />
   <path
   class="fil0 str0"
   d="m 8796,10893 c -224,-157 -449,-314 -772,-410 -324,-96 -747,-131 -1134,-29 -387,102 -737,341 -924,710 -187,368 -211,864 -127,1218 84,354 275,565 517,683 243,118 537,144 905,116 368,-27 811,-108 1254,-189"
   id="path31"
   inkscape:connector-curvature="0"
   style="fill:none;stroke:#2b2a29;stroke-width:75;stroke-linecap:round;stroke-linejoin:round" />
   <path
   class="fil0 str0"
   d="m 7151,13895 c 96,-101 237,-116 405,-69 169,48 365,158 591,239 227,82 485,135 699,164 213,30 383,35 527,25 144,-10 262,-34 383,-2 122,32 246,121 282,254 35,133 -19,311 -152,401 -132,90 -343,92 -544,86 -201,-6 -393,-20 -611,-23 -218,-3 -461,4 -685,-46 -223,-51 -427,-160 -607,-262 -180,-102 -335,-198 -387,-339 -51,-141 2,-327 99,-428 z"
   id="path33"
   inkscape:connector-curvature="0"
   style="fill:none;stroke:#2b2a29;stroke-width:75;stroke-linecap:round;stroke-linejoin:round" />
   <path
   class="fil0 str0"
   d="m 8720,12878 c 243,-7 486,-15 730,-22"
   id="path35"
   inkscape:connector-curvature="0"
   style="fill:none;stroke:#2b2a29;stroke-width:75;stroke-linecap:round;stroke-linejoin:round" />
   <path
   class="fil0 str0"
   d="m 8299,13531 c 189,19 378,38 563,25 186,-12 368,-56 464,-74 96,-19 106,-12 102,-11 -5,0 -22,-5 -40,-10"
   id="path37"
   inkscape:connector-curvature="0"
   style="fill:none;stroke:#2b2a29;stroke-width:75;stroke-linecap:round;stroke-linejoin:round" />
   <path
   class="fil0 str0"
   d="m 6733,13187 c -128,245 -230,464 -273,800 -42,336 1,763 205,1196 204,434 570,874 901,1195 330,321 626,524 967,618 340,94 716,83 848,75"
   id="path39"
   inkscape:connector-curvature="0"
   style="fill:none;stroke:#2b2a29;stroke-width:75;stroke-linecap:round;stroke-linejoin:round" />
   <path
   class="fil0 str0"
   d="m 8296,13510 c 137,161 274,322 364,444 90,121 107,169 150,250"
   id="path41"
   inkscape:connector-curvature="0"
   style="fill:none;stroke:#2b2a29;stroke-width:75;stroke-linecap:round;stroke-linejoin:round" />
   <path
   class="fil0 str0"
   d="m 8814,15000 c -13,99 -25,198 -79,279 -54,81 -168,144 -263,206"
   id="path43"
   inkscape:connector-curvature="0"
   style="fill:none;stroke:#2b2a29;stroke-width:75;stroke-linecap:round;stroke-linejoin:round" />
   <path
   class="fil0 str0"
   d="m 9261,15620 c -53,-16 -107,-32 -190,-37 -83,-5 -196,1 -294,58 -98,57 -181,164 -199,276 -19,113 26,232 141,314 115,81 300,126 397,152 97,25 113,22 112,25"
   id="path45"
   inkscape:connector-curvature="0"
   style="fill:none;stroke:#2b2a29;stroke-width:75;stroke-linecap:round;stroke-linejoin:round" />
   <path
   class="fil0 str0"
   d="m 6590,13597 c -135,26 -270,52 -387,196 -116,143 -215,405 -215,679 0,274 99,561 202,817 102,257 208,484 332,655 124,170 266,286 402,307 137,21 268,-52 399,-125"
   id="path47"
   inkscape:connector-curvature="0"
   style="fill:none;stroke:#2b2a29;stroke-width:75;stroke-linecap:round;stroke-linejoin:round" />
   <path
   class="fil0 str0"
   d="m 9265,13481 c -78,-113 -157,-226 -160,-333 -3,-107 36,-156 107,-256"
   id="path49"
   inkscape:connector-curvature="0"
   style="fill:none;stroke:#2b2a29;stroke-width:75;stroke-linecap:round;stroke-linejoin:round" />
   <path
   class="fil0 str0"
   d="m 6650,13356 c 187,10 375,21 652,1 277,-20 644,-69 856,-135 213,-65 271,-147 328,-228"
   id="path51"
   inkscape:connector-curvature="0"
   style="fill:none;stroke:#2b2a29;stroke-width:75;stroke-linecap:round;stroke-linejoin:round" />
   <path
   class="fil0 str0"
   d="m 6446,14188 c 133,-136 259,-260 425,-325 166,-66 365,-61 564,-55"
   id="path53"
   inkscape:connector-curvature="0"
   style="fill:none;stroke:#2b2a29;stroke-width:75;stroke-linecap:round;stroke-linejoin:round" />
   <path
   class="fil0 str0"
   d="m 6481,13625 c 194,-50 388,-100 625,-94 237,7 517,69 709,93 192,25 295,11 363,-13 67,-24 99,-59 107,-126 8,-66 -9,-165 -26,-263"
   id="path55"
   inkscape:connector-curvature="0"
   style="fill:none;stroke:#2b2a29;stroke-width:75;stroke-linecap:round;stroke-linejoin:round" />
   <path
   class="fil0 str0"
   d="m 8315,13743 c -45,4 -132,144 -112,187 20,43 246,115 291,58 46,-56 -2,-89 -22,-132 -19,-43 -111,-116 -157,-113 z"
   id="path57"
   inkscape:connector-curvature="0"
   style="fill:none;stroke:#2b2a29;stroke-width:75;stroke-linecap:round;stroke-linejoin:round" />
   <path
   class="fil0 str0"
   d="m 7897,14890 c -59,124 -118,248 -241,330 -123,82 -320,119 -478,129 -158,11 -224,15 -450,-37"
   id="path59"
   inkscape:connector-curvature="0"
   style="fill:none;stroke:#2b2a29;stroke-width:75;stroke-linecap:round;stroke-linejoin:round" />
   <path
   class="fil0 str0"
   d="m 8482,15477 c -415,125 -1056,355 -1475,253"
   id="path61"
   inkscape:connector-curvature="0"
   style="fill:none;stroke:#2b2a29;stroke-width:75;stroke-linecap:round;stroke-linejoin:round" />
   <path
   class="fil0 str0"
   d="m 9184,16396 c 146,13 257,-64 373,-10 117,54 227,204 253,320 26,116 -32,197 -119,254 -88,57 -218,76 -335,109"
   id="path63"
   inkscape:connector-curvature="0"
   style="fill:none;stroke:#2b2a29;stroke-width:75;stroke-linecap:round;stroke-linejoin:round" />
   <path
   class="fil0 str2"
   d="m 7362,11287 c -68,74 -135,149 -167,260 -32,111 -28,258 22,380 51,122 147,220 244,317"
   id="path65"
   inkscape:connector-curvature="0"
   style="fill:none;stroke:#ffffff;stroke-width:75;stroke-linecap:round;stroke-linejoin:round" />
   <path
   class="fil0 str2"
   d="m 7891,12614 c -88,-69 -176,-139 -263,-208"
   id="path67"
   inkscape:connector-curvature="0"
   style="fill:none;stroke:#ffffff;stroke-width:75;stroke-linecap:round;stroke-linejoin:round" />
   <path
   class="fil0 str0"
   d="m 5829,11553 c -188,216 -376,431 -480,715 -104,285 -125,638 -57,909 67,271 221,460 355,653 134,192 228,362 341,558"
   id="path69"
   inkscape:connector-curvature="0"
   style="fill:none;stroke:#2b2a29;stroke-width:75;stroke-linecap:round;stroke-linejoin:round" />
   <path
   class="fil0 str0"
   d="m 5795,12157 c -90,176 -180,353 -171,603 10,249 120,572 216,782 97,209 181,304 264,400"
   id="path71"
   inkscape:connector-curvature="0"
   style="fill:none;stroke:#2b2a29;stroke-width:75;stroke-linecap:round;stroke-linejoin:round" />
   <path
   class="fil0 str0"
   d="m 5465,12039 c 70,9 127,51 167,101 40,49 63,106 73,196"
   id="path73"
   inkscape:connector-curvature="0"
   style="fill:none;stroke:#2b2a29;stroke-width:75;stroke-linecap:round;stroke-linejoin:round" />
   <path
   class="fil0 str0"
   d="m 5284,12537 c 63,-51 139,-63 194,-46 55,17 89,63 116,108 27,46 33,51 39,56"
   id="path75"
   inkscape:connector-curvature="0"
   style="fill:none;stroke:#2b2a29;stroke-width:75;stroke-linecap:round;stroke-linejoin:round" />
   <path
   class="fil0 str0"
   d="m 5279,13082 c 46,-71 111,-115 175,-136 63,-22 104,-13 185,15"
   id="path77"
   inkscape:connector-curvature="0"
   style="fill:none;stroke:#2b2a29;stroke-width:75;stroke-linecap:round;stroke-linejoin:round" />
   <path
   class="fil0 str0"
   d="m 5466,13569 c 26,-97 78,-148 126,-186 49,-37 107,-35 178,-13"
   id="path79"
   inkscape:connector-curvature="0"
   style="fill:none;stroke:#2b2a29;stroke-width:75;stroke-linecap:round;stroke-linejoin:round" />
   <path
   class="fil0 str0"
   d="m 5817,14092 c 3,-81 19,-128 51,-173 32,-45 80,-88 140,-97"
   id="path81"
   inkscape:connector-curvature="0"
   style="fill:none;stroke:#2b2a29;stroke-width:75;stroke-linecap:round;stroke-linejoin:round" />
   <path
   class="fil0 str0"
   d="m 10457,13059 c 132,-267 307,-564 664,-665 356,-102 895,-8 1198,337 304,345 371,941 263,1449 -108,507 -391,926 -781,988 -390,62 -887,-233 -1181,-521 -293,-287 -383,-567 -383,-826 0,-258 88,-495 220,-762 z"
   id="path83"
   inkscape:connector-curvature="0"
   style="fill:none;stroke:#2b2a29;stroke-width:75;stroke-linecap:round;stroke-linejoin:round" />
   <path
   class="fil0 str0"
   d="m 11199,12839 c 220,-98 501,-129 739,4 237,132 431,428 481,723 50,295 -44,590 -156,849 -112,259 -242,484 -477,504 -235,21 -574,-164 -800,-353 -226,-189 -339,-384 -375,-602 -35,-217 8,-458 108,-660 101,-203 259,-368 480,-465 z"
   id="path85"
   inkscape:connector-curvature="0"
   style="fill:none;stroke:#2b2a29;stroke-width:75;stroke-linecap:round;stroke-linejoin:round" />
   <path
   class="fil0 str0"
   d="m 11610,13324 c 104,117 209,235 252,366 44,132 26,278 9,425"
   id="path87"
   inkscape:connector-curvature="0"
   style="fill:none;stroke:#2b2a29;stroke-width:75;stroke-linecap:round;stroke-linejoin:round" />
   <path
   class="fil0 str3"
   d="m 11220,8937 c 50,987 99,1974 148,2961"
   id="path89"
   inkscape:connector-curvature="0"
   style="fill:none;stroke:#feec0c;stroke-width:75;stroke-linecap:round;stroke-linejoin:round" />
   <path
   class="fil0 str3"
   d="m 11519,15768 c 77,1598 154,3196 182,4009 29,814 8,842 -12,871"
   id="path91"
   inkscape:connector-curvature="0"
   style="fill:none;stroke:#feec0c;stroke-width:75;stroke-linecap:round;stroke-linejoin:round" />
   <path
   class="fil0 str0"
   d="m 9098,18279 c -17,492 -35,985 13,1444 49,460 164,888 278,1315"
   id="path93"
   inkscape:connector-curvature="0"
   style="fill:none;stroke:#2b2a29;stroke-width:75;stroke-linecap:round;stroke-linejoin:round" />
   <path
   class="fil0 str0"
   d="m 13821,17782 c 189,465 378,931 453,1403 76,472 39,950 3,1429"
   id="path95"
   inkscape:connector-curvature="0"
   style="fill:none;stroke:#2b2a29;stroke-width:75;stroke-linecap:round;stroke-linejoin:round" />
   <path
   class="fil0 str4"
   d="m 5545,5006 c -45,-66 -418,-197 -694,-355 -275,-158 -455,-342 -475,-590 -20,-249 119,-562 367,-841 247,-278 603,-521 488,-581 -115,-59 -702,66 -1087,313 -385,247 -570,616 -599,951 -30,336 96,638 368,827 272,189 692,265 1043,304 351,38 634,38 589,-28 z"
   id="path97"
   inkscape:connector-curvature="0"
   style="fill:none;stroke:#000000;stroke-width:75;stroke-linecap:round;stroke-linejoin:round" />
   <path
   class="fil0 str0"
   d="m 9090,21731 c -63,272 -127,545 -44,834 83,290 312,597 589,887 277,290 602,564 927,838"
   id="path99"
   inkscape:connector-curvature="0"
   style="fill:none;stroke:#2b2a29;stroke-width:75;stroke-linecap:round;stroke-linejoin:round" />
   <path
   class="fil0 str0"
   d="m 14392,21211 c 9,353 19,706 -117,1141 -135,436 -414,954 -694,1472"
   id="path101"
   inkscape:connector-curvature="0"
   style="fill:none;stroke:#2b2a29;stroke-width:75;stroke-linecap:round;stroke-linejoin:round" />
   <path
   class="fil0 str0"
   d="m 11273,5192 c 393,213 786,426 1000,767 214,342 249,812 285,1283"
   id="path103"
   inkscape:connector-curvature="0"
   style="fill:none;stroke:#2b2a29;stroke-width:75;stroke-linecap:round;stroke-linejoin:round" />
   <path
   class="fil0 str0"
   d="m 11858,5053 c 292,59 584,118 748,319 163,200 199,541 234,882"
   id="path105"
   inkscape:connector-curvature="0"
   style="fill:none;stroke:#2b2a29;stroke-width:75;stroke-linecap:round;stroke-linejoin:round" />
   <path
   class="fil0 str5"
   d="m 7915,14985 c 12,50 59,152 156,244 97,93 244,177 327,203 83,27 100,-4 49,-75 -52,-70 -174,-181 -268,-258 -95,-77 -164,-121 -209,-143 -45,-22 -67,-22 -55,29 z"
   id="path107"
   inkscape:connector-curvature="0"
   style="fill:none;stroke:#2b2a29;stroke-width:75" />
   <path
   class="fil0 str0"
   d="m 6871,10702 c -96,39 -192,77 -272,151 -79,73 -142,181 -205,289"
   id="path109"
   inkscape:connector-curvature="0"
   style="fill:none;stroke:#2b2a29;stroke-width:75;stroke-linecap:round;stroke-linejoin:round" />
   <path
   class="fil0 str0"
   d="m 6348,11258 c -16,54 -33,108 -41,150 -9,41 -9,71 -9,101"
   id="path111"
   inkscape:connector-curvature="0"
   style="fill:none;stroke:#2b2a29;stroke-width:75;stroke-linecap:round;stroke-linejoin:round" />
  </g>
 </g>
</svg>