<?xml version="1.0" encoding="UTF-8" standalone="no"?>
<!-- Creator: CorelDRAW X7 -->

<svg
   xmlns:dc="http://purl.org/dc/elements/1.1/"
   xmlns:cc="http://creativecommons.org/ns#"
   xmlns:rdf="http://www.w3.org/1999/02/22-rdf-syntax-ns#"
   xmlns:svg="http://www.w3.org/2000/svg"
   xmlns="http://www.w3.org/2000/svg"
   xmlns:sodipodi="http://sodipodi.sourceforge.net/DTD/sodipodi-0.dtd"
   xmlns:inkscape="http://www.inkscape.org/namespaces/inkscape"
   xml:space="preserve"
   width="1889.7638"
   height="1122.5197"
   version="1.1"
   style="clip-rule:evenodd;fill-rule:evenodd;image-rendering:optimizeQuality;shape-rendering:geometricPrecision;text-rendering:geometricPrecision"
   viewBox="0 0 50000 29700"
   id="svg477"
   sodipodi:docname="background_3.svg"
   inkscape:version="0.92.4 (5da689c313, 2019-01-14)"><metadata
   id="metadata481"><rdf:RDF><cc:Work
       rdf:about=""><dc:format>image/svg+xml</dc:format><dc:type
         rdf:resource="http://purl.org/dc/dcmitype/StillImage" /><dc:title></dc:title></cc:Work></rdf:RDF></metadata><sodipodi:namedview
   pagecolor="#ffffff"
   bordercolor="#666666"
   borderopacity="1"
   objecttolerance="10"
   gridtolerance="10"
   guidetolerance="10"
   inkscape:pageopacity="0"
   inkscape:pageshadow="2"
   inkscape:window-width="1920"
   inkscape:window-height="1017"
   id="namedview479"
   showgrid="false"
   units="px"
   inkscape:zoom="0.56874955"
   inkscape:cx="822.87259"
   inkscape:cy="601.50701"
   inkscape:window-x="-8"
   inkscape:window-y="32"
   inkscape:window-maximized="1"
   inkscape:current-layer="_2904701483632" />
 <defs
   id="defs425">
  <style
   type="text/css"
   id="style423">
   <![CDATA[
    .str0 {stroke:#CCCCCC;stroke-width:25;stroke-linecap:round;stroke-linejoin:round}
    .str1 {stroke:#CCCCCC;stroke-width:25;stroke-linecap:round;stroke-linejoin:round}
    .fil0 {fill:none}
   ]]>
  </style>
 </defs>
 <g
   id="Слой_x0020_1">
  <metadata
   id="CorelCorpID_0Corel-Layer" />
  <g
   id="_2904701483632">
   <path
   class="fil0 str0"
   d="m 29582.199,14201.51 c 10,-87 -22,-237 50,-483 72,-247 247,-590 431,-833 184,-244 377,-387 477,-471 100,-85 106,-110 75,-138 -31,-28 -100,-59 -240,-25 -141,35 -353,135 -512,263 -159,127 -265,283 -377,468 -113,184 -231,396 -284,589 -53,194 -41,368 15,493 56,125 156,200 231,225 75,25 125,0 134,-88 z"
   id="path428"
   inkscape:connector-curvature="0"
   style="fill:none;stroke:#cccccc;stroke-width:25;stroke-linecap:round;stroke-linejoin:round" />
   <path
   class="fil0 str0"
   d="m 29754.199,14264.51 c 224,-150 449,-300 618,-506 168,-206 280,-468 349,-683 69,-215 94,-384 119,-552"
   id="path430"
   inkscape:connector-curvature="0"
   style="fill:none;stroke:#cccccc;stroke-width:25;stroke-linecap:round;stroke-linejoin:round" />
   <path
   class="fil0 str0"
   d="m 30128.199,13309.51 c 212,112 425,225 637,337"
   id="path432"
   inkscape:connector-curvature="0"
   style="fill:none;stroke:#cccccc;stroke-width:25;stroke-linecap:round;stroke-linejoin:round" />
   <path
   class="fil0 str0"
   d="m 30833.199,13924.51 c 75,59 181,78 247,18 65,-59 90,-196 59,-290 -31,-93 -118,-143 -206,-134 -87,10 -175,78 -196,162 -22,85 21,184 96,244 z"
   id="path434"
   inkscape:connector-curvature="0"
   style="fill:none;stroke:#cccccc;stroke-width:25;stroke-linecap:round;stroke-linejoin:round" />
   <path
   class="fil0 str0"
   d="m 27302.199,12429.51 c 124,-18 249,-37 321,-47 72,-9 90,-9 321,125 231,134 674,403 896,540 221,137 221,144 290,28 68,-115 206,-352 278,-480 71,-128 78,-147 -147,-287 -225,-141 -680,-403 -1136,-665"
   id="path436"
   inkscape:connector-curvature="0"
   style="fill:none;stroke:#cccccc;stroke-width:25;stroke-linecap:round;stroke-linejoin:round" />
   <path
   class="fil0 str0"
   d="m 27924.199,11353.51 c 73,100 147,200 220,299"
   id="path438"
   inkscape:connector-curvature="0"
   style="fill:none;stroke:#cccccc;stroke-width:25;stroke-linecap:round;stroke-linejoin:round" />
   <path
   class="fil0 str0"
   d="m 27320.199,12448.51 c 206,-356 412,-711 618,-1067"
   id="path440"
   inkscape:connector-curvature="0"
   style="fill:none;stroke:#cccccc;stroke-width:25;stroke-linecap:round;stroke-linejoin:round" />
   <path
   class="fil0 str0"
   d="m 27405.199,14152.51 c 40,-156 184,-387 305,-609 122,-221 222,-434 272,-552 50,-119 50,-144 140,-106 91,37 272,137 362,237 91,100 91,200 -9,393 -100,193 -300,481 -425,668 -124,187 -174,274 -255,305 -82,32 -194,7 -281,-46 -88,-53 -150,-134 -109,-290 z"
   id="path442"
   inkscape:connector-curvature="0"
   style="fill:none;stroke:#cccccc;stroke-width:25;stroke-linecap:round;stroke-linejoin:round" />
   <path
   class="fil0 str0"
   d="m 28849.199,11808.51 c -56,-96 -81,-196 3,-377 84,-181 278,-443 415,-637 137,-193 219,-318 318,-346 100,-28 219,41 300,106 81,66 125,128 118,247 -6,118 -62,293 -187,514 -125,222 -318,490 -452,628 -134,137 -209,143 -290,99 -81,-43 -169,-137 -225,-234 z"
   id="path444"
   inkscape:connector-curvature="0"
   style="fill:none;stroke:#cccccc;stroke-width:25;stroke-linecap:round;stroke-linejoin:round" />
   <path
   class="fil0 str0"
   d="m 27517.199,13927.51 c 171,103 343,206 515,309"
   id="path446"
   inkscape:connector-curvature="0"
   style="fill:none;stroke:#cccccc;stroke-width:25;stroke-linecap:round;stroke-linejoin:round" />
   <path
   class="fil0 str0"
   d="m 27695.199,13543.51 c 187,100 374,200 561,300"
   id="path448"
   inkscape:connector-curvature="0"
   style="fill:none;stroke:#cccccc;stroke-width:25;stroke-linecap:round;stroke-linejoin:round" />
   <path
   class="fil0 str0"
   d="m 27901.199,13159.51 c 190,119 380,237 571,356"
   id="path450"
   inkscape:connector-curvature="0"
   style="fill:none;stroke:#cccccc;stroke-width:25;stroke-linecap:round;stroke-linejoin:round" />
   <path
   class="fil0 str0"
   d="m 28865.199,11418.51 c 212,131 424,262 636,394"
   id="path452"
   inkscape:connector-curvature="0"
   style="fill:none;stroke:#cccccc;stroke-width:25;stroke-linecap:round;stroke-linejoin:round" />
   <path
   class="fil0 str0"
   d="m 29108.199,11072.51 c 203,147 406,293 608,440"
   id="path454"
   inkscape:connector-curvature="0"
   style="fill:none;stroke:#cccccc;stroke-width:25;stroke-linecap:round;stroke-linejoin:round" />
   <path
   class="fil0 str0"
   d="m 29333.199,10735.51 c 202,109 405,219 608,328"
   id="path456"
   inkscape:connector-curvature="0"
   style="fill:none;stroke:#cccccc;stroke-width:25;stroke-linecap:round;stroke-linejoin:round" />
  </g>
  <path
   class="fil0 str1"
   d="m 5257.634,16371.882 c 57.7576,-286.538 622.5822,-675.839 1439.4401,-1035.136 817.6081,-358.548 1886.4993,-687.091 2978.6436,-931.623 1092.1443,-244.533 2206.7913,-404.304 3218.6753,-396.803 1011.884,7.501 1921.004,183.024 2394.317,301.54 473.312,118.516 511.567,179.274 405.053,354.797 -107.264,176.273 -359.297,465.811 -1252.665,825.109 -893.369,359.297 -2428.821,786.854 -3925.269,1053.889 -1497.1981,267.035 -2955.3908,374.299 -3910.2669,336.044 -954.1261,-38.255 -1404.9357,-221.279 -1347.9281,-507.817 z"
   id="path459"
   inkscape:connector-curvature="0"
   style="fill:none;stroke:#cccccc;stroke-width:18.75247765;stroke-linecap:round;stroke-linejoin:round" />
  <path
   class="fil0 str0"
   d="m 7819.9725,14870.934 c -45.756,-389.301 -91.5121,-778.603 80.2606,-1187.407 171.7727,-408.804 561.0741,-836.36 1130.3994,-1095.895 568.5751,-259.534 1317.1735,-351.046 1920.2535,-248.282 603.83,103.513 1061.391,401.303 1298.422,714.844 237.031,314.292 252.033,644.335 267.785,974.379"
   id="path461"
   inkscape:connector-curvature="0"
   style="fill:none;stroke:#cccccc;stroke-width:18.75247765;stroke-linecap:round;stroke-linejoin:round" />
  <g
   id="_2904701481776">
   <path
   class="fil0 str0"
   d="m 44963,18264 c 49,-193 170,-426 340,-591 169,-165 388,-263 639,-283 251,-21 535,34 753,183 219,149 372,391 447,607 74,216 69,407 23,607 -47,200 -135,409 -309,571 -175,163 -435,279 -707,277 -272,-2 -556,-123 -756,-288 -199,-165 -316,-374 -385,-556 -70,-181 -93,-334 -45,-527 z"
   id="path463"
   inkscape:connector-curvature="0"
   style="fill:none;stroke:#cccccc;stroke-width:25;stroke-linecap:round;stroke-linejoin:round" />
   <path
   class="fil0 str0"
   d="m 45282,17717 c 204,47 409,93 653,93 244,0 528,-46 685,-75 157,-28 187,-39 217,-49"
   id="path465"
   inkscape:connector-curvature="0"
   style="fill:none;stroke:#cccccc;stroke-width:25;stroke-linecap:round;stroke-linejoin:round" />
   <path
   class="fil0 str0"
   d="m 44936,18437 c 325,39 649,78 1025,67 375,-12 802,-74 1228,-136"
   id="path467"
   inkscape:connector-curvature="0"
   style="fill:none;stroke:#cccccc;stroke-width:25;stroke-linecap:round;stroke-linejoin:round" />
   <path
   class="fil0 str0"
   d="m 45213,19162 c 343,25 687,50 992,42 304,-8 569,-50 834,-92"
   id="path469"
   inkscape:connector-curvature="0"
   style="fill:none;stroke:#cccccc;stroke-width:25;stroke-linecap:round;stroke-linejoin:round" />
  </g>
  <path
   class="fil0 str1"
   d="m 5604.1797,16546.655 c 570.0754,58.508 1139.4006,117.766 1844.4938,98.263 705.0931,-20.252 1545.2041,-118.515 2011.7658,-189.025 466.5616,-71.259 559.5737,-115.515 653.3367,-159.771"
   id="path472"
   inkscape:connector-curvature="0"
   style="fill:none;stroke:#cccccc;stroke-width:18.75247765;stroke-linecap:round;stroke-linejoin:round" />
  <path
   class="fil0 str1"
   d="m 10158.031,12523.124 c 318.792,34.505 638.335,69.009 869.365,246.032 230.281,176.274 372.799,495.816 515.318,815.358"
   id="path474"
   inkscape:connector-curvature="0"
   style="fill:none;stroke:#cccccc;stroke-width:18.75247765;stroke-linecap:round;stroke-linejoin:round" />
 </g>
</svg>