<?xml version="1.0" encoding="UTF-8" standalone="no"?>
<!-- Creator: CorelDRAW X7 -->

<svg
   xmlns:dc="http://purl.org/dc/elements/1.1/"
   xmlns:cc="http://creativecommons.org/ns#"
   xmlns:rdf="http://www.w3.org/1999/02/22-rdf-syntax-ns#"
   xmlns:svg="http://www.w3.org/2000/svg"
   xmlns="http://www.w3.org/2000/svg"
   xmlns:sodipodi="http://sodipodi.sourceforge.net/DTD/sodipodi-0.dtd"
   xmlns:inkscape="http://www.inkscape.org/namespaces/inkscape"
   xml:space="preserve"
   width="1300"
   height="600"
   version="1.1"
   style="clip-rule:evenodd;fill-rule:evenodd;image-rendering:optimizeQuality;shape-rendering:geometricPrecision;text-rendering:geometricPrecision"
   viewBox="0 0 34395.834 15875"
   id="svg183"
   sodipodi:docname="background_1.svg"
   inkscape:version="0.92.4 (5da689c313, 2019-01-14)"><metadata
   id="metadata187"><rdf:RDF><cc:Work
       rdf:about=""><dc:format>image/svg+xml</dc:format><dc:type
         rdf:resource="http://purl.org/dc/dcmitype/StillImage" /><dc:title></dc:title></cc:Work></rdf:RDF></metadata><sodipodi:namedview
   pagecolor="#ffffff"
   bordercolor="#666666"
   borderopacity="1"
   objecttolerance="10"
   gridtolerance="10"
   guidetolerance="10"
   inkscape:pageopacity="0"
   inkscape:pageshadow="2"
   inkscape:window-width="1920"
   inkscape:window-height="1017"
   id="namedview185"
   showgrid="false"
   units="px"
   inkscape:zoom="0.80433333"
   inkscape:cx="734.71868"
   inkscape:cy="335.19864"
   inkscape:window-x="-8"
   inkscape:window-y="32"
   inkscape:window-maximized="1"
   inkscape:current-layer="Слой_x0020_1" />
 <defs
   id="defs157">
  <style
   type="text/css"
   id="style155">
   <![CDATA[
    .str0 {stroke:#DBDBDB;stroke-width:25}
    .str1 {stroke:#DBDBDB;stroke-width:25}
    .fil0 {fill:none}
   ]]>
  </style>
 </defs>
 <g
   id="Слой_x0020_1"
   transform="matrix(0.46116308,0,0,0.46116308,-386.74204,637.29863)">
  <metadata
   id="CorelCorpID_0Corel-Layer" />
  <path
   class="fil0 str0"
   d="m 35907.196,6390.2182 c -20,-20 43,-157 -34,-321 -78,-163 -295,-352 -550,-441 -255,-89 -548,-77 -831,-31 -284,46 -559,126 -740,278 -180,152 -266,375 -238,567 29,192 172,352 419,501 246,149 596,287 957,353 361,66 733,60 1069,11 335,-48 633,-140 851,-229 218,-89 355,-175 389,-183 35,-9 -34,60 -209,172 -175,111 -455,266 -831,372 -375,106 -845,164 -1289,129 -444,-34 -863,-160 -1195,-358 -333,-198 -579,-467 -648,-725 -68,-258 40,-504 264,-696 223,-192 562,-330 880,-407 318,-78 616,-95 874,-69 258,26 475,95 647,189 172,95 298,215 364,338 66,123 72,250 23,361 -49,112 -152,209 -172,189 z"
   id="path160"
   inkscape:connector-curvature="0"
   style="fill:none;stroke:#dbdbdb;stroke-width:25" />
  <path
   class="fil0 str0"
   d="m 34263.196,5860.2182 c 8,32 -58,125 -62,243 -5,118 53,262 199,382 146,120 381,218 659,261 278,43 599,31 857,-43 258,-75 452,-212 573,-367 120,-155 166,-327 132,-484 -35,-158 -149,-301 -296,-416 -146,-114 -323,-200 -555,-266 -233,-66 -519,-112 -817,-135 -298,-23 -608,-23 -954,49 -347,71 -731,215 -934,298 -204,83 -227,106 -141,43 86,-63 281,-212 631,-353 349,-140 853,-272 1303,-292 450,-20 846,72 1221,203 375,132 731,304 911,502 181,198 187,421 126,642 -60,220 -186,438 -418,593 -232,155 -570,246 -877,295 -306,49 -582,55 -877,-6 -295,-60 -610,-186 -780,-344 -170,-159 -194,-349 -182,-484 12,-134 61,-213 126,-268 65,-54 147,-84 155,-53 z"
   id="path162"
   inkscape:connector-curvature="0"
   style="fill:none;stroke:#dbdbdb;stroke-width:25" />
  <path
   class="fil0 str1"
   d="m 59669.461,4819.0104 c 71.565,854.184 284.947,1756.296 759.639,2669.569 474.693,913.931 1210.038,1839.679 2326.189,2408.916 1114.837,569.8926 2610.478,783.2736 3903.899,558.0746 1293.421,-225.2 2385.28,-889.6366 3168.554,-1779.9316 783.275,-890.293 1257.311,-2005.788 1435.894,-3073.352 177.928,-1068.221 59.091,-2088.514 -356.511,-2978.8084 C 70492.18,1733.185 69779.813,974.202 68890.176,368.855 67999.882,-236.492 66932.317,-687.549 65852.278,-782.093 c -1080.04,-95.201 -2171.898,166.11 -3192.19,747.164 -1020.95,581.711 -1970.334,1483.823 -2480.48,2338.006 -510.147,854.1834 -581.055,1661.0944 -510.147,2515.9334 z"
   id="path164"
   inkscape:connector-curvature="0"
   style="fill:none;stroke:#dbdbdb;stroke-width:16.41397476" />
  <path
   class="fil0 str1"
   d="m 59938.65,6306.1174 c -754.385,533.126 -1508.772,1065.595 -2028.11,1688.013 -519.338,622.418 -804.285,1334.128 -400.501,1689.983 403.127,355.8546 1494.985,355.8546 3227.644,-260.654 1732.003,-617.165 4106.12,-1851.497 6230.088,-3180.372 2123.968,-1329.532 3999.101,-2753.608 5114.594,-3797.5364 1115.494,-1044.586 1471.35,-1709.023 1494.985,-2088.514 23.637,-380.148 -284.946,-474.692 -866.001,-427.42 -581.711,47.272 -1435.894,237.675 -2005.788,403.784 -569.236,166.109 -854.183,308.583 -1139.13,451.056"
   id="path166"
   inkscape:connector-curvature="0"
   style="fill:none;stroke:#dbdbdb;stroke-width:16.41397476" />
  <path
   class="fil0 str1"
   d="m 1210.9515,108.19355 c 79,-180.999999 232,-469 448,-631 216,-162 496,-197 819,-238 323,-41 691,-88 1000,-16 308,72 558,263 729,500 170,236.000001 261,518 294,783 32,265 6,512.00005 -152,673.00005 -157,162 -445,238 -742,246 -297,7 -603,-55 -888,-144 -285,-90 -550,-208 -766,-302.00005 -216,-94 -383,-164 -514,-251 -131,-87 -225,-190 -269,-278 -44,-88 -38,-162 41,-342 z"
   id="path168"
   inkscape:connector-curvature="0"
   style="fill:none;stroke:#dbdbdb;stroke-width:25" />
  <path
   class="fil0 str1"
   d="m 1375.9515,691.19355 c 82,-56 164,-112 317,-138 153,-26 376,-24 504,82 127,106 158,314 189,522.00005"
   id="path170"
   inkscape:connector-curvature="0"
   style="fill:none;stroke:#dbdbdb;stroke-width:25" />
  <path
   class="fil0 str1"
   d="m 2248.9515,-498.80645 c -33,50 -65,100 -88,151 -24,51 -39,104 -53,157"
   id="path172"
   inkscape:connector-curvature="0"
   style="fill:none;stroke:#dbdbdb;stroke-width:25" />
  <path
   class="fil0 str1"
   d="m 2601.9515,-472.80645 c -56,50 -112,100 -143,176 -31,77 -37,180 -43,283.000001"
   id="path174"
   inkscape:connector-curvature="0"
   style="fill:none;stroke:#dbdbdb;stroke-width:25" />
  <path
   class="fil0 str1"
   d="m 2817.9515,-107.80645 c 75,-68 198,-203 389,-217 191,-13 450,96 591,224 141,128.000001 165,275 49,378 -117,103 -372,161 -591,129 -219,-32 -402,-156 -490,-245 -88,-89.999999 -82,-145.999999 -66,-173.999999 16,-28 43,-28 118,-95.000001 z"
   id="path176"
   inkscape:connector-curvature="0"
   style="fill:none;stroke:#dbdbdb;stroke-width:25" />
  <path
   class="fil0 str1"
   d="m 3368.9515,832.19355 c 147,3 294,6 410,-38 116,-44 201,-135 287,-226"
   id="path178"
   inkscape:connector-curvature="0"
   style="fill:none;stroke:#dbdbdb;stroke-width:25" />
  <path
   class="fil0 str1"
   d="m 2592.9515,718.19355 c 56,64 111,129 138,185 26,56 23,103.00005 20,150.00005"
   id="path180"
   inkscape:connector-curvature="0"
   style="fill:none;stroke:#dbdbdb;stroke-width:25" />
 </g>
</svg>