<?xml version="1.0" encoding="UTF-8" standalone="no"?>
<!-- Creator: CorelDRAW X7 -->

<svg
   xmlns:dc="http://purl.org/dc/elements/1.1/"
   xmlns:cc="http://creativecommons.org/ns#"
   xmlns:rdf="http://www.w3.org/1999/02/22-rdf-syntax-ns#"
   xmlns:svg="http://www.w3.org/2000/svg"
   xmlns="http://www.w3.org/2000/svg"
   xmlns:sodipodi="http://sodipodi.sourceforge.net/DTD/sodipodi-0.dtd"
   xmlns:inkscape="http://www.inkscape.org/namespaces/inkscape"
   xml:space="preserve"
   width="800"
   height="600"
   version="1.1"
   style="clip-rule:evenodd;fill-rule:evenodd;image-rendering:optimizeQuality;shape-rendering:geometricPrecision;text-rendering:geometricPrecision"
   viewBox="0 0 21166.667 15875"
   id="svg357"
   sodipodi:docname="background_2.svg"
   inkscape:version="0.92.4 (5da689c313, 2019-01-14)"><metadata
   id="metadata361"><rdf:RDF><cc:Work
       rdf:about=""><dc:format>image/svg+xml</dc:format><dc:type
         rdf:resource="http://purl.org/dc/dcmitype/StillImage" /><dc:title /></cc:Work></rdf:RDF></metadata><sodipodi:namedview
   pagecolor="#ffffff"
   bordercolor="#666666"
   borderopacity="1"
   objecttolerance="10"
   gridtolerance="10"
   guidetolerance="10"
   inkscape:pageopacity="0"
   inkscape:pageshadow="2"
   inkscape:window-width="1920"
   inkscape:window-height="1017"
   id="namedview359"
   showgrid="false"
   units="px"
   inkscape:zoom="1.1374991"
   inkscape:cx="502.63468"
   inkscape:cy="268.67459"
   inkscape:window-x="-8"
   inkscape:window-y="32"
   inkscape:window-maximized="1"
   inkscape:current-layer="_2904697543744" />
 <defs
   id="defs278">
  <style
   type="text/css"
   id="style276">
   <![CDATA[
    .str0 {stroke:#DBDBDB;stroke-width:25}
    .str1 {stroke:#DBDBDB;stroke-width:25;stroke-linecap:round;stroke-linejoin:round}
    .fil0 {fill:none}
   ]]>
  </style>
 </defs>
 <g
   id="Слой_x0020_1"
   transform="matrix(0.44948364,0,0,0.44948364,-713.96824,2890.4707)">
  <metadata
   id="CorelCorpID_0Corel-Layer" />
  <g
   id="_2904697543744">
   <path
   class="fil0 str0"
   d="m 43207,13876 c -44,56 -44,126 12,164 56,39 167,44 232,-8 65,-53 82,-165 71,-224 -12,-59 -53,-65 -118,-47 -65,18 -153,59 -197,115 z"
   id="path281"
   inkscape:connector-curvature="0"
   style="fill:none;stroke:#dbdbdb;stroke-width:25" />
   <path
   class="fil0 str0"
   d="m 43269,13808 c -135,-259 -271,-517 -406,-776"
   id="path283"
   inkscape:connector-curvature="0"
   style="fill:none;stroke:#dbdbdb;stroke-width:25" />
   <path
   class="fil0 str0"
   d="m 43445,14055 c 271,529 541,1058 678,1323 136,265 139,265 142,265"
   id="path285"
   inkscape:connector-curvature="0"
   style="fill:none;stroke:#dbdbdb;stroke-width:25" />
   <path
   class="fil0 str0"
   d="m 44254,15774 c 38,-7 95,-18 125,-43 29,-25 30,-63 9,-83 -21,-19 -65,-19 -106,-11 -40,7 -77,22 -94,47 -17,26 -14,63 -3,81 11,17 30,16 69,9 z"
   id="path287"
   inkscape:connector-curvature="0"
   style="fill:none;stroke:#dbdbdb;stroke-width:25" />
   <path
   class="fil0 str0"
   d="m 7352,25396 c 117,-41 329,-127 530,-89 201,38 389,199 467,388 78,189 45,406 -45,558 -90,152 -237,239 -385,284 -148,45 -296,49 -435,-10 -139,-60 -267,-182 -336,-319 -68,-138 -76,-290 -58,-422 18,-131 62,-243 94,-297 32,-54 52,-52 168,-93 z"
   id="path289"
   inkscape:connector-curvature="0"
   style="fill:none;stroke:#dbdbdb;stroke-width:25" />
   <path
   class="fil0 str0"
   d="m 5274,24961 c 778,308 1556,616 2334,924"
   id="path291"
   inkscape:connector-curvature="0"
   style="fill:none;stroke:#dbdbdb;stroke-width:25" />
   <path
   class="fil0 str0"
   d="m 5730,24030 c 681,357 1363,714 1742,933 379,219 454,300 529,381"
   id="path293"
   inkscape:connector-curvature="0"
   style="fill:none;stroke:#dbdbdb;stroke-width:25" />
   <path
   class="fil0 str0"
   d="m 5040,25839 c 380,149 760,298 1122,411 362,114 707,191 944,237 237,46 366,61 496,75"
   id="path295"
   inkscape:connector-curvature="0"
   style="fill:none;stroke:#dbdbdb;stroke-width:25" />
   <path
   class="fil0 str0"
   d="m 7487,26161 c 107,11 214,23 303,5 90,-18 162,-65 234,-112"
   id="path297"
   inkscape:connector-curvature="0"
   style="fill:none;stroke:#dbdbdb;stroke-width:25" />
   <path
   class="fil0 str0"
   d="m 7702,26366 c 71,-16 142,-33 187,-48 45,-16 64,-30 83,-45"
   id="path299"
   inkscape:connector-curvature="0"
   style="fill:none;stroke:#dbdbdb;stroke-width:25" />
   <path
   class="fil0 str0"
   d="m 16367.357,10863.571 c 79,-181 232,-469 448,-631 217,-162 496,-197 819,-237.9997 324,-41 691,-88 1000,-16 308,71.9997 558,262.9997 729,499.9997 170,236 261,518 294,783 32,265 6,512 -152,673 -157,162 -445,238 -742,246 -297,7 -603,-55 -888,-144 -285,-90 -550,-208 -766,-302 -216,-94 -383,-164 -514,-251 -131,-87 -225,-190 -269,-278 -44,-88 -38,-162 41,-342 z"
   id="path301"
   inkscape:connector-curvature="0"
   style="fill:none;stroke:#dbdbdb;stroke-width:25" />
   <path
   class="fil0 str0"
   d="m 16532.357,11446.571 c 82,-56 164,-112 317,-138 153,-26 377,-24 504,82 127,106 158,314 189,522"
   id="path303"
   inkscape:connector-curvature="0"
   style="fill:none;stroke:#dbdbdb;stroke-width:25" />
   <path
   class="fil0 str0"
   d="m 17405.357,10256.571 c -32,50 -65,100 -88,151 -24,51 -39,104 -53,157"
   id="path305"
   inkscape:connector-curvature="0"
   style="fill:none;stroke:#dbdbdb;stroke-width:25" />
   <path
   class="fil0 str0"
   d="m 17758.357,10282.571 c -56,50 -112,100 -143,176 -31,77 -37,180 -43,283"
   id="path307"
   inkscape:connector-curvature="0"
   style="fill:none;stroke:#dbdbdb;stroke-width:25" />
   <path
   class="fil0 str0"
   d="m 17974.357,10647.571 c 75,-68 198,-203 389,-217 191,-13 450,96 591,224 141,128 165,275 49,378 -116,103 -372,161 -591,129 -219,-32 -402,-156 -490,-245 -88,-90 -82,-146 -66,-174 16,-28 43,-28 118,-95 z"
   id="path309"
   inkscape:connector-curvature="0"
   style="fill:none;stroke:#dbdbdb;stroke-width:25" />
   <path
   class="fil0 str0"
   d="m 18525.357,11587.571 c 147,3 294,6 410,-38 116,-44 201,-135 287,-226"
   id="path311"
   inkscape:connector-curvature="0"
   style="fill:none;stroke:#dbdbdb;stroke-width:25" />
   <path
   class="fil0 str0"
   d="m 17749.357,11473.571 c 56,64 112,129 138,185 26,56 24,103 21,150"
   id="path313"
   inkscape:connector-curvature="0"
   style="fill:none;stroke:#dbdbdb;stroke-width:25" />
   <path
   class="fil0 str0"
   d="m 4402,24521 c 49,36 99,72 166,106 68,33 154,63 198,78 44,16 46,17 44,16 -1,-2 -6,-5 -11,-8"
   id="path315"
   inkscape:connector-curvature="0"
   style="fill:none;stroke:#dbdbdb;stroke-width:25" />
   <path
   class="fil0 str0"
   d="m 3469,23907 c 86,82 172,164 263,234 90,71 184,130 279,188"
   id="path317"
   inkscape:connector-curvature="0"
   style="fill:none;stroke:#dbdbdb;stroke-width:25" />
   <path
   class="fil0 str0"
   d="m 2640,23118 c 60,84 119,169 193,245 74,77 164,145 253,213"
   id="path319"
   inkscape:connector-curvature="0"
   style="fill:none;stroke:#dbdbdb;stroke-width:25" />
   <path
   class="fil0 str0"
   d="m 2010,22166 c 45,95 91,189 147,288 56,99 123,202 189,306"
   id="path321"
   inkscape:connector-curvature="0"
   style="fill:none;stroke:#dbdbdb;stroke-width:25" />
   <path
   class="fil0 str1"
   d="m 39304,22683 c 163,-487 327,-973 466,-1240 139,-267 253,-315 270,-426 16,-111 -64,-284 -145,-458"
   id="path323"
   inkscape:connector-curvature="0"
   style="fill:none;stroke:#dbdbdb;stroke-width:25;stroke-linecap:round;stroke-linejoin:round" />
   <path
   class="fil0 str1"
   d="m 41184,19689 c 177,81 354,162 691,64 337,-98 836,-374 1280,-532 444,-158 835,-199 1313,-111 478,87 1044,303 1381,478 336,175 444,310 579,367 135,59 297,40 410,22 113,-19 176,-36 239,-54"
   id="path325"
   inkscape:connector-curvature="0"
   style="fill:none;stroke:#dbdbdb;stroke-width:25;stroke-linecap:round;stroke-linejoin:round" />
   <path
   class="fil0 str1"
   d="m 47884,20981 c -77,135 -154,270 -78,549 76,280 305,704 383,1253 77,549 3,1222 -44,1687 -47,465 -67,721 -222,963 -155,243 -445,471 -605,778 -161,308 -193,693 -224,1078"
   id="path327"
   inkscape:connector-curvature="0"
   style="fill:none;stroke:#dbdbdb;stroke-width:25;stroke-linecap:round;stroke-linejoin:round" />
   <path
   class="fil0 str1"
   d="m 41264,27650 c 507,26 1014,53 1490,-1 475,-54 920,-189 1226,-164 307,25 475,210 644,394"
   id="path329"
   inkscape:connector-curvature="0"
   style="fill:none;stroke:#dbdbdb;stroke-width:25;stroke-linecap:round;stroke-linejoin:round" />
   <path
   class="fil0 str1"
   d="m 39310,22679 c -155,148 -310,296 -300,458 10,161 185,336 330,461 145,124 259,199 226,337 -34,138 -216,340 -283,616 -67,276 -20,626 71,929 90,303 225,559 548,903 324,343 835,774 1098,1000 263,225 276,245 290,266"
   id="path331"
   inkscape:connector-curvature="0"
   style="fill:none;stroke:#dbdbdb;stroke-width:25;stroke-linecap:round;stroke-linejoin:round" />
   <path
   class="fil0 str1"
   d="m 39290,24517 c 296,61 592,121 1033,461 441,341 1027,960 1310,1361 283,401 263,582 255,772 -8,189 -3,386 2,583"
   id="path333"
   inkscape:connector-curvature="0"
   style="fill:none;stroke:#dbdbdb;stroke-width:25;stroke-linecap:round;stroke-linejoin:round" />
   <path
   class="fil0 str1"
   d="m 44596,27854 c 88,91 370,165 791,114 421,-50 980,-225 1310,-367 330,-141 431,-249 387,-367 -43,-117 -232,-245 -521,-262 -290,-17 -681,77 -1004,192 -323,114 -579,249 -761,370 -182,121 -289,229 -202,320 z"
   id="path335"
   inkscape:connector-curvature="0"
   style="fill:none;stroke:#dbdbdb;stroke-width:25;stroke-linecap:round;stroke-linejoin:round" />
   <path
   class="fil0 str1"
   d="m 41505,24174 c 14,175 121,431 307,495 185,64 447,-64 579,-246 131,-182 131,-418 -14,-529 -145,-111 -434,-97 -619,-43 -185,53 -266,148 -253,323 z"
   id="path337"
   inkscape:connector-curvature="0"
   style="fill:none;stroke:#dbdbdb;stroke-width:25;stroke-linecap:round;stroke-linejoin:round" />
   <path
   class="fil0 str1"
   d="m 42461,20450 c 14,310 -154,936 193,1256 346,320 1208,333 1700,104 491,-229 612,-700 505,-1071 -108,-370 -445,-639 -950,-720 -505,-81 -1178,27 -1417,77 -239,51 -44,44 -31,354 z"
   id="path339"
   inkscape:connector-curvature="0"
   style="fill:none;stroke:#dbdbdb;stroke-width:25;stroke-linecap:round;stroke-linejoin:round" />
   <path
   class="fil0 str1"
   d="m 40239,20527 c 216,-70 512,-192 704,-333 192,-141 279,-303 279,-411 0,-108 -87,-161 -289,-111 -202,51 -519,205 -734,384 -216,178 -330,380 -320,471 10,91 145,71 360,0 z"
   id="path341"
   inkscape:connector-curvature="0"
   style="fill:none;stroke:#dbdbdb;stroke-width:25;stroke-linecap:round;stroke-linejoin:round" />
   <path
   class="fil0 str1"
   d="m 46984,19947 c -125,88 -162,390 -26,621 136,232 446,394 658,441 212,47 327,-20 297,-189 -31,-168 -206,-438 -399,-636 -194,-198 -406,-324 -530,-237 z"
   id="path343"
   inkscape:connector-curvature="0"
   style="fill:none;stroke:#dbdbdb;stroke-width:25;stroke-linecap:round;stroke-linejoin:round" />
   <path
   class="fil0 str1"
   d="m 46155,21510 c 98,206 212,576 384,694 172,118 401,-17 485,-195 84,-179 23,-401 -189,-539 -212,-138 -576,-192 -717,-199 -141,-6 -61,34 37,239 z"
   id="path345"
   inkscape:connector-curvature="0"
   style="fill:none;stroke:#dbdbdb;stroke-width:25;stroke-linecap:round;stroke-linejoin:round" />
   <path
   class="fil0 str1"
   d="m 45613,25063 c -249,-14 -498,-27 -650,111 -151,138 -205,428 -161,650 43,222 185,377 265,454 81,78 102,78 118,78 17,0 31,0 21,-7 -11,-7 -44,-20 -78,-34"
   id="path347"
   inkscape:connector-curvature="0"
   style="fill:none;stroke:#dbdbdb;stroke-width:25;stroke-linecap:round;stroke-linejoin:round" />
   <path
   class="fil0 str0"
   d="m 44411,15669 c 83,-253 165,-506 247,-759"
   id="path349"
   inkscape:connector-curvature="0"
   style="fill:none;stroke:#dbdbdb;stroke-width:25" />
   <path
   class="fil0 str0"
   d="m 44612,14875 c 17,19 52,43 79,43 28,0 48,-22 48,-46 0,-24 -20,-49 -47,-57 -27,-7 -60,3 -77,16 -18,12 -19,26 -3,44 z"
   id="path351"
   inkscape:connector-curvature="0"
   style="fill:none;stroke:#dbdbdb;stroke-width:25" />
   <path
   class="fil0 str0"
   d="m 44598,14847 c -63,-9 -126,-19 -220,-36 -94,-18 -219,-43 -312,-59 -93,-17 -153,-24 -214,-31"
   id="path353"
   inkscape:connector-curvature="0"
   style="fill:none;stroke:#dbdbdb;stroke-width:25" />
  </g>
 </g>
</svg>