<?xml version="1.0" encoding="UTF-8" standalone="no"?>
<!-- Creator: CorelDRAW X7 -->

<svg
   xmlns:dc="http://purl.org/dc/elements/1.1/"
   xmlns:cc="http://creativecommons.org/ns#"
   xmlns:rdf="http://www.w3.org/1999/02/22-rdf-syntax-ns#"
   xmlns:svg="http://www.w3.org/2000/svg"
   xmlns="http://www.w3.org/2000/svg"
   xmlns:sodipodi="http://sodipodi.sourceforge.net/DTD/sodipodi-0.dtd"
   xmlns:inkscape="http://www.inkscape.org/namespaces/inkscape"
   xml:space="preserve"
   width="461"
   height="526"
   version="1.1"
   style="clip-rule:evenodd;fill-rule:evenodd;image-rendering:optimizeQuality;shape-rendering:geometricPrecision;text-rendering:geometricPrecision"
   viewBox="0 0 12197.292 13917.083"
   id="svg6522"
   sodipodi:docname="ca.svg"
   inkscape:version="0.92.4 (5da689c313, 2019-01-14)"><metadata
   id="metadata6526"><rdf:RDF><cc:Work
       rdf:about=""><dc:format>image/svg+xml</dc:format><dc:type
         rdf:resource="http://purl.org/dc/dcmitype/StillImage" /><dc:title></dc:title></cc:Work></rdf:RDF></metadata><sodipodi:namedview
   pagecolor="#ffffff"
   bordercolor="#666666"
   borderopacity="1"
   objecttolerance="10"
   gridtolerance="10"
   guidetolerance="10"
   inkscape:pageopacity="0"
   inkscape:pageshadow="2"
   inkscape:window-width="1920"
   inkscape:window-height="1017"
   id="namedview6524"
   showgrid="false"
   inkscape:zoom="1.6819304"
   inkscape:cx="381.31013"
   inkscape:cy="298.56423"
   inkscape:window-x="-8"
   inkscape:window-y="32"
   inkscape:window-maximized="1"
   inkscape:current-layer="svg6522"
   units="px" />
 <defs
   id="defs6452">
  <style
   type="text/css"
   id="style6450">
   <![CDATA[
    .str2 {stroke:#2B2A29;stroke-width:75}
    .str0 {stroke:#2B2A29;stroke-width:20}
    .str4 {stroke:#2B2A29;stroke-width:75;stroke-linecap:round}
    .str1 {stroke:#2B2A29;stroke-width:75;stroke-linecap:round;stroke-linejoin:round}
    .str3 {stroke:#2B2A29;stroke-width:75;stroke-linecap:round;stroke-linejoin:round}
    .fil0 {fill:none}
    .fil4 {fill:#7688A1}
    .fil2 {fill:#232323}
    .fil1 {fill:#1F1B20}
    .fil3 {fill:#FEED0A}
    .fil5 {fill:white}
   ]]>
  </style>
 </defs>
 <g
   id="Слой_x0020_1"
   transform="matrix(0.48621884,0,0,0.48621884,769.28665,-226.69462)">
  <metadata
   id="CorelCorpID_0Corel-Layer" />
  <g
   id="_1728678565936">
   <path
   class="fil0 str0"
   d="m 14553,2696 c -183,311 -251,558 -243,793 9,234 94,456 209,724 115,269 260,584 593,819 332,234 852,388 1309,460 456,73 848,64 1227,-64 380,-128 746,-375 964,-686 217,-311 285,-686 251,-1113 -34,-426 -170,-903 -503,-1296 -245,-289 -597,-532 -980,-680 -137,-53 -277,-94 -418,-121 -537,-102 -1083,0 -1505,239 -422,238 -720,614 -904,925 z"
   id="path6455"
   inkscape:connector-curvature="0"
   style="fill:none;stroke:#2b2a29;stroke-width:20" />
   <path
   class="fil0 str1"
   d="m 14553,2696 c 184,-311 482,-687 904,-925 422,-239 968,-341 1505,-239 537,102 1066,409 1398,801 333,393 469,870 503,1296 34,427 -34,802 -251,1113 -218,311 -584,558 -964,686 -379,128 -771,137 -1227,64 -457,-72 -977,-226 -1309,-460 -333,-235 -478,-550 -593,-819 -115,-268 -200,-490 -209,-724 -8,-235 60,-482 243,-793 z m -223,601 c 128,-60 287,-171 441,-188 153,-17 332,9 456,94 124,85 192,230 303,273 111,42 264,-17 396,8 132,26 243,137 260,248 17,110 -60,221 -25,345 34,124 179,260 264,392 85,132 111,260 89,345 -21,86 -89,128 -115,231 -25,102 -8,264 22,362 29,98 8,30 51,64 m 959,-3837 c -145,51 -290,103 -371,239 -81,136 -98,358 -26,477 73,120 235,137 290,226 56,90 5,252 -110,384 -116,132 -295,234 -359,337 -63,102 -12,204 150,268 162,64 434,90 631,154 196,64 315,166 353,320 39,153 -4,358 -25,520 -21,162 -21,281 4,392 26,111 38,175 90,277 M 17226,969 c 341,128 682,256 921,435 239,179 375,409 439,512 64,102 56,76 47,51 m 205,511 c 68,145 136,290 204,435 m -5013,1509 c 145,239 290,478 499,665 209,188 482,324 754,461 m -1304,-384 c 60,145 119,290 213,375 94,85 222,111 350,137"
   id="path6457"
   inkscape:connector-curvature="0"
   style="fill:none;stroke:#2b2a29;stroke-width:75;stroke-linecap:round;stroke-linejoin:round" />
  </g>
  <g
   id="_1728599282256">
   <path
   class="fil0 str2"
   d="m 8939,10701 c -37,-54 146,-35 271,-41 33,-1 69,-2 107,-5 183,-12 423,-45 587,-136 164,-91 251,-240 303,-285 51,-45 66,14 71,113 4,99 -3,237 16,346 19,108 64,185 146,267 83,82 202,168 284,246 81,77 124,147 118,224 -6,77 -98,158 -163,239 -308,378 -1151,101 -1335,-166 -38,-55 -60,-71 -94,-115 -146,-187 -194,-516 -311,-687 z m 3,-832 c 32,23 43,74 31,103 -11,29 -45,36 -83,27 -38,-9 -81,-34 -95,-61 -15,-27 -2,-56 31,-72 32,-16 84,-20 116,3 z m 462,-309 c 43,-2 85,27 96,61 11,35 -11,73 -47,91 -36,17 -86,14 -118,-4 -32,-17 -46,-48 -32,-81 15,-32 58,-66 101,-67 z m 652,-131 c 29,19 48,55 36,82 -13,27 -57,45 -92,39 -34,-6 -60,-36 -66,-64 -7,-27 5,-52 30,-65 25,-12 64,-11 92,8 z m -1019,336 c -72,-68 -154,-93 -247,-69 -92,24 -196,97 -230,179 -33,82 4,175 73,249 69,75 171,131 276,117 105,-14 215,-99 238,-198 24,-98 -38,-209 -110,-278 z m 544,-246 c -69,-95 -148,-178 -238,-195 -90,-18 -191,29 -249,102 -59,72 -75,170 -54,267 21,97 79,193 157,254 78,62 176,88 274,64 98,-25 195,-101 215,-194 20,-92 -37,-202 -105,-298 z m 454,-262 c -73,-24 -165,-32 -242,1 -77,33 -138,107 -152,186 -15,78 18,161 67,244 50,82 116,165 185,190 69,25 141,-9 205,-66 65,-56 120,-136 138,-215 18,-79 -2,-158 -39,-217 -36,-59 -90,-99 -162,-123 z m 136,-1194 c -41,-50 -105,-108 -174,-125 -69,-18 -142,6 -186,60 -44,54 -58,138 -50,211 8,73 38,134 81,168 43,34 98,41 160,30 61,-11 128,-39 170,-77 42,-39 59,-87 59,-132 -1,-44 -19,-85 -60,-135 z m -1983,663 c -50,62 -99,124 -147,155 -48,30 -95,29 -133,-7 -38,-37 -67,-108 -72,-189 -4,-82 16,-173 65,-216 48,-43 125,-38 186,-10 60,29 103,80 109,135 6,54 -25,112 3,178 28,66 116,139 204,179 87,40 173,47 259,54 m 1381,-612 c -38,80 -76,159 -117,218 -41,59 -85,98 -128,136 m -41,-21 c -94,-25 -188,-49 -357,-33 -168,16 -411,74 -621,219 -211,146 -390,380 -534,591 -145,211 -255,399 -314,505 -59,106 -66,131 -64,166 3,35 16,79 82,86 65,7 183,-24 267,-84 84,-61 240,-283 290,-373 m -154,236 c -29,81 -16,67 -40,234 -24,167 -44,419 -86,732 -41,313 -103,686 -131,966 -27,280 -21,466 8,590 29,125 81,187 122,154 42,-34 73,-162 120,-325 47,-163 109,-360 153,-483 45,-122 115,-164 142,-211 m 1963,-2066 c 21,167 42,333 65,488 22,155 45,297 123,396 77,99 209,153 399,202 189,48 436,90 600,142 164,53 244,116 284,197 40,82 38,182 -29,234 -68,52 -202,56 -411,-1 -208,-57 -491,-175 -523,-170 -31,5 189,133 329,254 140,121 199,235 241,363 41,128 64,270 42,403 -23,133 -91,255 -75,334 16,80 116,116 218,167 102,51 206,116 250,185 43,69 26,142 -43,206 -69,64 -189,119 -312,116 -124,-4 -251,-65 -341,-130 -89,-64 -141,-132 -167,-166 -26,-34 -26,-34 -61,4 -35,38 -105,114 -342,202 -238,89 -644,190 -874,213 -231,23 -287,-33 -353,13 -65,46 -141,193 -264,286 -122,94 -292,133 -408,140 -116,7 -178,-18 -212,-65 -34,-47 -40,-117 10,-186 51,-70 156,-140 221,-177 64,-37 87,-40 38,-68 -48,-27 -168,-78 -266,-197 -98,-118 -176,-305 -212,-490 -35,-184 -30,-367 -3,-506 27,-139 76,-235 125,-331 M 9677,8708 c 145,29 291,58 429,152 139,95 270,255 411,364 141,109 291,167 366,216 76,49 76,90 -15,123 -304,108 -326,68 -532,-44 m -336,31 c -34,-6 -60,-36 -66,-64 -7,-27 5,-52 30,-65 25,-12 64,-11 92,8 29,19 48,55 36,82 -13,27 -57,45 -92,39 z m -665,158 c -32,-17 -46,-48 -32,-81 15,-32 58,-66 101,-67 43,-2 85,27 96,61 11,35 -11,73 -47,91 -36,17 -86,14 -118,-4 z m 599,-222 c -7,-27 5,-52 30,-65 25,-12 64,-11 92,8 29,19 48,55 36,82 -13,27 -57,45 -92,39 -34,-6 -60,-36 -66,-64 z m -599,222 c -32,-17 -46,-48 -32,-81 15,-32 58,-66 101,-67 43,-2 85,27 96,61 11,35 -11,73 -47,91 -36,17 -86,14 -118,-4 z m -540,230 c -15,-27 -2,-56 31,-72 32,-16 84,-20 116,3 32,23 43,74 31,103 -11,29 -45,36 -83,27 -38,-9 -81,-34 -95,-61 z M 9842,8377 c -43,-34 -73,-95 -81,-168 -8,-73 6,-157 50,-211 44,-54 117,-78 186,-60 69,17 133,75 174,125 41,50 59,91 60,135 0,45 -17,93 -59,132 -33,30 -82,54 -131,68 -13,4 -26,7 -39,9 -62,11 -117,4 -160,-30 z m -1934,497 c -38,-37 -67,-108 -72,-189 -4,-82 16,-173 65,-216 48,-43 125,-38 186,-10 60,29 103,80 109,135 5,41 -12,85 -8,132 -50,62 -99,124 -147,155 -48,30 -95,29 -133,-7 z m 2628,3103 c -93,36 -187,71 -303,86 -117,14 -256,8 -362,-19 -107,-26 -182,-73 -257,-119 m -1735,-342 c -42,100 -84,201 -95,317 -10,116 11,247 32,355 20,108 40,193 60,278 m -303,-777 c -13,137 -25,273 -21,375 5,102 28,169 34,209 7,40 -3,53 -4,62 -2,9 5,14 12,18 m 2659,-5021 c -33,86 -65,172 -93,231 -28,59 -51,90 -73,122 m -175,-666 c -1,111 -2,223 1,330 3,107 10,210 16,313 m -358,-307 c 28,77 55,153 87,210 33,58 72,97 110,136 m -1759,585 c 2,-57 5,-115 -6,-172 -10,-58 -32,-116 -55,-174 m -199,534 c -50,-23 -101,-45 -138,-82 -38,-36 -62,-86 -86,-137 m 312,55 c -42,-69 -84,-139 -136,-203 -53,-64 -115,-122 -177,-181 m 3114,3710 c -260,256 -557,161 -898,66 -25,-7 -571,-347 -411,-381 194,-42 935,-90 1148,46 189,120 249,183 161,269 z m -840,-718 c -343,103 -279,51 -316,-25 -32,-65 -51,-186 -12,-200 72,-28 150,-24 221,-39 86,-18 196,-115 240,-64 213,249 57,271 -133,328 z m 504,746 c -53,-23 -105,-47 -178,-59 -73,-13 -167,-13 -261,-14 m -613,-270 c -146,-187 -194,-516 -311,-687 -37,-54 146,-35 271,-41 33,-1 69,-2 107,-5 183,-12 423,-45 587,-136 164,-91 251,-240 303,-285 51,-45 66,14 71,113 4,99 -3,237 16,346 19,108 64,185 146,267 83,82 202,168 284,246 81,77 124,147 118,224 -6,77 -98,158 -163,239 -37,44 -80,80 -130,107 30,-20 60,-44 89,-73 88,-86 28,-149 -161,-269 -213,-136 -954,-88 -1148,-46 -138,29 250,286 375,361 -164,-67 -299,-157 -360,-246 -38,-55 -60,-71 -94,-115 z m 232,-428 c 37,76 -27,128 316,25 190,-57 346,-79 133,-328 -44,-51 -154,46 -240,64 -71,15 -149,11 -221,39 -39,14 -20,135 12,200 z M 9335,9708 c -32,-17 -46,-48 -32,-81 15,-32 58,-66 101,-67 43,-2 85,27 96,61 11,35 -11,73 -47,91 -36,17 -86,14 -118,-4 z m -540,230 c -15,-27 -2,-56 31,-72 32,-16 84,-20 116,3 32,23 43,74 31,103 -11,29 -45,36 -83,27 -38,-9 -81,-34 -95,-61 z m 1205,-388 c -34,-6 -60,-36 -66,-64 -7,-27 5,-52 30,-65 25,-12 64,-11 92,8 29,19 48,55 36,82 -13,27 -57,45 -92,39 z M 7836,8685 c -4,-82 16,-173 65,-216 48,-43 125,-38 186,-10 60,29 103,80 109,135 5,41 -12,85 -8,132 -50,62 -99,124 -147,155 -48,30 -95,29 -133,-7 -38,-37 -67,-108 -72,-189 z m 1925,-476 c -8,-73 6,-157 50,-211 44,-54 117,-78 186,-60 69,17 133,75 174,125 41,50 59,91 60,135 0,45 -17,93 -59,132 -33,30 -82,54 -131,68 -13,4 -26,7 -39,9 -62,11 -117,4 -160,-30 -43,-34 -73,-95 -81,-168 z"
   id="path6460"
   inkscape:connector-curvature="0"
   style="fill:none;stroke:#2b2a29;stroke-width:75" />
   <path
   class="fil1 str2"
   d="m 9250,11388 c -146,-187 -194,-516 -311,-687 -37,-54 146,-35 271,-41 33,-1 69,-2 107,-5 183,-12 423,-45 587,-136 164,-91 251,-240 303,-285 51,-45 66,14 71,113 4,99 -3,237 16,346 19,108 64,185 146,267 83,82 202,168 284,246 81,77 124,147 118,224 -6,77 -98,158 -163,239 -37,44 -80,80 -130,107 30,-20 60,-44 89,-73 88,-86 28,-148 -161,-269 -213,-136 -954,-88 -1148,-46 -138,29 250,286 375,361 -164,-67 -299,-157 -360,-246 -38,-55 -60,-71 -94,-115 z m 232,-428 c 37,76 -27,128 316,25 190,-57 346,-79 133,-328 -44,-51 -154,46 -240,64 -71,15 -149,11 -221,39 -39,14 -20,135 12,200 z"
   id="path6462"
   inkscape:connector-curvature="0"
   style="fill:#1f1b20;stroke:#2b2a29;stroke-width:75" />
   <path
   class="fil1 str2"
   d="m 9335,9708 c -32,-17 -46,-48 -32,-81 15,-32 58,-66 101,-67 43,-2 85,27 96,61 11,35 -11,73 -47,91 -36,17 -86,14 -118,-4 z"
   id="path6464"
   inkscape:connector-curvature="0"
   style="fill:#1f1b20;stroke:#2b2a29;stroke-width:75" />
   <path
   class="fil1 str2"
   d="m 8795,9938 c -15,-27 -2,-56 31,-72 32,-16 84,-20 116,3 32,23 43,74 31,103 -11,29 -45,36 -83,27 -38,-9 -80,-34 -95,-61 z"
   id="path6466"
   inkscape:connector-curvature="0"
   style="fill:#1f1b20;stroke:#2b2a29;stroke-width:75" />
   <path
   class="fil2 str2"
   d="m 9934,9486 c -7,-27 5,-52 30,-65 25,-12 64,-11 92,8 29,19 48,55 36,82 -13,27 -57,45 -92,39 -34,-6 -60,-36 -66,-64 z"
   id="path6468"
   inkscape:connector-curvature="0"
   style="fill:#232323;stroke:#2b2a29;stroke-width:75" />
   <path
   class="fil3 str2"
   d="m 7836,8685 c -4,-82 16,-173 65,-216 48,-43 125,-38 186,-10 60,29 103,80 109,135 5,41 -12,85 -8,132 -50,62 -99,124 -147,155 -48,30 -95,29 -133,-7 -38,-37 -67,-108 -72,-189 z"
   id="path6470"
   inkscape:connector-curvature="0"
   style="fill:#feed0a;stroke:#2b2a29;stroke-width:75" />
   <path
   class="fil3 str2"
   d="m 9842,8377 c -43,-34 -73,-95 -81,-168 -8,-73 6,-157 50,-211 44,-54 117,-78 186,-60 69,17 133,75 174,125 41,50 59,91 60,135 0,45 -17,93 -59,132 -33,30 -82,54 -131,68 -13,4 -26,7 -39,9 -62,11 -117,4 -160,-30 z"
   id="path6472"
   inkscape:connector-curvature="0"
   style="fill:#feed0a;stroke:#2b2a29;stroke-width:75" />
  </g>
  <path
   class="fil0 str1"
   d="m 3795,6070 c -74,-159 -161,-362 -178,-586 -16,-225 38,-471 148,-688 109,-216 274,-402 449,-542 175,-139 361,-233 581,-271 219,-38 470,-22 692,69 222,90 414,254 562,402 147,148 252,279 320,482 68,203 101,476 68,701 -32,225 -131,400 -306,572 -175,173 -427,343 -677,441 -249,99 -495,126 -739,82 -244,-44 -485,-159 -635,-274 -151,-115 -211,-230 -285,-388 z m -131,-341 c -115,115 -266,237 -307,343 -41,107 -8,206 131,203 140,-3 386,-107 907,-375 520,-268 1314,-701 1749,-969 436,-269 512,-373 515,-441 3,-69 -68,-102 -180,-88 -113,14 -221,62 -374,122 M 3632,5563 c -164,121 -382,249 -505,378 -123,129 -205,266 -208,383 -3,118 74,217 249,247 175,30 449,-8 802,-129 354,-120 786,-323 1230,-567 443,-243 898,-528 1213,-764 315,-235 490,-421 599,-567 110,-145 154,-249 137,-334 -16,-84 -93,-150 -254,-136 -162,13 -408,106 -586,172 -178,66 -245,90 -354,128 M 2609,6475 c -27,77 -54,153 14,227 69,74 233,145 340,159 106,14 156,-30 205,-74 m -756,49 c 61,82 121,165 176,203 54,38 104,33 153,27 M 7045,3748 c 121,-17 241,-33 337,-6 96,28 167,99 197,175 30,77 19,159 11,222 -8,63 -13,107 -19,151 m -99,181 c -43,60 -87,120 -123,153 -35,33 -63,38 -90,44"
   id="path6475"
   inkscape:connector-curvature="0"
   style="fill:none;stroke:#2b2a29;stroke-width:75;stroke-linecap:round;stroke-linejoin:round" />
  <g
   id="_1728599290448">
   <path
   class="fil0 str3"
   d="m 4561,15673 c 300,0 750,-113 1070,-338 319,-225 506,-563 610,-835 103,-272 122,-479 -10,-545 -131,-65 -413,10 -732,197 -319,188 -676,489 -938,723 -263,235 -432,404 -442,545 -9,140 141,253 442,253 z m 1694,-1732 c 183,-4 366,-9 697,28 331,38 809,118 1288,198 m -4083,1365 c 5,235 9,470 33,735 23,265 65,561 49,788 -16,228 -106,317 -181,477 -178,478 -356,957 -488,1361 -131,403 -216,732 -220,1225 -5,492 70,1149 117,1577 47,427 66,624 75,727 9,103 9,113 277,310 267,197 802,582 1506,1196 704,615 1577,1460 2047,2075 469,615 535,1000 596,1323 61,324 143,671 200,934 M 3580,22516 c -141,319 -282,638 -268,1150 14,511 183,1215 596,1924 413,709 1070,1422 1807,1910 737,488 1553,751 1971,812 418,61 437,-80 699,-108 263,-28 770,56 1324,38 554,-19 1057,-121 1658,-243 m -410,-471 c 310,376 620,751 1141,967 521,216 1253,272 2046,150 793,-122 1647,-422 2168,-680 521,-258 709,-474 789,-878 80,-404 51,-995 23,-1586 m -4987,2999 c 206,-235 360,-399 834,-657 474,-258 1215,-540 1844,-714 629,-173 1145,-239 1511,-230 366,10 582,94 798,179 M 7969,14120 c 696,-224 1392,-448 2035,-649 644,-201 1235,-379 2244,-152 1008,228 2434,862 3860,1495 m -19,-2 c 411,156 821,311 1177,596 356,284 656,697 811,1011 155,315 164,531 206,873 43,343 118,812 155,1084 38,273 38,348 38,423 m 0,-197 c 94,1135 188,2271 127,3243 -61,971 -277,1778 -470,2351 -192,573 -361,911 -516,1136 -155,225 -296,338 -436,450 M 10239,14730 c -361,47 -723,94 -990,406 -268,312 -441,889 -399,1429 42,539 300,1042 704,1452 404,411 953,730 1521,718 567,-11 1154,-354 1516,-793 361,-439 497,-974 474,-1457 -24,-483 -207,-915 -535,-1253 -329,-338 -803,-582 -1225,-685 -423,-104 -794,-66 -1092,21 -298,87 -523,223 -748,359 m 5712,2555 c -155,186 -385,491 -306,908 80,418 470,948 927,1153 458,204 984,82 1197,-214 214,-296 115,-765 -33,-1126 -148,-362 -345,-615 -598,-770 -254,-155 -563,-211 -758,-206 -195,4 -275,70 -429,255 z m -8054,4203 c -160,132 -324,319 -343,603 -18,284 108,664 442,857 333,192 872,197 1187,-14 314,-212 404,-639 326,-953 -77,-315 -321,-516 -540,-627 -218,-110 -410,-129 -584,-101 -174,29 -328,104 -488,235 z m 7157,2014 c -300,-5 -601,-10 -915,129 -314,138 -643,420 -803,741 -159,322 -150,683 29,882 178,200 525,237 873,275"
   id="path6477"
   inkscape:connector-curvature="0"
   style="fill:none;stroke:#2b2a29;stroke-width:75;stroke-linecap:round;stroke-linejoin:round" />
   <g
   id="g6493">
    <path
   class="fil0 str4"
   d="m 16873,19934 c -206,52 -409,194 -570,368 -160,174 -279,380 -329,622 -50,243 -31,521 33,771 64,250 174,471 300,619 126,147 270,221 450,199 180,-22 397,-139 603,-291 206,-151 400,-336 550,-568 149,-232 253,-510 246,-768 -7,-258 -126,-496 -254,-647 -129,-152 -268,-218 -442,-269 -173,-52 -381,-89 -587,-36 z m -622,2299 c -171,172 -341,343 -559,566 -219,223 -486,497 -634,699 -148,201 -177,330 -127,384 50,55 178,36 351,-70 172,-106 389,-298 526,-435 137,-136 193,-216 67,-70 -126,146 -433,519 -632,819 -199,300 -290,527 -310,686 -19,158 31,247 122,265 90,18 221,-34 345,-136 124,-103 241,-255 320,-345 80,-91 122,-120 163,-71 41,49 81,176 109,334 28,158 44,346 117,466 73,119 203,168 307,112 105,-57 184,-219 245,-465 61,-246 104,-575 111,-847 7,-271 -23,-484 -53,-697 m 244,-957 c 79,307 158,614 193,905 35,292 25,567 -13,766 -38,198 -104,320 -171,368 -67,48 -135,22 -154,-50 -20,-71 10,-190 5,-366 -5,-176 -45,-411 -84,-645 m -581,-2993 c 130,98 261,195 346,325 85,129 126,291 135,415 9,125 -13,212 -63,267 -49,55 -125,76 -219,78 -94,1 -207,-18 -277,-40 -70,-22 -97,-47 -124,-71 m 2181,-257 c -153,-22 -306,-44 -473,-20 -167,24 -348,93 -456,169 -108,76 -143,158 -137,249 7,90 55,189 137,278 82,90 198,169 314,249 m -916,-355 c -24,-4 -51,2 -60,21 -9,19 1,51 21,68 19,16 48,17 66,5 19,-12 28,-37 22,-56 -6,-20 -26,-34 -49,-38 z m 226,81 c -26,-11 -65,-6 -82,9 -17,15 -12,40 8,57 20,18 55,27 78,25 24,-2 36,-15 36,-35 -1,-20 -14,-46 -40,-56 z m -411,144 c 8,72 15,144 48,190 32,46 90,65 150,60 61,-4 123,-33 186,-62 m -1978,1225 c -52,40 -104,81 -138,138 -35,57 -52,130 -69,204 m 258,-376 c 33,-39 66,-78 83,-97 17,-20 19,-20 21,-21 m 3147,-3205 c 86,85 172,170 217,278 45,108 50,239 54,336 4,97 7,159 10,221 m 32,-708 c 40,79 79,159 96,245 17,87 12,181 6,275"
   id="path6479"
   inkscape:connector-curvature="0"
   style="fill:none;stroke:#2b2a29;stroke-width:75;stroke-linecap:round" />
    <path
   class="fil4 str4"
   d="m 16576,21463 c 50,-55 72,-142 63,-267 -9,-124 -50,-286 -135,-415 -83,-125 -207,-221 -332,-315 -94,136 -163,288 -198,458 -33,160 -36,336 -16,508 27,24 55,48 122,69 70,22 183,41 277,40 94,-2 170,-23 219,-78 z"
   id="path6481"
   inkscape:connector-curvature="0"
   style="fill:#7688a1;stroke:#2b2a29;stroke-width:75;stroke-linecap:round" />
    <path
   class="fil1 str4"
   d="m 17910,21654 c 95,-148 172,-315 213,-483 -148,-21 -297,-41 -459,-18 -167,24 -348,93 -456,169 -108,76 -143,158 -137,249 7,90 55,189 137,278 81,89 196,168 311,247 145,-125 280,-271 391,-442 z"
   id="path6483"
   inkscape:connector-curvature="0"
   style="fill:#1f1b20;stroke:#2b2a29;stroke-width:75;stroke-linecap:round" />
    <path
   class="fil1 str4"
   d="m 16639,21196 c -9,-124 -50,-286 -135,-415 -83,-125 -207,-221 -332,-315 -94,136 -163,288 -198,458 -33,160 -36,336 -16,508 27,24 55,48 122,69 70,22 183,41 277,40 94,-2 170,-23 219,-78 50,-55 72,-142 63,-267 z"
   id="path6485"
   inkscape:connector-curvature="0"
   style="fill:#1f1b20;stroke:#2b2a29;stroke-width:75;stroke-linecap:round" />
    <path
   class="fil4 str4"
   d="m 16633,21837 c 19,-12 28,-37 22,-56 -6,-20 -26,-34 -49,-38 -24,-4 -51,2 -60,21 -9,19 1,51 21,68 19,16 48,17 66,5 z"
   id="path6487"
   inkscape:connector-curvature="0"
   style="fill:#7688a1;stroke:#2b2a29;stroke-width:75;stroke-linecap:round" />
    <path
   class="fil1 str4"
   d="m 16872,21880 c -1,-20 -14,-46 -40,-56 -26,-11 -65,-6 -82,9 -17,15 -12,40 8,57 20,18 55,27 78,25 24,-2 36,-15 36,-35 z"
   id="path6489"
   inkscape:connector-curvature="0"
   style="fill:#1f1b20;stroke:#2b2a29;stroke-width:75;stroke-linecap:round" />
    <path
   class="fil1 str4"
   d="m 16633,21837 c 19,-12 28,-37 22,-56 -6,-20 -26,-34 -49,-38 -24,-4 -51,2 -60,21 -9,19 1,51 21,68 19,16 48,17 66,5 z"
   id="path6491"
   inkscape:connector-curvature="0"
   style="fill:#1f1b20;stroke:#2b2a29;stroke-width:75;stroke-linecap:round" />
   </g>
   <g
   id="g6510">
    <g
   id="g6498">
     <path
   class="fil5"
   d="m 16769,8496 c -33,-10 -33,-17 -104,-2 -70,15 -211,52 -326,125 -115,73 -204,182 -234,316 -30,133 -1,291 102,396 103,106 281,158 457,157 176,-2 350,-58 480,-122 130,-65 215,-138 239,-247 24,-109 -14,-254 -100,-358 -85,-103 -217,-165 -316,-203 -99,-38 -165,-52 -198,-62 z m 2827,1450 c -111,36 -280,104 -354,239 -74,136 -52,338 45,497 97,159 270,274 419,293 149,18 275,-60 334,-185 59,-125 50,-297 1,-453 -49,-155 -138,-293 -210,-361 -71,-68 -124,-65 -235,-30 z m -3011,-114 c -92,51 -224,82 -370,173 -145,91 -306,243 -396,435 -91,193 -111,427 -105,645 6,217 39,418 69,602 31,185 58,352 46,506 -12,154 -64,295 -122,362 -57,68 -120,62 -183,21 -63,-42 -126,-120 -216,-227 -90,-108 -208,-245 -298,-317 -90,-71 -153,-77 -195,-52 -43,25 -65,79 -67,147 -3,68 14,148 87,249 73,101 201,223 288,338 87,114 133,222 116,313 -17,92 -98,167 -199,240 -101,73 -223,143 -346,219 -123,76 -248,158 -331,251 -83,94 -125,198 -111,283 15,86 86,154 233,178 147,24 369,5 563,-24 194,-29 359,-68 518,-52 159,16 311,87 412,203 100,116 148,276 231,448 82,173 198,358 361,479 162,121 373,178 510,133 138,-45 204,-193 211,-346 6,-153 -46,-312 -79,-451 -32,-139 -45,-258 -12,-362 34,-105 114,-194 247,-250 132,-57 318,-79 474,-97 156,-18 282,-31 360,-79 77,-48 106,-130 58,-211 -48,-81 -172,-160 -346,-178 -174,-18 -396,25 -619,68 -24,-227 718,-352 1252,-706 357,-237 611,-608 704,-909 46,-147 90,-300 88,-421 -12,-693 -1193,-1411 -2023,-1649 -371,-106 -684,-32 -810,38 z m -1257,4293 c 15,-135 31,-269 122,-440 91,-171 257,-378 410,-482 152,-105 292,-106 412,-38 120,68 220,206 255,378 36,172 6,378 -74,553 -79,174 -209,317 -339,460 l -121,-208 -193,-153 -252,-82 z m 1368,-3447 c -11,63 31,257 156,364 125,107 330,227 551,308 125,46 415,155 641,137 171,-14 283,-130 327,-189 z m 337,538 c 48,-18 107,20 177,52 70,31 152,57 142,148 -9,91 -109,248 -196,309 -87,61 -160,27 -222,-16 -62,-43 -114,-95 -116,-151 -2,-56 46,-116 88,-183 42,-68 79,-141 127,-159 z m 189,585 c 31,62 127,70 189,76 63,6 92,10 125,-35 33,-45 70,-137 107,-213 37,-76 75,-135 59,-168 -15,-33 -85,-40 -146,-60 -61,-20 -113,-53 -162,-37 -48,15 -92,80 -130,170 -39,90 -73,205 -42,267 z m 2127,-42 c -138,0 -257,-1 -390,54 -132,54 -258,163 -297,271 -38,107 12,213 67,289 56,75 117,121 178,167 z m 0,-13 c -45,111 -71,235 -150,367 -79,132 -192,285 -305,438 z m -1352,486 c -85,-2 -167,69 -183,147 -16,79 34,164 102,208 69,44 156,47 217,7 60,-40 92,-125 65,-205 -28,-80 -116,-155 -201,-157 z M 16609,8893 c -78,-7 -139,36 -115,94 24,58 135,130 212,137 77,7 122,-51 97,-109 -24,-57 -117,-115 -194,-122 z m 2962,1356 c -61,-13 -139,15 -158,77 -18,61 23,156 82,213 59,57 136,76 176,42 40,-35 44,-122 24,-193 -20,-72 -63,-126 -124,-139 z m -2524,-829 c 27,69 53,137 110,201 58,64 147,123 236,182 z m -419,60 c 28,79 56,157 49,217 -8,60 -51,102 -95,143 z m 2588,1060 c -55,14 -109,28 -182,19 -72,-9 -162,-41 -251,-73 z m 139,230 c -23,38 -45,75 -54,127 -9,51 -4,117 1,183 z m -693,1314 c -38,107 12,213 67,289 55,74 115,120 175,165 110,-149 219,-297 295,-425 76,-127 103,-247 145,-354 -135,0 -254,0 -385,54 -132,54 -258,163 -297,271 z m -2802,1119 c -153,104 -319,311 -410,482 -91,171 -107,305 -122,440 l 220,-12 30,10 222,72 193,153 115,197 6,11 c 130,-143 260,-286 339,-460 80,-175 110,-381 74,-553 -35,-172 -135,-310 -255,-378 -120,-68 -260,-67 -412,38 z m 466,-2963 c -92,103 -183,206 -241,346 -58,141 -83,318 -108,495 z m -358,971 c -9,71 -19,142 -14,210 6,67 25,132 45,196 z m 908,-2891 c 77,12 154,24 245,68 91,44 195,121 252,180 56,59 64,101 72,142 z m 447,-7 c 60,25 121,49 162,86 41,37 63,85 85,133 z m 170,6488 c -4,169 -8,339 -58,474 -49,135 -144,234 -239,334 z m 184,354 c -12,97 -23,195 -56,272 -33,78 -87,135 -141,192 z"
   id="path6495"
   inkscape:connector-curvature="0"
   style="fill:#ffffff" />
     <path
   id="1"
   class="fil0 str1"
   d="m 16769,8496 c -33,-10 -33,-17 -104,-2 -70,15 -211,52 -326,125 -115,73 -204,182 -234,316 -30,133 -1,291 102,396 103,106 281,158 457,157 176,-2 350,-58 480,-122 130,-65 215,-138 239,-247 24,-109 -14,-254 -100,-358 -85,-103 -217,-165 -316,-203 -99,-38 -165,-52 -198,-62 z m 2827,1450 c -111,36 -280,104 -354,239 -74,136 -52,338 45,497 97,159 270,274 419,293 149,18 275,-60 334,-185 59,-125 50,-297 1,-453 -49,-155 -138,-293 -210,-361 -71,-68 -124,-65 -235,-30 z m -3011,-114 c -92,51 -224,82 -370,173 -145,91 -306,243 -396,435 -91,193 -111,427 -105,645 6,217 39,418 69,602 31,185 58,352 46,506 -12,154 -64,295 -122,362 -57,68 -120,62 -183,21 -63,-42 -126,-120 -216,-227 -90,-108 -208,-245 -298,-317 -90,-71 -153,-77 -195,-52 -43,25 -65,79 -67,147 -3,68 14,148 87,249 73,101 201,223 288,338 87,114 133,222 116,313 -17,92 -98,167 -199,240 -101,73 -223,143 -346,219 -123,76 -248,158 -331,251 -83,94 -125,198 -111,283 15,86 86,154 233,178 147,24 369,5 563,-24 194,-29 359,-68 518,-52 159,16 311,87 412,203 100,116 148,276 231,448 82,173 198,358 361,479 162,121 373,178 510,133 138,-45 204,-193 211,-346 6,-153 -46,-312 -79,-451 -32,-139 -45,-258 -12,-362 34,-105 114,-194 247,-250 132,-57 318,-79 474,-97 156,-18 282,-31 360,-79 77,-48 106,-130 58,-211 -48,-81 -172,-160 -346,-178 -174,-18 -396,25 -619,68 -24,-227 718,-352 1252,-706 357,-237 611,-608 704,-909 46,-147 90,-300 88,-421 -12,-693 -1193,-1411 -2023,-1649 -371,-106 -684,-32 -810,38 z m -1257,4293 c 15,-135 31,-269 122,-440 91,-171 257,-378 410,-482 152,-105 292,-106 412,-38 120,68 220,206 255,378 36,172 6,378 -74,553 -79,174 -209,317 -339,460 l -121,-208 -193,-153 -252,-82 z m 1368,-3447 c -11,63 31,257 156,364 125,107 330,227 551,308 125,46 415,155 641,137 171,-14 283,-130 327,-189 m -1338,-82 c 48,-18 107,20 177,52 70,31 152,57 142,148 -9,91 -109,248 -196,309 -87,61 -160,27 -222,-16 -62,-43 -114,-95 -116,-151 -2,-56 46,-116 88,-183 42,-68 79,-141 127,-159 z m 189,585 c 31,62 127,70 189,76 63,6 92,10 125,-35 33,-45 70,-137 107,-213 37,-76 75,-135 59,-168 -15,-33 -85,-40 -146,-60 -61,-20 -113,-53 -162,-37 -48,15 -92,80 -130,170 -39,90 -73,205 -42,267 z m 2127,-42 c -138,0 -257,-1 -390,54 -132,54 -258,163 -297,271 -38,107 12,213 67,289 56,75 117,121 178,167 m 442,-794 c -45,111 -71,235 -150,367 -79,132 -192,285 -305,438 m -897,-319 c -85,-2 -167,69 -183,147 -16,79 34,164 102,208 69,44 156,47 217,7 60,-40 92,-125 65,-205 -28,-80 -116,-155 -201,-157 z M 16609,8893 c -78,-7 -139,36 -115,94 24,58 135,130 212,137 77,7 122,-51 97,-109 -24,-57 -117,-115 -194,-122 z m 2962,1356 c -61,-13 -139,15 -158,77 -18,61 23,156 82,213 59,57 136,76 176,42 40,-35 44,-122 24,-193 -20,-72 -63,-126 -124,-139 z m -2524,-829 c 27,69 53,137 110,201 58,64 147,123 236,182 m -765,-323 c 28,79 56,157 49,217 -8,60 -51,102 -95,143 m 2634,700 c -55,14 -109,28 -182,19 -72,-9 -162,-41 -251,-73 m 572,284 c -23,38 -45,75 -54,127 -9,51 -4,117 1,183 m -640,1004 c -38,107 12,213 67,289 55,74 115,120 175,165 110,-149 219,-297 295,-425 76,-127 103,-247 145,-354 -135,0 -254,0 -385,54 -132,54 -258,163 -297,271 z m -2802,1119 c -153,104 -319,311 -410,482 -91,171 -107,305 -122,440 l 220,-12 30,10 222,72 193,153 115,197 6,11 c 130,-143 260,-286 339,-460 80,-175 110,-381 74,-553 -35,-172 -135,-310 -255,-378 -120,-68 -260,-67 -412,38 z m 466,-2963 c -92,103 -183,206 -241,346 -58,141 -83,318 -108,495 m -9,130 c -9,71 -19,142 -14,210 6,67 25,132 45,196 m 877,-3297 c 77,12 154,24 245,68 91,44 195,121 252,180 56,59 64,101 72,142 m -122,-397 c 60,25 121,49 162,86 41,37 63,85 85,133 m -77,6269 c -4,169 -8,339 -58,474 -49,135 -144,234 -239,334 m 481,-454 c -12,97 -23,195 -56,272 -33,78 -87,135 -141,192"
   inkscape:connector-curvature="0"
   style="fill:none;stroke:#2b2a29;stroke-width:75;stroke-linecap:round;stroke-linejoin:round" />
    </g>
    <path
   class="fil1 str1"
   d="m 16494,8987 c 24,58 135,130 212,137 77,7 122,-51 97,-109 -24,-57 -117,-115 -194,-122 -78,-7 -139,36 -115,94 z"
   id="path6500"
   inkscape:connector-curvature="0"
   style="fill:#1f1b20;stroke:#2b2a29;stroke-width:75;stroke-linecap:round;stroke-linejoin:round" />
    <path
   class="fil1 str1"
   d="m 19413,10326 c -18,61 23,156 82,213 59,57 136,76 176,42 40,-35 44,-122 24,-193 -20,-72 -63,-126 -124,-139 -61,-13 -139,15 -158,77 z"
   id="path6502"
   inkscape:connector-curvature="0"
   style="fill:#1f1b20;stroke:#2b2a29;stroke-width:75;stroke-linecap:round;stroke-linejoin:round" />
    <path
   class="fil1 str1"
   d="m 18959,11813 c -132,54 -258,163 -297,271 -38,107 12,213 67,289 55,74 115,120 175,165 110,-149 219,-297 295,-425 76,-127 103,-247 145,-354 -135,0 -254,0 -385,54 z"
   id="path6504"
   inkscape:connector-curvature="0"
   style="fill:#1f1b20;stroke:#2b2a29;stroke-width:75;stroke-linecap:round;stroke-linejoin:round" />
    <path
   class="fil1 str1"
   d="m 17814,12379 c -16,79 34,164 102,208 69,44 156,47 217,7 60,-40 92,-125 65,-205 -28,-80 -116,-155 -201,-157 -85,-2 -167,69 -183,147 z"
   id="path6506"
   inkscape:connector-curvature="0"
   style="fill:#1f1b20;stroke:#2b2a29;stroke-width:75;stroke-linecap:round;stroke-linejoin:round" />
    <path
   class="fil1 str1"
   d="m 15450,13685 c -91,171 -107,305 -122,440 l 220,-12 30,10 c 155,19 302,89 400,202 53,62 92,137 130,220 l 6,11 c 130,-143 260,-286 339,-460 80,-175 110,-381 74,-553 -35,-172 -135,-310 -255,-378 -120,-68 -260,-67 -412,38 -153,104 -319,311 -410,482 z"
   id="path6508"
   inkscape:connector-curvature="0"
   style="fill:#1f1b20;stroke:#2b2a29;stroke-width:75;stroke-linecap:round;stroke-linejoin:round" />
   </g>
   <path
   class="fil0 str4"
   d="m 1127,26280 c 70,-43 99,-81 109,-128 11,-48 2,-106 -13,-175 -15,-69 -37,-149 -10,-175 26,-26 101,2 173,35 71,33 139,72 210,75 71,4 144,-27 209,-73 65,-46 121,-107 172,-121 50,-14 96,19 93,96 -3,77 -55,198 -58,285 -3,87 43,140 98,203 54,63 117,136 117,187 0,51 -63,80 -149,74 -87,-5 -197,-45 -248,-2 -51,44 -42,171 -53,273 -10,103 -39,180 -83,187 -43,8 -101,-55 -151,-133 -49,-77 -91,-169 -120,-226 -30,-57 -48,-79 -137,-90 -88,-11 -246,-11 -333,-34 -87,-23 -101,-69 -53,-117 48,-47 158,-97 227,-141 z"
   id="path6512"
   inkscape:connector-curvature="0"
   style="fill:none;stroke:#2b2a29;stroke-width:75;stroke-linecap:round" />
   <path
   class="fil0 str4"
   d="m 8390,17215 c 164,330 329,659 564,976 235,318 541,624 929,777 388,152 859,152 1329,152"
   id="path6514"
   inkscape:connector-curvature="0"
   style="fill:none;stroke:#2b2a29;stroke-width:75;stroke-linecap:round" />
   <path
   class="fil0 str4"
   d="m 4156,22578 c 447,305 894,611 1317,952 424,341 824,717 1223,1094"
   id="path6516"
   inkscape:connector-curvature="0"
   style="fill:none;stroke:#2b2a29;stroke-width:75;stroke-linecap:round" />
   <path
   class="fil0 str4"
   d="m 7614,21731 c 305,141 611,282 752,506 141,223 118,529 83,705 -36,177 -83,224 -130,271"
   id="path6518"
   inkscape:connector-curvature="0"
   style="fill:none;stroke:#2b2a29;stroke-width:75;stroke-linecap:round" />
  </g>
 </g>
</svg>