<?xml version="1.0" encoding="UTF-8"?>
<!DOCTYPE svg PUBLIC "-//W3C//DTD SVG 1.1//EN" "http://www.w3.org/Graphics/SVG/1.1/DTD/svg11.dtd">
<!-- Creator: CorelDRAW X7 -->
<svg xmlns="http://www.w3.org/2000/svg" xml:space="preserve" width="210mm" height="297mm" version="1.1" style="shape-rendering:geometricPrecision; text-rendering:geometricPrecision; image-rendering:optimizeQuality; fill-rule:evenodd; clip-rule:evenodd"
viewBox="0 0 21000 29700"
 xmlns:xlink="http://www.w3.org/1999/xlink">
 <defs>
  <style type="text/css">
   <![CDATA[
    .str0 {stroke:#2B2A29;stroke-width:75;stroke-linecap:round;stroke-linejoin:round}
    .str1 {stroke:#20B9FD;stroke-width:75;stroke-linecap:round;stroke-linejoin:round}
    .fil0 {fill:none}
    .fil4 {fill:#1F1B20}
    .fil3 {fill:black}
    .fil2 {fill:#20B9FD}
    .fil1 {fill:white}
   ]]>
  </style>
 </defs>
 <g id="Слой_x0020_1">
  <metadata id="CorelCorpID_0Corel-Layer"/>
  <g id="_2904596949968">
   <path class="fil0 str0" d="M9758 15433c-35,0 -69,0 -145,-44 -75,-45 -192,-134 -320,-286 -129,-153 -269,-370 -335,-583 -66,-214 -56,-425 13,-664 69,-238 198,-505 331,-711 132,-206 267,-352 433,-455 166,-103 362,-164 501,-223 139,-58 221,-115 322,-122 100,-7 220,36 340,86 121,50 244,107 348,191 105,84 191,195 295,314 105,119 227,244 364,418 138,174 290,395 348,644 59,249 23,525 -40,721 -62,197 -151,313 -265,423 -114,109 -253,212 -391,315"/>
   <path class="fil0 str0" d="M9693 12965c102,-80 223,-121 356,-167 133,-47 279,-99 477,-91 198,8 448,75 677,192 229,117 438,285 584,473 146,187 228,394 264,536 35,143 24,222 31,315 8,93 33,200 -40,406 -73,206 -245,510 -443,707 -198,197 -421,286 -660,321 -240,34 -495,14 -753,-74 -259,-88 -522,-243 -681,-370 -160,-127 -217,-227 -280,-353 -63,-126 -133,-279 -158,-463 -26,-183 -8,-398 59,-589 67,-191 183,-358 283,-501 100,-143 183,-262 284,-342z"/>
   <path class="fil0 str0" d="M9747 15408c-55,137 -111,274 -130,346 -19,72 -1,79 16,225 18,145 34,429 33,730 -1,301 -19,619 25,783 44,163 152,172 388,196 237,23 602,61 883,53 280,-7 474,-60 589,-128 114,-68 148,-151 143,-326 -5,-176 -49,-443 -61,-669 -12,-227 8,-413 22,-584 14,-171 22,-327 3,-435 -18,-108 -63,-168 -108,-228"/>
   <path class="fil0 str0" d="M9951 15470c10,129 20,258 44,344 24,86 62,129 192,150 129,22 351,22 545,21 195,-1 362,-2 462,-3 101,0 136,0 169,-39 33,-38 64,-116 75,-201 10,-86 0,-180 -10,-275"/>
   <path class="fil0 str0" d="M10225 16340c-75,22 -129,104 -105,155 24,52 127,72 201,51 75,-22 122,-86 98,-137 -25,-52 -120,-90 -194,-69z"/>
   <path class="fil0 str0" d="M11065 16360c-92,-11 -182,22 -209,71 -26,48 11,111 81,143 70,32 174,33 248,11 75,-22 120,-66 95,-114 -25,-48 -122,-101 -215,-111z"/>
   <path class="fil0 str0" d="M11642 15451c159,-67 318,-135 472,-232 154,-96 302,-223 435,-346 133,-123 251,-241 308,-339 57,-98 54,-176 24,-274 -29,-99 -84,-218 -91,-304 -7,-86 35,-138 81,-130 45,8 93,76 138,129 44,52 85,90 128,59 44,-31 91,-130 204,-170 114,-41 294,-23 409,86 115,109 165,310 130,465 -36,155 -157,266 -256,374 -100,109 -178,216 -223,277 -46,61 -59,76 -101,25 -41,-52 -111,-170 -212,-246 -101,-75 -233,-108 -365,-141"/>
   <path class="fil0 str0" d="M11658 16642c200,-85 401,-170 561,-240 160,-70 280,-125 432,-244 152,-118 336,-300 460,-485 124,-185 187,-375 250,-564"/>
   <path class="fil0 str0" d="M9645 16427c-166,-33 -333,-66 -503,-118 -169,-51 -342,-121 -518,-217 -176,-96 -355,-217 -488,-333 -133,-117 -219,-228 -283,-327 -64,-98 -105,-184 -65,-269 40,-85 162,-169 254,-225 92,-57 155,-85 367,2 211,87 573,289 820,397 248,107 381,120 426,187 46,67 4,188 -17,290 -21,103 -20,186 -14,428 6,241 17,640 20,888 3,247 -1,343 3,393 4,50 16,55 -25,79 -41,25 -136,70 -197,24 -61,-45 -89,-181 -117,-342 -29,-160 -58,-345 -59,-505 0,-160 26,-294 53,-429"/>
   <path class="fil0 str0" d="M11977 16522c22,182 45,365 59,536 13,172 17,333 7,443 -10,111 -34,170 -100,178 -66,8 -173,-35 -224,-70 -52,-35 -48,-61 -45,-88"/>
   <path class="fil0 str0" d="M13316 19519c-48,-138 -96,-275 -195,-468 -98,-192 -247,-440 -442,-685 -195,-245 -435,-489 -676,-732"/>
   <path class="fil0 str0" d="M9711 17493c-207,186 -414,372 -611,594 -198,221 -385,477 -490,753 -105,276 -128,572 -182,747 -54,176 -139,232 -271,282 -131,51 -309,96 -421,168 -113,72 -160,171 -131,263 29,91 133,175 351,184 218,9 550,-58 741,-119 191,-60 241,-116 270,-212 28,-96 35,-232 133,-396 98,-165 288,-358 562,-531 275,-172 634,-324 969,-407 335,-82 645,-94 973,70 328,164 674,506 865,753 191,247 226,400 285,518 60,118 144,200 317,226 174,25 436,-7 629,-39 194,-33 318,-65 386,-148 69,-84 81,-217 23,-320 -59,-104 -188,-177 -332,-232 -144,-55 -303,-92 -461,-128"/>
   <path class="fil0 str0" d="M8434 14958c-57,-99 -114,-199 -90,-334 24,-136 129,-308 158,-432 29,-123 -17,-197 -81,-202 -63,-5 -145,59 -202,122 -57,64 -89,127 -169,67 -79,-60 -206,-243 -340,-288 -135,-44 -277,51 -354,172 -77,121 -88,269 -67,403 22,133 78,253 169,387 91,134 218,282 344,431"/>
   <path class="fil0 str0" d="M8445 19536c106,-6 212,-11 327,22 115,32 239,103 362,174"/>
   <path class="fil0 str0" d="M12557 19751c60,-80 120,-160 241,-228 121,-69 304,-126 487,-183"/>
   <path class="fil0 str0" d="M8479 19300c131,-51 262,-101 403,-65 141,37 292,160 443,284"/>
   <path class="fil0 str0" d="M8581 18843c256,0 513,0 705,64 192,64 320,193 448,321"/>
   <path class="fil0 str0" d="M8873 18379c239,28 477,55 706,148 229,93 448,252 668,410"/>
   <path class="fil0 str0" d="M12368 19549c88,-130 176,-261 302,-334 127,-73 293,-89 459,-105"/>
   <path class="fil0 str0" d="M9718 17579c194,273 388,546 549,746 161,201 289,329 417,457"/>
   <path class="fil0 str0" d="M11931 17709c-59,163 -119,326 -211,510 -92,184 -217,390 -342,595"/>
   <path class="fil0 str0" d="M11660 18888c131,-100 261,-199 386,-336 124,-136 243,-310 362,-483"/>
   <path class="fil0 str0" d="M9355 17910c144,72 288,144 469,304 181,160 399,408 617,656"/>
   <path class="fil0 str0" d="M11999 19129c155,-110 311,-220 455,-311 144,-90 277,-161 409,-232"/>
   <path class="fil0 str0" d="M12475 14936c121,43 243,85 340,222 97,136 169,367 242,597"/>
   <path class="fil0 str0" d="M11976 15295c109,72 218,144 274,271 56,127 59,308 55,445 -3,137 -13,230 -23,323"/>
   <path class="fil0 str0" d="M8462 14990c-119,56 -239,111 -295,241 -56,129 -49,333 -42,537"/>
   <path class="fil0 str0" d="M9072 15280c-104,68 -208,137 -265,252 -58,115 -68,278 -59,392 9,115 37,181 65,248"/>
   <path class="fil1 str0" d="M10305 12567c6,34 117,41 278,77 160,35 370,100 481,119 112,19 126,-6 91,-53 -34,-47 -118,-116 -194,-166 -77,-50 -147,-82 -223,-100 -75,-19 -156,-24 -247,3 -91,27 -191,87 -186,120z"/>
   <path class="fil0 str0" d="M16351 12586c-34,0 -69,0 -144,-45 -76,-44 -192,-133 -321,-286 -128,-152 -269,-369 -334,-583 -66,-213 -57,-424 13,-663 69,-238 198,-505 330,-711 134,-208 355,-311 537,-452 20,-15 168,-180 188,-195 408,-286 645,-293 1145,109 104,84 266,210 370,329 104,118 226,244 364,418 137,173 290,395 348,644 58,248 22,525 -40,721 -63,197 -152,313 -265,423 -114,109 -253,212 -392,315"/>
   <path class="fil0 str0" d="M16341 12561c-56,137 -111,274 -130,346 -19,72 -1,79 16,225 17,145 33,429 32,730 -1,301 -19,619 25,783 45,163 152,172 389,195 236,24 602,61 882,54 280,-7 475,-60 589,-128 114,-68 148,-151 143,-326 -5,-176 -49,-443 -61,-670 -12,-226 8,-412 22,-583 14,-171 22,-327 4,-435 -19,-108 -64,-168 -109,-228"/>
   <path class="fil0 str0" d="M16544 12623c10,129 20,258 44,344 24,86 62,129 192,150 130,22 352,22 546,21 194,-1 361,-2 462,-3 101,-1 135,0 168,-39 33,-38 65,-116 75,-202 11,-85 1,-180 -10,-274"/>
   <path class="fil0 str0" d="M16818 13493c-75,22 -129,104 -104,155 24,51 126,72 201,51 74,-22 121,-86 97,-138 -24,-51 -119,-90 -194,-68z"/>
   <path class="fil0 str0" d="M17659 13512c-93,-10 -183,23 -209,71 -26,48 10,112 80,144 70,32 174,32 249,11 74,-22 120,-66 95,-114 -26,-49 -122,-102 -215,-112z"/>
   <path class="fil0 str0" d="M18540 13495c23,182 76,545 89,716 14,172 18,333 7,443 -10,110 -34,170 -99,178 -66,8 -173,-36 -225,-70 -51,-35 -48,-62 -44,-88"/>
   <path class="fil1 str0" d="M16624 9819c19,38 696,-26 783,-37 112,-14 118,-43 71,-77 -47,-35 -146,-76 -234,-101 -88,-25 -165,-35 -243,-31 -77,5 -156,24 -235,77 -79,53 -157,139 -142,169z"/>
   <path class="fil0 str0" d="M17113 13808c-27,48 10,112 80,144 70,32 77,2 151,-20 147,-42 -108,-348 -231,-124z"/>
   <path class="fil0 str0" d="M16276 12571c-230,20 -459,40 -759,108 -300,67 -669,182 -964,289 -295,108 -515,208 -654,315 -140,107 -200,222 -218,317 -17,95 8,170 93,225 85,55 229,90 334,80 105,-10 170,-65 210,-50 40,15 55,100 92,147 38,48 98,58 135,-5 38,-62 53,-197 143,-294 90,-98 254,-158 482,-220 227,-63 517,-128 707,-155 189,-28 279,-18 369,-8"/>
   <path class="fil0 str0" d="M18224 12586c260,70 520,140 750,232 229,93 429,208 636,400 208,192 422,462 560,729 137,268 197,532 200,705 2,172 -53,252 -143,264 -90,13 -215,-42 -287,-109 -72,-68 -92,-148 -112,-148 -20,0 -40,80 -90,100 -50,20 -130,-20 -155,-92 -25,-73 5,-178 -10,-310 -15,-132 -75,-292 -200,-427 -125,-135 -315,-245 -509,-332 -195,-88 -395,-153 -595,-218"/>
   <path class="fil0 str0" d="M15902 13365c-5,110 -10,220 -15,368 -5,147 -10,332 7,504 18,172 57,332 135,423 77,92 151,73 266,95"/>
   <path class="fil0 str0" d="M14253 13111c145,40 290,80 390,162 100,82 155,207 210,332"/>
   <path class="fil0 str0" d="M14957 12841c130,45 260,90 348,180 87,90 132,225 177,359"/>
   <path class="fil0 str0" d="M15857 12616c99,120 199,240 254,355 55,115 65,225 75,334"/>
   <path class="fil0 str0" d="M19573 14265c55,-60 110,-120 210,-170 100,-50 244,-90 389,-130"/>
   <path class="fil0 str0" d="M19243 13830c35,-105 70,-210 150,-290 80,-80 205,-135 330,-190"/>
   <path class="fil0 str0" d="M18794 13575c25,-85 50,-170 117,-279 68,-110 177,-245 287,-380"/>
   <path class="fil0 str0" d="M16299 14632c-118,244 -235,489 -250,869 -15,379 72,894 261,1281 188,387 478,647 623,777 145,130 145,130 56,252 -88,122 -266,367 -265,520 2,152 182,212 360,159 179,-52 356,-217 485,-359 128,-143 208,-263 253,-367 45,-105 55,-195 -35,-280 -90,-85 -280,-165 -424,-315 -145,-150 -245,-369 -289,-617 -45,-248 -34,-524 61,-664 95,-140 274,-144 373,-56 99,88 119,268 197,457 78,190 215,388 344,544 129,155 251,268 285,374 34,106 -21,206 -85,358 -63,152 -136,357 -83,466 53,110 232,123 411,50 179,-73 359,-232 489,-367 130,-135 210,-245 155,-405 -55,-160 -245,-370 -361,-630 -115,-260 -156,-571 -206,-886 -50,-315 -109,-633 -168,-952"/>
   <path class="fil0 str0" d="M17007 17640c17,-62 35,-125 116,-182 81,-58 226,-110 371,-163"/>
   <path class="fil0 str0" d="M18258 17130c47,-104 95,-209 211,-264 116,-55 301,-60 486,-65"/>
   <path class="fil0 str0" d="M17524 15819c50,-177 100,-354 223,-538 124,-184 321,-373 518,-563"/>
   <path class="fil0 str0" d="M16186 14826c241,164 482,328 641,506 160,178 237,370 315,562"/>
   <path class="fil0 str0" d="M16036 15965c259,17 517,33 687,85 169,51 249,139 329,226"/>
   <path class="fil0 str0" d="M16216 16685c124,-44 247,-88 395,-88 148,-1 321,41 493,84"/>
   <path class="fil0 str0" d="M16595 17213c100,-50 199,-100 316,-116 116,-16 248,1 380,18"/>
   <path class="fil0 str0" d="M18026 16786c35,-130 70,-260 186,-336 116,-76 313,-99 511,-121"/>
   <path class="fil0 str0" d="M17711 16329c120,-178 240,-355 387,-502 147,-148 322,-265 497,-382"/>
   <path class="fil0 str0" d="M2638 14903c-32,-13 -64,-26 -151,-12 -87,13 -227,53 -403,147 -176,95 -387,244 -527,418 -140,175 -209,374 -233,621 -24,248 -2,543 45,783 47,243 215,421 332,619 13,21 89,229 103,250 273,417 491,511 1103,322 128,-39 325,-97 466,-169 140,-71 300,-143 492,-254 192,-110 416,-260 562,-469 146,-210 214,-480 229,-686 14,-205 -25,-346 -90,-490 -66,-144 -157,-291 -248,-438"/>
   <path class="fil0 str0" d="M2619 14922c-1,-148 -2,-295 7,-369 9,-74 28,-74 98,-203 69,-129 189,-387 300,-667 110,-280 210,-582 312,-718 102,-136 205,-104 433,-39 229,66 582,166 840,277 258,110 419,231 500,336 81,106 82,195 12,356 -69,161 -209,394 -303,600 -95,206 -145,386 -195,550 -50,164 -101,312 -158,406 -57,93 -121,132 -185,171"/>
   <path class="fil0 str0" d="M2831 14940c57,-116 114,-232 168,-303 54,-71 105,-97 234,-70 128,28 334,110 514,183 181,72 335,135 429,173 93,38 125,51 142,99 16,48 17,131 -5,215 -22,83 -121,249 -165,333"/>
   <path class="fil0 str0" d="M3407 14232c-62,-47 -82,-143 -40,-182 41,-39 144,-21 205,27 62,48 82,125 40,163 -41,39 -144,40 -205,-8z"/>
   <path class="fil0 str0" d="M4195 14525c-90,-25 -161,-89 -168,-143 -7,-55 51,-100 128,-104 77,-4 173,34 235,82 61,48 87,105 46,141 -42,35 -151,49 -241,24z"/>
   <path class="fil0 str0" d="M5007 14867c89,-161 272,-478 348,-633 76,-155 139,-303 170,-409 32,-106 31,-170 -27,-202 -58,-32 -173,-31 -234,-18 -61,14 -67,39 -74,65"/>
   <path class="fil1 str0" d="M1869 17574c31,-27 638,282 714,324 99,55 94,84 38,98 -57,15 -164,17 -256,8 -91,-9 -165,-29 -236,-62 -71,-33 -137,-79 -190,-157 -54,-79 -95,-188 -70,-211z"/>
   <path class="fil0 str0" d="M3467 13809c-7,-55 51,-100 128,-104 77,-4 72,26 133,74 121,93 -229,284 -261,30z"/>
   <path class="fil0 str0" d="M2563 14889c-207,-104 -413,-207 -666,-381 -254,-173 -555,-416 -789,-625 -234,-209 -402,-383 -492,-534 -90,-152 -104,-280 -85,-375 19,-95 70,-155 169,-175 99,-19 247,2 341,50 93,48 133,123 176,123 43,1 88,-72 140,-102 53,-31 112,-18 124,54 12,72 -24,203 23,327 48,123 179,240 367,382 188,142 433,309 600,405 166,96 253,119 340,143"/>
   <path class="fil0 str0" d="M4378 15594c268,31 535,62 782,61 248,-1 476,-34 740,-136 264,-102 563,-273 789,-471 226,-197 380,-421 446,-580 66,-160 44,-254 -35,-299 -78,-45 -215,-40 -307,-4 -92,36 -140,103 -159,95 -18,-7 -8,-89 -47,-126 -39,-37 -128,-29 -178,29 -50,58 -60,167 -123,284 -63,118 -178,244 -344,323 -166,79 -383,111 -596,121 -213,9 -423,-5 -633,-18"/>
   <path class="fil0 str0" d="M2508 14012c36,-104 72,-208 121,-346 50,-139 114,-313 194,-466 80,-154 176,-288 281,-344 106,-56 221,-35 336,-13"/>
   <path class="fil0 str0" d="M1437 14151c137,6 274,12 389,-39 114,-51 206,-160 297,-269"/>
   <path class="fil0 str0" d="M2189 14692c137,-75 274,-149 368,-236 93,-86 143,-184 193,-283"/>
   <path class="fil0 str0" d="M6252 14533c29,76 57,152 132,235 74,84 194,174 314,265"/>
   <path class="fil0 str0" d="M5785 14815c-7,110 -13,221 32,325 45,103 140,201 236,298"/>
   <path class="fil0 str0" d="M5273 14886c-8,88 -16,176 6,303 22,127 74,293 126,459"/>
   <path class="fil0 str0" d="M5217 13568c190,-426 380,-851 450,-1270 70,-420 20,-834 -115,-1196 -135,-361 -355,-671 -470,-896 -115,-225 -125,-365 -74,-515 50,-150 160,-311 126,-425 -33,-113 -211,-178 -391,-131 -180,47 -362,207 -495,345 -133,139 -216,256 -264,360 -49,103 -61,193 26,281 88,87 275,173 415,327 141,154 234,376 271,625 37,250 18,525 -81,662 -99,137 -278,135 -375,45 -96,-91 -111,-272 -183,-463 -73,-192 -203,-394 -328,-553 -124,-159 -243,-275 -274,-383 -30,-107 28,-205 96,-355 68,-151 146,-353 97,-464 -50,-111 -228,-130 -410,-62 -181,68 -365,222 -499,353 -134,131 -217,238 -167,400 50,161 234,377 342,640 107,264 139,576 146,925 7,349 -12,735 -31,1120"/>
   <path class="fil0 str0" d="M4228 11799c-160,130 -320,260 -465,440 -144,180 -274,410 -404,639"/>
   <path class="fil0 str0" d="M4593 11715c160,379 374,814 469,1123 95,310 125,550 155,790"/>
   <path class="fil0 str0" d="M2759 10631c140,-20 280,-40 400,-95 120,-55 192,-131 292,-221"/>
   <path class="fil0 str0" d="M4476 10508c140,10 212,-7 336,-37 125,-30 235,-100 345,-170"/>
   <path class="fil0 str0" d="M3029 11290c160,20 320,40 460,-10 140,-50 259,-170 379,-290"/>
   <path class="fil0 str0" d="M4708 11200c139,70 279,140 424,145 145,5 295,-55 445,-115"/>
   <path class="fil0 str0" d="M4708 11560c209,239 419,479 584,614 165,135 285,165 405,195"/>
   <path class="fil0 str0" d="M4092 11491c-150,150 -314,368 -488,468 -175,100 -375,150 -575,200"/>
   <path class="fil0 str0" d="M4246 14018c-6,-54 51,-99 128,-103 77,-4 72,26 133,73 121,94 -229,285 -261,30z"/>
   <path class="fil0 str0" d="M677 21885c591,-323 1183,-645 1629,-1101 446,-455 746,-1045 1369,-1313 623,-269 1570,-216 2442,-240 873,-24 1673,-124 2472,-224"/>
   <path class="fil0 str0" d="M12904 18708c760,80 1519,160 2118,419 600,260 1039,700 1459,919 420,220 819,220 1219,220"/>
   <path class="fil0 str0" d="M19018 21465c180,499 360,999 590,1389 230,389 509,669 789,949"/>
   <path class="fil2 str0" d="M18879 20915c-240,-309 -620,-629 -850,-749 -229,-120 -309,-40 -329,180 -20,220 20,579 299,849 280,270 800,450 1009,390 210,-60 110,-360 -129,-670z"/>
   <path class="fil2 str0" d="M3823 22484c190,140 650,220 989,170 340,-50 560,-230 660,-420 100,-190 80,-389 -60,-459 -140,-70 -400,-10 -689,40 -290,50 -610,90 -810,209 -199,120 -279,320 -90,460z"/>
   <path class="fil0 str0" d="M3711 22297c-80,209 -160,419 -262,594 -103,175 -227,315 -502,430 -275,115 -700,204 -1124,294"/>
   <path class="fil0 str0" d="M5479 21817c240,170 480,340 859,505 380,164 900,324 1257,369 357,45 552,-25 746,-95"/>
   <path class="fil0 str0" d="M9839 24170c-119,-202 -179,-457 -75,-659 105,-202 375,-352 682,-472 307,-120 652,-210 877,-142 224,67 329,292 434,539 105,247 210,517 142,742 -67,224 -307,404 -524,442 -217,37 -412,-68 -584,-83 -173,-15 -322,60 -487,23 -165,-38 -345,-188 -465,-390z"/>
   <path class="fil0 str0" d="M9023 12759c100,-240 200,-480 420,-610 220,-130 559,-150 899,-170"/>
   <path class="fil0 str0" d="M13699 12878c-40,-219 -80,-439 -90,-599 -10,-160 10,-260 30,-360"/>
   <path class="fil0 str0" d="M12320 12878c220,-20 440,-40 609,-20 170,20 290,80 410,140"/>
   <path class="fil0 str0" d="M12740 11979c199,260 399,520 599,780"/>
   <path class="fil0 str0" d="M6686 13418c-80,-200 -160,-400 -270,-540 -110,-139 -250,-219 -390,-299"/>
   <path class="fil0 str0" d="M7465 13418c80,-180 160,-360 240,-460 80,-100 159,-120 239,-140"/>
   <path class="fil0 str0" d="M6985 13418c20,-440 40,-879 60,-1319"/>
   <path class="fil0 str0" d="M6446 22829c379,119 759,239 989,289 230,50 310,30 389,10"/>
   <path class="fil0 str0" d="M11885 23008c154,154 307,307 402,508 94,201 130,449 59,650 -71,200 -248,354 -425,507"/>
   <path class="fil0 str0" d="M14832 26098c37,-518 73,-1035 143,-1770 69,-735 172,-1687 281,-2259 110,-572 227,-764 466,-851 240,-86 601,-68 948,39 347,108 680,304 993,499 314,194 607,386 748,541 140,154 126,271 100,533 -27,262 -66,668 -123,1025 -57,357 -132,664 -214,722 -82,58 -170,-134 -300,-286 -129,-152 -299,-264 -444,-379 -144,-116 -263,-235 -442,-289 -179,-54 -417,-42 -621,-89 -204,-48 -374,-154 -574,-166 -200,-11 -431,73 -574,143 -142,70 -196,127 -201,166 -4,39 41,60 63,71 23,10 23,10 12,5 -12,-5 -34,-16 -57,-26"/>
   <path class="fil0 str0" d="M4693 19277c99,240 199,480 479,649 280,170 739,270 1249,180 509,-90 1069,-369 1349,-579 279,-210 279,-350 279,-490"/>
   <path class="fil0 str1" d="M16381 21615c93,170 185,340 332,432 147,93 348,109 472,47 123,-62 169,-201 0,-232 -170,-31 -557,46 -688,170 -131,124 -8,294 162,456 170,162 386,317 518,324 131,8 177,-131 85,-193 -93,-62 -325,-46 -471,31 -147,77 -209,216 -186,363 23,147 131,301 201,379 69,77 100,77 116,77 15,0 15,0 15,0"/>
   <path class="fil0 str0" d="M882 13640c149,16 299,33 422,-7 123,-40 220,-135 318,-231"/>
   <path class="fil0 str0" d="M16543 12617c-97,-55 -181,-152 -311,-331 -130,-179 -306,-439 -322,-825 -15,-385 130,-897 472,-1170 342,-274 880,-309 1288,-164 408,146 685,472 824,785 139,313 139,613 64,863 -75,249 -225,447 -304,575 -79,128 -88,185 -124,225 -35,40 -97,62 -313,79 -216,18 -586,31 -826,31 -241,0 -351,-13 -448,-68z"/>
   <path class="fil0 str0" d="M16875 11881c51,80 102,160 203,205 100,45 250,54 350,14 99,-40 147,-128 196,-216"/>
   <path class="fil0 str0" d="M17034 10496c-57,73 -114,146 -213,209 -100,63 -241,115 -328,139 -86,24 -118,20 -115,4 4,-16 42,-44 57,-70 15,-26 6,-51 -24,-39 -29,13 -80,63 -122,96 -42,33 -76,49 -125,58 -49,9 -113,12 -177,14"/>
   <path class="fil0 str0" d="M16972 10592c126,9 251,18 396,-9 145,-27 309,-91 473,-155"/>
   <path class="fil0 str0" d="M17828 10401c68,91 136,182 236,241 99,60 229,87 359,114"/>
   <path class="fil3 str0" d="M17723 11409c5,62 63,107 127,122 63,16 132,2 168,-28 37,-29 41,-75 37,-118 -5,-44 -19,-85 -60,-117 -41,-31 -109,-54 -168,-27 -59,28 -108,107 -104,168z"/>
   <path class="fil0 str0" d="M17670 10934c34,-18 69,-36 133,-40 63,-3 157,8 223,24 66,16 105,37 144,57"/>
   <path class="fil0 str0" d="M16281 11071c48,-36 96,-73 178,-83 82,-10 199,6 315,22"/>
   <path class="fil0 str0" d="M9880 13298c165,96 329,192 575,269 246,78 575,137 789,183 215,46 315,77 393,223 77,146 132,406 136,641 5,235 -41,445 -86,655"/>
   <path class="fil0 str0" d="M10223 13490c-142,182 -283,365 -422,458 -140,94 -276,98 -359,151 -82,52 -109,153 -120,312 -12,160 -7,379 -3,598"/>
   <path class="fil3 str0" d="M11283 14256c-39,41 -57,110 -20,164 36,55 127,96 184,83 57,-14 80,-83 91,-135 12,-52 12,-89 -6,-116 -19,-28 -55,-46 -103,-48 -48,-2 -107,11 -146,52z"/>
   <path class="fil3 str0" d="M9744 14386c9,53 31,112 88,133 58,20 149,2 192,-51 43,-52 39,-139 7,-189 -32,-50 -91,-64 -144,-64 -52,0 -98,14 -123,44 -25,29 -30,75 -20,127z"/>
   <path class="fil0 str0" d="M10441 14940c5,42 10,83 48,115 39,31 112,54 174,54 61,0 111,-23 137,-61 25,-39 25,-94 25,-149"/>
   <path class="fil0 str0" d="M2256 17406c-160,-100 -287,-246 -392,-383 -105,-137 -187,-265 -228,-461 -42,-196 -42,-461 45,-680 87,-219 260,-392 424,-520 165,-127 320,-209 443,-278 123,-68 214,-123 410,-91 196,32 498,150 712,246 214,96 342,169 461,361 118,191 228,501 260,761 32,260 -14,470 -146,662 -133,191 -352,365 -561,470 -210,105 -411,141 -557,150 -146,9 -237,-9 -378,-45 -142,-37 -333,-92 -493,-192z"/>
   <path class="fil3 str0" d="M16396 11409c4,62 63,107 126,122 64,16 132,2 169,-28 36,-29 41,-75 36,-118 -4,-44 -18,-85 -59,-117 -41,-31 -110,-54 -169,-27 -58,28 -108,107 -103,168z"/>
   <path class="fil0 str0" d="M11194 13983c91,-23 183,-46 251,-48 68,-3 114,16 160,34"/>
   <path class="fil0 str0" d="M9771 13983c55,-10 109,-19 176,-19 66,0 143,9 221,19"/>
   <path class="fil0 str0" d="M2039 17239c-13,-100 -27,-200 -57,-282 -29,-82 -75,-146 -39,-146 37,0 156,64 228,148 73,84 101,189 128,214 28,25 55,-29 101,-89 45,-59 109,-123 127,-121 19,3 -9,71 -9,137 0,66 28,130 85,165 57,34 143,38 234,34 92,-5 187,-18 219,-7 32,11 0,48 -29,87 -30,38 -57,79 -46,120 12,42 62,83 112,124"/>
   <path class="fil3 str0" d="M3428 16633c-43,64 -39,164 32,189 71,25 208,-25 251,-89 43,-64 -7,-141 -78,-166 -70,-25 -161,2 -205,66z"/>
   <path class="fil4 str0" d="M2238 16202c20,61 102,111 164,82 61,-30 102,-139 82,-201 -21,-61 -103,-75 -164,-45 -62,29 -103,102 -82,164z"/>
   <path class="fil0 str0" d="M2942 15871c37,-59 73,-119 117,-151 43,-31 93,-36 146,-29 52,7 107,25 148,57 41,32 68,77 77,123 10,46 0,91 -13,125 -14,35 -32,57 -50,80"/>
   <path class="fil0 str0" d="M1998 16268c5,64 9,128 37,180 27,52 77,94 143,110 66,15 149,6 231,-3"/>
   <path class="fil0 str0" d="M3107 16788c4,64 9,128 36,185 27,57 78,107 164,123 87,16 210,-3 333,-21"/>
  </g>
 </g>
</svg>
