<?xml version="1.0" encoding="UTF-8" standalone="no"?>
<!-- Creator: CorelDRAW X7 -->

<svg
   xmlns:dc="http://purl.org/dc/elements/1.1/"
   xmlns:cc="http://creativecommons.org/ns#"
   xmlns:rdf="http://www.w3.org/1999/02/22-rdf-syntax-ns#"
   xmlns:svg="http://www.w3.org/2000/svg"
   xmlns="http://www.w3.org/2000/svg"
   xmlns:sodipodi="http://sodipodi.sourceforge.net/DTD/sodipodi-0.dtd"
   xmlns:inkscape="http://www.inkscape.org/namespaces/inkscape"
   xml:space="preserve"
   width="350"
   height="411"
   version="1.1"
   style="clip-rule:evenodd;fill-rule:evenodd;image-rendering:optimizeQuality;shape-rendering:geometricPrecision;text-rendering:geometricPrecision"
   viewBox="0 0 9260.4248 10874.375"
   id="svg6908"
   sodipodi:docname="command_1.svg"
   inkscape:version="0.92.4 (5da689c313, 2019-01-14)"><metadata
   id="metadata6912"><rdf:RDF><cc:Work
       rdf:about=""><dc:format>image/svg+xml</dc:format><dc:type
         rdf:resource="http://purl.org/dc/dcmitype/StillImage" /><dc:title /></cc:Work></rdf:RDF></metadata><sodipodi:namedview
   pagecolor="#ffffff"
   bordercolor="#666666"
   borderopacity="1"
   objecttolerance="10"
   gridtolerance="10"
   guidetolerance="10"
   inkscape:pageopacity="0"
   inkscape:pageshadow="2"
   inkscape:window-width="1920"
   inkscape:window-height="1017"
   id="namedview6910"
   showgrid="false"
   units="px"
   inkscape:zoom="1.6819304"
   inkscape:cx="340.39568"
   inkscape:cy="201.99486"
   inkscape:window-x="-8"
   inkscape:window-y="32"
   inkscape:window-maximized="1"
   inkscape:current-layer="_1727180680848" />
 <defs
   id="defs6745">
  <style
   type="text/css"
   id="style6743">
   <![CDATA[
    .str1 {stroke:#FEFEFE;stroke-width:75}
    .str0 {stroke:#2B2A29;stroke-width:75}
    .str3 {stroke:#2B2A29;stroke-width:20}
    .str2 {stroke:#2B2A29;stroke-width:75;stroke-linecap:round;stroke-linejoin:round}
    .fil0 {fill:none}
    .fil3 {fill:#CDCDCE}
    .fil1 {fill:#1F1B20}
    .fil2 {fill:#BC0035}
    .fil5 {fill:#FEED0A}
    .fil4 {fill:white}
   ]]>
  </style>
 </defs>
 <g
   id="Слой_x0020_1"
   transform="matrix(0.43627368,0,0,0.43627368,2282.2953,-1130.0943)">
  <metadata
   id="CorelCorpID_0Corel-Layer" />
  <g
   id="_1727180680848"
   transform="translate(-5120.1639,-36.057491)">
   <path
   class="fil0 str0"
   d="m 2030,19168 c -5,-47 -7,-56 15,-219 21,-163 66,-479 170,-702 105,-223 269,-353 429,-445 159,-91 313,-144 488,-185 175,-40 370,-69 574,-24 203,44 414,162 577,315 163,152 277,339 319,545 43,205 14,429 -4,589 -18,161 -26,259 -120,370 -93,112 -272,238 -465,322 -194,83 -401,124 -610,158 -210,35 -421,63 -596,51 -175,-12 -313,-65 -433,-165 -120,-99 -222,-246 -276,-362 -55,-115 -63,-201 -68,-248 z m 2288,-1114 c -112,-91 -238,-99 -415,-75 -177,24 -405,81 -622,197 -218,116 -425,291 -500,513 -76,221 -19,490 85,689 104,199 254,329 415,386 160,57 331,41 532,-30 202,-72 433,-198 572,-307 138,-110 183,-204 207,-356 24,-153 29,-364 -18,-557 -47,-193 -145,-368 -256,-460 z m -1596,75 c -78,29 -155,57 -228,131 -73,73 -142,191 -167,288 -24,98 -4,175 17,252 m -49,183 c 0,61 0,122 20,165 20,43 61,67 102,92 m -411,-75 c -38,1 -125,68 -192,196 -68,127 -117,314 -107,484 10,171 79,326 193,448 114,122 273,211 378,264 106,53 159,69 202,58 42,-12 74,-51 109,-92 35,-40 71,-82 74,-120 2,-37 -31,-70 -102,-114 -71,-45 -181,-102 -274,-181 -94,-80 -171,-181 -206,-287 -34,-106 -26,-216 -12,-283 15,-67 35,-91 29,-125 -7,-34 -40,-78 -52,-132 -11,-53 -1,-118 -40,-116 z m 1044,820 c -20,34 -7,89 19,102 25,14 63,-13 151,-41 88,-27 226,-55 409,-102 184,-47 413,-113 570,-173 157,-60 243,-113 291,-157 49,-45 61,-82 70,-150 8,-69 13,-170 -4,-166 -17,3 -57,110 -160,208 -103,98 -269,187 -434,248 -165,62 -329,97 -459,121 -130,25 -228,39 -303,52 -75,13 -129,25 -150,58 z m 129,73 c -187,56 -295,125 -422,259 -127,134 -273,333 -350,521 -78,189 -86,365 -79,519 7,153 30,284 64,381 35,98 82,163 152,199 70,37 163,45 259,6 96,-38 193,-124 240,-297 47,-173 44,-434 54,-406 10,29 34,347 115,569 81,222 219,348 392,466 173,118 380,228 569,293 189,65 360,85 517,73 156,-12 299,-57 390,-116 91,-59 132,-132 140,-209 8,-78 -16,-159 -69,-251 -53,-91 -134,-193 -183,-290 -49,-98 -65,-191 -47,-263 19,-71 72,-119 149,-154 77,-35 179,-55 305,-63 126,-8 276,-4 398,-41 122,-36 216,-114 277,-201 61,-87 89,-185 105,-295 17,-110 21,-232 -14,-299 -34,-67 -108,-79 -205,-63 -98,17 -220,61 -327,96 -108,34 -202,59 -287,67 -85,8 -163,0 -226,-10 -63,-10 -112,-23 -166,-59 -55,-37 -116,-98 -129,-130 -12,-33 25,-37 108,-37 84,0 214,4 356,-30 142,-35 297,-108 392,-185 96,-78 133,-159 112,-257 -20,-97 -97,-211 -177,-248 -79,-36 -160,5 -183,0 -22,-4 15,-52 31,-97 16,-45 12,-86 -35,-104 -46,-18 -136,-14 -221,29 -86,42 -167,124 -236,174 -69,51 -126,72 -179,78 -53,6 -102,-2 -136,-38 -35,-36 -56,-99 -75,-104 -18,-6 -36,48 -145,120 -110,73 -312,164 -546,231 -235,67 -501,110 -688,166 z m 607,317 c -131,88 -241,172 -290,277 -49,106 -36,234 7,345 44,111 119,204 199,277 79,72 162,123 256,128 93,5 197,-36 326,-109 129,-73 284,-179 400,-274 115,-94 193,-177 250,-237 57,-60 93,-97 93,-140 0,-42 -36,-91 -102,-164 -65,-74 -158,-171 -231,-251 -73,-81 -126,-144 -202,-162 -75,-18 -172,8 -297,68 -125,60 -278,154 -409,242 z m -806,-240 c 127,4 255,9 374,60 119,52 229,151 340,249 m -973,-99 c 151,-13 301,-25 436,14 134,39 252,131 330,186 78,55 117,73 133,130 17,57 10,152 48,269 38,117 119,255 196,333 77,77 150,93 223,110 m -29,-889 c -49,16 -104,47 -134,101 -29,53 -33,131 -6,176 28,46 87,60 150,54 63,-6 130,-32 168,-70 39,-37 49,-86 38,-135 -11,-49 -44,-98 -82,-121 -39,-23 -84,-21 -134,-5 z m 393,-139 c -81,-1 -152,50 -170,110 -18,59 16,129 74,164 58,36 139,38 202,4 64,-33 108,-102 86,-163 -22,-61 -112,-114 -192,-115 z m -497,1046 c -15,116 -29,232 -91,344 -62,111 -172,218 -240,291 -68,74 -95,114 -121,155 m -177,-171 c 104,-113 208,-226 275,-344 67,-119 98,-243 112,-308 15,-66 14,-73 12,-80 m 322,1226 c 93,-44 187,-88 325,-172 138,-85 321,-211 434,-301 114,-89 158,-142 202,-195 m 446,-1311 c 22,140 45,280 39,407 -6,126 -42,239 -78,352 m -3072,91 c 122,13 244,25 366,36 121,11 242,21 364,32 m 1926,-1886 c 93,93 186,185 241,304 54,119 70,263 85,408 m -918,-226 c 25,-91 49,-183 82,-261 32,-78 73,-144 113,-209 m -42,507 c 12,-63 24,-126 52,-193 27,-68 70,-139 112,-210 m 1312,561 c 69,12 138,25 183,65 44,41 65,110 73,181 8,71 4,145 0,218 m -12,85 c -17,65 -33,130 -47,169 -14,39 -27,51 -33,55 -6,4 -6,0 -6,-4 m -4306,85 c -8,244 -16,488 41,651 57,162 179,244 301,325 m -488,-518 c 24,126 49,252 107,348 58,97 149,164 241,231 m 253,-1555 c -2,-36 -4,-71 13,-110 18,-39 56,-80 97,-111 42,-30 88,-50 134,-69 m -418,201 c -8,-56 -16,-111 3,-155 20,-43 68,-73 114,-96 46,-22 91,-36 136,-51 m -467,147 c 15,-50 29,-100 68,-144 40,-43 105,-81 149,-99 45,-18 68,-17 91,-16 m -451,79 c 8,-56 16,-112 46,-153 29,-41 80,-68 126,-83 47,-15 88,-19 130,-23 m -393,18 c 36,-61 73,-122 116,-159 44,-37 95,-50 133,-56 37,-6 62,-4 86,-2 m -329,-109 c 38,-30 77,-59 125,-77 48,-17 106,-22 147,-22 40,0 62,5 84,10 m -289,-100 c 58,-32 116,-63 166,-66 50,-4 93,22 136,47 m 317,423 c -29,18 -58,36 -81,71 -22,34 -38,84 -44,123 -7,38 -5,64 -3,91 m 0,460 c 3,85 6,169 16,246 11,77 29,146 48,215"
   id="path6748"
   inkscape:connector-curvature="0"
   style="fill:none;stroke:#2b2a29;stroke-width:75" />
   <path
   class="fil1 str0"
   d="m 4592,19071 c 24,-153 29,-364 -18,-557 -47,-193 -145,-368 -256,-460 -112,-91 -238,-99 -415,-75 -177,24 -405,81 -622,197 -218,116 -425,291 -500,513 -76,221 -19,490 85,689 104,199 254,329 415,386 160,57 331,41 532,-30 202,-72 433,-198 572,-307 138,-110 183,-204 207,-356 z"
   id="path6750"
   inkscape:connector-curvature="0"
   style="fill:#1f1b20;stroke:#2b2a29;stroke-width:75" />
   <path
   class="fil0 str1"
   d="m 3275,18581 c -63,90 -126,179 -149,291 -22,112 -4,246 8,316 11,70 15,76 19,83"
   id="path6752"
   inkscape:connector-curvature="0"
   style="fill:none;stroke:#fefefe;stroke-width:75" />
   <path
   class="fil0 str0"
   d="m 16,25453 c 600,-235 1200,-470 1717,-670 517,-200 952,-365 1305,-529 353,-165 624,-329 1122,-417 498,-88 1224,-100 1875,-58 652,41 1228,135 1675,110 448,-25 767,-169 947,-270 180,-102 221,-161 262,-219"
   id="path6754"
   inkscape:connector-curvature="0"
   style="fill:none;stroke:#2b2a29;stroke-width:75" />
   <path
   class="fil0 str0"
   d="m 10730,23427 c 64,75 129,149 276,229 148,79 378,163 787,193 409,30 997,6 1643,6 647,0 1353,24 1985,179 632,156 1190,444 1780,520 589,76 1210,-59 1673,155 463,215 768,779 1096,1191 328,412 678,671 1028,930"
   id="path6756"
   inkscape:connector-curvature="0"
   style="fill:none;stroke:#2b2a29;stroke-width:75" />
   <path
   class="fil2 str0"
   d="m 8987,23486 c 96,72 298,152 544,180 245,28 533,4 750,-32 216,-36 360,-84 423,-130 63,-46 45,-88 -66,-143 -112,-54 -318,-120 -521,-140 -204,-20 -405,7 -605,24 -200,18 -399,27 -504,64 -105,38 -117,104 -21,177 z"
   id="path6758"
   inkscape:connector-curvature="0"
   style="fill:#bc0035;stroke:#2b2a29;stroke-width:75" />
   <path
   class="fil0 str0"
   d="m 1321,27323 c 177,-141 353,-282 453,-429 100,-147 124,-300 147,-453"
   id="path6760"
   inkscape:connector-curvature="0"
   style="fill:none;stroke:#2b2a29;stroke-width:75" />
   <path
   class="fil2 str0"
   d="m 2081,26401 c 125,-16 340,-28 532,-67 193,-40 364,-108 500,-196 137,-88 240,-197 287,-275 47,-78 38,-125 -71,-130 -108,-6 -317,29 -547,91 -229,61 -479,150 -630,235 -152,85 -204,167 -232,234 -28,66 -31,116 -15,130 16,15 51,-6 176,-22 z"
   id="path6762"
   inkscape:connector-curvature="0"
   style="fill:#bc0035;stroke:#2b2a29;stroke-width:75" />
   <path
   class="fil0 str0"
   d="m 3438,25797 c 144,65 288,130 445,140 158,10 328,-34 447,-66 119,-33 187,-53 255,-74"
   id="path6764"
   inkscape:connector-curvature="0"
   style="fill:none;stroke:#2b2a29;stroke-width:75" />
   <path
   class="fil0 str0"
   d="m 4558,25806 c 294,-68 588,-135 931,-137 342,-1 733,63 1062,136 330,72 597,151 860,169 263,17 522,-27 781,-71"
   id="path6766"
   inkscape:connector-curvature="0"
   style="fill:none;stroke:#2b2a29;stroke-width:75" />
   <path
   class="fil0 str0"
   d="m 10300,25100 c 172,-73 344,-147 466,-208 122,-61 194,-109 266,-158"
   id="path6768"
   inkscape:connector-curvature="0"
   style="fill:none;stroke:#2b2a29;stroke-width:75" />
   <path
   class="fil2 str0"
   d="m 11106,24803 c 59,31 141,59 235,75 94,17 200,20 274,13 74,-7 117,-24 121,-49 4,-25 -30,-56 -118,-79 -87,-23 -228,-38 -344,-45 -116,-8 -208,-8 -236,8 -28,16 8,47 68,77 z"
   id="path6770"
   inkscape:connector-curvature="0"
   style="fill:#bc0035;stroke:#2b2a29;stroke-width:75" />
   <path
   class="fil0 str0"
   d="m 11726,24825 c 22,42 44,84 90,121 46,38 116,72 164,94 48,21 75,31 101,41"
   id="path6772"
   inkscape:connector-curvature="0"
   style="fill:none;stroke:#2b2a29;stroke-width:75" />
   <path
   class="fil0 str0"
   d="m 14394,26439 c 269,-5 538,-9 727,-58 189,-50 298,-144 617,-217 319,-74 848,-127 1342,56 494,182 952,599 1345,848 392,248 718,328 1045,407"
   id="path6774"
   inkscape:connector-curvature="0"
   style="fill:none;stroke:#2b2a29;stroke-width:75" />
   <path
   class="fil0 str0"
   d="m 12661,27043 c 200,-147 400,-294 592,-423 193,-130 378,-242 575,-268 197,-26 406,32 691,113 285,81 647,184 1008,287"
   id="path6776"
   inkscape:connector-curvature="0"
   style="fill:none;stroke:#2b2a29;stroke-width:75" />
   <g
   id="g6784">
    <path
   class="fil1 str0"
   d="m 18906,21691 c 68,-150 97,-331 67,-499 -8,-41 -19,-81 -32,-119 -35,-91 -85,-180 -144,-259 -17,-22 -34,-43 -53,-64 -107,-120 -233,-206 -344,-257 -112,-52 -211,-70 -280,-63 -50,5 -84,22 -89,17 -51,33 -100,81 -151,148 -64,84 -131,196 -185,339 -54,143 -96,316 -96,467 0,152 43,283 146,394 102,112 265,205 407,278 142,73 263,126 377,88 7,-2 14,-5 21,-8 11,-31 51,-65 101,-114 80,-79 187,-198 255,-348 z"
   id="path6778"
   inkscape:connector-curvature="0"
   style="fill:#1f1b20;stroke:#2b2a29;stroke-width:75" />
    <path
   class="fil0 str0"
   d="m 18071,20424 c 66,-32 136,-41 255,9 118,50 286,159 420,316 134,157 236,363 249,557 13,194 -62,376 -153,531 -91,156 -198,286 -313,324 -114,38 -235,-15 -377,-88 -142,-73 -305,-166 -407,-278 -103,-111 -146,-242 -146,-394 0,-151 42,-324 96,-467 54,-143 121,-255 185,-339 64,-84 125,-139 191,-171 z m -34,5 c 25,-38 112,-144 246,-223 133,-79 313,-130 499,-129 187,1 380,55 546,142 165,88 302,209 399,398 97,189 153,447 149,661 -3,215 -67,387 -104,503 -37,116 -48,176 -81,241 -34,65 -91,135 -164,193 -74,58 -164,103 -273,133 -108,30 -235,43 -369,15 -135,-29 -277,-99 -322,-153 -44,-55 8,-93 88,-171 80,-79 187,-198 255,-348 68,-150 97,-331 67,-499 -31,-168 -121,-322 -229,-442 -107,-120 -233,-206 -344,-257 -112,-52 -211,-70 -280,-63 -68,6 -107,37 -83,-1 z m 1061,2412 c -8,-36 8,-86 32,-116 24,-30 56,-40 110,-51 55,-11 130,-24 194,-67 63,-43 115,-116 132,-183 18,-68 2,-130 -34,-192 -37,-62 -93,-124 -119,-185 -25,-62 -20,-123 -2,-171 18,-47 49,-81 95,-67 47,14 109,76 171,155 63,79 126,176 145,266 19,91 -6,176 -36,247 -30,71 -65,129 -115,195 -49,67 -114,142 -175,188 -61,45 -118,62 -172,67 -54,6 -105,1 -146,-12 -41,-14 -72,-37 -80,-74 z m -855,-2606 c 141,30 282,60 415,141 134,81 260,212 359,363 100,150 173,320 198,481 24,160 -2,312 -50,447 -49,135 -121,253 -204,347 -83,95 -177,166 -272,237 m -978,-472 c -129,60 -258,121 -407,216 -149,95 -318,225 -437,347 -120,123 -189,238 -200,323 -12,86 34,141 97,143 63,1 143,-52 218,-111 75,-58 145,-122 224,-196 80,-73 169,-155 231,-253 62,-98 96,-212 115,-284 20,-71 23,-101 23,-116 -1,-14 -6,-15 -8,-13 -1,1 1,4 1,4 0,0 -2,-3 -5,-6 m -646,440 c 46,50 92,101 134,146 43,45 81,86 120,127 m 1699,-183 c 40,139 79,278 111,418 32,141 55,285 97,426 43,141 104,281 128,380 24,99 11,157 -34,193 -44,36 -120,49 -200,35 -80,-14 -164,-56 -226,-127 -62,-71 -102,-172 -137,-254 -36,-83 -67,-148 -89,-213 -22,-65 -35,-132 -49,-198 m 143,437 c -109,101 -218,203 -350,284 -132,81 -288,141 -431,182 -142,41 -272,63 -380,105 -108,43 -193,106 -287,153 -93,47 -194,78 -329,82 -135,3 -304,-20 -399,-87 -94,-67 -114,-178 -111,-249 3,-71 29,-102 117,-176 88,-73 240,-189 389,-293 149,-103 297,-195 444,-287 m 120,879 c 35,67 70,134 146,209 77,75 196,158 326,220 130,61 272,100 378,73 106,-28 176,-123 190,-211 15,-88 -26,-169 -77,-260 -52,-91 -113,-191 -175,-292 m 41,86 c -183,161 -365,321 -548,481 m -935,-825 c 164,202 329,403 494,605 m -209,-1285 c -4,67 27,107 82,171 54,64 131,152 235,214 104,63 235,101 316,63 81,-39 111,-153 158,-257 47,-104 110,-198 210,-259 101,-62 239,-91 381,-96 143,-4 290,15 384,19 95,4 137,-7 151,-40 14,-33 0,-88 -20,-144 -19,-57 -45,-116 -146,-124 -101,-8 -277,34 -425,77 -149,43 -269,86 -344,104 -76,18 -108,12 -150,-20 -42,-31 -93,-87 -141,-128 -48,-41 -92,-67 -91,-140 2,-74 50,-196 80,-296 30,-100 41,-178 17,-200 -24,-21 -83,16 -115,46 -32,30 -37,54 -48,105 -11,50 -28,127 -63,201 -35,74 -89,144 -157,219 -67,75 -149,155 -209,241 -61,86 -101,178 -105,244 z m 397,-311 c -33,-27 -86,-40 -115,-21 -29,19 -34,70 -16,103 17,32 57,48 92,49 34,1 64,-11 74,-37 9,-27 -3,-67 -35,-94 z m 226,165 c -35,-22 -100,-19 -130,8 -30,27 -25,78 -13,111 12,33 32,47 65,43 33,-4 79,-26 99,-60 21,-34 15,-80 -21,-102 z m -618,142 c -6,85 -12,171 -10,247 3,76 15,142 27,208 m 1644,275 c 73,-52 146,-104 220,-139 73,-35 146,-54 219,-72 m -151,-989 c 85,102 171,203 257,305 m 82,249 c -16,89 -32,179 -64,251 -33,72 -82,128 -132,184 m -414,272 c -85,53 -171,106 -252,126 -82,21 -159,10 -236,-1 m -480,-556 c 75,98 150,197 248,280 99,83 221,152 343,220 m -729,-389 c 57,76 115,152 211,234 97,81 233,167 369,253 m 1241,-1751 c 34,-31 67,-62 113,-75 45,-14 103,-10 160,-6 m -134,316 c 24,-42 47,-84 91,-91 44,-7 108,22 173,50 m -296,233 c 34,-8 68,-16 105,-5 37,11 77,41 118,71 m -349,66 c 48,10 95,20 121,53 25,33 28,90 31,146 m -357,-128 c 38,10 75,20 101,46 27,26 42,68 39,105 -3,38 -24,70 -46,103 m -1367,-2139 c -77,96 -153,192 -189,282 -36,89 -32,173 -9,250 22,78 62,149 102,221 m 2139,-695 c 45,79 90,159 110,254 20,95 16,205 4,294 -12,89 -31,158 -50,227 m -736,1882 c 26,84 52,169 38,240 -15,71 -69,129 -107,158 -37,30 -58,30 -78,31 m 297,-350 c 9,63 19,127 10,173 -9,47 -35,77 -62,107"
   id="path6780"
   inkscape:connector-curvature="0"
   style="fill:none;stroke:#2b2a29;stroke-width:75" />
    <path
   class="fil0 str1"
   d="m 17907,20923 c -48,157 -97,313 -70,464 27,151 129,296 231,442"
   id="path6782"
   inkscape:connector-curvature="0"
   style="fill:none;stroke:#fefefe;stroke-width:75" />
   </g>
   <path
   class="fil0 str0"
   d="m 19017,14631 c -3,84 -6,168 -16,245 -11,77 -29,146 -48,215"
   id="path6786"
   inkscape:connector-curvature="0"
   style="fill:none;stroke:#2b2a29;stroke-width:75" />
   <path
   class="fil0 str0"
   d="m 18889,13885 c 29,18 58,37 81,71 22,34 38,85 45,123 6,38 4,65 2,91"
   id="path6788"
   inkscape:connector-curvature="0"
   style="fill:none;stroke:#2b2a29;stroke-width:75" />
   <path
   class="fil0 str0"
   d="m 19508,13481 c -58,-32 -116,-63 -166,-66 -50,-3 -93,22 -136,48"
   id="path6790"
   inkscape:connector-curvature="0"
   style="fill:none;stroke:#2b2a29;stroke-width:75" />
   <path
   class="fil0 str0"
   d="m 19575,13670 c -38,-29 -77,-59 -125,-76 -48,-18 -106,-23 -146,-23 -41,0 -63,5 -85,11"
   id="path6792"
   inkscape:connector-curvature="0"
   style="fill:none;stroke:#2b2a29;stroke-width:75" />
   <path
   class="fil0 str0"
   d="m 19582,13996 c -37,-61 -74,-122 -117,-159 -44,-37 -95,-50 -132,-56 -38,-5 -62,-3 -87,-1"
   id="path6794"
   inkscape:connector-curvature="0"
   style="fill:none;stroke:#2b2a29;stroke-width:75" />
   <path
   class="fil0 str0"
   d="m 19490,14237 c -8,-56 -16,-112 -46,-153 -29,-41 -80,-67 -126,-83 -46,-15 -88,-19 -130,-23"
   id="path6796"
   inkscape:connector-curvature="0"
   style="fill:none;stroke:#2b2a29;stroke-width:75" />
   <path
   class="fil0 str0"
   d="m 19347,14417 c -14,-50 -29,-99 -68,-143 -40,-44 -105,-82 -149,-100 -44,-18 -68,-17 -91,-16"
   id="path6798"
   inkscape:connector-curvature="0"
   style="fill:none;stroke:#2b2a29;stroke-width:75" />
   <path
   class="fil0 str0"
   d="m 19133,14573 c 8,-56 17,-112 -3,-155 -20,-44 -68,-74 -114,-96 -46,-23 -91,-37 -136,-51"
   id="path6800"
   inkscape:connector-curvature="0"
   style="fill:none;stroke:#2b2a29;stroke-width:75" />
   <path
   class="fil0 str0"
   d="m 18959,14661 c 2,-35 5,-71 -13,-110 -18,-38 -56,-80 -97,-110 -42,-31 -88,-50 -134,-70"
   id="path6802"
   inkscape:connector-curvature="0"
   style="fill:none;stroke:#2b2a29;stroke-width:75" />
   <path
   class="fil0 str0"
   d="m 18267,17524 c -63,112 -126,223 -212,297 -85,73 -193,107 -301,142"
   id="path6804"
   inkscape:connector-curvature="0"
   style="fill:none;stroke:#2b2a29;stroke-width:75" />
   <path
   class="fil0 str0"
   d="m 18236,17174 c -111,218 -223,435 -351,549 -129,115 -275,127 -421,139"
   id="path6806"
   inkscape:connector-curvature="0"
   style="fill:none;stroke:#2b2a29;stroke-width:75" />
   <path
   class="fil0 str0"
   d="m 16742,14167 c -12,-63 -24,-126 -51,-193 -28,-67 -71,-138 -113,-210"
   id="path6808"
   inkscape:connector-curvature="0"
   style="fill:none;stroke:#2b2a29;stroke-width:75" />
   <path
   class="fil0 str0"
   d="m 16895,14130 c -24,-91 -49,-183 -81,-261 -33,-78 -74,-143 -114,-208"
   id="path6810"
   inkscape:connector-curvature="0"
   style="fill:none;stroke:#2b2a29;stroke-width:75" />
   <path
   class="fil0 str0"
   d="m 18959,15463 c -122,12 -244,24 -365,35 -122,12 -243,22 -365,32"
   id="path6812"
   inkscape:connector-curvature="0"
   style="fill:none;stroke:#2b2a29;stroke-width:75" />
   <path
   class="fil0 str0"
   d="m 18089,16035 c -23,-41 -159,-28 -235,-112 -144,-158 -255,-435 -265,-478 -15,-66 -13,-73 -12,-80"
   id="path6814"
   inkscape:connector-curvature="0"
   style="fill:none;stroke:#2b2a29;stroke-width:75" />
   <path
   class="fil0 str0"
   d="m 17347,15478 c 15,116 29,233 91,344 62,111 524,535 593,609"
   id="path6816"
   inkscape:connector-curvature="0"
   style="fill:none;stroke:#2b2a29;stroke-width:75" />
   <path
   class="fil0 str0"
   d="m 16797,14362 c 81,-2 152,49 170,109 18,60 -16,129 -74,165 -58,36 -139,38 -202,4 -63,-34 -108,-103 -86,-164 23,-61 112,-113 192,-114 z"
   id="path6818"
   inkscape:connector-curvature="0"
   style="fill:none;stroke:#2b2a29;stroke-width:75" />
   <path
   class="fil0 str0"
   d="m 17243,14571 c 50,17 104,47 134,101 29,54 33,131 6,177 -27,46 -86,60 -149,54 -63,-6 -131,-33 -169,-70 -39,-38 -49,-87 -38,-136 11,-48 44,-97 83,-121 38,-23 83,-21 133,-5 z"
   id="path6820"
   inkscape:connector-curvature="0"
   style="fill:none;stroke:#2b2a29;stroke-width:75" />
   <path
   class="fil0 str0"
   d="m 18580,14418 c -151,-12 -301,-25 -436,14 -134,40 -252,131 -330,186 -78,55 -117,73 -133,130 -16,57 -10,153 -48,270 -38,116 -119,255 -196,332 -77,77 -150,94 -223,110"
   id="path6822"
   inkscape:connector-curvature="0"
   style="fill:none;stroke:#2b2a29;stroke-width:75" />
   <path
   class="fil0 str0"
   d="m 18321,14208 c -127,5 -255,9 -374,61 -119,51 -229,150 -340,249"
   id="path6824"
   inkscape:connector-curvature="0"
   style="fill:none;stroke:#2b2a29;stroke-width:75" />
   <path
   class="fil0 str0"
   d="m 17515,14448 c 131,89 241,172 290,278 49,106 36,234 -7,344 -44,111 -119,205 -198,277 -80,72 -163,123 -257,128 -93,5 -197,-36 -326,-109 -129,-73 -284,-179 -399,-273 -116,-95 -194,-178 -250,-238 -57,-60 -94,-97 -94,-139 0,-43 37,-92 102,-165 65,-73 158,-171 231,-251 74,-80 126,-143 202,-162 75,-18 172,8 298,68 125,60 277,154 408,242 z"
   id="path6826"
   inkscape:connector-curvature="0"
   style="fill:none;stroke:#2b2a29;stroke-width:75" />
   <path
   class="fil0 str0"
   d="m 15621,13595 c 217,145 665,133 911,161 53,6 102,-2 137,-38 34,-36 55,-99 74,-104 19,-5 36,48 146,121 109,72 311,163 545,230 235,68 501,110 688,166 187,56 295,125 422,259 127,135 273,334 351,522 77,188 85,365 78,518 -7,154 -30,284 -64,381 -35,98 -82,163 -152,200 -70,36 -163,44 -259,6 -95,-39 -193,-124 -240,-298 -47,-173 -44,-434 -54,-406 -10,29 -88,334 -115,569 -216,1851 -628,2061 -1001,1385 -131,-236 -164,-828 -311,-1156 -67,-151 -152,766 -258,1009 -72,166 -419,115 -496,20 -383,-473 -276,-1622 349,-2577 36,-55 115,-97 128,-130 12,-32 -148,-110 -108,-37 26,48 -734,-13 -1200,-179 -270,-96 -424,-110 -314,-463 48,-154 518,-311 743,-159 z"
   id="path6828"
   inkscape:connector-curvature="0"
   style="fill:none;stroke:#2b2a29;stroke-width:75" />
   <path
   class="fil0 str0"
   d="m 18251,14059 c 20,33 7,88 -18,102 -26,13 -64,-14 -151,-41 -88,-28 -227,-55 -410,-102 -184,-47 -413,-114 -570,-174 -157,-60 -242,-112 -291,-157 -49,-45 -61,-81 -70,-150 -8,-69 -13,-169 4,-166 18,3 57,111 160,209 103,97 269,186 434,248 165,61 329,96 459,121 131,24 228,38 303,51 76,13 129,25 150,59 z"
   id="path6830"
   inkscape:connector-curvature="0"
   style="fill:none;stroke:#2b2a29;stroke-width:75" />
   <path
   class="fil0 str0"
   d="m 19295,13238 c 38,2 125,69 193,196 67,127 116,314 106,485 -10,170 -79,325 -193,447 -114,122 -273,211 -378,264 -106,53 -159,69 -202,58 -42,-11 -74,-51 -109,-91 -34,-41 -71,-83 -73,-120 -3,-38 30,-70 101,-115 71,-45 181,-102 275,-181 93,-79 170,-181 205,-287 34,-105 26,-215 12,-282 -15,-67 -35,-92 -29,-126 7,-34 40,-77 52,-131 12,-54 1,-118 40,-117 z"
   id="path6832"
   inkscape:connector-curvature="0"
   style="fill:none;stroke:#2b2a29;stroke-width:75" />
   <path
   class="fil0 str0"
   d="m 19006,13057 c 0,61 0,122 -20,164 -20,43 -61,67 -102,92"
   id="path6834"
   inkscape:connector-curvature="0"
   style="fill:none;stroke:#2b2a29;stroke-width:75" />
   <path
   class="fil0 str0"
   d="m 18579,12203 c 78,28 155,57 228,130 73,73 142,191 167,289 24,97 4,174 -16,252"
   id="path6836"
   inkscape:connector-curvature="0"
   style="fill:none;stroke:#2b2a29;stroke-width:75" />
   <path
   class="fil0 str0"
   d="m 16984,12128 c 111,-92 237,-100 414,-76 177,25 405,82 622,198 218,115 425,290 500,512 76,221 19,490 -85,689 -104,199 -254,329 -415,386 -160,57 -331,41 -532,-30 -202,-71 -433,-197 -572,-307 -138,-110 -183,-203 -207,-356 -24,-152 -28,-364 18,-557 47,-193 145,-368 257,-459 z"
   id="path6838"
   inkscape:connector-curvature="0"
   style="fill:none;stroke:#2b2a29;stroke-width:75" />
   <path
   class="fil0 str0"
   d="m 19272,13241 c 4,-47 6,-56 -15,-219 -22,-162 -67,-478 -171,-702 -105,-223 -269,-353 -428,-444 -160,-92 -314,-145 -489,-186 -175,-40 -370,-69 -574,-24 -203,45 -414,163 -577,315 -163,153 -276,340 -319,545 -43,205 -14,429 4,590 18,160 26,258 120,370 93,111 272,238 465,321 194,83 401,124 610,158 210,35 421,63 596,51 175,-12 313,-65 433,-164 120,-100 222,-246 277,-362 54,-116 63,-202 68,-249 z"
   id="path6840"
   inkscape:connector-curvature="0"
   style="fill:none;stroke:#2b2a29;stroke-width:75" />
   <path
   class="fil1 str0"
   d="m 16709,13144 c -24,-152 -28,-364 18,-557 47,-193 145,-368 257,-459 111,-92 237,-100 414,-76 177,25 405,82 622,198 218,115 425,290 500,512 76,221 19,490 -85,689 -104,199 -254,329 -415,386 -160,57 -331,41 -532,-30 -202,-71 -433,-197 -572,-307 -138,-110 -183,-203 -207,-356 z"
   id="path6842"
   inkscape:connector-curvature="0"
   style="fill:#1f1b20;stroke:#2b2a29;stroke-width:75" />
   <path
   class="fil0 str1"
   d="m 18026,12655 c 63,89 126,179 149,290 22,112 4,246 -7,317 -12,70 -16,76 -20,82"
   id="path6844"
   inkscape:connector-curvature="0"
   style="fill:none;stroke:#fefefe;stroke-width:75" />
   <path
   class="fil0 str0"
   d="m 15810,16592 c 164,-30 329,-59 467,-38 138,20 250,91 362,161"
   id="path6846"
   inkscape:connector-curvature="0"
   style="fill:none;stroke:#2b2a29;stroke-width:75" />
   <path
   class="fil0 str0"
   d="m 17009,16927 c 118,-29 235,-59 382,-41 147,17 324,82 500,147"
   id="path6848"
   inkscape:connector-curvature="0"
   style="fill:none;stroke:#2b2a29;stroke-width:75" />
   <path
   class="fil0 str2"
   d="m 15303,14206 c 67,-44 135,-88 180,-156 46,-67 69,-158 78,-239 9,-81 3,-152 -3,-222"
   id="path6850"
   inkscape:connector-curvature="0"
   style="fill:none;stroke:#2b2a29;stroke-width:75;stroke-linecap:round;stroke-linejoin:round" />
   <path
   class="fil0 str2"
   d="m 3307.46,8002.6577 c -74,-159 -162,-362 -178,-586 -16,-225 38,-471 148,-687 109,-217 274,-403 449,-543 175,-139 361,-232 580,-271 219,-38 471,-22 693,69 222,90 414,254 562,402 147,148 251,280 320,482 68,203 101,477 68,701 -33,225 -131,400 -306,573 -176,172 -428,342 -677,440 -249,99 -495,126 -739,82 -244,-43 -485,-158 -635,-273 -151,-115 -211,-230 -285,-389 z m -131,-340 c -115,115 -266,236 -307,343 -41,106 -8,205 131,202 140,-3 386,-107 907,-375 520,-268 1314,-701 1749,-969 436,-269 512,-373 515,-441 3,-69 -68,-101 -181,-88 -112,14 -220,62 -373,122 m -2473,1039 c -164,121 -382,249 -505,378 -123,129 -206,266 -208,384 -3,117 74,216 249,246 175,30 449,-8 802,-129 353,-120 786,-323 1230,-567 443,-243 898,-528 1213,-763 315,-236 490,-422 599,-567 110,-145 154,-249 137,-334 -16,-85 -93,-151 -254,-137 -162,13 -408,107 -586,172 -178,66 -245,90 -354,128 m -3346,2101 c -27,77 -54,153 14,227 68,74 233,146 340,159 106,14 156,-30 205,-74 m -756,50 c 60,82 121,164 175,202 55,39 104,33 154,28 m 4304,-3319 c 121,-17 241,-33 337,-6 96,28 167,99 197,176 30,76 19,158 11,221 -8,63 -14,107 -19,151 m -99,181 c -43,60 -87,120 -123,153 -35,33 -63,38 -90,44"
   id="path6852"
   inkscape:connector-curvature="0"
   style="fill:none;stroke:#2b2a29;stroke-width:75;stroke-linecap:round;stroke-linejoin:round" />
   <g
   id="g6878">
    <path
   class="fil2 str0"
   d="m 8961,14117 c 626,-57 1590,-67 2446,-67 856,0 1604,11 1944,104 340,93 272,268 29,335 -242,67 -660,25 -1135,9 -476,-17 -1011,-8 -1487,7 -476,14 -895,34 -1385,14 -490,-20 -1052,-80 -1189,-162 -137,-81 150,-184 777,-240 z"
   id="path6854"
   inkscape:connector-curvature="0"
   style="fill:#bc0035;stroke:#2b2a29;stroke-width:75" />
    <path
   class="fil0 str0"
   d="m 9232,14544 c -177,698 -354,1397 -581,2210 -228,812 -505,1739 -661,2460 -155,721 -188,1237 -162,1689 26,452 111,841 196,1275 84,433 167,910 212,1166 44,256 50,290 -56,335 -106,45 -325,101 -544,156"
   id="path6856"
   inkscape:connector-curvature="0"
   style="fill:none;stroke:#2b2a29;stroke-width:75" />
    <path
   class="fil0 str0"
   d="m 12501,14554 c 87,600 174,1199 258,2133 84,935 164,2203 240,2989 76,787 146,1091 120,1446 -25,356 -148,764 -266,1145 -118,381 -232,734 -275,988 -44,254 -17,407 87,503 105,96 287,134 395,151 109,16 143,10 147,-17 4,-27 -22,-75 -48,-123"
   id="path6858"
   inkscape:connector-curvature="0"
   style="fill:none;stroke:#2b2a29;stroke-width:75" />
    <path
   class="fil0 str0"
   d="m 7715,20659 c 1785,58 3569,116 5354,174"
   id="path6860"
   inkscape:connector-curvature="0"
   style="fill:none;stroke:#2b2a29;stroke-width:75" />
    <path
   class="fil0 str0"
   d="m 10742,14439 c -1,2108 -3,4217 -35,5294 -31,1078 -94,1123 -116,1145 -23,22 -6,19 11,16"
   id="path6862"
   inkscape:connector-curvature="0"
   style="fill:none;stroke:#2b2a29;stroke-width:75" />
    <path
   class="fil0 str0"
   d="m 7784,20752 c 1584,-1594 3169,-3188 4754,-4781"
   id="path6864"
   inkscape:connector-curvature="0"
   style="fill:none;stroke:#2b2a29;stroke-width:75" />
    <path
   class="fil0 str0"
   d="m 8192,18257 c 1348,-1237 2697,-2473 4045,-3710"
   id="path6866"
   inkscape:connector-curvature="0"
   style="fill:none;stroke:#2b2a29;stroke-width:75" />
    <path
   class="fil0 str0"
   d="m 9228,14614 c 1206,1243 2411,2485 3617,3727"
   id="path6868"
   inkscape:connector-curvature="0"
   style="fill:none;stroke:#2b2a29;stroke-width:75" />
    <path
   class="fil0 str0"
   d="m 8985,15852 c -52,-96 -104,-193 -112,-191 -9,1 26,100 741,977 715,877 2111,2531 3506,4186"
   id="path6870"
   inkscape:connector-curvature="0"
   style="fill:none;stroke:#2b2a29;stroke-width:75" />
    <path
   class="fil0 str0"
   d="m 12553,15757 c -1238,-48 -2476,-95 -3715,-143"
   id="path6872"
   inkscape:connector-curvature="0"
   style="fill:none;stroke:#2b2a29;stroke-width:75" />
    <path
   class="fil0 str0"
   d="m 12803,18402 c -1500,-38 -3000,-75 -4500,-112"
   id="path6874"
   inkscape:connector-curvature="0"
   style="fill:none;stroke:#2b2a29;stroke-width:75" />
    <path
   class="fil3 str3"
   d="m 10758,14505 c 476,-15 1011,-24 1487,-7 475,16 893,58 1135,-9 243,-67 311,-242 -29,-335 -340,-93 -1088,-104 -1944,-104 -856,0 -1820,10 -2446,67 -627,56 -914,159 -777,240 137,82 699,142 1189,162 485,20 899,0 1369,-14 5,0 11,0 16,0 z"
   id="path6876"
   inkscape:connector-curvature="0"
   style="fill:#cdcdce;stroke:#2b2a29;stroke-width:20" />
   </g>
   <g
   id="g6896">
    <path
   class="fil0 str0"
   d="m 10643,7584 c 214,-161 477,-135 679,77 202,212 343,609 465,1114 122,505 226,1118 274,1856 48,739 42,1602 37,2223 -5,621 -8,999 -179,1166 -171,166 -511,120 -896,96 -386,-24 -818,-28 -1024,-224 -207,-196 -188,-585 -177,-1032 11,-446 15,-950 19,-1481 4,-531 9,-1089 52,-1582 43,-494 125,-923 248,-1312 124,-390 288,-739 502,-901 z"
   id="path6880"
   inkscape:connector-curvature="0"
   style="fill:none;stroke:#2b2a29;stroke-width:75" />
    <path
   class="fil0 str0"
   d="m 9882,10536 c -249,450 -498,900 -798,1317 -300,416 -652,798 -858,1092 -206,294 -266,501 -258,683 8,182 83,340 439,416 356,76 993,70 1320,67 327,-3 345,-3 657,-4 312,-1 917,-3 1390,1 474,5 816,17 1197,23 381,6 802,7 995,-118 194,-126 160,-378 45,-658 -115,-280 -311,-587 -533,-904 -223,-317 -472,-643 -695,-941 -223,-299 -418,-570 -543,-760 -125,-190 -178,-299 -188,69 -11,368 21,1212 52,2056"
   id="path6882"
   inkscape:connector-curvature="0"
   style="fill:none;stroke:#2b2a29;stroke-width:75" />
    <path
   class="fil4 str0"
   d="m 9945,14024 c 120,-396 323,-779 503,-741 179,37 336,495 413,859 77,364 75,634 79,817 4,184 15,280 -124,310 -139,29 -426,-9 -629,-26 -202,-18 -319,-14 -359,-216 -40,-202 -3,-608 117,-1003 z"
   id="path6884"
   inkscape:connector-curvature="0"
   style="fill:#ffffff;stroke:#2b2a29;stroke-width:75" />
    <path
   class="fil0 str0"
   d="m 10195,8459 c 210,69 421,139 678,143 256,4 558,-57 860,-117"
   id="path6886"
   inkscape:connector-curvature="0"
   style="fill:none;stroke:#2b2a29;stroke-width:75" />
    <path
   class="fil5 str0"
   d="m 10448,9674 c 116,145 422,147 629,149 207,1 315,2 370,-105 55,-108 56,-324 -14,-468 -71,-145 -215,-218 -385,-255 -171,-38 -369,-39 -505,104 -136,143 -211,430 -95,575 z"
   id="path6888"
   inkscape:connector-curvature="0"
   style="fill:#feed0a;stroke:#2b2a29;stroke-width:75" />
    <path
   class="fil0 str0"
   d="m 10496,10547 c -3,324 -5,648 -8,972"
   id="path6890"
   inkscape:connector-curvature="0"
   style="fill:none;stroke:#2b2a29;stroke-width:75" />
    <path
   class="fil0 str0"
   d="m 10426,12545 c 2,-216 4,-432 5,-648"
   id="path6892"
   inkscape:connector-curvature="0"
   style="fill:none;stroke:#2b2a29;stroke-width:75" />
    <path
   class="fil4 str0"
   d="m 11957,14093 c -114,-397 -311,-783 -491,-748 -181,34 -344,490 -426,852 -83,363 -85,633 -92,816 -7,184 -19,280 119,312 138,31 426,-3 629,-17 202,-14 319,-9 363,-210 43,-201 12,-608 -102,-1005 z"
   id="path6894"
   inkscape:connector-curvature="0"
   style="fill:#ffffff;stroke:#2b2a29;stroke-width:75" />
   </g>
   <path
   class="fil4 str0"
   d="m 14311,13700 c 90,32 240,41 366,75 127,34 230,92 278,153 49,60 43,122 30,226 -14,104 -34,251 13,335 47,84 161,105 232,87 71,-18 97,-74 128,-241 31,-168 66,-447 81,-651 14,-205 9,-334 -122,-403 -131,-69 -387,-78 -575,-93 -188,-14 -309,-35 -397,-10 -88,25 -144,96 -169,166 -25,71 -19,141 -1,204 17,64 47,119 136,152 z"
   id="path6898"
   inkscape:connector-curvature="0"
   style="fill:#ffffff;stroke:#2b2a29;stroke-width:75" />
   <path
   class="fil0 str0"
   d="m 14154,13397 c -123,-6 -247,-12 -303,-24 -56,-11 -44,-29 -6,-36 39,-8 103,-5 168,-6 65,-2 129,-7 194,-13"
   id="path6900"
   inkscape:connector-curvature="0"
   style="fill:none;stroke:#2b2a29;stroke-width:75" />
   <path
   class="fil2 str3"
   d="m 14463,13385 c 9,21 44,38 67,30 24,-9 36,-44 27,-65 -9,-21 -38,-26 -62,-18 -23,9 -41,33 -32,53 z"
   id="path6902"
   inkscape:connector-curvature="0"
   style="fill:#bc0035;stroke:#2b2a29;stroke-width:20" />
   <path
   class="fil2 str3"
   d="m 14758,13413 c 8,22 46,43 72,37 27,-6 41,-38 34,-60 -7,-22 -37,-34 -63,-28 -27,6 -50,29 -43,51 z"
   id="path6904"
   inkscape:connector-curvature="0"
   style="fill:#bc0035;stroke:#2b2a29;stroke-width:20" />
  </g>
 </g>
</svg>