<?xml version="1.0" encoding="UTF-8" standalone="no"?>
<!-- Creator: CorelDRAW X7 -->

<svg
   xmlns:dc="http://purl.org/dc/elements/1.1/"
   xmlns:cc="http://creativecommons.org/ns#"
   xmlns:rdf="http://www.w3.org/1999/02/22-rdf-syntax-ns#"
   xmlns:svg="http://www.w3.org/2000/svg"
   xmlns="http://www.w3.org/2000/svg"
   xmlns:sodipodi="http://sodipodi.sourceforge.net/DTD/sodipodi-0.dtd"
   xmlns:inkscape="http://www.inkscape.org/namespaces/inkscape"
   xml:space="preserve"
   width="390"
   height="467"
   version="1.1"
   style="clip-rule:evenodd;fill-rule:evenodd;image-rendering:optimizeQuality;shape-rendering:geometricPrecision;text-rendering:geometricPrecision"
   viewBox="0 0 10318.75 12356.041"
   id="svg7398"
   sodipodi:docname="command_2.svg"
   inkscape:version="0.92.4 (5da689c313, 2019-01-14)"><metadata
   id="metadata7402"><rdf:RDF><cc:Work
       rdf:about=""><dc:format>image/svg+xml</dc:format><dc:type
         rdf:resource="http://purl.org/dc/dcmitype/StillImage" /><dc:title></dc:title></cc:Work></rdf:RDF></metadata><sodipodi:namedview
   pagecolor="#ffffff"
   bordercolor="#666666"
   borderopacity="1"
   objecttolerance="10"
   gridtolerance="10"
   guidetolerance="10"
   inkscape:pageopacity="0"
   inkscape:pageshadow="2"
   inkscape:window-width="1920"
   inkscape:window-height="1017"
   id="namedview7400"
   showgrid="false"
   units="px"
   inkscape:zoom="1.2834632"
   inkscape:cx="41.150688"
   inkscape:cy="191.05624"
   inkscape:window-x="-8"
   inkscape:window-y="32"
   inkscape:window-maximized="1"
   inkscape:current-layer="svg7398" />
 <defs
   id="defs7163">
  <style
   type="text/css"
   id="style7161">
   <![CDATA[
    .str0 {stroke:#2B2A29;stroke-width:75}
    .str1 {stroke:#20B9FD;stroke-width:75}
    .fil0 {fill:none}
    .fil2 {fill:black}
    .fil4 {fill:#20B9FD}
    .fil1 {fill:#BC0035}
    .fil3 {fill:white}
   ]]>
  </style>
 </defs>
 <g
   id="Слой_x0020_1"
   transform="matrix(0.5136226,0,0,0.5136226,-126.52779,-2825.9915)">
  <metadata
   id="CorelCorpID_0Corel-Layer" />
  <g
   id="_1727034610112">
   <g
   id="g7230">
    <path
   class="fil0 str0"
   d="m 9594,15269 c -35,0 -69,0 -145,-45 -75,-44 -192,-133 -320,-286 -129,-152 -270,-369 -335,-583 -66,-213 -56,-424 13,-663 69,-238 198,-505 330,-711 133,-206 268,-352 434,-455 166,-104 362,-164 501,-223 139,-59 221,-115 321,-122 101,-7 220,36 341,86 121,50 244,107 348,191 104,84 191,195 295,314 104,118 227,244 364,418 137,173 290,395 348,644 58,248 22,525 -40,721 -62,196 -151,313 -265,423 -114,109 -253,212 -392,315"
   id="path7166"
   inkscape:connector-curvature="0"
   style="fill:none;stroke:#2b2a29;stroke-width:75" />
    <path
   class="fil1 str0"
   d="m 9334,13521 c 81,-167 183,-264 354,-351 170,-87 409,-163 701,-166 292,-2 637,69 834,370 196,302 243,834 240,1175 -4,342 -59,493 -177,614 -119,122 -302,214 -519,254 -217,40 -469,28 -660,-29 -192,-57 -324,-159 -451,-298 -127,-138 -250,-313 -338,-473 -87,-160 -139,-306 -134,-498 6,-192 68,-430 150,-598 z"
   id="path7168"
   inkscape:connector-curvature="0"
   style="fill:#bc0035;stroke:#2b2a29;stroke-width:75" />
    <path
   class="fil2 str0"
   d="m 9529,12801 c 102,-80 223,-121 356,-168 133,-46 279,-98 477,-90 197,7 447,74 677,192 229,117 438,285 584,473 145,187 228,394 263,536 36,143 25,221 32,315 7,93 33,200 -40,406 -73,206 -245,510 -443,707 -198,197 -421,286 -661,320 -239,35 -494,15 -753,-73 -258,-88 -521,-243 -681,-370 -159,-128 -216,-227 -279,-353 -63,-126 -133,-279 -159,-463 -25,-183 -8,-398 60,-589 67,-191 183,-358 283,-501 100,-144 183,-262 284,-342 z"
   id="path7170"
   inkscape:connector-curvature="0"
   style="fill:#000000;stroke:#2b2a29;stroke-width:75" />
    <path
   class="fil0 str0"
   d="m 9583,15244 c -55,137 -111,274 -130,346 -19,72 -1,79 16,225 17,145 34,429 33,730 -1,301 -20,619 25,783 44,163 151,172 388,195 236,24 602,61 882,54 281,-7 475,-60 589,-128 115,-68 148,-151 143,-326 -5,-176 -49,-443 -60,-670 -12,-226 8,-412 22,-583 14,-171 22,-327 3,-435 -18,-108 -63,-168 -108,-228"
   id="path7172"
   inkscape:connector-curvature="0"
   style="fill:none;stroke:#2b2a29;stroke-width:75" />
    <path
   class="fil0 str0"
   d="m 9787,15306 c 10,129 20,258 44,344 24,86 62,129 191,150 130,22 352,22 546,21 195,-1 361,-2 462,-3 101,-1 136,0 169,-39 32,-39 64,-116 74,-202 11,-85 1,-180 -9,-274"
   id="path7174"
   inkscape:connector-curvature="0"
   style="fill:none;stroke:#2b2a29;stroke-width:75" />
    <path
   class="fil2 str0"
   d="m 10060,16176 c -74,22 -128,104 -104,155 24,51 126,72 201,51 75,-22 121,-86 97,-138 -24,-51 -119,-90 -194,-68 z"
   id="path7176"
   inkscape:connector-curvature="0"
   style="fill:#000000;stroke:#2b2a29;stroke-width:75" />
    <path
   class="fil2 str0"
   d="m 10901,16195 c -93,-10 -182,23 -209,71 -26,48 10,112 81,144 70,32 173,32 248,11 75,-22 120,-66 95,-114 -26,-49 -122,-102 -215,-112 z"
   id="path7178"
   inkscape:connector-curvature="0"
   style="fill:#000000;stroke:#2b2a29;stroke-width:75" />
    <path
   class="fil0 str0"
   d="m 11478,15286 c 159,-67 318,-134 472,-231 153,-97 302,-223 435,-346 133,-123 250,-241 308,-339 57,-98 53,-176 24,-274 -29,-99 -84,-218 -91,-304 -7,-86 35,-138 80,-130 46,8 94,76 139,128 44,53 84,90 128,60 44,-31 91,-130 204,-170 114,-41 294,-23 409,86 115,109 165,309 129,465 -35,155 -156,265 -255,374 -100,108 -178,215 -224,276 -45,62 -58,77 -100,26 -41,-52 -111,-170 -212,-246 -101,-76 -233,-108 -365,-141"
   id="path7180"
   inkscape:connector-curvature="0"
   style="fill:none;stroke:#2b2a29;stroke-width:75" />
    <path
   class="fil0 str0"
   d="m 11493,16477 c 201,-84 402,-169 562,-239 160,-70 280,-126 432,-244 152,-118 336,-300 460,-485 124,-186 187,-375 250,-564"
   id="path7182"
   inkscape:connector-curvature="0"
   style="fill:none;stroke:#2b2a29;stroke-width:75" />
    <path
   class="fil0 str0"
   d="m 9481,16263 c -167,-33 -333,-66 -503,-118 -170,-51 -342,-121 -518,-217 -176,-96 -355,-217 -488,-334 -133,-116 -219,-227 -283,-326 -64,-99 -105,-185 -65,-270 40,-85 162,-168 254,-225 92,-56 154,-84 366,3 212,87 574,289 821,396 247,108 381,120 426,187 46,67 3,189 -17,291 -21,103 -20,186 -15,427 6,242 17,641 21,889 3,247 -1,342 3,392 4,51 16,55 -25,80 -42,25 -136,70 -197,24 -61,-45 -89,-182 -118,-342 -28,-160 -57,-345 -58,-505 -1,-160 26,-294 53,-429"
   id="path7184"
   inkscape:connector-curvature="0"
   style="fill:none;stroke:#2b2a29;stroke-width:75" />
    <path
   class="fil0 str0"
   d="m 11812,16357 c 23,183 46,366 59,537 14,172 18,333 8,443 -10,110 -35,170 -100,178 -66,8 -173,-36 -225,-70 -51,-35 -48,-62 -44,-88"
   id="path7186"
   inkscape:connector-curvature="0"
   style="fill:none;stroke:#2b2a29;stroke-width:75" />
    <path
   class="fil0 str0"
   d="m 13152,19354 c -48,-137 -96,-274 -195,-467 -98,-192 -247,-440 -442,-685 -195,-246 -436,-489 -676,-732"
   id="path7188"
   inkscape:connector-curvature="0"
   style="fill:none;stroke:#2b2a29;stroke-width:75" />
    <path
   class="fil0 str0"
   d="m 9547,17329 c -207,186 -414,372 -612,593 -197,222 -384,478 -489,754 -106,276 -129,572 -183,747 -54,176 -139,231 -270,282 -131,50 -309,96 -422,168 -112,72 -159,171 -130,262 28,92 133,176 351,185 218,8 550,-58 741,-119 191,-61 241,-116 270,-212 28,-96 35,-232 133,-397 98,-164 287,-357 562,-530 274,-173 634,-324 969,-407 335,-82 645,-95 973,70 328,164 674,506 865,753 190,247 225,400 285,518 60,117 144,200 317,225 173,26 436,-6 629,-38 193,-33 318,-66 386,-149 68,-83 81,-216 22,-320 -58,-103 -188,-176 -331,-231 -144,-55 -303,-92 -461,-129"
   id="path7190"
   inkscape:connector-curvature="0"
   style="fill:none;stroke:#2b2a29;stroke-width:75" />
    <path
   class="fil3 str0"
   d="m 10332,13127 c 56,33 113,98 94,145 -20,48 -115,78 -228,109 -113,30 -243,60 -359,141 -116,81 -218,213 -271,344 -53,131 -58,261 -90,314 -31,53 -91,28 -123,-64 -31,-93 -35,-254 14,-393 50,-139 153,-257 263,-347 109,-91 225,-155 315,-198 91,-43 155,-65 215,-75 60,-11 114,-9 170,24 z"
   id="path7192"
   inkscape:connector-curvature="0"
   style="fill:#ffffff;stroke:#2b2a29;stroke-width:75" />
    <path
   class="fil3 str0"
   d="m 9529,14592 c 32,75 111,121 162,114 51,-7 75,-66 61,-134 -14,-68 -66,-145 -110,-191 -43,-45 -79,-60 -104,-14 -26,45 -40,150 -9,225 z"
   id="path7194"
   inkscape:connector-curvature="0"
   style="fill:#ffffff;stroke:#2b2a29;stroke-width:75" />
    <path
   class="fil0 str0"
   d="m 8269,14794 c -56,-99 -113,-199 -89,-334 24,-136 129,-309 158,-432 29,-123 -17,-197 -81,-202 -63,-5 -145,59 -202,122 -57,64 -89,127 -169,66 -79,-60 -206,-243 -340,-287 -135,-44 -277,51 -354,172 -77,121 -89,269 -67,402 22,134 78,253 169,387 91,134 217,283 344,431"
   id="path7196"
   inkscape:connector-curvature="0"
   style="fill:none;stroke:#2b2a29;stroke-width:75" />
    <path
   class="fil0 str0"
   d="m 8281,19371 c 106,-5 212,-10 327,22 115,33 238,104 362,175"
   id="path7198"
   inkscape:connector-curvature="0"
   style="fill:none;stroke:#2b2a29;stroke-width:75" />
    <path
   class="fil0 str0"
   d="m 12392,19586 c 60,-79 121,-159 242,-227 121,-69 304,-126 487,-184"
   id="path7200"
   inkscape:connector-curvature="0"
   style="fill:none;stroke:#2b2a29;stroke-width:75" />
    <path
   class="fil0 str0"
   d="m 8314,19136 c 132,-51 263,-102 404,-65 141,36 292,160 443,284"
   id="path7202"
   inkscape:connector-curvature="0"
   style="fill:none;stroke:#2b2a29;stroke-width:75" />
    <path
   class="fil0 str0"
   d="m 8417,18678 c 256,1 512,1 705,65 192,64 320,192 448,321"
   id="path7204"
   inkscape:connector-curvature="0"
   style="fill:none;stroke:#2b2a29;stroke-width:75" />
    <path
   class="fil0 str0"
   d="m 8709,18215 c 238,27 477,55 706,148 229,93 448,252 668,410"
   id="path7206"
   inkscape:connector-curvature="0"
   style="fill:none;stroke:#2b2a29;stroke-width:75" />
    <path
   class="fil0 str0"
   d="m 12204,19385 c 88,-131 175,-261 302,-334 127,-74 293,-90 458,-105"
   id="path7208"
   inkscape:connector-curvature="0"
   style="fill:none;stroke:#2b2a29;stroke-width:75" />
    <path
   class="fil0 str0"
   d="m 9554,17415 c 194,273 388,545 549,746 161,201 289,329 417,457"
   id="path7210"
   inkscape:connector-curvature="0"
   style="fill:none;stroke:#2b2a29;stroke-width:75" />
    <path
   class="fil0 str0"
   d="m 11767,17545 c -60,163 -119,326 -211,510 -92,184 -217,390 -342,595"
   id="path7212"
   inkscape:connector-curvature="0"
   style="fill:none;stroke:#2b2a29;stroke-width:75" />
    <path
   class="fil0 str0"
   d="m 11496,18723 c 130,-99 261,-199 385,-335 125,-136 244,-310 363,-483"
   id="path7214"
   inkscape:connector-curvature="0"
   style="fill:none;stroke:#2b2a29;stroke-width:75" />
    <path
   class="fil0 str0"
   d="m 9191,17745 c 144,73 287,145 468,305 181,160 399,408 617,656"
   id="path7216"
   inkscape:connector-curvature="0"
   style="fill:none;stroke:#2b2a29;stroke-width:75" />
    <path
   class="fil0 str0"
   d="m 11834,18965 c 156,-110 311,-220 456,-311 144,-90 276,-161 409,-232"
   id="path7218"
   inkscape:connector-curvature="0"
   style="fill:none;stroke:#2b2a29;stroke-width:75" />
    <path
   class="fil0 str0"
   d="m 12311,14772 c 121,43 242,85 339,221 97,137 170,367 243,598"
   id="path7220"
   inkscape:connector-curvature="0"
   style="fill:none;stroke:#2b2a29;stroke-width:75" />
    <path
   class="fil0 str0"
   d="m 11812,15131 c 109,72 218,144 274,271 56,126 59,308 55,445 -4,137 -14,230 -24,323"
   id="path7222"
   inkscape:connector-curvature="0"
   style="fill:none;stroke:#2b2a29;stroke-width:75" />
    <path
   class="fil0 str0"
   d="m 8298,14826 c -120,56 -239,111 -295,241 -56,129 -49,333 -42,537"
   id="path7224"
   inkscape:connector-curvature="0"
   style="fill:none;stroke:#2b2a29;stroke-width:75" />
    <path
   class="fil0 str0"
   d="m 8908,15115 c -104,69 -208,138 -266,253 -57,115 -67,277 -58,392 9,114 37,181 65,248"
   id="path7226"
   inkscape:connector-curvature="0"
   style="fill:none;stroke:#2b2a29;stroke-width:75" />
    <path
   class="fil3 str0"
   d="m 10141,12403 c 6,34 117,41 277,76 161,36 370,100 482,120 112,19 126,-6 91,-53 -35,-47 -118,-116 -194,-166 -77,-50 -147,-82 -223,-101 -75,-18 -156,-23 -247,4 -91,27 -191,87 -186,120 z"
   id="path7228"
   inkscape:connector-curvature="0"
   style="fill:#ffffff;stroke:#2b2a29;stroke-width:75" />
   </g>
   <path
   class="fil0 str0"
   d="m 16187,12422 c -34,0 -69,0 -144,-45 -76,-44 -192,-133 -321,-286 -128,-152 -269,-369 -335,-583 -65,-213 -56,-424 13,-663 70,-239 199,-505 331,-711 133,-208 355,-311 537,-452 20,-16 168,-181 188,-195 408,-286 645,-293 1145,109 104,84 265,210 370,329 104,118 226,244 363,418 138,173 290,394 349,643 58,249 22,526 -40,722 -63,196 -152,313 -266,422 -113,110 -252,213 -391,316"
   id="path7232"
   inkscape:connector-curvature="0"
   style="fill:none;stroke:#2b2a29;stroke-width:75" />
   <path
   class="fil1 str0"
   d="m 15927,10674 c 82,-167 184,-265 354,-351 170,-87 409,-163 701,-166 292,-2 638,69 834,370 196,301 244,833 240,1175 -4,341 -58,492 -177,614 -118,122 -301,214 -518,254 -218,40 -469,27 -661,-30 -191,-57 -323,-159 -450,-297 -128,-138 -251,-313 -338,-473 -88,-160 -139,-306 -134,-498 5,-192 67,-430 149,-598 z"
   id="path7234"
   inkscape:connector-curvature="0"
   style="fill:#bc0035;stroke:#2b2a29;stroke-width:75" />
   <path
   class="fil2 str0"
   d="m 16561,9831 c 231,-40 869,-47 1071,57 230,117 439,285 584,472 146,188 228,394 264,537 36,143 24,221 32,314 7,93 33,201 -41,407 -73,205 -245,510 -443,707 -197,196 -421,286 -660,320 -239,35 -494,14 -753,-73 -259,-88 -521,-243 -681,-371 -160,-127 -217,-226 -280,-352 -63,-126 -132,-279 -158,-463 -26,-184 -8,-398 59,-589 67,-191 148,-392 283,-502 113,-91 562,-436 723,-464 z"
   id="path7236"
   inkscape:connector-curvature="0"
   style="fill:#000000;stroke:#2b2a29;stroke-width:75" />
   <path
   class="fil0 str0"
   d="m 16177,12397 c -56,137 -112,274 -130,346 -19,72 -1,79 16,224 17,146 33,430 32,731 -1,301 -19,619 25,782 45,164 152,173 388,196 237,24 603,61 883,54 280,-8 475,-60 589,-128 114,-68 148,-151 143,-327 -5,-175 -49,-442 -61,-669 -12,-226 8,-412 22,-583 14,-171 22,-327 4,-435 -19,-108 -64,-168 -109,-228"
   id="path7238"
   inkscape:connector-curvature="0"
   style="fill:none;stroke:#2b2a29;stroke-width:75" />
   <path
   class="fil0 str0"
   d="m 16380,12459 c 10,129 20,257 44,343 24,86 62,129 192,151 130,22 351,22 546,21 194,-1 361,-2 462,-3 100,-1 135,-1 168,-39 33,-39 64,-116 75,-202 11,-86 0,-180 -10,-274"
   id="path7240"
   inkscape:connector-curvature="0"
   style="fill:none;stroke:#2b2a29;stroke-width:75" />
   <path
   class="fil2 str0"
   d="m 16654,13329 c -75,21 -129,103 -105,155 24,51 127,72 202,50 74,-21 121,-85 97,-137 -24,-51 -120,-90 -194,-68 z"
   id="path7242"
   inkscape:connector-curvature="0"
   style="fill:#000000;stroke:#2b2a29;stroke-width:75" />
   <path
   class="fil2 str0"
   d="m 17495,13348 c -93,-10 -183,23 -209,71 -27,48 10,112 80,144 70,32 174,32 249,10 74,-21 120,-65 94,-113 -25,-49 -121,-102 -214,-112 z"
   id="path7244"
   inkscape:connector-curvature="0"
   style="fill:#000000;stroke:#2b2a29;stroke-width:75" />
   <path
   class="fil0 str0"
   d="m 18376,13330 c 23,183 76,545 89,717 13,172 17,333 7,443 -10,110 -34,170 -100,178 -65,8 -172,-36 -224,-71 -52,-35 -48,-61 -44,-87"
   id="path7246"
   inkscape:connector-curvature="0"
   style="fill:none;stroke:#2b2a29;stroke-width:75" />
   <path
   class="fil3 str0"
   d="m 18196,11153 c -37,53 -106,104 -152,81 -46,-23 -69,-121 -89,-236 -21,-115 -41,-247 -112,-369 -71,-123 -194,-235 -320,-299 -97,-50 -305,-214 -231,-233 95,-24 255,-14 390,47 135,61 243,173 324,290 82,117 135,238 171,331 35,94 52,160 58,220 5,60 -1,115 -39,168 z"
   id="path7248"
   inkscape:connector-curvature="0"
   style="fill:#ffffff;stroke:#2b2a29;stroke-width:75" />
   <path
   class="fil3 str0"
   d="m 18085,11589 c 49,-65 50,-155 18,-196 -31,-41 -95,-33 -147,13 -52,46 -92,130 -110,190 -18,61 -12,99 39,99 52,-1 150,-40 200,-106 z"
   id="path7250"
   inkscape:connector-curvature="0"
   style="fill:#ffffff;stroke:#2b2a29;stroke-width:75" />
   <path
   class="fil3 str0"
   d="m 16460,9655 c 18,37 696,-26 783,-37 112,-14 118,-43 71,-77 -47,-35 -147,-76 -235,-101 -88,-26 -164,-35 -242,-31 -78,5 -156,24 -235,76 -79,53 -157,140 -142,170 z"
   id="path7252"
   inkscape:connector-curvature="0"
   style="fill:#ffffff;stroke:#2b2a29;stroke-width:75" />
   <path
   class="fil2 str0"
   d="m 16949,13644 c -27,48 10,111 80,143 70,32 76,3 151,-19 147,-42 -108,-348 -231,-124 z"
   id="path7254"
   inkscape:connector-curvature="0"
   style="fill:#000000;stroke:#2b2a29;stroke-width:75" />
   <path
   class="fil0 str0"
   d="m 16112,12407 c -230,20 -460,40 -759,107 -300,68 -670,183 -964,290 -295,108 -515,207 -655,315 -140,107 -200,222 -217,317 -17,95 7,170 92,225 85,55 230,90 335,80 105,-10 170,-65 210,-50 40,15 55,100 92,147 38,48 98,58 135,-5 38,-62 53,-197 142,-295 90,-97 255,-157 483,-219 227,-63 517,-128 706,-155 190,-28 280,-18 370,-8"
   id="path7256"
   inkscape:connector-curvature="0"
   style="fill:none;stroke:#2b2a29;stroke-width:75" />
   <path
   class="fil0 str0"
   d="m 18060,12422 c 260,70 520,140 749,232 230,93 430,208 637,400 207,192 422,462 560,729 137,267 197,532 199,704 3,173 -52,253 -142,265 -90,13 -215,-42 -287,-110 -73,-67 -93,-147 -113,-147 -20,0 -40,80 -89,100 -50,20 -130,-20 -155,-93 -25,-72 5,-177 -10,-309 -15,-133 -75,-292 -200,-427 -125,-135 -315,-245 -510,-333 -194,-87 -394,-152 -594,-217"
   id="path7258"
   inkscape:connector-curvature="0"
   style="fill:none;stroke:#2b2a29;stroke-width:75" />
   <path
   class="fil0 str0"
   d="m 15737,13201 c -5,110 -10,220 -15,367 -5,148 -10,333 8,505 17,172 57,332 135,423 77,91 192,114 307,136"
   id="path7260"
   inkscape:connector-curvature="0"
   style="fill:none;stroke:#2b2a29;stroke-width:75" />
   <path
   class="fil0 str0"
   d="m 14089,12946 c 145,40 290,80 390,163 99,82 154,207 209,332"
   id="path7262"
   inkscape:connector-curvature="0"
   style="fill:none;stroke:#2b2a29;stroke-width:75" />
   <path
   class="fil0 str0"
   d="m 14793,12677 c 130,45 260,90 347,180 88,89 133,224 178,359"
   id="path7264"
   inkscape:connector-curvature="0"
   style="fill:none;stroke:#2b2a29;stroke-width:75" />
   <path
   class="fil0 str0"
   d="m 15692,12452 c 100,120 200,240 255,355 55,114 65,224 75,334"
   id="path7266"
   inkscape:connector-curvature="0"
   style="fill:none;stroke:#2b2a29;stroke-width:75" />
   <path
   class="fil0 str0"
   d="m 19409,14100 c 55,-60 110,-120 209,-169 100,-50 245,-90 390,-130"
   id="path7268"
   inkscape:connector-curvature="0"
   style="fill:none;stroke:#2b2a29;stroke-width:75" />
   <path
   class="fil0 str0"
   d="m 19079,13666 c 35,-105 70,-210 150,-290 80,-80 205,-135 330,-190"
   id="path7270"
   inkscape:connector-curvature="0"
   style="fill:none;stroke:#2b2a29;stroke-width:75" />
   <path
   class="fil0 str0"
   d="m 18629,13411 c 25,-85 50,-170 118,-280 67,-110 177,-244 287,-379"
   id="path7272"
   inkscape:connector-curvature="0"
   style="fill:none;stroke:#2b2a29;stroke-width:75" />
   <path
   class="fil0 str0"
   d="m 16134,14467 c -117,245 -234,490 -249,870 -15,379 72,894 261,1281 188,387 478,647 623,777 145,129 145,129 56,252 -89,122 -266,367 -265,519 2,153 181,213 360,160 178,-52 356,-217 484,-359 129,-143 209,-263 254,-368 45,-105 55,-194 -35,-279 -90,-85 -280,-165 -425,-315 -144,-150 -244,-370 -289,-618 -44,-247 -33,-523 62,-663 95,-140 274,-144 373,-56 99,88 119,268 197,457 78,189 214,388 344,543 129,156 251,268 285,374 34,107 -21,206 -85,359 -64,152 -136,357 -83,466 53,110 232,123 411,50 179,-73 359,-233 489,-368 130,-134 209,-244 155,-404 -55,-160 -245,-370 -361,-630 -115,-261 -156,-571 -206,-886 -50,-315 -109,-633 -168,-952"
   id="path7274"
   inkscape:connector-curvature="0"
   style="fill:none;stroke:#2b2a29;stroke-width:75" />
   <path
   class="fil0 str0"
   d="m 16842,17476 c 18,-63 35,-125 117,-183 81,-57 226,-109 370,-162"
   id="path7276"
   inkscape:connector-curvature="0"
   style="fill:none;stroke:#2b2a29;stroke-width:75" />
   <path
   class="fil0 str0"
   d="m 18094,16966 c 47,-105 95,-210 211,-264 116,-55 301,-60 486,-65"
   id="path7278"
   inkscape:connector-curvature="0"
   style="fill:none;stroke:#2b2a29;stroke-width:75" />
   <path
   class="fil0 str0"
   d="m 17359,15655 c 50,-177 100,-355 224,-538 124,-184 321,-374 518,-563"
   id="path7280"
   inkscape:connector-curvature="0"
   style="fill:none;stroke:#2b2a29;stroke-width:75" />
   <path
   class="fil0 str0"
   d="m 16022,14662 c 241,164 482,327 641,505 159,178 237,371 314,563"
   id="path7282"
   inkscape:connector-curvature="0"
   style="fill:none;stroke:#2b2a29;stroke-width:75" />
   <path
   class="fil0 str0"
   d="m 15872,15801 c 259,16 517,33 686,84 170,52 250,140 329,227"
   id="path7284"
   inkscape:connector-curvature="0"
   style="fill:none;stroke:#2b2a29;stroke-width:75" />
   <path
   class="fil0 str0"
   d="m 16052,16520 c 124,-43 247,-87 395,-88 148,0 321,42 493,85"
   id="path7286"
   inkscape:connector-curvature="0"
   style="fill:none;stroke:#2b2a29;stroke-width:75" />
   <path
   class="fil0 str0"
   d="m 16430,17049 c 100,-50 200,-100 316,-116 116,-17 249,1 381,18"
   id="path7288"
   inkscape:connector-curvature="0"
   style="fill:none;stroke:#2b2a29;stroke-width:75" />
   <path
   class="fil0 str0"
   d="m 17861,16622 c 35,-130 70,-260 187,-336 116,-76 313,-99 510,-121"
   id="path7290"
   inkscape:connector-curvature="0"
   style="fill:none;stroke:#2b2a29;stroke-width:75" />
   <path
   class="fil0 str0"
   d="m 17547,16165 c 120,-178 240,-355 387,-502 147,-148 322,-265 497,-383"
   id="path7292"
   inkscape:connector-curvature="0"
   style="fill:none;stroke:#2b2a29;stroke-width:75" />
   <path
   class="fil0 str0"
   d="m 2474,14738 c -32,-12 -65,-25 -151,-11 -87,13 -228,53 -404,147 -175,94 -386,244 -526,418 -140,174 -209,374 -233,621 -24,248 -2,543 44,783 48,243 216,421 332,618 13,22 90,230 104,251 273,417 490,511 1103,322 128,-40 325,-97 466,-169 140,-72 300,-143 492,-254 192,-111 415,-260 561,-470 146,-209 215,-480 230,-685 14,-206 -25,-347 -91,-490 -65,-144 -156,-291 -247,-438"
   id="path7294"
   inkscape:connector-curvature="0"
   style="fill:none;stroke:#2b2a29;stroke-width:75" />
   <path
   class="fil1 str0"
   d="m 1586,16266 c 15,186 73,314 200,458 126,143 320,302 590,413 271,110 618,172 911,-36 294,-208 535,-684 657,-1003 123,-319 128,-479 63,-636 -65,-157 -201,-310 -388,-427 -187,-118 -425,-199 -625,-217 -199,-18 -359,28 -528,110 -170,81 -349,198 -489,315 -141,116 -242,233 -308,413 -67,180 -97,424 -83,610 z"
   id="path7296"
   inkscape:connector-curvature="0"
   style="fill:#bc0035;stroke:#2b2a29;stroke-width:75" />
   <path
   class="fil2 str0"
   d="m 1864,17284 c 200,123 790,365 1016,343 257,-24 513,-103 718,-223 204,-121 357,-282 443,-402 86,-119 104,-196 146,-280 41,-84 104,-174 112,-392 8,-219 -39,-565 -150,-821 -111,-256 -286,-422 -496,-542 -209,-120 -454,-196 -727,-210 -272,-14 -574,34 -769,93 -196,59 -285,130 -390,224 -105,94 -226,210 -318,372 -92,161 -155,367 -163,569 -8,202 -7,419 78,571 71,126 360,613 500,698 z"
   id="path7298"
   inkscape:connector-curvature="0"
   style="fill:#000000;stroke:#2b2a29;stroke-width:75" />
   <path
   class="fil0 str0"
   d="m 2455,14758 c -1,-148 -3,-296 7,-369 9,-74 28,-75 98,-203 69,-129 189,-387 300,-667 110,-280 210,-583 312,-718 102,-136 205,-104 433,-39 228,66 582,166 840,276 257,111 419,232 500,337 81,105 82,195 12,356 -69,161 -209,393 -304,599 -94,207 -144,387 -194,551 -51,164 -101,312 -158,405 -57,94 -121,133 -185,172"
   id="path7300"
   inkscape:connector-curvature="0"
   style="fill:none;stroke:#2b2a29;stroke-width:75" />
   <path
   class="fil0 str0"
   d="m 2667,14775 c 57,-116 113,-232 168,-303 54,-71 105,-97 233,-69 129,28 335,110 515,183 181,72 335,135 428,173 94,38 126,50 142,98 17,48 17,132 -4,216 -22,83 -67,167 -111,251"
   id="path7302"
   inkscape:connector-curvature="0"
   style="fill:none;stroke:#2b2a29;stroke-width:75" />
   <path
   class="fil2 str0"
   d="m 3242,14068 c -61,-48 -81,-144 -40,-183 42,-38 145,-20 206,28 61,48 81,124 40,163 -42,39 -144,40 -206,-8 z"
   id="path7304"
   inkscape:connector-curvature="0"
   style="fill:#000000;stroke:#2b2a29;stroke-width:75" />
   <path
   class="fil2 str0"
   d="m 4031,14361 c -90,-25 -161,-89 -168,-143 -7,-55 51,-100 128,-104 77,-4 173,34 235,82 61,47 87,105 46,141 -42,35 -151,49 -241,24 z"
   id="path7306"
   inkscape:connector-curvature="0"
   style="fill:#000000;stroke:#2b2a29;stroke-width:75" />
   <path
   class="fil0 str0"
   d="m 4843,14703 c 89,-161 272,-479 348,-633 76,-155 139,-303 170,-409 31,-106 31,-171 -27,-202 -58,-32 -174,-31 -235,-18 -60,14 -67,39 -73,65"
   id="path7308"
   inkscape:connector-curvature="0"
   style="fill:none;stroke:#2b2a29;stroke-width:75" />
   <path
   class="fil3 str0"
   d="m 3872,16660 c -15,-63 -61,-136 -112,-132 -51,5 -108,87 -170,186 -62,100 -129,215 -240,303 -111,87 -267,146 -408,159 -108,10 -362,86 -300,131 79,57 232,108 379,101 148,-7 290,-72 409,-150 118,-79 213,-171 281,-245 67,-74 107,-129 134,-183 28,-54 42,-107 27,-170 z"
   id="path7310"
   inkscape:connector-curvature="0"
   style="fill:#ffffff;stroke:#2b2a29;stroke-width:75" />
   <path
   class="fil3 str0"
   d="m 3930,16213 c 22,79 -11,163 -56,190 -44,26 -100,-5 -132,-67 -31,-62 -38,-155 -32,-217 6,-63 25,-97 73,-77 48,19 125,92 147,171 z"
   id="path7312"
   inkscape:connector-curvature="0"
   style="fill:#ffffff;stroke:#2b2a29;stroke-width:75" />
   <path
   class="fil3 str0"
   d="m 1705,17410 c 31,-27 637,281 714,324 99,55 94,83 37,98 -56,15 -164,16 -255,7 -91,-9 -166,-28 -236,-61 -71,-33 -137,-79 -191,-158 -53,-78 -94,-187 -69,-210 z"
   id="path7314"
   inkscape:connector-curvature="0"
   style="fill:#ffffff;stroke:#2b2a29;stroke-width:75" />
   <path
   class="fil2 str0"
   d="m 3303,13644 c -7,-54 51,-99 128,-103 77,-4 72,26 133,73 121,94 -229,285 -261,30 z"
   id="path7316"
   inkscape:connector-curvature="0"
   style="fill:#000000;stroke:#2b2a29;stroke-width:75" />
   <path
   class="fil0 str0"
   d="m 2398,14725 c -206,-104 -412,-207 -666,-381 -253,-173 -554,-416 -788,-625 -235,-209 -402,-383 -492,-534 -91,-152 -104,-281 -85,-375 19,-95 70,-155 169,-175 99,-20 247,1 340,49 94,48 134,123 177,124 43,1 88,-72 140,-103 53,-30 112,-17 124,55 11,72 -24,203 23,326 48,124 179,241 367,383 188,142 433,309 599,405 167,95 254,119 341,143"
   id="path7318"
   inkscape:connector-curvature="0"
   style="fill:none;stroke:#2b2a29;stroke-width:75" />
   <path
   class="fil0 str0"
   d="m 4214,15430 c 267,31 535,62 782,61 248,-1 476,-34 740,-136 263,-102 563,-273 789,-471 226,-198 380,-421 446,-581 66,-159 44,-253 -35,-298 -79,-45 -215,-40 -307,-4 -92,36 -141,103 -159,95 -19,-7 -8,-89 -47,-126 -39,-37 -128,-29 -178,29 -50,58 -61,166 -123,284 -63,117 -178,244 -344,323 -166,79 -383,111 -596,120 -213,10 -423,-4 -633,-17"
   id="path7320"
   inkscape:connector-curvature="0"
   style="fill:none;stroke:#2b2a29;stroke-width:75" />
   <path
   class="fil0 str0"
   d="m 2344,13848 c 35,-104 71,-208 121,-347 50,-138 114,-312 194,-466 79,-153 176,-287 281,-343 106,-56 221,-35 336,-13"
   id="path7322"
   inkscape:connector-curvature="0"
   style="fill:none;stroke:#2b2a29;stroke-width:75" />
   <path
   class="fil0 str0"
   d="m 1272,13987 c 138,6 275,12 390,-39 114,-51 206,-160 297,-269"
   id="path7324"
   inkscape:connector-curvature="0"
   style="fill:none;stroke:#2b2a29;stroke-width:75" />
   <path
   class="fil0 str0"
   d="m 2025,14528 c 137,-75 274,-149 368,-236 93,-86 143,-185 193,-283"
   id="path7326"
   inkscape:connector-curvature="0"
   style="fill:none;stroke:#2b2a29;stroke-width:75" />
   <path
   class="fil0 str0"
   d="m 6087,14369 c 29,76 58,152 133,235 74,83 194,174 314,265"
   id="path7328"
   inkscape:connector-curvature="0"
   style="fill:none;stroke:#2b2a29;stroke-width:75" />
   <path
   class="fil0 str0"
   d="m 5620,14651 c -6,110 -12,221 33,324 44,104 140,201 236,299"
   id="path7330"
   inkscape:connector-curvature="0"
   style="fill:none;stroke:#2b2a29;stroke-width:75" />
   <path
   class="fil0 str0"
   d="m 5109,14722 c -9,88 -17,176 5,303 22,127 75,293 127,459"
   id="path7332"
   inkscape:connector-curvature="0"
   style="fill:none;stroke:#2b2a29;stroke-width:75" />
   <path
   class="fil0 str0"
   d="m 5053,13404 c 190,-426 380,-851 450,-1271 70,-419 20,-833 -115,-1195 -135,-362 -355,-671 -470,-896 -115,-225 -125,-365 -75,-515 51,-151 161,-312 127,-425 -34,-113 -211,-178 -392,-131 -180,47 -362,207 -494,345 -133,139 -217,256 -265,360 -48,103 -60,193 27,280 87,88 275,173 415,327 140,154 234,377 271,626 37,249 17,525 -82,662 -99,137 -277,135 -374,44 -97,-91 -111,-271 -184,-462 -72,-192 -202,-394 -327,-553 -124,-160 -243,-276 -274,-383 -31,-107 27,-205 96,-355 68,-151 146,-353 96,-464 -49,-111 -228,-130 -409,-62 -181,67 -366,222 -499,353 -134,131 -217,238 -167,400 50,161 234,376 341,640 108,264 140,576 147,925 6,349 -12,734 -31,1120"
   id="path7334"
   inkscape:connector-curvature="0"
   style="fill:none;stroke:#2b2a29;stroke-width:75" />
   <path
   class="fil0 str0"
   d="m 4064,11635 c -160,130 -320,260 -465,440 -145,180 -274,409 -404,639"
   id="path7336"
   inkscape:connector-curvature="0"
   style="fill:none;stroke:#2b2a29;stroke-width:75" />
   <path
   class="fil0 str0"
   d="m 4483,11605 c 160,380 320,760 415,1069 95,310 125,550 155,789"
   id="path7338"
   inkscape:connector-curvature="0"
   style="fill:none;stroke:#2b2a29;stroke-width:75" />
   <path
   class="fil0 str0"
   d="m 2595,10466 c 140,-20 280,-40 400,-94 120,-55 220,-145 320,-235"
   id="path7340"
   inkscape:connector-curvature="0"
   style="fill:none;stroke:#2b2a29;stroke-width:75" />
   <path
   class="fil0 str0"
   d="m 4244,10317 c 139,10 279,20 404,-10 125,-30 235,-100 345,-170"
   id="path7342"
   inkscape:connector-curvature="0"
   style="fill:none;stroke:#2b2a29;stroke-width:75" />
   <path
   class="fil0 str0"
   d="m 2865,11126 c 160,20 320,40 460,-10 139,-50 259,-170 379,-290"
   id="path7344"
   inkscape:connector-curvature="0"
   style="fill:none;stroke:#2b2a29;stroke-width:75" />
   <path
   class="fil0 str0"
   d="m 4543,11036 c 140,70 280,140 425,145 145,5 295,-55 444,-115"
   id="path7346"
   inkscape:connector-curvature="0"
   style="fill:none;stroke:#2b2a29;stroke-width:75" />
   <path
   class="fil0 str0"
   d="m 4543,11395 c 210,240 420,480 585,615 165,135 284,165 404,195"
   id="path7348"
   inkscape:connector-curvature="0"
   style="fill:none;stroke:#2b2a29;stroke-width:75" />
   <path
   class="fil0 str0"
   d="m 3914,11395 c -150,150 -300,300 -475,400 -174,100 -374,150 -574,200"
   id="path7350"
   inkscape:connector-curvature="0"
   style="fill:none;stroke:#2b2a29;stroke-width:75" />
   <path
   class="fil2 str0"
   d="m 4082,13854 c -7,-54 51,-100 128,-103 77,-4 72,25 133,73 121,94 -229,284 -261,30 z"
   id="path7352"
   inkscape:connector-curvature="0"
   style="fill:#000000;stroke:#2b2a29;stroke-width:75" />
   <path
   class="fil0 str0"
   d="m 512,21720 c 592,-322 1184,-644 1630,-1100 446,-456 745,-1045 1369,-1314 623,-268 1569,-216 2442,-239 873,-24 1672,-124 2472,-224"
   id="path7354"
   inkscape:connector-curvature="0"
   style="fill:none;stroke:#2b2a29;stroke-width:75" />
   <path
   class="fil0 str0"
   d="m 12740,18543 c 760,80 1519,160 2118,420 600,260 1039,699 1459,919 419,220 819,220 1219,220"
   id="path7356"
   inkscape:connector-curvature="0"
   style="fill:none;stroke:#2b2a29;stroke-width:75" />
   <path
   class="fil0 str0"
   d="m 18854,21301 c 180,499 360,999 590,1388 229,390 509,670 789,949"
   id="path7358"
   inkscape:connector-curvature="0"
   style="fill:none;stroke:#2b2a29;stroke-width:75" />
   <path
   class="fil4 str0"
   d="m 18714,20751 c -239,-309 -619,-629 -849,-749 -230,-120 -309,-40 -329,180 -20,220 20,579 299,849 280,270 799,450 1009,390 210,-60 110,-360 -130,-670 z"
   id="path7360"
   inkscape:connector-curvature="0"
   style="fill:#20b9fd;stroke:#2b2a29;stroke-width:75" />
   <path
   class="fil4 str0"
   d="m 3659,22320 c 190,140 650,220 989,170 340,-50 560,-230 660,-420 99,-190 80,-390 -60,-460 -140,-69 -400,-10 -690,40 -289,50 -609,90 -809,210 -200,120 -280,320 -90,460 z"
   id="path7362"
   inkscape:connector-curvature="0"
   style="fill:#20b9fd;stroke:#2b2a29;stroke-width:75" />
   <path
   class="fil0 str0"
   d="m 3547,22132 c -80,210 -160,420 -262,595 -103,175 -228,315 -502,429 -275,115 -700,205 -1124,295"
   id="path7364"
   inkscape:connector-curvature="0"
   style="fill:none;stroke:#2b2a29;stroke-width:75" />
   <path
   class="fil0 str0"
   d="m 5315,21653 c 240,170 480,340 859,504 380,165 899,325 1256,370 358,45 552,-25 747,-95"
   id="path7366"
   inkscape:connector-curvature="0"
   style="fill:none;stroke:#2b2a29;stroke-width:75" />
   <path
   class="fil0 str0"
   d="m 9675,24006 c -120,-202 -180,-457 -75,-659 105,-203 375,-352 682,-472 307,-120 652,-210 876,-143 225,68 330,293 435,540 105,247 210,517 142,741 -67,225 -307,405 -524,442 -217,38 -412,-67 -585,-82 -172,-15 -322,60 -486,22 -165,-37 -345,-187 -465,-389 z"
   id="path7368"
   inkscape:connector-curvature="0"
   style="fill:none;stroke:#2b2a29;stroke-width:75" />
   <path
   class="fil0 str0"
   d="m 8859,12594 c 100,-239 200,-479 420,-609 219,-130 559,-150 899,-170"
   id="path7370"
   inkscape:connector-curvature="0"
   style="fill:none;stroke:#2b2a29;stroke-width:75" />
   <path
   class="fil0 str0"
   d="m 13534,12714 c -39,-220 -79,-439 -89,-599 -10,-160 10,-260 30,-360"
   id="path7372"
   inkscape:connector-curvature="0"
   style="fill:none;stroke:#2b2a29;stroke-width:75" />
   <path
   class="fil0 str0"
   d="m 12156,12714 c 220,-20 439,-40 609,-20 170,20 290,80 410,140"
   id="path7374"
   inkscape:connector-curvature="0"
   style="fill:none;stroke:#2b2a29;stroke-width:75" />
   <path
   class="fil0 str0"
   d="m 12575,11815 c 200,260 400,520 600,779"
   id="path7376"
   inkscape:connector-curvature="0"
   style="fill:none;stroke:#2b2a29;stroke-width:75" />
   <path
   class="fil0 str0"
   d="m 6521,13254 c -80,-200 -159,-400 -269,-540 -110,-140 -250,-220 -390,-300"
   id="path7378"
   inkscape:connector-curvature="0"
   style="fill:none;stroke:#2b2a29;stroke-width:75" />
   <path
   class="fil0 str0"
   d="m 7301,13254 c 80,-180 159,-360 239,-460 80,-100 160,-120 240,-140"
   id="path7380"
   inkscape:connector-curvature="0"
   style="fill:none;stroke:#2b2a29;stroke-width:75" />
   <path
   class="fil0 str0"
   d="m 6821,13254 c 20,-440 40,-879 60,-1319"
   id="path7382"
   inkscape:connector-curvature="0"
   style="fill:none;stroke:#2b2a29;stroke-width:75" />
   <path
   class="fil0 str0"
   d="m 6282,22664 c 379,120 759,240 989,290 229,50 309,30 389,10"
   id="path7384"
   inkscape:connector-curvature="0"
   style="fill:none;stroke:#2b2a29;stroke-width:75" />
   <path
   class="fil0 str0"
   d="m 11721,22844 c 154,154 307,307 402,508 94,201 130,449 59,649 -71,201 -248,355 -425,508"
   id="path7386"
   inkscape:connector-curvature="0"
   style="fill:none;stroke:#2b2a29;stroke-width:75" />
   <path
   class="fil0 str0"
   d="m 14668,25933 c 37,-517 73,-1034 142,-1769 70,-735 172,-1687 282,-2259 110,-572 227,-764 466,-851 239,-87 601,-68 948,39 347,108 680,304 993,499 313,194 607,386 747,541 140,154 127,271 100,533 -26,261 -65,668 -122,1025 -58,357 -133,664 -214,722 -82,57 -171,-135 -300,-286 -129,-152 -299,-264 -444,-379 -145,-116 -264,-235 -442,-289 -179,-54 -418,-42 -622,-90 -204,-47 -373,-154 -573,-165 -200,-11 -431,72 -574,143 -142,70 -196,127 -201,166 -4,39 41,60 63,71 23,10 23,10 11,5 -11,-5 -33,-16 -56,-26"
   id="path7388"
   inkscape:connector-curvature="0"
   style="fill:none;stroke:#2b2a29;stroke-width:75" />
   <path
   class="fil0 str0"
   d="m 4528,19113 c 100,240 200,479 480,649 280,170 739,270 1249,180 509,-90 1069,-370 1348,-579 280,-210 280,-350 280,-490"
   id="path7390"
   inkscape:connector-curvature="0"
   style="fill:none;stroke:#2b2a29;stroke-width:75" />
   <path
   class="fil0 str1"
   d="m 16217,21451 c 93,170 185,340 332,432 147,93 348,108 471,47 124,-62 170,-201 0,-232 -170,-31 -556,46 -687,170 -132,123 -8,293 162,456 170,162 386,316 518,324 131,8 177,-131 85,-193 -93,-62 -325,-46 -472,31 -146,77 -208,216 -185,363 23,147 131,301 201,378 69,78 100,78 116,78 15,0 15,0 15,0"
   id="path7392"
   inkscape:connector-curvature="0"
   style="fill:none;stroke:#20b9fd;stroke-width:75" />
   <path
   class="fil0 str0"
   d="m 718,13476 c 149,16 298,33 422,-7 123,-40 220,-135 317,-231"
   id="path7394"
   inkscape:connector-curvature="0"
   style="fill:none;stroke:#2b2a29;stroke-width:75" />
  </g>
 </g>
</svg>