<?xml version="1.0" encoding="UTF-8"?>
<!DOCTYPE svg PUBLIC "-//W3C//DTD SVG 1.1//EN" "http://www.w3.org/Graphics/SVG/1.1/DTD/svg11.dtd">
<!-- Creator: CorelDRAW X7 -->
<svg xmlns="http://www.w3.org/2000/svg" xml:space="preserve" width="210mm" height="297mm" version="1.1" style="shape-rendering:geometricPrecision; text-rendering:geometricPrecision; image-rendering:optimizeQuality; fill-rule:evenodd; clip-rule:evenodd"
viewBox="0 0 21000 29700"
 xmlns:xlink="http://www.w3.org/1999/xlink">
 <defs>
  <style type="text/css">
   <![CDATA[
    .str2 {stroke:#2B2A29;stroke-width:75}
    .str0 {stroke:#2B2A29;stroke-width:20}
    .str1 {stroke:#2B2A29;stroke-width:75;stroke-linecap:round;stroke-linejoin:round}
    .str3 {stroke:#2B2A29;stroke-width:75;stroke-linecap:round;stroke-linejoin:round}
    .str4 {stroke:#FEEC0C;stroke-width:75;stroke-linecap:round;stroke-linejoin:round}
    .fil0 {fill:none}
    .fil2 {fill:black}
    .fil4 {fill:#1EBAFB}
    .fil5 {fill:#20B9FD}
    .fil1 {fill:#BC0035}
    .fil6 {fill:#FEEC0C}
    .fil3 {fill:white}
   ]]>
  </style>
 </defs>
 <g id="Слой_x0020_1">
  <metadata id="CorelCorpID_0Corel-Layer"/>
  <g id="_2686058258896">
   <path class="fil0 str0" d="M16948 1905c-115,194 -157,348 -152,495 6,146 59,284 131,452 71,167 162,364 369,510 208,147 532,242 817,287 284,46 529,40 765,-39 237,-80 466,-234 601,-429 136,-194 179,-428 157,-694 -21,-265 -106,-563 -314,-808 -153,-180 -372,-332 -611,-425 -85,-33 -173,-58 -261,-75 -335,-64 -675,0 -938,149 -264,149 -450,383 -564,577z"/>
   <path class="fil0 str1" d="M16948 1905c114,-194 300,-428 564,-577 263,-149 603,-213 938,-149 335,64 665,255 872,500 208,245 293,543 314,808 22,266 -21,500 -157,694 -135,195 -364,349 -601,429 -236,79 -481,85 -765,39 -285,-45 -609,-140 -817,-287 -207,-146 -298,-343 -369,-510 -72,-168 -125,-306 -131,-452 -5,-147 37,-301 152,-495zm-140 375c80,-37 180,-106 275,-117 96,-11 208,5 285,59 77,53 120,143 189,170 69,26 165,-11 247,5 83,16 152,85 162,154 11,69 -37,139 -16,216 22,77 112,162 165,244 53,83 69,162 56,216 -13,53 -56,79 -72,143 -16,64 -5,165 14,226 18,61 5,19 31,40m599 -2393c-91,32 -181,64 -232,149 -50,85 -61,223 -16,298 46,74 147,85 181,141 35,55 3,157 -69,239 -72,82 -183,146 -223,210 -40,64 -8,128 93,168 101,39 271,55 393,95 123,40 197,104 221,200 24,95 -3,223 -16,324 -13,101 -13,176 3,245 16,69 24,109 56,173m-519 -2657c213,80 426,160 575,271 148,112 234,256 273,319 40,64 35,48 30,32m127 319c43,91 85,181 128,272m-3127 941c90,149 181,298 311,415 130,117 300,202 471,287m-814 -239c37,90 74,181 133,234 58,53 138,69 218,85"/>
  </g>
  <path class="fil0 str2" d="M2468 22219c-35,0 -70,0 -145,-45 -75,-44 -192,-133 -320,-286 -129,-153 -270,-369 -335,-583 -66,-214 -56,-424 13,-663 69,-239 198,-505 330,-711 132,-206 268,-352 434,-456 166,-103 362,-163 501,-222 139,-59 221,-116 321,-122 101,-7 220,36 341,86 121,50 243,107 348,191 104,84 191,195 295,313 104,119 226,245 364,418 137,174 290,395 348,644 58,249 22,525 -40,722 -63,196 -151,313 -265,422 -114,110 -253,213 -392,316"/>
  <path class="fil1 str2" d="M2207 20471c82,-167 184,-265 355,-351 170,-87 409,-163 701,-166 292,-3 637,68 833,370 197,301 244,833 240,1175 -3,341 -58,492 -176,614 -119,121 -302,214 -519,253 -217,40 -469,28 -660,-29 -192,-57 -324,-159 -451,-297 -127,-138 -251,-313 -338,-473 -87,-161 -139,-306 -134,-498 5,-192 67,-430 149,-598z"/>
  <path class="fil2 str2" d="M2403 19750c102,-79 223,-121 356,-167 133,-46 279,-98 476,-90 198,7 448,74 678,192 229,117 438,285 584,472 145,188 228,394 263,537 36,143 25,221 32,314 7,93 33,201 -40,407 -74,205 -246,510 -443,706 -198,197 -421,287 -661,321 -239,35 -494,14 -753,-74 -258,-87 -521,-242 -681,-370 -159,-127 -216,-226 -279,-352 -63,-126 -133,-279 -159,-463 -26,-184 -8,-398 59,-589 68,-191 184,-359 284,-502 100,-143 182,-262 284,-342z"/>
  <path class="fil0 str2" d="M2457 22194c-56,137 -111,274 -130,346 -19,72 -1,79 16,224 17,146 34,430 33,731 -1,301 -20,619 25,782 44,164 151,173 388,196 236,23 602,61 882,54 280,-8 475,-60 589,-128 114,-68 148,-152 143,-327 -5,-175 -49,-442 -61,-669 -11,-226 9,-412 23,-583 14,-171 22,-327 3,-435 -18,-108 -63,-168 -108,-228"/>
  <path class="fil0 str2" d="M2660 22256c11,129 21,257 45,343 24,86 61,129 191,151 130,22 352,21 546,21 194,-1 361,-3 462,-3 101,-1 135,-1 168,-39 33,-39 65,-116 75,-202 11,-86 1,-180 -9,-274"/>
  <path class="fil2 str2" d="M2934 23126c-74,21 -128,103 -104,155 24,51 126,72 201,50 75,-21 121,-86 97,-137 -24,-51 -119,-90 -194,-68z"/>
  <path class="fil2 str2" d="M3775 23145c-93,-10 -182,23 -209,71 -26,48 10,112 80,144 71,31 174,32 249,10 75,-21 120,-65 95,-114 -26,-48 -122,-101 -215,-111z"/>
  <path class="fil0 str2" d="M4633 23148c23,183 99,524 112,696 14,172 18,333 8,443 -11,110 -35,170 -100,178 -66,8 -173,-36 -225,-71 -51,-35 -48,-61 -44,-87"/>
  <path class="fil3 str2" d="M3206 20077c56,33 113,97 94,145 -20,47 -115,78 -228,108 -113,31 -243,61 -359,142 -116,81 -218,213 -271,344 -54,131 -58,261 -90,313 -32,53 -91,29 -123,-63 -31,-93 -35,-254 14,-393 50,-139 153,-257 263,-347 109,-91 225,-155 315,-198 91,-43 155,-65 215,-76 59,-10 114,-9 170,25z"/>
  <path class="fil3 str2" d="M2403 21542c32,75 110,121 162,114 51,-7 75,-67 61,-135 -14,-68 -66,-144 -110,-190 -43,-45 -79,-60 -104,-15 -26,45 -41,150 -9,226z"/>
  <path class="fil3 str2" d="M3015 19353c6,33 117,40 277,76 161,36 370,100 482,119 112,20 125,-6 91,-53 -35,-47 -118,-115 -194,-165 -77,-50 -147,-82 -223,-101 -75,-18 -157,-24 -247,4 -91,27 -191,86 -186,120z"/>
  <path class="fil0 str2" d="M1508 20128c49,-255 99,-510 287,-682 189,-171 518,-260 846,-348"/>
  <path class="fil0 str2" d="M4625 23183c234,8 467,17 735,-43 268,-60 569,-190 781,-281 213,-91 336,-144 433,-211 97,-68 168,-150 238,-233"/>
  <path class="fil0 str2" d="M4272 22213c171,2 341,5 565,10 223,4 499,10 785,-31 285,-41 579,-129 767,-223 188,-94 270,-194 356,-283 85,-88 173,-164 288,-185 114,-20 256,15 311,80 56,64 27,158 -29,223 -56,65 -138,100 -197,147 -59,47 -94,106 -79,144 14,38 79,56 138,106 59,50 112,132 73,188 -38,56 -167,85 -261,82 -94,-3 -153,-38 -212,-73"/>
  <path class="fil0 str2" d="M6345 21974c20,144 41,289 106,375 64,87 173,116 282,146"/>
  <path class="fil0 str2" d="M5789 22160c-94,147 -188,294 -147,417 41,124 218,224 394,323"/>
  <path class="fil0 str2" d="M4892 22212c-31,152 -62,303 -44,420 19,117 86,199 167,282 81,83 175,166 269,249"/>
  <path class="fil0 str2" d="M2438 22265c-182,100 -365,200 -498,334 -134,134 -219,301 -300,472 -81,170 -158,344 -219,616 -62,272 -109,642 -183,848 -73,206 -173,247 -255,344 -83,97 -147,250 -141,382 5,132 82,244 188,294 105,50 241,38 329,-38 88,-77 129,-218 159,-312 29,-94 47,-141 76,-123 29,17 71,100 135,147 65,47 153,59 183,14 29,-44 0,-144 -18,-285 -18,-141 -24,-323 29,-548 53,-225 165,-492 248,-727 84,-234 139,-436 194,-637"/>
  <path class="fil0 str2" d="M1232 24492c91,-35 182,-70 294,-47 111,24 244,106 376,188"/>
  <path class="fil0 str2" d="M1355 23954c141,-88 282,-176 400,-160 118,16 212,137 306,257"/>
  <path class="fil0 str2" d="M1540 23231c121,-53 241,-106 359,-70 118,35 232,158 347,282"/>
  <path class="fil0 str2" d="M2184 23690c-6,241 -12,482 0,636 12,155 41,222 91,219 50,-3 121,-76 191,-150"/>
  <path class="fil0 str2" d="M4618 23169c-35,-155 -70,-311 -117,-466 -47,-154 -106,-307 -165,-460"/>
  <path class="fil0 str2" d="M4345 24333c112,212 223,424 318,818 94,394 170,970 210,1295 39,325 42,398 132,442 90,44 266,59 441,113 175,55 348,149 397,253 48,105 -28,219 -222,269 -194,50 -506,35 -729,40 -224,4 -359,28 -468,-81 -108,-109 -191,-350 -252,-573 -62,-224 -103,-429 -133,-668 -29,-238 -47,-508 -147,-652 -100,-144 -282,-162 -394,-68 -111,94 -153,300 -173,626 -21,327 -21,774 -53,1059 -32,285 -97,408 -209,473 -111,65 -270,71 -417,76 -147,6 -282,12 -435,8 -153,-5 -324,-19 -365,-113 -41,-94 47,-268 171,-363 123,-96 282,-114 399,-134 118,-21 195,-44 218,-144 24,-100 -6,-277 -41,-500 -35,-223 -77,-494 -112,-782 -35,-288 -65,-594 -70,-817 -6,-224 11,-365 29,-506"/>
  <path class="fil0 str2" d="M3260 24528c-56,147 -112,294 -132,470 -21,176 -6,382 35,523 41,141 149,218 216,294"/>
  <path class="fil0 str2" d="M3763 24519c126,185 253,370 294,576 41,206 -43,459 -87,685"/>
  <path class="fil0 str2" d="M4230 27165c42,-92 83,-183 166,-250 84,-68 211,-112 315,-116 104,-5 187,30 269,66"/>
  <path class="fil0 str2" d="M4107 26640c65,-69 129,-138 225,-192 95,-54 222,-92 317,-99 96,-8 160,16 225,39"/>
  <path class="fil0 str2" d="M4045 26221c74,-132 147,-265 271,-356 123,-91 297,-141 470,-191"/>
  <path class="fil0 str2" d="M2608 27076c76,-53 152,-105 269,-98 116,7 271,75 427,142"/>
  <path class="fil0 str2" d="M2599 26618c123,-97 247,-194 367,-221 121,-26 238,18 356,62"/>
  <path class="fil0 str2" d="M2493 25947c165,-58 329,-117 470,-88 141,30 259,147 377,265"/>
  <g id="_2685810363296">
   <path class="fil4 str2" d="M9219 21941c-106,-134 -326,-445 -436,-600 -110,-156 -110,-156 -253,-266 -143,-109 -429,-329 -569,-441 -139,-112 -132,-115 248,-234 380,-118 1134,-352 1515,-471 380,-119 387,-122 256,241 -131,363 -400,1092 -530,1478 -131,385 -124,427 -231,293z"/>
   <path class="fil0 str2" d="M8623 21157c4,209 7,418 9,523 2,105 2,105 47,60 46,-45 136,-135 183,-182 48,-47 51,-52 55,-56"/>
   <path class="fil0 str2" d="M8605 21166c478,-433 956,-866 1434,-1298"/>
  </g>
  <path class="fil0 str1" d="M6915 5917c341,204 1014,617 1342,827 327,209 310,215 62,329 -248,114 -726,335 -974,449 -248,114 -265,120 -619,-105 -353,-224 -1043,-679 -1414,-912 -371,-233 -424,-244 -164,-337 260,-94 831,-269 1123,-360 291,-90 302,-95 644,109z"/>
  <path class="fil0 str1" d="M5764 5915c758,427 1516,853 2273,1279"/>
  <path class="fil0 str1" d="M5407 6562c587,-186 1093,-351 1681,-537"/>
  <path class="fil0 str1" d="M6330 7136c592,-202 847,-289 1659,-567"/>
  <path class="fil0 str1" d="M5766 5918c-120,-61 -204,-133 -260,-179 -306,-254 208,-712 275,-867"/>
  <path class="fil0 str1" d="M7807 7331c321,187 643,374 964,561"/>
  <path class="fil0 str1" d="M10276 8457c1325,777 2577,1513 3901,2291"/>
  <path class="fil0 str1" d="M11124 9960c394,-328 787,-657 1180,-986"/>
  <path class="fil0 str1" d="M13620 11319c-830,-455 -1660,-905 -2491,-1360"/>
  <path class="fil0 str1" d="M14730 10129c-790,-377 -1630,-771 -2419,-1148"/>
  <path class="fil0 str1" d="M13630 11321c371,-394 742,-788 1112,-1182"/>
  <path class="fil0 str1" d="M12802 10860c409,-324 804,-730 1214,-1054"/>
  <path class="fil0 str1" d="M11771 10298c463,-323 788,-648 1251,-971"/>
  <path class="fil0 str1" d="M8626 9260c-7,-218 27,-531 71,-874 43,-343 96,-716 255,-974 160,-259 426,-403 619,-457 193,-54 313,-17 502,67 189,84 447,214 617,356 170,141 251,293 219,576 -33,283 -178,697 -296,1049 -118,351 -209,639 -337,814 -127,175 -291,236 -505,243 -214,7 -477,-39 -659,-103 -183,-64 -284,-146 -358,-250 -74,-103 -121,-228 -128,-447z"/>
  <path class="fil0 str1" d="M8929 7459c556,411 845,515 1203,505 212,-5 444,-34 776,-82"/>
  <path class="fil0 str1" d="M9237 7120c243,131 487,262 747,309 259,48 469,24 743,-11"/>
  <path class="fil0 str3" d="M9129 7235c170,102 322,159 571,259 248,101 504,137 701,145 197,8 394,-22 418,-42"/>
  <path class="fil0 str1" d="M8646 9319c315,140 630,281 929,329 298,49 514,15 796,-28"/>
  <path class="fil0 str1" d="M9196 9997c-190,882 -406,1809 -498,2257 -93,447 -89,460 54,30 142,-430 474,-1352 755,-2225"/>
  <path class="fil0 str1" d="M8508 13057c98,32 180,14 215,-74 36,-87 26,-244 -14,-320 -41,-76 -112,-71 -206,-25 -93,47 -209,135 -209,220 0,85 116,167 214,199z"/>
  <path class="fil0 str1" d="M10186 9923c91,280 204,604 226,776 22,172 -24,236 -32,346 -9,110 20,266 130,311 110,45 301,-21 408,-94 106,-72 127,-152 99,-271 -29,-120 -179,-177 -268,-251 -100,-85 -398,-765 -441,-909"/>
  <path class="fil0 str1" d="M8582 8962c-168,-29 -336,-58 -504,-87 -33,-5 -34,-15 -67,-21"/>
  <path class="fil0 str1" d="M7598 8506c-43,136 -46,385 -37,559 8,175 28,275 107,321 79,46 217,38 282,-48 66,-86 59,-248 49,-420 -10,-171 -23,-352 -55,-453 -32,-100 -83,-122 -151,-121 -67,2 -151,25 -195,162z"/>
  <path class="fil3 str3" d="M9951 6913c-59,134 -87,236 -58,287 30,51 117,50 191,-38 74,-89 136,-265 182,-386 46,-120 78,-184 109,-256 32,-71 14,-133 11,-191 -2,-57 -23,-98 -70,-73 -48,26 -71,102 -144,229 -74,127 -163,294 -221,428z"/>
  <path class="fil0 str1" d="M10322 6128c-58,-170 -128,-360 -100,-556 27,-197 152,-400 324,-444 172,-44 391,71 529,196 138,126 194,262 317,487 123,226 313,540 428,821 116,281 157,530 108,685 -49,155 -188,217 -406,136 -217,-81 -512,-306 -700,-473 -189,-166 -269,-275 -333,-404 -63,-129 -109,-278 -167,-448z"/>
  <path class="fil0 str1" d="M10532 5138c-169,278 -128,505 -58,790 71,284 287,555 473,864 185,309 397,521 757,674"/>
  <path class="fil3 str1" d="M11304 5985c-215,56 -284,12 -349,0 -64,-12 -125,9 -129,75 -4,67 49,180 110,281 61,101 130,189 178,199 47,11 73,-56 93,-124 21,-68 36,-136 133,-203 97,-66 276,-131 462,-211 186,-81 380,-177 508,-207 128,-30 189,8 237,-13 48,-20 82,-99 52,-185 -29,-87 -122,-181 -187,-196 -65,-15 -101,49 -125,99 -24,49 -35,83 -221,178 -186,96 -547,252 -762,307z"/>
  <path class="fil5 str1" d="M2280 2474c-23,49 -84,162 -55,237 29,75 149,112 258,79 109,-34 207,-138 251,-227 45,-89 37,-164 -30,-206 -66,-42 -191,-50 -272,-28 -81,21 -119,73 -131,92 -12,18 2,4 -21,53z"/>
  <path class="fil0 str4" d="M12661 5235c83,41 165,82 211,153 45,72 52,175 51,231 -2,55 -13,63 -24,72"/>
  <path class="fil0 str4" d="M12539 4919c182,7 363,14 530,119 167,104 320,307 351,486 32,180 -58,337 -148,494"/>
  <path class="fil0 str4" d="M12401 4554c305,-8 609,-16 894,105 284,121 548,370 662,625 115,254 80,514 0,718 -79,203 -203,351 -327,499"/>
  <path class="fil0 str2" d="M6876 11199c55,68 111,136 234,121 123,-14 315,-112 491,-309 175,-198 335,-495 434,-738 98,-242 135,-429 223,-594 88,-166 227,-310 366,-453"/>
  <path class="fil0 str2" d="M6590 11227c91,139 182,278 369,308 188,30 473,-49 678,-197 204,-148 327,-364 436,-557 108,-193 202,-363 263,-526 61,-163 90,-320 151,-416 61,-97 154,-133 248,-169"/>
  <path class="fil0 str1" d="M7470 11429c-44,-17 -89,-34 -113,-67 -24,-33 -27,-82 -30,-132"/>
  <path class="fil0 str2" d="M7865 11095c-79,9 -159,17 -203,3 -44,-15 -52,-54 -61,-92"/>
  <path class="fil0 str2" d="M8146 10665c-76,16 -151,31 -199,23 -49,-8 -71,-40 -93,-71"/>
  <path class="fil0 str2" d="M8351 10210c-58,14 -116,28 -163,15 -46,-14 -81,-55 -115,-96"/>
  <path class="fil0 str2" d="M8566 9761c-84,-5 -169,-11 -208,-45 -40,-34 -35,-96 -30,-159"/>
  <path class="fil0 str2" d="M-27 27650c506,-211 1011,-423 1452,-570 441,-147 818,-229 1194,-312"/>
  <path class="fil0 str2" d="M3324 26698c271,11 541,23 812,35"/>
  <path class="fil0 str2" d="M4912 26627c705,212 1411,423 2111,453 699,29 1393,-124 1844,-297 452,-173 660,-368 869,-562"/>
  <path class="fil6 str2" d="M12323 26410c-397,-6 -1055,17 -1549,-6 -494,-24 -823,-94 -970,-162 -147,-68 -112,-132 261,-170 374,-39 1085,-50 1667,-33 582,18 1035,65 1309,138 273,74 367,174 329,230 -38,56 -209,67 -362,56 -153,-12 -288,-48 -685,-53z"/>
  <path class="fil0 str2" d="M13370 26389c103,285 206,570 707,786 501,217 1401,363 2097,416 697,53 1191,12 1767,30 576,17 1235,94 1685,209 449,114 691,267 932,420"/>
  <path class="fil0 str2" d="M14261 29097c811,164 1622,329 2213,314 591,-15 962,-209 1153,-379 191,-171 202,-318 214,-465"/>
  <path class="fil6 str2" d="M2842 29214c418,18 970,30 1253,-88 282,-118 294,-365 -89,-482 -382,-118 -1158,-106 -1581,0 -424,106 -494,306 -388,417 106,112 388,136 805,153z"/>
  <path class="fil0 str2" d="M4242 28779c194,129 388,259 640,326 253,68 565,74 877,80"/>
  <path class="fil0 str2" d="M1949 28973c-124,118 -247,235 -418,288 -170,53 -388,41 -606,30"/>
  <g id="_2685937459424">
   <path class="fil0 str1" d="M3667 10796c-23,11 -46,21 -111,14 -64,-7 -169,-31 -302,-94 -133,-64 -294,-166 -403,-290 -110,-124 -168,-268 -194,-450 -27,-181 -21,-400 5,-579 26,-181 144,-318 223,-468 8,-16 57,-172 67,-188 187,-317 344,-394 802,-277 96,25 243,61 350,109 106,47 226,95 372,169 145,75 315,177 430,327 116,149 176,346 194,497 18,151 -6,257 -50,365 -43,109 -104,220 -166,332"/>
   <path class="fil1 str1" d="M2959 9701c4,-138 42,-235 130,-345 88,-110 226,-234 421,-325 196,-91 450,-149 674,-6 224,142 418,486 520,716 101,231 111,349 68,467 -42,118 -137,236 -271,329 -134,93 -306,162 -453,182 -146,20 -266,-8 -394,-62 -127,-54 -264,-134 -371,-215 -108,-81 -187,-164 -242,-294 -55,-131 -86,-310 -82,-447z"/>
   <path class="fil2 str1" d="M3127 8940c144,-97 570,-297 738,-289 190,9 382,58 537,140 155,81 273,195 341,280 67,85 84,141 117,201 33,61 83,125 97,286 14,161 -9,418 -82,610 -73,193 -196,321 -346,418 -150,96 -328,160 -529,180 -200,20 -424,-4 -570,-41 -147,-37 -215,-86 -296,-152 -81,-65 -174,-147 -248,-262 -73,-116 -127,-266 -140,-414 -13,-149 -20,-309 37,-424 48,-96 244,-465 344,-533z"/>
   <path class="fil0 str1" d="M3652 10782c5,109 9,218 19,272 9,55 23,54 79,147 56,92 154,278 245,481 91,202 176,422 256,518 80,97 154,70 320,13 167,-56 424,-143 610,-233 186,-91 301,-185 357,-266 56,-81 53,-147 -4,-263 -57,-116 -168,-283 -245,-431 -77,-149 -120,-280 -163,-399 -43,-120 -85,-227 -131,-294 -45,-67 -94,-93 -142,-120"/>
   <path class="fil0 str1" d="M3808 10762c46,83 92,167 135,217 42,51 81,68 175,43 93,-25 242,-93 373,-153 130,-59 242,-111 310,-143 67,-31 90,-41 101,-77 10,-36 8,-98 -11,-159 -20,-61 -55,-121 -91,-181"/>
   <path class="fil2 str1" d="M4258 11263c-44,37 -55,109 -23,136 32,27 107,10 151,-27 43,-38 55,-95 23,-122 -32,-27 -108,-24 -151,13z"/>
   <path class="fil2 str1" d="M4829 11019c-66,22 -116,71 -119,112 -3,40 41,72 98,72 57,0 127,-31 170,-69 44,-37 61,-81 29,-105 -32,-25 -112,-31 -178,-10z"/>
   <path class="fil0 str1" d="M5416 10738c71,116 217,344 279,455 61,111 113,218 140,295 27,78 28,125 -13,150 -42,26 -127,29 -172,22 -46,-8 -51,-27 -57,-46"/>
   <path class="fil3 str1" d="M4630 9329c-9,47 -40,103 -78,101 -37,-1 -82,-60 -132,-131 -49,-71 -102,-154 -187,-214 -85,-61 -202,-99 -307,-103 -80,-4 -270,-51 -226,-86 56,-45 167,-88 276,-88 110,0 217,43 307,96 90,54 164,119 216,171 52,52 84,91 106,130 22,39 34,77 25,124z"/>
   <path class="fil3 str1" d="M4689 9657c13,-59 -14,-120 -48,-138 -34,-18 -74,7 -95,54 -21,47 -22,115 -16,161 7,47 22,71 57,54 34,-16 88,-72 102,-131z"/>
   <path class="fil3 str1" d="M3006 8853c24,19 460,-230 515,-264 71,-44 66,-65 24,-74 -42,-9 -122,-6 -189,4 -67,10 -121,26 -172,53 -51,27 -98,64 -135,123 -36,60 -63,142 -43,158z"/>
   <path class="fil2 str1" d="M4318 11573c-4,41 40,72 97,72 57,0 52,-21 96,-59 86,-73 -179,-201 -193,-13z"/>
   <path class="fil0 str1" d="M3612 10809c-148,84 -297,167 -478,304 -180,137 -394,327 -559,489 -166,162 -283,297 -344,411 -61,115 -66,211 -49,280 17,69 57,112 131,123 73,11 181,-10 249,-49 67,-38 94,-95 126,-97 31,-2 67,50 107,71 39,20 83,8 89,-45 6,-53 -25,-149 6,-241 30,-93 123,-184 257,-295 133,-112 308,-244 427,-320 120,-77 183,-98 247,-118"/>
   <path class="fil0 str1" d="M4926 10224c196,-32 392,-64 575,-72 182,-9 352,8 550,74 198,66 425,181 599,319 174,138 295,297 349,413 54,115 42,185 -15,221 -56,36 -157,37 -226,14 -70,-23 -107,-71 -121,-65 -13,6 -2,66 -30,95 -27,28 -93,26 -132,-15 -39,-41 -51,-121 -101,-205 -51,-85 -140,-174 -265,-226 -125,-53 -286,-69 -444,-68 -158,1 -312,18 -466,35"/>
   <path class="fil0 str1" d="M3603 11457c30,76 60,151 102,252 41,100 94,226 159,336 64,111 140,206 220,244 80,37 217,-9 301,-29"/>
   <path class="fil0 str1" d="M2808 11393c101,-10 202,-19 288,15 86,34 158,110 229,187"/>
   <path class="fil0 str1" d="M3344 10967c103,50 207,100 279,161 72,60 113,131 153,202"/>
   <path class="fil0 str1" d="M6345 10941c19,-57 38,-115 89,-179 52,-64 138,-135 223,-206"/>
   <path class="fil0 str1" d="M5991 10749c-9,-81 -17,-162 12,-240 30,-79 97,-154 164,-229"/>
   <path class="fil0 str1" d="M5611 10715c-9,-65 -18,-129 -7,-224 12,-94 45,-218 78,-343"/>
   <path class="fil2 str1" d="M4885 11391c-3,41 41,72 98,72 56,0 52,-22 95,-59 86,-73 -179,-201 -193,-13z"/>
   <path class="fil0 str1" d="M2417 11789c109,-17 219,-34 311,-10 93,25 168,93 243,160"/>
   <path class="fil6 str1" d="M2305 14780c-53,35 -114,97 -122,153 -8,56 36,106 105,112 69,6 162,-31 216,-79 54,-48 70,-107 54,-148 -17,-40 -64,-62 -110,-70 -46,-9 -90,-2 -143,32z"/>
   <path class="fil0 str1" d="M6793 11502c14,-41 27,-83 60,-114 33,-32 85,-55 137,-77"/>
   <path class="fil0 str1" d="M4107 12300c74,229 149,459 268,797 119,338 284,785 466,1079 183,294 382,435 529,467 147,32 242,-44 262,-182 21,-138 -32,-338 -115,-538 -82,-200 -194,-400 -235,-555 -42,-156 -13,-267 16,-378"/>
   <path class="fil0 str1" d="M5714 11665c168,218 336,435 537,684 202,248 438,527 582,783 144,256 196,488 140,604 -55,116 -219,116 -400,25 -180,-91 -377,-273 -512,-435 -136,-162 -209,-303 -279,-385 -69,-82 -134,-106 -217,-82 -82,23 -181,94 -280,164"/>
   <path class="fil0 str1" d="M4949 14353c39,-59 77,-118 178,-171 102,-53 266,-100 431,-147"/>
   <path class="fil0 str1" d="M4711 13982c65,-82 130,-164 237,-229 107,-65 257,-112 407,-159"/>
   <path class="fil0 str1" d="M4526 13533c85,-83 171,-165 295,-215 125,-50 290,-68 455,-85"/>
   <path class="fil0 str1" d="M4385 12307c138,194 276,388 429,507 153,119 321,163 488,207"/>
   <path class="fil0 str1" d="M5540 11760c62,182 124,364 150,550 27,185 18,373 9,561"/>
   <path class="fil0 str1" d="M5858 13021c44,-103 88,-206 181,-279 92,-74 233,-118 374,-162"/>
   <path class="fil0 str1" d="M6440 13665c38,-126 76,-253 148,-322 72,-69 178,-81 284,-93"/>
   <path class="fil0 str1" d="M6105 13330c56,-118 111,-235 204,-307 93,-72 222,-99 351,-125"/>
  </g>
  <g id="_2686031446160">
   <path class="fil0 str2" d="M13682 17608c-34,0 -69,0 -144,-45 -76,-44 -192,-133 -320,-286 -129,-153 -270,-369 -335,-583 -66,-214 -57,-425 13,-663 69,-239 198,-505 330,-711 134,-208 355,-312 537,-452 20,-16 168,-181 188,-195 409,-286 645,-293 1145,109 104,84 266,210 370,328 104,119 226,245 364,418 137,174 290,395 348,644 58,249 22,525 -40,722 -63,196 -151,312 -265,422 -114,110 -253,213 -392,316"/>
   <path class="fil1 str2" d="M13422 15860c82,-168 184,-265 354,-351 171,-87 410,-163 702,-166 292,-3 637,68 833,370 197,301 244,833 240,1175 -3,341 -58,492 -176,614 -119,121 -302,213 -519,253 -217,40 -469,28 -660,-29 -192,-57 -324,-159 -451,-297 -128,-139 -251,-313 -338,-473 -87,-161 -139,-306 -134,-498 5,-192 67,-430 149,-598z"/>
   <path class="fil2 str2" d="M14056 15017c231,-40 869,-47 1072,56 229,118 438,286 584,473 145,188 228,394 263,537 36,143 25,221 32,314 7,93 33,201 -40,406 -74,206 -246,511 -443,707 -198,197 -422,287 -661,321 -239,35 -494,14 -753,-74 -259,-87 -521,-243 -681,-370 -160,-127 -216,-226 -279,-352 -63,-126 -133,-279 -159,-463 -26,-184 -8,-398 59,-589 68,-191 148,-392 284,-502 113,-91 561,-436 722,-464z"/>
   <path class="fil0 str2" d="M13672 17583c-56,137 -111,273 -130,345 -19,72 -1,80 16,225 17,146 33,430 32,731 -1,301 -19,619 26,782 44,164 151,173 388,196 236,23 602,61 882,54 280,-8 475,-60 589,-128 114,-68 148,-152 143,-327 -5,-175 -49,-442 -61,-669 -12,-226 8,-412 22,-583 14,-171 22,-327 4,-435 -19,-108 -64,-168 -109,-228"/>
   <path class="fil0 str2" d="M13875 17645c10,128 20,257 44,343 24,86 62,129 192,151 130,21 352,21 546,21 194,-1 361,-3 462,-3 101,-1 135,-1 168,-39 33,-39 65,-116 75,-202 11,-86 1,-180 -10,-274"/>
   <path class="fil2 str2" d="M14149 18515c-74,21 -129,103 -104,155 24,51 126,72 201,50 74,-22 121,-86 97,-137 -24,-51 -119,-90 -194,-68z"/>
   <path class="fil2 str2" d="M14990 18534c-93,-10 -182,23 -209,71 -26,48 10,111 80,143 71,32 174,33 249,11 74,-21 120,-65 95,-114 -26,-48 -122,-101 -215,-111z"/>
   <path class="fil0 str2" d="M15871 18516c23,183 76,545 89,717 14,172 18,333 7,443 -10,110 -34,169 -99,177 -66,8 -173,-35 -225,-70 -51,-35 -48,-61 -44,-87"/>
   <path class="fil3 str2" d="M15692 16339c-38,53 -107,104 -153,81 -46,-23 -68,-121 -89,-236 -21,-115 -41,-247 -112,-370 -71,-122 -194,-235 -320,-298 -97,-50 -304,-214 -231,-233 95,-24 256,-14 390,47 135,61 243,173 325,290 81,117 135,238 170,331 35,94 52,160 58,220 5,60 -1,115 -38,168z"/>
   <path class="fil3 str2" d="M15580 16775c50,-65 50,-156 19,-197 -32,-41 -96,-32 -148,14 -52,46 -92,129 -110,190 -17,61 -12,99 40,98 51,0 150,-40 199,-105z"/>
   <path class="fil3 str2" d="M13955 14841c19,37 696,-26 783,-37 112,-15 118,-43 71,-78 -47,-34 -146,-75 -234,-100 -88,-26 -165,-36 -243,-31 -77,5 -156,23 -235,76 -79,53 -157,140 -142,170z"/>
   <path class="fil2 str2" d="M14444 18830c-27,48 10,111 80,143 70,32 77,3 151,-19 147,-43 -108,-349 -231,-124z"/>
   <path class="fil0 str2" d="M13607 17593c-230,20 -459,40 -759,107 -300,68 -669,183 -964,290 -295,107 -515,207 -654,315 -140,107 -200,222 -218,317 -17,95 8,170 93,225 85,55 229,90 334,80 105,-10 170,-65 210,-50 40,15 55,99 93,147 37,47 97,57 134,-5 38,-63 53,-197 143,-295 90,-97 255,-157 482,-220 227,-62 517,-127 707,-154 189,-28 279,-18 369,-8"/>
   <path class="fil0 str2" d="M15555 17608c260,70 520,140 750,232 229,92 429,207 636,400 208,192 423,462 560,729 137,267 197,532 200,704 2,173 -53,253 -143,265 -90,13 -214,-42 -287,-110 -72,-67 -92,-147 -112,-147 -20,0 -40,80 -90,100 -50,20 -130,-20 -155,-93 -25,-72 5,-177 -10,-309 -15,-133 -75,-293 -200,-427 -125,-135 -315,-245 -509,-333 -195,-87 -395,-152 -595,-217"/>
   <path class="fil0 str2" d="M13233 18387c-5,110 -10,220 -15,367 -5,148 -10,332 7,505 18,172 58,332 135,423 77,91 192,114 307,136"/>
   <path class="fil0 str2" d="M11584 18132c145,40 290,80 390,163 100,82 155,207 210,332"/>
   <path class="fil0 str2" d="M12289 17863c129,45 259,89 347,179 87,90 132,225 177,360"/>
   <path class="fil0 str2" d="M13188 17638c100,120 199,240 254,354 55,115 65,225 75,335"/>
   <path class="fil0 str2" d="M16904 19286c55,-60 110,-120 210,-170 100,-50 245,-90 389,-130"/>
   <path class="fil0 str2" d="M16574 18852c35,-105 70,-210 150,-290 80,-80 205,-135 330,-190"/>
   <path class="fil0 str2" d="M16125 18597c25,-85 50,-170 117,-280 68,-110 177,-245 287,-380"/>
   <path class="fil0 str2" d="M13495 19839c-111,323 -223,646 -276,1031 -53,386 -47,832 -6,1229 41,397 118,744 291,917 174,174 444,174 591,36 147,-138 171,-415 179,-735 9,-321 3,-685 95,-912 91,-226 279,-314 470,-282 191,33 385,185 488,509 103,323 115,817 185,1120 71,303 200,414 365,406 164,-9 364,-139 426,-518 62,-379 -15,-1008 -115,-1508 -100,-500 -223,-870 -347,-1241"/>
   <path class="fil0 str2" d="M13319 22696c106,-118 212,-235 368,-265 155,-29 361,30 567,89"/>
   <path class="fil0 str2" d="M13178 21902c176,-88 353,-176 535,-208 182,-33 370,-9 559,14"/>
   <path class="fil0 str2" d="M13725 19839c29,188 59,376 176,623 118,247 324,552 529,858"/>
   <path class="fil0 str2" d="M15542 19768c41,335 82,670 26,938 -56,267 -209,467 -362,667"/>
   <path class="fil0 str2" d="M15489 22731c94,-100 188,-200 323,-229 135,-29 312,12 488,53"/>
   <path class="fil0 str2" d="M15383 21867c94,-112 188,-223 341,-250 153,-26 364,32 576,91"/>
   <path class="fil0 str2" d="M13196 21135c202,-18 405,-35 599,22 194,57 380,190 565,322"/>
   <path class="fil0 str2" d="M15321 21558c79,-138 159,-276 297,-375 138,-98 335,-157 532,-216"/>
  </g>
 </g>
</svg>
