<?xml version="1.0" encoding="UTF-8"?>
<!DOCTYPE svg PUBLIC "-//W3C//DTD SVG 1.1//EN" "http://www.w3.org/Graphics/SVG/1.1/DTD/svg11.dtd">
<!-- Creator: CorelDRAW X7 -->
<svg xmlns="http://www.w3.org/2000/svg" xml:space="preserve" width="210mm" height="297mm" version="1.1" style="shape-rendering:geometricPrecision; text-rendering:geometricPrecision; image-rendering:optimizeQuality; fill-rule:evenodd; clip-rule:evenodd"
viewBox="0 0 21000 29700"
 xmlns:xlink="http://www.w3.org/1999/xlink">
 <defs>
  <style type="text/css">
   <![CDATA[
    .str0 {stroke:#2B2A29;stroke-width:75}
    .str1 {stroke:black;stroke-width:75}
    .str2 {stroke:#1EBAFB;stroke-width:75}
    .str4 {stroke:#FEEC0C;stroke-width:75}
    .str3 {stroke:#E31E24;stroke-width:75;stroke-linecap:round;stroke-linejoin:round}
    .fil0 {fill:none}
   ]]>
  </style>
 </defs>
 <g id="Слой_x0020_1">
  <metadata id="CorelCorpID_0Corel-Layer"/>
  <g id="_2686058267056">
   <path class="fil0 str0" d="M1392 11183c-102,-195 -67,-557 274,-889 340,-331 986,-632 2471,-1118 1486,-487 3811,-1159 5553,-1472 1742,-314 2900,-270 3638,-208 739,62 1057,141 1039,353 -17,213 -371,558 -981,964 -610,407 -1477,876 -2507,1225 -1030,349 -2224,579 -3417,778 -1194,199 -2388,367 -3303,464 -915,97 -1552,124 -1989,124 -438,0 -677,-27 -778,-221zm-54 -316c467,117 934,234 1968,164 1034,-69 2635,-326 4222,-679 1587,-354 3161,-805 4257,-1207 1097,-402 1716,-756 2056,-999 341,-243 403,-376 465,-509m-12940 3108c34,-532 67,-1064 102,-1635 34,-571 69,-1181 423,-2114 354,-933 1026,-2188 1994,-2962 968,-774 2233,-1065 3382,-1145 1150,-80 2184,53 3020,327 835,274 1472,690 2033,1278 562,588 1048,1348 1393,1927 345,580 548,978 752,1375m-9099 -4536c-35,-132 -71,-265 -49,-486 23,-221 102,-530 345,-694 243,-164 650,-181 964,-53 314,128 535,402 650,570 115,168 124,230 133,292m1459 1066c176,-67 645,-23 1193,221 548,243 1176,685 1565,1127 389,442 540,884 465,1061 -76,177 -376,88 -739,-190 -362,-279 -787,-747 -1202,-1079 -416,-331 -823,-526 -1083,-712 -261,-185 -376,-362 -199,-428zm2078 7123c67,112 134,224 201,336m-439 -201c10,63 20,125 48,182 29,58 76,111 99,142 23,30 22,38 23,41 2,3 5,2 8,1m-459 -227c31,70 62,140 93,198 30,59 61,107 92,155m-511 -203c30,70 61,140 92,198 31,59 62,107 93,155"/>
   <path class="fil0 str0" d="M4771 24173c143,104 285,207 422,316 138,110 270,224 695,317 424,93 1140,164 2551,205 1410,40 3515,51 5140,-20 1626,-71 2772,-224 3604,-429 832,-206 1350,-465 1867,-724"/>
   <path class="fil0 str0" d="M6754 24970c186,150 371,300 1004,376 632,75 1711,75 2884,76 1173,0 2440,2 3209,-41 769,-43 1039,-132 1260,-229 220,-97 391,-202 561,-308"/>
   <path class="fil0 str1" d="M16197 18337c-68,-15 -83,-154 -135,-187 -51,-33 -85,-86 -161,-80 -76,5 -193,67 -324,176 -131,109 -277,266 -347,391 -70,125 -66,220 -41,271 26,50 71,57 107,55 35,-1 60,-12 88,7 28,18 58,65 103,95 45,30 104,43 163,57"/>
   <path class="fil0 str1" d="M14763 19545c-313,-3 -627,-5 -1055,-42 -428,-38 -971,-110 -1427,-197 -455,-87 -825,-189 -1221,-295 -397,-107 -821,-217 -1206,-275 -385,-57 -732,-62 -1031,-192 -300,-129 -552,-383 -928,-472 -376,-89 -875,-14 -1253,5 -377,18 -634,-20 -830,-120 -196,-100 -332,-261 -368,-364 -36,-104 28,-151 270,-330 243,-180 665,-492 1100,-830 435,-338 883,-702 1182,-1004 298,-302 447,-543 575,-744 129,-201 238,-363 337,-338 100,24 190,234 374,417 183,182 460,336 865,453 404,117 936,196 1374,337 439,141 784,343 1079,532 295,190 540,367 866,510 325,142 731,250 1146,326 416,77 792,214 1093,334 300,120 526,223 597,447 71,224 35,476 -1,729"/>
   <path class="fil0 str1" d="M16309 18426c24,-235 48,-471 -7,-646 -55,-174 -188,-288 -342,-353 -154,-66 -330,-83 -567,27 -237,110 -535,347 -726,651 -191,304 -274,676 -262,936 13,260 122,407 230,466 109,58 217,27 375,-57 158,-84 366,-221 574,-359"/>
   <path class="fil0 str1" d="M14923 16980c-289,208 -578,416 -790,683 -211,267 -344,594 -401,914 -58,319 -39,632 -20,944"/>
   <path class="fil0 str1" d="M11690 15603c-286,205 -573,411 -852,639 -279,228 -551,478 -708,773 -156,295 -198,636 -184,938 15,302 86,566 156,830"/>
   <path class="fil0 str1" d="M8066 15334c93,82 187,164 280,246"/>
   <path class="fil0 str1" d="M15326 18933c55,-130 110,-260 176,-363 67,-102 147,-177 226,-252"/>
   <path class="fil0 str1" d="M15620 19082c70,100 139,199 133,373 -6,174 -88,422 -71,621 17,200 133,351 243,433 109,82 213,95 310,105 97,10 187,16 223,4 36,-12 17,-43 -2,-74m-260 -2205c158,131 317,263 392,456 76,193 68,447 -15,682 -84,235 -242,450 -282,620 -39,170 40,295 94,369 53,75 80,100 106,125m-289 -2248c-104,-38 -209,-76 -326,-6 -117,70 -247,247 -290,394 -43,146 1,262 44,378"/>
   <path class="fil0 str1" d="M9175 14649c-181,175 -362,349 -500,516 -137,167 -232,326 -560,667 -329,341 -893,864 -1283,1181 -389,317 -605,427 -777,532 -171,104 -299,202 -426,300"/>
   <path class="fil0 str1" d="M5882 17145c38,62 75,123 123,178 48,54 107,100 166,146"/>
   <path class="fil0 str1" d="M6198 16911c16,49 32,98 83,156 52,58 138,125 224,192"/>
   <path class="fil0 str1" d="M6570 16636c37,83 74,166 115,231 42,64 89,111 136,158"/>
   <path class="fil0 str1" d="M7890 15526c27,53 54,106 97,150 42,44 101,79 130,99 30,21 31,29 33,31 2,3 5,1 7,-1"/>
   <path class="fil0 str1" d="M7676 15733c48,54 96,108 141,152 45,44 87,79 129,113"/>
   <path class="fil0 str1" d="M16588 18795c76,193 68,447 -15,682 -84,235 -242,450 -282,620 -39,170 40,295 94,369 41,58 66,86 88,108 8,19 9,36 -15,44 -36,12 -126,6 -223,-4 -97,-10 -201,-23 -310,-105 -110,-82 -226,-233 -243,-433 -17,-199 65,-447 71,-621 5,-151 -46,-246 -106,-334 -8,-12 -17,-25 -26,-38 -40,-107 -75,-216 -35,-352 43,-147 173,-324 290,-394 117,-69 221,-32 325,6 154,128 312,260 387,452z"/>
   <path class="fil0 str2" d="M11217 18438c158,104 342,216 543,275 201,58 418,64 637,-24 219,-87 440,-269 582,-490 142,-221 206,-482 190,-728 -16,-247 -112,-478 -288,-656 -176,-178 -432,-302 -666,-357 -234,-56 -447,-43 -631,90 -183,133 -337,387 -463,673 -126,286 -225,604 -209,811 16,207 148,302 305,406z"/>
   <path class="fil0 str2" d="M11915 18746c53,-35 106,-70 153,-122 48,-52 90,-121 146,-172 56,-50 127,-82 212,-118 84,-35 183,-74 282,-101 99,-26 198,-41 297,-55"/>
   <path class="fil0 str2" d="M11476 18574c128,-29 256,-58 344,-138 88,-81 137,-213 210,-287 72,-74 169,-91 269,-116 101,-26 205,-61 351,-142 145,-81 333,-208 520,-335"/>
   <path class="fil0 str2" d="M11118 18190c103,-47 207,-95 310,-138 104,-44 207,-84 286,-126 79,-43 134,-88 213,-127 79,-39 181,-72 274,-98 93,-26 176,-47 257,-116 82,-69 161,-186 242,-297 81,-110 163,-214 246,-317"/>
   <path class="fil0 str2" d="M10993 17890c89,-5 179,-10 265,-42 87,-32 170,-92 259,-176 89,-84 182,-193 262,-304 79,-112 144,-226 226,-292 82,-67 180,-86 309,-128 128,-43 286,-108 444,-174"/>
   <path class="fil0 str2" d="M12481 17278c-50,74 -153,185 -235,232 -82,47 -142,30 -176,-5 -34,-35 -42,-87 -18,-149 24,-62 80,-135 141,-180 61,-46 128,-65 185,-67 56,-3 104,10 128,34 25,25 26,61 -25,135z"/>
   <path class="fil0 str2" d="M13504 17747c15,-117 31,-233 27,-321 -4,-87 -28,-145 -56,-191 -27,-46 -57,-80 -75,-99 -18,-19 -24,-22 -34,-29 -10,-6 -25,-14 -39,-23"/>
   <path class="fil0 str2" d="M13251 16955c-39,-39 -78,-79 -100,-100 -23,-22 -29,-25 -34,-29"/>
   <path class="fil0 str2" d="M11039 18533c-84,-55 -169,-111 -207,-201 -38,-90 -29,-214 -20,-339"/>
   <path class="fil0 str2" d="M10715 18502c-29,-49 -58,-99 -71,-156 -12,-57 -9,-121 -5,-186"/>
   <path class="fil0 str1" d="M4995 17721c-53,-215 -105,-430 -20,-584 86,-154 310,-247 494,-349 184,-102 328,-213 472,-324"/>
   <path class="fil0 str1" d="M4520 17296c17,-128 33,-255 109,-354 75,-100 210,-171 344,-241"/>
   <path class="fil0 str1" d="M18261 16630c-63,-37 -166,-118 -207,-168 -41,-50 -58,-113 -136,-132 -77,-19 -215,5 -381,73 -167,67 -362,177 -473,280 -111,104 -137,200 -128,258 9,59 53,81 89,91 36,9 65,7 87,34 22,27 37,84 72,128 35,45 90,77 145,110"/>
   <path class="fil0 str1" d="M16305 17443c-313,-103 -627,-206 -1044,-380 -417,-175 -937,-421 -1366,-654 -428,-234 -766,-454 -1129,-688 -363,-234 -753,-480 -1120,-662 -367,-181 -713,-297 -971,-522 -259,-226 -431,-561 -779,-771 -348,-209 -871,-294 -1256,-397 -384,-102 -629,-223 -794,-386 -164,-163 -248,-367 -251,-483 -3,-115 76,-142 376,-244 301,-102 823,-279 1367,-478 545,-199 1111,-420 1507,-627 396,-208 621,-401 815,-561 193,-160 354,-287 446,-231 91,56 115,296 240,537 126,242 354,485 722,732 367,246 875,497 1269,778 394,282 675,594 910,879 234,284 423,541 704,788 280,247 652,485 1044,695 391,209 802,390 1065,607 263,217 378,469 377,716 -1,247 -69,352 -185,594"/>
   <path class="fil0 str1" d="M18257 16673c99,-229 154,-312 155,-504 2,-193 -95,-349 -229,-464 -134,-115 -304,-188 -577,-154 -272,34 -646,175 -935,419 -289,244 -492,589 -563,854 -71,264 -8,447 81,540 90,93 208,97 393,64 186,-34 438,-105 691,-176"/>
   <path class="fil0 str1" d="M17287 14925c-356,116 -712,231 -1009,431 -298,200 -536,485 -696,787 -160,301 -241,620 -322,939"/>
   <path class="fil0 str1" d="M14490 12509c-353,114 -706,228 -1058,367 -353,139 -705,302 -957,548 -252,245 -403,573 -485,881 -82,307 -96,594 -110,881"/>
   <path class="fil0 str1" d="M17066 17011c96,-113 192,-226 292,-307 100,-82 204,-131 307,-181"/>
   <path class="fil0 str1" d="M17312 17255c38,122 76,244 14,416 -62,172 -223,394 -270,599 -47,206 20,394 104,511 83,118 183,164 277,205 94,41 182,76 222,76 40,-1 31,-38 22,-75m539 -2385c116,182 299,387 313,604 13,218 -160,536 -318,745 -159,209 -361,404 -455,562 -94,157 -155,281 -126,373 30,92 48,126 67,160m541 -2411c-92,-72 -295,-77 -435,-45 -139,32 -326,169 -416,302 -90,133 -84,262 -77,392"/>
   <path class="fil0 str1" d="M12276 10747c-238,117 -475,234 -666,357 -191,123 -337,253 -776,489 -438,236 -1171,579 -1663,771 -492,193 -743,234 -949,284 -205,50 -364,107 -523,165"/>
   <path class="fil0 str1" d="M8177 12192c18,74 36,148 67,218 30,69 74,134 118,200"/>
   <path class="fil0 str1" d="M8569 12059c0,54 0,109 33,184 33,74 97,169 162,263"/>
   <path class="fil0 str1" d="M9029 11903c11,95 21,189 42,268 21,78 53,140 85,202"/>
   <path class="fil0 str3" d="M14558 13620c-60,-49 -104,-74 -138,-80 -34,-7 -57,5 -56,27 1,21 27,52 22,54 -5,2 -42,-26 -83,-34 -40,-8 -84,3 -104,32 -20,28 -16,75 -20,82 -3,7 -14,-25 -29,-40 -16,-15 -35,-13 -51,34 -16,47 -28,139 24,255 51,116 166,255 266,418 101,162 188,347 243,521 55,173 78,336 114,606 36,269 84,646 112,840 29,195 37,208 62,152 24,-56 65,-181 109,-315 44,-134 91,-277 117,-446 26,-169 31,-366 8,-562 -23,-197 -74,-394 -143,-618 -68,-225 -154,-478 -235,-641 -81,-163 -157,-236 -218,-285z"/>
   <path class="fil0 str3" d="M14611 13663c-45,-54 -91,-109 -156,-166 -64,-56 -148,-115 -211,-191 -64,-75 -108,-167 -113,-223 -5,-56 29,-75 67,-79 39,-3 83,11 129,35 46,24 94,59 114,54 20,-6 13,-51 -25,-97 -38,-47 -106,-95 -168,-116 -62,-20 -119,-13 -164,17 -45,31 -78,84 -74,150 5,66 47,144 68,222 22,78 24,155 23,223 -1,67 -6,124 -9,178 -3,55 -5,107 -7,160"/>
   <path class="fil0 str3" d="M14830 14215c64,197 129,393 169,571 39,178 54,338 68,497"/>
   <path class="fil0 str3" d="M15060 15369c5,30 9,61 12,92 2,30 3,62 4,93"/>
   <path class="fil0 str1" d="M14510 19900c-105,88 -300,223 -381,321l-166 232c-413,654 -476,1470 -225,2205 53,155 146,324 185,453 -1040,-78 -1421,-95 -2490,-384 -547,-147 -715,-180 -1326,112 -490,236 -941,182 -1437,226 -251,-438 -393,-602 -543,-1154 -100,-365 -175,-835 5,-1180 24,-47 27,-69 55,-112 179,-277 378,-469 623,-702 120,-115 291,-261 425,-357 87,-63 524,-125 668,-153 675,-131 664,-125 1259,110l374 150c1553,552 2774,200 2974,233z"/>
   <path class="fil0 str1" d="M9249 19569c-481,406 -1127,852 -1216,1379 -89,532 95,1152 347,1648 56,109 233,385 253,454 -612,-1 -1199,41 -1822,-74 -208,-38 -375,-80 -556,-124 -242,-59 -682,-56 -1154,-159 -288,-63 -808,-267 -986,-469l823 -1452c46,-85 85,-133 120,-205 138,-286 309,-545 441,-846l49 -103c53,-124 89,-180 143,-336l149 -473 360 185c444,187 589,286 1176,416 420,93 888,150 1332,144 94,-2 489,2 541,15z"/>
   <path class="fil0 str1" d="M15831 21168c-71,33 -64,-23 -124,-36 -48,-11 -66,-36 -126,-35 -56,1 -93,27 -147,42 -44,-23 -62,-67 -132,-54 -168,32 -444,881 -127,1121 82,-30 74,-77 156,-65 72,11 22,38 154,29 188,30 191,10 69,311 -131,303 -576,594 -962,400 -512,-257 -470,-857 -422,-1382 27,-283 75,-460 171,-687 318,-756 1216,-836 1475,-258 78,172 -34,449 15,614z"/>
   <path class="fil0 str1" d="M15572 20248c-384,-83 -716,-125 -1023,212 -198,219 -322,527 -376,871 -67,435 -27,1271 376,1585 255,44 397,6 437,33 137,94 -776,170 -1034,166 -448,-902 -456,-1644 -130,-2379 34,-76 82,-168 127,-228 158,-215 301,-451 551,-599 52,-30 250,-61 319,-70 123,-16 198,-24 298,9 136,45 369,256 455,400z"/>
   <path class="fil0 str1" d="M5796 18733c15,267 -196,800 -276,994 -33,79 -75,146 -110,224 -146,339 -1042,2512 -1484,2306 -39,-49 -244,-73 -257,-107 -34,-93 126,-239 225,-453l754 -1386c37,-69 80,-162 122,-232 106,-179 85,-166 147,-295 143,-297 272,-607 345,-941 18,-81 31,-204 58,-278l228 102c81,29 169,39 248,66z"/>
   <path class="fil0 str1" d="M18004 21730c-133,-11 -214,-35 -367,-29 -139,6 -259,23 -391,59 -271,75 -495,224 -735,340 -248,119 -541,170 -762,82 -205,-82 -396,-340 -348,-578 55,-267 306,-331 612,-413 296,-79 429,151 694,201 381,71 1114,-55 1297,338z"/>
   <path class="fil0 str1" d="M12257 19826c-258,300 -516,600 -666,987 -150,386 -192,859 -143,1215 50,356 191,595 332,834"/>
   <path class="fil0 str4" d="M10473 21563c-13,-113 2,-176 44,-229 42,-52 112,-93 199,-137 88,-43 192,-89 197,-140 5,-52 -90,-108 -187,-156 -98,-48 -198,-87 -264,-160 -65,-73 -95,-179 -102,-289 -6,-109 10,-221 -19,-288 -29,-66 -104,-87 -184,-18 -79,70 -164,231 -255,310 -91,78 -188,75 -303,71 -115,-4 -247,-9 -302,35 -54,44 -31,137 50,225 80,89 219,172 216,265 -3,92 -147,193 -247,292 -101,100 -159,198 -129,251 30,54 147,61 274,48 126,-14 260,-50 347,-67 87,-18 126,-17 214,69 88,85 225,255 325,328 100,73 162,49 172,-44 10,-93 -33,-254 -46,-366z"/>
   <path class="fil0 str0" d="M15482 21162c-72,94 -144,188 -190,305 -45,117 -64,256 -54,375 10,119 51,216 91,314"/>
   <path class="fil0 str0" d="M18297 24018c-855,104 -2595,247 -4600,321 -2005,74 -4275,80 -5898,47 -1622,-33 -2598,-105 -3036,-188 -438,-83 -339,-177 1037,-260 1376,-82 4028,-153 6115,-185 2087,-32 3610,-26 4713,-15 1102,12 1784,30 2140,71 356,41 385,106 -471,209z"/>
   <path class="fil0 str0" d="M5115 19288c83,-18 165,-36 253,-8 88,28 183,102 277,175"/>
   <path class="fil0 str0" d="M4921 19764c115,-21 230,-41 313,-16 84,25 137,95 190,166"/>
   <path class="fil0 str0" d="M3863 21669c94,73 188,147 272,191 84,44 157,59 231,73"/>
  </g>
 </g>
</svg>
