<?xml version="1.0" encoding="UTF-8" standalone="no"?>
<!-- Creator: CorelDRAW X7 -->

<svg
   xmlns:dc="http://purl.org/dc/elements/1.1/"
   xmlns:cc="http://creativecommons.org/ns#"
   xmlns:rdf="http://www.w3.org/1999/02/22-rdf-syntax-ns#"
   xmlns:svg="http://www.w3.org/2000/svg"
   xmlns="http://www.w3.org/2000/svg"
   xmlns:sodipodi="http://sodipodi.sourceforge.net/DTD/sodipodi-0.dtd"
   xmlns:inkscape="http://www.inkscape.org/namespaces/inkscape"
   xml:space="preserve"
   width="350"
   height="411"
   version="1.1"
   style="clip-rule:evenodd;fill-rule:evenodd;image-rendering:optimizeQuality;shape-rendering:geometricPrecision;text-rendering:geometricPrecision"
   viewBox="0 0 9260.4165 10874.375"
   id="svg585"
   sodipodi:docname="instruments.svg"
   inkscape:version="0.92.4 (5da689c313, 2019-01-14)"><metadata
   id="metadata589"><rdf:RDF><cc:Work
       rdf:about=""><dc:format>image/svg+xml</dc:format><dc:type
         rdf:resource="http://purl.org/dc/dcmitype/StillImage" /><dc:title></dc:title></cc:Work></rdf:RDF></metadata><sodipodi:namedview
   pagecolor="#ffffff"
   bordercolor="#666666"
   borderopacity="1"
   objecttolerance="10"
   gridtolerance="10"
   guidetolerance="10"
   inkscape:pageopacity="0"
   inkscape:pageshadow="2"
   inkscape:window-width="1920"
   inkscape:window-height="1017"
   id="namedview587"
   showgrid="false"
   units="px"
   inkscape:zoom="1.6819304"
   inkscape:cx="255.90205"
   inkscape:cy="170.99286"
   inkscape:window-x="-8"
   inkscape:window-y="32"
   inkscape:window-maximized="1"
   inkscape:current-layer="svg585" />
 <defs
   id="defs488">
  <style
   type="text/css"
   id="style486">
   <![CDATA[
    .str0 {stroke:#2B2A29;stroke-width:75}
    .str1 {stroke:#E31E24;stroke-width:75}
    .str2 {stroke:#2B2A29;stroke-width:75;stroke-linecap:round;stroke-linejoin:round}
    .str3 {stroke:#FEEC0C;stroke-width:75;stroke-linecap:round;stroke-linejoin:round}
    .fil0 {fill:none}
   ]]>
  </style>
 </defs>
 <g
   id="Слой_x0020_1"
   transform="matrix(0.53673957,0,0,0.53673957,-740.76175,-2849.0782)">
  <metadata
   id="CorelCorpID_0Corel-Layer" />
  <g
   id="_2686184032176">
   <path
   class="fil0 str0"
   d="m 15343,10311 c -247,42 -814,26 -1279,11 -465,-14 -827,-27 -1480,-254 -653,-227 -1598,-668 -1771,-878 -172,-210 428,-188 1020,-126 592,62 1176,164 1667,295 490,131 888,291 1197,414 308,123 528,209 674,302 146,93 219,194 -28,236 z"
   id="path491"
   inkscape:connector-curvature="0"
   style="fill:none;stroke:#2b2a29;stroke-width:75" />
   <path
   class="fil0 str0"
   d="m 12761,13408 c -212,681 -358,1068 -551,1935 -194,867 -369,1920 -584,2504 -215,583 -398,456 -591,443 -193,-14 -444,-112 -406,-241 38,-128 102,-838 336,-1729 233,-892 421,-1781 777,-3052"
   id="path493"
   inkscape:connector-curvature="0"
   style="fill:none;stroke:#2b2a29;stroke-width:75" />
   <path
   class="fil0 str0"
   d="m 15237,10522 c -359,34 -718,68 -1104,65 -385,-4 -798,-44 -1134,-118 -336,-75 -595,-184 -854,-293"
   id="path495"
   inkscape:connector-curvature="0"
   style="fill:none;stroke:#2b2a29;stroke-width:75" />
   <path
   class="fil0 str0"
   d="m 2135,15195 c 191,-410 383,-819 499,-1287 116,-469 156,-996 196,-1439 40,-443 80,-803 179,-1058 100,-256 260,-408 423,-445 162,-37 328,41 388,145 60,104 14,234 -68,433 -82,198 -200,466 -164,604 36,137 226,145 1950,353 1724,208 4983,615 8242,1022"
   id="path497"
   inkscape:connector-curvature="0"
   style="fill:none;stroke:#2b2a29;stroke-width:75" />
   <path
   class="fil0 str0"
   d="m 1718,16915 c -54,334 -70,862 -78,1477 -8,615 -8,1318 24,1757 32,439 96,615 1585,1142 1490,527 4405,1406 6138,1997 1734,591 2285,894 2560,854 276,-39 276,-423 236,-1421 -40,-999 -120,-2612 -208,-3427 -88,-814 -184,-830 -1700,-1156 -1517,-325 -4454,-960 -6077,-1319 -1624,-358 -1933,-440 -2134,-410 -201,30 -293,172 -346,506 z"
   id="path499"
   inkscape:connector-curvature="0"
   style="fill:none;stroke:#2b2a29;stroke-width:75" />
   <path
   class="fil0 str0"
   d="m 11892,24162 c 757,-204 1515,-407 2376,-740 862,-334 1829,-797 2795,-1260"
   id="path501"
   inkscape:connector-curvature="0"
   style="fill:none;stroke:#2b2a29;stroke-width:75" />
   <path
   class="fil0 str0"
   d="m 17033,16818 c 18,1797 36,3594 54,5392"
   id="path503"
   inkscape:connector-curvature="0"
   style="fill:none;stroke:#2b2a29;stroke-width:75" />
   <path
   class="fil0 str0"
   d="m 11935,18855 c 328,-152 655,-304 983,-455"
   id="path505"
   inkscape:connector-curvature="0"
   style="fill:none;stroke:#2b2a29;stroke-width:75" />
   <path
   class="fil0 str0"
   d="m 17063,16842 c -200,96 -399,192 -599,288"
   id="path507"
   inkscape:connector-curvature="0"
   style="fill:none;stroke:#2b2a29;stroke-width:75" />
   <path
   class="fil0 str0"
   d="m 15242,12577 c -104,-208 -208,-415 -336,-499 -127,-84 -279,-44 -431,48 -152,92 -303,235 -419,455 -116,220 -196,515 -296,1054 -100,539 -219,1322 -371,2137 -152,815 -336,1661 -407,2244 -72,583 -32,903 151,1170 184,268 511,484 1055,420 543,-64 1302,-408 1753,-679 451,-272 595,-471 647,-771 52,-300 12,-699 -212,-1486 -224,-786 -631,-1960 -833,-2714 -201,-754 -197,-1088 -285,-1331 -88,-244 -268,-398 -445,-319 -178,79 -354,391 -585,1525 -232,1134 -520,3091 -624,4183 -105,1092 -27,1320 50,1548"
   id="path509"
   inkscape:connector-curvature="0"
   style="fill:none;stroke:#2b2a29;stroke-width:75" />
   <path
   class="fil0 str0"
   d="m 2213,15102 c -386,416 -550,626 -578,803 -28,176 80,320 202,259 122,-61 258,-326 312,-335 53,-9 25,238 106,361 81,122 270,120 408,65 138,-56 224,-166 471,-249 247,-82 654,-138 974,-31 319,108 551,380 766,476 216,96 416,16 584,-88 167,-104 303,-232 335,-352 32,-119 -40,-231 -164,-395 -124,-164 -299,-379 -395,-579 -96,-200 -112,-383 -80,-491 32,-108 112,-140 244,-212 131,-72 315,-184 439,-355 124,-172 188,-404 112,-635 -76,-232 -292,-464 -555,-611 -264,-148 -575,-212 -791,-132 -216,80 -336,303 -451,467 -116,164 -228,268 -587,631 -360,364 -967,987 -1352,1403 z"
   id="path511"
   inkscape:connector-curvature="0"
   style="fill:none;stroke:#2b2a29;stroke-width:75" />
   <path
   class="fil0 str0"
   d="m 4579,12643 c 0,161 0,323 84,528 84,205 251,452 454,598 202,147 438,192 675,237"
   id="path513"
   inkscape:connector-curvature="0"
   style="fill:none;stroke:#2b2a29;stroke-width:75" />
   <path
   class="fil0 str1"
   d="m 4285,12888 c 10,280 20,559 129,795 109,236 317,427 490,532 174,105 314,123 454,141"
   id="path515"
   inkscape:connector-curvature="0"
   style="fill:none;stroke:#e31e24;stroke-width:75" />
   <path
   class="fil0 str0"
   d="m 5819,15895 c 473,524 946,1047 1420,1570"
   id="path517"
   inkscape:connector-curvature="0"
   style="fill:none;stroke:#2b2a29;stroke-width:75" />
   <path
   class="fil0 str0"
   d="m 4920,16459 c 214,223 428,447 641,671"
   id="path519"
   inkscape:connector-curvature="0"
   style="fill:none;stroke:#2b2a29;stroke-width:75" />
   <path
   class="fil0 str0"
   d="m 3069,14182 c 80,-303 160,-607 200,-926 40,-320 40,-655 96,-1011 56,-355 168,-730 261,-920 94,-190 170,-194 246,-198"
   id="path521"
   inkscape:connector-curvature="0"
   style="fill:none;stroke:#2b2a29;stroke-width:75" />
   <path
   class="fil0 str0"
   d="m 3830,11145 c 3546,332 7093,663 10639,995"
   id="path523"
   inkscape:connector-curvature="0"
   style="fill:none;stroke:#2b2a29;stroke-width:75" />
   <path
   class="fil0 str0"
   d="m 9012,13529 c 64,298 128,595 227,776 100,181 236,245 396,265 160,20 343,-4 439,-160 96,-156 104,-443 112,-623 8,-180 16,-252 112,-176 96,76 279,300 359,535 80,236 56,484 -12,683 -68,200 -179,352 -211,595 -32,244 16,579 47,919 32,339 48,683 67,994 19,312 41,591 63,871"
   id="path525"
   inkscape:connector-curvature="0"
   style="fill:none;stroke:#2b2a29;stroke-width:75" />
   <path
   class="fil0 str0"
   d="m 9365,15296 c -269,-219 -539,-439 -666,-672 -126,-234 -110,-482 -26,-664 85,-183 239,-301 393,-419"
   id="path527"
   inkscape:connector-curvature="0"
   style="fill:none;stroke:#2b2a29;stroke-width:75" />
   <path
   class="fil0 str0"
   d="m 9389,17944 c -14,-902 -28,-1805 -42,-2707"
   id="path529"
   inkscape:connector-curvature="0"
   style="fill:none;stroke:#2b2a29;stroke-width:75" />
   <path
   class="fil0 str1"
   d="m 9797,18016 c -6,-479 -12,-958 -19,-1370 -7,-411 -15,-754 9,-914 24,-160 79,-136 139,24 60,160 124,455 152,791 28,335 20,710 27,982 7,271 29,439 51,607"
   id="path531"
   inkscape:connector-curvature="0"
   style="fill:none;stroke:#e31e24;stroke-width:75" />
   <path
   class="fil0 str0"
   d="m 15481,13775 c 408,-288 815,-575 1103,-783 287,-207 455,-335 575,-419 120,-84 192,-124 339,-28 148,96 372,327 535,539 164,212 268,403 352,535 84,132 148,204 92,232 -56,28 -232,12 -408,-4"
   id="path533"
   inkscape:connector-curvature="0"
   style="fill:none;stroke:#2b2a29;stroke-width:75" />
   <path
   class="fil0 str0"
   d="m 16248,16147 c 0,-144 0,-287 56,-347 56,-60 168,-36 214,-90 46,-54 26,-186 96,-238 70,-52 229,-24 291,-106 62,-81 26,-273 82,-343 56,-70 204,-18 250,-68 46,-50 -10,-202 58,-258 67,-55 259,-15 303,-73 44,-58 -60,-214 -46,-276 14,-62 146,-30 214,-84 68,-54 72,-194 130,-269 58,-76 169,-88 281,-100"
   id="path535"
   inkscape:connector-curvature="0"
   style="fill:none;stroke:#2b2a29;stroke-width:75" />
   <path
   class="fil0 str0"
   d="m 2721,16512 c 517,-158 1035,-315 1552,-473"
   id="path537"
   inkscape:connector-curvature="0"
   style="fill:none;stroke:#2b2a29;stroke-width:75" />
   <path
   class="fil0 str0"
   d="m 5585,15560 c 276,-108 551,-216 827,-323"
   id="path539"
   inkscape:connector-curvature="0"
   style="fill:none;stroke:#2b2a29;stroke-width:75" />
   <path
   class="fil0 str0"
   d="m 1756,16722 c 3387,723 6774,1446 10161,2169"
   id="path541"
   inkscape:connector-curvature="0"
   style="fill:none;stroke:#2b2a29;stroke-width:75" />
   <line
   class="fil0 str0"
   x1="7724"
   y1="12763"
   x2="6897"
   y2="17100"
   id="line543"
   style="fill:none;stroke:#2b2a29;stroke-width:75" />
   <path
   class="fil0 str0"
   d="m 7556,17525 c 200,-1558 399,-3115 599,-4673"
   id="path545"
   inkscape:connector-curvature="0"
   style="fill:none;stroke:#2b2a29;stroke-width:75" />
   <g
   id="g559">
    <line
   class="fil0 str2"
   x1="7903"
   y1="11529"
   x2="8029"
   y2="10822"
   id="line547"
   style="fill:none;stroke:#2b2a29;stroke-width:75;stroke-linecap:round;stroke-linejoin:round" />
    <path
   class="fil0 str2"
   d="m 8179,10828 c 6,243 12,487 18,731"
   id="path549"
   inkscape:connector-curvature="0"
   style="fill:none;stroke:#2b2a29;stroke-width:75;stroke-linecap:round;stroke-linejoin:round" />
    <path
   class="fil0 str2"
   d="m 7199,11277 c 308,-158 617,-316 771,-395 154,-79 154,-79 293,38 139,116 416,348 560,463 145,115 156,112 153,-61 -2,-173 -18,-516 -15,-697 2,-181 23,-201 158,-300 135,-98 384,-276 509,-365 124,-89 124,-89 -54,-141 -177,-52 -532,-156 -709,-209 -177,-53 -175,-56 -216,-211 -42,-154 -126,-461 -175,-612 -48,-152 -62,-148 -160,-1 -99,147 -283,438 -468,729"
   id="path551"
   inkscape:connector-curvature="0"
   style="fill:none;stroke:#2b2a29;stroke-width:75;stroke-linecap:round;stroke-linejoin:round" />
    <path
   class="fil0 str2"
   d="m 7208,11260 c 91,-306 181,-613 229,-774 48,-162 53,-177 -59,-311 -113,-134 -343,-385 -452,-518 -109,-132 -96,-145 80,-151 175,-7 513,-7 850,-7"
   id="path553"
   inkscape:connector-curvature="0"
   style="fill:none;stroke:#2b2a29;stroke-width:75;stroke-linecap:round;stroke-linejoin:round" />
    <path
   class="fil0 str2"
   d="m 8410,8671 c 74,76 148,151 251,315 103,165 235,419 367,673"
   id="path555"
   inkscape:connector-curvature="0"
   style="fill:none;stroke:#2b2a29;stroke-width:75;stroke-linecap:round;stroke-linejoin:round" />
    <path
   class="fil0 str2"
   d="m 9723,9882 c -80,127 -161,254 -268,373 -107,119 -242,229 -325,429 -84,200 -118,490 -151,779"
   id="path557"
   inkscape:connector-curvature="0"
   style="fill:none;stroke:#2b2a29;stroke-width:75;stroke-linecap:round;stroke-linejoin:round" />
   </g>
   <path
   class="fil0 str3"
   d="m 8838,8360 c 149,-188 299,-376 505,-485 206,-110 467,-142 729,-174"
   id="path561"
   inkscape:connector-curvature="0"
   style="fill:none;stroke:#feec0c;stroke-width:75;stroke-linecap:round;stroke-linejoin:round" />
   <path
   class="fil0 str3"
   d="m 8143,8420 c -78,-180 -156,-360 -304,-505 -147,-144 -365,-254 -583,-364"
   id="path563"
   inkscape:connector-curvature="0"
   style="fill:none;stroke:#feec0c;stroke-width:75;stroke-linecap:round;stroke-linejoin:round" />
   <path
   class="fil0 str3"
   d="m 8508,8180 c -16,-291 -32,-583 28,-906 60,-324 196,-679 332,-1035"
   id="path565"
   inkscape:connector-curvature="0"
   style="fill:none;stroke:#feec0c;stroke-width:75;stroke-linecap:round;stroke-linejoin:round" />
   <path
   class="fil0 str0"
   d="m 6399,15237 c 308,-136 615,-272 923,-408"
   id="path567"
   inkscape:connector-curvature="0"
   style="fill:none;stroke:#2b2a29;stroke-width:75" />
   <path
   class="fil0 str0"
   d="m 7909,14782 c 411,107 823,215 1234,323"
   id="path569"
   inkscape:connector-curvature="0"
   style="fill:none;stroke:#2b2a29;stroke-width:75" />
   <path
   class="fil0 str0"
   d="m 17026,16830 c -255,-72 -511,-144 -766,-215"
   id="path571"
   inkscape:connector-curvature="0"
   style="fill:none;stroke:#2b2a29;stroke-width:75" />
   <path
   class="fil0 str0"
   d="m 13360,16087 c -413,-100 -827,-200 -1240,-300"
   id="path573"
   inkscape:connector-curvature="0"
   style="fill:none;stroke:#2b2a29;stroke-width:75" />
   <path
   class="fil0 str0"
   d="m 10760,9144 c -44,188 -88,375 -80,617 8,242 68,537 196,829 128,291 324,579 425,786 102,208 110,336 118,464"
   id="path575"
   inkscape:connector-curvature="0"
   style="fill:none;stroke:#2b2a29;stroke-width:75" />
   <path
   class="fil0 str0"
   d="m 15541,10234 c -60,240 -120,479 -264,685 -144,206 -371,378 -653,531 -281,154 -617,290 -811,388 -193,97 -245,157 -297,217"
   id="path577"
   inkscape:connector-curvature="0"
   style="fill:none;stroke:#2b2a29;stroke-width:75" />
   <path
   class="fil0 str0"
   d="m 10455,15380 c 235,56 471,112 707,168"
   id="path579"
   inkscape:connector-curvature="0"
   style="fill:none;stroke:#2b2a29;stroke-width:75" />
   <path
   class="fil0 str0"
   d="m 3907,18639 c -244,139 -236,483 -192,671 44,187 124,219 923,459 799,239 2316,687 3107,795 791,107 854,-124 878,-360 24,-236 8,-475 -579,-739 -587,-263 -1745,-551 -2571,-727 -827,-175 -1322,-239 -1566,-99 z"
   id="path581"
   inkscape:connector-curvature="0"
   style="fill:none;stroke:#2b2a29;stroke-width:75" />
  </g>
 </g>
</svg>