<?xml version="1.0" encoding="UTF-8" standalone="no"?>
<!-- Creator: CorelDRAW X7 -->

<svg
   xmlns:dc="http://purl.org/dc/elements/1.1/"
   xmlns:cc="http://creativecommons.org/ns#"
   xmlns:rdf="http://www.w3.org/1999/02/22-rdf-syntax-ns#"
   xmlns:svg="http://www.w3.org/2000/svg"
   xmlns="http://www.w3.org/2000/svg"
   xmlns:sodipodi="http://sodipodi.sourceforge.net/DTD/sodipodi-0.dtd"
   xmlns:inkscape="http://www.inkscape.org/namespaces/inkscape"
   xml:space="preserve"
   width="335"
   height="450"
   version="1.1"
   style="clip-rule:evenodd;fill-rule:evenodd;image-rendering:optimizeQuality;shape-rendering:geometricPrecision;text-rendering:geometricPrecision"
   viewBox="0 0 8863.5422 11906.25"
   id="svg1607"
   sodipodi:docname="light.svg"
   inkscape:version="0.92.4 (5da689c313, 2019-01-14)"><metadata
   id="metadata1611"><rdf:RDF><cc:Work
       rdf:about=""><dc:format>image/svg+xml</dc:format><dc:type
         rdf:resource="http://purl.org/dc/dcmitype/StillImage" /><dc:title></dc:title></cc:Work></rdf:RDF></metadata><sodipodi:namedview
   pagecolor="#ffffff"
   bordercolor="#666666"
   borderopacity="1"
   objecttolerance="10"
   gridtolerance="10"
   guidetolerance="10"
   inkscape:pageopacity="0"
   inkscape:pageshadow="2"
   inkscape:window-width="1920"
   inkscape:window-height="1017"
   id="namedview1609"
   showgrid="false"
   units="px"
   inkscape:zoom="1.1893044"
   inkscape:cx="262.95755"
   inkscape:cy="188.10988"
   inkscape:window-x="-8"
   inkscape:window-y="32"
   inkscape:window-maximized="1"
   inkscape:current-layer="svg1607" />
 <defs
   id="defs1517">
  <style
   type="text/css"
   id="style1515">
   <![CDATA[
    .str0 {stroke:white;stroke-width:75}
    .str1 {stroke:white;stroke-width:75;stroke-linecap:round}
    .fil2 {fill:none}
    .fil1 {fill:#FAFBFC;fill-rule:nonzero}
    .fil0 {fill:white;fill-rule:nonzero}
   ]]>
  </style>
 </defs>
 <g
   id="Слой_x0020_1"
   transform="matrix(0.47141234,0,0,0.47141234,-332.25787,-689.93228)">
  <metadata
   id="CorelCorpID_0Corel-Layer" />
  <g
   id="g1522">
   <path
   class="fil0"
   d="m 13740,19430 41,-62 v 0 l 32,20 32,20 34,19 36,19 36,19 38,18 38,18 40,17 40,17 42,17 42,17 43,16 44,16 45,16 46,15 46,16 47,15 47,14 48,15 49,14 49,15 50,14 49,14 51,13 50,14 51,14 52,13 51,14 52,13 51,13 52,14 52,13 -18,73 -52,-14 -52,-13 -52,-13 -52,-14 -51,-13 -52,-14 -51,-14 -51,-13 -50,-14 -51,-14 -50,-14 -49,-15 -49,-14 -49,-15 -48,-15 -47,-15 -47,-16 -46,-15 -46,-16 -45,-17 -44,-16 -43,-17 -43,-17 -41,-18 -41,-18 -40,-18 -38,-19 -38,-20 -37,-19 -35,-21 -35,-20 z m -398,-765 70,29 v 0 l -6,16 -5,16 -4,17 -3,18 -2,18 -1,19 v 20 l 2,20 2,20 4,21 5,21 5,22 8,22 8,22 9,22 11,23 12,22 13,23 14,23 16,23 16,23 18,23 19,23 21,23 21,23 23,22 24,22 25,22 27,22 28,21 29,21 30,21 -41,62 -32,-21 -31,-23 -30,-22 -28,-23 -27,-24 -26,-24 -24,-24 -23,-24 -22,-25 -21,-25 -20,-25 -18,-25 -17,-25 -16,-25 -14,-26 -13,-25 -12,-25 -11,-26 -9,-25 -8,-25 -7,-25 -6,-24 -4,-25 -3,-24 -2,-24 v -24 l 1,-23 2,-23 4,-22 5,-22 7,-21 z m 592,-217 -29,69 v 0 l -15,-5 -16,-5 -16,-4 -16,-4 -17,-3 -18,-2 -18,-1 h -18 -18 l -18,1 -19,2 -19,3 -18,3 -19,5 -18,4 -18,6 -18,6 -17,7 -17,8 -17,8 -16,10 -16,9 -14,11 -15,10 -13,12 -13,12 -11,13 -11,13 -10,14 -9,14 -8,15 -7,15 -70,-29 10,-20 10,-19 12,-19 13,-17 13,-17 15,-16 16,-15 16,-14 17,-13 18,-12 19,-12 19,-11 19,-10 20,-9 21,-8 20,-7 21,-7 21,-5 22,-5 21,-4 22,-3 21,-2 22,-2 h 21 22 l 21,2 21,2 20,3 21,5 19,5 20,6 z m 43,433 -22,-72 v 0 l 15,-5 13,-6 12,-7 10,-6 9,-8 8,-7 7,-8 5,-9 5,-8 3,-9 3,-9 2,-10 1,-10 v -10 l -1,-10 -1,-11 -3,-11 -3,-12 -5,-11 -5,-11 -6,-12 -7,-11 -8,-11 -9,-11 -9,-10 -11,-10 -11,-10 -11,-9 -13,-8 -13,-8 -13,-7 -14,-7 29,-69 18,9 17,9 17,10 16,11 15,12 14,12 14,13 12,14 11,14 11,14 9,15 9,16 7,16 6,16 5,16 4,16 3,17 1,17 v 17 l -2,16 -3,17 -5,16 -6,16 -8,15 -10,15 -12,13 -13,13 -14,12 -16,11 -18,9 -19,9 z m -1103,-269 35,-66 v 0 l 39,21 38,19 39,19 39,19 39,17 39,17 39,16 39,15 39,14 38,14 38,13 38,12 37,12 37,10 37,10 35,9 35,8 34,7 34,6 33,6 31,5 31,4 30,2 28,3 28,1 h 26 l 25,-1 23,-1 22,-2 20,-3 19,-4 17,-5 22,72 -22,6 -23,5 -24,3 -25,3 -26,1 -28,1 h -28 l -30,-2 -31,-2 -31,-3 -33,-4 -33,-5 -34,-6 -35,-6 -36,-8 -36,-8 -37,-10 -38,-10 -38,-10 -38,-12 -39,-13 -39,-13 -40,-14 -40,-15 -40,-16 -40,-16 -40,-17 -40,-18 -40,-19 -40,-19 -40,-21 z m -1031,-869 59,-47 v 0 l 22,27 23,28 23,27 24,28 25,28 26,29 27,28 27,28 28,29 28,29 29,28 30,29 30,28 31,28 31,29 32,28 33,27 33,28 33,27 34,27 35,27 34,27 36,26 35,25 36,25 37,25 37,24 37,23 37,23 38,23 38,21 38,21 -35,66 -40,-21 -39,-22 -39,-23 -38,-24 -38,-24 -38,-25 -37,-25 -37,-26 -36,-26 -36,-26 -36,-27 -35,-28 -35,-27 -34,-28 -34,-28 -33,-29 -32,-28 -32,-29 -32,-29 -31,-29 -30,-29 -30,-29 -29,-29 -28,-29 -28,-30 -27,-29 -26,-28 -26,-29 -25,-29 -24,-28 -23,-28 z m -435,-780 69,-28 10,22 9,22 9,23 9,22 10,23 9,22 10,23 10,22 10,23 10,22 10,23 11,23 11,23 11,23 12,23 12,23 12,24 13,23 13,24 14,24 14,24 15,24 15,25 16,24 16,25 17,25 18,26 18,25 19,26 20,27 20,26 22,27 -59,47 -22,-28 -21,-27 -20,-27 -20,-27 -18,-26 -19,-26 -17,-26 -17,-26 -16,-25 -16,-26 -15,-25 -15,-25 -14,-24 -14,-25 -13,-24 -13,-24 -12,-24 -12,-24 -12,-24 -11,-23 -11,-23 -10,-24 -11,-23 -10,-23 -10,-23 -10,-22 -9,-23 -10,-23 -9,-23 -10,-22 -9,-23 z m -65,-258 407,400 -16,-1 h -15 -15 -16 -15 l -14,1 -15,2 -14,2 -15,2 -14,3 -14,3 -13,3 -14,4 -13,5 -14,4 -13,5 -13,6 -12,6 -13,6 -12,7 -13,7 -12,8 -12,8 -12,8 -11,9 -12,9 -11,10 -11,10 -11,10 -11,11 -10,11 -11,12 v 0 z"
   id="path1520"
   inkscape:connector-curvature="0"
   style="fill:#ffffff;fill-rule:nonzero" />
  </g>
  <path
   class="fil1"
   d="m 13628,21267 c 0,9 -5,20 -16,36 -11,15 -30,23 -58,23 -34,0 -65,-29 -92,-87 -27,-58 -46,-122 -58,-191 -4,-23 -9,-50 -16,-80 -2,-6 -3,-17 -5,-33 -2,-17 -3,-26 -4,-28 -6,11 -12,24 -18,38 -43,96 -90,183 -141,262 l -6,12 c -3,4 -5,7 -8,10 -42,77 -77,115 -105,115 -39,0 -58,-17 -58,-52 0,-27 18,-62 55,-105 44,-54 101,-148 171,-283 l 73,-141 c 8,-14 21,-21 40,-21 11,1 25,4 40,11 16,6 26,14 31,23 5,10 9,25 14,46 25,116 47,208 68,275 20,68 42,110 65,127 19,10 28,24 28,43 z"
   id="path1524"
   inkscape:connector-curvature="0"
   style="fill:#fafbfc;fill-rule:nonzero" />
  <path
   id="1"
   class="fil1"
   d="m 14176,21132 c 0,36 -30,79 -90,129 -61,50 -129,75 -205,75 -58,0 -103,-18 -137,-55 -33,-37 -50,-88 -50,-153 0,-97 34,-187 101,-272 69,-84 141,-127 219,-127 39,0 70,12 93,37 24,24 35,53 35,87 0,60 -28,117 -86,172 -57,54 -131,92 -221,112 -10,3 -15,9 -15,19 0,17 7,32 22,47 15,15 34,23 58,23 70,0 138,-36 207,-108 13,-13 25,-20 38,-20 20,0 31,11 31,34 z m -347,-91 c 54,-11 102,-34 144,-70 41,-35 62,-67 62,-97 0,-11 -3,-20 -10,-28 -6,-8 -14,-12 -24,-12 -30,0 -64,22 -100,67 -36,44 -60,91 -72,140 z"
   inkscape:connector-curvature="0"
   style="fill:#fafbfc;fill-rule:nonzero" />
  <path
   id="2"
   class="fil1"
   d="m 14380,21190 c 0,9 5,18 16,25 12,8 21,11 30,11 60,0 112,-10 156,-31 26,-13 46,-20 59,-20 23,0 34,12 34,36 0,33 -26,60 -78,82 -51,23 -115,34 -190,34 -45,0 -84,-13 -117,-39 -32,-27 -49,-60 -49,-101 0,-35 12,-70 34,-104 23,-34 80,-75 170,-123 41,-22 68,-38 81,-49 13,-11 19,-22 19,-33 0,-9 -4,-16 -11,-22 -8,-5 -13,-8 -17,-8 -22,0 -67,15 -137,44 -7,4 -14,5 -21,5 -32,0 -49,-11 -49,-32 0,-37 29,-66 86,-89 58,-23 107,-35 149,-35 37,0 69,12 97,36 28,24 42,54 42,88 0,30 -11,60 -33,88 -22,28 -69,62 -141,102 -50,28 -84,52 -103,72 -18,21 -27,42 -27,63 z"
   inkscape:connector-curvature="0"
   style="fill:#fafbfc;fill-rule:nonzero" />
  <path
   id="3"
   class="fil1"
   d="m 15048,21036 c 15,4 30,10 43,20 14,10 30,27 48,53 36,49 65,82 85,97 21,15 43,23 68,23 26,0 38,8 38,24 0,15 -8,30 -26,46 -18,16 -45,23 -83,23 -58,0 -118,-48 -178,-144 -35,-56 -64,-84 -87,-84 -3,0 -12,2 -25,7 -14,4 -23,8 -27,12 -4,3 -7,25 -10,66 l -6,95 c 0,15 -6,29 -19,40 -12,11 -27,17 -44,17 -20,0 -34,-6 -45,-16 -11,-11 -16,-21 -16,-32 0,-13 4,-41 13,-84 20,-109 36,-241 48,-398 2,-20 10,-38 25,-55 15,-16 33,-25 53,-25 14,0 26,6 35,18 10,12 14,26 14,42 0,13 -2,25 -6,38 -5,15 -12,45 -22,91 -9,46 -15,81 -17,105 41,-13 73,-30 96,-52 22,-22 51,-57 84,-106 29,-40 55,-70 80,-89 25,-19 52,-29 81,-29 16,0 32,7 46,21 14,13 21,28 21,43 0,13 -4,22 -12,29 -8,6 -21,12 -41,18 -24,7 -50,27 -78,59 -58,67 -103,109 -136,127 z"
   inkscape:connector-curvature="0"
   style="fill:#fafbfc;fill-rule:nonzero" />
  <path
   id="4"
   class="fil1"
   d="m 15885,21031 c -23,80 -67,148 -131,204 -65,55 -129,83 -194,83 -51,0 -93,-19 -126,-56 -33,-37 -50,-83 -50,-138 0,-88 30,-176 91,-262 60,-86 134,-130 220,-130 59,0 107,22 143,65 37,44 56,96 56,156 0,26 -3,52 -9,77 z m -269,-163 c -24,21 -48,55 -71,102 -23,47 -34,94 -34,141 0,29 5,53 16,71 10,19 24,28 41,28 43,0 87,-26 134,-76 46,-51 69,-108 69,-171 0,-35 -8,-65 -23,-87 -15,-23 -36,-35 -63,-35 -25,0 -48,9 -69,27 z"
   inkscape:connector-curvature="0"
   style="fill:#fafbfc;fill-rule:nonzero" />
  <path
   id="5"
   class="fil1"
   d="m 16468,21109 c 0,36 -30,78 -90,128 -60,50 -128,75 -204,75 -58,0 -104,-18 -137,-55 -34,-36 -51,-87 -51,-153 0,-96 34,-187 102,-271 68,-85 141,-127 218,-127 39,0 70,12 94,36 23,25 35,54 35,88 0,60 -29,117 -86,171 -58,54 -131,92 -221,113 -11,2 -16,8 -16,18 0,17 8,33 22,48 15,15 35,22 59,22 69,0 138,-36 206,-107 13,-14 26,-21 38,-21 21,0 31,12 31,35 z m -347,-91 c 55,-11 103,-35 144,-70 42,-36 62,-68 62,-97 0,-11 -3,-21 -9,-29 -6,-7 -15,-11 -25,-11 -30,0 -63,22 -99,66 -37,44 -61,91 -73,141 z"
   inkscape:connector-curvature="0"
   style="fill:#fafbfc;fill-rule:nonzero" />
  <path
   id="6"
   class="fil1"
   d="m 10949,22321 c 0,44 -13,90 -38,138 -26,48 -52,78 -78,89 l -16,2 c -22,0 -33,-11 -33,-33 0,-7 5,-24 16,-51 12,-29 20,-58 24,-86 l 1,-11 v -10 c -14,5 -28,8 -40,8 -16,0 -27,-6 -34,-18 -6,-13 -10,-36 -10,-69 0,-21 7,-68 21,-141 -66,139 -153,209 -260,209 -28,0 -55,-14 -81,-42 -26,-29 -40,-71 -40,-128 0,-45 10,-107 30,-188 18,-74 27,-125 27,-153 15,-29 36,-44 65,-44 20,0 36,7 48,20 12,13 18,27 18,40 0,25 -9,60 -26,105 -29,80 -44,149 -44,208 0,44 6,67 18,67 49,0 102,-40 159,-118 56,-79 90,-145 102,-198 9,-37 18,-61 27,-72 9,-11 26,-17 49,-17 16,0 29,4 37,12 8,8 12,28 12,60 0,20 -6,60 -19,118 -5,23 -11,59 -17,109 -7,50 -10,88 -10,114 0,13 1,23 3,29 4,-2 8,-4 10,-5 6,-3 13,-4 20,-4 19,0 34,4 44,13 10,9 15,19 15,30 z"
   inkscape:connector-curvature="0"
   style="fill:#fafbfc;fill-rule:nonzero" />
  <path
   id="7"
   class="fil1"
   d="m 11466,22156 c 0,36 -30,79 -90,129 -60,49 -128,74 -204,74 -59,1 -104,-18 -138,-54 -33,-37 -50,-88 -50,-153 0,-97 34,-187 102,-272 68,-84 141,-127 218,-127 39,0 70,12 93,37 24,24 35,53 36,87 0,60 -29,117 -87,171 -57,55 -131,92 -221,113 -10,3 -15,9 -15,19 0,16 7,32 22,47 15,15 34,23 59,22 69,0 138,-36 206,-107 13,-14 26,-21 38,-21 21,0 31,12 31,35 z m -347,-91 c 55,-11 103,-34 144,-70 41,-36 62,-68 62,-97 0,-11 -3,-21 -10,-28 -6,-8 -14,-12 -24,-12 -30,0 -63,22 -100,66 -36,44 -60,91 -72,141 z"
   inkscape:connector-curvature="0"
   style="fill:#fafbfc;fill-rule:nonzero" />
  <path
   id="8"
   class="fil1"
   d="m 12027,22117 c 1,79 13,128 37,147 14,12 21,23 21,33 0,12 -9,24 -27,35 -17,11 -34,17 -50,17 -31,0 -55,-19 -71,-56 -17,-38 -26,-92 -26,-163 v -36 c 0,-1 -7,-2 -23,-2 -36,0 -78,3 -126,9 -47,7 -70,13 -70,21 0,13 -4,31 -11,56 -4,12 -6,24 -6,37 l 3,44 c 0,24 -6,44 -19,61 -12,18 -29,26 -52,26 -40,0 -60,-22 -60,-68 l 2,-43 c 0,-11 3,-37 10,-81 10,-57 17,-131 22,-222 l 8,-111 c 1,-11 9,-23 24,-35 15,-12 32,-18 50,-18 37,0 56,14 56,42 0,0 -1,4 -2,12 -15,96 -23,158 -23,185 0,2 0,3 1,3 2,2 49,-1 140,-10 45,-4 72,-8 80,-11 4,-1 9,-32 13,-91 5,-55 14,-92 28,-111 13,-19 32,-28 55,-28 23,0 39,5 50,15 11,11 15,25 12,42 l -9,39 c -1,7 -4,17 -8,32 -20,69 -30,134 -30,196 z"
   inkscape:connector-curvature="0"
   style="fill:#fafbfc;fill-rule:nonzero" />
  <path
   id="9"
   class="fil1"
   d="m 12661,22060 c -23,80 -67,148 -132,204 -64,55 -129,83 -193,83 -51,0 -93,-19 -126,-56 -33,-37 -50,-83 -50,-137 0,-89 30,-177 91,-263 60,-86 133,-130 220,-130 59,0 107,22 143,65 37,44 55,96 55,156 0,26 -3,52 -8,77 z m -269,-163 c -24,21 -48,55 -71,102 -23,47 -35,94 -34,141 0,29 5,53 15,71 11,19 25,28 42,28 43,0 87,-25 133,-76 46,-51 69,-108 69,-171 0,-35 -7,-65 -22,-87 -15,-23 -36,-35 -63,-35 -26,0 -48,9 -69,27 z"
   inkscape:connector-curvature="0"
   style="fill:#fafbfc;fill-rule:nonzero" />
  <path
   id="10"
   class="fil1"
   d="m 13257,22054 c -23,80 -67,148 -131,204 -65,55 -129,83 -194,83 -51,0 -93,-19 -126,-56 -33,-37 -50,-83 -50,-138 0,-88 30,-176 91,-262 60,-86 134,-130 220,-130 59,0 107,22 144,65 36,44 55,96 55,156 0,26 -3,52 -9,77 z m -269,-163 c -24,21 -48,55 -71,102 -23,47 -34,94 -34,141 0,29 5,52 16,71 10,19 24,28 41,28 43,0 87,-26 134,-76 46,-51 69,-108 69,-171 0,-35 -8,-65 -23,-88 -15,-22 -36,-34 -63,-34 -25,0 -48,9 -69,27 z"
   inkscape:connector-curvature="0"
   style="fill:#fafbfc;fill-rule:nonzero" />
  <path
   id="11"
   class="fil1"
   d="m 13648,21743 c -18,-25 -50,-57 -94,-95 -45,-38 -67,-68 -67,-92 0,-18 4,-34 12,-46 9,-13 18,-21 29,-26 10,-5 34,-12 71,-21 93,-23 172,-46 236,-70 12,-5 23,-8 33,-8 24,0 37,14 37,41 0,17 -21,36 -61,57 -41,21 -109,43 -205,66 -14,2 -21,6 -20,14 -1,4 13,17 41,38 108,84 162,198 162,343 0,56 -15,117 -46,184 -31,66 -72,115 -124,147 -51,32 -101,48 -150,48 -46,1 -83,-21 -109,-63 -26,-42 -39,-91 -39,-147 -1,-90 28,-176 86,-255 58,-80 119,-120 182,-120 z m -168,366 c 0,72 11,108 33,108 19,0 45,-12 77,-38 33,-25 59,-62 79,-110 20,-48 30,-93 30,-135 -1,-35 -3,-62 -9,-81 -6,-20 -11,-30 -16,-30 -53,1 -98,34 -137,102 -38,68 -57,129 -57,184 z"
   inkscape:connector-curvature="0"
   style="fill:#fafbfc;fill-rule:nonzero" />
  <path
   id="12"
   class="fil1"
   d="m 14032,22271 c -7,28 -15,79 -26,154 -10,75 -16,125 -18,151 -2,26 -11,47 -27,66 -15,17 -29,26 -42,26 -15,0 -30,-5 -46,-17 -15,-12 -23,-25 -23,-38 0,-28 5,-60 13,-97 52,-206 79,-419 84,-638 v -11 c 0,-42 1,-71 4,-86 3,-15 11,-30 26,-43 14,-14 31,-21 51,-21 16,0 30,7 41,22 10,15 15,36 15,64 0,28 -5,78 -15,148 38,-63 84,-116 137,-158 53,-42 102,-63 145,-63 39,0 72,14 99,41 27,28 41,62 41,104 0,111 -43,212 -129,304 -86,91 -172,137 -256,137 -39,0 -64,-15 -74,-45 z m 299,-424 c -42,0 -96,41 -163,123 -67,83 -100,147 -100,194 0,12 6,23 18,32 12,10 26,14 41,14 44,0 94,-34 151,-103 56,-69 85,-135 85,-199 0,-22 -4,-37 -10,-47 -7,-9 -14,-14 -22,-14 z"
   inkscape:connector-curvature="0"
   style="fill:#fafbfc;fill-rule:nonzero" />
  <path
   id="13"
   class="fil1"
   d="m 14942,22125 c -90,119 -176,179 -260,179 -31,0 -57,-12 -80,-37 -22,-24 -33,-55 -33,-93 0,-92 40,-189 121,-292 81,-104 163,-155 246,-155 42,0 69,21 83,63 39,0 59,15 59,45 0,15 -4,41 -11,79 -14,71 -21,128 -20,170 0,44 3,75 9,93 6,18 10,30 13,35 3,6 11,12 25,18 14,6 20,15 20,27 0,18 -8,32 -26,44 -18,12 -36,18 -56,18 -32,0 -55,-16 -70,-49 -14,-32 -21,-70 -21,-113 v -16 c 0,-5 0,-11 1,-16 z m -29,-288 c -35,0 -80,39 -135,116 -56,77 -83,142 -83,196 0,28 6,43 17,43 41,0 91,-37 150,-109 59,-72 89,-135 89,-190 0,-17 -4,-30 -12,-41 -7,-10 -16,-15 -26,-15 z"
   inkscape:connector-curvature="0"
   style="fill:#fafbfc;fill-rule:nonzero" />
  <path
   id="14"
   class="fil1"
   d="m 15488,21970 c 38,5 70,21 95,48 25,27 38,57 38,92 0,59 -26,109 -78,151 -52,41 -120,62 -203,62 -50,0 -94,-12 -130,-36 -37,-24 -56,-49 -56,-77 0,-10 4,-19 13,-27 9,-8 21,-12 37,-12 8,0 16,4 26,13 39,28 79,43 121,42 41,0 75,-10 104,-31 28,-22 43,-49 43,-84 0,-22 -9,-40 -25,-54 -16,-14 -35,-21 -55,-21 -13,0 -29,2 -47,8 -14,3 -26,7 -36,11 -11,3 -23,5 -38,5 -30,0 -45,-17 -45,-50 -1,-11 5,-21 15,-29 10,-7 32,-15 64,-22 93,-19 139,-55 139,-108 0,-14 -5,-26 -16,-35 -12,-10 -25,-15 -40,-15 -30,0 -62,15 -97,44 -26,21 -47,31 -65,31 -13,0 -24,-4 -33,-12 -8,-9 -13,-19 -13,-31 0,-30 24,-57 71,-83 47,-26 99,-39 155,-39 51,0 91,11 119,34 28,22 43,50 43,84 0,60 -35,107 -106,141 z"
   inkscape:connector-curvature="0"
   style="fill:#fafbfc;fill-rule:nonzero" />
  <path
   id="15"
   class="fil1"
   d="m 16194,22023 c -23,81 -66,149 -131,205 -64,55 -129,83 -193,83 -51,0 -93,-19 -127,-56 -33,-37 -49,-83 -50,-138 0,-89 31,-176 91,-262 61,-87 134,-130 221,-130 59,0 106,22 143,65 36,44 55,96 55,156 0,26 -3,52 -9,77 z m -269,-162 c -24,21 -48,55 -70,102 -24,47 -35,94 -35,141 0,29 5,52 16,71 11,19 24,28 42,28 42,0 87,-26 133,-76 46,-51 69,-108 69,-171 0,-36 -8,-65 -23,-88 -15,-23 -36,-34 -63,-34 -25,0 -48,9 -68,27 z"
   inkscape:connector-curvature="0"
   style="fill:#fafbfc;fill-rule:nonzero" />
  <path
   id="16"
   class="fil1"
   d="m 16653,21753 c 34,18 60,46 79,85 18,40 27,85 27,138 1,89 -28,167 -86,234 -57,67 -119,100 -186,100 -62,0 -110,-23 -145,-69 -35,-47 -53,-115 -53,-206 0,-107 19,-216 57,-325 39,-109 85,-191 141,-247 56,-55 114,-82 175,-82 40,0 72,12 95,37 24,25 36,59 36,102 0,31 -13,68 -39,111 -26,43 -60,84 -101,122 z m -211,54 c 108,-87 173,-149 196,-186 23,-37 35,-67 35,-88 -1,-29 -10,-44 -28,-44 -32,0 -68,29 -106,87 -38,58 -70,135 -97,231 z m 187,179 c 0,-40 -6,-74 -18,-102 -11,-28 -28,-43 -50,-47 -1,0 -8,5 -20,14 l -122,92 c -4,29 -6,59 -6,89 0,112 27,167 82,167 39,0 71,-22 96,-65 26,-44 38,-91 38,-144 z"
   inkscape:connector-curvature="0"
   style="fill:#fafbfc;fill-rule:nonzero" />
  <path
   id="17"
   class="fil1"
   d="m 17193,22102 c -90,119 -176,179 -259,179 -31,0 -58,-13 -81,-37 -22,-24 -33,-56 -33,-93 0,-92 40,-189 121,-292 81,-104 163,-155 246,-155 42,-1 69,21 83,63 39,0 59,15 59,45 0,15 -4,41 -11,79 -14,71 -21,127 -20,170 0,44 3,75 9,93 6,18 10,30 13,35 3,6 11,11 25,18 14,6 20,15 21,27 0,17 -9,32 -27,44 -18,12 -36,17 -56,18 -32,0 -55,-17 -70,-49 -14,-32 -21,-70 -21,-114 v -15 c 0,-5 0,-11 1,-16 z m -29,-288 c -34,0 -80,39 -135,116 -56,77 -83,142 -83,196 0,28 6,42 17,42 41,0 91,-36 150,-108 60,-72 89,-136 89,-190 0,-17 -4,-31 -12,-41 -7,-10 -16,-15 -26,-15 z"
   inkscape:connector-curvature="0"
   style="fill:#fafbfc;fill-rule:nonzero" />
  <path
   id="18"
   class="fil1"
   d="m 17936,22057 c 1,78 13,127 37,146 14,12 21,23 21,33 0,13 -9,24 -26,36 -18,11 -35,16 -50,16 -32,0 -55,-19 -72,-56 -17,-37 -25,-91 -26,-162 l 1,-36 c 0,-2 -8,-2 -24,-2 -36,-1 -78,3 -125,9 -47,6 -71,13 -71,21 0,12 -4,30 -11,55 -4,12 -6,25 -5,38 l 2,43 c 0,24 -6,45 -18,62 -12,17 -30,26 -53,26 -40,0 -60,-23 -60,-68 l 2,-44 c 0,-10 4,-37 11,-81 9,-57 17,-131 21,-221 l 9,-112 c 0,-11 8,-22 23,-35 15,-12 32,-18 50,-18 37,0 56,14 56,42 0,0 -1,4 -2,12 -15,97 -23,158 -23,185 0,2 1,3 1,4 3,2 49,-2 140,-10 45,-5 72,-9 80,-11 4,-2 9,-32 14,-92 4,-55 13,-92 27,-111 13,-19 32,-28 55,-28 23,0 40,5 50,16 11,10 15,24 12,42 l -8,39 c -2,6 -5,17 -9,31 -20,69 -30,135 -30,197 z"
   inkscape:connector-curvature="0"
   style="fill:#fafbfc;fill-rule:nonzero" />
  <path
   id="19"
   class="fil1"
   d="m 18445,22072 c -33,60 -71,108 -114,144 -44,35 -88,53 -133,53 -26,0 -53,-13 -80,-41 -27,-28 -41,-71 -41,-129 0,-41 10,-103 31,-186 17,-68 26,-120 26,-155 14,-29 36,-44 65,-44 20,0 36,7 48,20 12,13 17,27 18,40 0,25 -9,60 -26,105 -10,26 -21,65 -32,114 -12,49 -17,80 -17,94 0,46 9,69 28,69 30,0 70,-29 121,-87 51,-57 84,-116 100,-177 15,-59 29,-97 41,-116 12,-18 29,-27 51,-27 36,0 54,20 54,60 0,6 -3,17 -9,35 -20,61 -30,130 -30,206 0,90 15,143 46,161 10,6 15,13 15,22 0,12 -9,24 -26,35 -18,11 -35,16 -51,16 -27,0 -48,-19 -62,-57 -15,-39 -23,-90 -23,-155 z"
   inkscape:connector-curvature="0"
   style="fill:#fafbfc;fill-rule:nonzero" />
  <path
   id="20"
   class="fil1"
   d="m 19187,22077 c 0,36 -30,78 -90,128 -60,50 -128,75 -204,75 -58,0 -104,-18 -138,-55 -33,-36 -50,-87 -50,-153 0,-96 34,-187 102,-271 68,-85 141,-127 218,-127 39,0 70,12 94,36 23,25 35,54 35,88 0,60 -29,117 -86,171 -58,55 -131,92 -221,113 -11,2 -16,9 -16,19 0,16 8,32 22,47 15,15 35,22 59,22 69,0 138,-36 206,-107 13,-14 26,-21 38,-21 21,0 31,12 31,35 z m -347,-91 c 55,-11 103,-35 144,-70 42,-36 62,-68 62,-97 0,-11 -3,-21 -9,-29 -7,-7 -15,-11 -25,-11 -30,0 -63,22 -99,66 -37,44 -61,91 -73,141 z"
   inkscape:connector-curvature="0"
   style="fill:#fafbfc;fill-rule:nonzero" />
  <path
   class="fil2 str0"
   d="m 10644,7326 c -40,119 -81,238 -77,348 3,110 51,212 -28,324 -78,112 -284,234 -575,334 -291,100 -668,178 -927,169 -259,-9 -401,-104 -455,-191 -54,-86 -22,-163 14,-216 35,-53 75,-82 73,-142 -2,-59 -46,-150 -51,-247 -4,-97 30,-201 64,-304"
   id="path1546"
   inkscape:connector-curvature="0"
   style="fill:none;stroke:#ffffff;stroke-width:75" />
  <path
   class="fil2 str0"
   d="m 7202,8371 c -290,486 -580,971 -923,1666 -344,694 -740,1598 -1033,2382 -292,783 -480,1448 -687,2159 -208,710 -434,1467 -706,2115 -271,648 -587,1186 -668,1768 -81,583 73,1209 -141,1872 -215,662 -798,1361 -1180,1926 -381,565 -562,996 -592,1392 -30,395 91,754 218,907 126,153 257,99 761,-107 503,-206 1378,-564 2306,-918 928,-355 1909,-705 2654,-882 745,-177 1254,-181 1685,-191 430,-10 781,-26 837,-202 55,-176 -184,-513 -293,-966 -109,-454 -88,-1025 111,-1757 198,-733 573,-1627 766,-2434 194,-808 206,-1528 190,-2160 -16,-632 -60,-1176 25,-1811 85,-635 299,-1362 570,-2073 271,-711 599,-1408 695,-1983 97,-576 -39,-1032 -318,-1351 -278,-318 -701,-500 -1123,-681"
   id="path1548"
   inkscape:connector-curvature="0"
   style="fill:none;stroke:#ffffff;stroke-width:75" />
  <path
   class="fil2 str0"
   d="m 10372,7035 c 385,184 770,368 988,616 218,248 269,559 225,858 -44,299 -182,585 -573,847 -391,263 -1034,500 -1682,510 -647,9 -1299,-209 -1687,-472 -389,-262 -514,-569 -503,-791 12,-221 160,-359 437,-523 278,-165 685,-357 1092,-549"
   id="path1550"
   inkscape:connector-curvature="0"
   style="fill:none;stroke:#ffffff;stroke-width:75" />
  <path
   class="fil2 str0"
   d="m 11302,10525 c -590,251 -1180,502 -1790,577 -609,76 -1238,-25 -1784,-236 -546,-210 -1010,-532 -1473,-853"
   id="path1552"
   inkscape:connector-curvature="0"
   style="fill:none;stroke:#ffffff;stroke-width:75" />
  <path
   class="fil2 str0"
   d="m 10400,16795 c -585,249 -1169,498 -1782,715 -612,217 -1251,402 -1853,367 -602,-34 -1166,-289 -1618,-594 -452,-305 -793,-661 -1133,-1017"
   id="path1554"
   inkscape:connector-curvature="0"
   style="fill:none;stroke:#ffffff;stroke-width:75" />
  <path
   class="fil2 str0"
   d="m 7423,22631 c -39,-220 -78,-440 -117,-661"
   id="path1556"
   inkscape:connector-curvature="0"
   style="fill:none;stroke:#ffffff;stroke-width:75" />
  <path
   class="fil2 str0"
   d="m 8671,8076 c 252,37 504,75 724,68 221,-8 410,-60 600,-112"
   id="path1558"
   inkscape:connector-curvature="0"
   style="fill:none;stroke:#ffffff;stroke-width:75" />
  <path
   class="fil2 str0"
   d="m 8716,7483 c -88,-200 -177,-401 -450,-554 -274,-153 -732,-259 -1024,-472 -291,-213 -415,-532 -439,-778 -24,-246 52,-418 128,-576 75,-159 150,-304 202,-348 53,-44 83,14 113,72 m 3154,2465 c -54,-368 -109,-735 -335,-1032 -227,-297 -626,-523 -1066,-614 -440,-92 -920,-48 -1219,-147 -299,-98 -416,-337 -482,-489 -65,-152 -79,-217 -92,-281 m 3194,2549 c -40,196 -79,393 -296,508 -217,115 -612,149 -878,78 -266,-71 -404,-246 -541,-421"
   id="path1560"
   inkscape:connector-curvature="0"
   style="fill:none;stroke:#ffffff;stroke-width:75" />
  <path
   class="fil2 str0"
   d="m 9516,21564 c -438,116 -876,231 -1262,287 -386,55 -720,52 -1553,239 -834,188 -2167,567 -3019,872 -853,304 -1225,533 -1547,700 -321,166 -591,270 -862,375"
   id="path1562"
   inkscape:connector-curvature="0"
   style="fill:none;stroke:#ffffff;stroke-width:75" />
  <path
   class="fil2 str0"
   d="m 2589,24303 c -60,-116 -120,-232 -158,-357 -39,-125 -55,-258 -72,-392"
   id="path1564"
   inkscape:connector-curvature="0"
   style="fill:none;stroke:#ffffff;stroke-width:75" />
  <path
   class="fil2 str0"
   d="m 3246,24034 c -61,-71 -122,-142 -164,-275 -41,-133 -64,-328 -86,-523"
   id="path1566"
   inkscape:connector-curvature="0"
   style="fill:none;stroke:#ffffff;stroke-width:75" />
  <path
   class="fil2 str0"
   d="m 4017,23719 c -93,-135 -186,-269 -247,-394 -61,-125 -89,-242 -118,-358"
   id="path1568"
   inkscape:connector-curvature="0"
   style="fill:none;stroke:#ffffff;stroke-width:75" />
  <path
   class="fil2 str0"
   d="m 6963,22724 c -57,-92 -113,-184 -141,-291 -28,-106 -27,-228 -31,-294 -4,-65 -14,-74 -16,-79 -3,-5 3,-8 8,-10"
   id="path1570"
   inkscape:connector-curvature="0"
   style="fill:none;stroke:#ffffff;stroke-width:75" />
  <path
   class="fil2 str0"
   d="m 6444,22860 c -38,-125 -77,-250 -103,-361 -26,-110 -40,-207 -54,-303"
   id="path1572"
   inkscape:connector-curvature="0"
   style="fill:none;stroke:#ffffff;stroke-width:75" />
  <path
   class="fil2 str0"
   d="m 7200,3163 c -119,-386 119,-866 433,-1033 315,-167 707,-21 964,231 257,253 378,612 301,924 -76,313 -351,578 -726,566 -376,-12 -852,-303 -972,-688 z"
   id="path1574"
   inkscape:connector-curvature="0"
   style="fill:none;stroke:#ffffff;stroke-width:75" />
  <path
   class="fil2 str0"
   d="m 5814,2502 c 55,-228 -137,-613 -356,-729 -219,-117 -463,35 -644,185 -181,151 -299,301 -231,454 67,153 319,308 596,350 278,41 580,-31 635,-260 z"
   id="path1576"
   inkscape:connector-curvature="0"
   style="fill:none;stroke:#ffffff;stroke-width:75" />
  <path
   class="fil2 str0"
   d="m 10362,7044 c -49,-282 -122,-554 -297,-784 -227,-297 -626,-523 -1066,-614 -440,-92 -920,-48 -1219,-147 -299,-98 -416,-337 -482,-489 -50,-118 -70,-183 -82,-236 -22,-32 -47,-49 -83,-19 -52,44 -127,189 -202,348 -76,158 -152,330 -128,576 24,246 148,565 439,778 292,213 750,319 1024,472 238,133 336,302 415,476 12,25 23,50 34,76 128,162 264,317 511,383 266,71 661,37 878,-78 216,-115 256,-310 295,-505 -12,-79 -24,-158 -37,-237 z"
   id="path1578"
   inkscape:connector-curvature="0"
   style="fill:none;stroke:#ffffff;stroke-width:75" />
  <path
   class="fil2 str0"
   d="m 5589,14871 c -12,-341 -12,-729 85,-1094 97,-364 291,-705 632,-960 340,-255 826,-425 1300,-437 473,-12 935,134 1300,389 364,255 631,619 741,1057 109,437 60,947 -73,1361 -134,413 -353,728 -729,886 -377,158 -911,158 -1470,85 -559,-72 -1142,-218 -1446,-437 -304,-219 -328,-510 -340,-850 z"
   id="path1580"
   inkscape:connector-curvature="0"
   style="fill:none;stroke:#ffffff;stroke-width:75" />
  <path
   class="fil2 str0"
   d="m 5768,13507 c 103,-49 206,-97 331,-122 125,-24 270,-24 401,-63 131,-40 246,-119 380,-216 133,-97 285,-213 419,-340 133,-128 249,-268 364,-407"
   id="path1582"
   inkscape:connector-curvature="0"
   style="fill:none;stroke:#ffffff;stroke-width:75" />
  <path
   class="fil2 str0"
   d="m 5622,14345 c 164,-170 328,-340 535,-401 206,-61 455,-12 638,-54 182,-43 297,-177 431,-307 133,-131 285,-258 547,-407 261,-149 631,-319 1002,-489"
   id="path1584"
   inkscape:connector-curvature="0"
   style="fill:none;stroke:#ffffff;stroke-width:75" />
  <path
   class="fil2 str0"
   d="m 5877,15256 c 170,-115 340,-230 504,-349 164,-118 322,-240 462,-322 140,-82 261,-124 395,-209 134,-86 279,-213 407,-332 128,-118 237,-227 419,-288 182,-61 438,-73 684,-94 246,-22 483,-52 719,-82"
   id="path1586"
   inkscape:connector-curvature="0"
   style="fill:none;stroke:#ffffff;stroke-width:75" />
  <path
   class="fil2 str0"
   d="m 6224,15730 c 91,-133 182,-267 312,-370 131,-104 301,-177 514,-234 212,-58 467,-100 713,-119 246,-18 483,-12 663,-76 179,-63 300,-197 486,-355 185,-158 434,-340 683,-522"
   id="path1588"
   inkscape:connector-curvature="0"
   style="fill:none;stroke:#ffffff;stroke-width:75" />
  <path
   class="fil2 str0"
   d="m 8559,14008 c -161,9 -428,64 -577,146 -149,82 -179,191 -158,276 21,85 94,146 213,167 118,22 282,3 410,-48 127,-52 219,-137 276,-222 58,-85 82,-170 67,-231 -15,-61 -70,-97 -231,-88 z"
   id="path1590"
   inkscape:connector-curvature="0"
   style="fill:none;stroke:#ffffff;stroke-width:75" />
  <path
   class="fil2 str0"
   d="m 8793,11994 c 195,85 389,170 520,258 130,88 197,180 243,265 45,85 69,164 82,209 12,46 12,58 12,79 0,21 0,52 0,82"
   id="path1592"
   inkscape:connector-curvature="0"
   style="fill:none;stroke:#ffffff;stroke-width:75" />
  <path
   class="fil2 str0"
   d="m 9777,13124 c 25,97 49,195 61,249 12,55 12,67 12,79"
   id="path1594"
   inkscape:connector-curvature="0"
   style="fill:none;stroke:#ffffff;stroke-width:75" />
  <path
   class="fil2 str0"
   d="m 5276,15056 c 6,182 12,364 115,507 104,143 304,246 504,349"
   id="path1596"
   inkscape:connector-curvature="0"
   style="fill:none;stroke:#ffffff;stroke-width:75" />
  <path
   class="fil2 str0"
   d="m 5021,15584 c 48,92 97,183 173,256 76,72 179,127 282,182"
   id="path1598"
   inkscape:connector-curvature="0"
   style="fill:none;stroke:#ffffff;stroke-width:75" />
  <path
   class="fil2 str0"
   d="m 871,25131 c 282,282 565,564 882,576 318,12 670,-247 1000,-435 329,-188 635,-306 940,-423"
   id="path1600"
   inkscape:connector-curvature="0"
   style="fill:none;stroke:#ffffff;stroke-width:75" />
  <path
   class="fil2 str0"
   d="m 1083,26260 c 211,94 423,188 647,164 223,-23 458,-164 693,-305"
   id="path1602"
   inkscape:connector-curvature="0"
   style="fill:none;stroke:#ffffff;stroke-width:75" />
  <polyline
   class="fil2 str1"
   points="7936,2343 8530,2678 8698,3211 "
   id="polyline1604"
   style="fill:none;stroke:#ffffff;stroke-width:75;stroke-linecap:round" />
 </g>
</svg>