<?xml version="1.0" encoding="UTF-8" standalone="no"?>
<!-- Creator: CorelDRAW X7 -->

<svg
   xmlns:dc="http://purl.org/dc/elements/1.1/"
   xmlns:cc="http://creativecommons.org/ns#"
   xmlns:rdf="http://www.w3.org/1999/02/22-rdf-syntax-ns#"
   xmlns:svg="http://www.w3.org/2000/svg"
   xmlns="http://www.w3.org/2000/svg"
   xmlns:sodipodi="http://sodipodi.sourceforge.net/DTD/sodipodi-0.dtd"
   xmlns:inkscape="http://www.inkscape.org/namespaces/inkscape"
   xml:space="preserve"
   width="495"
   height="394"
   version="1.1"
   style="clip-rule:evenodd;fill-rule:evenodd;image-rendering:optimizeQuality;shape-rendering:geometricPrecision;text-rendering:geometricPrecision"
   viewBox="0 0 13096.875 10424.584"
   id="svg375"
   sodipodi:docname="panel.svg"
   inkscape:version="0.92.4 (5da689c313, 2019-01-14)"><metadata
   id="metadata379"><rdf:RDF><cc:Work
       rdf:about=""><dc:format>image/svg+xml</dc:format><dc:type
         rdf:resource="http://purl.org/dc/dcmitype/StillImage" /><dc:title></dc:title></cc:Work></rdf:RDF></metadata><sodipodi:namedview
   pagecolor="#ffffff"
   bordercolor="#666666"
   borderopacity="1"
   objecttolerance="10"
   gridtolerance="10"
   guidetolerance="10"
   inkscape:pageopacity="0"
   inkscape:pageshadow="2"
   inkscape:window-width="1920"
   inkscape:window-height="1017"
   id="namedview377"
   showgrid="false"
   units="px"
   inkscape:zoom="1.1893044"
   inkscape:cx="450.82635"
   inkscape:cy="269.52766"
   inkscape:window-x="-8"
   inkscape:window-y="32"
   inkscape:window-maximized="1"
   inkscape:current-layer="svg375" />
 <defs
   id="defs244">
  <style
   type="text/css"
   id="style242">
   <![CDATA[
    .str0 {stroke:#2B2A29;stroke-width:75}
    .str2 {stroke:black;stroke-width:75}
    .str1 {stroke:white;stroke-width:75}
    .str3 {stroke:#2B2A29;stroke-width:20}
    .str4 {stroke:#2B2A29;stroke-width:75;stroke-linecap:round;stroke-linejoin:round}
    .fil1 {fill:none}
    .fil0 {fill:black}
    .fil2 {fill:#BC0035}
    .fil3 {fill:white}
   ]]>
  </style>
 </defs>
 <g
   id="Слой_x0020_1"
   transform="matrix(0.67293087,0,0,0.67293087,-633.3476,-4441.2622)">
  <metadata
   id="CorelCorpID_0Corel-Layer" />
  <g
   id="_1727180668112">
   <g
   id="g363">
    <path
   class="fil0 str0"
   d="m 2686,15174 c -307,-375 -465,-751 -504,-1196 -40,-445 39,-959 237,-1334 197,-376 514,-613 919,-761 405,-149 899,-208 1394,-119 494,89 988,326 1354,672 366,346 603,801 731,1305 129,504 149,1058 60,1512 -89,455 -287,811 -505,1038 -217,227 -454,326 -869,306 -415,-19 -1009,-158 -1532,-415 -524,-257 -979,-632 -1285,-1008 z"
   id="path247"
   inkscape:connector-curvature="0"
   style="fill:#000000;stroke:#2b2a29;stroke-width:75" />
    <path
   class="fil1 str0"
   d="m 2500,14989 c 289,457 579,914 980,1222 402,307 916,466 1321,564 405,99 702,139 940,54 239,-86 419,-296 599,-506"
   id="path249"
   inkscape:connector-curvature="0"
   style="fill:none;stroke:#2b2a29;stroke-width:75" />
    <path
   class="fil1 str0"
   d="m 3256,15997 c -301,-158 -602,-316 -792,-305 -189,11 -265,191 -214,361 50,169 228,327 525,465 296,139 711,257 1136,386 425,128 860,267 1226,306 366,40 662,-19 856,-186 194,-167 286,-441 377,-716"
   id="path251"
   inkscape:connector-curvature="0"
   style="fill:none;stroke:#2b2a29;stroke-width:75" />
    <path
   class="fil1 str0"
   d="m 4191,17583 c 420,20 840,40 1157,251 318,212 533,614 690,855 157,241 255,320 443,251 188,-69 465,-287 682,-464 218,-178 376,-317 455,-544 79,-227 79,-544 233,-762 155,-219 464,-340 757,-403 292,-63 569,-68 628,33 60,101 -98,309 -253,461 -154,152 -305,248 -236,342 69,94 359,186 438,413 79,227 -52,590 -225,739 -173,148 -388,81 -813,407 -425,327 -1060,1046 -1566,1465 -505,418 -881,537 -1236,448 -356,-89 -692,-385 -963,-826 -271,-442 -476,-1027 -681,-1613"
   id="path253"
   inkscape:connector-curvature="0"
   style="fill:none;stroke:#2b2a29;stroke-width:75" />
    <path
   class="fil1 str0"
   d="m 5910,17079 c 299,453 598,905 759,1177 161,271 183,363 205,454"
   id="path255"
   inkscape:connector-curvature="0"
   style="fill:none;stroke:#2b2a29;stroke-width:75" />
    <path
   class="fil1 str0"
   d="m 7319,19911 c 146,398 291,796 437,1194"
   id="path257"
   inkscape:connector-curvature="0"
   style="fill:none;stroke:#2b2a29;stroke-width:75" />
    <path
   class="fil1 str0"
   d="m 17479,16297 c 64,-274 128,-548 218,-933 89,-385 204,-881 331,-1316 127,-436 265,-811 206,-1177 -60,-366 -317,-721 -781,-929 -465,-208 -1137,-267 -1648,-31 -512,236 -863,767 -954,1270 -92,503 76,978 212,1325 136,347 240,567 430,894 189,326 465,760 740,1194"
   id="path259"
   inkscape:connector-curvature="0"
   style="fill:none;stroke:#2b2a29;stroke-width:75" />
    <path
   class="fil1 str0"
   d="m 16415,21535 c 178,-475 356,-949 544,-1443 187,-495 385,-1009 652,-1404 267,-395 603,-672 959,-870 356,-197 731,-316 1008,-405 277,-89 455,-148 464,79 10,227 -148,741 -296,1334 -148,593 -287,1266 -425,1938"
   id="path261"
   inkscape:connector-curvature="0"
   style="fill:none;stroke:#2b2a29;stroke-width:75" />
    <path
   class="fil1 str0"
   d="m 15347,21490 c 376,-870 752,-1739 969,-2402 218,-662 277,-1117 307,-1354 29,-237 29,-257 187,-346 158,-89 475,-247 860,-415 386,-168 840,-346 1137,-415 296,-69 435,-30 603,109 168,138 366,375 451,506 85,131 58,156 31,181"
   id="path263"
   inkscape:connector-curvature="0"
   style="fill:none;stroke:#2b2a29;stroke-width:75" />
    <path
   class="fil1 str0"
   d="m 17772,18466 c -351,-327 -702,-653 -1053,-979"
   id="path265"
   inkscape:connector-curvature="0"
   style="fill:none;stroke:#2b2a29;stroke-width:75" />
    <path
   class="fil1 str0"
   d="m 6985,14403 c 1621,-79 3242,-158 4557,-148 1315,10 2323,109 3331,207"
   id="path267"
   inkscape:connector-curvature="0"
   style="fill:none;stroke:#2b2a29;stroke-width:75" />
    <path
   class="fil1 str0"
   d="m 6689,15767 c 1146,-178 2293,-356 3805,-346 1513,10 3391,208 5269,406"
   id="path269"
   inkscape:connector-curvature="0"
   style="fill:none;stroke:#2b2a29;stroke-width:75" />
    <path
   class="fil1 str0"
   d="m 2515,15033 c -447,-388 -894,-776 -1098,-1395 -204,-619 -165,-1469 -105,-2161 59,-691 138,-1225 306,-1630 168,-406 425,-682 1028,-920 603,-237 1552,-435 3371,-622 1818,-188 4507,-366 6859,-257 2353,108 4369,504 5506,958 1137,455 1394,969 1532,1552 138,583 158,1236 148,1888 -10,652 -49,1305 -168,1750 -118,444 -316,682 -563,820 -247,138 -544,178 -808,157 -265,-21 -497,-103 -729,-184"
   id="path271"
   inkscape:connector-curvature="0"
   style="fill:none;stroke:#2b2a29;stroke-width:75" />
    <path
   class="fil1 str0"
   d="m 8031,19274 c 1173,-82 2347,-163 3415,-139 1067,25 2028,156 2990,287"
   id="path273"
   inkscape:connector-curvature="0"
   style="fill:none;stroke:#2b2a29;stroke-width:75" />
    <path
   class="fil1 str0"
   d="m 15384,18228 c -308,-346 -617,-691 -900,-1033 -283,-341 -540,-677 -758,-805 -217,-129 -395,-49 -352,96 44,146 308,359 351,490 43,131 -135,180 -177,316 -42,136 52,358 215,618 164,259 396,556 539,783 143,227 198,385 288,588 90,203 216,450 360,588 143,139 304,168 542,0 238,-168 555,-534 871,-899"
   id="path275"
   inkscape:connector-curvature="0"
   style="fill:none;stroke:#2b2a29;stroke-width:75" />
    <path
   class="fil1 str0"
   d="m 16237,16538 c -220,351 -440,702 -634,1112 -194,410 -362,880 -530,1349"
   id="path277"
   inkscape:connector-curvature="0"
   style="fill:none;stroke:#2b2a29;stroke-width:75" />
    <path
   class="fil1 str0"
   d="m 14280,20927 c 158,-415 316,-830 474,-1246"
   id="path279"
   inkscape:connector-curvature="0"
   style="fill:none;stroke:#2b2a29;stroke-width:75" />
    <path
   class="fil2 str0"
   d="m 9328,16469 c 89,-326 267,-603 652,-712 386,-108 979,-49 1384,158 405,208 623,564 672,939 50,376 -69,771 -435,969 -365,198 -978,198 -1413,119 -435,-79 -692,-237 -821,-504 -128,-267 -128,-643 -39,-969 z"
   id="path281"
   inkscape:connector-curvature="0"
   style="fill:#bc0035;stroke:#2b2a29;stroke-width:75" />
    <path
   class="fil1 str0"
   d="m 8979,15434 c 10,425 20,850 30,1275"
   id="path283"
   inkscape:connector-curvature="0"
   style="fill:none;stroke:#2b2a29;stroke-width:75" />
    <path
   class="fil1 str0"
   d="m 12049,15478 c 91,1065 182,2130 274,3195"
   id="path285"
   inkscape:connector-curvature="0"
   style="fill:none;stroke:#2b2a29;stroke-width:75" />
    <path
   class="fil1 str0"
   d="m 8713,18873 c 788,-66 1576,-133 2296,-157 721,-23 1373,-3 1846,38 474,40 768,102 1062,164"
   id="path287"
   inkscape:connector-curvature="0"
   style="fill:none;stroke:#2b2a29;stroke-width:75" />
    <path
   class="fil1 str0"
   d="m 7289,18399 c 134,212 267,425 420,546 154,121 327,151 500,180"
   id="path289"
   inkscape:connector-curvature="0"
   style="fill:none;stroke:#2b2a29;stroke-width:75" />
    <path
   class="fil1 str0"
   d="m 6548,18903 c 59,193 119,385 247,573 129,188 326,371 524,554"
   id="path291"
   inkscape:connector-curvature="0"
   style="fill:none;stroke:#2b2a29;stroke-width:75" />
    <path
   class="fil1 str0"
   d="m 6044,18681 c -64,281 -129,563 -97,939 33,375 161,845 290,1314"
   id="path293"
   inkscape:connector-curvature="0"
   style="fill:none;stroke:#2b2a29;stroke-width:75" />
    <path
   class="fil1 str0"
   d="m 5584,18043 c -104,183 -207,366 -328,640 -122,274 -260,640 -309,1023 -50,383 -10,783 29,1184"
   id="path295"
   inkscape:connector-curvature="0"
   style="fill:none;stroke:#2b2a29;stroke-width:75" />
    <path
   class="fil1 str0"
   d="m 4013,19526 c 59,-262 118,-524 284,-831 165,-306 437,-657 709,-1008"
   id="path297"
   inkscape:connector-curvature="0"
   style="fill:none;stroke:#2b2a29;stroke-width:75" />
    <path
   class="fil3 str0"
   d="m 4934,12631 c 131,-24 339,40 561,208 223,168 460,440 611,776 150,336 215,736 217,932 3,195 -57,185 -138,59 -82,-126 -186,-368 -314,-620 -129,-252 -282,-514 -438,-670 -155,-156 -313,-205 -437,-260 -123,-54 -212,-113 -230,-200 -17,-86 37,-200 168,-225 z"
   id="path299"
   inkscape:connector-curvature="0"
   style="fill:#ffffff;stroke:#2b2a29;stroke-width:75" />
    <path
   class="fil3 str0"
   d="m 6195,15191 c -57,75 -52,188 22,223 74,34 217,-10 274,-84 57,-74 27,-178 -47,-213 -74,-34 -193,0 -249,74 z"
   id="path301"
   inkscape:connector-curvature="0"
   style="fill:#ffffff;stroke:#2b2a29;stroke-width:75" />
    <path
   class="fil1 str0"
   d="m 8231,16041 c -3,65 47,159 101,188 54,30 114,-5 148,-64 35,-59 45,-143 18,-190 -28,-47 -92,-57 -151,-45 -59,13 -114,47 -116,111 z"
   id="path303"
   inkscape:connector-curvature="0"
   style="fill:none;stroke:#2b2a29;stroke-width:75" />
    <path
   class="fil1 str0"
   d="m 7645,16172 c 25,57 94,126 156,136 62,10 116,-39 133,-101 18,-62 -2,-136 -54,-168 -52,-32 -136,-22 -188,5 -52,27 -72,72 -47,128 z"
   id="path305"
   inkscape:connector-curvature="0"
   style="fill:none;stroke:#2b2a29;stroke-width:75" />
    <path
   class="fil1 str0"
   d="m 7032,16358 c 40,59 119,109 176,99 57,-10 91,-79 91,-151 0,-72 -34,-146 -91,-171 -57,-24 -136,0 -176,47 -39,47 -39,116 0,176 z"
   id="path307"
   inkscape:connector-curvature="0"
   style="fill:none;stroke:#2b2a29;stroke-width:75" />
    <path
   class="fil1 str0"
   d="m 7092,16877 c -45,84 -5,232 14,294 20,62 20,37 57,5 37,-32 111,-72 213,-94 101,-22 230,-27 284,-47 54,-20 35,-54 5,-116 -30,-62 -69,-151 -116,-183 -47,-32 -102,-8 -193,15 -91,22 -220,42 -264,126 z"
   id="path309"
   inkscape:connector-curvature="0"
   style="fill:none;stroke:#2b2a29;stroke-width:75" />
    <path
   class="fil1 str0"
   d="m 12345,16002 c -35,64 -25,193 30,267 54,74 153,94 264,104 111,10 235,10 304,0 69,-10 84,-30 82,-89 -3,-60 -23,-158 -57,-223 -35,-64 -84,-94 -158,-108 -74,-15 -173,-15 -262,-15 -89,0 -168,0 -203,64 z"
   id="path311"
   inkscape:connector-curvature="0"
   style="fill:none;stroke:#2b2a29;stroke-width:75" />
    <path
   class="fil1 str0"
   d="m 12595,16832 c -3,74 66,183 138,200 72,18 146,-56 148,-131 3,-74 -66,-148 -138,-165 -72,-17 -146,22 -148,96 z"
   id="path313"
   inkscape:connector-curvature="0"
   style="fill:none;stroke:#2b2a29;stroke-width:75" />
    <path
   class="fil1 str0"
   d="m 12681,17566 c 64,62 168,106 225,77 57,-30 67,-134 72,-195 5,-62 5,-82 -65,-92 -69,-10 -207,-10 -264,30 -57,39 -32,118 32,180 z"
   id="path315"
   inkscape:connector-curvature="0"
   style="fill:none;stroke:#2b2a29;stroke-width:75" />
    <path
   class="fil1 str0"
   d="m 12743,18201 c 37,45 101,84 151,69 49,-14 84,-84 84,-145 0,-62 -35,-117 -89,-126 -55,-10 -129,24 -161,66 -32,42 -22,92 15,136 z"
   id="path317"
   inkscape:connector-curvature="0"
   style="fill:none;stroke:#2b2a29;stroke-width:75" />
    <path
   class="fil1 str0"
   d="m 14305,16084 c -186,37 -176,160 -161,227 15,67 35,76 282,106 247,30 721,79 963,101 243,23 252,18 252,-24 0,-42 -9,-121 -19,-191 -10,-69 -20,-128 -82,-153 -62,-24 -175,-15 -422,-34 -247,-20 -628,-70 -813,-32 z"
   id="path319"
   inkscape:connector-curvature="0"
   style="fill:none;stroke:#2b2a29;stroke-width:75" />
    <path
   class="fil1 str0"
   d="m 9931,18332 c -62,62 -62,190 -50,250 13,59 37,49 327,37 289,-13 842,-27 1117,-55 274,-27 269,-66 259,-128 -10,-62 -25,-146 -114,-185 -89,-40 -252,-35 -469,-23 -218,13 -489,33 -687,40 -198,7 -321,2 -383,64 z"
   id="path321"
   inkscape:connector-curvature="0"
   style="fill:none;stroke:#2b2a29;stroke-width:75" />
    <path
   class="fil1 str1"
   d="m 9239,16894 c 119,158 237,316 450,440 212,123 519,212 820,242 302,30 598,0 820,-74 223,-74 371,-193 475,-306 104,-114 163,-223 222,-332"
   id="path323"
   inkscape:connector-curvature="0"
   style="fill:none;stroke:#ffffff;stroke-width:75" />
    <path
   class="fil1 str2"
   d="m 7085,17039 c 131,-33 262,-65 341,-86 79,-21 107,-31 114,-65 7,-35 -5,-94 -17,-153"
   id="path325"
   inkscape:connector-curvature="0"
   style="fill:none;stroke:#000000;stroke-width:75" />
    <path
   class="fil1 str2"
   d="m 14158,16275 c 234,20 469,40 694,59 225,20 440,40 560,14 120,-26 144,-98 169,-169"
   id="path327"
   inkscape:connector-curvature="0"
   style="fill:none;stroke:#000000;stroke-width:75" />
    <path
   class="fil1 str0"
   d="m 12979,17372 c 44,50 89,99 98,171 8,71 -19,165 -86,216 -66,51 -173,58 -246,37 -73,-21 -112,-70 -131,-135 -18,-64 -16,-143 -13,-222"
   id="path329"
   inkscape:connector-curvature="0"
   style="fill:none;stroke:#2b2a29;stroke-width:75" />
    <path
   class="fil1 str0"
   d="m 17527,16145 c 225,-150 450,-301 746,-227 297,74 665,373 1033,672"
   id="path331"
   inkscape:connector-curvature="0"
   style="fill:none;stroke:#2b2a29;stroke-width:75" />
    <path
   class="fil1 str0"
   d="m 16193,16531 c 227,118 454,237 756,242 301,5 677,-104 889,-218 213,-113 262,-232 174,-285 -87,-53 -312,-41 -537,-28"
   id="path333"
   inkscape:connector-curvature="0"
   style="fill:none;stroke:#2b2a29;stroke-width:75" />
    <path
   class="fil0 str0"
   d="m 15155,14774 c -62,-109 -131,-247 -176,-388 -44,-141 -64,-284 -42,-435 22,-151 87,-309 198,-425 111,-116 269,-190 410,-205 141,-15 265,30 349,91 84,62 128,141 153,260 24,118 29,277 -5,462 -35,185 -109,398 -235,553 -126,156 -304,255 -420,265 -116,10 -171,-69 -232,-178 z"
   id="path335"
   inkscape:connector-curvature="0"
   style="fill:#000000;stroke:#2b2a29;stroke-width:75" />
    <path
   class="fil1 str0"
   d="m 15622,15619 c 89,-64 178,-129 222,-188 45,-59 45,-114 45,-168"
   id="path337"
   inkscape:connector-curvature="0"
   style="fill:none;stroke:#2b2a29;stroke-width:75" />
    <path
   class="fil0 str0"
   d="m 17297,12412 c -5,54 20,118 74,128 55,10 139,-35 144,-89 4,-54 -70,-119 -124,-128 -54,-10 -89,34 -94,89 z"
   id="path339"
   inkscape:connector-curvature="0"
   style="fill:#000000;stroke:#2b2a29;stroke-width:75" />
    <path
   class="fil0 str0"
   d="m 17542,12631 c -62,42 -57,136 0,186 57,49 165,54 227,12 62,-42 77,-131 20,-180 -57,-50 -185,-60 -247,-18 z"
   id="path341"
   inkscape:connector-curvature="0"
   style="fill:#000000;stroke:#2b2a29;stroke-width:75" />
    <path
   class="fil0 str0"
   d="m 17267,12704 c -2,19 7,41 25,44 19,4 48,-11 50,-30 1,-19 -24,-41 -43,-44 -18,-3 -30,12 -32,30 z"
   id="path343"
   inkscape:connector-curvature="0"
   style="fill:#000000;stroke:#2b2a29;stroke-width:75" />
    <path
   class="fil1 str0"
   d="m 13768,17887 c 134,-34 267,-69 398,-168 131,-98 260,-262 388,-425"
   id="path345"
   inkscape:connector-curvature="0"
   style="fill:none;stroke:#2b2a29;stroke-width:75" />
    <path
   class="fil1 str0"
   d="m 14228,18614 c 287,-79 573,-158 722,-274 148,-117 158,-270 168,-423"
   id="path347"
   inkscape:connector-curvature="0"
   style="fill:none;stroke:#2b2a29;stroke-width:75" />
    <path
   class="fil1 str0"
   d="m 15029,19919 c 227,-243 454,-485 477,-705 22,-220 -161,-417 -344,-615"
   id="path349"
   inkscape:connector-curvature="0"
   style="fill:none;stroke:#2b2a29;stroke-width:75" />
    <path
   class="fil1 str0"
   d="m 15874,17131 c 138,-34 277,-69 398,-2 121,67 224,235 284,323 59,89 74,99 89,109"
   id="path351"
   inkscape:connector-curvature="0"
   style="fill:none;stroke:#2b2a29;stroke-width:75" />
    <path
   class="fil1 str0"
   d="m 15548,17813 c 123,25 247,50 331,168 84,119 128,331 173,546 44,215 89,433 133,650"
   id="path353"
   inkscape:connector-curvature="0"
   style="fill:none;stroke:#2b2a29;stroke-width:75" />
    <path
   class="fil1 str0"
   d="m 15189,17030 c -104,74 -202,232 -178,341 25,109 173,168 302,133 128,-34 237,-163 267,-266 29,-104 -20,-183 -99,-228 -79,-44 -188,-54 -292,20 z"
   id="path355"
   inkscape:connector-curvature="0"
   style="fill:none;stroke:#2b2a29;stroke-width:75" />
    <path
   class="fil1 str0"
   d="m 1766,20512 c -178,-870 -355,-1740 -494,-2323 -138,-583 -237,-880 -138,-959 99,-79 395,59 850,247 455,188 1067,425 1433,781 366,356 484,830 613,1334 128,505 267,1038 405,1572"
   id="path357"
   inkscape:connector-curvature="0"
   style="fill:none;stroke:#2b2a29;stroke-width:75" />
    <path
   class="fil1 str0"
   d="m 1114,17428 c 20,-218 40,-435 208,-613 168,-178 484,-316 751,-297 267,20 484,198 860,396 375,197 909,415 1146,573 238,158 178,257 61,426 -117,170 -293,409 -468,649"
   id="path359"
   inkscape:connector-curvature="0"
   style="fill:none;stroke:#2b2a29;stroke-width:75" />
    <path
   class="fil1 str0"
   d="m 1210,16961 c 144,-149 287,-297 460,-497 173,-200 376,-452 507,-593 131,-141 190,-170 249,-200"
   id="path361"
   inkscape:connector-curvature="0"
   style="fill:none;stroke:#2b2a29;stroke-width:75" />
   </g>
   <g
   id="g369">
    <path
   class="fil1 str3"
   d="m 6758,9921 c -60,102 -82,183 -79,259 2,77 30,150 68,238 38,88 85,191 194,268 109,77 279,127 429,151 149,23 278,21 402,-21 124,-42 244,-123 316,-225 71,-102 93,-225 82,-365 -11,-139 -56,-296 -165,-424 -80,-95 -196,-174 -321,-223 -45,-17 -91,-31 -137,-40 -176,-33 -355,0 -493,79 -138,78 -236,201 -296,303 z"
   id="path365"
   inkscape:connector-curvature="0"
   style="fill:none;stroke:#2b2a29;stroke-width:20" />
    <path
   class="fil1 str4"
   d="m 6758,9921 c 60,-102 158,-225 296,-303 138,-79 317,-112 493,-79 176,34 349,134 458,263 109,128 154,285 165,424 11,140 -11,263 -82,365 -72,102 -192,183 -316,225 -124,42 -253,44 -402,21 -150,-24 -320,-74 -429,-151 -109,-77 -156,-180 -194,-268 -38,-88 -66,-161 -68,-238 -3,-76 19,-157 79,-259 z m -73,196 c 42,-19 94,-55 144,-61 51,-6 109,3 150,31 40,28 63,75 99,89 36,14 86,-5 130,3 43,8 79,45 85,81 6,36 -20,73 -8,113 11,41 58,85 86,128 28,44 36,86 29,114 -7,28 -29,41 -37,75 -9,34 -3,87 7,119 10,32 3,9 17,21 m 314,-1257 c -48,17 -95,33 -122,78 -26,45 -32,117 -8,156 24,40 77,45 95,74 18,30 1,83 -36,126 -38,43 -97,77 -118,110 -21,34 -4,67 49,88 53,21 143,30 207,51 64,21 103,54 116,104 12,51 -2,118 -9,171 -7,53 -7,92 2,128 8,37 12,58 29,91 M 7634,9355 c 111,42 223,84 301,142 79,59 123,135 144,168 21,34 18,25 16,17 m 67,167 c 22,48 44,95 67,143 m -1643,494 c 48,78 95,157 164,218 68,61 158,106 247,151 m -427,-126 c 19,48 39,95 69,123 31,28 73,36 115,45"
   id="path367"
   inkscape:connector-curvature="0"
   style="fill:none;stroke:#2b2a29;stroke-width:75;stroke-linecap:round;stroke-linejoin:round" />
   </g>
   <path
   class="fil1 str4"
   d="m 11116,10302 c 82,-151 190,-338 357,-483 166,-144 392,-245 626,-286 234,-40 477,-20 689,36 212,56 394,147 553,297 158,150 293,357 351,584 59,228 42,474 13,677 -30,203 -72,361 -191,534 -120,172 -315,358 -511,464 -196,105 -391,131 -629,94 -238,-37 -519,-135 -742,-274 -224,-138 -389,-315 -498,-532 -108,-217 -159,-474 -156,-660 2,-185 57,-300 138,-451 z m 191,-302 c -158,-23 -341,-71 -449,-41 -108,31 -166,114 -82,222 84,108 310,241 825,493 515,251 1320,622 1785,807 466,185 593,185 648,147 55,-38 40,-113 -37,-194 -76,-80 -177,-137 -314,-222 M 11419,9878 c -191,-59 -419,-155 -592,-176 -174,-22 -329,-6 -423,61 -95,66 -127,184 -48,340 79,155 269,348 570,555 302,207 714,428 1165,634 451,206 941,396 1311,506 369,109 618,138 796,139 178,1 285,-25 342,-88 57,-62 64,-161 -41,-280 -105,-119 -323,-258 -479,-359 -155,-102 -213,-140 -307,-204 M 10104,9608 c -76,23 -152,46 -170,143 -18,98 22,268 74,360 51,92 115,105 178,118 m -481,-565 c -29,96 -59,191 -57,257 2,65 35,101 68,136 m 5127,1440 c 83,85 167,170 201,261 35,91 21,189 -22,258 -42,68 -113,108 -168,138 -54,30 -92,52 -129,73 m -200,28 c -73,1 -146,2 -192,-7 -47,-8 -67,-27 -88,-45"
   id="path371"
   inkscape:connector-curvature="0"
   style="fill:none;stroke:#2b2a29;stroke-width:75;stroke-linecap:round;stroke-linejoin:round" />
  </g>
 </g>
</svg>