<?xml version="1.0" encoding="UTF-8" standalone="no"?>
<!-- Created with Inkscape (http://www.inkscape.org/) -->

<svg
   xmlns:dc="http://purl.org/dc/elements/1.1/"
   xmlns:cc="http://creativecommons.org/ns#"
   xmlns:rdf="http://www.w3.org/1999/02/22-rdf-syntax-ns#"
   xmlns:svg="http://www.w3.org/2000/svg"
   xmlns="http://www.w3.org/2000/svg"
   xmlns:sodipodi="http://sodipodi.sourceforge.net/DTD/sodipodi-0.dtd"
   xmlns:inkscape="http://www.inkscape.org/namespaces/inkscape"
   width="461"
   height="526"
   viewBox="0 0 121.97291 139.17084"
   version="1.1"
   id="svg8"
   inkscape:version="0.92.4 (5da689c313, 2019-01-14)"
   sodipodi:docname="random.svg">
  <defs
     id="defs2">
    <style
       id="style10"
       type="text/css">
   <![CDATA[
    .str0 {stroke:#2B2A29;stroke-width:75}
    .fil0 {fill:none}
    .fil1 {fill:#1F1B20}
    .fil2 {fill:#FEED0A}
   ]]>
  </style>
  </defs>
  <sodipodi:namedview
     id="base"
     pagecolor="#ffffff"
     bordercolor="#666666"
     borderopacity="1.0"
     inkscape:pageopacity="0.0"
     inkscape:pageshadow="2"
     inkscape:zoom="1.4"
     inkscape:cx="311.84065"
     inkscape:cy="250.35833"
     inkscape:document-units="mm"
     inkscape:current-layer="layer1"
     showgrid="false"
     units="px"
     inkscape:window-width="1920"
     inkscape:window-height="1017"
     inkscape:window-x="-8"
     inkscape:window-y="32"
     inkscape:window-maximized="1" />
  <metadata
     id="metadata5">
    <rdf:RDF>
      <cc:Work
         rdf:about="">
        <dc:format>image/svg+xml</dc:format>
        <dc:type
           rdf:resource="http://purl.org/dc/dcmitype/StillImage" />
        <dc:title></dc:title>
      </cc:Work>
    </rdf:RDF>
  </metadata>
  <g
     inkscape:label="Layer 1"
     inkscape:groupmode="layer"
     id="layer1"
     transform="translate(0,-157.82915)">
    <g
       style="clip-rule:evenodd;fill-rule:evenodd;image-rendering:optimizeQuality;shape-rendering:geometricPrecision;text-rendering:geometricPrecision"
       id="g101"
       transform="matrix(0.00694182,0,0,0.00694182,-14.589858,121.94816)">
      <g
         id="Слой_x0020_1">
  <metadata
   id="CorelCorpID_0Corel-Layer" />

  <g
   id="_1727180649776">
   <path
   id="path15"
   d="m 3689,9239 c 0,258 221,608 488,691 267,82 580,-102 1169,-452 590,-349 1455,-865 1867,-1176 412,-310 371,-416 226,-593 -145,-178 -394,-426 -511,-622 -118,-196 -104,-338 -162,-308 -57,30 -186,232 -637,573 -451,340 -1225,819 -1722,1141 -497,323 -718,488 -718,746 z"
   class="fil0 str0"
   inkscape:connector-curvature="0"
   style="fill:none;stroke:#2b2a29;stroke-width:75" />

   <path
   id="path17"
   d="m 6755,6716 c 64,424 654,958 939,1216 285,258 267,239 552,27 286,-211 875,-616 1096,-920 221,-304 74,-507 -175,-792 -248,-285 -598,-654 -875,-764 -276,-111 -478,37 -810,267 -331,230 -791,543 -727,966 z"
   class="fil0 str0"
   inkscape:connector-curvature="0"
   style="fill:none;stroke:#2b2a29;stroke-width:75" />

   <path
   id="path19"
   d="M 3295,8587 C 4032,7961 4768,7335 5505,6709"
   class="fil0 str0"
   inkscape:connector-curvature="0"
   style="fill:none;stroke:#2b2a29;stroke-width:75" />

   <path
   id="path21"
   d="M 7777,11964 C 7114,11044 6451,10123 5788,9202"
   class="fil0 str0"
   inkscape:connector-curvature="0"
   style="fill:none;stroke:#2b2a29;stroke-width:75" />

   <path
   id="path23"
   d="m 4849,12572 c 207,-1082 415,-2164 622,-3245"
   class="fil0 str0"
   inkscape:connector-curvature="0"
   style="fill:none;stroke:#2b2a29;stroke-width:75" />

   <path
   id="path25"
   d="M 6396,12240 C 6106,11306 5816,10372 5526,9437"
   class="fil0 str0"
   inkscape:connector-curvature="0"
   style="fill:none;stroke:#2b2a29;stroke-width:75" />

   <path
   id="path27"
   d="m 7169,6551 c 332,-258 663,-516 995,-774"
   class="fil0 str0"
   inkscape:connector-curvature="0"
   style="fill:none;stroke:#2b2a29;stroke-width:75" />

   <path
   id="path29"
   d="m 4228,7752 c 156,175 313,350 469,525"
   class="fil0 str0"
   inkscape:connector-curvature="0"
   style="fill:none;stroke:#2b2a29;stroke-width:75" />

   <path
   id="path31"
   d="m 3535,9637 c -94,-57 -260,127 -249,276 12,150 201,265 284,173 82,-92 59,-391 -35,-449 z"
   class="fil0 str0"
   inkscape:connector-curvature="0"
   style="fill:none;stroke:#2b2a29;stroke-width:75" />

  </g>

  <g
   id="_1727180645488">
   <path
   id="path34"
   d="m 13682,18023 c 26,-383 -5,-1052 -141,-1720 -137,-669 -380,-1337 -707,-1877 -327,-539 -737,-949 -1193,-1230 -455,-282 -957,-433 -1534,-449 -578,-15 -1231,107 -1732,426 -502,319 -851,835 -1079,1367 -228,532 -334,1079 -395,1702 -61,623 -76,1322 -7,1773 69,451 223,654 489,852 266,198 644,389 1144,500 501,111 1124,142 1820,95 696,-46 1465,-170 2002,-326 536,-157 840,-347 1033,-490 193,-144 274,-241 300,-623 z m 87,331 c 212,-91 410,0 493,122 84,121 54,273 -132,466 -185,193 -525,426 -929,619 -403,193 -871,345 -1559,456 -688,111 -1598,181 -2433,118 -834,-64 -1594,-262 -2073,-421 -478,-160 -676,-281 -775,-418 -98,-137 -98,-289 -76,-410 23,-122 69,-213 183,-281 114,-69 296,-114 516,-15 221,98 479,341 806,524 326,182 721,304 1291,372 570,68 1315,84 2013,-8 699,-91 1353,-288 1793,-524 441,-235 669,-509 882,-600 z m 357,760 c 326,-137 539,-152 752,-76 213,76 425,243 463,433 38,190 -99,402 -418,608 -319,205 -820,402 -1451,592 -630,190 -1390,372 -2226,456 -835,84 -1747,68 -2529,-30 -783,-99 -1436,-282 -1961,-487 -524,-205 -919,-433 -1116,-623 -198,-190 -198,-341 -76,-455 121,-114 364,-190 551,-186 187,5 318,91 668,228 349,136 917,324 1498,449 580,124 1172,185 1818,169 646,-15 1345,-106 1824,-189 478,-84 736,-160 1086,-327 349,-167 790,-426 1117,-562 z m 1018,873 c 494,-144 843,-114 1162,-22 319,91 608,243 699,425 91,182 -15,395 -501,707 -487,311 -1353,721 -2500,1010 -1147,289 -2575,456 -3852,509 -1276,53 -2400,-8 -3350,-243 -950,-236 -1724,-646 -2196,-935 -471,-288 -638,-455 -554,-615 83,-160 418,-311 691,-448 274,-137 486,-258 874,-190 387,68 950,327 1504,532 555,205 1102,357 1861,433 760,76 1733,76 2500,0 767,-76 1329,-228 1930,-464 600,-235 1238,-554 1732,-699 z m -3317,-3779 c 4,-285 -79,-597 -273,-847 -194,-251 -498,-441 -801,-502 -304,-60 -608,8 -931,205 -323,198 -665,525 -794,848 -129,322 -46,641 122,907 167,266 417,479 509,646 91,167 22,289 -126,471 -148,183 -376,426 -467,688 -91,262 -46,543 -23,683 23,141 23,141 258,164 236,23 707,68 1144,53 437,-15 839,-91 1219,-182 380,-92 737,-198 881,-323 145,-126 76,-270 -98,-475 -175,-205 -456,-471 -695,-661 -240,-190 -437,-304 -449,-437 -11,-133 164,-285 297,-490 133,-205 224,-463 227,-748 z m -198,-467 c -163,-23 -474,247 -615,480 -140,234 -110,431 16,533 125,102 345,107 472,70 127,-36 161,-116 199,-195 39,-79 81,-157 94,-354 13,-196 -2,-511 -166,-534 z m -1885,37 c 193,28 426,231 559,452 133,221 166,461 92,571 -73,110 -251,91 -441,43 -190,-47 -391,-123 -510,-261 -120,-138 -158,-337 -102,-511 57,-173 209,-321 402,-294 z m 4473,6515 c 83,202 121,604 129,874 8,270 -15,406 -122,448 -106,42 -296,-11 -448,-152 -152,-140 -266,-368 -368,-581 -103,-213 -194,-410 -114,-539 80,-130 330,-190 520,-221 190,-30 319,-30 403,171 z m 212,1225 c 219,-49 386,-21 442,104 55,126 0,348 -188,491 -188,143 -508,205 -699,143 -192,-63 -254,-251 -150,-407 104,-157 376,-282 595,-331 z m -3582,488 c 179,54 293,175 316,308 23,133 -46,277 -194,372 -148,95 -376,141 -543,88 -167,-54 -274,-205 -304,-354 -30,-148 15,-292 160,-372 144,-80 387,-95 565,-42 z m -4007,-277 c 167,65 319,194 300,365 -19,171 -209,383 -418,459 -209,76 -437,16 -558,-121 -122,-137 -137,-350 -95,-490 42,-141 140,-209 281,-243 141,-35 323,-35 490,30 z m -167,-1409 c -8,448 -15,896 -23,1344 m 1264,-1070 c -163,136 -326,273 -480,486 -153,212 -298,501 -442,790 m 3082,-1260 c 74,352 148,703 178,947 30,244 14,381 -1,518 m 1077,-1521 c -109,377 -217,755 -271,1013 -54,257 -54,394 -54,530 m 3624,-3942 c 220,159 441,319 665,531 224,213 452,479 680,745 m -2986,-615 c 296,167 593,334 752,550 160,217 183,483 205,749 m -2735,-935 c 38,251 76,502 69,733 -8,232 -61,445 -114,657 M 8906,21146 c -114,243 -228,612 -269,843 -42,232 -12,452 19,673 M 7288,20724 c -258,183 -516,365 -654,630 -138,265 -155,613 -173,960 m 7672,-2729 c 61,45 106,159 57,224 -49,64 -194,80 -254,34 -61,-45 -38,-152 11,-216 49,-65 125,-88 186,-42 z m -912,566 c 92,34 168,156 126,232 -42,76 -201,106 -293,72 -91,-34 -114,-133 -72,-209 42,-76 148,-129 239,-95 z m -1572,387 c 76,57 91,179 34,232 -57,53 -186,38 -262,-19 -76,-57 -99,-156 -42,-209 57,-53 194,-61 270,-4 z m -1789,0 c 64,65 80,217 19,281 -61,65 -198,42 -262,-22 -65,-65 -57,-171 3,-236 61,-65 175,-87 240,-23 z m -1694,-182 c 87,42 186,171 159,232 -26,60 -178,53 -266,11 -87,-42 -110,-118 -83,-178 26,-61 102,-107 190,-65 z m -1459,-395 c 95,26 201,133 186,201 -15,69 -152,99 -247,72 -95,-26 -148,-110 -133,-178 15,-69 99,-122 194,-95 z m 2302,-5535 c -76,76 -198,156 -344,168 -146,11 -317,-46 -393,-128 -76,-81 -57,-188 19,-279 76,-91 209,-167 361,-161 151,5 322,93 393,173 70,79 40,151 -36,227 z m -149,76 c 221,266 441,532 661,798 m 2458,-1343 c 72,78 141,204 105,321 -36,118 -177,228 -339,241 -161,14 -343,-70 -417,-174 -74,-105 -40,-230 49,-321 89,-91 234,-148 344,-162 110,-13 186,17 258,95 z m -384,568 c -98,183 -197,365 -296,547 m -285,-125 c 72,-91 145,-183 215,-268 70,-85 139,-165 207,-245 m -1641,627 c -205,-152 -410,-304 -547,-405 -137,-100 -205,-150 -274,-199 m 2051,2673 c -54,64 -107,129 -183,165 -76,36 -175,44 -247,17 -72,-27 -117,-87 -163,-148 m -490,1185 c -65,160 -129,319 -175,517 -45,197 -72,433 -99,668 m 1539,-1322 c 114,42 228,84 338,196 110,112 216,294 294,437 78,142 128,245 177,347"
   class="fil0 str0"
   inkscape:connector-curvature="0"
   style="fill:none;stroke:#2b2a29;stroke-width:75" />

   <path
   id="path36"
   d="m 11795,16275 c -13,197 -55,275 -94,354 -38,79 -72,159 -199,195 -127,37 -347,32 -472,-70 -126,-102 -156,-299 -16,-533 141,-233 452,-503 615,-480 164,23 179,338 166,534 z"
   class="fil1 str0"
   inkscape:connector-curvature="0"
   style="fill:#1f1b20;stroke:#2b2a29;stroke-width:75" />

   <path
   id="path38"
   d="m 10303,16230 c 133,221 166,461 92,571 -73,110 -251,91 -441,43 -190,-47 -391,-123 -510,-261 -120,-138 -158,-337 -102,-511 57,-173 209,-321 402,-294 193,28 426,231 559,452 z"
   class="fil1 str0"
   inkscape:connector-curvature="0"
   style="fill:#1f1b20;stroke:#2b2a29;stroke-width:75" />

   <path
   id="path40"
   d="m 9045,14199 c 70,79 40,151 -36,227 -11,11 -22,21 -34,31 -28,24 -60,48 -96,68 -61,36 -134,62 -214,69 -146,11 -317,-46 -393,-128 -76,-81 -57,-188 19,-279 76,-91 209,-167 361,-161 151,5 322,93 393,173 z"
   class="fil1 str0"
   inkscape:connector-curvature="0"
   style="fill:#1f1b20;stroke:#2b2a29;stroke-width:75" />

   <path
   id="path42"
   d="m 12084,14278 c -36,118 -177,228 -339,241 -108,9 -225,-25 -313,-80 -44,-28 -80,-60 -104,-94 -74,-105 -40,-230 49,-321 89,-91 234,-148 344,-162 110,-13 186,17 258,95 72,78 141,204 105,321 z"
   class="fil1 str0"
   inkscape:connector-curvature="0"
   style="fill:#1f1b20;stroke:#2b2a29;stroke-width:75" />

   <path
   id="path44"
   d="m 14133,19585 c 61,45 106,159 57,224 -49,64 -194,80 -254,34 -61,-45 -38,-152 11,-216 49,-65 125,-88 186,-42 z"
   class="fil2 str0"
   inkscape:connector-curvature="0"
   style="fill:#feed0a;stroke:#2b2a29;stroke-width:75" />

   <path
   id="path46"
   d="m 13221,20151 c 92,34 168,156 126,232 -42,76 -201,106 -293,72 -91,-34 -114,-133 -72,-209 42,-76 148,-129 239,-95 z"
   class="fil2 str0"
   inkscape:connector-curvature="0"
   style="fill:#feed0a;stroke:#2b2a29;stroke-width:75" />

   <path
   id="path48"
   d="m 11649,20538 c 76,57 91,179 34,232 -57,53 -186,38 -262,-19 -76,-57 -99,-156 -42,-209 57,-53 194,-61 270,-4 z"
   class="fil2 str0"
   inkscape:connector-curvature="0"
   style="fill:#feed0a;stroke:#2b2a29;stroke-width:75" />

   <path
   id="path50"
   d="m 9860,20538 c 64,65 80,217 19,281 -61,65 -198,42 -262,-22 -65,-65 -57,-171 3,-236 61,-65 175,-87 240,-23 z"
   class="fil2 str0"
   inkscape:connector-curvature="0"
   style="fill:#feed0a;stroke:#2b2a29;stroke-width:75" />

   <path
   id="path52"
   d="m 8166,20356 c 87,42 186,171 159,232 -26,60 -178,53 -266,11 -87,-42 -110,-118 -83,-178 26,-61 102,-107 190,-65 z"
   class="fil2 str0"
   inkscape:connector-curvature="0"
   style="fill:#feed0a;stroke:#2b2a29;stroke-width:75" />

   <path
   id="path54"
   d="m 6707,19961 c 95,26 201,133 186,201 -15,69 -152,99 -247,72 -95,-26 -148,-110 -133,-178 15,-69 99,-122 194,-95 z"
   class="fil2 str0"
   inkscape:connector-curvature="0"
   style="fill:#feed0a;stroke:#2b2a29;stroke-width:75" />

   <path
   id="path56"
   d="m 14871,23622 c 55,126 0,348 -188,491 -188,143 -508,205 -699,143 -192,-63 -254,-251 -150,-407 57,-86 163,-162 283,-221 41,3 34,-44 64,-56 30,-12 98,11 116,-17 45,-15 89,-27 132,-37 219,-49 386,-21 442,104 z"
   class="fil0 str0"
   inkscape:connector-curvature="0"
   style="fill:none;stroke:#2b2a29;stroke-width:75" />

   <path
   id="path58"
   d="m 11163,24314 c 23,133 -46,277 -194,372 -148,95 -376,141 -543,88 -167,-54 -274,-205 -304,-354 -28,-137 9,-271 130,-354 9,-6 19,-12 30,-18 144,-80 387,-95 565,-42 60,18 112,43 156,74 89,62 145,145 160,234 z"
   class="fil0 str0"
   inkscape:connector-curvature="0"
   style="fill:none;stroke:#2b2a29;stroke-width:75" />

   <path
   id="path60"
   d="m 7140,24094 c -19,171 -209,383 -418,459 -209,76 -437,16 -558,-121 -122,-137 -137,-350 -95,-490 42,-141 140,-209 281,-243 141,-35 323,-35 490,30 63,24 123,57 173,98 84,69 139,160 127,267 z"
   class="fil0 str0"
   inkscape:connector-curvature="0"
   style="fill:none;stroke:#2b2a29;stroke-width:75" />

  </g>

  <path
   id="path63"
   d="m 16831,8503 c -482,235 -905,706 -952,1188 -47,482 282,976 753,1211 470,235 1081,212 1281,329 200,118 -11,377 -670,424 -658,47 -1764,-118 -2340,-682 -576,-565 -623,-1529 -341,-2223 282,-694 894,-1117 1587,-1152 694,-36 1470,317 1588,494 118,176 -423,176 -906,411 z"
   class="fil0 str0"
   inkscape:connector-curvature="0"
   style="fill:none;stroke:#2b2a29;stroke-width:75" />

 </g>
    </g>
  </g>
</svg>
