<?xml version="1.0" encoding="UTF-8" standalone="no"?>
<!-- Creator: CorelDRAW X7 -->

<svg
   xmlns:dc="http://purl.org/dc/elements/1.1/"
   xmlns:cc="http://creativecommons.org/ns#"
   xmlns:rdf="http://www.w3.org/1999/02/22-rdf-syntax-ns#"
   xmlns:svg="http://www.w3.org/2000/svg"
   xmlns="http://www.w3.org/2000/svg"
   xmlns:sodipodi="http://sodipodi.sourceforge.net/DTD/sodipodi-0.dtd"
   xmlns:inkscape="http://www.inkscape.org/namespaces/inkscape"
   xml:space="preserve"
   width="390"
   height="467"
   version="1.1"
   style="clip-rule:evenodd;fill-rule:evenodd;image-rendering:optimizeQuality;shape-rendering:geometricPrecision;text-rendering:geometricPrecision"
   viewBox="0 0 10318.75 12356.042"
   id="svg755"
   sodipodi:docname="register.svg"
   inkscape:version="0.92.4 (5da689c313, 2019-01-14)"><metadata
   id="metadata759"><rdf:RDF><cc:Work
       rdf:about=""><dc:format>image/svg+xml</dc:format><dc:type
         rdf:resource="http://purl.org/dc/dcmitype/StillImage" /><dc:title></dc:title></cc:Work></rdf:RDF></metadata><sodipodi:namedview
   pagecolor="#ffffff"
   bordercolor="#666666"
   borderopacity="1"
   objecttolerance="10"
   gridtolerance="10"
   guidetolerance="10"
   inkscape:pageopacity="0"
   inkscape:pageshadow="2"
   inkscape:window-width="1920"
   inkscape:window-height="1017"
   id="namedview757"
   showgrid="false"
   units="px"
   inkscape:zoom="0.84096521"
   inkscape:cx="453.8453"
   inkscape:cy="326.00458"
   inkscape:window-x="-8"
   inkscape:window-y="32"
   inkscape:window-maximized="1"
   inkscape:current-layer="svg755" />
 <defs
   id="defs678">
  <style
   type="text/css"
   id="style676">
   <![CDATA[
    .str0 {stroke:#2B2A29;stroke-width:75;stroke-linecap:round;stroke-linejoin:round}
    .fil0 {fill:none}
    .fil2 {fill:black}
    .fil1 {fill:#BC0035}
    .fil3 {fill:white}
   ]]>
  </style>
 </defs>
 <g
   id="Слой_x0020_1"
   transform="matrix(0.759767,0,0,0.759767,-2278.0212,-6848.3952)">
  <metadata
   id="CorelCorpID_0Corel-Layer" />
  <g
   id="_2686031436592">
   <path
   class="fil0 str0"
   d="m 10443,16989 c -51,-1 -102,-1 -214,-67 -111,-65 -283,-197 -473,-422 -190,-226 -398,-545 -495,-861 -96,-316 -82,-627 20,-980 102,-352 292,-745 488,-1050 197,-307 524,-459 793,-667 29,-23 248,-267 278,-288 603,-423 952,-433 1690,160 154,124 393,311 547,486 154,175 334,361 537,617 203,257 428,584 514,951 86,368 33,776 -59,1066 -92,290 -224,462 -392,624 -168,162 -373,314 -578,466"
   id="path681"
   inkscape:connector-curvature="0"
   style="fill:none;stroke:#2b2a29;stroke-width:75;stroke-linecap:round;stroke-linejoin:round" />
   <path
   class="fil1 str0"
   d="m 10058,14407 c 121,-247 272,-391 523,-519 252,-128 605,-240 1036,-244 431,-4 941,101 1231,546 290,445 360,1231 355,1735 -6,504 -86,727 -261,907 -176,179 -446,315 -766,374 -321,59 -692,42 -975,-43 -283,-84 -478,-235 -666,-439 -188,-204 -370,-462 -499,-699 -129,-236 -206,-452 -198,-735 8,-283 99,-635 220,-883 z"
   id="path683"
   inkscape:connector-curvature="0"
   style="fill:#bc0035;stroke:#2b2a29;stroke-width:75;stroke-linecap:round;stroke-linejoin:round" />
   <path
   class="fil2 str0"
   d="m 10994,13162 c 342,-59 1284,-69 1583,84 339,173 647,421 862,698 215,276 337,582 390,792 52,211 36,327 46,464 11,138 49,297 -59,601 -108,304 -362,753 -654,1044 -292,290 -622,422 -976,473 -353,51 -729,21 -1112,-109 -382,-129 -770,-358 -1005,-546 -236,-188 -320,-335 -413,-521 -93,-186 -196,-412 -234,-683 -38,-272 -12,-589 87,-871 99,-282 218,-578 419,-740 166,-135 828,-645 1066,-686 z"
   id="path685"
   inkscape:connector-curvature="0"
   style="fill:#000000;stroke:#2b2a29;stroke-width:75;stroke-linecap:round;stroke-linejoin:round" />
   <path
   class="fil0 str0"
   d="m 10427,16952 c -82,202 -164,404 -192,510 -28,106 -1,117 24,332 25,215 49,634 48,1078 -2,445 -29,915 37,1156 65,242 224,255 573,290 349,34 890,90 1303,79 414,-11 701,-89 870,-189 169,-101 219,-224 211,-483 -7,-258 -72,-653 -90,-988 -17,-334 13,-609 33,-861 21,-253 33,-483 5,-643 -27,-159 -93,-248 -160,-336"
   id="path687"
   inkscape:connector-curvature="0"
   style="fill:none;stroke:#2b2a29;stroke-width:75;stroke-linecap:round;stroke-linejoin:round" />
   <path
   class="fil0 str0"
   d="m 10728,17043 c 14,190 29,380 65,507 35,127 91,191 283,223 192,32 519,32 806,30 287,-1 533,-3 682,-4 149,-1 200,-1 249,-58 48,-57 95,-171 110,-297 16,-127 1,-266 -14,-405"
   id="path689"
   inkscape:connector-curvature="0"
   style="fill:none;stroke:#2b2a29;stroke-width:75;stroke-linecap:round;stroke-linejoin:round" />
   <path
   class="fil2 str0"
   d="m 11132,18328 c -110,32 -190,153 -155,229 36,75 187,106 298,74 110,-32 179,-127 143,-202 -35,-76 -176,-133 -286,-101 z"
   id="path691"
   inkscape:connector-curvature="0"
   style="fill:#000000;stroke:#2b2a29;stroke-width:75;stroke-linecap:round;stroke-linejoin:round" />
   <path
   class="fil2 str0"
   d="m 12374,18356 c -138,-15 -270,34 -309,105 -39,71 15,165 119,212 103,47 256,48 367,16 110,-32 177,-97 140,-168 -38,-72 -180,-150 -317,-165 z"
   id="path693"
   inkscape:connector-curvature="0"
   style="fill:#000000;stroke:#2b2a29;stroke-width:75;stroke-linecap:round;stroke-linejoin:round" />
   <path
   class="fil0 str0"
   d="m 13675,18330 c 34,270 112,805 132,1058 19,254 25,492 10,654 -15,163 -50,251 -147,263 -97,12 -396,-105 -473,-157"
   id="path695"
   inkscape:connector-curvature="0"
   style="fill:none;stroke:#2b2a29;stroke-width:75;stroke-linecap:round;stroke-linejoin:round" />
   <path
   class="fil3 str0"
   d="m 13410,15114 c -56,78 -158,154 -226,120 -67,-34 -100,-179 -131,-349 -31,-169 -60,-364 -165,-545 -105,-181 -286,-347 -472,-442 -144,-72 -450,-315 -342,-343 140,-35 378,-21 576,69 199,90 359,256 479,429 120,172 200,351 252,489 52,138 77,235 85,325 8,89 -1,169 -56,247 z"
   id="path697"
   inkscape:connector-curvature="0"
   style="fill:#ffffff;stroke:#2b2a29;stroke-width:75;stroke-linecap:round;stroke-linejoin:round" />
   <path
   class="fil3 str0"
   d="m 13245,15759 c 73,-96 74,-230 27,-291 -46,-60 -140,-48 -217,20 -77,68 -136,191 -162,281 -26,90 -19,146 58,145 76,-1 221,-59 294,-155 z"
   id="path699"
   inkscape:connector-curvature="0"
   style="fill:#ffffff;stroke:#2b2a29;stroke-width:75;stroke-linecap:round;stroke-linejoin:round" />
   <path
   class="fil3 str0"
   d="m 10845,12902 c 28,55 1029,-38 1157,-54 166,-22 174,-64 105,-115 -70,-51 -217,-111 -347,-149 -130,-37 -243,-52 -357,-45 -115,7 -232,35 -348,113 -116,78 -232,206 -210,250 z"
   id="path701"
   inkscape:connector-curvature="0"
   style="fill:#ffffff;stroke:#2b2a29;stroke-width:75;stroke-linecap:round;stroke-linejoin:round" />
   <path
   class="fil2 str0"
   d="m 11567,18793 c -39,71 15,165 119,212 103,47 113,4 223,-28 217,-63 -160,-515 -342,-184 z"
   id="path703"
   inkscape:connector-curvature="0"
   style="fill:#000000;stroke:#2b2a29;stroke-width:75;stroke-linecap:round;stroke-linejoin:round" />
   <path
   class="fil0 str0"
   d="m 13209,16988 c 383,104 767,207 1106,343 339,137 634,307 941,591 306,284 623,682 826,1077 203,394 291,785 295,1040 4,254 -78,372 -210,391 -133,18 -318,-63 -425,-163 -106,-99 -136,-217 -165,-217 -30,0 -60,118 -133,147 -74,30 -192,-29 -229,-136 -37,-107 7,-262 -15,-457 -22,-196 -110,-432 -295,-631 -184,-199 -465,-362 -752,-491 -288,-129 -583,-225 -878,-321"
   id="path705"
   inkscape:connector-curvature="0"
   style="fill:none;stroke:#2b2a29;stroke-width:75;stroke-linecap:round;stroke-linejoin:round" />
   <path
   class="fil0 str0"
   d="m 15200,19467 c 81,-88 163,-177 310,-251 148,-74 362,-133 576,-192"
   id="path707"
   inkscape:connector-curvature="0"
   style="fill:none;stroke:#2b2a29;stroke-width:75;stroke-linecap:round;stroke-linejoin:round" />
   <path
   class="fil0 str0"
   d="m 14713,18825 c 52,-155 104,-310 222,-428 118,-118 302,-199 487,-280"
   id="path709"
   inkscape:connector-curvature="0"
   style="fill:none;stroke:#2b2a29;stroke-width:75;stroke-linecap:round;stroke-linejoin:round" />
   <path
   class="fil0 str0"
   d="m 14049,18449 c 37,-125 74,-251 174,-413 99,-162 262,-362 424,-561"
   id="path711"
   inkscape:connector-curvature="0"
   style="fill:none;stroke:#2b2a29;stroke-width:75;stroke-linecap:round;stroke-linejoin:round" />
   <path
   class="fil0 str0"
   d="m 10378,20106 c -165,478 -542,1132 -620,1701 -78,568 -69,1228 -8,1815 60,586 173,1098 429,1354 257,256 656,256 873,52 217,-204 252,-612 265,-1085 13,-473 4,-1012 139,-1346 135,-334 412,-465 695,-417 282,48 568,274 720,751 152,478 170,1207 274,1654 104,448 295,613 538,600 243,-14 539,-205 630,-765 91,-560 -22,-1489 -170,-2227 -147,-738 -303,-1373 -485,-1920"
   id="path713"
   inkscape:connector-curvature="0"
   style="fill:none;stroke:#2b2a29;stroke-width:75;stroke-linecap:round;stroke-linejoin:round" />
   <path
   class="fil0 str0"
   d="m 9906,24503 c 156,-174 313,-347 543,-391 230,-43 534,44 838,130"
   id="path715"
   inkscape:connector-curvature="0"
   style="fill:none;stroke:#2b2a29;stroke-width:75;stroke-linecap:round;stroke-linejoin:round" />
   <path
   class="fil0 str0"
   d="m 9698,23331 c 260,-131 521,-261 790,-309 269,-47 547,-13 825,22"
   id="path717"
   inkscape:connector-curvature="0"
   style="fill:none;stroke:#2b2a29;stroke-width:75;stroke-linecap:round;stroke-linejoin:round" />
   <path
   class="fil0 str0"
   d="m 10496,20239 c 44,278 96,600 270,964 173,365 477,816 781,1268"
   id="path719"
   inkscape:connector-curvature="0"
   style="fill:none;stroke:#2b2a29;stroke-width:75;stroke-linecap:round;stroke-linejoin:round" />
   <path
   class="fil0 str0"
   d="m 13135,20161 c 61,495 175,1008 92,1403 -82,395 -308,690 -534,985"
   id="path721"
   inkscape:connector-curvature="0"
   style="fill:none;stroke:#2b2a29;stroke-width:75;stroke-linecap:round;stroke-linejoin:round" />
   <path
   class="fil0 str0"
   d="m 13110,24555 c 139,-148 278,-295 478,-339 199,-43 460,18 720,78"
   id="path723"
   inkscape:connector-curvature="0"
   style="fill:none;stroke:#2b2a29;stroke-width:75;stroke-linecap:round;stroke-linejoin:round" />
   <path
   class="fil0 str0"
   d="m 12954,23279 c 139,-165 278,-330 503,-370 226,-39 539,48 851,135"
   id="path725"
   inkscape:connector-curvature="0"
   style="fill:none;stroke:#2b2a29;stroke-width:75;stroke-linecap:round;stroke-linejoin:round" />
   <path
   class="fil0 str0"
   d="m 9724,22197 c 299,-26 599,-52 885,33 287,85 560,280 834,475"
   id="path727"
   inkscape:connector-curvature="0"
   style="fill:none;stroke:#2b2a29;stroke-width:75;stroke-linecap:round;stroke-linejoin:round" />
   <path
   class="fil0 str0"
   d="m 12863,22823 c 117,-204 234,-408 438,-554 204,-145 495,-232 786,-319"
   id="path729"
   inkscape:connector-curvature="0"
   style="fill:none;stroke:#2b2a29;stroke-width:75;stroke-linecap:round;stroke-linejoin:round" />
   <path
   class="fil0 str0"
   d="m 10259,18403 c -230,124 -459,247 -709,362 -250,114 -520,220 -792,279 -272,59 -546,70 -792,-91 -246,-162 -465,-497 -684,-832"
   id="path731"
   inkscape:connector-curvature="0"
   style="fill:none;stroke:#2b2a29;stroke-width:75;stroke-linecap:round;stroke-linejoin:round" />
   <path
   class="fil0 str0"
   d="m 10364,17045 c -258,76 -517,153 -832,294 -314,141 -685,347 -880,453 -196,105 -216,111 -323,41 -108,-71 -302,-218 -471,-381 -169,-163 -313,-343 -457,-522"
   id="path733"
   inkscape:connector-curvature="0"
   style="fill:none;stroke:#2b2a29;stroke-width:75;stroke-linecap:round;stroke-linejoin:round" />
   <path
   class="fil0 str0"
   d="m 7428,16948 c -136,-74 -271,-147 -503,-141 -232,6 -562,91 -825,147 -263,56 -460,82 -564,138 -105,56 -116,141 -50,211 66,71 210,127 368,155 158,28 330,28 426,63 97,35 117,106 141,191 25,85 53,185 125,279 73,94 191,183 328,199 138,16 295,-40 452,-96"
   id="path735"
   inkscape:connector-curvature="0"
   style="fill:none;stroke:#2b2a29;stroke-width:75;stroke-linecap:round;stroke-linejoin:round" />
   <path
   class="fil0 str0"
   d="m 9244,17503 c 106,86 212,171 296,368 84,197 145,505 207,814"
   id="path737"
   inkscape:connector-curvature="0"
   style="fill:none;stroke:#2b2a29;stroke-width:75;stroke-linecap:round;stroke-linejoin:round" />
   <path
   class="fil0 str0"
   d="m 8504,17883 c 155,132 311,264 389,446 78,183 78,415 78,647"
   id="path739"
   inkscape:connector-curvature="0"
   style="fill:none;stroke:#2b2a29;stroke-width:75;stroke-linecap:round;stroke-linejoin:round" />
   <path
   class="fil0 str0"
   d="m 8005,17583 c 37,161 74,323 17,507 -56,184 -206,389 -356,595"
   id="path741"
   inkscape:connector-curvature="0"
   style="fill:none;stroke:#2b2a29;stroke-width:75;stroke-linecap:round;stroke-linejoin:round" />
   <path
   class="fil0 str0"
   d="m 13129,12467 c 300,218 600,435 838,706 238,270 415,594 494,855 79,262 62,462 44,662"
   id="path743"
   inkscape:connector-curvature="0"
   style="fill:none;stroke:#2b2a29;stroke-width:75;stroke-linecap:round;stroke-linejoin:round" />
   <path
   class="fil0 str0"
   d="m 13835,12626 c 229,135 458,270 608,465 150,194 221,446 291,699"
   id="path745"
   inkscape:connector-curvature="0"
   style="fill:none;stroke:#2b2a29;stroke-width:75;stroke-linecap:round;stroke-linejoin:round" />
   <path
   class="fil0 str0"
   d="m 4663,17900 c -118,141 -236,282 -312,388 -76,106 -112,177 -147,247"
   id="path747"
   inkscape:connector-curvature="0"
   style="fill:none;stroke:#2b2a29;stroke-width:75;stroke-linecap:round;stroke-linejoin:round" />
   <path
   class="fil0 str0"
   d="m 4592,17106 c -170,-76 -341,-153 -476,-252 -135,-100 -235,-224 -335,-347"
   id="path749"
   inkscape:connector-curvature="0"
   style="fill:none;stroke:#2b2a29;stroke-width:75;stroke-linecap:round;stroke-linejoin:round" />
   <path
   class="fil0 str0"
   d="m 4469,17530 c -283,6 -565,11 -788,41 -224,29 -388,82 -553,135"
   id="path751"
   inkscape:connector-curvature="0"
   style="fill:none;stroke:#2b2a29;stroke-width:75;stroke-linecap:round;stroke-linejoin:round" />
  </g>
 </g>
</svg>