<?xml version="1.0" encoding="UTF-8" standalone="no"?>
<!-- Creator: CorelDRAW X7 -->

<svg
   xmlns:dc="http://purl.org/dc/elements/1.1/"
   xmlns:cc="http://creativecommons.org/ns#"
   xmlns:rdf="http://www.w3.org/1999/02/22-rdf-syntax-ns#"
   xmlns:svg="http://www.w3.org/2000/svg"
   xmlns="http://www.w3.org/2000/svg"
   xmlns:sodipodi="http://sodipodi.sourceforge.net/DTD/sodipodi-0.dtd"
   xmlns:inkscape="http://www.inkscape.org/namespaces/inkscape"
   xml:space="preserve"
   width="380"
   height="450"
   version="1.1"
   style="clip-rule:evenodd;fill-rule:evenodd;image-rendering:optimizeQuality;shape-rendering:geometricPrecision;text-rendering:geometricPrecision"
   viewBox="0 0 10054.167 11906.25"
   id="svg1607"
   sodipodi:docname="satisfying.svg"
   inkscape:version="0.92.4 (5da689c313, 2019-01-14)"><metadata
   id="metadata1611"><rdf:RDF><cc:Work
       rdf:about=""><dc:format>image/svg+xml</dc:format><dc:type
         rdf:resource="http://purl.org/dc/dcmitype/StillImage" /><dc:title></dc:title></cc:Work></rdf:RDF></metadata><sodipodi:namedview
   pagecolor="#ffffff"
   bordercolor="#666666"
   borderopacity="1"
   objecttolerance="10"
   gridtolerance="10"
   guidetolerance="10"
   inkscape:pageopacity="0"
   inkscape:pageshadow="2"
   inkscape:window-width="1920"
   inkscape:window-height="1017"
   id="namedview1609"
   showgrid="false"
   units="px"
   inkscape:zoom="1.1893044"
   inkscape:cx="263.10224"
   inkscape:cy="221.5602"
   inkscape:window-x="-8"
   inkscape:window-y="32"
   inkscape:window-maximized="1"
   inkscape:current-layer="svg1607" />
 <defs
   id="defs1517">
  <style
   type="text/css"
   id="style1515">
   <![CDATA[
    .str0 {stroke:white;stroke-width:75}
    .str1 {stroke:white;stroke-width:75;stroke-linecap:round}
    .fil2 {fill:none}
    .fil1 {fill:#FAFBFC;fill-rule:nonzero}
    .fil0 {fill:white;fill-rule:nonzero}
   ]]>
  </style>
 </defs>
 
<g
   transform="matrix(0.51513816,0,0,0.51513816,-573.67811,-1692.5565)"
   style="clip-rule:evenodd;fill-rule:evenodd;image-rendering:optimizeQuality;shape-rendering:geometricPrecision;text-rendering:geometricPrecision"
   id="Слой_x0020_1"><metadata
     id="CorelCorpID_0Corel-Layer" /><path
     inkscape:connector-curvature="0"
     class="fil0"
     d="m 1968,25955 c -56,0 -100,-16 -129,-47 -30,-31 -45,-74 -45,-129 0,-87 36,-181 106,-282 71,-101 140,-151 208,-151 33,0 61,16 84,49 23,32 34,66 34,101 0,33 -6,55 -18,67 -12,12 -24,17 -35,17 -34,0 -53,-23 -59,-69 -4,-34 -12,-51 -25,-51 -27,0 -62,39 -107,115 -44,77 -66,144 -66,201 0,47 26,70 76,70 55,0 111,-20 168,-59 26,-19 47,-28 63,-28 19,0 28,9 28,28 0,27 -30,61 -91,104 -61,42 -125,64 -192,64 z"
     id="path1677"
     style="fill:#ffffff;fill-rule:nonzero" /><path
     inkscape:connector-curvature="0"
     id="1"
     class="fil0"
     d="m 2488,25576 c 69,-77 137,-116 205,-116 45,0 82,14 113,41 30,28 46,60 46,95 0,84 -43,163 -130,235 -86,71 -167,107 -243,107 -43,0 -76,-17 -98,-52 -22,-35 -33,-85 -33,-150 0,-109 20,-220 59,-330 3,-11 6,-21 9,-31 4,-13 16,-24 37,-32 21,-9 36,-13 46,-13 10,0 20,4 28,13 8,10 12,21 12,33 0,10 -6,37 -19,81 -18,61 -29,101 -32,119 z m -12,116 c -2,18 -3,34 -3,48 0,41 5,65 14,74 10,9 19,13 28,13 28,0 70,-19 124,-58 55,-39 82,-82 82,-130 0,-20 -5,-37 -15,-49 -11,-13 -24,-19 -40,-19 -53,0 -105,30 -155,90 -17,20 -28,30 -35,31 z m 508,82 c 0,22 4,51 11,85 1,6 2,11 2,15 0,8 -8,19 -23,32 -15,13 -31,20 -48,20 -45,0 -68,-34 -68,-103 0,-36 2,-72 6,-105 5,-34 15,-97 33,-190 9,-49 13,-79 13,-91 0,-26 6,-47 17,-64 11,-18 27,-26 47,-26 24,0 42,5 55,17 13,11 19,24 19,37 0,14 -7,44 -20,89 -29,100 -44,195 -44,284 z"
     style="fill:#ffffff;fill-rule:nonzero" /><path
     inkscape:connector-curvature="0"
     id="2"
     class="fil0"
     d="m 3271,25893 c -4,36 -24,54 -60,54 -45,0 -67,-33 -67,-98 0,-105 5,-195 17,-270 9,-58 13,-116 13,-172 0,-13 4,-25 13,-34 9,-9 21,-13 36,-13 52,0 78,31 78,94 0,20 -9,72 -28,155 -11,50 -16,86 -16,108 98,-216 187,-324 266,-324 32,0 58,13 78,38 19,26 29,82 30,169 0,80 4,120 12,120 6,0 28,-38 65,-116 41,-86 76,-142 105,-170 29,-27 60,-41 92,-41 38,0 66,16 83,49 17,33 29,89 36,167 5,62 12,109 21,140 9,32 24,53 45,63 18,9 26,21 26,38 0,14 -10,29 -29,44 -20,15 -40,23 -60,23 -36,0 -63,-18 -83,-52 -20,-35 -33,-104 -40,-209 -4,-50 -8,-83 -12,-100 -4,-16 -11,-24 -19,-24 -8,0 -19,12 -33,37 -15,24 -40,73 -75,147 -32,66 -59,112 -81,138 -23,26 -47,39 -73,39 -20,0 -40,-8 -60,-25 -20,-18 -31,-80 -33,-188 -2,-96 -8,-144 -18,-144 -15,0 -50,43 -105,128 -55,86 -96,162 -124,229 z"
     style="fill:#ffffff;fill-rule:nonzero" /><path
     inkscape:connector-curvature="0"
     id="3"
     class="fil0"
     d="m 4667,25715 c 1,79 13,128 37,147 14,12 21,23 21,33 0,13 -9,24 -27,35 -17,11 -34,17 -50,17 -31,0 -55,-19 -71,-56 -17,-38 -25,-92 -25,-163 v -36 c 0,-1 -8,-2 -24,-2 -36,0 -78,3 -125,9 -47,6 -71,13 -71,21 0,12 -3,30 -11,55 -4,12 -5,25 -5,38 l 2,43 c 0,24 -6,45 -19,62 -12,17 -29,26 -52,26 -40,0 -60,-23 -60,-69 l 2,-43 c 0,-10 4,-37 11,-81 10,-57 17,-131 22,-221 l 8,-112 c 1,-11 9,-22 24,-34 15,-13 31,-19 50,-19 37,0 55,14 55,42 0,1 0,5 -1,12 -16,97 -23,158 -23,185 0,2 0,3 0,4 3,2 50,-2 140,-10 46,-5 72,-8 80,-11 5,-1 9,-32 14,-91 5,-55 14,-92 27,-111 14,-19 33,-28 56,-28 23,0 39,5 50,15 11,11 15,25 12,43 l -9,38 c -1,7 -4,17 -8,32 -20,69 -30,135 -30,196 z"
     style="fill:#ffffff;fill-rule:nonzero" /><path
     inkscape:connector-curvature="0"
     id="4"
     class="fil0"
     d="m 4951,25576 c 68,-77 136,-116 204,-116 45,0 83,14 113,41 31,28 46,60 46,95 0,84 -43,163 -129,235 -86,71 -168,107 -244,107 -43,0 -75,-17 -97,-52 -22,-35 -33,-85 -33,-150 0,-109 19,-220 58,-330 4,-11 7,-21 9,-31 4,-13 16,-24 37,-32 21,-9 36,-13 46,-13 11,0 20,4 28,13 9,10 13,21 13,33 0,10 -7,37 -20,81 -18,61 -28,101 -31,119 z m -12,116 c -3,18 -4,34 -4,48 0,41 5,65 14,74 10,9 19,13 28,13 29,0 70,-19 125,-58 55,-39 82,-82 82,-130 0,-20 -5,-37 -16,-49 -10,-13 -24,-19 -40,-19 -53,0 -104,30 -155,90 -16,20 -28,30 -34,31 z m 508,82 c 0,22 3,51 11,85 1,6 1,11 1,15 0,8 -7,19 -22,32 -15,13 -31,20 -49,20 -45,0 -68,-34 -68,-103 0,-36 2,-72 7,-105 4,-34 15,-97 32,-190 9,-49 13,-79 13,-91 0,-26 6,-47 17,-64 11,-18 27,-26 47,-26 24,0 42,5 55,17 13,11 19,24 19,37 0,14 -6,44 -20,89 -29,100 -43,195 -43,284 z"
     style="fill:#ffffff;fill-rule:nonzero" /><path
     inkscape:connector-curvature="0"
     id="5"
     class="fil0"
     d="m 6059,25748 c 0,36 -31,79 -91,129 -60,49 -128,75 -204,75 -58,0 -104,-19 -137,-56 -34,-36 -50,-87 -50,-153 0,-96 34,-187 102,-271 68,-85 141,-127 218,-127 39,0 70,12 93,37 24,24 36,54 36,87 0,60 -29,117 -87,172 -57,54 -131,91 -221,112 -10,2 -15,9 -15,19 0,16 7,32 22,47 14,15 34,22 58,22 69,0 138,-35 206,-107 13,-13 26,-20 39,-20 20,0 31,11 31,34 z m -347,-91 c 54,-11 102,-34 144,-70 41,-35 62,-68 62,-97 0,-11 -3,-20 -10,-28 -6,-8 -14,-12 -24,-12 -30,0 -63,22 -100,66 -36,44 -60,91 -72,141 z"
     style="fill:#ffffff;fill-rule:nonzero" /><path
     inkscape:connector-curvature="0"
     id="6"
     class="fil0"
     d="m 6919,25400 c 34,17 60,46 78,85 19,39 28,85 28,137 0,90 -29,168 -86,235 -58,66 -120,100 -188,100 -61,0 -109,-24 -144,-70 -35,-47 -52,-115 -52,-206 0,-107 19,-216 57,-325 39,-109 86,-191 141,-246 56,-55 114,-83 175,-83 40,0 72,13 96,38 24,25 35,59 35,102 0,31 -13,68 -39,111 -26,43 -60,83 -101,122 z m -211,54 c 108,-88 173,-150 196,-187 23,-37 35,-66 35,-88 0,-28 -9,-43 -27,-43 -33,0 -68,29 -107,87 -38,58 -70,135 -97,231 z m 187,179 c 0,-40 -6,-74 -18,-102 -12,-28 -29,-44 -51,-47 -1,0 -7,4 -20,14 l -122,91 c -4,29 -6,59 -6,90 0,111 27,166 82,166 39,0 71,-21 96,-65 26,-43 39,-91 39,-143 z"
     style="fill:#ffffff;fill-rule:nonzero" /><path
     inkscape:connector-curvature="0"
     id="7"
     class="fil0"
     d="m 7595,25748 c 0,36 -30,79 -90,129 -60,49 -128,75 -204,75 -59,0 -104,-19 -138,-56 -33,-36 -50,-87 -50,-153 0,-96 34,-187 103,-271 68,-85 141,-127 218,-127 39,0 70,12 93,37 23,24 35,54 35,87 0,60 -28,117 -86,172 -58,54 -131,91 -221,112 -11,2 -16,9 -16,19 0,16 8,32 22,47 15,15 34,22 59,22 69,0 138,-35 206,-107 13,-13 26,-20 38,-20 21,0 31,11 31,34 z m -347,-91 c 55,-11 103,-34 144,-70 42,-35 63,-68 63,-97 0,-11 -3,-20 -10,-28 -6,-8 -14,-12 -24,-12 -30,0 -64,22 -100,66 -37,44 -61,91 -73,141 z"
     style="fill:#ffffff;fill-rule:nonzero" /><path
     inkscape:connector-curvature="0"
     id="8"
     class="fil0"
     d="m 7965,25360 c -19,-26 -50,-58 -95,-96 -44,-37 -67,-68 -67,-92 0,-18 5,-33 13,-46 9,-13 18,-21 29,-26 10,-5 34,-12 71,-21 93,-22 172,-46 236,-70 12,-5 23,-7 33,-7 24,0 37,13 37,41 0,17 -21,35 -61,57 -41,21 -109,43 -206,65 -13,2 -20,7 -20,14 0,4 14,17 42,39 107,83 161,198 161,343 0,56 -15,117 -46,183 -31,67 -72,116 -124,148 -51,32 -101,48 -150,48 -47,0 -83,-22 -109,-64 -26,-42 -39,-91 -39,-147 0,-90 29,-176 86,-255 58,-80 119,-120 183,-120 z m -169,364 c 0,73 11,110 33,110 19,0 45,-13 77,-38 33,-26 59,-62 79,-110 20,-48 30,-94 30,-136 0,-34 -3,-61 -9,-81 -5,-19 -11,-29 -15,-29 -53,0 -99,34 -137,101 -39,68 -58,129 -58,183 z"
     style="fill:#ffffff;fill-rule:nonzero" /><path
     inkscape:connector-curvature="0"
     id="9"
     class="fil0"
     d="m 8589,25737 c -34,60 -72,108 -115,144 -44,35 -88,53 -133,53 -27,0 -53,-14 -80,-42 -28,-28 -41,-71 -41,-129 0,-41 10,-103 31,-185 18,-68 27,-120 27,-156 14,-29 35,-43 64,-43 20,0 36,6 48,20 12,13 18,26 18,40 0,24 -9,59 -26,104 -10,27 -21,65 -32,114 -12,49 -17,81 -17,94 0,46 9,69 28,69 30,0 71,-29 121,-86 51,-58 85,-117 100,-177 16,-59 29,-97 42,-116 12,-18 29,-27 51,-27 36,0 54,20 54,60 0,6 -3,17 -9,35 -21,61 -31,130 -31,206 0,90 15,143 46,161 10,6 15,13 15,22 0,12 -9,24 -27,35 -17,11 -34,16 -50,16 -27,0 -48,-19 -63,-57 -14,-39 -21,-90 -21,-155 z"
     style="fill:#ffffff;fill-rule:nonzero" /><path
     inkscape:connector-curvature="0"
     id="10"
     class="fil0"
     d="m 9343,25715 c 1,79 13,128 37,147 14,12 21,23 21,33 0,13 -9,24 -27,35 -17,11 -34,17 -50,17 -31,0 -55,-19 -71,-56 -17,-38 -25,-92 -25,-163 v -36 c 0,-1 -8,-2 -24,-2 -36,0 -78,3 -125,9 -47,6 -71,13 -71,21 0,12 -4,30 -11,55 -4,12 -6,25 -6,38 l 2,43 c 0,24 -5,45 -18,62 -12,17 -29,26 -52,26 -40,0 -60,-23 -60,-69 l 2,-43 c 0,-10 3,-37 11,-81 9,-57 17,-131 22,-221 l 8,-112 c 1,-11 9,-22 24,-34 15,-13 31,-19 50,-19 37,0 55,14 55,42 0,1 0,5 -1,12 -16,97 -23,158 -23,185 0,2 0,3 0,4 3,2 50,-2 140,-10 46,-5 72,-8 80,-11 5,-1 9,-32 14,-91 5,-55 14,-92 27,-111 14,-19 32,-28 56,-28 23,0 39,5 50,15 11,11 15,25 12,43 l -9,38 c -1,7 -4,17 -8,32 -21,69 -31,135 -31,196 z"
     style="fill:#ffffff;fill-rule:nonzero" /><path
     inkscape:connector-curvature="0"
     id="11"
     class="fil0"
     d="m 9839,25754 c -89,119 -176,178 -259,178 -31,0 -58,-12 -80,-36 -22,-25 -34,-56 -34,-94 0,-91 41,-188 122,-292 82,-103 164,-154 246,-154 42,0 70,21 83,63 40,0 60,15 60,46 0,14 -4,40 -12,78 -14,71 -21,128 -21,170 0,44 3,75 9,93 7,18 11,30 14,35 2,6 11,12 25,18 13,6 20,16 20,27 0,18 -9,33 -26,44 -18,12 -37,18 -56,18 -33,0 -56,-16 -70,-49 -14,-32 -21,-70 -21,-113 v -16 c 0,-5 0,-10 0,-16 z m -27,-288 c -35,0 -80,39 -136,116 -56,77 -83,142 -83,196 0,28 5,42 17,42 41,0 91,-36 150,-108 60,-72 89,-135 89,-189 0,-18 -4,-31 -11,-42 -8,-10 -17,-15 -26,-15 z"
     style="fill:#ffffff;fill-rule:nonzero" /><path
     inkscape:connector-curvature="0"
     id="12"
     class="fil0"
     d="m 10231,25893 c -7,27 -16,79 -26,154 -10,75 -17,125 -19,151 -2,25 -11,47 -26,65 -16,18 -30,27 -42,27 -16,0 -31,-6 -46,-18 -16,-11 -23,-24 -23,-38 0,-28 4,-60 13,-97 51,-206 80,-419 85,-638 v -10 c 0,-43 1,-72 4,-87 2,-15 11,-29 26,-43 14,-14 31,-20 51,-20 16,0 30,7 40,22 11,15 16,36 16,64 0,28 -5,78 -16,148 39,-64 84,-116 138,-158 53,-42 101,-63 145,-63 39,0 72,14 99,41 27,28 40,63 40,104 0,111 -43,213 -129,304 -87,91 -172,136 -256,136 -40,0 -64,-15 -74,-44 z m 300,-424 c -42,0 -97,41 -164,123 -67,82 -100,147 -100,194 0,12 6,22 18,32 12,9 26,14 41,14 44,0 94,-34 151,-103 57,-69 85,-135 85,-199 0,-22 -3,-37 -10,-46 -6,-10 -14,-15 -21,-15 z"
     style="fill:#ffffff;fill-rule:nonzero" /><path
     inkscape:connector-curvature="0"
     id="13"
     class="fil0"
     d="m 10928,25576 c 68,-77 136,-116 204,-116 45,0 83,14 113,41 31,28 46,60 46,95 0,84 -43,163 -129,235 -86,71 -168,107 -244,107 -43,0 -75,-17 -97,-52 -22,-35 -33,-85 -33,-150 0,-109 19,-220 58,-330 4,-11 7,-21 9,-31 4,-13 16,-24 37,-32 21,-9 36,-13 46,-13 11,0 20,4 29,13 8,10 12,21 12,33 0,10 -7,37 -20,81 -18,61 -28,101 -31,119 z m -12,116 c -3,18 -4,34 -4,48 0,41 5,65 15,74 9,9 18,13 27,13 29,0 70,-19 125,-58 55,-39 82,-82 82,-130 0,-20 -5,-37 -16,-49 -10,-13 -24,-19 -39,-19 -54,0 -105,30 -155,90 -17,20 -29,30 -35,31 z m 508,82 c 0,22 3,51 11,85 1,6 1,11 1,15 0,8 -7,19 -22,32 -15,13 -31,20 -48,20 -46,0 -69,-34 -69,-103 0,-36 2,-72 7,-105 4,-34 15,-97 32,-190 9,-49 14,-79 14,-91 0,-26 5,-47 16,-64 12,-18 27,-26 47,-26 24,0 43,5 55,17 13,11 19,24 19,37 0,14 -6,44 -20,89 -29,100 -43,195 -43,284 z"
     style="fill:#ffffff;fill-rule:nonzero" /><g
     id="g1694"><path
       inkscape:connector-curvature="0"
       class="fil1"
       d="m 7899,23292 83,57 v 0 l -23,32 -24,33 -26,32 -26,33 -28,32 -29,32 -30,32 -31,33 -32,32 -33,32 -33,32 -35,32 -36,33 -36,32 -37,32 -37,32 -39,32 -38,32 -40,32 -40,32 -40,32 -41,32 -41,33 -42,32 -42,32 -42,32 -43,32 -42,32 -43,32 -43,32 -43,32 -43,32 -60,-81 43,-31 43,-32 43,-32 43,-32 42,-32 42,-32 42,-32 42,-32 41,-32 41,-31 41,-32 40,-32 39,-32 39,-31 38,-32 38,-31 37,-32 36,-31 36,-32 34,-31 34,-32 33,-31 32,-31 31,-31 29,-31 29,-31 28,-31 26,-31 25,-30 24,-31 23,-30 z m 89,-748 70,-70 v 0 l 16,17 15,17 13,19 12,20 12,21 10,22 9,23 7,23 7,24 5,25 5,26 3,26 2,27 1,27 -1,28 -1,29 -3,29 -4,29 -5,30 -6,30 -7,31 -9,31 -10,31 -11,31 -13,32 -13,32 -15,32 -17,33 -17,32 -19,32 -20,33 -22,33 -83,-57 20,-30 19,-30 18,-30 16,-30 15,-29 13,-30 13,-29 11,-29 10,-28 9,-28 8,-28 6,-27 6,-27 4,-26 4,-25 2,-25 1,-25 1,-24 -1,-23 -2,-22 -2,-22 -4,-21 -4,-20 -5,-19 -7,-18 -6,-18 -8,-16 -8,-16 -9,-14 -10,-14 -10,-13 z m -506,24 -71,-71 v 0 l 16,-14 16,-14 17,-12 17,-12 19,-12 19,-10 19,-9 20,-9 21,-8 21,-7 21,-6 22,-6 21,-4 23,-4 22,-3 22,-2 23,-1 h 22 l 22,1 23,1 22,3 22,4 22,5 21,6 22,7 20,8 21,9 20,11 19,12 18,13 18,14 16,16 -70,70 -12,-11 -12,-10 -14,-9 -13,-8 -15,-8 -15,-7 -15,-6 -17,-5 -16,-5 -17,-4 -18,-3 -17,-2 -18,-1 -18,-1 h -19 l -18,1 -19,1 -18,3 -18,3 -18,4 -18,4 -17,5 -17,6 -17,6 -16,7 -15,8 -15,8 -15,9 -13,9 -13,10 -12,10 z m 55,268 8,99 v 0 l -22,1 h -22 l -21,-3 -20,-4 -19,-5 -18,-8 -17,-9 -16,-10 -14,-12 -13,-13 -11,-14 -10,-15 -8,-16 -7,-17 -6,-17 -4,-17 -3,-18 -1,-17 -1,-19 1,-18 2,-18 3,-18 5,-18 5,-19 7,-18 7,-17 9,-18 10,-17 11,-17 12,-16 13,-16 14,-15 71,71 -10,11 -9,11 -9,12 -8,11 -7,13 -6,12 -5,12 -5,13 -4,13 -3,12 -2,12 -1,12 -1,12 v 11 l 1,11 2,10 2,10 3,9 4,9 4,8 5,7 5,6 6,6 6,6 7,4 8,5 9,3 10,3 11,3 13,1 h 14 z m 859,-635 77,63 v 0 l -29,35 -29,34 -30,33 -30,33 -30,32 -31,31 -31,31 -31,29 -32,29 -31,29 -31,27 -32,26 -31,26 -31,24 -31,24 -31,23 -31,21 -30,21 -30,19 -30,19 -29,17 -29,16 -28,15 -28,14 -28,13 -26,11 -26,10 -26,9 -25,7 -24,6 -24,4 -23,3 -8,-99 16,-2 18,-4 19,-4 21,-6 22,-8 22,-9 24,-10 25,-11 25,-12 26,-14 27,-15 27,-17 28,-17 28,-18 29,-20 29,-20 30,-22 29,-23 30,-23 30,-25 31,-25 30,-26 30,-28 30,-27 30,-29 30,-30 30,-30 29,-31 29,-31 29,-32 28,-33 z m 608,-1164 96,28 v 0 l -10,35 -12,35 -11,35 -12,36 -13,36 -14,37 -14,38 -15,37 -15,38 -16,38 -16,38 -17,39 -18,38 -18,39 -19,39 -19,39 -20,39 -21,39 -21,39 -22,39 -22,39 -23,38 -23,38 -24,39 -25,37 -25,38 -25,37 -27,37 -26,37 -28,36 -27,35 -29,35 -77,-63 27,-34 27,-34 26,-35 26,-35 26,-36 24,-36 25,-36 24,-37 23,-37 22,-37 23,-38 21,-38 21,-37 21,-38 20,-38 19,-38 19,-38 19,-38 17,-38 18,-37 16,-38 16,-37 16,-37 15,-37 14,-36 14,-37 13,-35 12,-36 12,-35 11,-34 11,-34 z m 104,-862 h 100 v 24 24 25 24 l -1,25 v 25 25 l -1,25 -1,25 v 25 l -2,26 -1,26 -1,26 -2,26 -2,27 -3,27 -2,27 -3,28 -4,28 -4,28 -4,29 -4,29 -5,29 -6,30 -6,31 -6,31 -7,31 -8,32 -8,32 -8,33 -9,33 -10,34 -96,-28 9,-33 9,-32 9,-32 7,-31 7,-30 7,-31 6,-29 6,-29 5,-29 5,-28 4,-28 4,-28 4,-27 3,-27 3,-26 3,-26 2,-26 2,-26 2,-25 1,-26 2,-25 1,-25 v -24 l 1,-25 1,-24 v -25 -24 l 1,-24 v -25 -24 -24 z m 50,-352 300,700 -19,-9 -19,-9 -18,-7 -19,-8 -19,-7 -19,-6 -18,-5 -19,-5 -19,-5 -19,-3 -18,-4 -19,-2 -19,-2 -19,-2 -18,-1 h -19 -19 l -19,1 -18,2 -19,2 -19,2 -19,4 -18,3 -19,5 -19,5 -19,5 -18,6 -19,7 -19,8 -19,7 -18,9 -19,9 v 0 z"
       id="path1692"
       style="fill:#fafbfc;fill-rule:nonzero" /></g><path
     inkscape:connector-curvature="0"
     class="fil2 str0"
     d="m 9325,8975 c -4,215 24,591 -16,788 l -121,435 c -396,1158 -1338,2048 -2493,2468 -244,89 -544,142 -742,223 1128,1203 1529,1655 2947,2686 725,528 932,701 1179,1744 197,838 711,1340 1150,1995 790,-125 1131,-114 1961,-477 550,-240 1202,-615 1449,-1179 34,-77 58,-102 83,-180 164,-496 202,-931 246,-1464 22,-262 32,-618 18,-879 -9,-170 -367,-769 -475,-974 -510,-963 -506,-944 -1388,-1443 l -555,-311 C 10344,11043 9565,9188 9325,8975 Z"
     id="path1696"
     style="fill:none;stroke:#ffffff;stroke-width:75" /><path
     inkscape:connector-curvature="0"
     class="fil2 str0"
     d="m 14961,15127 c -22,996 70,2235 -491,2867 -567,640 -1514,1028 -2375,1211 -190,40 -706,97 -811,139 610,754 1141,1518 1902,2172 253,218 471,383 706,562 312,239 745,784 1341,1263 365,293 1132,731 1559,749 l 971,-2457 c 59,-141 79,-236 133,-351 215,-454 364,-923 604,-1385 l 77,-162 c 101,-189 135,-289 273,-510 l 435,-654 -586,-260 c -671,-361 -937,-440 -1682,-1034 -531,-425 -1067,-945 -1499,-1498 -92,-118 -490,-601 -557,-652 z"
     id="path1698"
     style="fill:none;stroke:#ffffff;stroke-width:75" /><path
     inkscape:connector-curvature="0"
     class="fil2 str0"
     d="m 6450,8608 c 31,120 92,54 168,116 60,48 109,45 167,120 55,71 60,142 95,224 72,30 145,9 198,108 128,239 -643,1423 -1255,1271 -45,-131 22,-168 -74,-257 -85,-79 -69,11 -189,-160 -224,-204 -202,-226 -452,223 -243,462 -159,1300 463,1583 825,375 1524,-273 2121,-854 323,-314 493,-549 678,-893 615,-1143 -180,-2329 -1148,-2075 -289,76 -520,489 -772,594 z"
     id="path1700"
     style="fill:none;stroke:#ffffff;stroke-width:75" /><path
     inkscape:connector-curvature="0"
     class="fil2 str0"
     d="m 7841,8012 c 484,390 866,758 755,1471 -72,462 -328,920 -699,1329 -469,515 -1539,1296 -2325,1111 -309,-270 -403,-483 -476,-505 -252,-76 561,1125 823,1438 1556,-344 2479,-1071 3060,-2204 60,-117 126,-268 155,-382 107,-408 257,-819 189,-1274 -14,-94 -173,-368 -231,-463 -101,-167 -166,-268 -306,-358 -191,-123 -682,-201 -945,-163 z"
     id="path1702"
     style="fill:none;stroke:#ffffff;stroke-width:75" /><path
     inkscape:connector-curvature="0"
     class="fil2 str0"
     d="m 19421,18550 c -344,246 -791,1037 -949,1327 -65,120 -106,239 -167,359 -272,517 -2058,3780 -1366,4119 98,0 332,229 387,211 149,-51 169,-393 334,-728 l 959,-2306 c 48,-114 119,-258 165,-380 115,-309 119,-270 216,-475 224,-472 478,-937 817,-1360 82,-103 221,-241 284,-347 l -351,-180 c -117,-70 -216,-170 -329,-240 z"
     id="path1704"
     style="fill:none;stroke:#ffffff;stroke-width:75" /><path
     inkscape:connector-curvature="0"
     class="fil2 str0"
     d="m 5807,10004 c 32,-33 262,-82 357,-137 95,-56 211,-220 328,-187 55,200 -433,377 -622,433 63,119 41,110 64,223 405,-117 399,-189 679,-408 -46,-26 -57,-25 -92,-94 118,-176 129,-217 174,-411 45,-196 82,-282 -14,-510 l -54,178 c -8,55 -15,106 -30,158 -29,99 -82,189 -151,289 -207,299 -317,277 -639,466 z"
     id="path1706"
     style="fill:none;stroke:#ffffff;stroke-width:75" /><path
     inkscape:connector-curvature="0"
     class="fil2 str0"
     d="m 3599,6488 c 145,153 255,229 400,424 131,176 229,342 315,540 178,408 217,832 313,1243 99,424 328,835 656,1021 304,171 813,150 1058,-147 274,-332 103,-705 -100,-1164 C 6045,7963 5844,7637 5519,7359 5053,6961 4265,6323 3599,6488 Z"
     id="path1708"
     style="fill:none;stroke:#ffffff;stroke-width:75" /><path
     inkscape:connector-curvature="0"
     class="fil2 str0"
     d="m 2647,3832 c -206,-173 -618,-350 -919,-230 -300,120 -488,538 -464,855 25,317 262,533 483,596 220,63 425,-27 605,-171 181,-145 338,-343 417,-526 80,-183 83,-351 -122,-524 z"
     id="path1710"
     style="fill:none;stroke:#ffffff;stroke-width:75" /><path
     inkscape:connector-curvature="0"
     class="fil2 str0"
     d="m 1980,3953 c -185,134 -370,267 -403,397 -32,130 88,257 208,384"
     id="path1712"
     style="fill:none;stroke:#ffffff;stroke-width:75" /><path
     inkscape:connector-curvature="0"
     class="fil2 str0"
     d="m 4803,4347 c -130,-90 -375,-149 -485,-49 -110,100 -85,359 17,488 101,128 281,126 398,87 118,-39 174,-116 195,-215 20,-99 5,-221 -125,-311 z"
     id="path1714"
     style="fill:none;stroke:#ffffff;stroke-width:75" /><path
     inkscape:connector-curvature="0"
     class="fil2 str0"
     d="m 11654,11676 c -113,616 -226,1232 -553,1801 -327,569 -867,1091 -1355,1384 -488,293 -922,357 -1357,421"
     id="path1716"
     style="fill:none;stroke:#ffffff;stroke-width:75" /><path
     inkscape:connector-curvature="0"
     class="fil2 str0"
     d="m 7006,7722 c 259,-153 517,-306 811,-353 294,-47 623,12 870,100 247,88 412,206 471,259 59,52 12,41 -35,29"
     id="path1718"
     style="fill:none;stroke:#ffffff;stroke-width:75" /><path
     inkscape:connector-curvature="0"
     class="fil2 str0"
     d="m 7323,7298 c 200,-129 400,-258 600,-276 200,-18 400,76 600,171"
     id="path1720"
     style="fill:none;stroke:#ffffff;stroke-width:75" /><path
     inkscape:connector-curvature="0"
     class="fil2 str0"
     d="m 11288,15600 c 152,-95 215,-177 238,-281 22,-105 4,-231 -29,-382 -33,-151 -81,-325 -23,-382 59,-57 222,4 378,77 156,72 304,157 459,165 154,8 316,-61 457,-161 141,-101 263,-233 374,-263 111,-31 211,41 205,208 -7,168 -120,433 -127,623 -7,190 94,306 213,444 119,137 256,296 256,407 0,111 -137,174 -326,162 -189,-12 -430,-99 -541,-4 -111,95 -92,373 -115,596 -22,223 -86,393 -181,408 -95,16 -222,-121 -330,-290 -108,-169 -198,-370 -263,-494 -65,-125 -104,-172 -297,-196 -193,-24 -540,-24 -728,-74 -189,-50 -221,-151 -117,-255 105,-104 345,-213 497,-308 z"
     id="path1722"
     style="fill:none;stroke:#ffffff;stroke-width:75" /></g></svg>