<?xml version="1.0" encoding="UTF-8" standalone="no"?>
<!-- Creator: CorelDRAW X7 -->

<svg
   xmlns:dc="http://purl.org/dc/elements/1.1/"
   xmlns:cc="http://creativecommons.org/ns#"
   xmlns:rdf="http://www.w3.org/1999/02/22-rdf-syntax-ns#"
   xmlns:svg="http://www.w3.org/2000/svg"
   xmlns="http://www.w3.org/2000/svg"
   xmlns:sodipodi="http://sodipodi.sourceforge.net/DTD/sodipodi-0.dtd"
   xmlns:inkscape="http://www.inkscape.org/namespaces/inkscape"
   xml:space="preserve"
   width="8.25in"
   height="5.5in"
   version="1.1"
   style="clip-rule:evenodd;fill-rule:evenodd;image-rendering:optimizeQuality;shape-rendering:geometricPrecision;text-rendering:geometricPrecision"
   viewBox="0 0 20955 13970"
   id="svg4220"
   sodipodi:docname="schema.svg"
   inkscape:version="0.92.4 (5da689c313, 2019-01-14)"><metadata
   id="metadata4224"><rdf:RDF><cc:Work
       rdf:about=""><dc:format>image/svg+xml</dc:format><dc:type
         rdf:resource="http://purl.org/dc/dcmitype/StillImage" /><dc:title></dc:title></cc:Work></rdf:RDF></metadata><sodipodi:namedview
   pagecolor="#ffffff"
   bordercolor="#666666"
   borderopacity="1"
   objecttolerance="10"
   gridtolerance="10"
   guidetolerance="10"
   inkscape:pageopacity="0"
   inkscape:pageshadow="2"
   inkscape:window-width="1920"
   inkscape:window-height="1017"
   id="namedview4222"
   showgrid="false"
   units="in"
   width="6.25in"
   inkscape:zoom="0.75544332"
   inkscape:cx="396.85039"
   inkscape:cy="137.66751"
   inkscape:window-x="-8"
   inkscape:window-y="32"
   inkscape:window-maximized="1"
   inkscape:current-layer="svg4220" />
 <defs
   id="defs4024">
  <style
   type="text/css"
   id="style4022">
   <![CDATA[
    .str4 {stroke:#2B2A29;stroke-width:75}
    .str7 {stroke:#E31E24;stroke-width:75}
    .str6 {stroke:#1EBAFB;stroke-width:75}
    .str5 {stroke:#FEEC0C;stroke-width:75}
    .str0 {stroke:#2B2A29;stroke-width:75;stroke-linecap:round;stroke-linejoin:round}
    .str3 {stroke:#E31E24;stroke-width:75;stroke-linecap:round;stroke-linejoin:round}
    .str1 {stroke:#1EBAFB;stroke-width:75;stroke-linecap:round;stroke-linejoin:round}
    .str2 {stroke:#20B9FD;stroke-width:75;stroke-linecap:round;stroke-linejoin:round}
    .fil0 {fill:none}
    .fil1 {fill:white}
    .fil2 {fill:#2B2A29;fill-rule:nonzero}
   ]]>
  </style>
 </defs>
 <g
   id="Слой_x0020_1"
   transform="translate(-350.23585,-8445.0942)">
  <metadata
   id="CorelCorpID_0Corel-Layer" />
  <path
   class="fil0 str0"
   d="m 1449,20800 c -13,40 -27,81 -15,106 12,25 49,35 109,44 61,8 145,15 203,10 57,-5 87,-22 89,-56 1,-33 -25,-84 -39,-106 -13,-22 -13,-15 -24,-60 -10,-46 -30,-143 -50,-241"
   id="path4027"
   inkscape:connector-curvature="0"
   style="fill:none;stroke:#2b2a29;stroke-width:75;stroke-linecap:round;stroke-linejoin:round" />
  <path
   class="fil0 str0"
   d="m 1613,13861 c 67,-24 156,5 218,157 61,153 95,429 108,752 14,323 7,694 0,1219 -7,526 -13,1206 -20,1802 -7,596 -13,1108 -44,1398 -30,289 -84,357 -151,387 -68,30 -149,23 -206,-4 -57,-26 -91,-74 -108,-215 -16,-142 -16,-377 -20,-690 -3,-314 -10,-704 -10,-1088 0,-384 7,-761 10,-1068 4,-306 4,-542 7,-855 3,-313 10,-704 13,-953 4,-250 4,-357 11,-445 6,-87 20,-155 49,-226 30,-72 75,-148 143,-171 z"
   id="path4029"
   inkscape:connector-curvature="0"
   style="fill:none;stroke:#2b2a29;stroke-width:75;stroke-linecap:round;stroke-linejoin:round" />
  <path
   class="fil0 str0"
   d="m 1414,15248 c 175,7 350,14 525,20"
   id="path4031"
   inkscape:connector-curvature="0"
   style="fill:none;stroke:#2b2a29;stroke-width:75;stroke-linecap:round;stroke-linejoin:round" />
  <path
   class="fil0 str0"
   d="m 1414,15491 c 175,6 350,13 525,20"
   id="path4033"
   inkscape:connector-curvature="0"
   style="fill:none;stroke:#2b2a29;stroke-width:75;stroke-linecap:round;stroke-linejoin:round" />
  <path
   class="fil0 str0"
   d="m 1373,17552 c 181,-5 361,-10 541,-15"
   id="path4035"
   inkscape:connector-curvature="0"
   style="fill:none;stroke:#2b2a29;stroke-width:75;stroke-linecap:round;stroke-linejoin:round" />
  <path
   class="fil0 str1"
   d="m 1368,17799 c 189,-10 378,-20 566,-30"
   id="path4037"
   inkscape:connector-curvature="0"
   style="fill:none;stroke:#1ebafb;stroke-width:75;stroke-linecap:round;stroke-linejoin:round" />
  <path
   class="fil1 str0"
   d="m 1414,19263 c -37,-37 -110,-36 -146,26 -36,61 -36,182 -39,337 -4,155 -11,344 0,512 10,169 37,317 74,381 37,64 84,44 113,-26 30,-70 42,-190 41,-310 -1,-121 -15,-242 -17,-364 -3,-122 6,-245 9,-344 4,-100 2,-175 -35,-212 z"
   id="path4039"
   inkscape:connector-curvature="0"
   style="fill:#ffffff;stroke:#2b2a29;stroke-width:75;stroke-linecap:round;stroke-linejoin:round" />
  <path
   class="fil1 str0"
   d="m 1827,19274 c 25,-50 61,-96 91,-45 31,50 55,197 71,365 16,167 22,356 12,524 -10,168 -37,317 -74,381 -37,64 -84,43 -112,-21 -27,-65 -35,-175 -40,-283 -6,-109 -9,-217 -9,-344 1,-127 5,-273 14,-374 9,-100 23,-154 47,-203 z"
   id="path4041"
   inkscape:connector-curvature="0"
   style="fill:#ffffff;stroke:#2b2a29;stroke-width:75;stroke-linecap:round;stroke-linejoin:round" />
  <path
   class="fil1 str0"
   d="m 1570,19387 c 44,-17 105,-37 135,14 30,50 30,171 34,326 3,155 10,344 0,512 -11,169 -38,317 -75,381 -37,64 -84,44 -114,-20 -30,-64 -43,-172 -56,-280 -13,-108 -26,-215 -30,-364 -3,-148 4,-336 20,-437 17,-101 43,-115 86,-132 z"
   id="path4043"
   inkscape:connector-curvature="0"
   style="fill:#ffffff;stroke:#2b2a29;stroke-width:75;stroke-linecap:round;stroke-linejoin:round" />
  <path
   class="fil0 str0"
   d="m 2060,13894 c 613,7 1226,14 1519,17 293,4 266,4 239,4"
   id="path4045"
   inkscape:connector-curvature="0"
   style="fill:none;stroke:#2b2a29;stroke-width:75;stroke-linecap:round;stroke-linejoin:round" />
  <g
   id="g4049">
   <path
   class="fil2"
   d="m 2892,17875 c 0,-20 16,-37 37,-37 21,-1 38,16 38,37 z m 95,2865 -75,1 -1,-90 v -89 l -1,-90 -1,-89 v -90 l -1,-90 v -89 l -1,-90 -1,-89 v -90 l -1,-89 -1,-90 v -89 l -1,-90 v -89 l -1,-90 -1,-90 v -89 l -1,-90 -1,-89 v -90 l -1,-89 -1,-90 v -89 l -1,-90 v -89 l -1,-90 -1,-89 v -90 l -1,-90 -1,-89 v -90 h 75 v 89 l 1,90 1,89 v 90 l 1,90 1,89 v 90 l 1,89 v 90 l 1,89 1,90 v 89 l 1,90 1,89 v 90 l 1,89 1,90 v 90 l 1,89 v 90 l 1,89 1,90 v 89 l 1,90 1,89 v 90 l 1,89 v 90 l 1,90 1,89 v 90 z m -36,264 -228,-523 14,7 14,6 14,6 14,5 14,5 14,5 14,4 14,3 15,3 14,3 14,2 14,2 14,2 14,1 h 14 14 14 l 14,-1 14,-1 14,-1 14,-2 14,-3 14,-3 14,-3 14,-4 15,-4 14,-5 14,-5 14,-6 14,-6 14,-6 14,-7 v 0 z m 36,-264 c 0,21 -17,38 -37,38 -21,0 -38,-17 -38,-37 z"
   id="path4047"
   inkscape:connector-curvature="0"
   style="fill:#2b2a29;fill-rule:nonzero" />
  </g>
  <g
   id="g4053">
   <path
   class="fil2"
   d="m 2925,13954 233,521 v 0 l -14,-6 -14,-6 -14,-6 -14,-5 -14,-5 -14,-5 -15,-4 -14,-3 -14,-3 -14,-3 -14,-2 -14,-2 -14,-1 -14,-1 h -14 -14 -14 l -15,1 -14,1 -14,2 -14,2 -14,3 -14,3 -14,3 -14,4 -14,5 -14,5 -14,5 -14,6 -14,6 -14,6 -14,7 z m -33,264 c -1,-20 16,-37 37,-38 20,0 37,16 38,37 z m 115,2525 -75,1 -1,-79 -1,-79 -2,-79 -1,-79 -1,-79 -1,-78 -2,-79 -1,-79 -1,-79 -1,-79 -2,-79 -1,-79 -1,-79 -1,-79 -2,-79 -1,-79 -1,-79 -2,-79 -1,-79 -1,-79 -1,-78 -2,-79 -1,-79 -1,-79 -1,-79 -2,-79 -1,-79 -1,-79 -1,-79 -2,-79 -1,-79 -1,-79 75,-1 1,79 1,79 2,79 1,79 1,79 1,79 2,79 1,79 1,79 1,78 2,79 1,79 1,79 1,79 2,79 1,79 1,79 2,79 1,79 1,79 1,79 2,79 1,79 1,78 1,79 2,79 1,79 1,79 1,79 2,79 1,79 z m 0,0 c 1,21 -16,38 -37,38 -20,0 -37,-16 -38,-37 z"
   id="path4051"
   inkscape:connector-curvature="0"
   style="fill:#2b2a29;fill-rule:nonzero" />
  </g>
  <path
   class="fil0 str1"
   d="m 1919,14258 c -35,22 -71,44 -117,57 -46,12 -104,16 -161,19"
   id="path4055"
   inkscape:connector-curvature="0"
   style="fill:none;stroke:#1ebafb;stroke-width:75;stroke-linecap:round;stroke-linejoin:round" />
  <path
   class="fil0 str2"
   d="m 1414,14319 c 60,6 121,13 182,20"
   id="path4057"
   inkscape:connector-curvature="0"
   style="fill:none;stroke:#20b9fd;stroke-width:75;stroke-linecap:round;stroke-linejoin:round" />
  <path
   class="fil0 str0"
   d="m 1257,20406 c -7,67 -13,135 -28,192 -16,57 -39,104 -32,138 6,34 43,54 89,64 45,10 99,10 148,2 49,-9 93,-26 115,-47 21,-22 21,-49 5,-85 -17,-35 -51,-79 -73,-124 -22,-46 -32,-93 -42,-140"
   id="path4059"
   inkscape:connector-curvature="0"
   style="fill:none;stroke:#2b2a29;stroke-width:75;stroke-linecap:round;stroke-linejoin:round" />
  <path
   class="fil0 str0"
   d="m 1964,20426 c 11,78 21,155 37,212 17,58 41,95 34,123 -7,29 -44,49 -89,54 -46,5 -99,-5 -130,-20 -30,-15 -37,-35 -42,-71 -5,-35 -8,-86 -12,-136"
   id="path4061"
   inkscape:connector-curvature="0"
   style="fill:none;stroke:#2b2a29;stroke-width:75;stroke-linecap:round;stroke-linejoin:round" />
  <path
   class="fil0 str0"
   d="m 4096,20840 c -13,41 -27,81 -15,106 12,26 49,36 110,44 60,9 144,15 202,10 57,-5 87,-22 89,-55 2,-34 -25,-84 -39,-106 -13,-22 -13,-15 -23,-61 -11,-45 -31,-143 -51,-241"
   id="path4063"
   inkscape:connector-curvature="0"
   style="fill:none;stroke:#2b2a29;stroke-width:75;stroke-linecap:round;stroke-linejoin:round" />
  <path
   class="fil0 str0"
   d="m 4260,13901 c 67,-23 156,5 218,158 61,152 95,428 108,751 14,324 7,694 0,1220 -6,525 -13,1205 -20,1801 -7,596 -13,1108 -44,1398 -30,290 -84,357 -151,387 -68,31 -148,24 -206,-3 -57,-27 -91,-74 -107,-216 -17,-141 -17,-377 -21,-690 -3,-313 -10,-704 -10,-1088 0,-384 7,-761 10,-1067 4,-307 4,-543 7,-856 3,-313 10,-704 14,-953 3,-249 3,-357 10,-444 6,-88 20,-155 49,-227 30,-72 75,-147 143,-171 z"
   id="path4065"
   inkscape:connector-curvature="0"
   style="fill:none;stroke:#2b2a29;stroke-width:75;stroke-linecap:round;stroke-linejoin:round" />
  <path
   class="fil0 str0"
   d="m 4061,15289 c 175,6 350,13 525,20"
   id="path4067"
   inkscape:connector-curvature="0"
   style="fill:none;stroke:#2b2a29;stroke-width:75;stroke-linecap:round;stroke-linejoin:round" />
  <path
   class="fil0 str0"
   d="m 4061,15531 c 175,7 350,14 525,20"
   id="path4069"
   inkscape:connector-curvature="0"
   style="fill:none;stroke:#2b2a29;stroke-width:75;stroke-linecap:round;stroke-linejoin:round" />
  <path
   class="fil0 str0"
   d="m 4020,17592 c 181,-5 361,-10 541,-15"
   id="path4071"
   inkscape:connector-curvature="0"
   style="fill:none;stroke:#2b2a29;stroke-width:75;stroke-linecap:round;stroke-linejoin:round" />
  <path
   class="fil0 str1"
   d="m 4015,17840 c 189,-10 378,-20 566,-31"
   id="path4073"
   inkscape:connector-curvature="0"
   style="fill:none;stroke:#1ebafb;stroke-width:75;stroke-linecap:round;stroke-linejoin:round" />
  <path
   class="fil1 str0"
   d="m 4061,19303 c -37,-37 -110,-35 -146,26 -36,62 -36,183 -39,338 -4,155 -10,343 0,512 10,168 37,316 74,380 37,64 84,44 113,-26 30,-70 42,-189 41,-310 -1,-120 -14,-241 -17,-363 -3,-123 6,-245 9,-345 4,-99 2,-175 -35,-212 z"
   id="path4075"
   inkscape:connector-curvature="0"
   style="fill:#ffffff;stroke:#2b2a29;stroke-width:75;stroke-linecap:round;stroke-linejoin:round" />
  <path
   class="fil1 str0"
   d="m 4474,19314 c 25,-50 61,-95 91,-45 31,51 55,197 71,365 16,167 22,356 12,524 -10,169 -37,317 -74,381 -37,64 -84,44 -111,-21 -28,-65 -36,-174 -41,-283 -6,-109 -9,-216 -9,-343 1,-128 5,-274 14,-374 9,-100 23,-154 47,-204 z"
   id="path4077"
   inkscape:connector-curvature="0"
   style="fill:#ffffff;stroke:#2b2a29;stroke-width:75;stroke-linecap:round;stroke-linejoin:round" />
  <path
   class="fil1 str0"
   d="m 4218,19428 c 43,-17 104,-37 134,13 30,51 30,172 34,327 3,155 10,343 0,512 -11,168 -37,316 -74,380 -38,64 -85,44 -115,-20 -30,-64 -42,-172 -56,-279 -13,-108 -26,-216 -30,-364 -3,-148 4,-337 20,-438 17,-101 43,-115 87,-131 z"
   id="path4079"
   inkscape:connector-curvature="0"
   style="fill:#ffffff;stroke:#2b2a29;stroke-width:75;stroke-linecap:round;stroke-linejoin:round" />
  <path
   class="fil0 str2"
   d="m 4566,14299 c -35,21 -71,43 -117,56 -46,13 -104,16 -161,19"
   id="path4081"
   inkscape:connector-curvature="0"
   style="fill:none;stroke:#20b9fd;stroke-width:75;stroke-linecap:round;stroke-linejoin:round" />
  <path
   class="fil0 str1"
   d="m 4061,14359 c 60,7 121,14 182,20"
   id="path4083"
   inkscape:connector-curvature="0"
   style="fill:none;stroke:#1ebafb;stroke-width:75;stroke-linecap:round;stroke-linejoin:round" />
  <path
   class="fil0 str0"
   d="m 3904,20446 c -6,68 -13,135 -28,192 -16,58 -39,105 -32,138 6,34 43,54 89,64 45,11 99,11 148,2 49,-8 93,-25 115,-47 21,-22 21,-49 5,-84 -17,-36 -51,-79 -73,-125 -22,-45 -32,-92 -42,-140"
   id="path4085"
   inkscape:connector-curvature="0"
   style="fill:none;stroke:#2b2a29;stroke-width:75;stroke-linecap:round;stroke-linejoin:round" />
  <path
   class="fil0 str0"
   d="m 4612,20467 c 10,77 20,155 37,212 16,57 40,94 33,123 -7,28 -44,49 -89,54 -45,5 -99,-5 -130,-21 -30,-15 -37,-35 -42,-70 -5,-36 -8,-86 -12,-137"
   id="path4087"
   inkscape:connector-curvature="0"
   style="fill:none;stroke:#2b2a29;stroke-width:75;stroke-linecap:round;stroke-linejoin:round" />
  <path
   class="fil2"
   d="m 2445,17309 c -14,0 -21,-4 -21,-12 0,-5 2,-9 5,-14 3,-5 15,-16 35,-31 20,-16 38,-28 55,-36 -2,0 -18,2 -47,7 -28,5 -44,8 -48,8 -22,0 -34,-10 -34,-30 0,-5 2,-9 5,-11 4,-3 8,-4 13,-4 4,0 9,1 16,5 5,2 9,3 14,3 5,0 13,0 24,-2 28,-2 52,-4 73,-5 12,-1 21,0 27,3 5,3 8,7 8,14 0,7 -2,12 -8,18 -5,5 -18,13 -39,25 -18,10 -28,16 -32,20 3,0 7,0 12,-1 6,-1 11,-1 14,-1 23,0 41,5 54,14 12,9 18,21 18,38 0,25 -15,47 -47,65 -31,18 -64,27 -98,27 -19,0 -34,-2 -45,-6 -12,-4 -18,-12 -18,-24 0,-14 7,-20 22,-20 2,0 5,0 7,2 16,8 30,12 41,12 23,0 45,-5 66,-14 21,-10 31,-22 31,-38 0,-9 -4,-15 -13,-19 -10,-4 -23,-5 -40,-5 -19,0 -36,4 -50,12 z m 287,-81 c -7,7 -15,18 -26,34 3,2 16,5 41,8 25,3 44,10 57,19 12,9 19,24 19,45 0,17 -12,34 -35,51 -23,17 -51,26 -82,26 -19,0 -36,-4 -50,-11 -15,-8 -22,-15 -22,-22 0,-14 8,-21 26,-21 4,0 9,2 15,7 11,7 23,10 35,10 14,0 29,-4 45,-13 17,-8 26,-17 26,-25 0,-10 -5,-19 -14,-25 -9,-6 -29,-10 -59,-12 -18,-1 -30,-4 -38,-10 -7,-6 -10,-11 -10,-15 0,-4 2,-9 7,-15 3,-4 8,-11 14,-20 17,-26 29,-40 34,-42 6,-3 18,-4 36,-5 18,-1 34,-1 47,-1 14,0 26,-2 36,-5 8,-2 13,-3 17,-3 6,0 12,1 19,5 7,3 10,7 10,12 0,3 -2,8 -7,14 -5,6 -12,9 -20,11 -8,1 -18,1 -31,1 -1,0 -9,0 -23,0 -14,-1 -24,-1 -31,-1 -16,0 -29,1 -36,3 z m 129,201 c 5,-1 13,-4 22,-8 10,-5 16,-11 19,-18 2,-7 4,-11 4,-11 0,-10 -1,-17 -4,-20 -2,-3 -3,-6 -3,-9 0,-3 1,-6 4,-10 2,-4 5,-6 9,-6 4,0 9,1 15,4 6,3 10,5 11,7 1,2 2,6 4,13 2,6 3,12 3,17 0,2 -2,9 -7,20 -4,10 -11,18 -18,24 -8,5 -15,9 -22,10 -2,0 -3,0 -4,1 -13,4 -21,7 -25,7 -8,0 -12,-5 -12,-13 0,-3 2,-5 4,-8 z m 315,-100 c -11,-4 -24,-6 -38,-6 h -8 c -2,9 -3,19 -4,30 v 7 c 0,6 0,14 0,24 6,6 9,11 9,14 0,5 -3,10 -7,14 -5,5 -10,7 -15,7 -8,0 -14,-1 -20,-5 -5,-4 -8,-12 -8,-23 0,-4 1,-11 2,-21 l 1,-19 c 1,-10 2,-19 3,-26 -24,0 -43,2 -58,5 -17,5 -32,7 -44,7 -7,0 -15,-5 -24,-15 4,-13 28,-37 71,-74 l 70,-57 c 2,-1 4,-3 8,-6 15,-11 24,-17 29,-17 13,0 19,4 19,12 l -9,33 c -6,19 -11,40 -14,63 -1,5 -2,11 -3,15 l 31,2 c 14,0 24,1 28,5 5,4 7,10 7,19 0,4 -1,7 -5,10 -3,3 -7,5 -11,5 -4,0 -8,-1 -10,-3 z m -63,-104 c -3,2 -7,5 -11,8 -16,12 -27,21 -32,27 -8,8 -24,22 -49,41 9,-1 22,-3 40,-6 19,-2 31,-4 37,-4 0,-3 3,-14 7,-33 z m 295,172 c -2,12 -8,18 -20,18 -14,0 -22,-11 -22,-32 0,-34 2,-64 6,-88 3,-19 4,-38 4,-56 0,-4 2,-8 4,-11 3,-3 7,-4 12,-4 17,0 25,10 25,30 0,7 -3,24 -8,51 -4,16 -6,28 -6,35 32,-70 61,-106 87,-106 10,0 19,5 25,13 6,8 10,26 10,55 0,26 1,39 4,39 2,0 9,-13 21,-38 13,-28 25,-46 34,-55 10,-9 20,-14 30,-14 13,0 22,6 27,16 6,11 10,29 12,55 2,20 4,35 7,45 3,11 8,18 15,21 5,3 8,7 8,12 0,5 -3,10 -10,15 -6,5 -12,7 -19,7 -12,0 -20,-6 -27,-17 -6,-11 -11,-34 -13,-68 -1,-16 -3,-27 -4,-32 -1,-6 -3,-8 -6,-8 -3,0 -6,4 -11,12 -5,8 -13,24 -24,47 -11,22 -19,37 -27,46 -7,8 -15,12 -23,12 -7,0 -13,-2 -20,-8 -7,-6 -10,-26 -11,-61 0,-31 -2,-47 -6,-47 -4,0 -16,14 -34,42 -18,28 -31,52 -40,74 z"
   id="path4089"
   inkscape:connector-curvature="0"
   style="fill:#2b2a29;fill-rule:nonzero" />
  <path
   class="fil0 str0"
   d="m 2000,21068 c 613,6 1226,13 1519,17 293,3 266,3 239,3"
   id="path4091"
   inkscape:connector-curvature="0"
   style="fill:none;stroke:#2b2a29;stroke-width:75;stroke-linecap:round;stroke-linejoin:round" />
  <path
   class="fil0 str0"
   d="m 7418,20980 c -53,38 -105,75 -180,87 -75,12 -172,-3 -218,-21 -46,-19 -41,-43 -43,-108 -2,-65 -11,-171 -26,-243 -15,-71 -37,-107 -36,-43 1,64 24,228 -7,321 -32,93 -118,115 -198,115 -79,0 -151,-22 -155,-144 -4,-123 61,-347 94,-618 32,-270 32,-588 21,-851 -10,-264 -32,-473 -18,-610 15,-138 65,-203 83,-441 18,-238 4,-650 -10,-1343 -15,-693 -29,-1667 -15,-2310 15,-642 58,-953 119,-1212 62,-260 141,-470 217,-545 76,-76 148,-18 213,115 65,134 122,343 169,542 47,198 83,386 98,981 14,596 7,1599 3,2469 -3,870 -3,1606 22,2206 25,599 76,1061 116,1331 39,271 68,351 25,387 -43,36 -159,29 -224,0 -65,-29 -79,-80 -87,-148 -7,-69 -7,-156 -7,-195 0,-40 0,-33 -2,-155 -3,-121 -9,-372 -15,-507 -6,-134 -13,-152 -21,-170"
   id="path4093"
   inkscape:connector-curvature="0"
   style="fill:none;stroke:#2b2a29;stroke-width:75;stroke-linecap:round;stroke-linejoin:round" />
  <path
   class="fil0 str0"
   d="m 7049,13920 c 145,-8 289,-15 434,-22"
   id="path4095"
   inkscape:connector-curvature="0"
   style="fill:none;stroke:#2b2a29;stroke-width:75;stroke-linecap:round;stroke-linejoin:round" />
  <path
   class="fil0 str0"
   d="m 6947,13925 c -67,-2 -134,-4 -201,-5"
   id="path4097"
   inkscape:connector-curvature="0"
   style="fill:none;stroke:#2b2a29;stroke-width:75;stroke-linecap:round;stroke-linejoin:round" />
  <path
   class="fil0 str0"
   d="m 6697,15528 c 147,-60 293,-120 430,-116 137,4 265,70 393,137"
   id="path4099"
   inkscape:connector-curvature="0"
   style="fill:none;stroke:#2b2a29;stroke-width:75;stroke-linecap:round;stroke-linejoin:round" />
  <path
   class="fil0 str3"
   d="m 6687,16340 c 106,-6 213,-11 356,-14 144,-3 324,-3 505,-3"
   id="path4101"
   inkscape:connector-curvature="0"
   style="fill:none;stroke:#e31e24;stroke-width:75;stroke-linecap:round;stroke-linejoin:round" />
  <path
   class="fil0 str0"
   d="m 6703,17125 c 137,-15 274,-29 408,-36 133,-8 263,-8 393,-8"
   id="path4103"
   inkscape:connector-curvature="0"
   style="fill:none;stroke:#2b2a29;stroke-width:75;stroke-linecap:round;stroke-linejoin:round" />
  <path
   class="fil0 str0"
   d="m 6811,18857 c 0,477 0,953 0,1430"
   id="path4105"
   inkscape:connector-curvature="0"
   style="fill:none;stroke:#2b2a29;stroke-width:75;stroke-linecap:round;stroke-linejoin:round" />
  <path
   class="fil0 str0"
   d="m 7558,12923 c 434,0 867,0 1080,-7 213,-7 205,-22 198,-36"
   id="path4107"
   inkscape:connector-curvature="0"
   style="fill:none;stroke:#2b2a29;stroke-width:75;stroke-linecap:round;stroke-linejoin:round" />
  <path
   class="fil0 str0"
   d="m 7851,21110 c 288,-22 577,-44 866,-65"
   id="path4109"
   inkscape:connector-curvature="0"
   style="fill:none;stroke:#2b2a29;stroke-width:75;stroke-linecap:round;stroke-linejoin:round" />
  <g
   id="g4113">
   <path
   class="fil2"
   d="m 8302,13052 232,521 v 0 l -14,-6 -14,-7 -14,-5 -14,-6 -14,-4 -14,-5 -15,-4 -14,-3 -14,-3 -14,-3 -14,-2 -14,-2 -14,-1 -14,-1 -14,-1 h -14 l -14,1 -15,1 -14,1 -14,2 -14,2 -14,2 -14,4 -14,3 -14,4 -14,4 -14,5 -14,5 -14,6 -14,6 -14,7 -14,7 z m -34,264 c 0,-21 16,-38 37,-38 21,0 38,16 38,37 z m 118,2877 -75,1 -1,-90 -1,-90 -2,-90 -1,-90 -1,-90 -2,-90 -1,-90 -2,-89 -1,-90 -1,-90 -2,-90 -1,-90 -1,-90 -2,-90 -1,-90 -1,-90 -2,-90 -1,-90 -1,-90 -2,-90 -1,-90 -1,-90 -2,-90 -1,-90 -2,-89 -1,-90 -1,-90 -2,-90 -1,-90 -1,-90 -2,-90 -1,-90 75,-1 1,90 2,90 1,90 1,90 2,90 1,89 1,90 2,90 1,90 2,90 1,90 1,90 2,90 1,90 1,90 2,90 1,90 1,90 2,90 1,90 1,90 2,90 1,89 1,90 2,90 1,90 2,90 1,90 1,90 2,90 1,90 z m 0,0 c 1,21 -16,38 -37,38 -20,0 -37,-16 -38,-37 z"
   id="path4111"
   inkscape:connector-curvature="0"
   style="fill:#2b2a29;fill-rule:nonzero" />
  </g>
  <g
   id="g4117">
   <path
   class="fil2"
   d="m 8290,17536 c 0,-21 17,-37 37,-37 21,0 38,17 38,37 z m 53,3186 h -75 l 1,-100 v -99 l 1,-100 1,-99 v -100 l 1,-100 1,-99 v -100 l 1,-99 1,-100 v -99 l 1,-100 1,-99 v -100 l 1,-100 1,-99 1,-100 v -99 l 1,-100 1,-99 v -100 l 1,-99 1,-100 v -100 l 1,-99 1,-100 v -99 l 1,-100 1,-99 v -100 l 1,-99 1,-100 h 75 l -1,100 -1,100 v 99 l -1,100 -1,99 v 100 l -1,99 -1,100 v 99 l -1,100 -1,100 v 99 l -1,100 -1,99 v 100 l -1,99 -1,100 -1,99 v 100 l -1,100 -1,99 v 100 l -1,99 -1,100 v 99 l -1,100 -1,99 v 100 l -1,100 -1,99 v 100 z m -39,264 -222,-527 14,7 14,7 14,6 14,5 14,5 14,5 14,4 14,4 15,4 14,3 14,2 14,2 14,2 14,1 14,1 h 14 14 l 14,-1 14,-1 14,-1 14,-2 14,-2 14,-3 14,-3 15,-4 14,-4 14,-4 14,-5 14,-6 14,-6 14,-6 14,-7 v 0 z m 39,-264 c 0,21 -17,38 -38,38 -20,-1 -37,-18 -37,-38 z"
   id="path4115"
   inkscape:connector-curvature="0"
   style="fill:#2b2a29;fill-rule:nonzero" />
  </g>
  <path
   class="fil2"
   d="m 7775,16842 c -14,0 -22,-4 -22,-12 0,-5 2,-10 6,-15 3,-6 16,-17 37,-33 22,-17 41,-30 59,-39 -3,0 -19,3 -50,8 -30,6 -48,8 -51,8 -25,0 -37,-11 -37,-32 0,-5 2,-9 5,-12 4,-3 9,-4 14,-4 4,0 10,2 17,5 5,3 10,4 15,4 6,0 14,-1 26,-2 30,-3 56,-5 78,-6 13,0 23,1 29,3 6,3 9,8 9,16 0,6 -3,13 -8,18 -6,6 -20,15 -43,28 -19,10 -30,17 -34,21 3,0 7,0 13,-1 7,-1 12,-1 15,-1 25,0 44,5 57,14 14,10 20,24 20,41 0,27 -17,50 -50,70 -34,19 -69,29 -106,29 -20,0 -36,-2 -48,-6 -13,-5 -19,-13 -19,-26 0,-15 8,-22 24,-22 2,0 5,1 7,2 18,9 32,13 44,13 25,0 49,-5 71,-15 22,-10 33,-23 33,-40 0,-10 -5,-17 -14,-21 -10,-4 -24,-5 -43,-5 -20,0 -38,4 -54,12 z m 474,130 c 5,-1 13,-4 24,-9 10,-5 16,-12 19,-20 3,-7 4,-11 4,-12 0,-10 -1,-17 -3,-20 -2,-4 -4,-7 -4,-10 0,-3 2,-7 4,-11 3,-4 6,-6 10,-6 4,0 10,1 16,4 7,3 11,5 12,7 1,2 3,7 5,14 2,7 3,13 3,19 0,2 -3,9 -8,20 -5,12 -11,21 -19,26 -8,6 -16,10 -24,11 -2,1 -3,1 -4,1 -14,5 -23,8 -27,8 -8,0 -12,-5 -12,-14 0,-3 1,-6 4,-8 z m -57,-220 c 0,4 -2,10 -5,17 -10,25 -20,54 -29,89 -9,34 -13,56 -13,64 0,21 -7,32 -19,32 -10,0 -17,-5 -21,-14 -3,-8 -4,-15 -4,-20 0,-6 3,-18 10,-39 l 13,-44 c -15,10 -29,16 -40,19 -12,3 -24,5 -39,5 -11,0 -22,-5 -31,-14 -10,-10 -15,-21 -15,-33 0,-12 3,-23 9,-33 5,-11 15,-21 28,-32 13,-11 23,-19 29,-23 5,-3 16,-7 32,-12 16,-4 27,-6 34,-6 8,0 15,1 21,4 5,2 11,6 17,12 l 15,12 c 3,3 6,8 8,15 z m -44,4 c -4,-7 -11,-10 -23,-10 -14,0 -26,3 -36,8 -11,6 -21,14 -31,26 -11,11 -16,21 -16,28 0,6 2,11 6,15 3,4 8,6 14,6 9,0 23,-5 42,-15 20,-9 30,-18 33,-26 z m 392,-10 c -86,4 -134,6 -143,6 -5,0 -9,-2 -12,-6 -4,-4 -5,-8 -5,-12 0,-5 2,-10 7,-14 4,-5 9,-7 14,-7 3,0 20,0 52,2 10,0 17,1 21,1 27,0 52,-2 76,-4 11,-2 20,-2 30,-2 11,0 17,5 17,15 0,3 0,5 -1,8 -1,2 -7,10 -20,24 -8,10 -20,27 -36,52 -16,24 -30,48 -40,72 l -1,2 c -7,13 -11,23 -13,29 -2,6 -3,12 -3,18 0,6 -2,12 -6,16 -4,5 -10,7 -17,7 -6,0 -12,-3 -17,-9 -4,-6 -6,-12 -6,-19 0,-9 11,-34 34,-77 23,-42 46,-76 69,-102 z m 294,192 c -1,12 -8,18 -20,18 -16,0 -24,-11 -24,-34 0,-37 2,-68 6,-94 3,-21 5,-40 5,-60 0,-5 1,-9 4,-12 3,-3 7,-5 13,-5 18,0 27,11 27,33 0,7 -3,25 -10,54 -3,18 -5,30 -5,38 34,-75 65,-113 93,-113 11,0 20,4 27,13 6,9 10,29 10,59 0,28 2,42 4,42 3,0 10,-13 23,-40 14,-30 27,-50 37,-60 10,-9 21,-14 32,-14 13,0 23,6 29,17 6,12 10,31 12,58 2,22 5,38 8,49 3,11 8,19 15,22 7,3 9,8 9,13 0,5 -3,11 -10,16 -7,5 -14,8 -21,8 -12,0 -22,-6 -28,-18 -7,-12 -12,-37 -14,-73 -2,-18 -3,-29 -5,-35 -1,-6 -3,-9 -6,-9 -3,0 -7,5 -12,13 -5,9 -14,26 -26,52 -11,23 -20,39 -28,48 -8,9 -17,14 -26,14 -7,0 -14,-3 -21,-9 -7,-6 -11,-28 -11,-66 -1,-33 -3,-50 -7,-50 -5,0 -17,15 -36,45 -19,29 -34,56 -44,80 z"
   id="path4119"
   inkscape:connector-curvature="0"
   style="fill:#2b2a29;fill-rule:nonzero" />
  <path
   class="fil0 str4"
   d="m 11269,10830 c 68,-40 133,-40 216,65 83,105 184,314 253,541 69,228 105,473 126,917 22,444 29,1086 18,1512 -10,426 -39,636 -86,784 -47,148 -112,234 -130,530 -18,296 11,802 22,1581 10,780 3,1834 0,2469 -4,635 -4,852 -44,1029 -39,177 -119,314 -206,364 -86,51 -180,15 -252,-83 -72,-97 -123,-256 -148,-657 -25,-400 -25,-1043 -36,-1656 -11,-614 -33,-1199 -29,-1773 3,-574 32,-1137 14,-1447 -18,-310 -83,-368 -119,-606 -36,-239 -43,-657 -43,-1101 0,-444 7,-913 47,-1296 40,-383 112,-679 184,-866 72,-188 144,-267 213,-307 z"
   id="path4121"
   inkscape:connector-curvature="0"
   style="fill:none;stroke:#2b2a29;stroke-width:75" />
  <path
   class="fil0 str4"
   d="m 11720,16933 c 29,-685 94,-880 173,-1021 80,-141 174,-227 257,-83 83,144 155,520 184,960 29,440 14,946 10,1404 -3,459 4,870 8,1076 3,206 3,206 -4,418 -7,213 -22,639 -54,860 -33,220 -83,234 -188,227 -104,-7 -263,-36 -335,-105 -73,-68 -58,-177 -55,-299 4,-123 -3,-260 -10,-917 -8,-657 -15,-1834 14,-2520 z"
   id="path4123"
   inkscape:connector-curvature="0"
   style="fill:none;stroke:#2b2a29;stroke-width:75" />
  <path
   class="fil0 str4"
   d="m 10955,16977 c -51,-693 -116,-809 -159,-913 -43,-105 -65,-199 -112,-239 -47,-39 -119,-25 -177,47 -57,72 -101,202 -141,372 -39,170 -75,379 -90,870 -14,491 -7,1263 4,1913 11,650 25,1177 54,1444 29,267 72,274 177,288 105,15 271,37 375,-54 105,-90 148,-292 152,-1028 3,-737 -33,-2007 -83,-2700 z"
   id="path4125"
   inkscape:connector-curvature="0"
   style="fill:none;stroke:#2b2a29;stroke-width:75" />
  <path
   class="fil0 str5"
   d="m 11379,20649 c -80,0 -152,166 -184,274 -33,108 -26,159 43,180 69,22 199,15 274,-10 76,-26 98,-69 65,-174 -32,-104 -119,-270 -198,-270 z"
   id="path4127"
   inkscape:connector-curvature="0"
   style="fill:none;stroke:#feec0c;stroke-width:75" />
  <path
   class="fil0 str4"
   d="m 11882,21005 c 47,50 163,50 275,47 112,-4 220,-11 260,-36 39,-26 10,-69 -22,-116 -32,-47 -69,-97 -155,-122 -87,-26 -224,-26 -303,25 -80,50 -101,151 -55,202 z"
   id="path4129"
   inkscape:connector-curvature="0"
   style="fill:none;stroke:#2b2a29;stroke-width:75" />
  <path
   class="fil0 str4"
   d="m 10428,20709 c -58,115 -116,231 -87,300 29,68 145,90 264,93 119,4 242,-10 299,-43 58,-32 51,-83 33,-133 -18,-51 -47,-102 -76,-152"
   id="path4131"
   inkscape:connector-curvature="0"
   style="fill:none;stroke:#2b2a29;stroke-width:75" />
  <path
   class="fil0 str5"
   d="m 10839,11960 c 202,-29 405,-58 571,-58 166,0 296,29 426,58"
   id="path4133"
   inkscape:connector-curvature="0"
   style="fill:none;stroke:#feec0c;stroke-width:75" />
  <path
   class="fil0 str5"
   d="m 10818,12999 c 151,-50 303,-101 458,-115 155,-15 314,7 422,29 109,21 166,43 224,64"
   id="path4135"
   inkscape:connector-curvature="0"
   style="fill:none;stroke:#feec0c;stroke-width:75" />
  <path
   class="fil0 str4"
   d="m 11987,16508 c 7,1328 15,2656 22,3984"
   id="path4137"
   inkscape:connector-curvature="0"
   style="fill:none;stroke:#2b2a29;stroke-width:75" />
  <path
   class="fil0 str4"
   d="m 10774,17006 c 22,296 44,592 40,1122 -4,531 -32,1296 -61,2061"
   id="path4139"
   inkscape:connector-curvature="0"
   style="fill:none;stroke:#2b2a29;stroke-width:75" />
  <path
   class="fil0 str4"
   d="m 11056,15663 c 195,7 390,14 585,22"
   id="path4141"
   inkscape:connector-curvature="0"
   style="fill:none;stroke:#2b2a29;stroke-width:75" />
  <path
   class="fil0 str4"
   d="m 11836,10769 c 512,-8 1025,-15 1537,-22"
   id="path4143"
   inkscape:connector-curvature="0"
   style="fill:none;stroke:#2b2a29;stroke-width:75" />
  <path
   class="fil0 str4"
   d="m 12550,21099 c 260,0 520,0 780,0"
   id="path4145"
   inkscape:connector-curvature="0"
   style="fill:none;stroke:#2b2a29;stroke-width:75" />
  <g
   id="g4149">
   <path
   class="fil2"
   d="m 13032,11146 75,1 v 111 l -1,110 -1,111 v 111 l -1,110 -1,111 v 111 l -1,110 -1,111 v 111 l -1,110 -1,111 v 111 l -1,110 -1,111 v 111 l -1,110 -1,111 v 111 l -1,110 -1,111 v 111 l -1,111 -1,110 v 111 l -1,111 -1,110 v 111 l -1,111 -1,110 -1,111 v 111 l -75,-1 v -111 l 1,-110 1,-111 1,-111 v -110 l 1,-111 1,-111 v -110 l 1,-111 1,-111 v -110 l 1,-111 1,-111 v -110 l 1,-111 1,-111 v -110 l 1,-111 1,-111 v -110 l 1,-111 1,-111 v -110 l 1,-111 1,-111 v -110 l 1,-111 1,-111 v -110 l 1,-111 1,-111 z m 40,-263 221,526 -14,-7 -14,-6 -14,-6 -14,-6 -14,-5 -14,-5 -14,-4 -14,-4 -14,-3 -14,-3 -14,-2 -14,-3 -14,-1 -14,-1 -14,-1 h -14 -14 -14 l -14,1 -15,2 -14,2 -14,2 -14,3 -14,3 -14,4 -14,4 -14,4 -14,5 -14,6 -14,5 -15,7 -14,6 v 0 z"
   id="path4147"
   inkscape:connector-curvature="0"
   style="fill:#2b2a29;fill-rule:nonzero" />
  </g>
  <g
   id="g4153">
   <path
   class="fil2"
   d="m 13086,20752 h -75 l -1,-150 -1,-150 v -150 l -1,-151 -1,-150 v -150 l -1,-150 -1,-151 v -150 l -1,-150 -1,-150 v -150 l -1,-151 -1,-150 v -150 l -1,-150 -1,-151 v -150 l -1,-150 -1,-150 v -151 l -1,-150 -1,-150 v -150 l -1,-151 -1,-150 v -150 l -1,-150 -1,-151 v -150 l -1,-150 -1,-150 75,-1 1,151 1,150 v 150 l 1,150 1,151 v 150 l 1,150 1,150 v 150 l 1,151 1,150 v 150 l 1,150 1,151 v 150 l 1,150 1,150 v 151 l 1,150 1,150 v 150 l 1,151 1,150 v 150 l 1,150 1,151 v 150 l 1,150 1,150 v 151 l 1,150 z m -37,264 -227,-524 14,7 14,6 14,6 14,5 15,5 14,5 14,4 14,4 14,3 14,3 14,2 14,2 14,2 14,1 h 14 14 14 l 14,-1 15,-1 14,-1 14,-2 14,-3 14,-3 14,-3 14,-4 14,-4 14,-5 14,-5 14,-6 14,-6 14,-6 14,-7 v 0 z"
   id="path4151"
   inkscape:connector-curvature="0"
   style="fill:#2b2a29;fill-rule:nonzero" />
  </g>
  <path
   class="fil2"
   d="m 12708,15305 c -11,-4 -25,-6 -40,-6 h -9 c -2,9 -3,20 -4,32 v 7 c 0,7 0,16 0,26 6,7 9,12 9,15 0,5 -2,10 -7,15 -6,5 -11,8 -16,8 -8,0 -15,-2 -21,-6 -6,-4 -8,-12 -8,-25 0,-4 0,-11 1,-22 l 1,-21 c 1,-10 2,-19 3,-27 -25,0 -46,2 -62,6 -18,4 -34,7 -47,7 -8,0 -16,-6 -26,-16 5,-14 30,-40 77,-79 l 74,-62 c 2,-1 5,-3 9,-6 16,-12 26,-19 31,-19 14,0 21,5 21,13 l -10,35 c -7,21 -12,44 -16,68 -1,6 -2,12 -3,17 l 34,1 c 15,0 25,2 30,6 5,4 8,11 8,20 0,4 -2,8 -6,11 -3,3 -7,5 -12,5 -4,0 -8,-1 -11,-3 z m -67,-112 c -4,3 -8,6 -12,9 -17,13 -29,23 -34,29 -8,9 -26,23 -53,44 10,-1 24,-3 43,-6 20,-3 34,-5 40,-5 0,-3 3,-15 8,-35 z m 296,59 c -9,6 -17,11 -23,15 l -5,4 c -2,1 -3,1 -3,2 14,6 26,15 36,27 10,12 16,23 16,32 0,12 -3,22 -7,31 -4,8 -17,15 -37,21 -21,6 -38,9 -53,9 -9,0 -22,-2 -37,-6 -16,-4 -26,-9 -30,-16 -4,-7 -6,-15 -6,-24 0,-11 5,-23 16,-34 11,-12 22,-21 34,-28 3,-1 6,-3 9,-6 -17,-9 -28,-15 -34,-20 -5,-4 -10,-11 -14,-19 -5,-8 -7,-14 -7,-18 0,-18 14,-34 41,-49 7,-4 14,-8 21,-12 11,-7 25,-10 41,-10 5,0 13,2 23,7 10,4 17,9 20,12 4,4 6,10 8,18 l 1,6 1,-2 c 1,-1 2,-2 3,-3 l 4,-4 c 11,2 16,10 16,22 0,4 -4,11 -11,20 -8,10 -15,18 -23,25 z m -85,-12 c 2,1 4,2 6,4 11,7 18,12 21,13 18,-14 29,-25 33,-30 4,-5 6,-10 6,-14 0,-7 -2,-13 -8,-18 -6,-5 -13,-8 -20,-8 -5,0 -13,3 -24,8 -10,5 -18,10 -23,15 -5,5 -7,8 -7,10 0,6 5,13 16,20 z m 64,93 c 0,-5 -3,-12 -11,-20 -8,-7 -17,-14 -27,-19 -12,9 -23,19 -32,29 -10,10 -14,18 -14,24 0,3 2,6 7,8 5,2 10,3 13,3 8,0 17,-1 28,-2 11,-1 17,-3 20,-4 3,-1 8,-4 15,-9 1,-1 1,-3 1,-6 z m 83,79 c 5,-1 13,-4 24,-9 10,-5 16,-11 19,-19 3,-8 5,-12 5,-12 0,-10 -2,-17 -4,-21 -2,-3 -3,-6 -3,-9 0,-3 1,-7 3,-11 3,-5 6,-7 10,-7 4,0 10,2 17,5 6,2 10,5 11,7 1,2 3,7 5,14 2,7 3,13 3,19 0,2 -3,9 -8,20 -5,12 -11,20 -19,26 -8,6 -16,10 -24,11 -2,0 -3,1 -4,1 -14,5 -23,7 -27,7 -8,0 -12,-4 -12,-13 0,-3 1,-6 4,-9 z m 296,-160 c -9,6 -16,11 -22,15 l -6,4 c -1,1 -2,1 -2,2 13,6 25,15 36,27 10,12 15,23 15,32 0,12 -2,22 -6,31 -5,8 -17,15 -38,21 -20,6 -38,9 -52,9 -10,0 -22,-2 -38,-6 -15,-4 -25,-9 -29,-16 -5,-7 -7,-15 -7,-24 0,-11 6,-23 16,-34 11,-12 23,-21 35,-28 2,-1 5,-3 8,-6 -17,-9 -28,-15 -33,-20 -5,-4 -10,-11 -15,-19 -4,-8 -6,-14 -6,-18 0,-18 13,-34 40,-49 8,-4 15,-8 21,-12 12,-7 25,-10 41,-10 5,0 13,2 23,7 11,4 18,9 21,12 3,4 6,10 8,18 v 6 l 2,-2 c 0,-1 1,-2 2,-3 l 4,-4 c 11,2 16,10 16,22 0,4 -3,11 -11,20 -7,10 -15,18 -23,25 z m -84,-12 c 1,1 3,2 6,4 10,7 17,12 20,13 18,-14 29,-25 34,-30 4,-5 6,-10 6,-14 0,-7 -3,-13 -9,-18 -5,-5 -12,-8 -20,-8 -4,0 -12,3 -23,8 -11,5 -19,10 -23,15 -5,5 -7,8 -7,10 0,6 5,13 16,20 z m 64,93 c 0,-5 -4,-12 -12,-20 -7,-7 -16,-14 -26,-19 -13,9 -24,19 -33,29 -9,10 -14,18 -14,24 0,3 3,6 8,8 5,2 9,3 13,3 8,0 17,-1 27,-2 11,-1 18,-3 21,-4 3,-1 8,-4 15,-9 0,-1 1,-3 1,-6 z m 309,45 c -1,13 -8,19 -20,19 -16,0 -24,-11 -24,-34 0,-37 2,-68 6,-94 3,-21 5,-41 5,-60 0,-5 1,-9 4,-12 3,-3 7,-5 13,-5 18,0 27,11 27,33 0,7 -3,25 -10,54 -3,17 -5,30 -5,38 34,-76 65,-113 93,-113 11,0 20,4 27,13 6,9 10,29 10,59 0,28 2,42 5,42 2,0 9,-14 22,-41 14,-30 27,-49 37,-59 10,-10 21,-14 32,-14 13,0 23,5 29,17 6,11 10,31 12,58 2,22 5,38 8,49 3,11 8,18 16,22 6,3 9,7 9,13 0,5 -4,10 -11,16 -7,5 -14,7 -21,7 -12,0 -21,-6 -28,-18 -7,-12 -12,-36 -14,-72 -2,-18 -3,-30 -5,-35 -1,-6 -3,-9 -6,-9 -3,0 -7,4 -12,13 -5,9 -14,26 -26,51 -11,23 -20,39 -28,49 -8,9 -17,13 -26,13 -7,0 -14,-3 -21,-9 -7,-6 -10,-28 -11,-65 -1,-34 -3,-50 -7,-50 -5,0 -17,14 -36,44 -19,30 -34,57 -44,80 z"
   id="path4155"
   inkscape:connector-curvature="0"
   style="fill:#2b2a29;fill-rule:nonzero" />
  <path
   class="fil0 str4"
   d="m 15647,16594 c 0,-476 0,-953 -3,-1703 -4,-751 -11,-1776 10,-2505 22,-730 73,-1163 174,-1498 101,-336 252,-574 371,-780 119,-206 206,-379 289,-440 83,-62 163,-11 318,292 155,303 386,859 501,1444 116,584 116,1198 112,1945 -3,747 -10,1628 -14,2166 -4,538 -4,733 -4,928"
   id="path4157"
   inkscape:connector-curvature="0"
   style="fill:none;stroke:#2b2a29;stroke-width:75" />
  <path
   class="fil0 str4"
   d="m 14857,17861 c -4,-1094 -8,-2187 -20,-2976 -13,-789 -34,-1272 -9,-1662 25,-390 97,-686 162,-913 65,-228 123,-386 195,-412 72,-25 159,83 235,278 76,195 140,477 177,700 36,224 43,390 50,556"
   id="path4159"
   inkscape:connector-curvature="0"
   style="fill:none;stroke:#2b2a29;stroke-width:75" />
  <path
   class="fil0 str4"
   d="m 17423,12696 c 51,-130 101,-260 166,-401 65,-140 144,-292 213,-339 69,-47 126,11 195,177 68,166 148,440 184,772 36,332 29,722 18,1547 -11,825 -25,2084 -40,3344"
   id="path4161"
   inkscape:connector-curvature="0"
   style="fill:none;stroke:#2b2a29;stroke-width:75" />
  <path
   class="fil0 str4"
   d="m 16318,13292 c 130,-98 260,-195 369,-93 108,103 195,407 263,778 69,372 119,812 209,1347 91,534 221,1162 466,1671 246,509 606,899 856,1176 249,278 386,444 458,639 72,195 79,419 47,538 -33,119 -105,134 -303,166 -199,33 -524,83 -766,107 -241,23 -400,20 -559,16"
   id="path4163"
   inkscape:connector-curvature="0"
   style="fill:none;stroke:#2b2a29;stroke-width:75" />
  <path
   class="fil0 str4"
   d="m 15571,19702 c -18,-72 -36,-144 -12,-316 23,-171 88,-442 193,-653 104,-211 249,-363 368,-291 119,72 213,368 271,619 57,251 79,457 83,547 3,90 -11,65 -141,74 -130,9 -375,52 -679,34 -303,-18 -664,-97 -942,-151 -278,-54 -473,-83 -577,-195 -105,-112 -119,-307 -83,-473 36,-166 122,-303 267,-466 144,-162 346,-350 552,-559 206,-209 415,-440 570,-765 156,-325 257,-744 340,-1126 83,-383 148,-730 236,-1181 89,-451 200,-1007 312,-1563"
   id="path4165"
   inkscape:connector-curvature="0"
   style="fill:none;stroke:#2b2a29;stroke-width:75" />
  <path
   class="fil0 str4"
   d="m 17233,19678 c 121,-12 183,-37 185,-187 1,-150 -56,-424 -148,-663 -92,-238 -219,-440 -338,-438 -119,2 -231,207 -298,399 -66,191 -88,368 -115,519 -27,152 -60,278 -22,338 38,60 146,52 291,49 144,-4 325,-4 445,-17 z"
   id="path4167"
   inkscape:connector-curvature="0"
   style="fill:none;stroke:#2b2a29;stroke-width:75" />
  <path
   class="fil0 str6"
   d="m 16004,14883 c 141,-7 282,-14 468,-11 186,4 417,18 648,33"
   id="path4169"
   inkscape:connector-curvature="0"
   style="fill:none;stroke:#1ebafb;stroke-width:75" />
  <path
   class="fil0 str4"
   d="m 16481,19496 c -4,-1545 -7,-3090 -11,-4634"
   id="path4171"
   inkscape:connector-curvature="0"
   style="fill:none;stroke:#2b2a29;stroke-width:75" />
  <path
   class="fil0 str4"
   d="m 14846,14450 c 263,-3 527,-7 790,-11"
   id="path4173"
   inkscape:connector-curvature="0"
   style="fill:none;stroke:#2b2a29;stroke-width:75" />
  <path
   class="fil0 str7"
   d="m 14846,12826 c 252,-22 505,-43 758,-65"
   id="path4175"
   inkscape:connector-curvature="0"
   style="fill:none;stroke:#e31e24;stroke-width:75" />
  <path
   class="fil0 str7"
   d="m 17401,12761 c 260,0 520,0 780,0"
   id="path4177"
   inkscape:connector-curvature="0"
   style="fill:none;stroke:#e31e24;stroke-width:75" />
  <path
   class="fil0 str4"
   d="m 17423,14493 c 267,0 534,0 801,0"
   id="path4179"
   inkscape:connector-curvature="0"
   style="fill:none;stroke:#2b2a29;stroke-width:75" />
  <path
   class="fil0 str4"
   d="m 14835,19583 c -11,231 -22,462 -27,570 -5,108 -5,94 103,98 108,3 325,25 458,14 134,-11 184,-54 211,-153 27,-100 31,-255 35,-410"
   id="path4181"
   inkscape:connector-curvature="0"
   style="fill:none;stroke:#2b2a29;stroke-width:75" />
  <path
   class="fil0 str4"
   d="m 17380,19669 c -33,231 -65,462 29,571 93,108 314,94 481,79 168,-14 284,-29 325,-146 42,-117 9,-338 -23,-558"
   id="path4183"
   inkscape:connector-curvature="0"
   style="fill:none;stroke:#2b2a29;stroke-width:75" />
  <path
   class="fil0 str4"
   d="m 14824,20232 c -36,123 -72,246 -108,369"
   id="path4185"
   inkscape:connector-curvature="0"
   style="fill:none;stroke:#2b2a29;stroke-width:75" />
  <path
   class="fil0 str4"
   d="m 14716,20601 c 346,29 693,57 859,39 166,-18 152,-83 115,-169 -36,-87 -93,-195 -151,-303"
   id="path4187"
   inkscape:connector-curvature="0"
   style="fill:none;stroke:#2b2a29;stroke-width:75" />
  <path
   class="fil0 str4"
   d="m 17423,20254 c -79,181 -159,361 -130,455 29,94 166,101 366,110 201,9 464,20 572,-34 109,-54 62,-174 33,-284 -29,-110 -40,-211 -51,-312"
   id="path4189"
   inkscape:connector-curvature="0"
   style="fill:none;stroke:#2b2a29;stroke-width:75" />
  <path
   class="fil0 str4"
   d="m 16221,13833 c 119,-25 238,-51 359,-49 121,2 244,31 367,60"
   id="path4191"
   inkscape:connector-curvature="0"
   style="fill:none;stroke:#2b2a29;stroke-width:75" />
  <g
   id="g4195">
   <path
   class="fil2"
   d="m 19366,20722 h -75 v -167 l -1,-167 -1,-167 v -166 l -1,-167 -1,-167 v -167 l -1,-167 -1,-167 -1,-167 v -167 l -1,-167 -1,-166 v -167 l -1,-167 -1,-167 v -167 l -1,-167 -1,-167 v -167 l -1,-167 -1,-167 v -166 l -1,-167 -1,-167 v -167 l -1,-167 -1,-167 v -167 l -1,-167 -1,-167 v -166 l 75,-1 v 167 l 1,167 1,167 v 167 l 1,167 1,167 v 166 l 1,167 1,167 v 167 l 1,167 1,167 v 167 l 1,167 1,167 v 167 l 1,166 1,167 v 167 l 1,167 1,167 v 167 l 1,167 1,167 1,167 v 166 l 1,167 1,167 v 167 l 1,167 1,167 z m -36,264 -227,-524 14,7 14,6 14,6 14,5 14,5 14,5 14,4 14,4 14,3 15,3 14,2 14,2 14,1 14,1 14,1 h 14 14 l 14,-1 14,-1 14,-2 14,-2 14,-2 14,-3 14,-3 14,-4 14,-4 15,-5 14,-5 14,-6 14,-6 14,-6 14,-7 v 0 z"
   id="path4193"
   inkscape:connector-curvature="0"
   style="fill:#2b2a29;fill-rule:nonzero" />
  </g>
  <path
   class="fil0 str4"
   d="m 18592,21055 c 419,0 838,0 1257,0"
   id="path4197"
   inkscape:connector-curvature="0"
   style="fill:none;stroke:#2b2a29;stroke-width:75" />
  <g
   id="g4201">
   <path
   class="fil2"
   d="m 19335,9695 h 75 v 138 137 138 138 138 137 138 138 138 138 137 138 138 138 137 138 138 138 138 137 138 138 138 137 138 138 138 138 137 138 138 138 h -75 v -138 -138 -138 -137 -138 -138 -138 -138 -137 -138 -138 -138 -137 -138 -138 -138 -138 -137 -138 -138 -138 -137 -138 -138 -138 -138 -137 -138 -138 -138 -137 z m 37,-264 225,525 -14,-7 -14,-6 -14,-6 -14,-6 -14,-5 -14,-4 -14,-5 -14,-3 -14,-4 -15,-2 -14,-3 -14,-2 -14,-1 -14,-1 -14,-1 h -14 -14 l -14,1 -14,1 -14,1 -14,2 -14,3 -14,2 -14,4 -14,3 -15,5 -14,4 -14,5 -14,6 -14,6 -14,6 -14,7 v 0 z"
   id="path4199"
   inkscape:connector-curvature="0"
   style="fill:#2b2a29;fill-rule:nonzero" />
  </g>
  <path
   class="fil0 str4"
   d="m 16817,9318 c 1003,7 2006,14 3010,21"
   id="path4203"
   inkscape:connector-curvature="0"
   style="fill:none;stroke:#2b2a29;stroke-width:75" />
  <path
   class="fil0 str4"
   d="m 17033,15576 c 69,340 137,679 249,1009 112,330 267,652 460,940 194,289 425,545 656,802"
   id="path4205"
   inkscape:connector-curvature="0"
   style="fill:none;stroke:#2b2a29;stroke-width:75" />
  <path
   class="fil0 str4"
   d="m 16091,15197 c -65,325 -130,650 -209,998 -80,349 -174,720 -338,1043 -164,323 -399,598 -633,872"
   id="path4207"
   inkscape:connector-curvature="0"
   style="fill:none;stroke:#2b2a29;stroke-width:75" />
  <path
   class="fil2"
   d="m 18912,14891 c 0,-16 2,-28 7,-37 4,-9 11,-18 19,-27 7,-8 17,-14 30,-19 12,-4 30,-6 54,-6 15,0 28,5 40,15 12,10 18,22 18,37 0,8 -3,18 -10,28 -7,9 -20,20 -37,31 -17,11 -31,18 -41,22 -11,3 -28,5 -51,5 -27,0 -47,-8 -62,-23 -15,-16 -22,-30 -22,-42 0,-17 2,-32 7,-46 4,-13 12,-27 22,-42 11,-16 25,-32 43,-50 18,-17 31,-28 40,-32 8,-5 16,-7 23,-7 7,0 12,2 17,6 4,4 7,9 7,14 0,11 -6,17 -17,19 -9,1 -17,5 -26,11 -9,6 -17,13 -25,21 -7,8 -15,18 -23,29 -9,10 -15,22 -19,35 -5,12 -7,24 -7,34 0,10 3,18 10,22 1,1 2,1 3,2 z m 131,-41 c -7,-8 -20,-13 -39,-13 -36,0 -55,22 -58,65 8,1 14,1 17,1 15,0 32,-6 50,-19 18,-13 28,-25 30,-34 z m 123,95 c -19,0 -35,-7 -47,-20 -11,-14 -17,-31 -17,-51 0,-24 7,-50 21,-78 14,-28 36,-52 64,-70 28,-19 53,-29 75,-29 17,0 35,6 54,18 20,11 32,23 39,36 6,13 10,29 10,49 0,32 -21,64 -62,96 -41,32 -87,49 -137,49 z m 123,-202 c -3,2 -8,3 -13,3 -2,0 -4,-1 -8,-4 -5,-2 -7,-3 -9,-3 -12,0 -22,2 -30,6 -8,5 -19,13 -32,25 -13,13 -24,27 -34,43 -9,17 -14,34 -14,52 0,7 1,13 3,20 1,6 3,10 6,12 2,2 6,3 12,5 5,2 11,3 18,3 13,0 30,-6 52,-18 22,-12 41,-26 57,-42 16,-17 24,-30 24,-40 0,-5 -1,-12 -3,-20 -2,-9 -3,-14 -5,-17 -2,-2 -5,-6 -11,-12 -6,-6 -10,-10 -13,-13 z m 78,221 c 5,-1 13,-4 24,-9 10,-5 16,-12 19,-20 3,-7 5,-11 5,-12 0,-10 -2,-17 -4,-20 -2,-4 -3,-7 -3,-10 0,-3 1,-7 3,-11 3,-4 6,-6 10,-6 5,0 10,1 17,4 6,3 10,5 11,7 1,2 3,7 5,14 2,7 3,13 3,19 0,2 -3,9 -8,20 -5,12 -11,21 -19,26 -8,6 -16,10 -24,11 -2,1 -3,1 -4,1 -13,5 -23,8 -27,8 -8,0 -12,-5 -12,-14 0,-3 1,-6 4,-8 z m 345,-66 c 15,-4 37,-6 67,-6 5,0 15,1 28,3 14,1 23,2 27,2 4,0 9,-1 14,-3 5,-2 10,-4 16,-4 4,0 8,3 12,7 4,4 6,7 6,11 0,9 -6,17 -16,21 -10,5 -21,8 -30,8 -13,0 -22,-1 -27,-3 -17,-4 -39,-7 -67,-7 -13,0 -25,1 -37,3 -11,3 -19,5 -24,7 -5,3 -10,7 -15,12 -5,6 -12,9 -21,9 -14,0 -20,-5 -20,-17 0,-10 3,-19 10,-28 7,-9 21,-20 41,-32 28,-16 49,-30 64,-42 15,-13 28,-26 38,-40 9,-15 14,-25 14,-33 0,-9 -3,-16 -10,-23 -7,-6 -16,-9 -26,-9 -5,0 -14,4 -27,11 -12,8 -23,17 -31,26 -6,6 -14,10 -26,10 -5,0 -9,-3 -13,-9 -3,-6 -5,-11 -5,-16 0,-5 5,-11 14,-17 3,-2 7,-4 11,-7 20,-14 35,-24 47,-29 11,-5 26,-8 44,-8 16,0 32,8 46,22 15,14 23,29 23,44 0,21 -12,44 -36,70 -24,27 -54,49 -91,67 z m 240,32 c -1,12 -8,18 -20,18 -16,0 -24,-11 -24,-34 0,-37 2,-68 6,-94 3,-21 5,-40 5,-60 0,-5 1,-9 4,-12 3,-3 7,-5 13,-5 18,0 27,11 27,33 0,7 -3,25 -10,54 -3,18 -5,30 -5,38 34,-75 65,-113 93,-113 11,0 20,4 27,13 6,9 10,29 10,59 0,28 2,42 5,42 2,0 9,-13 22,-40 14,-30 27,-50 37,-60 10,-9 21,-14 32,-14 13,0 23,6 29,17 6,12 10,31 12,58 2,22 5,38 8,49 3,11 8,19 16,22 6,3 9,7 9,13 0,5 -4,11 -11,16 -7,5 -14,8 -21,8 -12,0 -21,-6 -28,-18 -7,-12 -12,-37 -14,-73 -2,-18 -3,-29 -5,-35 -1,-6 -3,-9 -6,-9 -3,0 -7,5 -12,13 -5,9 -14,26 -26,52 -11,23 -20,39 -28,48 -8,9 -17,14 -26,14 -7,0 -14,-3 -21,-9 -7,-6 -10,-28 -11,-66 -1,-33 -3,-50 -7,-50 -5,0 -17,15 -36,45 -19,29 -34,56 -44,80 z"
   id="path4209"
   inkscape:connector-curvature="0"
   style="fill:#2b2a29;fill-rule:nonzero" />
  <path
   class="fil0 str5"
   d="m 15772,11110 c 144,130 288,259 476,317 188,58 419,44 592,-7 173,-51 289,-137 404,-224"
   id="path4211"
   inkscape:connector-curvature="0"
   style="fill:none;stroke:#feec0c;stroke-width:75" />
  <path
   class="fil0 str4"
   d="m 4727,14055 c 29,260 57,520 72,881 14,361 14,823 14,1285"
   id="path4213"
   inkscape:connector-curvature="0"
   style="fill:none;stroke:#2b2a29;stroke-width:75" />
  <path
   class="fil0 str4"
   d="m 11180,10633 c -173,217 -346,433 -433,787 -86,354 -86,845 -86,1336"
   id="path4215"
   inkscape:connector-curvature="0"
   style="fill:none;stroke:#2b2a29;stroke-width:75" />
  <path
   class="fil0 str4"
   d="m 10747,10936 c -86,188 -173,376 -216,585 -44,209 -44,440 -44,671"
   id="path4217"
   inkscape:connector-curvature="0"
   style="fill:none;stroke:#2b2a29;stroke-width:75" />
 </g>
</svg>