<?xml version="1.0" encoding="UTF-8" standalone="no"?>
<!-- Creator: CorelDRAW X7 -->

<svg
   xmlns:dc="http://purl.org/dc/elements/1.1/"
   xmlns:cc="http://creativecommons.org/ns#"
   xmlns:rdf="http://www.w3.org/1999/02/22-rdf-syntax-ns#"
   xmlns:svg="http://www.w3.org/2000/svg"
   xmlns="http://www.w3.org/2000/svg"
   xmlns:sodipodi="http://sodipodi.sourceforge.net/DTD/sodipodi-0.dtd"
   xmlns:inkscape="http://www.inkscape.org/namespaces/inkscape"
   xml:space="preserve"
   width="360"
   height="450"
   version="1.1"
   style="clip-rule:evenodd;fill-rule:evenodd;image-rendering:optimizeQuality;shape-rendering:geometricPrecision;text-rendering:geometricPrecision"
   viewBox="0 0 9525.0249 11906.25"
   id="svg1411"
   sodipodi:docname="spicy.svg"
   inkscape:version="0.92.4 (5da689c313, 2019-01-14)"><metadata
   id="metadata1415"><rdf:RDF><cc:Work
       rdf:about=""><dc:format>image/svg+xml</dc:format><dc:type
         rdf:resource="http://purl.org/dc/dcmitype/StillImage" /><dc:title></dc:title></cc:Work></rdf:RDF></metadata><sodipodi:namedview
   pagecolor="#ffffff"
   bordercolor="#666666"
   borderopacity="1"
   objecttolerance="10"
   gridtolerance="10"
   guidetolerance="10"
   inkscape:pageopacity="0"
   inkscape:pageshadow="2"
   inkscape:window-width="1920"
   inkscape:window-height="1017"
   id="namedview1413"
   showgrid="false"
   units="px"
   inkscape:zoom="1.1893044"
   inkscape:cx="360.91743"
   inkscape:cy="223.24688"
   inkscape:window-x="-8"
   inkscape:window-y="32"
   inkscape:window-maximized="1"
   inkscape:current-layer="svg1411" />
 <defs
   id="defs1339">
  <style
   type="text/css"
   id="style1337">
   <![CDATA[
    .str0 {stroke:white;stroke-width:75}
    .str1 {stroke:white;stroke-width:75;stroke-linecap:round;stroke-linejoin:round}
    .fil2 {fill:none}
    .fil1 {fill:#FAFBFC;fill-rule:nonzero}
    .fil0 {fill:white;fill-rule:nonzero}
   ]]>
  </style>
 </defs>
 <g
   id="Слой_x0020_1"
   transform="matrix(0.49794319,0,0,0.49794319,-245.90791,-1293.8627)">
  <metadata
   id="CorelCorpID_0Corel-Layer" />
  <g
   id="g1344">
   <path
   class="fil0"
   d="m 5628,5782 -62,43 v 0 l -22,-31 -22,-31 -25,-31 -25,-30 -27,-31 -27,-31 -29,-32 -30,-31 -31,-31 -32,-31 -33,-32 -34,-31 -35,-32 -35,-31 -37,-32 -37,-31 -37,-32 -39,-32 -39,-31 -39,-32 -40,-32 -41,-32 -41,-32 -41,-31 -42,-32 -42,-32 -42,-32 -43,-32 -42,-32 -43,-32 -43,-32 -43,-32 45,-60 43,32 43,32 43,32 42,32 43,32 42,32 43,32 42,32 41,32 41,32 41,32 41,32 40,32 39,32 39,32 38,32 37,32 37,32 36,33 36,32 34,32 34,32 33,32 31,32 31,32 30,32 29,32 27,32 27,33 25,32 24,32 z m 78,859 -53,-53 v 0 l 11,-12 11,-14 10,-14 10,-15 8,-16 8,-18 7,-18 7,-19 5,-19 5,-21 3,-22 3,-22 2,-23 v -23 -25 l -1,-25 -3,-25 -3,-26 -4,-27 -6,-27 -7,-28 -8,-28 -9,-28 -10,-29 -11,-29 -13,-30 -14,-29 -15,-30 -16,-30 -18,-31 -19,-30 -20,-30 62,-43 21,33 20,32 19,32 18,32 16,32 14,32 14,31 12,32 11,31 10,31 9,30 7,30 6,30 5,30 4,29 3,28 1,28 v 27 27 l -2,26 -4,26 -4,25 -5,24 -6,24 -8,23 -9,22 -9,21 -11,20 -12,19 -13,19 -14,17 z m -629,-23 53,-53 v 0 l 11,11 13,10 13,10 14,10 15,9 15,8 16,8 17,7 17,7 17,6 18,5 18,4 19,4 19,3 18,3 19,1 19,1 h 19 19 l 18,-2 18,-2 18,-3 18,-4 17,-5 17,-5 16,-7 16,-7 15,-8 15,-9 13,-10 13,-10 13,-12 53,53 -16,15 -17,14 -18,13 -18,11 -20,10 -19,9 -20,8 -21,7 -21,6 -21,5 -22,3 -21,3 -22,2 h -22 -22 l -22,-1 -22,-2 -21,-2 -22,-4 -21,-5 -22,-5 -20,-6 -21,-7 -20,-8 -19,-8 -19,-9 -19,-10 -18,-11 -17,-12 -16,-12 -16,-13 z m 123,-417 -6,75 v 0 l -16,-1 h -15 l -13,2 -13,2 -11,4 -10,4 -9,5 -8,5 -7,6 -7,7 -6,8 -5,8 -5,9 -4,9 -3,10 -3,11 -2,11 -1,12 v 12 13 l 2,12 2,13 3,14 4,13 5,13 6,13 6,13 8,13 8,12 9,13 10,11 11,12 -53,53 -14,-15 -13,-15 -12,-16 -10,-16 -10,-16 -8,-17 -8,-17 -6,-18 -5,-17 -4,-17 -3,-18 -2,-17 -1,-18 v -17 l 2,-17 2,-17 4,-16 6,-16 6,-16 8,-14 9,-14 11,-14 12,-12 13,-11 15,-10 16,-8 16,-7 18,-5 19,-4 20,-2 21,-1 z m 920,666 -58,48 v 0 l -28,-33 -29,-33 -28,-33 -30,-31 -29,-31 -30,-30 -30,-30 -30,-29 -30,-28 -31,-27 -30,-26 -30,-26 -31,-25 -30,-23 -30,-23 -29,-22 -30,-21 -29,-19 -28,-19 -28,-17 -28,-17 -27,-15 -26,-14 -26,-13 -25,-11 -24,-10 -23,-9 -22,-8 -21,-6 -20,-5 -19,-3 -17,-2 6,-75 23,3 23,4 23,6 25,7 25,8 25,10 27,11 27,13 27,13 28,15 29,16 29,18 29,18 30,19 30,21 31,21 30,23 31,23 31,25 31,25 32,27 31,27 31,28 31,29 31,29 31,31 31,31 30,32 30,32 30,33 29,34 z m 624,1195 -72,22 v 0 l -10,-34 -11,-34 -11,-34 -12,-36 -12,-35 -14,-36 -13,-36 -15,-37 -15,-37 -15,-37 -16,-37 -17,-38 -17,-38 -18,-38 -18,-38 -19,-38 -20,-38 -20,-38 -20,-38 -22,-38 -21,-38 -23,-37 -22,-38 -24,-37 -24,-37 -24,-36 -25,-36 -25,-36 -26,-36 -27,-35 -27,-34 -27,-34 58,-48 28,35 28,36 27,36 27,36 26,37 25,37 25,37 25,38 23,38 24,38 22,39 23,38 21,39 21,39 21,39 20,38 19,39 19,39 18,39 18,38 17,39 16,38 16,38 15,37 15,38 14,37 13,37 13,36 12,36 12,35 11,35 z m 108,887 h -75 v -24 l -1,-24 v -25 -24 -24 -25 l -1,-24 v -25 l -1,-24 -1,-25 -1,-25 -1,-25 -2,-26 -1,-25 -2,-26 -3,-26 -2,-26 -3,-27 -3,-27 -4,-27 -4,-28 -4,-28 -5,-28 -5,-29 -6,-30 -6,-29 -7,-30 -7,-31 -8,-31 -8,-32 -9,-33 -10,-32 72,-22 10,34 9,33 9,33 8,32 7,32 7,31 6,31 6,30 6,30 5,29 4,29 4,28 4,29 3,27 3,28 3,27 2,27 3,26 1,27 2,26 1,25 1,26 1,25 1,26 v 24 l 1,25 v 25 25 24 24 l 1,25 z m -38,264 -225,-525 14,7 14,6 14,6 14,5 14,6 14,4 14,4 15,4 14,3 14,3 14,3 14,2 14,1 14,1 14,1 h 14 14 l 14,-1 14,-1 14,-1 14,-2 14,-3 14,-3 15,-3 14,-4 14,-4 14,-4 14,-6 14,-5 14,-6 14,-6 14,-7 v 0 z"
   id="path1342"
   inkscape:connector-curvature="0"
   style="fill:#ffffff;fill-rule:nonzero" />
  </g>
  <path
   class="fil1"
   d="m 1299,3514 c -23,80 -67,148 -132,203 -64,56 -129,83 -193,83 -51,0 -93,-18 -126,-56 -33,-37 -50,-83 -50,-137 0,-89 30,-177 91,-263 61,-86 134,-129 221,-129 59,0 106,22 143,65 36,44 55,96 55,156 0,26 -3,52 -9,77 z m -269,-164 c -24,22 -48,56 -71,103 -23,46 -34,93 -34,141 0,28 5,52 15,70 11,19 25,28 42,28 43,0 87,-25 133,-76 46,-50 70,-107 70,-170 0,-36 -8,-65 -23,-88 -15,-23 -36,-34 -63,-34 -25,0 -48,9 -68,26 z"
   id="path1346"
   inkscape:connector-curvature="0"
   style="fill:#fafbfc;fill-rule:nonzero" />
  <path
   id="1"
   class="fil1"
   d="m 1559,3804 c -57,0 -100,-16 -129,-47 -30,-31 -45,-74 -45,-129 0,-87 35,-180 106,-281 71,-101 140,-152 208,-152 33,0 60,16 84,49 23,33 34,66 34,101 0,34 -6,56 -18,67 -12,12 -24,18 -36,18 -33,0 -52,-23 -58,-70 -4,-33 -13,-50 -25,-50 -27,0 -63,38 -107,115 -44,76 -66,143 -66,201 0,46 25,69 76,69 55,0 111,-19 167,-58 27,-20 48,-29 64,-29 18,0 28,9 28,29 0,26 -30,61 -91,103 -61,43 -125,64 -192,64 z"
   inkscape:connector-curvature="0"
   style="fill:#fafbfc;fill-rule:nonzero" />
  <path
   id="2"
   class="fil1"
   d="m 2078,3743 c -4,36 -24,53 -59,53 -45,0 -68,-32 -68,-98 0,-105 6,-195 17,-270 9,-58 14,-115 14,-171 0,-14 4,-25 12,-34 9,-9 21,-14 37,-14 51,0 77,32 77,94 0,20 -9,72 -27,156 -11,49 -17,85 -17,108 99,-217 188,-325 267,-325 32,0 58,13 77,38 19,26 30,82 30,170 1,80 5,120 13,120 6,0 27,-39 64,-116 41,-86 76,-143 105,-170 29,-28 60,-42 92,-42 38,0 66,17 83,49 17,33 30,89 37,167 5,62 12,109 21,141 8,32 23,53 45,63 17,8 25,21 25,37 0,15 -9,30 -29,45 -20,15 -40,22 -60,22 -35,0 -62,-17 -82,-52 -20,-34 -34,-104 -40,-208 -4,-50 -8,-84 -13,-100 -4,-17 -10,-25 -19,-25 -7,0 -19,12 -33,37 -14,25 -39,74 -75,147 -31,66 -58,112 -81,139 -22,26 -46,39 -72,39 -20,0 -40,-9 -61,-26 -20,-17 -31,-80 -32,-188 -2,-96 -8,-144 -19,-144 -15,0 -49,43 -104,129 -56,85 -97,161 -125,229 z"
   inkscape:connector-curvature="0"
   style="fill:#fafbfc;fill-rule:nonzero" />
  <path
   id="3"
   class="fil1"
   d="m 3122,3742 c -6,28 -15,79 -25,154 -11,75 -17,125 -19,151 -2,26 -11,48 -27,65 -15,18 -29,27 -42,27 -15,0 -31,-6 -46,-17 -15,-12 -22,-25 -22,-39 0,-27 4,-60 12,-96 52,-207 80,-419 85,-638 v -11 c 0,-42 2,-71 4,-86 3,-15 12,-30 26,-43 15,-14 32,-21 51,-21 17,0 30,7 41,22 10,15 16,36 16,64 0,28 -5,78 -16,149 38,-64 84,-117 137,-159 54,-42 102,-63 146,-63 39,0 71,14 98,42 27,27 41,62 41,104 0,111 -43,212 -130,303 -86,91 -171,137 -256,137 -39,0 -64,-15 -74,-45 z m 301,-423 c -42,0 -97,41 -164,123 -67,82 -100,146 -100,193 0,12 6,23 17,32 12,10 26,14 42,14 44,0 94,-34 151,-103 56,-68 85,-135 85,-199 0,-21 -4,-37 -10,-46 -7,-10 -14,-14 -21,-14 z"
   inkscape:connector-curvature="0"
   style="fill:#fafbfc;fill-rule:nonzero" />
  <path
   id="4"
   class="fil1"
   d="m 3819,3425 c 69,-77 137,-116 205,-116 45,0 83,14 113,42 30,27 46,59 46,95 0,84 -43,162 -129,234 -87,72 -168,108 -244,108 -43,0 -75,-18 -97,-53 -22,-35 -34,-85 -34,-149 0,-110 20,-220 59,-331 3,-10 7,-20 9,-30 4,-13 16,-24 37,-33 21,-8 36,-13 46,-13 10,0 20,5 28,14 9,9 13,20 13,33 0,9 -7,36 -20,81 -18,61 -28,100 -32,118 z m -11,116 c -3,18 -4,34 -4,48 0,41 5,66 14,75 10,8 19,13 28,13 28,0 70,-20 125,-59 54,-38 82,-82 82,-129 0,-21 -6,-38 -16,-50 -11,-12 -24,-19 -40,-19 -53,0 -105,30 -155,90 -17,20 -28,31 -34,31 z m 508,83 c 0,22 3,50 10,84 1,6 2,11 2,15 0,8 -7,19 -22,32 -15,14 -32,21 -49,21 -45,0 -68,-35 -68,-104 0,-36 2,-71 7,-105 4,-34 15,-97 32,-189 9,-50 13,-80 13,-91 0,-26 6,-48 17,-65 11,-17 27,-26 47,-26 24,0 42,6 55,17 13,12 19,24 19,37 0,14 -7,44 -20,90 -29,100 -43,194 -43,284 z"
   inkscape:connector-curvature="0"
   style="fill:#fafbfc;fill-rule:nonzero" />
  <path
   id="5"
   class="fil1"
   d="m 4927,3598 c 0,36 -30,78 -90,128 -60,50 -128,75 -204,75 -58,0 -104,-18 -138,-55 -33,-37 -50,-88 -50,-153 0,-97 34,-187 103,-272 68,-84 141,-126 218,-126 39,0 70,12 93,36 24,25 35,54 35,88 0,60 -28,117 -86,171 -58,54 -131,92 -221,112 -10,3 -16,9 -16,19 0,17 8,32 22,47 15,15 34,23 59,23 69,0 138,-36 206,-107 13,-14 26,-21 38,-21 21,0 31,12 31,35 z m -346,-92 c 54,-11 102,-34 144,-70 41,-35 62,-67 62,-96 0,-11 -3,-21 -10,-29 -6,-8 -14,-11 -24,-11 -30,0 -63,22 -100,66 -37,44 -61,91 -72,140 z"
   inkscape:connector-curvature="0"
   style="fill:#fafbfc;fill-rule:nonzero" />
  <path
   id="6"
   class="fil1"
   d="m 5715,3455 c 38,5 70,21 95,48 25,27 37,57 37,92 0,59 -26,109 -78,151 -52,41 -120,62 -203,62 -50,0 -93,-12 -130,-36 -37,-24 -55,-50 -55,-78 0,-10 4,-19 12,-27 9,-8 21,-11 38,-11 7,0 16,4 25,12 39,29 80,43 121,43 41,0 76,-11 104,-32 29,-21 43,-49 43,-83 0,-22 -8,-40 -24,-54 -17,-15 -35,-22 -55,-22 -13,0 -29,3 -48,8 -13,4 -25,7 -36,11 -10,4 -23,5 -37,5 -31,0 -46,-16 -46,-50 0,-11 5,-20 16,-28 10,-8 31,-15 64,-22 93,-19 139,-55 139,-108 0,-14 -5,-26 -17,-36 -11,-10 -24,-14 -39,-14 -30,0 -62,14 -97,43 -26,21 -47,31 -65,31 -13,0 -24,-4 -33,-12 -9,-9 -13,-19 -13,-31 0,-30 24,-57 71,-83 47,-25 99,-38 156,-38 50,0 90,11 118,33 28,23 43,51 43,85 0,60 -36,106 -106,141 z"
   inkscape:connector-curvature="0"
   style="fill:#fafbfc;fill-rule:nonzero" />
  <path
   id="7"
   class="fil1"
   d="m 6283,3603 c -90,119 -176,179 -259,179 -31,0 -58,-12 -80,-37 -23,-25 -34,-56 -34,-93 0,-92 41,-189 122,-292 81,-103 163,-155 246,-155 42,0 70,21 83,64 39,0 59,15 59,45 0,15 -4,41 -11,79 -14,70 -21,127 -21,170 0,44 3,75 9,93 6,18 11,29 13,35 3,5 12,11 25,17 14,7 21,16 21,28 0,17 -9,32 -27,44 -18,11 -36,17 -55,17 -33,0 -56,-16 -70,-48 -15,-33 -22,-71 -22,-114 v -16 c 0,-5 1,-10 1,-16 z m -28,-287 c -34,0 -80,38 -135,115 -56,77 -84,142 -84,196 0,28 6,42 18,42 41,0 91,-35 150,-108 60,-72 89,-135 89,-189 0,-17 -4,-31 -12,-41 -7,-10 -16,-15 -26,-15 z"
   inkscape:connector-curvature="0"
   style="fill:#fafbfc;fill-rule:nonzero" />
  <path
   id="8"
   class="fil1"
   d="m 6670,3660 c 0,10 5,18 16,26 11,7 21,11 30,11 60,0 112,-10 156,-31 26,-13 46,-20 59,-20 23,0 34,12 34,37 0,32 -26,59 -78,81 -52,23 -115,34 -190,34 -46,0 -85,-13 -117,-40 -32,-26 -49,-60 -49,-101 0,-35 12,-69 34,-103 23,-35 80,-76 170,-124 42,-21 69,-38 81,-48 13,-11 19,-22 19,-33 0,-9 -3,-16 -11,-22 -7,-6 -13,-8 -17,-8 -21,0 -67,14 -136,44 -7,3 -14,5 -21,5 -33,0 -49,-11 -49,-33 0,-36 28,-66 86,-88 58,-23 107,-35 149,-35 36,0 68,12 96,36 28,24 42,54 42,88 0,30 -11,60 -32,88 -23,28 -69,62 -141,101 -51,28 -85,52 -103,73 -19,21 -28,41 -28,62 z"
   inkscape:connector-curvature="0"
   style="fill:#fafbfc;fill-rule:nonzero" />
  <path
   id="9"
   class="fil1"
   d="m 7551,3514 c -23,80 -67,148 -131,203 -65,56 -129,83 -194,83 -51,0 -93,-18 -126,-56 -33,-37 -49,-83 -49,-137 0,-89 30,-177 91,-263 60,-86 134,-129 220,-129 59,0 107,22 143,65 37,44 55,96 55,156 0,26 -3,52 -9,77 z m -268,-164 c -24,22 -48,56 -71,103 -23,46 -35,93 -35,141 0,28 5,52 16,70 10,19 24,28 42,28 42,0 87,-25 133,-76 46,-50 69,-107 69,-170 0,-36 -7,-65 -22,-88 -15,-23 -36,-34 -63,-34 -26,0 -49,9 -69,26 z"
   inkscape:connector-curvature="0"
   style="fill:#fafbfc;fill-rule:nonzero" />
  <path
   id="10"
   class="fil1"
   d="m 8204,3726 c 0,9 -5,20 -16,36 -11,15 -30,23 -58,23 -34,0 -65,-29 -92,-87 -27,-58 -46,-122 -58,-191 -4,-23 -9,-50 -16,-80 -2,-6 -3,-17 -5,-33 -1,-17 -3,-26 -4,-28 -5,11 -11,24 -18,38 -43,96 -90,183 -141,261 l -6,12 c -3,4 -5,8 -8,11 -43,76 -78,114 -105,114 -39,0 -58,-17 -58,-52 0,-27 18,-62 54,-105 45,-53 102,-148 173,-282 l 73,-141 c 7,-14 21,-21 40,-21 11,0 24,4 40,10 15,7 25,15 30,24 5,10 10,25 14,46 25,116 48,208 68,275 20,68 41,110 65,127 19,10 28,24 28,43 z"
   inkscape:connector-curvature="0"
   style="fill:#fafbfc;fill-rule:nonzero" />
  <path
   id="11"
   class="fil1"
   d="m 8778,3514 c -23,80 -67,148 -132,203 -64,56 -129,83 -193,83 -51,0 -93,-18 -126,-56 -34,-37 -50,-83 -50,-137 0,-89 30,-177 91,-263 60,-86 134,-129 220,-129 59,0 107,22 144,65 36,44 54,96 54,156 0,26 -2,52 -8,77 z m -269,-164 c -24,22 -48,56 -71,103 -23,46 -34,93 -34,141 0,28 5,52 15,70 11,19 25,28 42,28 43,0 87,-25 133,-76 46,-50 69,-107 69,-170 0,-36 -7,-65 -22,-88 -15,-23 -36,-34 -63,-34 -25,0 -48,9 -69,26 z"
   inkscape:connector-curvature="0"
   style="fill:#fafbfc;fill-rule:nonzero" />
  <path
   id="12"
   class="fil1"
   d="m 9237,3250 c 34,17 60,45 78,84 19,40 28,86 28,138 0,89 -29,167 -86,234 -58,67 -120,100 -187,100 -62,0 -110,-23 -145,-70 -35,-46 -52,-115 -52,-206 0,-107 19,-215 57,-324 39,-110 86,-192 141,-247 56,-55 114,-82 175,-82 40,0 72,12 96,37 24,25 36,59 36,102 0,31 -13,68 -40,111 -26,43 -59,84 -101,123 z m -211,53 c 108,-87 173,-149 196,-186 23,-37 35,-66 35,-88 0,-29 -9,-44 -27,-44 -33,0 -68,29 -106,87 -38,58 -71,135 -98,231 z m 187,179 c 0,-40 -6,-74 -18,-102 -11,-28 -28,-43 -50,-47 -1,0 -8,5 -20,14 l -123,92 c -4,29 -6,58 -6,89 0,111 28,167 82,167 39,0 71,-22 97,-65 25,-44 38,-92 38,-144 z"
   inkscape:connector-curvature="0"
   style="fill:#fafbfc;fill-rule:nonzero" />
  <path
   id="13"
   class="fil1"
   d="m 9700,3512 c 16,4 30,10 44,20 13,10 29,27 48,53 35,49 64,82 84,98 21,15 44,23 68,23 26,0 38,8 38,23 0,16 -9,31 -26,47 -18,15 -45,23 -83,23 -58,0 -118,-48 -178,-144 -34,-57 -63,-85 -87,-85 -3,0 -11,2 -25,7 -13,4 -22,8 -27,12 -4,3 -7,25 -10,66 l -6,95 c 0,15 -7,29 -19,40 -12,11 -27,17 -45,17 -18,0 -33,-6 -44,-16 -11,-11 -16,-21 -16,-32 0,-13 4,-41 13,-84 21,-109 37,-242 49,-398 1,-20 10,-38 25,-55 15,-16 33,-25 53,-25 14,0 26,6 35,18 9,12 14,26 14,42 0,13 -2,25 -6,38 -5,15 -13,45 -22,91 -10,46 -15,81 -17,105 41,-13 73,-30 95,-52 23,-22 51,-57 85,-106 28,-40 55,-69 79,-88 25,-20 53,-29 82,-29 16,0 32,7 45,20 14,14 21,28 21,43 0,13 -4,23 -11,29 -8,6 -22,13 -41,18 -24,8 -51,27 -78,59 -58,67 -104,109 -137,127 z"
   inkscape:connector-curvature="0"
   style="fill:#fafbfc;fill-rule:nonzero" />
  <path
   id="14"
   class="fil1"
   d="m 10413,3586 c -33,61 -72,109 -115,144 -44,35 -88,53 -133,53 -26,0 -53,-14 -80,-42 -27,-28 -41,-70 -41,-128 0,-41 11,-103 31,-186 18,-68 27,-120 27,-155 14,-29 36,-44 65,-44 20,0 36,7 48,20 11,13 17,27 17,40 0,25 -8,59 -25,105 -10,26 -21,64 -33,114 -11,49 -17,80 -17,94 0,46 9,68 28,68 30,0 71,-28 122,-86 51,-57 84,-116 100,-176 15,-59 29,-98 41,-116 12,-19 29,-28 51,-28 36,0 54,20 54,60 0,6 -3,18 -9,36 -20,60 -30,129 -30,206 0,89 15,143 45,160 10,6 15,13 15,22 0,12 -9,24 -26,35 -18,11 -35,17 -50,17 -28,0 -49,-19 -63,-58 -15,-38 -22,-90 -22,-155 z"
   inkscape:connector-curvature="0"
   style="fill:#fafbfc;fill-rule:nonzero" />
  <path
   class="fil2 str0"
   d="m 4139,18895 c 83,-95 166,-190 204,-293 38,-104 32,-216 148,-290 115,-74 351,-109 659,-91 307,17 685,88 922,195 236,106 331,248 349,348 17,101 -42,160 -95,196 -53,35 -100,47 -121,103 -21,56 -15,157 -47,248 -33,92 -104,175 -175,257"
   id="path1362"
   inkscape:connector-curvature="0"
   style="fill:none;stroke:#ffffff;stroke-width:75" />
  <path
   class="fil2 str0"
   d="m 7721,19231 c 452,-339 904,-679 1485,-1192 581,-513 1290,-1199 1858,-1813 567,-615 993,-1159 1454,-1738 461,-579 957,-1194 1454,-1691 497,-496 993,-875 1289,-1383 295,-508 390,-1147 839,-1679 449,-532 1253,-957 1821,-1336 567,-378 898,-709 1075,-1064 178,-354 201,-732 142,-922 -59,-189 -201,-189 -745,-189 -543,0 -1489,0 -2482,-23 -993,-24 -2034,-71 -2790,-190 -757,-118 -1230,-307 -1632,-461 -402,-153 -733,-272 -851,-130 -118,142 -23,544 -94,1005 -71,461 -308,981 -769,1584 -461,603 -1147,1289 -1631,1963 -485,674 -769,1336 -993,1927 -225,591 -390,1111 -710,1667 -319,555 -792,1146 -1312,1702 -520,556 -1088,1076 -1395,1572 -307,497 -355,970 -217,1370 137,401 459,729 782,1057"
   id="path1364"
   inkscape:connector-curvature="0"
   style="fill:none;stroke:#ffffff;stroke-width:75" />
  <path
   class="fil2 str0"
   d="m 4281,19267 c -287,-316 -574,-633 -681,-944 -108,-312 -37,-620 116,-880 154,-260 390,-473 852,-567 461,-95 1146,-71 1749,165 603,237 1123,686 1383,1076 260,390 260,721 166,922 -95,201 -284,272 -603,320 -319,47 -768,70 -1218,94"
   id="path1366"
   inkscape:connector-curvature="0"
   style="fill:none;stroke:#ffffff;stroke-width:75" />
  <path
   class="fil2 str0"
   d="m 4742,15685 c 641,-9 1283,-18 1875,143 593,161 1137,492 1562,894 426,402 733,875 1041,1348"
   id="path1368"
   inkscape:connector-curvature="0"
   style="fill:none;stroke:#ffffff;stroke-width:75" />
  <path
   class="fil2 str0"
   d="m 7952,10223 c 635,-9 1270,-18 1919,13 649,31 1311,102 1855,362 544,260 969,710 1272,1163 303,454 483,912 664,1370"
   id="path1370"
   inkscape:connector-curvature="0"
   style="fill:none;stroke:#ffffff;stroke-width:75" />
  <path
   class="fil2 str0"
   d="m 12917,5949 c -47,219 -95,438 -142,656"
   id="path1372"
   inkscape:connector-curvature="0"
   style="fill:none;stroke:#ffffff;stroke-width:75" />
  <path
   class="fil2 str0"
   d="m 6249,18948 c -218,-130 -437,-260 -644,-337 -207,-77 -402,-101 -597,-124"
   id="path1374"
   inkscape:connector-curvature="0"
   style="fill:none;stroke:#ffffff;stroke-width:75" />
  <path
   class="fil2 str0"
   d="m 5983,19480 c 6,218 12,437 207,682 195,246 579,518 769,825 189,307 183,650 112,887 -71,236 -207,366 -337,484 -130,119 -254,225 -319,246 -65,20 -71,-45 -77,-110 M 4352,19019 c -89,360 -178,721 -80,1081 98,361 381,722 754,973 372,251 833,393 1073,597 239,204 257,470 260,635 3,166 -9,231 -21,296 M 4347,19032 c 111,-167 222,-334 467,-358 244,-25 622,93 842,260 219,166 280,380 341,594"
   id="path1376"
   inkscape:connector-curvature="0"
   style="fill:none;stroke:#ffffff;stroke-width:75" />
  <path
   class="fil2 str0"
   d="m 10576,6144 c 449,60 899,119 1277,213 378,95 686,225 1528,367 842,142 2219,295 3124,337 904,41 1336,-30 1696,-62 361,-33 651,-27 940,-21"
   id="path1378"
   inkscape:connector-curvature="0"
   style="fill:none;stroke:#ffffff;stroke-width:75" />
  <path
   class="fil2 str0"
   d="m 18024,6233 c 12,130 24,260 12,390 -12,130 -47,260 -83,390"
   id="path1380"
   inkscape:connector-curvature="0"
   style="fill:none;stroke:#ffffff;stroke-width:75" />
  <path
   class="fil2 str0"
   d="m 17315,6233 c 29,89 59,177 47,316 -12,139 -65,328 -118,518"
   id="path1382"
   inkscape:connector-curvature="0"
   style="fill:none;stroke:#ffffff;stroke-width:75" />
  <path
   class="fil2 str0"
   d="m 16481,6233 c 36,160 71,319 80,458 9,139 -9,257 -27,376"
   id="path1384"
   inkscape:connector-curvature="0"
   style="fill:none;stroke:#ffffff;stroke-width:75" />
  <path
   class="fil2 str0"
   d="m 13378,6038 c 18,106 35,213 21,322 -15,110 -62,222 -83,284 -21,62 -15,74 -15,80 0,6 -6,6 -12,6"
   id="path1386"
   inkscape:connector-curvature="0"
   style="fill:none;stroke:#ffffff;stroke-width:75" />
  <path
   class="fil2 str0"
   d="m 13910,6109 c -12,130 -24,260 -41,372 -18,113 -42,207 -65,302"
   id="path1388"
   inkscape:connector-curvature="0"
   style="fill:none;stroke:#ffffff;stroke-width:75" />
  <path
   class="fil2 str0"
   d="m 5750,24052 c -36,402 -438,756 -792,792 -355,35 -662,-248 -804,-579 -142,-331 -118,-710 71,-970 189,-260 544,-402 886,-248 343,154 674,603 639,1005 z"
   id="path1390"
   inkscape:connector-curvature="0"
   style="fill:none;stroke:#ffffff;stroke-width:75" />
  <path
   class="fil2 str0"
   d="m 6783,25188 c -138,191 -105,619 53,810 158,191 442,143 666,72 225,-70 390,-165 386,-332 -4,-167 -179,-406 -420,-550 -240,-143 -548,-190 -685,0 z"
   id="path1392"
   inkscape:connector-curvature="0"
   style="fill:none;stroke:#ffffff;stroke-width:75" />
  <path
   class="fil2 str0"
   d="m 4294,19262 c -61,280 -98,559 -22,838 98,361 381,722 754,973 372,251 833,393 1073,597 239,204 257,470 260,635 2,128 -5,196 -13,250 8,38 25,63 69,49 65,-21 189,-127 319,-246 130,-118 266,-248 337,-484 71,-237 77,-580 -112,-887 -190,-307 -574,-579 -769,-825 -170,-213 -196,-406 -204,-597 -1,-28 -2,-55 -3,-83 -57,-199 -124,-394 -327,-548 -220,-167 -598,-285 -842,-260 -244,24 -355,189 -465,355 -19,78 -38,156 -55,233 z"
   id="path1394"
   inkscape:connector-curvature="0"
   style="fill:none;stroke:#ffffff;stroke-width:75" />
  <path
   class="fil2 str1"
   d="m 8452,12064 c 71,-113 129,-177 180,-206 52,-29 97,-23 107,13 9,35 -16,100 -7,100 10,0 55,-65 116,-100 61,-36 139,-42 187,-7 48,36 67,113 77,123 10,9 10,-49 26,-81 17,-33 50,-40 101,28 52,67 122,210 102,426 -20,216 -129,506 -203,825 -74,318 -113,666 -106,979 6,312 58,589 148,1046 90,457 219,1095 280,1427 61,331 55,357 -16,280 -71,-77 -206,-258 -351,-451 -145,-193 -300,-399 -435,-660 -135,-261 -251,-577 -322,-908 -71,-332 -97,-680 -109,-1082 -13,-403 -13,-860 29,-1169 41,-309 125,-470 196,-583 z"
   id="path1396"
   inkscape:connector-curvature="0"
   style="fill:none;stroke:#ffffff;stroke-width:75;stroke-linecap:round;stroke-linejoin:round" />
  <path
   class="fil2 str1"
   d="m 8390,12163 c 44,-114 89,-227 162,-355 74,-127 177,-269 239,-426 61,-158 81,-331 59,-424 -23,-94 -88,-107 -152,-91 -65,16 -128,62 -190,126 -61,65 -120,148 -155,150 -36,3 -49,-74 -14,-171 36,-96 119,-212 210,-280 90,-67 186,-87 276,-62 90,24 173,93 202,202 29,110 4,260 11,399 7,138 47,265 86,373 39,108 78,198 113,285 35,87 68,171 100,255"
   id="path1398"
   inkscape:connector-curvature="0"
   style="fill:none;stroke:#ffffff;stroke-width:75;stroke-linecap:round;stroke-linejoin:round" />
  <path
   class="fil2 str1"
   d="m 8339,13180 c 4,354 7,708 41,1019 33,311 98,578 162,845"
   id="path1400"
   inkscape:connector-curvature="0"
   style="fill:none;stroke:#ffffff;stroke-width:75;stroke-linecap:round;stroke-linejoin:round" />
  <path
   class="fil2 str1"
   d="m 8600,15180 c 10,51 19,103 32,154 13,52 29,103 45,155"
   id="path1402"
   inkscape:connector-curvature="0"
   style="fill:none;stroke:#ffffff;stroke-width:75;stroke-linecap:round;stroke-linejoin:round" />
  <path
   class="fil2 str0"
   d="m 4443,23746 c 118,259 235,518 388,612 153,94 341,23 529,-47"
   id="path1404"
   inkscape:connector-curvature="0"
   style="fill:none;stroke:#ffffff;stroke-width:75" />
  <path
   class="fil2 str0"
   d="m 8914,19345 c 730,-564 1459,-1129 2023,-1693 565,-565 964,-1129 1364,-1693"
   id="path1406"
   inkscape:connector-curvature="0"
   style="fill:none;stroke:#ffffff;stroke-width:75" />
  <path
   class="fil2 str0"
   d="m 10255,19063 c 423,-329 847,-658 1094,-905 247,-247 317,-412 388,-577"
   id="path1408"
   inkscape:connector-curvature="0"
   style="fill:none;stroke:#ffffff;stroke-width:75" />
 </g>
</svg>