<?xml version="1.0" encoding="UTF-8" standalone="no"?>
<!-- Creator: CorelDRAW X7 -->

<svg
   xmlns:dc="http://purl.org/dc/elements/1.1/"
   xmlns:cc="http://creativecommons.org/ns#"
   xmlns:rdf="http://www.w3.org/1999/02/22-rdf-syntax-ns#"
   xmlns:svg="http://www.w3.org/2000/svg"
   xmlns="http://www.w3.org/2000/svg"
   xmlns:sodipodi="http://sodipodi.sourceforge.net/DTD/sodipodi-0.dtd"
   xmlns:inkscape="http://www.inkscape.org/namespaces/inkscape"
   xml:space="preserve"
   width="495"
   height="394"
   version="1.1"
   style="clip-rule:evenodd;fill-rule:evenodd;image-rendering:optimizeQuality;shape-rendering:geometricPrecision;text-rendering:geometricPrecision"
   viewBox="0 0 13096.876 10424.584"
   id="svg6366"
   sodipodi:docname="start.svg"
   inkscape:version="0.92.4 (5da689c313, 2019-01-14)"><metadata
   id="metadata6370"><rdf:RDF><cc:Work
       rdf:about=""><dc:format>image/svg+xml</dc:format><dc:type
         rdf:resource="http://purl.org/dc/dcmitype/StillImage" /><dc:title></dc:title></cc:Work></rdf:RDF></metadata><sodipodi:namedview
   pagecolor="#ffffff"
   bordercolor="#666666"
   borderopacity="1"
   objecttolerance="10"
   gridtolerance="10"
   guidetolerance="10"
   inkscape:pageopacity="0"
   inkscape:pageshadow="2"
   inkscape:window-width="1920"
   inkscape:window-height="1017"
   id="namedview6368"
   showgrid="false"
   units="px"
   inkscape:zoom="1.6819304"
   inkscape:cx="263.77338"
   inkscape:cy="232.26362"
   inkscape:window-x="-8"
   inkscape:window-y="32"
   inkscape:window-maximized="1"
   inkscape:current-layer="Слой_x0020_1" />
 <defs
   id="defs6355">
  <style
   type="text/css"
   id="style6353">
   <![CDATA[
    .str0 {stroke:#2B2A29;stroke-width:75;stroke-linecap:round;stroke-linejoin:round}
    .fil0 {fill:none}
    .fil1 {fill:#FEED0A}
   ]]>
  </style>
 </defs>
 <g
   id="Слой_x0020_1"
   transform="translate(0,-19275.416)">
  <metadata
   id="CorelCorpID_0Corel-Layer" />
  <g
   id="_1727155802096"
   transform="matrix(0.45939212,0,0,0.45939212,1605.006,17656.81)">
   <path
   class="fil0 str0"
   d="m 10759,4068 c 306,398 936,1228 1327,2072 391,844 543,1702 615,2491 73,788 66,1508 -62,2182 -128,675 -377,1304 -595,1636 -218,332 -404,367 -830,377 -425,11 -1090,-3 -1529,-38 -439,-34 -654,-90 -792,-204 -138,-114 -201,-287 -332,-709 -131,-422 -332,-1093 -418,-1781 -87,-689 -59,-1394 12,-1968 71,-575 185,-1017 344,-1446 159,-429 363,-844 583,-1235 219,-391 454,-758 691,-1038 237,-280 476,-474 587,-588 110,-114 93,-149 399,249 z M 7812,9743 c 33,105 26,351 97,740 71,389 220,922 351,1280 132,358 246,541 299,638 54,97 47,107 -67,117 -114,11 -336,21 -472,51 -137,29 -189,77 -241,188 -52,111 -103,284 -147,393 -43,109 -77,154 -124,150 -47,-3 -106,-55 -166,-266 -61,-211 -123,-581 -135,-1026 -12,-444 26,-963 105,-1359 80,-396 201,-669 298,-823 97,-154 169,-189 202,-83 z m 4568,2701 c 34,-78 155,-220 285,-526 130,-306 268,-776 341,-1160 72,-384 79,-682 90,-844 10,-163 24,-190 90,-106 65,85 183,282 297,647 114,365 225,898 256,1337 31,439 -17,785 -79,1034 -63,249 -139,402 -203,478 -64,76 -116,76 -169,0 -54,-76 -109,-229 -163,-364 -53,-134 -105,-252 -218,-314 -112,-63 -285,-69 -398,-80 -112,-10 -164,-24 -129,-102 z m -3464,412 c -144,264 -288,529 -393,733 -106,204 -173,348 -163,461 11,113 99,196 211,239 113,42 249,44 386,45 m 3098,-1468 c 128,253 256,505 354,730 99,225 168,422 118,526 -50,103 -220,114 -327,121 -107,7 -152,10 -197,14 M 9575,13084 c -111,349 -222,699 -288,981 -65,282 -86,496 85,636 171,140 535,206 955,230 420,24 897,7 1157,-40 259,-46 301,-122 271,-325 -29,-202 -129,-531 -197,-797 -67,-266 -102,-471 -136,-675 m -1453,104 c -100,280 -201,560 -253,785 -52,225 -55,395 89,479 143,85 434,85 724,85 M 1730,25733 c 1217,-276 2435,-553 3618,-712 1183,-159 2331,-201 3943,-229 1612,-27 3687,-41 5271,42 1585,83 2678,263 3418,477 740,215 1127,464 1515,713 M 8807,15128 c -208,401 -415,803 -412,1270 4,467 218,999 507,1503 289,503 652,977 916,1421 265,445 431,860 524,1052 94,192 115,161 263,-118 149,-278 426,-804 564,-1065 139,-261 139,-258 139,-254 m 1016,-4141 c 42,132 83,263 56,398 -28,135 -125,273 -125,429 0,155 97,328 152,577 56,250 70,575 -34,941 -104,367 -325,775 -453,1007 -128,232 -163,287 -197,342 M 9917,15294 c -118,208 -235,415 -270,720 -34,304 14,705 111,1037 97,332 242,595 363,810 121,214 218,380 287,460 69,79 111,72 184,-49 72,-121 176,-356 314,-736 139,-381 312,-907 339,-1315 28,-408 -90,-698 -207,-989 m 477,-42 c 132,256 263,512 318,723 56,211 35,377 14,543 m -2636,-954 c -103,346 -207,692 -207,1044 0,353 104,713 221,941 118,228 249,325 381,422 m 228,374 c 159,242 318,484 477,726 M 9585,5229 c 277,76 553,152 841,155 287,4 584,-65 882,-135 M 9896,4959 c 97,-159 194,-318 294,-419 101,-100 204,-141 308,-183 M 9460,5893 c -235,546 -470,1093 -615,1650 -145,557 -201,1124 -256,1691 m 62,830 c -46,-103 -92,-205 -98,-309 -7,-104 25,-209 57,-313 m 228,1369 c 97,388 194,775 332,1062 138,287 318,474 453,568 135,93 225,93 315,93 m 313,-5555 c -218,73 -432,230 -570,447 -137,217 -200,494 -117,743 83,249 312,470 581,574 270,104 581,90 806,-28 225,-117 363,-339 436,-546 73,-208 80,-401 -10,-606 -90,-204 -277,-418 -481,-531 -205,-114 -427,-126 -645,-53 z m -386,647 c 270,297 540,595 810,892 m 311,-290 c -159,-166 -318,-332 -477,-498 m 757,-914 c 87,101 173,201 259,301 m 187,270 c 43,279 85,559 25,842 -60,283 -223,570 -441,747 -218,176 -491,242 -728,259 -238,18 -439,-12 -638,-105 -200,-93 -397,-249 -530,-414 -134,-165 -204,-340 -239,-554 -34,-215 -33,-469 52,-694 85,-226 254,-423 443,-579 188,-156 396,-270 590,-312 194,-42 375,-11 556,19 M 6929,24198 c 46,-264 92,-529 319,-697 226,-167 634,-238 903,-127 269,112 401,406 532,700 m -288,-503 c 208,-319 415,-637 789,-879 373,-242 913,-408 1390,-443 478,-34 893,63 1287,346 394,284 768,754 1142,1225 m -8720,-358 c -103,-540 -207,-1080 66,-1455 273,-375 924,-586 1435,-588 512,-2 886,206 1260,413 m -2885,841 c -360,73 -720,145 -998,370 -279,225 -476,602 -462,967 14,365 239,718 628,894 389,176 942,176 1496,176 m 11967,-1701 c 104,-540 208,-1080 -66,-1455 -273,-375 -923,-586 -1435,-588 -512,-2 -886,206 -1259,413 m 2866,840 c 366,73 732,146 1014,371 281,225 478,602 464,967 -13,365 -238,717 -627,894 -390,176 -865,166 -1419,166 m -3482,-849 c 99,-250 197,-500 452,-619 256,-119 669,-107 911,57 241,163 311,478 380,792 M 9695,19321 c -213,-78 -426,-157 -650,-115 -225,42 -460,205 -541,462 -81,258 -9,611 -119,776 -109,166 -402,143 -700,165 -298,22 -600,90 -856,243 -256,154 -445,354 -655,594 m 5168,-2198 c 213,-78 426,-157 650,-115 224,43 460,205 541,463 81,258 8,611 118,776 110,165 403,142 701,165 298,22 600,89 856,242 256,154 466,393 675,633"
   id="path6358"
   inkscape:connector-curvature="0"
   style="fill:none;stroke:#2b2a29;stroke-width:75;stroke-linecap:round;stroke-linejoin:round" />
   <path
   class="fil1 str0"
   d="m 7909,10483 c -71,-389 -64,-635 -97,-740 -33,-106 -105,-71 -202,83 -97,154 -218,427 -298,823 -79,396 -117,915 -105,1359 12,445 74,815 135,1026 60,211 119,263 166,266 47,4 81,-41 124,-150 44,-109 95,-282 147,-393 52,-111 104,-159 241,-188 136,-30 358,-40 472,-51 114,-10 121,-20 67,-117 -53,-97 -167,-280 -299,-638 -131,-358 -280,-891 -351,-1280 z"
   id="path6360"
   inkscape:connector-curvature="0"
   style="fill:#feed0a;stroke:#2b2a29;stroke-width:75;stroke-linecap:round;stroke-linejoin:round" />
   <path
   class="fil1 str0"
   d="m 12665,11918 c -130,306 -251,448 -285,526 -35,78 17,92 129,102 113,11 286,17 398,80 113,62 165,180 218,314 54,135 109,288 163,364 53,76 105,76 169,0 64,-76 140,-229 203,-478 62,-249 110,-595 79,-1034 -31,-439 -142,-972 -256,-1337 -114,-365 -232,-562 -297,-647 -66,-84 -80,-57 -90,106 -11,162 -18,460 -90,844 -73,384 -211,854 -341,1160 z"
   id="path6362"
   inkscape:connector-curvature="0"
   style="fill:#feed0a;stroke:#2b2a29;stroke-width:75;stroke-linecap:round;stroke-linejoin:round" />
  </g>
 </g>
</svg>