<?xml version="1.0" encoding="UTF-8" standalone="no"?>
<!-- Creator: CorelDRAW X7 -->

<svg
   xmlns:dc="http://purl.org/dc/elements/1.1/"
   xmlns:cc="http://creativecommons.org/ns#"
   xmlns:rdf="http://www.w3.org/1999/02/22-rdf-syntax-ns#"
   xmlns:svg="http://www.w3.org/2000/svg"
   xmlns="http://www.w3.org/2000/svg"
   xmlns:sodipodi="http://sodipodi.sourceforge.net/DTD/sodipodi-0.dtd"
   xmlns:inkscape="http://www.inkscape.org/namespaces/inkscape"
   xml:space="preserve"
   width="123"
   height="156"
   version="1.1"
   style="clip-rule:evenodd;fill-rule:evenodd;image-rendering:optimizeQuality;shape-rendering:geometricPrecision;text-rendering:geometricPrecision"
   viewBox="0 0 3254.3749 4127.5001"
   id="svg2227"
   sodipodi:docname="v03.svg"
   inkscape:version="0.92.4 (5da689c313, 2019-01-14)"><metadata
   id="metadata2231"><rdf:RDF><cc:Work
       rdf:about=""><dc:format>image/svg+xml</dc:format><dc:type
         rdf:resource="http://purl.org/dc/dcmitype/StillImage" /><dc:title></dc:title></cc:Work></rdf:RDF></metadata><sodipodi:namedview
   pagecolor="#ffffff"
   bordercolor="#666666"
   borderopacity="1"
   objecttolerance="10"
   gridtolerance="10"
   guidetolerance="10"
   inkscape:pageopacity="0"
   inkscape:pageshadow="2"
   inkscape:window-width="1920"
   inkscape:window-height="1017"
   id="namedview2229"
   showgrid="false"
   inkscape:zoom="3.3638608"
   inkscape:cx="182.71523"
   inkscape:cy="95.822059"
   inkscape:window-x="-8"
   inkscape:window-y="32"
   inkscape:window-maximized="1"
   inkscape:current-layer="_2904687718544"
   units="px" />
 <defs
   id="defs2038">
  <style
   type="text/css"
   id="style2036">
   <![CDATA[
    .str0 {stroke:#CCCCCC;stroke-width:25;stroke-linecap:round;stroke-linejoin:round}
    .fil0 {fill:none}
   ]]>
  </style>
 </defs>
 <g
   id="Слой_x0020_1"
   transform="translate(0,-25572.498)">
  <metadata
   id="CorelCorpID_0Corel-Layer" />
  
  
  
  
  
  
  
  <g
   id="_2904687718544">
   
   
   
   
   
   
   
   
   
   
   
   
   
   
  <g
   transform="matrix(0.66804097,0,0,0.66804097,-5985.0569,10534.045)"
   style="clip-rule:evenodd;fill-rule:evenodd;image-rendering:optimizeQuality;shape-rendering:geometricPrecision;text-rendering:geometricPrecision"
   id="_2904687705104"><path
     inkscape:connector-curvature="0"
     class="fil0 str0"
     d="m 10695,25080 c -127,166 -239,371 -273,588 -35,216 10,445 175,643 166,198 453,366 777,412 325,46 687,-29 919,-159 232,-130 335,-314 362,-546 27,-233 -21,-513 -96,-733 -75,-220 -177,-381 -425,-475 -247,-94 -640,-121 -907,-71 -266,49 -406,175 -532,341 z"
     id="path2215"
     style="fill:none;stroke:#cccccc;stroke-width:25;stroke-linecap:round;stroke-linejoin:round" /><path
     inkscape:connector-curvature="0"
     class="fil0 str0"
     d="m 10630,23719 c -38,41 -75,82 -80,152 -6,70 22,169 102,205 80,36 213,9 294,-48 80,-56 107,-141 63,-223 -45,-82 -161,-161 -227,-231 -67,-70 -84,-131 15,-160 99,-29 314,-26 454,35 140,62 205,181 214,313 8,131 -39,275 -58,352 -19,77 -9,87 94,39 102,-48 297,-154 403,-253 106,-99 123,-191 104,-271 -19,-81 -74,-149 -48,-135 26,14 131,109 198,213 67,104 94,217 80,333 -13,116 -68,236 -71,263 -4,28 44,-37 119,-82 75,-44 178,-68 335,-56 157,12 369,60 510,53 142,-7 214,-68 286,-130"
     id="path2217"
     style="fill:none;stroke:#cccccc;stroke-width:25;stroke-linecap:round;stroke-linejoin:round" /><path
     inkscape:connector-curvature="0"
     class="fil0 str0"
     d="m 10640,23719 c -65,-20 -130,-41 -203,7 -74,48 -156,164 -171,338 -15,174 36,407 51,490 16,84 -5,19 -49,-58 -45,-77 -113,-165 -282,-227 -169,-61 -439,-96 -630,-65 -191,31 -304,127 -336,181 -33,55 15,68 129,70 115,2 296,-8 485,50 190,58 388,184 487,285 99,101 99,176 56,193 -42,17 -128,-24 -268,-92 -140,-69 -334,-164 -433,-178 -100,-14 -103,55 -45,188 58,133 178,331 277,464 99,133 177,202 196,255 19,53 -22,90 -106,114 -83,24 -210,34 -334,89 -125,55 -248,154 -309,282 -62,128 -62,285 -47,409 16,125 47,217 81,197 34,-21 71,-154 177,-275 106,-121 280,-231 425,-280 146,-50 262,-39 304,-31 43,9 12,16 -58,51 -70,36 -179,101 -227,205 -48,104 -34,248 -36,400 -1,152 -18,312 -58,457 -39,146 -100,275 -107,345 -7,70 41,81 124,45 84,-36 204,-118 274,-248 70,-130 90,-307 128,-416 37,-110 92,-151 136,-147 45,3 79,51 96,167 17,116 17,301 5,458 -12,157 -36,286 2,343 37,56 136,39 208,-38 72,-77 116,-213 130,-316 13,-102 -4,-170 42,-210 47,-39 156,-49 265,-39 109,10 219,41 263,111 44,70 24,179 -22,266 -46,88 -118,152 -65,156 53,3 231,-55 352,-154 121,-99 186,-239 201,-321 16,-82 -19,-106 12,-102 31,3 127,34 214,10 87,-24 165,-102 211,-171 46,-68 60,-126 65,-87 5,39 2,176 52,319 49,144 151,294 257,374 106,81 215,91 238,46 22,-44 -43,-143 -82,-259 -40,-116 -53,-249 -31,-348 22,-99 80,-164 183,-234 102,-70 249,-145 297,-255 48,-109 -4,-252 2,-324 5,-72 66,-72 138,-5 72,66 154,199 172,307 19,108 -25,190 -20,234 5,44 60,51 138,20 79,-30 181,-99 198,-227 17,-128 -51,-316 -159,-497 -107,-181 -254,-355 -370,-461 -116,-105 -202,-143 -193,-158 8,-16 111,-9 227,-40 116,-30 246,-99 326,-167 80,-68 111,-137 38,-160 -74,-24 -251,-4 -391,-48 -140,-45 -243,-154 -374,-222 -132,-69 -292,-96 -349,-106 -56,-10 -8,-4 89,-17 98,-14 244,-48 349,-91 104,-42 165,-94 228,-174 64,-80 128,-189 161,-241 32,-51 32,-44 32,-44 0,0 0,-7 0,-14"
     id="path2219"
     style="fill:none;stroke:#cccccc;stroke-width:25;stroke-linecap:round;stroke-linejoin:round" /><path
     inkscape:connector-curvature="0"
     class="fil0 str0"
     d="m 11572,24938 c 134,31 267,62 373,135 106,74 184,190 223,255 40,65 40,78 31,83 -8,5 -26,2 -43,-1"
     id="path2221"
     style="fill:none;stroke:#cccccc;stroke-width:25;stroke-linecap:round;stroke-linejoin:round" /><path
     inkscape:connector-curvature="0"
     class="fil0 str0"
     d="m 12167,25645 c 51,75 102,151 107,227 5,77 -36,156 -60,193 -23,38 -30,35 -37,31"
     id="path2223"
     style="fill:none;stroke:#cccccc;stroke-width:25;stroke-linecap:round;stroke-linejoin:round" /></g></g>
  
  
  
  
 </g>
</svg>