<?xml version="1.0" encoding="UTF-8" standalone="no"?>
<!-- Creator: CorelDRAW X7 -->

<svg
   xmlns:dc="http://purl.org/dc/elements/1.1/"
   xmlns:cc="http://creativecommons.org/ns#"
   xmlns:rdf="http://www.w3.org/1999/02/22-rdf-syntax-ns#"
   xmlns:svg="http://www.w3.org/2000/svg"
   xmlns="http://www.w3.org/2000/svg"
   xmlns:sodipodi="http://sodipodi.sourceforge.net/DTD/sodipodi-0.dtd"
   xmlns:inkscape="http://www.inkscape.org/namespaces/inkscape"
   xml:space="preserve"
   width="123"
   height="156"
   version="1.1"
   style="clip-rule:evenodd;fill-rule:evenodd;image-rendering:optimizeQuality;shape-rendering:geometricPrecision;text-rendering:geometricPrecision"
   viewBox="0 0 3254.3749 4127.5001"
   id="svg2227"
   sodipodi:docname="v1.svg"
   inkscape:version="0.92.4 (5da689c313, 2019-01-14)"><metadata
   id="metadata2231"><rdf:RDF><cc:Work
       rdf:about=""><dc:format>image/svg+xml</dc:format><dc:type
         rdf:resource="http://purl.org/dc/dcmitype/StillImage" /><dc:title></dc:title></cc:Work></rdf:RDF></metadata><sodipodi:namedview
   pagecolor="#ffffff"
   bordercolor="#666666"
   borderopacity="1"
   objecttolerance="10"
   gridtolerance="10"
   guidetolerance="10"
   inkscape:pageopacity="0"
   inkscape:pageshadow="2"
   inkscape:window-width="1920"
   inkscape:window-height="1017"
   id="namedview2229"
   showgrid="false"
   inkscape:zoom="2.3786088"
   inkscape:cx="132.18845"
   inkscape:cy="120.4808"
   inkscape:window-x="-8"
   inkscape:window-y="32"
   inkscape:window-maximized="1"
   inkscape:current-layer="_2904687718544"
   units="px" />
 <defs
   id="defs2038">
  <style
   type="text/css"
   id="style2036">
   <![CDATA[
    .str0 {stroke:#CCCCCC;stroke-width:25;stroke-linecap:round;stroke-linejoin:round}
    .fil0 {fill:none}
   ]]>
  </style>
 </defs>
 <g
   id="Слой_x0020_1"
   transform="translate(0,-25572.498)">
  <metadata
   id="CorelCorpID_0Corel-Layer" />
  
  
  
  
  
  
  
  <g
   id="_2904687718544">
   
   
   
   
   
   
   
   
   
   
   
   
   
   
  <g
   transform="matrix(0.68908158,0,0,0.68908158,-916.43967,14898.536)"
   style="clip-rule:evenodd;fill-rule:evenodd;image-rendering:optimizeQuality;shape-rendering:geometricPrecision;text-rendering:geometricPrecision"
   id="_2904687693136"><path
     inkscape:connector-curvature="0"
     class="fil0 str0"
     d="m 1711,17659 c 160,-231 503,-644 910,-901 406,-256 875,-356 1388,-250 513,107 1070,419 1414,785 343,366 475,785 503,1210 28,425 -47,857 -269,1207 -222,350 -591,619 -935,788 -344,169 -663,238 -1060,181 -397,-56 -872,-237 -1269,-534 -397,-297 -716,-710 -835,-1088 -119,-379 -38,-723 -10,-920 29,-197 4,-247 163,-478 z"
     id="path2058"
     style="fill:none;stroke:#cccccc;stroke-width:25;stroke-linecap:round;stroke-linejoin:round" /><path
     inkscape:connector-curvature="0"
     class="fil0 str0"
     d="m 4284,16593 c -25,65 -50,131 -106,158 -56,26 -144,14 -241,-11 -97,-25 -203,-63 -375,-19 -172,44 -410,169 -521,327 -111,158 -95,348 -12,397 83,48 233,-46 333,-144 100,-99 150,-202 195,-208 46,-6 86,84 197,136 111,52 293,64 412,105 118,40 175,109 126,176 -48,68 -201,133 -403,168 -202,34 -452,37 -660,78 -208,41 -374,119 -456,214 -83,95 -83,208 12,264 95,57 286,57 504,17 217,-39 461,-117 605,-81 143,36 187,186 154,282 -33,95 -142,136 -372,134 -230,-2 -580,-45 -800,-3 -221,42 -311,170 -283,330 28,159 175,350 322,459 147,110 294,138 436,185 142,47 280,112 369,213 89,100 130,234 206,331 77,97 190,156 288,131 99,-25 183,-134 203,-305 21,-170 -23,-401 -17,-633 6,-231 63,-463 166,-561 103,-99 253,-64 327,-92 73,-28 70,-119 31,-235 -39,-115 -114,-256 -85,-278 30,-22 165,75 305,163 141,87 288,165 397,126 110,-39 182,-195 226,-279 44,-83 59,-94 75,-105"
     id="path2060"
     style="fill:none;stroke:#cccccc;stroke-width:25;stroke-linecap:round;stroke-linejoin:round" /><path
     inkscape:connector-curvature="0"
     class="fil0 str0"
     d="m 2177,17363 c 28,27 116,74 125,151 9,76 -59,182 -36,253 24,70 139,105 236,53 97,-52 175,-189 178,-283 3,-94 -68,-144 -159,-172 -91,-28 -200,-34 -271,-34 -70,0 -101,6 -73,32 z"
     id="path2062"
     style="fill:none;stroke:#cccccc;stroke-width:25;stroke-linecap:round;stroke-linejoin:round" /></g></g>
  
  
  
  
 </g>
</svg>