<?xml version="1.0" encoding="UTF-8" standalone="no"?>
<!-- Creator: CorelDRAW X7 -->

<svg
   xmlns:dc="http://purl.org/dc/elements/1.1/"
   xmlns:cc="http://creativecommons.org/ns#"
   xmlns:rdf="http://www.w3.org/1999/02/22-rdf-syntax-ns#"
   xmlns:svg="http://www.w3.org/2000/svg"
   xmlns="http://www.w3.org/2000/svg"
   xmlns:sodipodi="http://sodipodi.sourceforge.net/DTD/sodipodi-0.dtd"
   xmlns:inkscape="http://www.inkscape.org/namespaces/inkscape"
   xml:space="preserve"
   width="198"
   height="145"
   version="1.1"
   style="clip-rule:evenodd;fill-rule:evenodd;image-rendering:optimizeQuality;shape-rendering:geometricPrecision;text-rendering:geometricPrecision"
   viewBox="0 0 5238.7474 3836.4588"
   id="svg2227"
   sodipodi:docname="v2.svg"
   inkscape:version="0.92.4 (5da689c313, 2019-01-14)"><metadata
   id="metadata2231"><rdf:RDF><cc:Work
       rdf:about=""><dc:format>image/svg+xml</dc:format><dc:type
         rdf:resource="http://purl.org/dc/dcmitype/StillImage" /><dc:title></dc:title></cc:Work></rdf:RDF></metadata><sodipodi:namedview
   pagecolor="#ffffff"
   bordercolor="#666666"
   borderopacity="1"
   objecttolerance="10"
   gridtolerance="10"
   guidetolerance="10"
   inkscape:pageopacity="0"
   inkscape:pageshadow="2"
   inkscape:window-width="1920"
   inkscape:window-height="1017"
   id="namedview2229"
   showgrid="false"
   inkscape:zoom="3.3638608"
   inkscape:cx="182.71523"
   inkscape:cy="95.822059"
   inkscape:window-x="-8"
   inkscape:window-y="32"
   inkscape:window-maximized="1"
   inkscape:current-layer="_2904687718544"
   units="px" />
 <defs
   id="defs2038">
  <style
   type="text/css"
   id="style2036">
   <![CDATA[
    .str0 {stroke:#CCCCCC;stroke-width:25;stroke-linecap:round;stroke-linejoin:round}
    .fil0 {fill:none}
   ]]>
  </style>
 </defs>
 <g
   id="Слой_x0020_1"
   transform="translate(0,-25863.536)">
  <metadata
   id="CorelCorpID_0Corel-Layer" />
  
  
  
  
  
  
  
  <g
   id="_2904687718544">
   
   
   
   
   
   
   
   
   
   
   
   
   
   
  <g
   transform="matrix(0.72152094,0,0,0.72152094,-5031.1323,19762.229)"
   style="clip-rule:evenodd;fill-rule:evenodd;image-rendering:optimizeQuality;shape-rendering:geometricPrecision;text-rendering:geometricPrecision"
   id="_2904687687376"><path
     inkscape:connector-curvature="0"
     class="fil0 str0"
     d="m 8709,10461 c 276,-28 834,-116 1203,-265 370,-148 551,-357 607,-525 55,-167 -14,-292 -214,-388 -200,-95 -530,-160 -841,-88 -312,72 -605,281 -771,508 -167,227 -208,473 -231,612 -23,139 -29,173 247,146 z"
     id="path2065"
     style="fill:none;stroke:#cccccc;stroke-width:25;stroke-linecap:round;stroke-linejoin:round" /><path
     inkscape:connector-curvature="0"
     class="fil0 str0"
     d="m 8466,10440 c -278,506 -556,1012 -755,1439 -199,427 -320,776 -369,1018 -49,241 -26,376 170,434 195,58 562,40 1248,-83 685,-124 1689,-351 2481,-749 793,-397 1374,-964 1801,-1450 428,-485 702,-890 853,-1150 151,-260 179,-376 -14,-451 -193,-74 -607,-107 -1122,-109 -516,-2 -1134,26 -1525,58 -390,33 -553,70 -629,88 -77,19 -68,19 -59,19"
     id="path2067"
     style="fill:none;stroke:#cccccc;stroke-width:25;stroke-linecap:round;stroke-linejoin:round" /><path
     inkscape:connector-curvature="0"
     class="fil0 str0"
     d="m 7601,12131 c 708,21 1415,42 2080,-168 666,-210 1288,-651 1753,-1039 465,-388 772,-723 960,-979 188,-256 259,-433 329,-610"
     id="path2069"
     style="fill:none;stroke:#cccccc;stroke-width:25;stroke-linecap:round;stroke-linejoin:round" /><path
     inkscape:connector-curvature="0"
     class="fil0 str0"
     d="m 8311,11326 c -84,32 -144,130 -125,190 18,61 116,84 199,51 84,-32 154,-120 135,-181 -18,-60 -125,-93 -209,-60 z"
     id="path2071"
     style="fill:none;stroke:#cccccc;stroke-width:25;stroke-linecap:round;stroke-linejoin:round" /><path
     inkscape:connector-curvature="0"
     class="fil0 str0"
     d="m 9787,10868 c -96,12 -170,91 -144,149 25,58 151,95 246,83 95,-11 160,-72 135,-130 -26,-58 -142,-114 -237,-102 z"
     id="path2073"
     style="fill:none;stroke:#cccccc;stroke-width:25;stroke-linecap:round;stroke-linejoin:round" /><path
     inkscape:connector-curvature="0"
     class="fil0 str0"
     d="m 11178,9757 c -102,17 -158,105 -137,179 21,75 119,135 221,119 102,-17 209,-109 188,-184 -21,-74 -169,-130 -272,-114 z"
     id="path2075"
     style="fill:none;stroke:#cccccc;stroke-width:25;stroke-linecap:round;stroke-linejoin:round" /></g></g>
  
  
  
  
 </g>
</svg>