<?xml version="1.0" encoding="UTF-8" standalone="no"?>
<!-- Creator: CorelDRAW X7 -->

<svg
   xmlns:dc="http://purl.org/dc/elements/1.1/"
   xmlns:cc="http://creativecommons.org/ns#"
   xmlns:rdf="http://www.w3.org/1999/02/22-rdf-syntax-ns#"
   xmlns:svg="http://www.w3.org/2000/svg"
   xmlns="http://www.w3.org/2000/svg"
   xmlns:sodipodi="http://sodipodi.sourceforge.net/DTD/sodipodi-0.dtd"
   xmlns:inkscape="http://www.inkscape.org/namespaces/inkscape"
   xml:space="preserve"
   width="123"
   height="156"
   version="1.1"
   style="clip-rule:evenodd;fill-rule:evenodd;image-rendering:optimizeQuality;shape-rendering:geometricPrecision;text-rendering:geometricPrecision"
   viewBox="0 0 3254.3749 4127.5001"
   id="svg2227"
   sodipodi:docname="v3.svg"
   inkscape:version="0.92.4 (5da689c313, 2019-01-14)"><metadata
   id="metadata2231"><rdf:RDF><cc:Work
       rdf:about=""><dc:format>image/svg+xml</dc:format><dc:type
         rdf:resource="http://purl.org/dc/dcmitype/StillImage" /><dc:title></dc:title></cc:Work></rdf:RDF></metadata><sodipodi:namedview
   pagecolor="#ffffff"
   bordercolor="#666666"
   borderopacity="1"
   objecttolerance="10"
   gridtolerance="10"
   guidetolerance="10"
   inkscape:pageopacity="0"
   inkscape:pageshadow="2"
   inkscape:window-width="1920"
   inkscape:window-height="1017"
   id="namedview2229"
   showgrid="false"
   inkscape:zoom="2.3786088"
   inkscape:cx="132.18845"
   inkscape:cy="120.4808"
   inkscape:window-x="-8"
   inkscape:window-y="32"
   inkscape:window-maximized="1"
   inkscape:current-layer="_2904687718544"
   units="px" />
 <defs
   id="defs2038">
  <style
   type="text/css"
   id="style2036">
   <![CDATA[
    .str0 {stroke:#CCCCCC;stroke-width:25;stroke-linecap:round;stroke-linejoin:round}
    .fil0 {fill:none}
   ]]>
  </style>
 </defs>
 <g
   id="Слой_x0020_1"
   transform="translate(0,-25572.498)">
  <metadata
   id="CorelCorpID_0Corel-Layer" />
  
  
  
  
  
  
  
  <g
   id="_2904687718544">
   <path
   class="fil0 str0"
   d="m 466.17648,27227.78 c 70.82527,-138.597 142.26109,-277.807 280.8588,-409.687 138.59773,-132.492 344.96792,-258.269 564.15992,-320.546 218.5813,-62.888 449.9846,-62.888 634.985,-31.749 185.0005,31.749 322.9877,94.026 444.4896,150.199 120.8914,55.56 225.2976,103.795 307.1129,119.058 81.205,15.265 140.4295,-2.441 176.4527,-2.441 36.0232,0 48.845,17.706 61.0562,35.413"
   id="path2131"
   inkscape:connector-curvature="0"
   style="fill:none;stroke:#cccccc;stroke-width:15.26406574;stroke-linecap:round;stroke-linejoin:round" />
   <path
   class="fil0 str0"
   d="m 3221.0349,27409.118 c -75.7097,75.098 -150.8089,150.807 -195.9906,237.508 -44.571,87.31 -59.2246,186.221 -83.647,304.671 -23.812,118.45 -58.0034,256.435 -114.7858,376.716 -56.1717,120.281 -135.5448,222.856 -258.268,329.704 -122.723,106.849 -290.0172,217.972 -453.0374,283.302 -163.6308,65.33 -323.5982,85.478 -455.4798,97.079 -131.8814,11.601 -235.6771,15.265 -310.7763,39.687 -74.4887,24.422 -119.6703,70.215 -164.8519,115.397"
   id="path2133"
   inkscape:connector-curvature="0"
   style="fill:none;stroke:#cccccc;stroke-width:15.26406574;stroke-linecap:round;stroke-linejoin:round" />
   <path
   class="fil0 str0"
   d="m 719.55996,28980.705 c 3.05281,-62.278 5.49507,-125.165 -19.538,-198.433 -24.4225,-73.877 -76.32033,-158.135 -144.09277,-286.354 -67.16189,-128.217 -149.58785,-300.396 -186.22161,-482.954 -37.24431,-181.948 -28.08587,-374.276 14.04294,-539.737 42.12882,-166.073 117.22803,-305.281 192.9378,-444.49"
   id="path2135"
   inkscape:connector-curvature="0"
   style="fill:none;stroke:#cccccc;stroke-width:15.26406574;stroke-linecap:round;stroke-linejoin:round" />
   <path
   class="fil0 str0"
   d="m 124.26142,27398.127 c 72.04638,-5.495 144.09278,-10.379 196.60116,-34.191 53.11895,-23.202 87.31045,-64.11 109.90126,-90.974 21.98026,-27.476 32.97039,-39.687 43.9605,-52.509"
   id="path2137"
   inkscape:connector-curvature="0"
   style="fill:none;stroke:#cccccc;stroke-width:15.26406574;stroke-linecap:round;stroke-linejoin:round" />
   <path
   class="fil0 str0"
   d="m 169.44306,27859.102 c -15.26407,-3.664 -30.52814,-7.937 -46.40276,-22.591 -16.4852,-15.264 -32.970384,-41.519 -45.792204,-84.868 -13.432374,-43.349 -23.201376,-104.406 -16.485194,-172.179 6.716193,-67.773 29.917568,-142.261 50.676698,-169.126 20.14856,-26.864 38.46545,-6.105 46.40276,36.024 7.93731,41.518 6.10563,104.406 0,185.001 -6.71619,81.203 -17.09575,179.504 14.04294,246.055 31.74926,66.552 105.01676,100.744 150.1984,137.377 44.57107,37.244 61.05627,76.321 76.9309,116.006"
   id="path2139"
   inkscape:connector-curvature="0"
   style="fill:none;stroke:#cccccc;stroke-width:15.26406574;stroke-linecap:round;stroke-linejoin:round" />
   <path
   class="fil0 str0"
   d="m 862.43166,27481.774 c 59.22457,68.383 118.44912,136.156 147.14554,191.717 29.3069,54.95 28.6964,97.08 27.4753,139.208"
   id="path2141"
   inkscape:connector-curvature="0"
   style="fill:none;stroke:#cccccc;stroke-width:15.26406574;stroke-linecap:round;stroke-linejoin:round" />
   <path
   class="fil0 str0"
   d="m 1234.8748,27036.674 c 68.9936,34.191 137.3765,68.993 206.9807,70.825 68.9937,1.831 139.2082,-28.696 174.6209,-45.181 35.4127,-16.486 36.6339,-19.538 37.2444,-21.98"
   id="path2143"
   inkscape:connector-curvature="0"
   style="fill:none;stroke:#cccccc;stroke-width:15.26406574;stroke-linecap:round;stroke-linejoin:round" />
   <path
   class="fil0 str0"
   d="m 896.01257,27476.889 c 43.96048,-6.106 122.11243,-19.537 191.71663,-84.868 68.9936,-65.329 128.8287,-183.168 153.8618,-253.383 25.6436,-70.825 15.2641,-94.027 -15.8747,-105.017 -31.7492,-11.6 -84.2576,-10.38 -158.1357,51.899 -73.2675,62.276 -167.90471,186.221 -210.03347,261.93 -42.73937,75.71 -34.19151,103.796 -24.42255,118.45 9.15845,15.264 18.92752,16.485 62.88799,10.989 z"
   id="path2145"
   inkscape:connector-curvature="0"
   style="fill:none;stroke:#cccccc;stroke-width:15.26406574;stroke-linecap:round;stroke-linejoin:round" />
   <path
   class="fil0 str0"
   d="m 2358.9205,27829.184 c -4.8845,53.73 -10.3795,107.46 4.2739,167.905 15.2641,61.056 50.0662,128.218 85.4789,195.38"
   id="path2147"
   inkscape:connector-curvature="0"
   style="fill:none;stroke:#cccccc;stroke-width:15.26406574;stroke-linecap:round;stroke-linejoin:round" />
   <path
   class="fil0 str0"
   d="m 1729.4305,28459.285 c 75.0991,0 150.1984,0 204.5385,17.706 53.7295,18.318 86.0893,53.729 103.1851,40.297 17.0958,-14.043 18.9274,-76.931 55.5612,-135.545 36.6337,-58.002 108.68,-111.732 172.1786,-148.367 63.4985,-36.023 119.6703,-56.17 153.2512,-52.508 34.1916,3.663 47.0133,30.528 45.7922,72.047 -0.6105,40.907 -15.264,96.469 -88.5316,142.871 -73.878,47.013 -206.3702,84.257 -339.4728,121.502"
   id="path2149"
   inkscape:connector-curvature="0"
   style="fill:none;stroke:#cccccc;stroke-width:15.26406574;stroke-linecap:round;stroke-linejoin:round" />
   <path
   class="fil0 str0"
   d="m 1179.9241,29195.013 c -10.3795,10.991 -42.1287,17.707 -90.3632,10.38 -48.845,-7.939 -114.17528,-30.528 -178.89484,-63.499 -64.7196,-32.971 -128.82872,-76.32 -161.79909,-111.123 -32.97038,-34.801 -34.19151,-59.834 -10.37957,-76.931 24.42251,-17.095 73.87805,-25.033 120.89144,-19.538 47.6238,5.496 93.41609,24.424 142.26106,61.057 48.845,36.634 100.1322,90.364 128.2181,119.669 27.4753,28.697 31.7493,32.36 34.1915,34.193 3.0529,2.442 4.274,2.442 10.3796,10.989 5.495,7.939 15.8746,23.813 5.495,34.803 z"
   id="path2151"
   inkscape:connector-curvature="0"
   style="fill:none;stroke:#cccccc;stroke-width:15.26406574;stroke-linecap:round;stroke-linejoin:round" />
   <path
   class="fil0 str0"
   d="m 2231.9235,28883.015 c 54.3401,7.327 108.6803,14.654 155.6936,23.201 47.6239,9.159 87.9209,20.15 144.7033,-6.716 56.1717,-26.864 128.8287,-90.973 183.1687,-145.313 53.7295,-54.341 89.1422,-99.522 106.8484,-131.272 17.0958,-31.749 16.4852,-50.676 10.9902,-85.479 -4.8845,-34.191 -13.4323,-84.867 -15.8746,-120.891 -2.4423,-36.022 1.2212,-58.003 5.495,-79.983"
   id="path2153"
   inkscape:connector-curvature="0"
   style="fill:none;stroke:#cccccc;stroke-width:15.26406574;stroke-linecap:round;stroke-linejoin:round" />
   <path
   class="fil0 str0"
   d="m 1609.1496,26449.924 c 53.7296,-24.423 107.4591,-48.235 148.3668,-78.152 40.9078,-29.307 68.9936,-64.72 119.6703,-70.826 51.2872,-6.716 125.1653,15.264 190.4955,34.803 65.3303,20.148 121.502,37.243 154.4723,68.992 32.9704,32.361 42.7394,78.153 59.2245,112.344 16.4852,33.581 39.6867,55.561 62.888,76.931"
   id="path2155"
   inkscape:connector-curvature="0"
   style="fill:none;stroke:#cccccc;stroke-width:15.26406574;stroke-linecap:round;stroke-linejoin:round" />
   <path
   class="fil0 str0"
   d="m 2912.0903,26750.32 c -37.2443,-7.326 -13.4323,163.021 29.307,296.123 42.7393,132.491 103.7956,227.739 159.9674,296.123 56.7823,68.993 108.6801,111.123 116.007,70.824 7.3267,-40.296 -30.5282,-163.629 -98.9113,-317.492 -68.9935,-153.861 -168.5153,-338.862 -206.3701,-345.578 z"
   id="path2157"
   inkscape:connector-curvature="0"
   style="fill:none;stroke:#cccccc;stroke-width:15.26406574;stroke-linecap:round;stroke-linejoin:round" />
  </g>
  
  
  
  
 </g>
</svg>