<?xml version="1.0" encoding="UTF-8" standalone="no"?>
<!-- Creator: CorelDRAW X7 -->

<svg
   xmlns:dc="http://purl.org/dc/elements/1.1/"
   xmlns:cc="http://creativecommons.org/ns#"
   xmlns:rdf="http://www.w3.org/1999/02/22-rdf-syntax-ns#"
   xmlns:svg="http://www.w3.org/2000/svg"
   xmlns="http://www.w3.org/2000/svg"
   xmlns:sodipodi="http://sodipodi.sourceforge.net/DTD/sodipodi-0.dtd"
   xmlns:inkscape="http://www.inkscape.org/namespaces/inkscape"
   xml:space="preserve"
   width="60"
   height="60"
   version="1.1"
   style="clip-rule:evenodd;fill-rule:evenodd;image-rendering:optimizeQuality;shape-rendering:geometricPrecision;text-rendering:geometricPrecision"
   viewBox="0 0 1587.5 1587.5"
   id="svg2227"
   sodipodi:docname="v4.svg"
   inkscape:version="0.92.4 (5da689c313, 2019-01-14)"><metadata
   id="metadata2231"><rdf:RDF><cc:Work
       rdf:about=""><dc:format>image/svg+xml</dc:format><dc:type
         rdf:resource="http://purl.org/dc/dcmitype/StillImage" /><dc:title></dc:title></cc:Work></rdf:RDF></metadata><sodipodi:namedview
   pagecolor="#ffffff"
   bordercolor="#666666"
   borderopacity="1"
   objecttolerance="10"
   gridtolerance="10"
   guidetolerance="10"
   inkscape:pageopacity="0"
   inkscape:pageshadow="2"
   inkscape:window-width="1920"
   inkscape:window-height="1017"
   id="namedview2229"
   showgrid="false"
   inkscape:zoom="9.5144352"
   inkscape:cx="42.116502"
   inkscape:cy="18.012305"
   inkscape:window-x="-8"
   inkscape:window-y="32"
   inkscape:window-maximized="1"
   inkscape:current-layer="_2904687718544"
   units="px" />
 <defs
   id="defs2038">
  <style
   type="text/css"
   id="style2036">
   <![CDATA[
    .str0 {stroke:#CCCCCC;stroke-width:25;stroke-linecap:round;stroke-linejoin:round}
    .fil0 {fill:none}
   ]]>
  </style>
 </defs>
 <g
   id="Слой_x0020_1"
   transform="translate(0,-28112.498)">
  <metadata
   id="CorelCorpID_0Corel-Layer" />
  
  
  
  
  
  
  
  <g
   id="_2904687718544">
   
   
   
   
   
   
   
   
   
   
   
   
   
   
  <g
   transform="matrix(0.32090247,0,0,0.32090247,-4934.6017,25270.924)"
   style="clip-rule:evenodd;fill-rule:evenodd;image-rendering:optimizeQuality;shape-rendering:geometricPrecision;text-rendering:geometricPrecision"
   id="_2904687699216"><path
     inkscape:connector-curvature="0"
     class="fil0 str0"
     d="m 16350,11307 c -4,-285 80,-605 274,-844 194,-240 498,-400 882,-476 384,-76 847,-68 1171,46 323,114 505,335 589,646 84,312 68,715 15,1145 -53,429 -144,885 -334,1228 -191,342 -479,570 -704,657 -224,88 -384,35 -555,-95 -171,-129 -353,-334 -547,-600 -194,-267 -399,-593 -548,-882 -148,-289 -239,-540 -243,-825 z"
     id="path2041"
     style="fill:none;stroke:#cccccc;stroke-width:25;stroke-linecap:round;stroke-linejoin:round" /><path
     inkscape:connector-curvature="0"
     class="fil0 str0"
     d="m 17088,11645 c -96,84 -73,266 34,403 106,137 296,228 433,201 137,-26 221,-171 221,-300 0,-129 -84,-243 -232,-308 -149,-64 -361,-80 -456,4 z"
     id="path2043"
     style="fill:none;stroke:#cccccc;stroke-width:25;stroke-linecap:round;stroke-linejoin:round" /><path
     inkscape:connector-curvature="0"
     class="fil0 str0"
     d="m 18566,11409 c -98,46 -220,137 -266,289 -45,152 -15,365 72,472 88,106 232,106 350,26 118,-80 209,-239 221,-391 11,-152 -57,-297 -130,-369 -72,-72 -148,-72 -247,-27 z"
     id="path2045"
     style="fill:none;stroke:#cccccc;stroke-width:25;stroke-linecap:round;stroke-linejoin:round" /><path
     inkscape:connector-curvature="0"
     class="fil0 str0"
     d="m 17471,12846 c 137,76 274,152 426,179 152,27 320,4 434,-34 114,-38 175,-91 235,-145"
     id="path2047"
     style="fill:none;stroke:#cccccc;stroke-width:25;stroke-linecap:round;stroke-linejoin:round" /><path
     inkscape:connector-curvature="0"
     class="fil0 str0"
     d="m 16426,10839 c -138,-152 -276,-304 -368,-445 -92,-140 -138,-270 -164,-385 -26,-116 -33,-217 -2,-217 30,0 98,101 170,224 71,124 147,268 240,348 93,79 203,94 313,109"
     id="path2049"
     style="fill:none;stroke:#cccccc;stroke-width:25;stroke-linecap:round;stroke-linejoin:round" /><path
     inkscape:connector-curvature="0"
     class="fil0 str0"
     d="m 19142,10387 c 158,-169 316,-338 414,-452 98,-115 136,-176 147,-160 11,15 -4,106 -30,212 -27,107 -65,229 -133,357 -68,129 -166,266 -264,402"
     id="path2051"
     style="fill:none;stroke:#cccccc;stroke-width:25;stroke-linecap:round;stroke-linejoin:round" /><path
     inkscape:connector-curvature="0"
     class="fil0 str0"
     d="m 19730,9771 c 121,57 266,49 334,-23 69,-72 61,-209 -26,-308 -88,-99 -255,-160 -373,-148 -118,11 -186,95 -171,197 15,103 114,225 236,282 z"
     id="path2053"
     style="fill:none;stroke:#cccccc;stroke-width:25;stroke-linecap:round;stroke-linejoin:round" /><path
     inkscape:connector-curvature="0"
     class="fil0 str0"
     d="m 15917,9782 c 125,-91 224,-190 197,-266 -26,-76 -178,-129 -327,-106 -148,22 -292,121 -342,239 -49,118 -4,255 95,281 99,27 251,-57 377,-148 z"
     id="path2055"
     style="fill:none;stroke:#cccccc;stroke-width:25;stroke-linecap:round;stroke-linejoin:round" /></g></g>
  
  
  
  
 </g>
</svg>