<?xml version="1.0" encoding="UTF-8" standalone="no"?>
<!-- Creator: CorelDRAW X7 -->

<svg
   xmlns:dc="http://purl.org/dc/elements/1.1/"
   xmlns:cc="http://creativecommons.org/ns#"
   xmlns:rdf="http://www.w3.org/1999/02/22-rdf-syntax-ns#"
   xmlns:svg="http://www.w3.org/2000/svg"
   xmlns="http://www.w3.org/2000/svg"
   xmlns:sodipodi="http://sodipodi.sourceforge.net/DTD/sodipodi-0.dtd"
   xmlns:inkscape="http://www.inkscape.org/namespaces/inkscape"
   xml:space="preserve"
   width="153"
   height="145"
   version="1.1"
   style="clip-rule:evenodd;fill-rule:evenodd;image-rendering:optimizeQuality;shape-rendering:geometricPrecision;text-rendering:geometricPrecision"
   viewBox="0 0 4048.1239 3836.4588"
   id="svg2227"
   sodipodi:docname="v5.svg"
   inkscape:version="0.92.4 (5da689c313, 2019-01-14)"><metadata
   id="metadata2231"><rdf:RDF><cc:Work
       rdf:about=""><dc:format>image/svg+xml</dc:format><dc:type
         rdf:resource="http://purl.org/dc/dcmitype/StillImage" /><dc:title></dc:title></cc:Work></rdf:RDF></metadata><sodipodi:namedview
   pagecolor="#ffffff"
   bordercolor="#666666"
   borderopacity="1"
   objecttolerance="10"
   gridtolerance="10"
   guidetolerance="10"
   inkscape:pageopacity="0"
   inkscape:pageshadow="2"
   inkscape:window-width="1920"
   inkscape:window-height="1017"
   id="namedview2229"
   showgrid="false"
   inkscape:zoom="3.3638608"
   inkscape:cx="182.71523"
   inkscape:cy="95.822059"
   inkscape:window-x="-8"
   inkscape:window-y="32"
   inkscape:window-maximized="1"
   inkscape:current-layer="_2904687718544"
   units="px" />
 <defs
   id="defs2038">
  <style
   type="text/css"
   id="style2036">
   <![CDATA[
    .str0 {stroke:#CCCCCC;stroke-width:25;stroke-linecap:round;stroke-linejoin:round}
    .fil0 {fill:none}
   ]]>
  </style>
 </defs>
 <g
   id="Слой_x0020_1"
   transform="translate(0,-25863.536)">
  <metadata
   id="CorelCorpID_0Corel-Layer" />
  
  
  
  
  
  
  
  <g
   id="_2904687718544">
   
   
   
   
   
   
   
   
   
   
   
   
   
   
  <g
   transform="matrix(0.56170567,0,0,0.56170567,-246.63259,13291.999)"
   style="clip-rule:evenodd;fill-rule:evenodd;image-rendering:optimizeQuality;shape-rendering:geometricPrecision;text-rendering:geometricPrecision"
   id="_2904687711248"><path
     inkscape:connector-curvature="0"
     class="fil0 str0"
     d="m 1701,25378 c 289,643 962,1885 1303,2503 341,617 349,608 548,487 198,-121 586,-354 776,-608 190,-255 182,-531 246,-842 65,-310 203,-656 509,-984 307,-327 781,-638 1101,-888 319,-251 483,-441 556,-604 74,-164 56,-303 -82,-354 -138,-52 -397,-18 -789,112 -393,129 -919,354 -1252,492 -332,138 -470,190 -677,168 -207,-22 -483,-116 -725,-220 -242,-104 -449,-216 -677,-250 -229,-35 -479,8 -639,64 -160,57 -229,126 -311,182 -82,56 -177,99 113,742 z"
     id="path2160"
     style="fill:none;stroke:#cccccc;stroke-width:25;stroke-linecap:round;stroke-linejoin:round" /><path
     inkscape:connector-curvature="0"
     class="fil0 str0"
     d="m 2685,24425 c 484,-271 969,-541 1418,-754 450,-213 864,-369 1119,-420 254,-52 349,0 362,86 13,86 -56,207 -233,367 -177,159 -462,358 -734,522 -271,164 -530,293 -702,382 -171,88 -255,135 -339,183"
     id="path2162"
     style="fill:none;stroke:#cccccc;stroke-width:25;stroke-linecap:round;stroke-linejoin:round" /><path
     inkscape:connector-curvature="0"
     class="fil0 str0"
     d="m 4722,26470 c 358,-210 716,-420 1076,-594 360,-175 722,-313 938,-338 216,-26 285,60 173,233 -113,172 -406,431 -755,655 -350,225 -756,415 -1041,559 -285,144 -449,242 -613,340"
     id="path2164"
     style="fill:none;stroke:#cccccc;stroke-width:25;stroke-linecap:round;stroke-linejoin:round" /><path
     inkscape:connector-curvature="0"
     class="fil0 str0"
     d="m 5348,23697 c 357,-105 713,-211 1063,-234 351,-23 696,38 890,210 194,173 238,458 169,708 -69,250 -251,466 -462,660 -212,194 -453,367 -647,497 -194,129 -341,216 -488,302"
     id="path2166"
     style="fill:none;stroke:#cccccc;stroke-width:25;stroke-linecap:round;stroke-linejoin:round" /><path
     inkscape:connector-curvature="0"
     class="fil0 str0"
     d="m 1978,25951 c -268,58 -536,116 -668,160 -132,44 -127,74 32,376 160,302 475,876 674,1163 198,287 280,287 381,196 101,-90 220,-271 340,-451"
     id="path2168"
     style="fill:none;stroke:#cccccc;stroke-width:25;stroke-linecap:round;stroke-linejoin:round" /><path
     inkscape:connector-curvature="0"
     class="fil0 str0"
     d="m 2407,27829 c 85,191 170,382 254,471 84,90 166,77 241,20 75,-56 144,-155 212,-255"
     id="path2170"
     style="fill:none;stroke:#cccccc;stroke-width:25;stroke-linecap:round;stroke-linejoin:round" /><path
     inkscape:connector-curvature="0"
     class="fil0 str0"
     d="m 1394,26092 c -69,-104 -138,-207 -205,-326 -67,-118 -131,-252 -150,-340 -18,-87 10,-128 121,-143 111,-15 305,-4 500,6"
     id="path2172"
     style="fill:none;stroke:#cccccc;stroke-width:25;stroke-linecap:round;stroke-linejoin:round" /><path
     inkscape:connector-curvature="0"
     class="fil0 str0"
     d="m 4352,24797 c -531,290 -1061,579 -1363,734 -303,155 -376,177 -492,164 -117,-13 -277,-60 -393,-65 -117,-4 -190,35 -263,74"
     id="path2174"
     style="fill:none;stroke:#cccccc;stroke-width:25;stroke-linecap:round;stroke-linejoin:round" /><path
     inkscape:connector-curvature="0"
     class="fil0 str0"
     d="m 2854,27602 c 102,-85 205,-170 258,-272 53,-103 58,-224 105,-356 48,-131 138,-274 502,-491 363,-218 1000,-511 1636,-804"
     id="path2176"
     style="fill:none;stroke:#cccccc;stroke-width:25;stroke-linecap:round;stroke-linejoin:round" /><path
     inkscape:connector-curvature="0"
     class="fil0 str0"
     d="m 1313,26435 c -193,0 -386,0 -472,50 -87,49 -66,148 70,414 136,265 387,697 539,920 151,223 203,238 256,211 54,-28 109,-98 159,-169 50,-71 96,-143 141,-216"
     id="path2178"
     style="fill:none;stroke:#cccccc;stroke-width:25;stroke-linecap:round;stroke-linejoin:round" /><path
     inkscape:connector-curvature="0"
     class="fil0 str0"
     d="m 954,26979 c -67,34 -134,69 -180,113 -45,44 -70,98 -63,142 7,45 46,79 100,84 54,5 123,-20 172,-43 49,-23 78,-45 107,-67"
     id="path2180"
     style="fill:none;stroke:#cccccc;stroke-width:25;stroke-linecap:round;stroke-linejoin:round" /><path
     inkscape:connector-curvature="0"
     class="fil0 str0"
     d="m 651,27493 c -51,28 -133,85 -154,144 -22,58 17,117 82,129 64,12 155,-24 207,-71 53,-48 67,-107 53,-147 -13,-41 -54,-62 -85,-73 -31,-11 -51,-11 -103,18 z"
     id="path2182"
     style="fill:none;stroke:#cccccc;stroke-width:25;stroke-linecap:round;stroke-linejoin:round" /><path
     inkscape:connector-curvature="0"
     class="fil0 str0"
     d="m 1268,27545 c -133,63 -265,125 -331,188 -66,62 -65,125 -27,158 39,34 114,38 193,15 79,-23 161,-74 208,-112 48,-38 61,-62 73,-87"
     id="path2184"
     style="fill:none;stroke:#cccccc;stroke-width:25;stroke-linecap:round;stroke-linejoin:round" /><path
     inkscape:connector-curvature="0"
     class="fil0 str0"
     d="m 5876,24335 c 76,-9 151,-18 220,7 69,25 132,83 163,160 32,76 32,171 20,236 -12,65 -36,99 -60,134"
     id="path2186"
     style="fill:none;stroke:#cccccc;stroke-width:25;stroke-linecap:round;stroke-linejoin:round" /></g></g>
  
  
  
  
 </g>
</svg>