<?xml version="1.0" encoding="UTF-8" standalone="no"?>
<!-- Creator: CorelDRAW X7 -->

<svg
   xmlns:dc="http://purl.org/dc/elements/1.1/"
   xmlns:cc="http://creativecommons.org/ns#"
   xmlns:rdf="http://www.w3.org/1999/02/22-rdf-syntax-ns#"
   xmlns:svg="http://www.w3.org/2000/svg"
   xmlns="http://www.w3.org/2000/svg"
   xmlns:sodipodi="http://sodipodi.sourceforge.net/DTD/sodipodi-0.dtd"
   xmlns:inkscape="http://www.inkscape.org/namespaces/inkscape"
   xml:space="preserve"
   width="123"
   height="156"
   version="1.1"
   style="clip-rule:evenodd;fill-rule:evenodd;image-rendering:optimizeQuality;shape-rendering:geometricPrecision;text-rendering:geometricPrecision"
   viewBox="0 0 3254.3749 4127.5001"
   id="svg2227"
   sodipodi:docname="v6.svg"
   inkscape:version="0.92.4 (5da689c313, 2019-01-14)"><metadata
   id="metadata2231"><rdf:RDF><cc:Work
       rdf:about=""><dc:format>image/svg+xml</dc:format><dc:type
         rdf:resource="http://purl.org/dc/dcmitype/StillImage" /><dc:title></dc:title></cc:Work></rdf:RDF></metadata><sodipodi:namedview
   pagecolor="#ffffff"
   bordercolor="#666666"
   borderopacity="1"
   objecttolerance="10"
   gridtolerance="10"
   guidetolerance="10"
   inkscape:pageopacity="0"
   inkscape:pageshadow="2"
   inkscape:window-width="1920"
   inkscape:window-height="1017"
   id="namedview2229"
   showgrid="false"
   inkscape:zoom="2.3786088"
   inkscape:cx="132.18845"
   inkscape:cy="120.4808"
   inkscape:window-x="-8"
   inkscape:window-y="32"
   inkscape:window-maximized="1"
   inkscape:current-layer="_2904687718544"
   units="px" />
 <defs
   id="defs2038">
  <style
   type="text/css"
   id="style2036">
   <![CDATA[
    .str0 {stroke:#CCCCCC;stroke-width:25;stroke-linecap:round;stroke-linejoin:round}
    .fil0 {fill:none}
   ]]>
  </style>
 </defs>
 <g
   id="Слой_x0020_1"
   transform="translate(0,-25572.498)">
  <metadata
   id="CorelCorpID_0Corel-Layer" />
  
  
  
  
  
  
  
  <g
   id="_2904687718544">
   
   
   
   
   
   
   
   
   
   
   
   
   
   
  <g
   transform="matrix(0.59521515,0,0,0.59521515,-4717.6347,17144.342)"
   style="clip-rule:evenodd;fill-rule:evenodd;image-rendering:optimizeQuality;shape-rendering:geometricPrecision;text-rendering:geometricPrecision"
   id="_2904687739536"><path
     inkscape:connector-curvature="0"
     class="fil0 str0"
     d="m 11133,16570 c 30,-179 118,-388 244,-561 127,-174 291,-312 501,-388 211,-77 466,-92 706,-12 240,79 463,253 592,450 130,197 165,417 152,623 -13,206 -75,397 -196,555 -120,159 -300,286 -482,362 -182,76 -367,103 -567,74 -200,-30 -415,-115 -571,-228 -155,-113 -252,-255 -316,-400 -63,-146 -92,-296 -63,-475 z"
     id="path2108"
     style="fill:none;stroke:#cccccc;stroke-width:25;stroke-linecap:round;stroke-linejoin:round" /><path
     inkscape:connector-curvature="0"
     class="fil0 str0"
     d="m 11807,15650 c 38,176 76,351 213,569 136,219 371,480 571,661 200,181 364,281 528,381"
     id="path2110"
     style="fill:none;stroke:#cccccc;stroke-width:25;stroke-linecap:round;stroke-linejoin:round" /><path
     inkscape:connector-curvature="0"
     class="fil0 str0"
     d="m 11488,15880 c 83,260 165,521 283,730 118,210 271,369 447,513 176,144 375,273 575,403"
     id="path2112"
     style="fill:none;stroke:#cccccc;stroke-width:25;stroke-linecap:round;stroke-linejoin:round" /><path
     inkscape:connector-curvature="0"
     class="fil0 str0"
     d="m 8379,17748 c -40,-40 -108,-78 -171,-86 -63,-9 -122,13 -159,42 -36,29 -51,64 -52,108 -1,44 13,97 46,138 34,42 89,71 143,83 54,13 109,9 152,-22 44,-30 76,-86 85,-134 10,-49 -3,-90 -44,-129 z"
     id="path2114"
     style="fill:none;stroke:#cccccc;stroke-width:25;stroke-linecap:round;stroke-linejoin:round" /><path
     inkscape:connector-curvature="0"
     class="fil0 str0"
     d="m 8342,17713 c 1087,-646 2173,-1292 3260,-1938"
     id="path2116"
     style="fill:none;stroke:#cccccc;stroke-width:25;stroke-linecap:round;stroke-linejoin:round" /><path
     inkscape:connector-curvature="0"
     class="fil0 str0"
     d="m 10205,19730 c -40,43 -46,103 -26,171 21,68 68,143 129,173 61,31 136,18 183,-17 47,-34 66,-90 76,-144 11,-55 12,-108 -18,-154 -30,-46 -92,-86 -160,-93 -69,-6 -144,20 -184,64 z"
     id="path2118"
     style="fill:none;stroke:#cccccc;stroke-width:25;stroke-linecap:round;stroke-linejoin:round" /><path
     inkscape:connector-curvature="0"
     class="fil0 str0"
     d="m 10514,19726 c 833,-786 1666,-1571 2499,-2357"
     id="path2120"
     style="fill:none;stroke:#cccccc;stroke-width:25;stroke-linecap:round;stroke-linejoin:round" /><path
     inkscape:connector-curvature="0"
     class="fil0 str0"
     d="m 9201,19453 c -58,22 -160,70 -192,139 -32,69 5,159 57,208 53,48 122,55 186,30 63,-26 120,-85 146,-142 26,-58 20,-113 -4,-155 -23,-41 -64,-67 -92,-83 -28,-15 -43,-19 -101,3 z"
     id="path2122"
     style="fill:none;stroke:#cccccc;stroke-width:25;stroke-linecap:round;stroke-linejoin:round" /><path
     inkscape:connector-curvature="0"
     class="fil0 str0"
     d="m 9367,19506 c 742,-669 1484,-1337 2226,-2005"
     id="path2124"
     style="fill:none;stroke:#cccccc;stroke-width:25;stroke-linecap:round;stroke-linejoin:round" /><path
     inkscape:connector-curvature="0"
     class="fil0 str0"
     d="m 8454,19331 c -30,29 -78,91 -92,154 -13,63 9,128 60,167 51,39 130,52 193,30 63,-22 110,-79 132,-127 23,-48 20,-86 -4,-125 -23,-39 -68,-79 -110,-99 -43,-20 -84,-20 -110,-22 -27,-2 -39,-6 -69,22 z"
     id="path2126"
     style="fill:none;stroke:#cccccc;stroke-width:25;stroke-linecap:round;stroke-linejoin:round" /><path
     inkscape:connector-curvature="0"
     class="fil0 str0"
     d="m 8684,19373 c 1077,-852 2154,-1705 3231,-2557"
     id="path2128"
     style="fill:none;stroke:#cccccc;stroke-width:25;stroke-linecap:round;stroke-linejoin:round" /></g></g>
  
  
  
  
 </g>
</svg>