<svg width="636" height="486" viewBox="0 0 636 486" fill="none" xmlns="http://www.w3.org/2000/svg">
<g clip-path="url(#clip0)">
<path d="M425.188 26.9496C425.415 23.7513 427.274 4.66615 430.675 4.59447C434.076 4.42279 437.411 24.2512 437.886 27.2553" stroke="white" stroke-width="0.75" stroke-miterlimit="10" stroke-linecap="round" stroke-linejoin="round"/>
<path d="M425.949 19.6555C429.547 19.9855 433.043 20.4146 436.641 20.7446" stroke="white" stroke-width="0.75" stroke-miterlimit="10" stroke-linecap="round" stroke-linejoin="round"/>
<path d="M453.264 5.98267C458.662 6.22763 463.027 10.4641 463.486 15.4681C463.939 21.0721 459.496 26.2353 453.492 26.6853" stroke="white" stroke-width="0.75" stroke-miterlimit="10" stroke-linecap="round" stroke-linejoin="round"/>
<path d="M453.159 18.5821C456.56 18.5104 459.86 18.5379 463.261 18.4662" stroke="white" stroke-width="0.75" stroke-miterlimit="10" stroke-linecap="round" stroke-linejoin="round"/>
<path d="M465.369 5.48328C469.87 5.32076 474.272 5.15741 478.773 4.99489" stroke="white" stroke-width="0.75" stroke-miterlimit="10" stroke-linecap="round" stroke-linejoin="round"/>
<path d="M471.867 5.73755C471.908 12.8381 472.048 20.0396 472.089 27.1401" stroke="white" stroke-width="0.75" stroke-miterlimit="10" stroke-linecap="round" stroke-linejoin="round"/>
<path d="M488.473 5.07584C484.871 5.34585 481.909 12.7214 482.858 18.8296C483.427 22.6344 485.883 27.8551 488.683 27.8784C492.483 27.91 497.461 18.5511 494.921 11.3297C493.844 8.52068 491.175 4.79833 488.473 5.07584Z" stroke="white" stroke-width="0.75" stroke-miterlimit="10" stroke-linecap="round" stroke-linejoin="round"/>
<path d="M516.095 26.5065C515.876 16.8044 515.994 2.60486 518.397 2.32485C520.9 1.94568 524.876 16.8793 527.198 26.199" stroke="white" stroke-width="0.75" stroke-miterlimit="10" stroke-linecap="round" stroke-linejoin="round"/>
<path d="M530.895 2.62891C531.83 10.437 532.764 18.345 533.699 26.1531C535.664 18.3692 537.63 10.4853 539.694 2.70219C540.532 10.2094 541.37 17.6167 542.308 25.1247" stroke="white" stroke-width="0.75" stroke-miterlimit="10" stroke-linecap="round" stroke-linejoin="round"/>
<path d="M547.99 3.27115C552.097 2.50532 555.472 5.43353 555.647 8.43509C555.728 10.7358 553.909 13.0208 551.202 13.8983C555.198 14.3316 557.873 17.3539 557.751 20.053C557.625 23.1521 553.797 26.5203 548.905 25.4795" stroke="white" stroke-width="0.75" stroke-miterlimit="10" stroke-linecap="round" stroke-linejoin="round"/>
<path d="M565.097 26.5144C565.265 18.3155 565.891 3.22021 568.393 3.04104C570.995 2.7627 574.464 18.4921 576.098 26.406" stroke="white" stroke-width="0.75" stroke-miterlimit="10" stroke-linecap="round" stroke-linejoin="round"/>
<path d="M565.372 17.5166C568.272 17.5408 571.272 17.5657 574.172 17.5899" stroke="white" stroke-width="0.75" stroke-miterlimit="10" stroke-linecap="round" stroke-linejoin="round"/>
<path d="M586.248 20.4905C597.498 38.5848 655.098 134.868 615.722 215.843C611.551 224.408 605.975 233.462 598.601 242.401C598.135 238.297 597.67 234.093 597.204 229.989" stroke="white" stroke-width="0.75" stroke-miterlimit="10" stroke-linecap="round" stroke-linejoin="round"/>
<path d="M611.927 239.212C607.518 240.275 603.01 241.238 598.601 242.301" stroke="white" stroke-width="0.75" stroke-miterlimit="10" stroke-linecap="round" stroke-linejoin="round"/>
</g>
<g clip-path="url(#clip1)">
<path d="M35.3999 10.5C39.8999 11.1 43.6999 13.8 44.7999 17.4C46.4999 22.6 42.6999 29.6 35.3999 31.4" stroke="white" stroke-width="0.75" stroke-miterlimit="10" stroke-linecap="round" stroke-linejoin="round"/>
<path d="M36.3 21.3C39.3 21 42.2001 20.8 45.2001 20.5" stroke="white" stroke-width="0.75" stroke-miterlimit="10" stroke-linecap="round" stroke-linejoin="round"/>
<path d="M48 10.6999C48.1 10.6999 55 9.59985 55.1 9.59985C55.2 9.59985 61.7 8.59985 61.8 8.59985" stroke="white" stroke-width="0.75" stroke-miterlimit="10" stroke-linecap="round" stroke-linejoin="round"/>
<path d="M55.5999 32.4C55.4999 24.8 55.3 17.3 55.2 9.69995" stroke="white" stroke-width="0.75" stroke-miterlimit="10" stroke-linecap="round" stroke-linejoin="round"/>
<path d="M70.9999 7.49999C64.8999 11.4 66.0999 26.2 72.1999 28.9C74.3999 29.9 76.9999 29.2 78.5999 28C84.5999 23.8 83.2999 9.89999 77.1999 7.09999C75.2999 6.19999 72.7999 6.39999 70.9999 7.49999Z" stroke="white" stroke-width="0.75" stroke-miterlimit="10" stroke-linecap="round" stroke-linejoin="round"/>
<path d="M110.6 30.0999C110.1 27.4999 106.1 6.79991 102.5 7.09991C99 7.29991 97.8 28.0999 97.7 30.7999" stroke="white" stroke-width="0.75" stroke-miterlimit="10" stroke-linecap="round" stroke-linejoin="round"/>
<path d="M98.3999 21.8998C101.8 21.6998 105.2 21.4998 108.7 21.2998" stroke="white" stroke-width="0.75" stroke-miterlimit="10" stroke-linecap="round" stroke-linejoin="round"/>
<path d="M115.9 6.3999C116.6 13.9999 117.3 21.5999 118 29.1999" stroke="white" stroke-width="0.75" stroke-miterlimit="10" stroke-linecap="round" stroke-linejoin="round"/>
<path d="M115.9 6.39999C119.3 5.69999 122.7 7.39999 124.2 10.3C125.5 12.9 125.1 16.1 123.3 18.4C121 21.1 117.7 21.1 117.3 21.1" stroke="white" stroke-width="0.75" stroke-miterlimit="10" stroke-linecap="round" stroke-linejoin="round"/>
<path d="M128.3 5.69995C131.8 5.69995 135.4 5.69995 138.9 5.69995" stroke="white" stroke-width="0.75" stroke-miterlimit="10" stroke-linecap="round" stroke-linejoin="round"/>
<path d="M133.6 5.69995C133.8 13.1 133.9 20.3999 134.1 27.7999" stroke="white" stroke-width="0.75" stroke-miterlimit="10" stroke-linecap="round" stroke-linejoin="round"/>
<path d="M144.7 27.9999C144.8 20.4999 144.9 12.9999 144.9 5.3999" stroke="white" stroke-width="0.75" stroke-miterlimit="10" stroke-linecap="round" stroke-linejoin="round"/>
<path d="M153.7 5.3999C150.8 5.3999 147.9 5.3999 145 5.3999" stroke="white" stroke-width="0.75" stroke-miterlimit="10" stroke-linecap="round" stroke-linejoin="round"/>
<path d="M154.8 19.5C151.5 19.5 148.3 19.5 145 19.5" stroke="white" stroke-width="0.75" stroke-miterlimit="10" stroke-linecap="round" stroke-linejoin="round"/>
<path d="M144.7 28C147.8 28 151 28 154.1 28" stroke="white" stroke-width="0.75" stroke-miterlimit="10" stroke-linecap="round" stroke-linejoin="round"/>
<path d="M147.5 1.9999C147.5 1.4999 147.6 0.899902 147.6 0.399902" stroke="white" stroke-width="0.75" stroke-miterlimit="10" stroke-linecap="round" stroke-linejoin="round"/>
<path d="M150.7 1.9999C150.7 1.4999 150.8 0.899902 150.8 0.399902" stroke="white" stroke-width="0.75" stroke-miterlimit="10" stroke-linecap="round" stroke-linejoin="round"/>
<path d="M162.5 28.0999C162.3 20.4999 162.2 12.9999 162 5.3999C164.6 10.4999 167.1 15.5999 169.7 20.7999C170.9 15.6999 172.1 10.5999 173.3 5.3999C174.2 12.9999 175 20.5999 175.9 28.2999" stroke="white" stroke-width="0.75" stroke-miterlimit="10" stroke-linecap="round" stroke-linejoin="round"/>
<path d="M23.8 21.5C7.30001 31.1 -1.79998 49.7 0.800016 68.5C3.50002 87.7 18 103.3 37.1 107.6C35.6 104.6 34 101.6 32.5 98.7" stroke="white" stroke-width="0.75" stroke-miterlimit="10" stroke-linecap="round" stroke-linejoin="round"/>
<path d="M27.6001 112.2C30.7001 110.7 33.9001 109.1 37.0001 107.6" stroke="white" stroke-width="0.75" stroke-miterlimit="10" stroke-linecap="round" stroke-linejoin="round"/>
</g>
<path d="M433.5 409.1H212.9V414.9H433.5V409.1Z" stroke="white" stroke-width="0.75" stroke-miterlimit="10" stroke-linecap="round" stroke-linejoin="round"/>
<path d="M212.7 409.1C218.4 408.2 227.4 406.1 236.8 400.2C239.2 398.7 244.7 395.1 249.1 390.3C262.7 375.4 261.8 354.1 261.4 348.1" stroke="white" stroke-width="0.75" stroke-miterlimit="10" stroke-linecap="round" stroke-linejoin="round"/>
<path d="M433.6 409.1C427.9 408.2 418.9 406.1 409.5 400.2C407.1 398.7 401.6 395.1 397.2 390.3C383.6 375.4 384.5 354.1 384.9 348.1" stroke="white" stroke-width="0.75" stroke-miterlimit="10" stroke-linecap="round" stroke-linejoin="round"/>
<path d="M504.2 348.2H126.5C120.3 348.2 115.3 343.2 115.3 337C115.3 335.8 115.3 213.5 115.3 213.4C115.3 213.3 115.3 208.2 115.3 208.1C115.3 207.7 115.3 194.6 115.3 194.3C115.3 193.6 115.3 74.2999 115.3 66.0999C115.3 65.3999 115.4 61.3999 118.6 58.1999C120.6 56.1999 123.4 54.8999 126.5 54.8999H519.4C525.6 54.8999 530.6 59.8999 530.6 66.0999V223.8" stroke="white" stroke-width="0.75" stroke-miterlimit="10" stroke-linecap="round" stroke-linejoin="round"/>
<path d="M530.7 291.6V321.2" stroke="white" stroke-width="0.75" stroke-miterlimit="10" stroke-linecap="round" stroke-linejoin="round"/>
<path d="M530.7 267V291.6" stroke="white" stroke-width="0.75" stroke-miterlimit="10" stroke-linecap="round" stroke-linejoin="round"/>
<path d="M530.7 256.7V267" stroke="white" stroke-width="0.75" stroke-miterlimit="10" stroke-linecap="round" stroke-linejoin="round"/>
<path d="M498.6 320.1H121.8V75.5H524.2V237.1" stroke="white" stroke-width="0.75" stroke-miterlimit="10" stroke-linecap="round" stroke-linejoin="round"/>
<path d="M524.2 241.9V316.5" stroke="white" stroke-width="0.75" stroke-miterlimit="10" stroke-linecap="round" stroke-linejoin="round"/>
<path d="M346.1 348.2C346.1 360.9 335.8 371.2 323.1 371.2C310.4 371.2 300.1 360.9 300.1 348.2" stroke="white" stroke-width="0.75" stroke-miterlimit="10" stroke-linecap="round" stroke-linejoin="round"/>
<path d="M343.5 348.5C343.5 359.1 334.3 367.7 323 367.7C311.7 367.7 302.5 359.1 302.5 348.5" stroke="white" stroke-width="0.75" stroke-miterlimit="10" stroke-linecap="round" stroke-linejoin="round"/>
<path d="M455.7 281V305.2H279.1V226.8H455.7V267.5V281Z" stroke="white" stroke-width="0.75" stroke-miterlimit="10" stroke-linecap="round" stroke-linejoin="round"/>
<path d="M278.9 226.8L275.1 224.4" stroke="white" stroke-width="0.75" stroke-miterlimit="10" stroke-linecap="round" stroke-linejoin="round"/>
<path d="M279.1 305.2L275.1 302.8V224.4H451.7L455.7 226.8" stroke="white" stroke-width="0.75" stroke-miterlimit="10" stroke-linecap="round" stroke-linejoin="round"/>
<path d="M102.3 384.2C119.8 386 132.2 390.6 132.2 396C132.2 402.9 111.6 408.6 86.2999 408.6C60.9999 408.6 40.3999 403 40.3999 396C40.3999 390.4 53.6999 385.7 72.0999 384.1" stroke="white" stroke-width="0.75" stroke-miterlimit="10" stroke-linecap="round" stroke-linejoin="round"/>
<path d="M132.2 410.4C132.2 417.3 111.6 423 86.2999 423C60.9999 423 40.3999 417.4 40.3999 410.4" stroke="white" stroke-width="0.75" stroke-miterlimit="10" stroke-linecap="round" stroke-linejoin="round"/>
<path d="M40.3999 395.9V410.4" stroke="white" stroke-width="0.75" stroke-miterlimit="10" stroke-linecap="round" stroke-linejoin="round"/>
<path d="M132.2 395.9V410.4" stroke="white" stroke-width="0.75" stroke-miterlimit="10" stroke-linecap="round" stroke-linejoin="round"/>
<path d="M77.3 422.9V482.1C77.3 483.8 78.7001 485.2 80.4001 485.2C82.1001 485.2 83.5 483.8 83.5 482.1V422.9" stroke="white" stroke-width="0.75" stroke-miterlimit="10" stroke-linecap="round" stroke-linejoin="round"/>
<path d="M51.8 418.7L44.1 467.4C43.8 469.1 45 470.7 46.7 471C48.4 471.3 50 470.1 50.3 468.4L57.9 420.3" stroke="white" stroke-width="0.75" stroke-miterlimit="10" stroke-linecap="round" stroke-linejoin="round"/>
<path d="M118.1 419.4L125.7 467.3C126 469 124.8 470.6 123.1 470.9C121.4 471.2 119.8 470 119.5 468.3L112 420.8" stroke="white" stroke-width="0.75" stroke-miterlimit="10" stroke-linecap="round" stroke-linejoin="round"/>
<path d="M442.8 277C446.3 280.7 448 282.6 449.3 283.4C450.9 284.4 454 285.1 460.1 286.5C465.3 287.7 466.3 287.8 466.5 287.4C466.7 286.9 465 285.8 461.2 282.3C459.4 282.2 456.6 281.8 455 279.7C453.8 278.1 453.8 276.3 453.8 275.6C453.8 272.6 453 268 449.8 260.8C449.8 263.3 449.7 265.7 449.7 268.2C448.8 266.9 447.6 265 446.3 262.5C443.6 257.3 442.7 253.4 442.4 253.5C442.1 253.6 442.7 257.3 443.7 261.2C445.2 266.9 446.9 270.2 446.6 270.4C446.3 270.6 444 267.1 442 263.2C439.1 257.5 438.1 253.6 437.8 253.7C437.5 253.8 438.2 258.3 440.1 263.3C442.2 268.7 444.9 272.2 444.8 272.3C444.5 272.5 435 257.4 434.2 257.8C433.8 258 435.7 262.3 437.7 265.7C440.3 270.4 442.9 273.6 442.8 273.6C442.6 273.8 433.7 262.1 432.9 262.6C432.5 262.9 434.5 266.4 436 268.8C436.7 269.7 438.4 272.2 442.8 277Z" stroke="white" stroke-width="0.75" stroke-miterlimit="10" stroke-linecap="round" stroke-linejoin="round"/>
<path d="M455.3 277.4C454.8 277.8 453.4 279.2 452.8 281.4C452.2 284 453.2 286 453.5 286.6C466.2 289.6 482 292.1 500.1 292.7C514 293.1 526.5 292.3 537.2 290.9C537 295.2 536.7 301.7 535.9 309.6C534.9 319.1 534.1 322.1 534.1 327.4C534.1 332.6 535 340.1 539 349.2C541.1 352.2 544.3 356.2 549.1 360C554.9 364.6 560.6 366.9 564.4 368.1C564.7 366.1 565 364.1 565.3 362C566.7 361.3 568.7 360.2 570.7 358.4C575.6 354 577.1 348.6 578.1 344.9C580.5 336.2 579.5 328.6 578.8 323.3C578.1 317.7 577.3 316.2 577.2 311.2C577.1 304.5 578.6 301.8 576.1 292.5C572.8 280.5 566.5 270.5 563.7 266.2C561.7 263.1 559.9 260.6 558.6 258.9C551.4 265 545.8 266.2 541.9 266.2C539.5 266.2 538.7 265.7 536.2 265.9C528.5 266.4 523.1 272.1 521.9 273.3C517.2 277.4 502.2 281.2 455.3 277.4Z" fill="white"/>
<path d="M528.9 382.5C529.6 382.4 530.6 382.2 531.7 381.7C532.6 381.3 533.2 380.8 533.7 380.4C533.6 380 533 379.5 533.3 379.2C534.4 378.9 534.8 379.1 535 379.2C535.3 379.5 535.1 380 534.9 381.5C534.8 382 534.7 382.7 534.7 383.5C534.6 385.3 534.7 385.9 534.1 386.5C534 386.6 533.9 386.7 533.7 386.8C532.8 387.3 532.5 387.6 531 388C530.5 388.1 530.2 388.1 530 388C529.5 387.8 529.6 386.5 529.6 385.7C529.6 384.9 529 384 528.9 382.5Z" fill="#49A6FF"/>
<path d="M510.5 400.9C511.1 400.9 514.4 400.7 516.2 398.1C516.7 397.4 517 396.7 517.2 396.1" stroke="white" stroke-width="0.75" stroke-miterlimit="10" stroke-linecap="round" stroke-linejoin="round"/>
<path d="M520.4 386.8C519.6 388 518.5 389.6 516.8 391.2C513.8 394 510.4 395.1 507 396.3C501.8 398 498.5 398 498.1 399.7C497.9 400.7 498.6 401.7 499.2 402.4" stroke="white" stroke-width="0.75" stroke-miterlimit="10" stroke-linecap="round" stroke-linejoin="round"/>
<path d="M533.5 402.8C535.4 402.5 537 402.1 538.1 401.7C537.8 395.3 537.9 391.2 538.3 388.5C538.4 387.5 538.7 385.4 537.5 384.5C536.7 383.9 535.6 384 534.9 384.1C534.8 384.6 534.6 385.5 534 386.3C533.4 387 532.6 387.3 531.9 387.7C531.2 388 530.5 388.1 530.1 388.2" stroke="white" stroke-width="0.75" stroke-miterlimit="10" stroke-linecap="round" stroke-linejoin="round"/>
<path d="M534.4 405C536.1 404.8 537.8 404.4 538.6 402.9C539.9 400.7 538.2 397.8 538 397.6" stroke="white" stroke-width="0.75" stroke-miterlimit="10" stroke-linecap="round" stroke-linejoin="round"/>
<path d="M533.5 397.5C534 396.8 534.4 396 534.8 391.4C535.1 388.2 535.1 387 536.1 386C536.7 385.4 537.5 385.2 538.1 385.1" stroke="white" stroke-width="0.75" stroke-miterlimit="10" stroke-linecap="round" stroke-linejoin="round"/>
<path d="M499.2 402.4C501.1 401.9 503 401.5 505 401" stroke="white" stroke-width="0.75" stroke-miterlimit="10" stroke-linecap="round" stroke-linejoin="round"/>
<path d="M518.4 388.9C518.4 387.6 518.1 386.9 518.5 386.5C518.7 386.3 519 386.1 519.8 386.1C519.9 386.4 520 386.7 520.2 387C522.2 387.7 523.8 387.7 524.8 387.6C525.8 387.5 528.8 387.2 529.2 385.7C529.4 385.1 529.1 384.5 528.8 384.1C530.4 383.9 530.9 384.2 531.1 384.4C531.6 385.2 529.7 386.7 530.2 388.4C530.3 388.9 530.6 389 530.6 389.5C530.6 390 530.4 390.6 529.7 391.4C528 393.2 525.3 393.9 525.1 394C522.6 394.6 520.2 394.4 518.5 394C518.4 393 518.3 392 518.2 391C518.3 390.5 518.4 389.8 518.4 388.9Z" fill="#49A6FF"/>
<path d="M509.4 324.8C509.5 325.5 509.8 326.4 510.4 327.3C511.2 328.6 512.1 329.4 512.8 329.9C518.2 344.7 523.7 356.3 528.2 364.6C531.6 370.9 535.5 377.6 542.9 380.3C544.6 380.9 548.5 382.3 552.7 380.8C558.3 378.8 562.2 372.5 562.7 364.7" stroke="white" stroke-width="0.75" stroke-miterlimit="10" stroke-linecap="round" stroke-linejoin="round"/>
<path d="M540.9 338.4C534 329.6 524.6 320.2 511.5 312.5C509.9 311.6 508.3 310.7 506.8 309.9C505.3 310 504.1 310.4 503.1 310.9C488.9 318.9 512.4 370.4 520.3 386.9C521 387.2 522.8 387.8 525.1 387.5C527.4 387.2 528.9 386.1 529.5 385.6C528.3 382.1 527.2 378.3 526.2 374.2C524.7 367.7 523.8 361.6 523.4 356.1" stroke="white" stroke-width="0.75" stroke-miterlimit="10" stroke-linecap="round" stroke-linejoin="round"/>
<path d="M528.4 382.6C529.2 382.6 530.7 382.5 532.2 381.6C532.8 381.2 533.2 380.9 533.5 380.5C532.2 378 530.9 375 529.9 371.4C529.3 369.3 528.9 367.4 528.7 365.6" stroke="white" stroke-width="0.75" stroke-miterlimit="10" stroke-linecap="round" stroke-linejoin="round"/>
<path d="M575.8 292.7C576.9 296.3 578.4 300.3 580.6 304.5C587.3 317.2 596.8 324.9 603 329C603 329.2 603.5 331.7 601.8 333.3C601.2 333.8 600.6 334.1 600.1 334.2C597.3 333 593.4 331.1 589.1 328.5C576.5 321 567 315.7 566.4 307.9C566.4 306.4 566.2 300.2 575.8 292.7Z" fill="white"/>
<path d="M600.7 328.6C602.3 328.8 605.8 329.6 609.1 332.4C610.8 333.9 611.9 335.6 612.6 336.8C617.5 343.4 619.8 346.8 619.5 347C619.3 347.2 616.6 344.4 611.4 338.5C614.8 348.9 616.3 354.2 616 354.3C615.7 354.4 613.6 349.7 609.8 340.1C612.3 351.2 613.4 356.8 613 356.9C612.6 357 610.7 351.8 607.5 341.2C609.4 352.7 609.7 355.8 609.6 355.8C609.3 355.9 606.6 349.1 606 344.7C606 344.3 605.7 342.7 604.6 341.1C604 340.3 603.3 339.3 602.4 339.3C600.3 339.2 598.9 344.8 598.3 344.6C597.8 344.5 598.2 341.4 598.9 338.6C599.4 336.5 600 334.8 600.5 333.7C600.8 333 601 331.9 601 330.5C600.8 329.7 600.8 329 600.7 328.6Z" stroke="white" stroke-width="0.75" stroke-miterlimit="10" stroke-linecap="round" stroke-linejoin="round"/>
<path d="M532.4 220.6C530.5 224.1 529.2 226.8 528.6 228C528.5 228.3 528.3 228.8 528.2 229.5C528.1 230.5 528.3 231.2 528.4 231.7C528.6 233.7 526.3 235.7 525.9 236C523.4 238.1 521.2 237.7 521 238.8C520.8 239.9 522.8 241.3 524.3 241.8C525.1 242.1 525.9 242.2 526.4 242.2" stroke="white" stroke-width="0.75" stroke-miterlimit="10" stroke-linecap="round" stroke-linejoin="round"/>
<path d="M524.7 242.3C524.6 244.6 525.1 246.3 525.5 247.5C526.2 249.5 526.9 250 527.6 252.2C528.4 254.6 527.8 255.2 528.5 255.9C530 257.4 533.8 256.5 536.4 255.8C538.4 255.3 541.4 254.3 544.7 252.3" stroke="white" stroke-width="0.75" stroke-miterlimit="10" stroke-linecap="round" stroke-linejoin="round"/>
<path d="M528.6 249.2C528.8 249.2 529.8 249.2 530.7 248.3C531.4 247.5 531.4 246.7 531.5 246.4" stroke="white" stroke-width="0.75" stroke-miterlimit="10" stroke-linecap="round" stroke-linejoin="round"/>
<path d="M533.7 232.4C533 232.1 531 233.3 530.8 235.1C530.6 236.5 531.5 238.1 532.2 238.1C533.5 238.1 534.8 232.9 533.7 232.4Z" fill="white"/>
<path d="M530 228.4C530.7 228.2 532.3 227.9 534.2 228.5C535.8 229 536.9 230 537.4 230.6" stroke="white" stroke-width="0.75" stroke-miterlimit="10" stroke-linecap="round" stroke-linejoin="round"/>
<path d="M540.8 266.7C541.3 265.7 542.1 263.9 542.2 261.7C542.3 259.4 541.8 257.7 541.5 256.8C541.2 255.8 540.8 255 540.5 254.5" stroke="white" stroke-width="0.75" stroke-miterlimit="10" stroke-linecap="round" stroke-linejoin="round"/>
<path d="M558.6 261.8C557.2 260.7 556.3 259.6 555.7 258.8C555.2 258.2 553.2 255.4 552.5 251.1C552.4 250.3 552.3 249.7 552.3 249.2" stroke="white" stroke-width="0.75" stroke-miterlimit="10" stroke-linecap="round" stroke-linejoin="round"/>
<path d="M551.4 242.2C549.2 244.4 549.1 245.8 549.4 246.5C549.9 247.8 551.5 247.8 552.4 249.7C552.9 250.8 552.6 251.2 553 253C553.3 254.3 553.8 255.4 554.1 256.1C554.1 253.9 554.7 253.1 555.3 252.7C556 252.3 556.5 252.7 558 252.6C558.2 252.6 560.2 252.4 561.7 251.5C563.1 250.6 562.7 249.8 564.3 247.5C566.1 244.7 567.2 245 567.5 243.4C567.9 241.4 566.2 240.8 566.6 238.5C567 236.6 568.4 236.3 568.2 234.7C568 233 566.2 232.2 566.5 231.8C566.8 231.4 569.4 232 570.9 233.7C572.6 235.8 571.9 238.6 572.1 238.6C572.4 238.6 573.5 236.2 572.4 234.1C571.2 231.7 568 231 568.2 230.5C568.3 230.1 570.5 230.6 574.9 231.3C579.1 232 579.4 231.9 579.4 231.8C579.5 231.5 577.1 230.5 574.7 229.8C571.1 228.8 568.9 229 568.8 228.5C568.7 228 571 227.2 573.5 227.1C576.8 227 579.1 228.3 579.2 228C579.3 227.7 577.2 226 574.2 225.2C572.3 224.7 571.1 224.8 571 224.5C570.8 223.8 575.8 223.4 579.6 220C581 218.8 582.8 216.6 582.1 215.5C581.5 214.5 579.6 215.4 576.8 214C575.4 213.3 575.3 212.8 573.9 212.4C573.4 212.2 571.7 211.7 570.3 212.3C567.8 213.2 567.2 216.6 566.8 219.2C566.7 220.1 566.6 220.8 566.6 221.3C565.6 220.3 564.1 218.7 562.3 216.7C556.6 210.4 555.9 208.6 553.2 207.8C553 207.7 553.1 207.8 545 208.2C542.2 208.3 541.2 208.4 540 209C538.2 210 538.5 211.1 536.5 212.3C534.3 213.6 533.2 212.9 532.1 214.1C530.8 215.6 531.3 218 531.4 218.3C531.6 219.2 532 219.8 532.3 220.2C533.1 220.1 534.2 219.9 535.7 219.9C539.3 219.8 542.3 219.7 544.4 221.4C546.1 222.8 546.6 225 546.8 225.7C547.3 227.8 546.7 229 547.8 230C548.8 231 550.1 230.7 550.4 231.5C550.7 232.3 549.2 232.8 548.8 234.4C548.4 235.9 549.1 237.4 549.5 237.4C549.8 237.4 549.7 236.2 550.6 234.7C550.9 234.3 552.2 232 554.5 232.1C555.5 232.1 556.7 232.6 557.4 233.5C558.4 234.8 557.7 236.4 557.3 237.5C556.5 239.5 554.9 240.5 554.4 240.8C553.2 241.7 552.1 242 551.4 242.2Z" fill="white"/>
<path d="M551.3 239.5C552.6 238.7 553.7 238 553.5 237.6C553.3 237.3 552 237.7 551.8 237.3C551.6 237 552.2 236.3 554.4 234.6" stroke="white" stroke-width="0.75" stroke-miterlimit="10" stroke-linecap="round" stroke-linejoin="round"/>
<path d="M580.3 326C579.4 323.2 578 318.7 576.8 313.2C574.5 302.3 575 297.3 572.8 287.2C572 283.6 570.7 278.5 568.3 272.4" stroke="black" stroke-width="0.75" stroke-miterlimit="10"/>
<path d="M494.7 407.9C495.7 408.3 497.3 409 499.4 409.4C507.1 410.8 509.7 406.5 517.7 407.3C521.6 407.6 522.7 408.8 527 408.5C529.8 408.3 532.1 407.7 533.6 407.2C533.3 400.8 533.4 396.7 533.8 394C533.9 393 534.2 390.9 533 390C532.2 389.4 531.1 389.5 530.4 389.6C529.9 390.6 529 392.1 527.4 393.2C525.1 394.7 522.8 394.7 521.4 394.7C520 394.7 518.9 394.5 518.1 394.3C518.2 392.9 518.2 391.3 517.6 391C516.7 390.7 515.5 394 512.4 396.9C509.4 399.7 506 400.8 502.6 402C497.4 403.7 494.1 403.7 493.7 405.4C493.4 406.2 494.1 407.2 494.7 407.9Z" stroke="white" stroke-width="0.75" stroke-miterlimit="10" stroke-linecap="round" stroke-linejoin="round"/>
<path d="M493.6 405.2C493.5 405.8 493.6 406.6 493.9 407.4C495.7 411.4 503.4 411.2 504.8 411.2C507.2 411.1 512.2 411 514.5 408.4C514.8 408 515.5 407.2 516.4 407.1C517.3 407.1 517.7 407.9 519.4 408.6C519.7 408.7 520.1 408.9 521.2 409.2C524.9 410.2 526.7 410.7 528.5 410.5C530.5 410.4 533 410.2 534.1 408.3C535.4 406.1 533.7 403.2 533.5 403" stroke="white" stroke-width="0.75" stroke-miterlimit="10" stroke-linecap="round" stroke-linejoin="round"/>
<path d="M517.7 407.2C519.4 405.6 520.8 405.2 521.9 405C523.7 404.8 524.6 405.5 526.3 404.9C527.9 404.4 528.8 403.2 529 402.9C529.5 402.2 529.9 401.4 530.3 396.8C530.6 393.6 530.6 392.4 531.6 391.4C532.2 390.8 533 390.6 533.6 390.5" stroke="white" stroke-width="0.75" stroke-miterlimit="10" stroke-linecap="round" stroke-linejoin="round"/>
<path d="M494.7 407.9C496.7 407 498.4 406.7 499.8 406.6C502.7 406.4 503.4 407.2 505.6 406.6C508.1 405.9 508.8 404.4 510.3 404.7C511.6 404.9 512.5 406.3 513.1 407.4" stroke="white" stroke-width="0.75" stroke-miterlimit="10" stroke-linecap="round" stroke-linejoin="round"/>
<path d="M509 311.1C509.1 310.9 509.4 310.5 509.9 310.2C511 309.6 512.1 310 512.3 310.1C518.6 312.9 526.2 317.1 533.7 323.7C536.1 325.8 538.2 327.9 540.1 330" stroke="white" stroke-width="0.75" stroke-miterlimit="10" stroke-linecap="round" stroke-linejoin="round"/>
<path d="M588.3 413.4H455.7V484.9H588.3V413.4Z" stroke="white" stroke-width="0.75" stroke-miterlimit="10" stroke-linecap="round" stroke-linejoin="round"/>
<path d="M455.7 440.1H400.7V477.2H455.7V440.1Z" stroke="white" stroke-width="0.75" stroke-miterlimit="10" stroke-linecap="round" stroke-linejoin="round"/>
<path d="M498.1 401C488.2 401 478.2 401 468.3 401C464.1 405.1 459.9 409.3 455.7 413.4" stroke="white" stroke-width="0.75" stroke-miterlimit="10" stroke-linecap="round" stroke-linejoin="round"/>
<path d="M588.3 413.4L568.4 401C558.6 401 548.8 401 539 400.9" stroke="white" stroke-width="0.75" stroke-miterlimit="10" stroke-linecap="round" stroke-linejoin="round"/>
<path d="M455.7 427.7H413.3L400.7 440.1" stroke="white" stroke-width="0.75" stroke-miterlimit="10" stroke-linecap="round" stroke-linejoin="round"/>
<path d="M436.7 477.2V440.1L442.2 427.7" stroke="white" stroke-width="0.75" stroke-miterlimit="10" stroke-linecap="round" stroke-linejoin="round"/>
<path d="M441.5 477.2V440.1L447 427.7" stroke="white" stroke-width="0.75" stroke-miterlimit="10" stroke-linecap="round" stroke-linejoin="round"/>
<path d="M517.7 485V413.5C517.5 411.4 517.3 409.4 517 407.3" stroke="white" stroke-width="0.75" stroke-miterlimit="10" stroke-linecap="round" stroke-linejoin="round"/>
<path d="M522.6 485V413.5C522.4 412.2 522.2 410.9 522 409.5" stroke="white" stroke-width="0.75" stroke-miterlimit="10" stroke-linecap="round" stroke-linejoin="round"/>
<path d="M167.5 148.2C166.4 145.7 164.2 144.5 163.5 144.2C162.8 144.6 161.5 145.3 160 146.2C159.4 146.5 158.6 147 157.6 147.5C152.5 150.3 126 167.3 107.1 169.3C104.1 169.6 100.4 169.6 96.7 167.8C94.1 166.5 92.4 164.6 90.8 162.7C87 158.4 86.4 155.8 84.6 153.4C82.4 150.5 77.9 147.5 67.6 147.5C64 154.5 61.7 160.8 60.3 165.7C56.3 179.5 56.1 191 56.3 197.1C56.3 197.5 56.3 197.8 56.3 198.1C57 215.8 57.2 224.7 56 230.8C55 235.7 54 237.2 54.7 240.4C55.7 244.9 58.9 248 61.6 250C62.4 252.2 63.1 254.4 63.9 256.6C69.9 256.8 80.3 256.3 91.6 251C97.7 248.1 102.4 244.7 105.8 241.8C105.4 239.7 104.9 237.6 104.5 235.5C105.7 232.4 107.2 227.7 107.1 222C107 215.7 105.2 211.6 102.5 203.8C102.3 203.3 102.2 202.9 102 202.4C101.7 201.6 101.4 200.7 101.2 199.9C102.3 199.1 103.5 198.3 104.6 197.5C116.1 189.3 127.4 181 138.3 172.7C129.6 177.6 120.8 182.5 112.1 187.4C121.3 184 131.8 177.5 156.8 160C161.4 156.8 165.2 154.1 168 152.1C168.2 151.2 168.1 149.8 167.5 148.2Z" fill="white"/>
<path d="M160.7 149.3C161.8 147 162.9 144.7 164.2 142.3C166.1 138.8 168 135.5 169.9 132.5C170 133.5 170.1 135 169.7 136.8C169.3 138.6 168.7 139.2 169 139.7C169.7 140.7 174.1 139.5 177.3 136.8C179.6 134.9 181.1 132.3 181.6 131.6C182.9 129.4 183.6 127.6 184 127.7C184.4 127.8 184.4 129.5 184.3 130C184.2 131.9 183.6 133.4 183.3 134C181.7 137.5 178.5 140.2 177.5 141" stroke="white" stroke-width="0.75" stroke-miterlimit="10" stroke-linecap="round" stroke-linejoin="round"/>
<path d="M184.2 131.2C184.5 130.9 185.5 129.8 185.9 130C186 130.1 186.2 130.2 186.1 131.4C185.8 133.1 185.7 134.2 185.3 135.3C185.3 135.3 185 136.2 184.6 136.9C183 139.8 179.6 142.5 178.9 143" stroke="white" stroke-width="0.75" stroke-miterlimit="10" stroke-linecap="round" stroke-linejoin="round"/>
<path d="M185.8 133C185.9 132.9 186.7 132 187.2 132.3C187.4 132.4 187.5 132.7 187.5 133.2C187.6 136.4 185.6 139.4 185.6 139.4C184.8 140.7 183.2 142.7 180.5 144.4" stroke="white" stroke-width="0.75" stroke-miterlimit="10" stroke-linecap="round" stroke-linejoin="round"/>
<path d="M164.2 152.5C164.8 152 165.8 151.4 167.1 151.2C167.9 151.1 168.4 151.1 168.8 151.2C172.6 151.5 176.3 149.9 177.3 149.4C178.5 148.7 179.4 147.9 179.4 147.9C180.4 147.1 180.9 146.4 181.7 145.8C182.4 145.3 183 145 183.4 144.8C186 143.5 190.2 141.5 190 141C189.9 140.6 187.8 140.9 186.4 141.3C184.2 141.9 182.7 143 181.7 143.7" stroke="white" stroke-width="0.75" stroke-miterlimit="10" stroke-linecap="round" stroke-linejoin="round"/>
<path d="M86.9999 375.6C87.1999 376.7 88.2999 377.6 89.4999 377.3C88.6999 377.7 87.6 378.7 86 379C83.1 379.5 82.1999 377.9 80.0999 378.6C78.9999 379 78.1999 379.9 76.7999 379.7C76.3999 379.7 76.0999 379.6 75.8999 379.5C76.0999 378.8 76.1999 378 76.2999 377.3C76.4999 376.3 76.5999 375.7 76.6999 374.9C76.7999 374.2 76.8999 373.2 76.8999 372C77.7999 372.5 79.8 373.1 82.5 373C85.2 372.9 87.2 371.5 88 371C88.1 371.6 88.1999 372.9 88.2999 373.5C87.2999 373.9 86.8999 374.8 86.9999 375.6Z" fill="#49A6FF"/>
<path d="M118.4 393.4C119.2 391.8 120.1 389.5 119.2 388.5C118.4 387.6 116.9 388.6 113.1 388.4C112.8 388.4 108 388.2 104.8 386.2C103.8 385.5 103 385 103 385C102.1 384.3 101.6 383.8 100.6 383C100.3 382.8 100.1 382.6 99.8002 382.4C99.8002 382.4 98.8002 381.6 97.6002 380.8C96.5002 380.1 94.3002 378.7 91.2002 376.9" stroke="white" stroke-width="0.75" stroke-miterlimit="10" stroke-linecap="round" stroke-linejoin="round"/>
<path d="M75.7002 377.4C75.5002 377.5 75.1002 377.8 74.7002 378C73.8002 378.6 73.1002 379.1 72.8002 379.4C72.2002 380.1 72.5002 381.2 73.0002 382.6" stroke="white" stroke-width="0.75" stroke-miterlimit="10" stroke-linecap="round" stroke-linejoin="round"/>
<path d="M75.5001 377.5C74.9001 376.8 73.4001 378 71.7001 377.3C70.2001 376.7 70.0001 375.3 69.1001 375.4C68.0001 375.5 67.1001 377.4 67.7001 378C68.0001 378.3 68.8001 378 70.6001 378.1C71.5001 378.2 71.6001 378.3 72.1001 378.3C72.8001 378.4 74.0001 378.3 75.5001 377.5Z" stroke="white" stroke-width="0.75" stroke-miterlimit="10" stroke-linecap="round" stroke-linejoin="round"/>
<path d="M91.2002 376.9C90.8002 376.7 90.3002 376.3 90.2002 375.9C90.1002 375.5 90.4002 375.3 90.6002 374.9C91.1002 373.9 90.8002 372.6 90.3002 372.3C89.4002 371.9 86.7002 373.8 87.1002 375.7C87.4002 377 89.0002 377.5 89.2002 377.5" stroke="white" stroke-width="0.75" stroke-miterlimit="10" stroke-linecap="round" stroke-linejoin="round"/>
<path d="M89 377.3C93.1 379.7 95.4 381.9 96.7 383.6C97.3 384.3 98.4 385.8 100.2 386.1C101.4 386.3 102.5 385.8 103.2 385.5" stroke="white" stroke-width="0.75" stroke-miterlimit="10" stroke-linecap="round" stroke-linejoin="round"/>
<path d="M86.7001 378.8C86.7001 378.8 85.6001 379.8 85.9001 381.1C86.2001 382.2 87.3 383 88.6 382.9C87.8 383.3 86.4 383.9 84.6 384.2C81.5 384.7 80.7001 383.5 78.4001 384.3C77.2001 384.7 76.3 385.7 74.8 385.5C74.4 385.5 74.1 385.3 73.8 385.3C74.1 383.7 74.4001 382 74.7001 380.3C75.1001 377.2 75.3001 374.4 75.4001 371.8C75.8001 372.1 76.4001 372.5 77.2001 372.7C79.1001 373.4 80.9001 373.1 83.2001 372.7C84.2001 372.5 85 372.4 85.5 372.2C85.5 373.3 85.6001 374.6 85.9001 375.9C86.2001 377 86.4001 377.9 86.7001 378.8Z" fill="#49A6FF"/>
<path d="M531.1 344.4C536.6 348.2 542.2 351.9 547.7 355.7C548.7 355.7 550.2 355.8 552 356.3C553 356.6 556.1 357.5 556 358.3C555.9 359.4 550.4 360.8 546.1 360.1C536.7 358.5 532 346.7 531.1 344.4Z" stroke="white" stroke-width="0.75" stroke-miterlimit="10" stroke-linecap="round" stroke-linejoin="round"/>
<path d="M543.6 341.2L540.5 327.1" stroke="black" stroke-width="0.75" stroke-miterlimit="10"/>
<path d="M64.2 248.4C66.1 252.4 68.8 258.4 71.2 265.8C78.6 288 79.0999 306.5 79.2999 320.6C79.4999 331.7 79 346.7 76 364.4C74.4 364.1 72.8 363.8 71.2 363.5C72.4 364.9 73.7 366.3 74.9 367.7C73.1 367.8 71.4 367.8 69.6 367.9C71.1 368.9 72.7 370 74.2 371C75.2 371.6 78.2 373.2 82.2 372.9C85.8 372.6 88.2 370.9 89.2 370.1C87.9 369.4 86.5 368.7 85.2 368.1C87.1 367 89 365.9 90.9 364.8C89.2 364 87.4 363.2 85.7 362.4C86.2 360.9 86.9 358.5 87.7 355.6C90 347.2 97.5 319.4 99.2 268.4C99.8 248.8 99.0999 243.1 94.7999 240.2C85.2999 233.8 66.7 246.6 64.2 248.4Z" stroke="white" stroke-width="0.75" stroke-miterlimit="10" stroke-linecap="round" stroke-linejoin="round"/>
<path d="M84.5 263.3C84.1 261.4 83.4 259.3 82.6 257C81.1 253 79.4 249.7 77.8 247.1" stroke="white" stroke-width="0.75" stroke-miterlimit="10" stroke-linecap="round" stroke-linejoin="round"/>
<path d="M129.9 180C122.5 184.4 113 188.5 101.6 189.8C100.3 190 98.9001 190.1 97.6001 190.1C98.9001 192.7 100.1 195.5 101.3 198.4C101.8 199.7 102.4 201 102.8 202.2" stroke="black" stroke-width="0.75" stroke-miterlimit="10" stroke-linecap="round" stroke-linejoin="round"/>
<path d="M98.6001 216.8C98.9001 219.1 99.0001 223.8 96.7001 228.9C95.3001 232 93.5001 234.2 92.1001 235.6" stroke="black" stroke-width="0.75" stroke-miterlimit="10" stroke-linecap="round" stroke-linejoin="round"/>
<path d="M87.2 369.2C89.1 368.7 91 368.3 92.9 367.8C92.2 367.3 91.6 366.8 90.9 366.3C92.1 365.2 93.2 364.2 94.4 363.1C92.4 362.5 90.4 361.9 88.5 361.3C89.7 357.6 90.8 353.8 91.9 349.8C102 312.7 102.4 277.6 98.7 247.2" stroke="white" stroke-width="0.75" stroke-miterlimit="10" stroke-linecap="round" stroke-linejoin="round"/>
<path d="M74.4999 382.6C74.2999 382.7 73.8999 383 73.4999 383.2C72.5999 383.8 71.8999 384.3 71.5999 384.6C70.4999 385.9 72.3999 388.3 72.6999 391.8C72.7999 393 72.7999 394.6 72.1999 396.6C72.3999 397.1 72.7999 397.6 73.1999 398.1C73.1999 398.1 73.9999 399 74.9999 399.7C76.9999 401.1 84.9999 399.3 90.3999 399.2C96.3999 399.2 97.2999 401.2 105.4 401.2C107.1 401.2 109.6 401.2 112.4 400.1C114.8 399.1 116.5 397.8 117.5 396.8C118.2 395.6 118.8 394.2 118.2 393.3C117.6 392.4 116 392.9 111.7 392.9C106.6 392.9 104.4 391.9 103.4 391.4C102.6 391 102 390.5 101.6 390.2C100.7 389.5 100.2 389 99.1999 388.2C98.2999 387.5 97.5999 386.9 96.1999 386C95.0999 385.3 92.8999 383.9 89.7999 382.1" stroke="white" stroke-width="0.75" stroke-miterlimit="10" stroke-linecap="round" stroke-linejoin="round"/>
<path d="M90.0999 382.1C89.6999 381.9 89.1999 381.5 89.0999 381.1C88.9999 380.7 89.2999 380.5 89.4999 380.1C89.9999 379.1 89.6999 377.8 89.1999 377.5C88.4999 377.2 85.5999 379.2 85.9999 380.9C86.2999 382.2 88.4999 382.5 88.3999 383.2C88.2999 383.9 85.9999 384.1 84.6999 384.3C81.0999 384.7 80.2999 383.9 77.8999 384.5C76.1999 384.9 75.7999 385.5 74.9999 385.6C74.7999 385.6 74.5999 385.7 74.3999 385.6C73.7999 385.2 74.8999 383.5 74.2999 382.8C73.6999 382.1 72.1999 383.3 70.4999 382.6C68.9999 382 68.7999 380.6 67.8999 380.7C66.7999 380.8 65.8999 382.7 66.4999 383.3C66.7999 383.6 67.5999 383.3 69.3999 383.4C70.2999 383.5 70.3999 383.6 70.8999 383.6C71.6999 383.6 72.8999 383.5 74.2999 382.8" stroke="white" stroke-width="0.75" stroke-miterlimit="10" stroke-linecap="round" stroke-linejoin="round"/>
<path d="M87.8999 382.5C91.9999 384.9 94.2999 387.1 95.5999 388.8C96.1999 389.5 97.2999 391 99.0999 391.3C100.3 391.5 101.4 391 102.1 390.7" stroke="white" stroke-width="0.75" stroke-miterlimit="10" stroke-linecap="round" stroke-linejoin="round"/>
<path d="M118.6 394.4C118.7 395.4 118.6 396.9 117.9 398.3C115.6 402.7 108.4 402.8 105.3 402.9C101.5 403 98.3001 402.2 96.8001 401.9C94.2001 401.3 94.4001 401 92.8001 400.7C87.2001 399.6 84.5001 402.8 77.4001 402.4C75.0001 402.2 73.7001 401.8 72.9001 400.7C71.8001 399.3 72.1001 397.5 72.2001 396.7" stroke="white" stroke-width="0.75" stroke-miterlimit="10" stroke-linecap="round" stroke-linejoin="round"/>
<path d="M76.8999 395.3C79.2999 392 81.1999 391.3 82.5999 391.3C85.3999 391.3 86.4999 394.3 90.0999 395C92.6999 395.5 95.1999 394.5 96.8999 393.7" stroke="white" stroke-width="0.75" stroke-miterlimit="10" stroke-linecap="round" stroke-linejoin="round"/>
<path d="M78 144.6C80.1 146 82 146.9 83.4 147.3C90 149.6 94.9 148 95.4 147.4C95.7 147 95.7 146.8 95.9 145.8C96.1 144.8 96.9 142.9 98.3 139.2C98.5 138.7 98.8 137.8 99.1 136.8C100.2 136.6 101.7 136.2 101.8 135.5C101.9 135 101.4 134.7 101 134.2C99.7 132.8 99.8 130.8 99.9 128C100.1 124.8 100.6 125.2 100.6 122.8C100.6 121.4 100.7 117 97.6 113.8C97.2 113.4 96.8 113 96.5 112.8" stroke="white" stroke-width="0.75" stroke-miterlimit="10" stroke-linecap="round" stroke-linejoin="round"/>
<path d="M97.3999 131.7C97.3999 131.6 97.4999 129.1 97.4999 128.9C97.4999 128.7 97.5999 125.6 97.5999 125.4C97.3999 124.8 96.8999 124 96.0999 123.2C94.9999 122.1 93.7999 121.6 93.1999 121.4C92.5999 124.7 91.9999 128.1 91.3999 131.4C91.8999 131.7 92.8999 132.1 94.0999 132.2C95.5999 132.3 96.7999 131.9 97.3999 131.7Z" stroke="white" stroke-width="0.75" stroke-miterlimit="10" stroke-linecap="round" stroke-linejoin="round"/>
<path d="M94.7 126.4C94.3 128.4 95 130.2 95.3 130.2C95.8 130.1 96 124.6 95.5 124.6C95.3 124.6 94.9 125.8 94.7 126.4Z" fill="#1D1D1B" stroke="white" stroke-width="0.75" stroke-miterlimit="10" stroke-linecap="round" stroke-linejoin="round"/>
<path d="M96.1 141.1C94.9 141.2 93.8 140.8 93.3 140C93 139.5 93 139 93 138.7" stroke="white" stroke-width="0.75" stroke-miterlimit="10" stroke-linecap="round" stroke-linejoin="round"/>
<path d="M83.9999 130.6C83.2999 130.3 80.9999 129.3 80.2999 126.9C79.6999 124.9 79.8999 121.9 81.4999 121.2C82.9999 120.6 84.7999 122.3 85.0999 122.5" stroke="white" stroke-width="0.75" stroke-miterlimit="10" stroke-linecap="round" stroke-linejoin="round"/>
<path d="M83.9 126.6C83.7 126.5 83.4 126.3 83.4 126C83.4 125.5 84.1 125.2 84.2 124.7C84.4 123.8 82.9 122.7 82.2 123.1C81.7 123.4 81.6 124.4 81.9 125.5" stroke="white" stroke-width="0.75" stroke-miterlimit="10" stroke-linecap="round" stroke-linejoin="round"/>
<path d="M82.0001 129.5C81.7001 129.8 81.2001 130.2 80.8001 130.8C80.4001 131.5 80.5001 131.7 80.1001 132.2C79.8001 132.7 79.6001 132.7 78.0001 133.8C76.9001 134.6 76.8001 134.8 76.7001 134.9C76.3001 135.6 76.7001 136.1 76.5001 136.9C76.3001 137.6 75.8001 137.8 75.1001 138.4C73.3001 140 73.0001 141.8 72.6001 141.7C72.3001 141.6 72.3001 140.5 72.8001 139.7C73.1001 139.1 73.6001 139 73.5001 138.7C73.5001 138.2 72.5001 138.3 71.9001 137.5C71.3001 136.7 71.8001 136.1 71.2001 135.2C70.7001 134.6 70.4001 134.8 69.9001 134.1C69.5001 133.5 69.5001 133.3 69.1001 132.5C68.9001 132.1 68.6001 131.6 68.0001 131C67.9001 130.8 66.5001 129.2 64.9001 126.9C62.5001 123.5 62.1001 119.8 61.9001 117.9C61.7001 116.4 61.5001 114.6 62.0001 112.3C62.5001 110.1 63.3001 108.5 64.0001 107.4C63.8001 107.2 63.5001 107.1 63.3001 106.9C64.2001 106.6 65.1001 106.2 66.1001 105.9C66.7001 104.8 67.4001 103.7 68.0001 102.6C67.9001 103.2 67.8001 103.9 67.7001 104.5C69.2001 103.8 71.2001 103 73.6001 102.4C78.5001 101 82.3001 100.9 86.2001 100.8C93.4001 100.6 99.5001 101.4 99.4001 102.8C99.4001 103.2 98.9001 103.7 99.1001 104.2C99.4001 104.8 100.6 104.5 101.1 105.1C101.4 105.6 101 106 101.2 106.5C101.7 108.1 106.2 107.5 106.1 108.1C106.1 108.4 104.4 108.5 104 109.4C103.6 110.3 105.2 111.2 104.8 112.1C104.5 112.8 103.4 112.6 102.7 113.5C102 114.5 102.8 115.5 102.4 115.8C101.9 116.2 100.6 114.7 98.7001 114C95.4001 112.9 91.6001 114.7 91.2001 115C86.5001 117.4 85.3001 122.1 85.2001 122.5C85.0001 122.2 84.5001 121.7 83.7001 121.4C83.4001 121.3 82.4001 120.9 81.7001 121.2C80.0001 121.8 79.5001 125.6 81.1001 128.1C81.3001 128.8 81.7001 129.2 82.0001 129.5Z" fill="white"/>
<path d="M98.5 123.2C98.2 122.6 97.5 121.6 96.1 120.9C95.3 120.5 94.6 120.3 94 120.2" stroke="white" stroke-width="0.75" stroke-miterlimit="10" stroke-linecap="round" stroke-linejoin="round"/>
<path d="M99.9001 127.7C99.1001 127.3 98.4001 127 97.6001 126.6" stroke="white" stroke-width="0.75" stroke-miterlimit="10" stroke-linecap="round" stroke-linejoin="round"/>
<path d="M93.5999 121.3C90.6999 121.6 87.7999 121.9 84.8999 122.3" stroke="white" stroke-width="0.75" stroke-miterlimit="10" stroke-linecap="round" stroke-linejoin="round"/>
<path d="M84.3001 158.7C83.2001 157.3 83.1001 156.2 83.2001 155.4C83.3001 153.9 84.3001 153.3 85.2001 151C85.6001 149.9 85.9001 148.9 86.0001 148.3" stroke="white" stroke-width="0.75" stroke-miterlimit="10" stroke-linecap="round" stroke-linejoin="round"/>
<path d="M70 150.6C71.3 149 74.6 144.5 73.6 139.2C73.5 138.4 73.2 137.6 72.9 136.9" stroke="white" stroke-width="0.75" stroke-miterlimit="10" stroke-linecap="round" stroke-linejoin="round"/>
<path d="M606.7 330.7C607.5 328.7 608.2 326.7 609 324.7L634.7 338.8L618 383L592.3 369C596 359.2 599.7 349.5 603.3 339.7" stroke="white" stroke-width="0.75" stroke-miterlimit="10" stroke-linecap="round" stroke-linejoin="round"/>
<path d="M604.8 329.8C605.4 328.4 605.9 326.9 606.5 325.5" stroke="white" stroke-width="0.75" stroke-miterlimit="10" stroke-linecap="round" stroke-linejoin="round"/>
<path d="M615.5 383.8C606.9 379.1 598.4 374.4 589.8 369.7C593.5 359.8 597.2 349.9 601 340" stroke="white" stroke-width="0.75" stroke-miterlimit="10" stroke-linecap="round" stroke-linejoin="round"/>
<path d="M606.5 325.5L609 324.7" stroke="white" stroke-width="0.75" stroke-miterlimit="10" stroke-linecap="round" stroke-linejoin="round"/>
<path d="M592.3 369L589.8 369.8" stroke="white" stroke-width="0.75" stroke-miterlimit="10" stroke-linecap="round" stroke-linejoin="round"/>
<path d="M618 383L615.5 383.8" stroke="white" stroke-width="0.75" stroke-miterlimit="10" stroke-linecap="round" stroke-linejoin="round"/>
<path d="M508.4 327.8C508.8 328.3 509.7 329 510.9 329.5C511.6 329.8 512.3 329.9 512.8 329.9" stroke="white" stroke-width="0.75" stroke-miterlimit="10" stroke-linecap="round" stroke-linejoin="round"/>
<path d="M165.2 140.4L142.8 126.3" stroke="white" stroke-width="0.75" stroke-miterlimit="10" stroke-linecap="round" stroke-linejoin="round"/>
<path d="M195.7 111.4L184.4 129.4" stroke="white" stroke-width="0.75" stroke-miterlimit="10" stroke-linecap="round" stroke-linejoin="round"/>
<path d="M166.4 138.3L142.8 123.5L164.4 89L195.6 108.6C191.4 115.3 187.2 122 183 128.7" stroke="white" stroke-width="0.75" stroke-miterlimit="10" stroke-linecap="round" stroke-linejoin="round"/>
<path d="M142.8 123.5V126.3" stroke="white" stroke-width="0.75" stroke-miterlimit="10" stroke-linecap="round" stroke-linejoin="round"/>
<path d="M195.7 108.6V111.4" stroke="white" stroke-width="0.75" stroke-miterlimit="10" stroke-linecap="round" stroke-linejoin="round"/>
<path d="M263.7 226.8H179.6V302.9H263.7V226.8Z" stroke="white" stroke-width="0.75" stroke-miterlimit="10" stroke-linecap="round" stroke-linejoin="round"/>
<path d="M358.7 158.7H274.6V213.5H358.7V158.7Z" stroke="white" stroke-width="0.75" stroke-miterlimit="10" stroke-linecap="round" stroke-linejoin="round"/>
<path d="M453.8 158.7H369.7V213.5H453.8V158.7Z" stroke="white" stroke-width="0.75" stroke-miterlimit="10" stroke-linecap="round" stroke-linejoin="round"/>
<path d="M530.4 230.6L528.6 238.5L534.7 240.7L536.3 234.2L536.7 232.3L530.4 230.6Z" stroke="white" stroke-width="0.75" stroke-miterlimit="10" stroke-linecap="round" stroke-linejoin="round"/>
<path d="M551.3 233L536.7 232.3" stroke="white" stroke-width="0.75" stroke-miterlimit="10" stroke-linecap="round" stroke-linejoin="round"/>
<line x1="179.999" y1="94.625" x2="453.999" y2="93.6213" stroke="white" stroke-width="0.75"/>
<line x1="180.375" y1="95" x2="180.375" y2="99" stroke="white" stroke-width="0.75"/>
<line x1="187" y1="136.625" x2="454" y2="136.625" stroke="white" stroke-width="0.75"/>
<line x1="453.625" y1="137" x2="453.625" y2="94" stroke="white" stroke-width="0.75"/>
<defs>
<clipPath id="clip0">
<rect width="205.9" height="240.1" fill="white" transform="translate(425.003 1.14697) rotate(0.477123)"/>
</clipPath>
<clipPath id="clip1">
<rect width="176.2" height="112.5" fill="white"/>
</clipPath>
</defs>
</svg>
