<svg width="417" height="531" viewBox="0 0 417 531" fill="none" xmlns="http://www.w3.org/2000/svg">
<path d="M216 405.8C267.3 407.6 305.8 415.3 305.8 424.5C305.8 435.1 254.9 443.6 192.1 443.6C129.3 443.6 78.3999 435 78.3999 424.5C78.3999 414 129.3 405.4 192.1 405.4C192.5 405.4 193 405.4 193.4 405.4" stroke="white" stroke-width="0.75" stroke-miterlimit="10" stroke-linecap="round" stroke-linejoin="round"/>
<path d="M305.8 468.5C305.8 479.1 254.9 487.6 192.1 487.6C130.5 487.6 80.4 479.4 78.5 469.1" stroke="white" stroke-width="0.75" stroke-miterlimit="10" stroke-linecap="round" stroke-linejoin="round"/>
<path d="M324.7 508.3C324.7 520.6 265.5 530.5 192.5 530.5C120.9 530.5 62.5003 520.9 60.3003 509" stroke="white" stroke-width="0.75" stroke-miterlimit="10" stroke-linecap="round" stroke-linejoin="round"/>
<path d="M78.5 424.5V468.5" stroke="white" stroke-width="0.75" stroke-miterlimit="10" stroke-linecap="round" stroke-linejoin="round"/>
<path d="M305.8 424.5V468.5" stroke="white" stroke-width="0.75" stroke-miterlimit="10" stroke-linecap="round" stroke-linejoin="round"/>
<path d="M78.5001 459.3C73.5001 461 67.4001 463.9 63.7001 469.2C61.1001 472.9 60.5001 476.4 60.3001 490.7C60.2001 495.9 60.2001 502 60.3001 508.8" stroke="white" stroke-width="0.75" stroke-miterlimit="10" stroke-linecap="round" stroke-linejoin="round"/>
<path d="M306.3 459.3C311.3 461 317.4 463.9 321.1 469.2C323.7 472.9 324.3 476.4 324.5 490.7C324.6 495.9 324.6 502 324.5 508.8" stroke="white" stroke-width="0.75" stroke-miterlimit="10" stroke-linecap="round" stroke-linejoin="round"/>
<path d="M246 239.3C245.2 228 244.8 216.6 243.6 205.3C242.1 190.7 241.4 183.4 241.9 181C246 163.1 265 160.8 281.8 141.6C288.6 133.9 296.9 121.4 301.3 101.2C300.6 100.6 299.6 99.7001 298.1 99.1001C296.5 98.4001 295 98.2001 294.1 98.1001C291.8 103.3 289.5 107.1 288.1 109.3C270.9 136.5 242 148.5 224 156.1C221.2 157.3 218.9 158.2 217.7 158.6C217.6 159 216.3 162.6 212.6 163.7C209.6 164.6 206.2 163.6 204 161.1C201.8 162.2 199.8 162.7 198.4 163C194.6 163.8 193.6 163.2 193.3 163C192.3 162.3 192 161 191.9 160.3C167.9 154.9 143.9 149.5 119.9 144.1C119.6 144.3 117.8 145.2 117.3 147.5C116.7 149.7 117.8 151.4 118 151.7C119.1 152.2 120.9 153 123.1 153.9C167.5 173.1 192.3 178.2 194.3 191.2C194.6 193 194.5 195.1 194.3 198.8C194 204.5 193.8 210.1 191.6 216.2C189.8 221.2 186.1 227.8 183.9 231.8C183.2 233.1 181.7 235.9 182.3 239.3C182.6 241.1 183.4 242.5 184 243.4C184.6 242.9 185.1 242.4 185.7 241.9C193.4 244.7 199.8 246.1 204.1 246.8C210.4 247.9 213.4 247.8 219.4 249C226.5 250.5 232 252.7 235.4 254.3C234.7 255.7 234 257 233.3 258.4C235.6 258.6 240.2 258.6 243.4 255.6C246.9 252 246.5 246.5 246 239.3Z" fill="white"/>
<path d="M167.101 361C167.501 361.1 168.201 361.4 168.901 361.9C170.001 362.6 170.501 363.5 170.801 363.8C171.501 364.7 172.701 366.1 174.801 367.9C175.101 368.9 175.501 370.4 175.301 372.2C174.601 377.1 170.001 378.2 165.501 383.3C161.301 388 161.601 391 159.401 395C159.201 395.4 158.301 396.9 156.901 398.5C155.701 399.9 153.301 402.1 149.501 403.6C149.401 403.6 149.201 403.5 148.901 403.4C148.901 403.4 148.501 403.3 148.201 403.1C147.501 402.7 146.601 402.2 146.001 401C145.901 400.8 145.701 400.4 145.601 399.9C147.501 394.5 149.401 389 151.301 383.6C151.301 383.5 151.401 383.2 151.301 382.9C151.201 382.4 151.101 382.1 151.001 382.1C150.801 381.7 151.201 378.4 153.301 368" stroke="white" stroke-width="0.75" stroke-miterlimit="10" stroke-linecap="round" stroke-linejoin="round"/>
<path d="M153.8 356.3C155 358.4 155.6 360.3 155.9 361.6C156.2 362.8 156.3 363.5 156.2 364.6C156 366.8 154.8 367.7 155.2 368.3C155.9 369.4 159.9 367.9 160.9 367.5C163.1 366.7 164.7 366.1 165.9 364.4C166.9 363.1 167.2 361.6 167.3 360.8C166.5 359.9 165.5 358.5 164.8 356.6C163.9 354.4 163.7 352.5 163.7 351.2C163 352.2 161.1 354.9 157.5 355.9C156 356.3 154.7 356.4 153.8 356.3Z" fill="#FFE4BD"/>
<path d="M153.401 368C153.501 367.8 153.501 367.4 153.401 367C153.301 366.5 153.101 366.3 153.101 366.1C153.101 365.3 155.401 364.3 155.901 364.9C156.501 365.6 154.601 367.4 155.201 368.4C156.301 370.3 165.901 366.4 166.501 363.3C166.601 363.1 167.001 361 167.001 361C167.301 360.8 167.601 360.6 168.101 360.5C168.201 360.5 169.101 360.2 169.601 360.3C170.701 360.5 171.101 362.3 172.101 364.2C172.601 365.2 173.401 366.6 174.801 368" stroke="white" stroke-width="0.75" stroke-miterlimit="10" stroke-linecap="round" stroke-linejoin="round"/>
<path d="M188.4 239.5C182.6 244.1 143.6 275.8 145.1 322.7C145.4 333.4 147.8 342.9 150.9 350.9C150.5 351.4 150.2 352 149.8 352.5C150.6 352.6 151.3 352.7 152.1 352.8C151.7 353.7 151.2 354.5 150.8 355.4C151.5 355.3 152.2 355.2 152.9 355C153.1 355.5 153.3 356 153.5 356.5C157.1 356.6 158.9 355.5 160 354.5C160.5 354 161.3 353.1 162.8 351.8C163.6 351.1 164.4 350.6 164.9 350.3C164.3 349.6 163.7 348.9 163.1 348.2C163.5 347.3 163.9 346.4 164.3 345.5C163.5 345.6 162.7 345.7 161.9 345.8C162.1 345 162.2 344.1 162.4 343.3C161.7 343.3 161 343.2 160.4 343.2C159.9 341.4 159.4 339 159 336.1C159 336.1 158.2 330.2 158.9 324.2C161 307.1 172.9 294.5 183.3 283.4C185.2 281.3 186.9 279.7 187.8 278.8" stroke="white" stroke-width="0.75" stroke-miterlimit="10" stroke-linecap="round" stroke-linejoin="round"/>
<path d="M155 366.9C154.1 371.5 154.3 374.6 154.6 376.8C154.8 377.8 155.1 379.6 154.2 381C153.4 382.1 152.2 382.6 151.3 382.7" stroke="white" stroke-width="0.75" stroke-miterlimit="10" stroke-linecap="round" stroke-linejoin="round"/>
<path d="M148.9 403.4C149.4 403.6 150.1 403.8 150.9 403.8C151.9 403.8 153 403.4 155 401.8C158.1 399.2 159.8 396.3 160.3 395.3C161.3 393.5 161.7 392.5 162.1 391.1C162.5 389.7 162.7 388.9 163.1 387.9C163.4 387.2 163.7 386.7 163.9 386.4C164.3 385.7 165.8 383.5 168.4 382.4C169.5 381.9 169.4 382.3 170.4 381.8C172.5 380.9 173.6 379.1 174.9 377.1C175.9 375.4 176.4 374.6 176.6 373.6C177 371 175.4 368.9 174.9 368.2" stroke="white" stroke-width="0.75" stroke-miterlimit="10" stroke-linecap="round" stroke-linejoin="round"/>
<path d="M206.9 390C207.3 390.1 208 390.3 208.8 390.7C209.9 391.3 210.6 392 210.9 392.3C211.7 393.1 213 394.4 215.4 395.8C215.9 396.8 216.4 398.2 216.4 400C216.3 404.9 211.9 406.6 208 412.3C204.4 417.5 205.1 420.5 203.3 424.7C203.1 425.2 202.4 426.7 201.2 428.5C200.1 430 198.1 432.5 194.5 434.6C194.4 434.6 194.2 434.6 193.9 434.5C193.9 434.5 193.5 434.4 193.1 434.3C192.4 434 191.4 433.6 190.7 432.6C190.6 432.4 190.4 432.1 190.2 431.6C191.4 425.9 192.7 420.3 193.9 414.6C193.9 414.5 193.9 414.2 193.9 413.9C193.8 413.4 193.6 413.1 193.5 413.1C193.2 412.7 193.3 409.4 194.1 398.8" stroke="white" stroke-width="0.75" stroke-miterlimit="10" stroke-linecap="round" stroke-linejoin="round"/>
<path d="M194.8 383.3C195.3 385.6 195.7 387.6 196 389.1C197 395.2 196.7 396.5 196.4 397.1C196.1 397.9 195.8 398.4 196 398.8C196.4 399.5 199.2 398.4 201 397.6C203.5 396.4 206.4 394.9 206.5 392.9C206.5 392.2 206.3 391.1 207 390.1C207.2 389.9 207.3 389.7 207.4 389.6C207.1 389.3 206.8 388.9 206.6 388.5C204.7 385.8 204 382.9 203.8 380.7C203.3 381.3 201.5 383.3 198.4 383.7C196.8 383.8 195.5 383.5 194.8 383.3Z" fill="#FFE4BD"/>
<path d="M207.3 224.5C203.4 231.2 198.1 241.5 193.7 254.8C183.6 285.3 184.9 311.6 186.2 332.2C186.9 343.8 188.6 359.9 193.1 378.9C192.3 379.3 191.4 379.7 190.6 380.1C191.6 380.4 192.6 380.7 193.6 381.1C193.1 381.6 192.5 382.1 192 382.6C192.9 382.9 193.9 383.2 194.8 383.5C195.6 383.7 197.7 384.2 200.3 383.2C202.7 382.3 204 380.6 204.5 380C205.3 379.8 206 379.5 206.8 379.3C206.3 378.7 205.9 378 205.4 377.4C206 376.4 206.5 375.4 207.1 374.4C206.2 374.6 205.3 374.9 204.4 375.1C201.7 360.8 201.6 348.7 202.1 340C203.1 322.2 207.6 299.6 215.9 286.6C216.3 285.9 220 280.3 224.9 272.5C228.7 266.4 230.1 264.1 231.4 261.8C234.4 256.4 236.7 251.9 238.1 248.8" stroke="white" stroke-width="0.75" stroke-miterlimit="10" stroke-linecap="round" stroke-linejoin="round"/>
<path d="M194.1 398.8C194.1 398.5 194.1 398.2 194 397.8C193.8 397.3 193.6 397.2 193.6 396.9C193.5 396.1 195.6 394.8 196.3 395.4C197 396 195.3 398.1 196 398.9C197.3 400.7 206.3 395.5 206.6 392.3C206.6 392.1 206.8 390 206.8 390C207 389.8 207.4 389.5 207.9 389.3C208 389.2 208.8 388.9 209.4 388.9C210.5 388.9 211.1 390.7 212.3 392.5C212.9 393.4 213.9 394.7 215.4 396" stroke="white" stroke-width="0.75" stroke-miterlimit="10" stroke-linecap="round" stroke-linejoin="round"/>
<path d="M195.6 397.4C195.3 402 195.8 405.2 196.4 407.3C196.7 408.3 197.2 410 196.5 411.5C195.9 412.7 194.7 413.3 193.8 413.6" stroke="white" stroke-width="0.75" stroke-miterlimit="10" stroke-linecap="round" stroke-linejoin="round"/>
<path d="M193.8 434.5C194.3 434.6 195 434.7 195.8 434.6C196.8 434.4 197.8 433.9 199.6 432C202.4 429 203.7 425.9 204.1 424.8C204.9 422.9 205.1 421.9 205.4 420.4C205.7 419 205.7 418.1 206 417.1C206.2 416.4 206.5 415.8 206.6 415.5C206.9 414.8 208.1 412.4 210.6 410.9C211.6 410.3 211.6 410.6 212.5 410.1C214.5 408.9 215.4 406.9 216.4 404.8C217.2 403 217.6 402.1 217.7 401.1C217.7 398.5 215.9 396.6 215.3 396" stroke="white" stroke-width="0.75" stroke-miterlimit="10" stroke-linecap="round" stroke-linejoin="round"/>
<path d="M147.5 402.3C147.8 402.2 149.5 401.3 150.3 399.2C151 397.3 150.5 395.5 150.3 395.2" stroke="white" stroke-width="0.75" stroke-miterlimit="10" stroke-linecap="round" stroke-linejoin="round"/>
<path d="M210.2 258C209.5 257 208.4 254.8 208.4 252C208.4 247.9 211 244 214.9 242" stroke="white" stroke-width="0.75" stroke-miterlimit="10" stroke-linecap="round" stroke-linejoin="round"/>
<path d="M197.9 377.8C199.1 377.5 200.2 377.2 201.4 376.8" stroke="white" stroke-width="0.75" stroke-miterlimit="10" stroke-linecap="round" stroke-linejoin="round"/>
<path d="M198.2 379.9C199.1 379.9 200.1 379.8 201 379.8" stroke="white" stroke-width="0.75" stroke-miterlimit="10" stroke-linecap="round" stroke-linejoin="round"/>
<path d="M154.4 349.7C155.8 348.8 157.3 347.8 158.7 346.9" stroke="white" stroke-width="0.75" stroke-miterlimit="10" stroke-linecap="round" stroke-linejoin="round"/>
<path d="M155.3 352.8C156.9 351.6 158.6 350.3 160.2 349.1" stroke="white" stroke-width="0.75" stroke-miterlimit="10" stroke-linecap="round" stroke-linejoin="round"/>
<path d="M211.4 152.4C209.4 156.5 206.8 158.7 205.2 159.8C200.4 163.3 194.4 164.1 193 162.7C192.2 161.9 192.7 160.9 191.3 158.7C190.5 157.4 190 157.3 189.1 156C188.5 155.1 187.6 153.7 187 151.7C185.9 151.9 185.1 151.7 184.6 151.5C184 151.3 183.3 151.1 183.1 150.5C182.9 149.9 183.5 149.3 183.9 148.7C186.1 145.4 183.7 140.2 183.3 139.3C183 138.7 182.6 138.3 182.6 138.3C182.5 137.9 182.3 137.4 182.2 136.7C182.2 136.7 181.4 133 181.9 129.7C182.5 125.8 185.6 121.4 189.5 118.8C194.9 115.1 202.9 113.8 209.1 117.4C217.2 122 220.7 134.3 215.1 145.2" stroke="white" stroke-width="0.75" stroke-miterlimit="10" stroke-linecap="round" stroke-linejoin="round"/>
<path d="M191.8 144.7C192.5 144 190.1 139.4 189.1 139.6C188.5 139.7 188.3 141.3 188.6 142.4C189.2 144.2 191.3 145.1 191.8 144.7Z" fill="white"/>
<path d="M192.4 137C190.7 135.6 188.5 135.2 186.8 136.1C185.7 136.6 185.2 137.5 184.9 138" stroke="white" stroke-width="0.75" stroke-miterlimit="10" stroke-linecap="round" stroke-linejoin="round"/>
<path d="M196.501 152.5C196.201 153.1 195.701 154 194.901 154.9C194.101 155.8 193.201 156.3 192.601 156.6" stroke="white" stroke-width="0.75" stroke-miterlimit="10" stroke-linecap="round" stroke-linejoin="round"/>
<path d="M203.2 144.4C203.6 144.1 205.9 142.2 205.9 139.3C205.9 137 204.6 134.1 202.8 134.1C201.4 134.1 200.4 135.8 200.2 136.2" stroke="white" stroke-width="0.75" stroke-miterlimit="10" stroke-linecap="round" stroke-linejoin="round"/>
<path d="M220.101 140.9C220.901 139.9 220.701 139.1 221.301 136.5C221.301 136.4 221.401 136.1 221.401 135.8C221.601 134.4 221.301 134 221.301 133.2C221.301 132.8 221.301 132.5 221.401 132.1C221.701 130.4 222.101 129.7 222.401 128C222.501 127.6 222.501 127.3 222.501 127.1C222.501 125.9 221.801 125.1 221.201 124.3C220.101 122.8 220.701 123.1 218.501 119.3C218.201 118.7 217.801 118.1 217.201 117.2C216.301 115.8 215.601 115.1 214.801 114.5C214.101 114 213.801 114 212.901 113.3C211.801 112.4 211.701 112 210.901 111.8C210.101 111.6 209.901 112 208.701 111.8C207.401 111.6 207.301 111.1 206.301 111.1C205.301 111.2 205.201 111.7 204.201 111.8C203.001 111.8 202.701 110.9 201.801 111.1C201.101 111.3 201.101 111.9 200.301 112.2C199.501 112.5 199.301 112 198.101 112.2C197.501 112.3 197.501 112.5 196.001 113C194.801 113.5 194.701 113.4 193.801 113.7C192.801 114.1 192.801 114.3 191.301 115C189.701 115.8 189.601 115.7 189.001 116.2C188.001 116.9 188.101 117.4 187.301 117.7C186.401 118.1 186.001 117.8 185.501 118.3C185.301 118.5 185.301 118.5 184.801 119.7C184.401 120.5 184.201 120.9 184.101 121.1C183.701 121.7 183.401 121.8 183.201 122.1C183.101 122.2 183.001 122.3 183.001 122.4C182.601 123 182.601 123.5 182.401 124C182.001 124.8 181.601 124.9 181.601 125.2C181.701 125.8 183.001 126.1 184.101 126C184.801 126 185.401 125.8 186.501 125.3C187.001 125.1 187.801 124.8 188.701 124.2C189.601 123.6 189.601 123.5 190.101 123.3C191.201 122.9 191.601 123.4 192.401 122.9C193.301 122.4 193.401 121.4 193.901 121.3C194.401 121.3 194.401 122.4 195.401 123.1C196.501 123.9 197.601 123.6 197.701 124.2C197.801 124.7 197.101 125 197.001 125.8C197.001 126.4 197.301 126.4 197.301 127C197.301 127.8 196.601 128.1 196.701 128.6C196.801 129 197.401 129.1 198.501 129.5C199.601 129.8 199.901 129.8 200.001 130C200.201 130.5 199.401 131 199.201 132.1C199.001 133.1 199.601 133.3 199.401 134.3C199.201 135.4 198.501 135.5 198.301 136.5C198.101 137.6 198.801 139 199.501 138.9C200.101 138.8 200.601 137.5 201.001 136.7C201.401 135.6 201.401 135.1 201.901 134.5C202.101 134.3 202.701 133.7 203.301 133.7C204.701 133.7 205.901 136.5 206.001 138.7C206.101 140 205.801 141.1 205.501 141.8C206.001 142 206.601 142.1 207.201 141.8C207.901 141.5 208.201 140.8 208.401 140.9C208.601 141 208.201 141.8 208.501 142.7C208.701 143.3 209.201 144.1 209.901 144.3C210.501 144.5 210.901 143.7 211.801 143.8C212.501 143.8 212.901 144.2 213.201 144.5C214.101 145.3 213.901 146 214.501 146.6C215.501 147.6 217.501 147.6 217.901 147C218.201 146.6 217.401 146.1 217.801 145.2C218.101 144.5 218.701 144.5 219.001 143.7C219.301 143 218.701 142.6 218.901 141.9C219.001 141.6 219.501 141.6 220.101 140.9Z" fill="white"/>
<path d="M215.6 142.3C215.2 144.4 214.7 148.1 215.7 152.6C216.6 156.9 218.5 159.9 219.7 161.7" stroke="white" stroke-width="0.75" stroke-miterlimit="10"/>
<path d="M123.7 152.9C123.7 152.9 123.9 152.6 121.6 148.7C121.5 148.5 121.4 148.4 121.4 148.3C119.9 145.5 118.4 140.8 118.1 140C117 136.4 115.3 132.1 114.8 132.2C114.4 132.3 116.1 135.5 115.2 139.7C114.9 140.9 114.4 142.2 115 143.7C115.5 145 116.5 145.8 116.5 145.8C116.1 145.5 115.4 144.9 115 143.7C114.6 142.4 114.9 141.3 115 140.8C113.3 140.4 111.4 140 109.2 139.5C105.7 138.7 102.8 138.1 99.1003 137.4C95.8003 136.8 94.1003 136.5 94.0003 136.7C93.8003 137.3 105.2 141.2 105.1 141.5C105 141.6 101.5 140.3 96.5003 139.4C92.3003 138.7 87.9003 138.4 87.9003 138.8C87.8003 139.6 104.5 143.1 104.4 143.6C104.3 143.9 100.7 143 95.4003 143.4C92.9003 143.6 89.7004 144 89.7004 144.4C89.7004 145.2 104.2 145.9 104.2 146C104.2 146 100.4 145.4 96.9003 147.3C96.5003 147.5 95.1004 148.3 95.2004 148.8C95.5004 149.8 102.8 146.3 108.4 149.3C109.3 149.8 110.1 150.3 111.7 150.9C114.6 151.9 117.3 152 117.9 151.1C118 151 118.3 150.5 119 150.1C119.1 150 119.2 150 119.3 150C121.3 149.7 123.5 153.1 123.7 152.9Z" stroke="white" stroke-width="0.75" stroke-miterlimit="10" stroke-linecap="round" stroke-linejoin="round"/>
<path d="M108.8 140.8C108.1 141.6 106.9 143.3 106.7 145.7C106.6 146.4 106.7 147.1 106.8 147.7" stroke="white" stroke-width="0.75" stroke-miterlimit="10" stroke-linecap="round" stroke-linejoin="round"/>
<path d="M295.4 105.7C295.3 105.7 295.1 105.6 295.1 101.2C295.1 101 295.1 100.9 295.1 100.7C294.9 97.9 294.1 94.2 293.6 92.2C292.8 88.8 292.4 85.2 292.7 85.2C292.9 85.2 293.1 86 294 87.8C295.1 89.9 295.7 91 296.6 91.8C297.4 92.5 298 92.8 298.3 93.8C298.5 94.4 298.4 95 298.3 95.4C298.4 95.1 298.5 94.5 298.3 93.8C297.9 92.5 296.8 92 296.6 91.8C298.6 90 300.2 88.5 301.2 87.4C304.4 84.1 305.6 82.5 308.5 80.3C310.1 79 312.7 77.3 313 77.6C313.6 78.2 304.9 86.5 305.2 86.7C305.3 86.8 308 84.2 312.3 81C312.6 80.8 317.4 77.3 317.7 77.6C318.2 78.1 307.4 87.8 307.6 88.1C307.7 88.2 310.4 85.6 315 83.5C317.1 82.5 319.6 81.7 319.8 82C320 82.3 318.1 83.3 314.5 86C311.1 88.5 309.5 89.9 309.6 90.1C309.7 90.2 312 88.4 315.7 87.4C316.7 87.1 318 86.8 318.2 87.1C318.6 87.7 312.3 89.7 307.2 95.1C304.8 97.6 301.3 102.6 300 102C299.7 101.8 299.2 101.1 298.3 101.1C298.3 101.1 298.1 101.1 298 101.2C295.9 101.8 295.8 105.8 295.4 105.7Z" stroke="white" stroke-width="0.75" stroke-miterlimit="10" stroke-linecap="round" stroke-linejoin="round"/>
<path d="M302.5 87.7C303.5 88 305.5 88.8 306.9 90.7C307.3 91.3 307.6 91.9 307.9 92.4" stroke="white" stroke-width="0.75" stroke-miterlimit="10" stroke-linecap="round" stroke-linejoin="round"/>
<path d="M214.1 330.2C214.9 324.8 218.3 306.9 234 292.2C251.1 276.1 271.2 274.8 276.4 274.6" stroke="white" stroke-width="0.75" stroke-miterlimit="10" stroke-linecap="round" stroke-linejoin="round"/>
<path d="M220.3 325.9C222 322.9 226.7 315.5 236.1 310.6C245.7 305.6 254.7 306.1 258.1 306.5" stroke="white" stroke-width="0.75" stroke-miterlimit="10" stroke-linecap="round" stroke-linejoin="round"/>
<path fill-rule="evenodd" clip-rule="evenodd" d="M36.2091 176.211C36.2091 176.211 36.6731 176.119 36.9516 175.933C37.1372 175.654 37.1372 175.283 37.1372 175.283C37.1372 175.283 37.1372 173.149 38.0653 172.87C38.9935 172.592 40.2 174.912 41.4994 175.747C42.4276 176.397 43.1701 176.304 43.1701 176.304L46.6041 176.211C46.6041 176.211 48.3676 176.119 47.5323 174.634C47.4395 174.541 47.0682 173.613 45.0263 171.664C42.8916 169.622 43.1701 169.993 45.7688 166.466C47.3466 164.331 47.9963 163.032 47.8107 162.475C47.6251 161.918 46.4185 162.104 46.4185 162.104H42.5204C42.5204 162.104 42.2419 162.104 42.0563 162.197C41.8707 162.289 41.685 162.661 41.685 162.661C41.685 162.661 41.0354 164.331 40.2929 165.723C38.5294 168.694 37.8797 168.879 37.6013 168.694C36.9516 168.229 37.1372 166.93 37.1372 166.002C37.1372 163.125 37.6013 161.918 36.3019 161.64C35.8378 161.547 35.5594 161.454 34.5384 161.454C33.1463 161.454 32.0325 161.454 31.29 161.825C30.8259 162.011 30.5475 162.568 30.7331 162.568C31.0116 162.568 31.5684 162.753 31.8469 163.125C32.2181 163.682 32.2181 164.888 32.2181 164.888C32.2181 164.888 32.4037 168.229 31.6612 168.694C31.1044 168.972 30.4547 168.415 28.8769 165.723C28.1343 164.331 27.4847 162.846 27.4847 162.846C27.4847 162.846 27.3918 162.568 27.2062 162.382C26.9278 162.197 26.6493 162.104 26.6493 162.104H22.9368C22.9368 162.104 22.3799 162.104 22.1943 162.382C22.0087 162.568 22.1943 163.032 22.1943 163.032C22.1943 163.032 25.0715 169.9 28.32 173.334C31.29 176.49 34.7241 176.304 34.7241 176.304L36.2091 176.211Z" fill="white"/>
<path d="M53 136H19V227H53V136Z" stroke="white" stroke-miterlimit="10" stroke-linecap="round" stroke-linejoin="round"/>
<path d="M19 152H53" stroke="white" stroke-miterlimit="10" stroke-linecap="round" stroke-linejoin="round"/>
<path d="M19 183H53" stroke="white" stroke-miterlimit="10" stroke-linecap="round" stroke-linejoin="round"/>
<path d="M19 136L36 95L53 136" stroke="white" stroke-miterlimit="10" stroke-linecap="round" stroke-linejoin="round"/>
<path d="M18.625 240.948L8.4214 228.453C10.2154 223.112 12.0351 217.749 13.8551 212.385C15.4507 207.683 17.0465 202.98 18.625 198.292V198.299V198.363V198.426V198.49V198.554V198.618V198.682V198.746V198.809V198.873V198.937V199.001V199.065V199.128V199.192V199.256V199.32V199.384V199.447V199.511V199.575V199.639V199.703V199.766V199.83V199.894V199.958V200.021V200.085V200.149V200.213V200.277V200.34V200.404V200.468V200.532V200.595V200.659V200.723V200.787V200.85V200.914V200.978V201.042V201.105V201.169V201.233V201.297V201.36V201.424V201.488V201.552V201.615V201.679V201.743V201.807V201.87V201.934V201.998V202.062V202.125V202.189V202.253V202.316V202.38V202.444V202.508V202.571V202.635V202.699V202.762V202.826V202.89V202.954V203.017V203.081V203.145V203.208V203.272V203.336V203.4V203.463V203.527V203.591V203.654V203.718V203.782V203.845V203.909V203.973V204.037V204.1V204.164V204.228V204.291V204.355V204.419V204.482V204.546V204.61V204.673V204.737V204.801V204.865V204.928V204.992V205.056V205.119V205.183V205.247V205.31V205.374V205.438V205.501V205.565V205.629V205.692V205.756V205.82V205.883V205.947V206.011V206.074V206.138V206.202V206.265V206.329V206.393V206.456V206.52V206.584V206.647V206.711V206.775V206.838V206.902V206.965V207.029V207.093V207.156V207.22V207.284V207.347V207.411V207.475V207.538V207.602V207.666V207.729V207.793V207.857V207.92V207.984V208.048V208.111V208.175V208.238V208.302V208.366V208.429V208.493V208.557V208.62V208.684V208.748V208.811V208.875V208.938V209.002V209.066V209.129V209.193V209.257V209.32V209.384V209.448V209.511V209.575V209.638V209.702V209.766V209.829V209.893V209.957V210.02V210.084V210.147V210.211V210.275V210.338V210.402V210.466V210.529V210.593V210.656V210.72V210.784V210.847V210.911V210.975V211.038V211.102V211.166V211.229V211.293V211.356V211.42V211.484V211.547V211.611V211.675V211.738V211.802V211.865V211.929V211.993V212.056V212.12V212.184V212.247V212.311V212.374V212.438V212.502V212.565V212.629V212.693V212.756V212.82V212.883V212.947V213.011V213.074V213.138V213.201V213.265V213.329V213.392V213.456V213.52V213.583V213.647V213.711V213.774V213.838V213.901V213.965V214.029V214.092V214.156V214.22V214.283V214.347V214.41V214.474V214.538V214.601V214.665V214.729V214.792V214.856V214.919V214.983V215.047V215.11V215.174V215.238V215.301V215.365V215.429V215.492V215.556V215.619V215.683V215.747V215.81V215.874V215.938V216.001V216.065V216.129V216.192V216.256V216.319V216.383V216.447V216.51V216.574V216.638V216.701V216.765V216.829V216.892V216.956V217.02V217.083V217.147V217.21V217.274V217.338V217.401V217.465V217.529V217.592V217.656V217.72V217.783V217.847V217.911V217.974V218.038V218.102V218.165V218.229V218.293V218.356V218.42V218.484V218.547V218.611V218.675V218.738V218.802V218.866V218.929V218.993V219.057V219.12V219.184V219.248V219.311V219.375V219.439V219.502V219.566V219.63V219.693V219.757V219.821V219.884V219.948V220.012V220.075V220.139V220.203V220.266V220.33V220.394V220.458V220.521V220.585V220.649V220.712V220.776V220.84V220.903V220.967V221.031V221.095V221.158V221.222V221.286V221.349V221.413V221.477V221.54V221.604V221.668V221.732V221.795V221.859V221.923V221.986V222.05V222.114V222.178V222.241V222.305V222.369V222.433V222.496V222.56V222.624V222.687V222.751V222.815V222.879V222.942V223.006V223.07V223.134V223.197V223.261V223.325V223.389V223.452V223.516V223.58V223.644V223.707V223.771V223.835V223.899V223.962V224.026V224.09V224.154V224.217V224.281V224.345V224.409V224.473V224.536V224.6V224.664V224.728V224.791V224.855V224.919V224.983V225.047V225.11V225.174V225.238V225.302V225.366V225.429V225.493V225.557V225.621V225.685V225.748V225.812V225.876V225.94V226.004V226.067V226.131V226.195V226.259V226.323V226.386V226.45V226.514V226.578V226.642V226.706V226.769V226.833V226.897V226.961V227.025V227.089V227.153V227.216V227.28V227.344V227.408V227.472V227.536V227.599V227.663V227.727V227.791V227.855V227.919V227.983V228.047V228.11V228.174V228.238V228.302V228.366V228.43V228.494V228.558V228.622V228.647V228.673V228.699V228.725V228.75V228.776V228.802V228.828V228.854V228.879V228.905V228.931V228.957V228.983V229.008V229.034V229.06V229.086V229.112V229.137V229.163V229.189V229.215V229.241V229.266V229.292V229.318V229.344V229.37V229.396V229.421V229.447V229.473V229.499V229.525V229.551V229.576V229.602V229.628V229.654V229.68V229.706V229.732V229.757V229.783V229.809V229.835V229.861V229.887V229.913V229.939V229.964V229.99V230.016V230.042V230.068V230.094V230.12V230.146V230.171V230.197V230.223V230.249V230.275V230.301V230.327V230.353V230.379V230.405V230.43V230.456V230.482V230.508V230.534V230.56V230.586V230.612V230.638V230.664V230.69V230.716V230.741V230.767V230.793V230.819V230.845V230.871V230.897V230.923V230.949V230.975V231.001V231.027V231.053V231.079V231.105V231.131V231.157V231.183V231.209V231.234V231.26V231.286V231.312V231.338V231.364V231.39V231.416V231.442V231.468V231.494V231.52V231.546V231.572V231.598V231.624V231.65V231.676V231.702V231.728V231.754V231.78V231.806V231.832V231.858V231.884V231.91V231.936V231.962V231.988V232.014V232.04V232.066V232.092V232.118V232.144V232.17V232.196V232.222V232.248V232.274V232.3V232.326V232.352V232.378V232.404V232.43V232.457V232.483V232.509V232.535V232.561V232.587V232.613V232.639V232.665V232.691V232.717V232.743V232.769V232.795V232.821V232.847V232.873V232.899V232.925V232.951V232.978V233.004V233.03V233.056V233.082V233.108V233.134V233.16V233.186V233.212V233.238V233.264V233.29V233.317V233.343V233.369V233.395V233.421V233.447V233.473V233.499V233.525V233.551V233.577V233.604V233.63V233.656V233.682V233.708V233.734V233.76V233.786V233.812V233.838V233.865V233.891V233.917V233.943V233.969V233.995V234.021V234.047V234.074V234.1V234.126V234.152V234.178V234.204V234.23V234.256V234.283V234.309V234.335V234.361V234.387V234.413V234.439V234.465V234.492V234.518V234.544V234.57V234.596V234.622V234.649V234.675V234.701V234.727V234.753V234.779V234.805V234.832V234.858V234.884V234.91V234.936V234.962V234.989V235.015V235.041V235.067V235.093V235.119V235.146V235.172V235.198V235.224V235.25V235.276V235.303V235.329V235.355V235.381V235.407V235.433V235.46V235.486V235.512V235.538V235.564V235.591V235.617V235.643V235.669V235.695V235.722V235.748V235.774V235.8V235.826V235.852V235.879V235.905V235.931V235.957V235.983V236.01V236.036V236.062V236.088V236.114V236.141V236.167V236.193V236.219V236.246V236.272V236.298V236.324V236.35V236.377V236.403V236.429V236.455V236.481V236.508V236.534V236.56V236.586V236.613V236.639V236.665V236.691V236.717V236.744V236.77V236.796V236.822V236.849V236.875V236.901V236.927V236.954V236.98V237.006V237.032V237.058V237.085V237.111V237.137V237.163V237.19V237.216V237.242V237.268V237.295V237.321V237.347V237.373V237.4V237.426V237.452V237.478V237.505V237.531V237.557V237.583V237.61V237.636V237.662V237.688V237.715V237.741V237.767V237.793V237.82V237.846V237.872V237.898V237.925V237.951V237.977V238.003V238.03V238.056V238.082V238.109V238.135V238.161V238.187V238.214V238.24V238.266V238.292V238.319V238.345V238.371V238.397V238.424V238.45V238.476V238.503V238.529V238.555V238.581V238.608V238.634V238.66V238.686V238.713V238.739V238.765V238.792V238.818V238.844V238.87V238.897V238.923V238.949V238.976V239.002V239.028V239.054V239.081V239.107V239.133V239.16V239.186V239.212V239.238V239.265V239.291V239.317V239.344V239.37V239.396V239.422V239.449V239.475V239.501V239.528V239.554V239.58V239.606V239.633V239.659V239.685V239.712V239.738V239.764V239.79V239.817V239.843V239.869V239.896V239.922V239.948V239.975V240.001V240.027V240.053V240.08V240.106V240.132V240.159V240.185V240.211V240.238V240.264V240.29V240.316V240.343V240.369V240.395V240.422V240.448V240.474V240.501V240.527V240.553V240.579V240.606V240.632V240.658V240.685V240.711V240.737V240.764V240.79V240.816V240.842V240.869V240.895V240.921V240.948V240.948Z" stroke="white" stroke-width="0.75"/>
<path d="M62.5861 228.458L53.375 240.866V240.842V240.816V240.79V240.764V240.737V240.711V240.685V240.658V240.632V240.606V240.579V240.553V240.527V240.501V240.474V240.448V240.422V240.395V240.369V240.343V240.316V240.29V240.264V240.238V240.211V240.185V240.159V240.132V240.106V240.08V240.053V240.027V240.001V239.975V239.948V239.922V239.896V239.869V239.843V239.817V239.79V239.764V239.738V239.712V239.685V239.659V239.633V239.606V239.58V239.554V239.528V239.501V239.475V239.449V239.422V239.396V239.37V239.344V239.317V239.291V239.265V239.238V239.212V239.186V239.16V239.133V239.107V239.081V239.054V239.028V239.002V238.976V238.949V238.923V238.897V238.87V238.844V238.818V238.792V238.765V238.739V238.713V238.686V238.66V238.634V238.608V238.581V238.555V238.529V238.503V238.476V238.45V238.424V238.397V238.371V238.345V238.319V238.292V238.266V238.24V238.214V238.187V238.161V238.135V238.109V238.082V238.056V238.03V238.003V237.977V237.951V237.925V237.898V237.872V237.846V237.82V237.793V237.767V237.741V237.715V237.688V237.662V237.636V237.61V237.583V237.557V237.531V237.505V237.478V237.452V237.426V237.4V237.373V237.347V237.321V237.295V237.268V237.242V237.216V237.19V237.163V237.137V237.111V237.085V237.058V237.032V237.006V236.98V236.954V236.927V236.901V236.875V236.849V236.822V236.796V236.77V236.744V236.717V236.691V236.665V236.639V236.613V236.586V236.56V236.534V236.508V236.481V236.455V236.429V236.403V236.377V236.35V236.324V236.298V236.272V236.246V236.219V236.193V236.167V236.141V236.114V236.088V236.062V236.036V236.01V235.983V235.957V235.931V235.905V235.879V235.852V235.826V235.8V235.774V235.748V235.722V235.695V235.669V235.643V235.617V235.591V235.564V235.538V235.512V235.486V235.46V235.433V235.407V235.381V235.355V235.329V235.303V235.276V235.25V235.224V235.198V235.172V235.146V235.119V235.093V235.067V235.041V235.015V234.989V234.962V234.936V234.91V234.884V234.858V234.832V234.805V234.779V234.753V234.727V234.701V234.675V234.649V234.622V234.596V234.57V234.544V234.518V234.492V234.465V234.439V234.413V234.387V234.361V234.335V234.309V234.283V234.256V234.23V234.204V234.178V234.152V234.126V234.1V234.074V234.047V234.021V233.995V233.969V233.943V233.917V233.891V233.865V233.838V233.812V233.786V233.76V233.734V233.708V233.682V233.656V233.63V233.604V233.577V233.551V233.525V233.499V233.473V233.447V233.421V233.395V233.369V233.343V233.317V233.29V233.264V233.238V233.212V233.186V233.16V233.134V233.108V233.082V233.056V233.03V233.004V232.978V232.951V232.925V232.899V232.873V232.847V232.821V232.795V232.769V232.743V232.717V232.691V232.665V232.639V232.613V232.587V232.561V232.535V232.509V232.483V232.457V232.43V232.404V232.378V232.352V232.326V232.3V232.274V232.248V232.222V232.196V232.17V232.144V232.118V232.092V232.066V232.04V232.014V231.988V231.962V231.936V231.91V231.884V231.858V231.832V231.806V231.78V231.754V231.728V231.702V231.676V231.65V231.624V231.598V231.572V231.546V231.52V231.494V231.468V231.442V231.416V231.39V231.364V231.338V231.312V231.286V231.26V231.234V231.209V231.183V231.157V231.131V231.105V231.079V231.053V231.027V231.001V230.975V230.949V230.923V230.897V230.871V230.845V230.819V230.793V230.767V230.741V230.716V230.69V230.664V230.638V230.612V230.586V230.56V230.534V230.508V230.482V230.456V230.43V230.405V230.379V230.353V230.327V230.301V230.275V230.249V230.223V230.197V230.171V230.146V230.12V230.094V230.068V230.042V230.016V229.99V229.964V229.939V229.913V229.887V229.861V229.835V229.809V229.783V229.757V229.732V229.706V229.68V229.654V229.628V229.602V229.576V229.551V229.525V229.499V229.473V229.447V229.421V229.396V229.37V229.344V229.318V229.292V229.266V229.241V229.215V229.189V229.163V229.137V229.112V229.086V229.06V229.034V229.008V228.983V228.957V228.931V228.905V228.879V228.854V228.828V228.802V228.776V228.75V228.725V228.699V228.673V228.647V228.622V228.558V228.494V228.43V228.366V228.302V228.238V228.174V228.11V228.047V227.983V227.919V227.855V227.791V227.727V227.663V227.599V227.536V227.472V227.408V227.344V227.28V227.216V227.153V227.089V227.025V226.961V226.897V226.833V226.769V226.706V226.642V226.578V226.514V226.45V226.386V226.323V226.259V226.195V226.131V226.067V226.004V225.94V225.876V225.812V225.748V225.685V225.621V225.557V225.493V225.429V225.366V225.302V225.238V225.174V225.11V225.047V224.983V224.919V224.855V224.791V224.728V224.664V224.6V224.536V224.473V224.409V224.345V224.281V224.217V224.154V224.09V224.026V223.962V223.899V223.835V223.771V223.707V223.644V223.58V223.516V223.452V223.389V223.325V223.261V223.197V223.134V223.07V223.006V222.942V222.879V222.815V222.751V222.687V222.624V222.56V222.496V222.433V222.369V222.305V222.241V222.178V222.114V222.05V221.986V221.923V221.859V221.795V221.732V221.668V221.604V221.54V221.477V221.413V221.349V221.286V221.222V221.158V221.095V221.031V220.967V220.903V220.84V220.776V220.712V220.649V220.585V220.521V220.458V220.394V220.33V220.266V220.203V220.139V220.075V220.012V219.948V219.884V219.821V219.757V219.693V219.63V219.566V219.502V219.439V219.375V219.311V219.248V219.184V219.12V219.057V218.993V218.929V218.866V218.802V218.738V218.675V218.611V218.547V218.484V218.42V218.356V218.293V218.229V218.165V218.102V218.038V217.974V217.911V217.847V217.783V217.72V217.656V217.592V217.529V217.465V217.401V217.338V217.274V217.21V217.147V217.083V217.02V216.956V216.892V216.829V216.765V216.701V216.638V216.574V216.51V216.447V216.383V216.319V216.256V216.192V216.129V216.065V216.001V215.938V215.874V215.81V215.747V215.683V215.619V215.556V215.492V215.429V215.365V215.301V215.238V215.174V215.11V215.047V214.983V214.919V214.856V214.792V214.729V214.665V214.601V214.538V214.474V214.41V214.347V214.283V214.22V214.156V214.092V214.029V213.965V213.901V213.838V213.774V213.711V213.647V213.583V213.52V213.456V213.392V213.329V213.265V213.201V213.138V213.074V213.011V212.947V212.883V212.82V212.756V212.693V212.629V212.565V212.502V212.438V212.374V212.311V212.247V212.184V212.12V212.056V211.993V211.929V211.865V211.802V211.738V211.675V211.611V211.547V211.484V211.42V211.356V211.293V211.229V211.166V211.102V211.038V210.975V210.911V210.847V210.784V210.72V210.656V210.593V210.529V210.466V210.402V210.338V210.275V210.211V210.147V210.084V210.02V209.957V209.893V209.829V209.766V209.702V209.638V209.575V209.511V209.448V209.384V209.32V209.257V209.193V209.129V209.066V209.002V208.938V208.875V208.811V208.748V208.684V208.62V208.557V208.493V208.429V208.366V208.302V208.238V208.175V208.111V208.048V207.984V207.92V207.857V207.793V207.729V207.666V207.602V207.538V207.475V207.411V207.347V207.284V207.22V207.156V207.093V207.029V206.965V206.902V206.838V206.775V206.711V206.647V206.584V206.52V206.456V206.393V206.329V206.265V206.202V206.138V206.074V206.011V205.947V205.883V205.82V205.756V205.692V205.629V205.565V205.501V205.438V205.374V205.31V205.247V205.183V205.119V205.056V204.992V204.928V204.865V204.801V204.737V204.673V204.61V204.546V204.482V204.419V204.355V204.291V204.228V204.164V204.1V204.037V203.973V203.909V203.845V203.782V203.718V203.654V203.591V203.527V203.463V203.4V203.336V203.272V203.208V203.145V203.081V203.017V202.954V202.89V202.826V202.762V202.699V202.635V202.571V202.508V202.444V202.38V202.316V202.253V202.189V202.125V202.062V201.998V201.934V201.87V201.807V201.743V201.679V201.615V201.552V201.488V201.424V201.36V201.297V201.233V201.169V201.105V201.042V200.978V200.914V200.85V200.787V200.723V200.659V200.595V200.532V200.468V200.404V200.34V200.277V200.213V200.149V200.085V200.021V199.958V199.894V199.83V199.766V199.703V199.639V199.575V199.511V199.447V199.384V199.32V199.256V199.192V199.128V199.065V199.001V198.937V198.873V198.809V198.746V198.682V198.618V198.554V198.509C54.7872 203.122 56.2144 207.749 57.6415 212.375L57.6417 212.375C59.2978 217.744 60.9537 223.112 62.5861 228.458Z" stroke="white" stroke-width="0.75"/>
<path d="M68.0002 454.8C66.9002 456.8 62.2002 464.7 52.7002 467.4C48.9002 468.5 45.5002 468.4 43.2002 468.1" stroke="white" stroke-width="0.75" stroke-miterlimit="10" stroke-linecap="round" stroke-linejoin="round"/>
<path d="M65.6 449.3C64.2 450.5 61.3 452.9 56.7 454.1C52.1 455.3 48.3 454.6 46.5 454.1" stroke="white" stroke-width="0.75" stroke-miterlimit="10" stroke-linecap="round" stroke-linejoin="round"/>
<path d="M1 324C6.38769 318.891 13.1932 311.087 18.7699 300.404C28.3165 282.197 29.1672 265.104 28.9782 256" stroke="white" stroke-width="0.75" stroke-miterlimit="10" stroke-linecap="round" stroke-linejoin="round"/>
<path d="M68 328C62.5566 321.584 56.1748 312.842 50.7314 301.497C42.6602 284.759 39.9385 269.415 39 259" stroke="white" stroke-width="0.75" stroke-miterlimit="10" stroke-linecap="round" stroke-linejoin="round"/>
<path d="M54 294C50.8571 287.102 47.4286 278.273 45.0476 267.696C42.5714 256.567 42 246.726 42 239" stroke="white" stroke-width="0.75" stroke-miterlimit="10" stroke-linecap="round" stroke-linejoin="round"/>
<path d="M30 282C31.1134 276.004 32.0243 269.362 32.5304 262.258C33.3401 251.004 33.0364 240.856 32.1255 232" stroke="white" stroke-width="0.75" stroke-miterlimit="10" stroke-linecap="round" stroke-linejoin="round"/>
<path d="M353 164L395 164L395 52L353 52L353 164Z" stroke="white" stroke-miterlimit="10" stroke-linecap="round" stroke-linejoin="round"/>
<path d="M395 72H353" stroke="white" stroke-miterlimit="10" stroke-linecap="round" stroke-linejoin="round"/>
<path d="M395 122H353" stroke="white" stroke-miterlimit="10" stroke-linecap="round" stroke-linejoin="round"/>
<path d="M395 52L374.058 1L353 52" stroke="white" stroke-miterlimit="10" stroke-linecap="round" stroke-linejoin="round"/>
<path d="M406.588 165.239L395.375 180.836V180.826V180.794V180.761V180.729V180.696V180.663V180.631V180.598V180.566V180.533V180.5V180.468V180.435V180.403V180.37V180.338V180.305V180.272V180.24V180.207V180.175V180.142V180.109V180.077V180.044V180.012V179.979V179.946V179.914V179.881V179.849V179.816V179.783V179.751V179.718V179.686V179.653V179.621V179.588V179.555V179.523V179.49V179.458V179.425V179.392V179.36V179.327V179.295V179.262V179.23V179.197V179.164V179.132V179.099V179.067V179.034V179.001V178.969V178.936V178.904V178.871V178.839V178.806V178.773V178.741V178.708V178.676V178.643V178.611V178.578V178.545V178.513V178.48V178.448V178.415V178.383V178.35V178.317V178.285V178.252V178.22V178.187V178.155V178.122V178.089V178.057V178.024V177.992V177.959V177.927V177.894V177.862V177.829V177.796V177.764V177.731V177.699V177.666V177.634V177.601V177.569V177.536V177.503V177.471V177.438V177.406V177.373V177.341V177.308V177.276V177.243V177.21V177.178V177.145V177.113V177.08V177.048V177.015V176.983V176.95V176.918V176.885V176.853V176.82V176.787V176.755V176.722V176.69V176.657V176.625V176.592V176.56V176.527V176.495V176.462V176.43V176.397V176.365V176.332V176.3V176.267V176.234V176.202V176.169V176.137V176.104V176.072V176.039V176.007V175.974V175.942V175.909V175.877V175.844V175.812V175.779V175.747V175.714V175.682V175.649V175.617V175.584V175.552V175.519V175.487V175.454V175.422V175.389V175.357V175.324V175.292V175.259V175.227V175.194V175.162V175.129V175.097V175.064V175.032V174.999V174.967V174.934V174.902V174.869V174.837V174.805V174.772V174.74V174.707V174.675V174.642V174.61V174.577V174.545V174.512V174.48V174.447V174.415V174.382V174.35V174.317V174.285V174.253V174.22V174.188V174.155V174.123V174.09V174.058V174.025V173.993V173.961V173.928V173.896V173.863V173.831V173.798V173.766V173.733V173.701V173.669V173.636V173.604V173.571V173.539V173.506V173.474V173.442V173.409V173.377V173.344V173.312V173.279V173.247V173.215V173.182V173.15V173.117V173.085V173.053V173.02V172.988V172.955V172.923V172.891V172.858V172.826V172.793V172.761V172.729V172.696V172.664V172.631V172.599V172.567V172.534V172.502V172.469V172.437V172.405V172.372V172.34V172.308V172.275V172.243V172.21V172.178V172.146V172.113V172.081V172.049V172.016V171.984V171.952V171.919V171.887V171.854V171.822V171.79V171.757V171.725V171.693V171.66V171.628V171.596V171.563V171.531V171.499V171.466V171.434V171.402V171.369V171.337V171.305V171.272V171.24V171.208V171.175V171.143V171.111V171.078V171.046V171.014V170.982V170.949V170.917V170.885V170.852V170.82V170.788V170.755V170.723V170.691V170.659V170.626V170.594V170.562V170.529V170.497V170.465V170.433V170.4V170.368V170.336V170.303V170.271V170.239V170.207V170.174V170.142V170.11V170.078V170.045V170.013V169.981V169.949V169.916V169.884V169.852V169.82V169.787V169.755V169.723V169.691V169.658V169.626V169.594V169.562V169.529V169.497V169.465V169.433V169.401V169.368V169.336V169.304V169.272V169.24V169.207V169.175V169.143V169.111V169.078V169.046V169.014V168.982V168.95V168.918V168.885V168.853V168.821V168.789V168.757V168.724V168.692V168.66V168.628V168.596V168.564V168.531V168.499V168.467V168.435V168.403V168.371V168.338V168.306V168.274V168.242V168.21V168.178V168.146V168.113V168.081V168.049V168.017V167.985V167.953V167.921V167.889V167.856V167.824V167.792V167.76V167.728V167.696V167.664V167.632V167.6V167.568V167.535V167.503V167.471V167.439V167.407V167.375V167.343V167.311V167.279V167.247V167.215V167.183V167.15V167.118V167.086V167.054V167.022V166.99V166.958V166.926V166.894V166.862V166.83V166.798V166.766V166.734V166.702V166.67V166.638V166.606V166.574V166.542V166.51V166.478V166.446V166.414V166.381V166.349V166.317V166.285V166.253V166.221V166.189V166.157V166.125V166.093V166.062V166.03V165.998V165.966V165.934V165.902V165.87V165.838V165.806V165.774V165.742V165.71V165.678V165.646V165.614V165.582V165.55V165.518V165.486V165.454V165.422V165.343V165.264V165.185V165.106V165.026V164.947V164.868V164.789V164.71V164.631V164.552V164.472V164.393V164.314V164.235V164.156V164.077V163.998V163.918V163.839V163.76V163.681V163.602V163.523V163.444V163.365V163.286V163.206V163.127V163.048V162.969V162.89V162.811V162.732V162.653V162.574V162.495V162.416V162.336V162.257V162.178V162.099V162.02V161.941V161.862V161.783V161.704V161.625V161.546V161.467V161.388V161.309V161.23V161.151V161.072V160.992V160.913V160.834V160.755V160.676V160.597V160.518V160.439V160.36V160.281V160.202V160.123V160.044V159.965V159.886V159.807V159.728V159.649V159.57V159.491V159.412V159.333V159.254V159.175V159.096V159.017V158.938V158.859V158.78V158.701V158.622V158.543V158.464V158.385V158.306V158.227V158.148V158.069V157.99V157.911V157.832V157.753V157.674V157.595V157.516V157.437V157.359V157.28V157.201V157.122V157.043V156.964V156.885V156.806V156.727V156.648V156.569V156.49V156.411V156.332V156.253V156.174V156.095V156.016V155.938V155.859V155.78V155.701V155.622V155.543V155.464V155.385V155.306V155.227V155.148V155.069V154.99V154.911V154.833V154.754V154.675V154.596V154.517V154.438V154.359V154.28V154.201V154.122V154.043V153.965V153.886V153.807V153.728V153.649V153.57V153.491V153.412V153.333V153.255V153.176V153.097V153.018V152.939V152.86V152.781V152.702V152.623V152.545V152.466V152.387V152.308V152.229V152.15V152.071V151.992V151.913V151.835V151.756V151.677V151.598V151.519V151.44V151.361V151.283V151.204V151.125V151.046V150.967V150.888V150.809V150.73V150.652V150.573V150.494V150.415V150.336V150.257V150.178V150.1V150.021V149.942V149.863V149.784V149.705V149.626V149.548V149.469V149.39V149.311V149.232V149.153V149.074V148.996V148.917V148.838V148.759V148.68V148.601V148.523V148.444V148.365V148.286V148.207V148.128V148.049V147.971V147.892V147.813V147.734V147.655V147.576V147.498V147.419V147.34V147.261V147.182V147.103V147.024V146.946V146.867V146.788V146.709V146.63V146.551V146.473V146.394V146.315V146.236V146.157V146.078V146V145.921V145.842V145.763V145.684V145.605V145.527V145.448V145.369V145.29V145.211V145.132V145.053V144.975V144.896V144.817V144.738V144.659V144.58V144.502V144.423V144.344V144.265V144.186V144.107V144.029V143.95V143.871V143.792V143.713V143.634V143.556V143.477V143.398V143.319V143.24V143.161V143.082V143.004V142.925V142.846V142.767V142.688V142.609V142.531V142.452V142.373V142.294V142.215V142.136V142.057V141.979V141.9V141.821V141.742V141.663V141.584V141.506V141.427V141.348V141.269V141.19V141.111V141.032V140.954V140.875V140.796V140.717V140.638V140.559V140.48V140.402V140.323V140.244V140.165V140.086V140.007V139.928V139.85V139.771V139.692V139.613V139.534V139.455V139.376V139.298V139.219V139.14V139.061V138.982V138.903V138.824V138.745V138.667V138.588V138.509V138.43V138.351V138.272V138.193V138.114V138.036V137.957V137.878V137.799V137.72V137.641V137.562V137.483V137.404V137.326V137.247V137.168V137.089V137.01V136.931V136.852V136.773V136.694V136.616V136.537V136.458V136.379V136.3V136.221V136.142V136.063V135.984V135.905V135.826V135.748V135.669V135.59V135.511V135.432V135.353V135.274V135.195V135.116V135.037V134.958V134.879V134.801V134.722V134.643V134.564V134.485V134.406V134.327V134.248V134.169V134.09V134.011V133.932V133.853V133.774V133.695V133.616V133.538V133.459V133.38V133.301V133.222V133.143V133.064V132.985V132.906V132.827V132.748V132.669V132.59V132.511V132.432V132.353V132.274V132.195V132.116V132.037V131.958V131.879V131.8V131.721V131.642V131.563V131.484V131.405V131.326V131.247V131.168V131.089V131.01V130.931V130.852V130.773V130.694V130.615V130.536V130.457V130.378V130.299V130.22V130.141V130.062V129.983V129.904V129.825V129.746V129.667V129.588V129.509V129.43V129.351V129.272V129.193V129.114V129.035V128.956V128.876V128.797V128.718V128.639V128.56V128.481V128.402V128.323V128.244V128.165V128.086V128.007V127.928V127.849V127.769V127.69V127.611V127.588C397.117 133.467 398.879 139.364 400.641 145.262C402.633 151.93 404.625 158.599 406.588 165.239Z" stroke="white" stroke-width="0.75"/>
<path d="M352.625 180.755L342.406 165.324C344.207 158.666 346.034 151.98 347.862 145.293C349.455 139.463 351.049 133.632 352.625 127.819V127.854V127.933V128.013V128.092V128.171V128.25V128.33V128.409V128.488V128.567V128.646V128.726V128.805V128.884V128.963V129.043V129.122V129.201V129.28V129.359V129.439V129.518V129.597V129.676V129.755V129.834V129.914V129.993V130.072V130.151V130.23V130.309V130.389V130.468V130.547V130.626V130.705V130.784V130.864V130.943V131.022V131.101V131.18V131.259V131.338V131.418V131.497V131.576V131.655V131.734V131.813V131.892V131.972V132.051V132.13V132.209V132.288V132.367V132.446V132.525V132.604V132.683V132.763V132.842V132.921V133V133.079V133.158V133.237V133.316V133.395V133.474V133.553V133.633V133.712V133.791V133.87V133.949V134.028V134.107V134.186V134.265V134.344V134.423V134.502V134.581V134.66V134.739V134.818V134.898V134.977V135.056V135.135V135.214V135.293V135.372V135.451V135.53V135.609V135.688V135.767V135.846V135.925V136.004V136.083V136.162V136.241V136.32V136.399V136.478V136.557V136.636V136.715V136.794V136.873V136.952V137.031V137.11V137.189V137.268V137.347V137.426V137.505V137.584V137.663V137.742V137.821V137.9V137.979V138.058V138.137V138.216V138.295V138.374V138.453V138.532V138.61V138.689V138.768V138.847V138.926V139.005V139.084V139.163V139.242V139.321V139.4V139.479V139.558V139.637V139.716V139.795V139.874V139.953V140.031V140.11V140.189V140.268V140.347V140.426V140.505V140.584V140.663V140.742V140.821V140.9V140.978V141.057V141.136V141.215V141.294V141.373V141.452V141.531V141.61V141.689V141.767V141.846V141.925V142.004V142.083V142.162V142.241V142.32V142.399V142.477V142.556V142.635V142.714V142.793V142.872V142.951V143.03V143.108V143.187V143.266V143.345V143.424V143.503V143.582V143.66V143.739V143.818V143.897V143.976V144.055V144.134V144.212V144.291V144.37V144.449V144.528V144.607V144.685V144.764V144.843V144.922V145.001V145.08V145.158V145.237V145.316V145.395V145.474V145.553V145.631V145.71V145.789V145.868V145.947V146.026V146.104V146.183V146.262V146.341V146.42V146.498V146.577V146.656V146.735V146.814V146.892V146.971V147.05V147.129V147.208V147.286V147.365V147.444V147.523V147.602V147.68V147.759V147.838V147.917V147.996V148.074V148.153V148.232V148.311V148.389V148.468V148.547V148.626V148.705V148.783V148.862V148.941V149.02V149.098V149.177V149.256V149.335V149.414V149.492V149.571V149.65V149.729V149.807V149.886V149.965V150.044V150.122V150.201V150.28V150.359V150.437V150.516V150.595V150.674V150.752V150.831V150.91V150.989V151.067V151.146V151.225V151.304V151.382V151.461V151.54V151.619V151.697V151.776V151.855V151.934V152.012V152.091V152.17V152.249V152.327V152.406V152.485V152.563V152.642V152.721V152.8V152.878V152.957V153.036V153.115V153.193V153.272V153.351V153.429V153.508V153.587V153.666V153.744V153.823V153.902V153.981V154.059V154.138V154.217V154.295V154.374V154.453V154.532V154.61V154.689V154.768V154.846V154.925V155.004V155.082V155.161V155.24V155.319V155.397V155.476V155.555V155.633V155.712V155.791V155.87V155.948V156.027V156.106V156.184V156.263V156.342V156.42V156.499V156.578V156.656V156.735V156.814V156.893V156.971V157.05V157.129V157.207V157.286V157.365V157.443V157.522V157.601V157.679V157.758V157.837V157.916V157.994V158.073V158.152V158.23V158.309V158.388V158.466V158.545V158.624V158.702V158.781V158.86V158.938V159.017V159.096V159.174V159.253V159.332V159.41V159.489V159.568V159.646V159.725V159.804V159.883V159.961V160.04V160.119V160.197V160.276V160.355V160.433V160.512V160.591V160.669V160.748V160.827V160.905V160.984V161.063V161.141V161.22V161.299V161.377V161.456V161.535V161.613V161.692V161.771V161.849V161.928V162.007V162.085V162.164V162.243V162.321V162.4V162.479V162.557V162.636V162.715V162.793V162.872V162.951V163.029V163.108V163.187V163.265V163.344V163.423V163.501V163.58V163.659V163.737V163.816V163.895V163.973V164.052V164.131V164.209V164.288V164.367V164.445V164.524V164.603V164.681V164.76V164.839V164.917V164.996V165.075V165.153V165.232V165.311V165.389V165.421V165.453V165.485V165.517V165.549V165.581V165.613V165.645V165.677V165.709V165.741V165.773V165.805V165.837V165.869V165.902V165.934V165.966V165.998V166.03V166.062V166.094V166.126V166.158V166.19V166.222V166.254V166.286V166.318V166.35V166.382V166.414V166.447V166.479V166.511V166.543V166.575V166.607V166.639V166.671V166.703V166.735V166.768V166.8V166.832V166.864V166.896V166.928V166.96V166.992V167.024V167.057V167.089V167.121V167.153V167.185V167.217V167.249V167.281V167.314V167.346V167.378V167.41V167.442V167.474V167.507V167.539V167.571V167.603V167.635V167.667V167.7V167.732V167.764V167.796V167.828V167.86V167.893V167.925V167.957V167.989V168.021V168.054V168.086V168.118V168.15V168.182V168.215V168.247V168.279V168.311V168.343V168.376V168.408V168.44V168.472V168.505V168.537V168.569V168.601V168.633V168.666V168.698V168.73V168.762V168.795V168.827V168.859V168.891V168.924V168.956V168.988V169.02V169.053V169.085V169.117V169.15V169.182V169.214V169.246V169.279V169.311V169.343V169.375V169.408V169.44V169.472V169.505V169.537V169.569V169.601V169.634V169.666V169.698V169.731V169.763V169.795V169.828V169.86V169.892V169.925V169.957V169.989V170.021V170.054V170.086V170.118V170.151V170.183V170.215V170.248V170.28V170.312V170.345V170.377V170.409V170.442V170.474V170.506V170.539V170.571V170.604V170.636V170.668V170.701V170.733V170.765V170.798V170.83V170.862V170.895V170.927V170.96V170.992V171.024V171.057V171.089V171.121V171.154V171.186V171.219V171.251V171.283V171.316V171.348V171.381V171.413V171.445V171.478V171.51V171.543V171.575V171.607V171.64V171.672V171.705V171.737V171.769V171.802V171.834V171.867V171.899V171.931V171.964V171.996V172.029V172.061V172.094V172.126V172.158V172.191V172.223V172.256V172.288V172.321V172.353V172.386V172.418V172.45V172.483V172.515V172.548V172.58V172.613V172.645V172.678V172.71V172.743V172.775V172.807V172.84V172.872V172.905V172.937V172.97V173.002V173.035V173.067V173.1V173.132V173.165V173.197V173.23V173.262V173.295V173.327V173.36V173.392V173.424V173.457V173.489V173.522V173.554V173.587V173.619V173.652V173.684V173.717V173.749V173.782V173.814V173.847V173.879V173.912V173.944V173.977V174.01V174.042V174.075V174.107V174.14V174.172V174.205V174.237V174.27V174.302V174.335V174.367V174.4V174.432V174.465V174.497V174.53V174.562V174.595V174.627V174.66V174.693V174.725V174.758V174.79V174.823V174.855V174.888V174.92V174.953V174.985V175.018V175.051V175.083V175.116V175.148V175.181V175.213V175.246V175.278V175.311V175.344V175.376V175.409V175.441V175.474V175.506V175.539V175.571V175.604V175.637V175.669V175.702V175.734V175.767V175.799V175.832V175.865V175.897V175.93V175.962V175.995V176.027V176.06V176.093V176.125V176.158V176.19V176.223V176.256V176.288V176.321V176.353V176.386V176.419V176.451V176.484V176.516V176.549V176.581V176.614V176.647V176.679V176.712V176.744V176.777V176.81V176.842V176.875V176.907V176.94V176.973V177.005V177.038V177.07V177.103V177.136V177.168V177.201V177.234V177.266V177.299V177.331V177.364V177.397V177.429V177.462V177.494V177.527V177.56V177.592V177.625V177.658V177.69V177.723V177.755V177.788V177.821V177.853V177.886V177.919V177.951V177.984V178.016V178.049V178.082V178.114V178.147V178.18V178.212V178.245V178.277V178.31V178.343V178.375V178.408V178.441V178.473V178.506V178.539V178.571V178.604V178.636V178.669V178.702V178.734V178.767V178.8V178.832V178.865V178.898V178.93V178.963V178.995V179.028V179.061V179.093V179.126V179.159V179.191V179.224V179.257V179.289V179.322V179.355V179.387V179.42V179.453V179.485V179.518V179.55V179.583V179.616V179.648V179.681V179.714V179.746V179.779V179.812V179.844V179.877V179.91V179.942V179.975V180.008V180.04V180.073V180.106V180.138V180.171V180.204V180.236V180.269V180.302V180.334V180.367V180.4V180.432V180.465V180.497V180.53V180.563V180.595V180.628V180.661V180.693V180.726V180.755Z" stroke="white" stroke-width="0.75"/>
<path d="M416 283C409.458 276.689 401.194 267.049 394.422 253.852C382.83 231.361 381.797 210.246 382.026 199" stroke="white" stroke-width="0.75" stroke-miterlimit="10" stroke-linecap="round" stroke-linejoin="round"/>
<path d="M334 288C340.757 280.096 348.68 269.327 355.437 255.352C365.456 234.732 368.835 215.83 370 203" stroke="white" stroke-width="0.75" stroke-miterlimit="10" stroke-linecap="round" stroke-linejoin="round"/>
<path d="M351 247C354.929 238.472 359.214 227.555 362.19 214.478C365.286 200.719 366 188.552 366 179" stroke="white" stroke-width="0.75" stroke-miterlimit="10" stroke-linecap="round" stroke-linejoin="round"/>
<path d="M380 231C378.887 223.685 377.976 215.581 377.47 206.915C376.66 193.185 376.964 180.804 377.875 170" stroke="white" stroke-width="0.75" stroke-miterlimit="10" stroke-linecap="round" stroke-linejoin="round"/>
<path fill-rule="evenodd" clip-rule="evenodd" d="M375.664 114.488V98.6052H381.035L381.835 92.4349H375.664V88.5499C375.664 86.7216 376.121 85.579 378.75 85.579H382.063V80.0942C380.463 79.98 378.864 79.8657 377.264 79.8657C372.579 79.8657 369.265 82.7224 369.265 87.9786V92.5492H363.895V98.7195H369.265V114.488H375.664Z" fill="white"/>
<path d="M85.3999 431.1V475.1" stroke="white" stroke-width="0.75" stroke-miterlimit="10" stroke-linecap="round" stroke-linejoin="round"/>
<path d="M100.2 435.9V479.6" stroke="white" stroke-width="0.75" stroke-miterlimit="10" stroke-linecap="round" stroke-linejoin="round"/>
<path d="M119 439.2V483.1" stroke="white" stroke-width="0.75" stroke-miterlimit="10" stroke-linecap="round" stroke-linejoin="round"/>
<path d="M136.8 441.4V485.1" stroke="white" stroke-width="0.75" stroke-miterlimit="10" stroke-linecap="round" stroke-linejoin="round"/>
<path d="M154.6 442.8V486.1" stroke="white" stroke-width="0.75" stroke-miterlimit="10" stroke-linecap="round" stroke-linejoin="round"/>
<path d="M173.4 443.5V487.1" stroke="white" stroke-width="0.75" stroke-miterlimit="10" stroke-linecap="round" stroke-linejoin="round"/>
<path d="M192.2 443.6V487.6" stroke="white" stroke-width="0.75" stroke-miterlimit="10" stroke-linecap="round" stroke-linejoin="round"/>
<path d="M211 443.6V487.6" stroke="white" stroke-width="0.75" stroke-miterlimit="10" stroke-linecap="round" stroke-linejoin="round"/>
<path d="M229.8 442.6V486.6" stroke="white" stroke-width="0.75" stroke-miterlimit="10" stroke-linecap="round" stroke-linejoin="round"/>
<path d="M247.6 441.4V485.4" stroke="white" stroke-width="0.75" stroke-miterlimit="10" stroke-linecap="round" stroke-linejoin="round"/>
<path d="M265.4 439.1V483.1" stroke="white" stroke-width="0.75" stroke-miterlimit="10" stroke-linecap="round" stroke-linejoin="round"/>
<path d="M284.2 435.7V479.7" stroke="white" stroke-width="0.75" stroke-miterlimit="10" stroke-linecap="round" stroke-linejoin="round"/>
<path d="M299 431.1V475.1" stroke="white" stroke-width="0.75" stroke-miterlimit="10" stroke-linecap="round" stroke-linejoin="round"/>
</svg>
