<svg width="2100" height="870" viewBox="0 0 2100 870" fill="none" xmlns="http://www.w3.org/2000/svg">
<g clip-path="url(#clip0)">
<path opacity="0.1" d="M1159.75 0L1235.54 116.89H1319.37L1328.61 5.00181" stroke="#111111" stroke-width="0.75" stroke-miterlimit="10"/>
<path opacity="0.2" d="M253.76 704.557L254.096 704.389L254.089 704.377L253.76 704.557ZM315.522 620.396L315.448 620.763L315.448 620.763L315.522 620.396ZM328.57 629.421L328.244 629.606L328.245 629.608L328.57 629.421ZM265.177 714.016L265.079 714.378L265.084 714.38L265.177 714.016ZM345.424 642.359L345.749 642.172L345.744 642.163L345.424 642.359ZM282.032 726.955L281.938 727.318L281.939 727.319L282.032 726.955ZM260.719 697.598L260.382 697.762L260.391 697.78L260.401 697.796L260.719 697.598ZM309.106 632.03L309.052 632.401L309.053 632.401L309.106 632.03ZM318.24 638.228L318.573 638.056L318.571 638.052L318.24 638.228ZM268.657 704.122L268.579 704.488L268.58 704.489L268.657 704.122ZM254.089 704.377C250.515 697.816 250.659 688.955 253.419 679.385C256.175 669.825 261.524 659.619 268.266 650.424C275.008 641.229 283.129 633.064 291.415 627.574C299.709 622.077 308.114 619.296 315.448 620.763L315.595 620.028C307.979 618.505 299.366 621.405 291 626.949C282.625 632.498 274.443 640.732 267.661 649.981C260.879 659.23 255.484 669.514 252.698 679.177C249.915 688.829 249.72 697.923 253.431 704.736L254.089 704.377ZM315.448 620.763C316.524 620.978 324.309 622.693 328.244 629.606L328.896 629.235C324.785 622.013 316.694 620.248 315.595 620.028L315.448 620.763ZM328.245 629.608C331.807 635.776 331.43 644.528 328.339 654.16C325.252 663.777 319.485 674.188 312.395 683.603C305.305 693.018 296.907 701.416 288.574 707.016C280.225 712.627 272.017 715.38 265.27 713.653L265.084 714.38C272.147 716.187 280.589 713.286 288.992 707.639C297.411 701.981 305.867 693.519 312.994 684.055C320.121 674.59 325.934 664.105 329.053 654.39C332.166 644.691 332.617 635.679 328.895 629.233L328.245 629.608ZM265.276 713.655C258.257 711.74 254.733 705.665 254.096 704.389L253.425 704.724C254.092 706.058 257.744 712.378 265.079 714.378L265.276 713.655ZM342.332 639.036C343.291 639.996 344.251 641.169 345.105 642.556L345.744 642.163C344.857 640.723 343.86 639.504 342.862 638.506L342.332 639.036ZM345.099 642.547C348.662 648.715 348.285 657.467 345.193 667.099C342.106 676.715 336.339 687.127 329.249 696.542C322.159 705.957 313.761 714.355 305.428 719.955C297.08 725.565 288.871 728.319 282.125 726.592L281.939 727.319C289.001 729.126 297.443 726.225 305.846 720.578C314.265 714.92 322.721 706.458 329.848 696.993C336.975 687.529 342.789 677.043 345.907 667.329C349.02 657.63 349.472 648.617 345.749 642.172L345.099 642.547ZM282.125 726.592C278.832 725.742 276.388 724.043 274.577 722.232L274.046 722.762C275.932 724.648 278.49 726.429 281.938 727.318L282.125 726.592ZM261.056 697.433C258.757 692.728 259.223 686.132 261.633 678.862C264.037 671.607 268.351 663.755 273.634 656.596C278.918 649.436 285.156 642.987 291.397 638.528C297.65 634.06 303.842 631.634 309.052 632.401L309.161 631.659C303.66 630.849 297.266 633.412 290.961 637.918C284.642 642.433 278.349 648.943 273.031 656.151C267.712 663.358 263.355 671.279 260.921 678.626C258.491 685.956 257.952 692.79 260.382 697.762L261.056 697.433ZM309.053 632.401C309.798 632.508 315.282 633.466 317.909 638.404L318.571 638.052C315.761 632.769 309.937 631.77 309.159 631.659L309.053 632.401ZM317.907 638.401C320.196 642.821 319.559 649.348 316.899 656.684C314.247 663.997 309.62 672.017 304.077 679.349C298.535 686.68 292.09 693.304 285.818 697.834C279.525 702.378 273.49 704.753 268.734 703.755L268.58 704.489C273.665 705.556 279.93 703.011 286.257 698.442C292.605 693.858 299.1 687.176 304.676 679.801C310.251 672.426 314.921 664.34 317.604 656.939C320.279 649.562 321.014 642.769 318.573 638.056L317.907 638.401ZM268.735 703.755C263.808 702.707 261.604 698.306 261.037 697.399L260.401 697.796C260.922 698.629 263.284 703.362 268.579 704.488L268.735 703.755ZM275.011 703.764C274.584 698.765 275.973 692.707 278.633 686.368C281.29 680.035 285.201 673.453 289.779 667.419C294.357 661.385 299.595 655.908 304.899 651.781C310.21 647.65 315.557 644.894 320.356 644.254L320.257 643.511C315.27 644.176 309.798 647.02 304.439 651.19C299.073 655.364 293.791 660.89 289.181 666.966C284.571 673.042 280.626 679.678 277.941 686.078C275.259 692.471 273.822 698.659 274.264 703.828L275.011 703.764ZM258.097 710.506L276.691 724.968L277.151 724.376L258.557 709.914L258.097 710.506ZM326.161 626.343L342.907 639.718L343.375 639.132L326.629 625.757L326.161 626.343Z" fill="#111111"/>
<path opacity="0.15" d="M1711 308.948L1710.64 308.86L1710.61 308.983L1710.66 309.098L1711 308.948ZM1723.21 258.604L1723.17 258.231L1722.91 258.26L1722.85 258.515L1723.21 258.604ZM1879.17 241.255L1879.53 241.343L1879.66 240.824L1879.13 240.883L1879.17 241.255ZM1867.04 291.515L1867.08 291.887L1867.34 291.858L1867.4 291.603L1867.04 291.515ZM1886 256.137L1886.36 256.226L1886.39 256.104L1886.34 255.988L1886 256.137ZM1873.79 306.482L1873.83 306.855L1874.09 306.825L1874.15 306.57L1873.79 306.482ZM1711.36 309.037L1723.58 258.692L1722.85 258.515L1710.64 308.86L1711.36 309.037ZM1723.25 258.977L1879.21 241.628L1879.13 240.883L1723.17 258.231L1723.25 258.977ZM1878.8 241.167L1866.68 291.427L1867.4 291.603L1879.53 241.343L1878.8 241.167ZM1867 291.142L1710.96 308.576L1711.04 309.321L1867.08 291.887L1867 291.142ZM1885.64 256.049L1873.42 306.393L1874.15 306.57L1886.36 256.226L1885.64 256.049ZM1873.75 306.109L1717.79 323.543L1717.87 324.288L1873.83 306.855L1873.75 306.109ZM1710.66 309.098L1717.23 324.15L1717.92 323.85L1711.34 308.798L1710.66 309.098ZM1866.87 291.749L1873.36 306.632L1874.04 306.332L1867.55 291.45L1866.87 291.749ZM1879.08 241.149L1885.66 256.287L1886.34 255.988L1879.77 240.851L1879.08 241.149Z" fill="#111111"/>
</g>
<defs>
<clipPath id="clip0">
<rect width="2100" height="870" fill="white"/>
</clipPath>
</defs>
</svg>
