<svg xmlns="http://www.w3.org/2000/svg" width="28" height="28" viewBox="0 0 28 28"><g class="nc-icon-wrapper" fill="#ffffff"><path d="M23 13.768c0 4.843-3.956 8.768-8.836 8.768a8.853 8.853 0 0 1-4.272-1.09L5 23l1.595-4.704a8.678 8.678 0 0 1-1.268-4.528C5.327 8.926 9.283 5 14.164 5 19.044 5 23 8.926 23 13.768zm-8.836-7.372c-4.097 0-7.43 3.308-7.43 7.372 0 1.613.526 3.107 1.415 4.322l-.93 2.738 2.856-.908a7.425 7.425 0 0 0 4.088 1.22c4.096 0 7.43-3.307 7.43-7.372 0-4.064-3.334-7.372-7.43-7.372zm4.462 9.39c-.055-.088-.2-.142-.415-.25-.216-.107-1.282-.627-1.48-.698-.2-.072-.343-.108-.487.107-.145.216-.56.7-.686.842-.127.144-.253.162-.47.054-.216-.106-.914-.333-1.74-1.065-.645-.57-1.08-1.273-1.206-1.488-.126-.215-.013-.332.096-.44.097-.095.216-.25.325-.375.11-.126.145-.215.217-.36.073-.142.036-.267-.018-.375-.055-.108-.488-1.165-.67-1.595-.18-.43-.36-.36-.486-.36-.127 0-.27-.017-.415-.017a.8.8 0 0 0-.58.27c-.197.214-.757.734-.757 1.79 0 1.06.776 2.08.884 2.224.11.142 1.498 2.383 3.7 3.244 2.203.86 2.203.573 2.6.537.397-.035 1.28-.52 1.462-1.02.18-.502.18-.933.126-1.023z" fill="#ffffff" fill-rule="evenodd"></path></g></svg>