<svg width="461" height="526" viewBox="0 0 461 526" fill="none" xmlns="http://www.w3.org/2000/svg">
<g clip-path="url(#clip0)">
<path d="M266.264 52.9482C272.949 52.9482 278.368 47.8016 278.368 41.4529C278.368 35.1042 272.949 29.9575 266.264 29.9575C259.579 29.9575 254.16 35.1042 254.16 41.4529C254.16 47.8016 259.579 52.9482 266.264 52.9482Z" stroke="#111111" stroke-width="0.75" stroke-miterlimit="10" stroke-linecap="round" stroke-linejoin="round"/>
<path d="M266.264 49.6388C271.025 49.6388 274.885 45.9737 274.885 41.4527C274.885 36.9316 271.025 33.2666 266.264 33.2666C261.503 33.2666 257.643 36.9316 257.643 41.4527C257.643 45.9737 261.503 49.6388 266.264 49.6388Z" fill="#111111" stroke="black" stroke-width="0.75" stroke-miterlimit="10" stroke-linecap="round" stroke-linejoin="round"/>
<path d="M287.599 73.4135C287.947 72.0201 288.209 70.1913 288.209 68.0142C288.209 65.4887 287.773 63.3986 287.251 61.8311" stroke="#111111" stroke-width="0.75" stroke-miterlimit="10" stroke-linecap="round" stroke-linejoin="round"/>
<path d="M223.159 70.0173C224.378 68.6239 226.294 66.1855 227.252 62.8762C229.69 54.7772 224.552 50.5971 227.164 42.8464C227.687 41.2789 229.777 36.1408 234.741 34.1378C237.266 33.0928 239.878 33.4411 241.968 33.7024C242.491 33.7895 247.803 34.312 247.977 35.7054C248.064 36.4021 246.758 37.0987 245.887 37.36C243.275 38.3179 241.533 37.0117 239.095 37.1858C237.527 37.2729 235.437 37.9696 232.999 40.5822" stroke="#111111" stroke-width="0.75" stroke-miterlimit="10" stroke-linecap="round" stroke-linejoin="round"/>
<path d="M245.016 37.4473C246.061 37.8827 246.845 38.4923 246.845 39.189C246.845 40.1469 245.364 40.8436 244.32 41.0178C244.145 41.0178 243.884 41.0178 243.449 41.0178C242.142 41.0178 241.097 40.9307 240.923 40.8436C240.836 40.8436 238.311 40.5824 236.308 41.7145C234.479 42.8466 233.87 44.8496 233.696 45.6334" stroke="#111111" stroke-width="0.75" stroke-miterlimit="10" stroke-linecap="round" stroke-linejoin="round"/>
<path d="M243.449 41.0176C244.145 41.0176 244.755 41.3659 245.016 41.8884C245.452 42.7593 244.842 43.6302 244.842 43.6302C244.407 44.2398 243.71 44.4139 242.578 44.5881C240.14 44.9365 239.182 44.3268 238.05 44.9365C237.614 45.1977 237.092 45.6331 236.743 46.504C236.569 48.4199 236.395 50.2487 236.134 52.1646" stroke="#111111" stroke-width="0.75" stroke-miterlimit="10" stroke-linecap="round" stroke-linejoin="round"/>
<path d="M245.103 58.2607C244.232 58.8703 242.839 59.9154 241.272 61.2217C238.746 63.3988 239.007 63.573 237.005 65.3147C234.218 67.7531 232.999 67.9273 229.341 71.0624C228.645 71.672 228.122 72.1074 227.774 72.4558" stroke="#111111" stroke-width="0.75" stroke-miterlimit="10" stroke-linecap="round" stroke-linejoin="round"/>
<path d="M228.993 39.1017C229.69 36.315 230.299 33.9636 230.735 32.309C232.215 26.9097 232.041 28.1289 233.521 23.0779C234.653 18.8977 235.089 16.9819 235.96 16.8948C236.743 16.8077 237.527 18.114 237.788 18.8977C238.833 21.4232 237.44 23.4262 236.395 27.6064C236.047 28.9126 235.611 30.9156 235.437 33.4411" stroke="#111111" stroke-width="0.75" stroke-miterlimit="10" stroke-linecap="round" stroke-linejoin="round"/>
<path d="M247.193 24.2097C247.803 23.0776 247.541 22.468 247.454 22.2067C246.671 20.5521 242.665 20.2908 241.62 21.8584C241.185 22.468 241.359 23.3389 241.533 23.7743" fill="white"/>
<path d="M247.193 24.2097C247.803 23.0776 247.541 22.468 247.454 22.2067C246.671 20.5521 242.665 20.2908 241.62 21.8584C241.185 22.468 241.359 23.3389 241.533 23.7743" stroke="#111111" stroke-width="0.75" stroke-miterlimit="10" stroke-linecap="round" stroke-linejoin="round"/>
<path d="M273.927 463.385C269.921 462.514 265.916 461.556 261.997 460.686" stroke="#111111" stroke-width="0.75" stroke-miterlimit="10" stroke-linecap="round" stroke-linejoin="round"/>
<path d="M274.363 455.025C270.88 454.85 267.309 454.589 263.826 454.415" stroke="#111111" stroke-width="0.75" stroke-miterlimit="10" stroke-linecap="round" stroke-linejoin="round"/>
<path d="M211.751 463.82C209.835 463.733 208.007 463.646 206.091 463.559" stroke="#111111" stroke-width="0.75" stroke-miterlimit="10" stroke-linecap="round" stroke-linejoin="round"/>
<path d="M214.102 455.112C210.532 455.721 206.961 456.331 203.391 456.941" stroke="#111111" stroke-width="0.75" stroke-miterlimit="10" stroke-linecap="round" stroke-linejoin="round"/>
<path d="M199.385 271.273C201.475 270.402 204.523 268.661 207.397 265.526C212.97 259.255 213.318 251.853 213.318 249.589" stroke="#111111" stroke-width="0.75" stroke-miterlimit="10" stroke-linecap="round" stroke-linejoin="round"/>
<path d="M247.454 108.771C245.539 107.551 241.097 104.242 238.485 98.2332C235.437 91.2663 236.83 84.9961 237.353 82.9932" stroke="#111111" stroke-width="0.75" stroke-miterlimit="10" stroke-linecap="round" stroke-linejoin="round"/>
<path d="M222.897 76.984C223.594 77.7678 229.342 83.8638 236.831 83.08C240.923 82.6446 243.71 80.2932 245.539 78.8999C246.932 77.7677 248.238 76.4615 252.854 68.885C255.292 64.879 257.033 61.831 258.253 59.3926" stroke="#111111" stroke-width="0.75" stroke-miterlimit="10" stroke-linecap="round" stroke-linejoin="round"/>
<path d="M212.622 48.9423C209.748 48.0714 207.223 48.8552 206.439 50.7711C205.394 53.4708 208.355 57.3897 210.184 59.1314C211.751 60.6118 213.318 61.1344 214.276 61.3956C215.06 64.0082 216.279 67.4916 218.369 71.1493C220.024 74.1102 221.852 76.4615 223.333 78.1162" stroke="#111111" stroke-width="0.75" stroke-miterlimit="10" stroke-linecap="round" stroke-linejoin="round"/>
<path d="M213.928 57.5637C213.231 56.6058 212.535 55.4737 212.796 54.6028C213.144 53.3836 214.973 53.4707 214.886 52.9482C214.886 52.0773 209.574 50.1614 208.877 51.7289C208.355 52.9482 210.619 55.5607 211.229 56.1703" stroke="#111111" stroke-width="0.75" stroke-miterlimit="10" stroke-linecap="round" stroke-linejoin="round"/>
<path d="M245.277 71.846C244.32 72.1943 241.707 73.0652 238.398 72.3685C235.263 71.6718 233.26 69.9301 232.563 69.2334" stroke="#111111" stroke-width="0.75" stroke-miterlimit="10" stroke-linecap="round" stroke-linejoin="round"/>
<path d="M240.923 62.3535C243.449 62.5277 245.19 61.831 245.365 60.9601C245.365 60.873 245.452 60.2634 244.407 59.3926" stroke="#111111" stroke-width="0.75" stroke-miterlimit="10" stroke-linecap="round" stroke-linejoin="round"/>
<path d="M254.769 27.7806C255.727 28.8256 255.031 31.0028 253.637 31.3511C252.854 31.5253 251.983 31.177 251.46 30.5674C250.676 29.6094 250.851 28.0419 252.07 27.3452C252.854 26.8227 254.16 27.0839 254.769 27.7806Z" stroke="#111111" stroke-width="0.75" stroke-miterlimit="10" stroke-linecap="round" stroke-linejoin="round"/>
<path d="M276.714 53.2965C275.233 54.3415 272.099 56.1703 267.744 56.5187C259.385 57.1283 253.637 51.5548 252.854 50.771" stroke="#111111" stroke-width="0.75" stroke-miterlimit="10" stroke-linecap="round" stroke-linejoin="round"/>
<path d="M289.08 28.1287C289.341 26.6483 289.602 25.2549 289.863 23.7744" stroke="#111111" stroke-width="0.75" stroke-miterlimit="10" stroke-linecap="round" stroke-linejoin="round"/>
<path d="M286.554 27.6932C286.728 26.1256 286.99 24.6452 287.164 23.0776" stroke="#111111" stroke-width="0.75" stroke-miterlimit="10" stroke-linecap="round" stroke-linejoin="round"/>
<path d="M279.936 491.166C279.239 491.601 274.45 494.736 274.014 500.397C273.84 502.835 274.537 504.838 275.059 505.97" stroke="#111111" stroke-width="0.75" stroke-miterlimit="10" stroke-linecap="round" stroke-linejoin="round"/>
<path d="M277.846 469.568C277.672 470.265 277.585 471.049 277.498 471.92C277.324 474.097 277.585 475.926 277.846 477.319C277.498 477.319 277.149 477.406 276.801 477.406C276.453 477.406 276.366 477.406 276.279 477.493C275.93 477.58 275.321 477.667 274.972 478.016C274.711 478.364 274.798 478.712 274.711 479.061C274.363 480.106 272.447 479.757 271.141 480.715C269.486 481.847 270.618 483.85 269.051 485.766C267.919 487.247 265.829 487.943 263.913 487.508C261.649 486.898 259.907 484.547 259.646 481.586C259.733 480.715 259.82 479.757 259.82 478.799C259.994 475.751 259.907 472.878 259.733 470.265C262.171 470.875 265.48 471.397 269.486 471.223C272.882 470.875 275.756 470.265 277.846 469.568Z" fill="#FFF10E"/>
<path d="M218.718 472.529C219.153 475.664 219.501 478.799 219.937 482.022C219.676 482.022 218.108 481.76 216.715 482.98C215.409 484.112 215.409 485.766 215.409 485.94C215.409 486.637 215.321 488.466 214.102 489.946C212.796 491.514 211.054 491.862 209.226 492.211C207.31 492.559 204.436 493.169 202.259 491.427C201.214 490.643 200.779 489.598 200.518 488.901C200.605 487.856 200.779 486.463 200.866 484.895C200.866 484.895 200.953 483.502 201.04 482.109C201.301 478.103 201.214 473.139 201.214 472.094C202.695 472.965 206.091 474.619 210.706 474.445C214.364 474.532 217.237 473.313 218.718 472.529Z" fill="#FFF10E"/>
<path d="M296.482 87.086C298.746 114.17 300.574 136.116 288.383 145.26C285.422 147.524 279.588 150.485 268.354 149.527C268.528 150.746 268.877 153.359 269.486 156.755C277.411 204.565 293.085 228.601 281.068 241.751C280.458 242.448 279.065 243.841 276.801 245.147C276.888 246.889 276.975 248.544 277.062 250.285C273.144 251.243 267.396 252.375 260.343 252.985C250.154 253.856 243.188 252.898 228.558 251.418C221.678 250.721 211.229 249.676 198.253 248.544C197.818 247.237 197.295 245.844 196.86 244.538C195.902 243.754 194.509 242.535 193.29 240.793C185.627 230.081 192.854 214.406 196.425 204.217C200.343 192.983 204.001 176.262 201.998 153.097C201.388 153.881 198.166 158.061 193.116 158.322C186.149 158.758 181.882 151.617 181.36 150.746C178.312 145.434 179.27 139.338 182.492 129.845C191.809 102.326 207.136 84.2993 210.358 80.6417C215.583 74.6327 220.285 70.0172 223.333 67.2304C223.594 67.1433 225.336 66.4466 227.077 67.3175C228.645 68.0142 229.603 69.5817 229.516 71.3235C227.774 74.894 226.12 78.6387 224.465 82.4705C222.114 87.8698 220.024 93.1821 218.195 98.3201C222.288 99.8006 228.122 101.281 234.915 100.149C236.308 99.8877 236.221 99.8006 237.266 99.6264C248.151 97.7976 259.559 106.506 266.7 112.08C272.012 116.26 272.273 117.827 273.927 117.74C277.672 117.479 282.636 109.903 286.728 74.1102C287.164 73.849 288.644 72.8039 290.908 72.891C293.434 73.0652 294.914 74.5456 295.262 74.8069C295.524 77.5937 296.046 81.948 296.482 87.086Z" fill="#111111"/>
<path d="M273.927 240.967C276.714 262.39 278.281 280.33 279.326 293.219C280.546 308.807 284.203 360.188 281.329 429.247C280.894 439.523 280.458 447.971 280.11 453.718C281.852 455.721 283.68 457.637 285.422 459.64C283.68 459.901 281.852 460.163 280.11 460.424C281.068 462.34 281.939 464.256 282.897 466.085C282.113 467.043 281.329 468.001 280.458 468.958C277.759 469.916 273.927 470.874 269.225 471.049C263.826 471.223 259.385 470.265 256.511 469.394C255.205 467.826 253.899 466.259 252.505 464.691C254.16 463.559 255.814 462.427 257.469 461.295C255.64 459.989 253.811 458.769 251.896 457.463C253.028 455.983 254.16 454.502 255.292 453.022C251.373 342.509 246.322 287.21 240.227 287.123C234.044 287.036 226.816 343.467 218.543 456.418C220.72 458.073 222.985 459.727 225.162 461.382C223.072 462.862 220.895 464.43 218.805 465.91C219.937 467.478 221.069 469.046 222.201 470.613C220.807 471.658 217.237 474.097 212.099 474.358C205.917 474.706 201.562 471.919 200.256 471.049C200.43 468.784 200.605 466.433 200.779 464.169C199.037 463.211 197.295 462.253 195.641 461.382C196.599 458.856 197.47 456.331 198.427 453.805C196.947 452.673 195.467 451.541 193.986 450.409C194.944 449.19 195.902 448.058 196.86 446.839C197.644 377.344 198.427 307.849 199.124 238.354C224.03 239.225 248.935 240.096 273.927 240.967Z" stroke="#111111" stroke-width="0.75" stroke-miterlimit="10" stroke-linecap="round" stroke-linejoin="round"/>
<path d="M238.224 33.3539C238.572 30.1317 238.921 26.9966 239.269 23.7744C258.514 24.9936 277.759 26.2128 297.004 27.432C296.743 29.435 296.482 31.438 296.22 33.3539" stroke="#111111" stroke-width="0.75" stroke-miterlimit="10" stroke-linecap="round" stroke-linejoin="round"/>
<path d="M294.479 45.0234C293.782 50.7711 293.085 56.5188 292.389 62.2665C273.492 60.6989 254.508 59.0443 235.611 57.4767C235.96 53.8191 236.395 50.2486 236.743 46.591" stroke="#111111" stroke-width="0.75" stroke-miterlimit="10" stroke-linecap="round" stroke-linejoin="round"/>
<path d="M290.299 76.8102C293.695 73.3267 296.046 70.0174 297.613 67.579C301.619 61.1347 303.013 55.9095 304.057 51.5552C305.102 47.1138 305.102 45.1108 304.841 43.5433C304.493 41.1919 303.97 37.8827 300.574 35.4443C297.004 32.9188 291.518 32.0479 290.56 32.9188C290.037 33.4413 290.647 34.6605 291.605 35.2701C292.476 35.7926 293.259 35.8797 294.217 36.0539C297.526 36.6635 299.529 39.6244 299.616 39.7986C300.748 41.5403 300.835 43.3691 300.748 44.5883" stroke="#111111" stroke-width="0.75" stroke-miterlimit="10" stroke-linecap="round" stroke-linejoin="round"/>
<path d="M292.127 35.5311C290.734 35.444 289.602 35.8795 289.428 36.4891C289.167 37.3599 290.734 38.405 290.995 38.492C292.04 39.1887 293.085 39.2758 293.521 39.3629C294.827 39.6242 296.482 41.0175 297.962 46.2427" stroke="#111111" stroke-width="0.75" stroke-miterlimit="10" stroke-linecap="round" stroke-linejoin="round"/>
<path d="M292.563 39.2757C290.908 38.579 289.341 38.8402 288.905 39.624C288.47 40.4078 289.428 41.8882 290.473 42.4978C291.082 42.8462 291.431 42.7591 292.214 43.1075C293.346 43.5429 294.043 44.4137 294.478 45.0233" stroke="#111111" stroke-width="0.75" stroke-miterlimit="10" stroke-linecap="round" stroke-linejoin="round"/>
<path d="M296.917 28.1289C297.091 27.8677 298.397 26.3872 299.181 26.6485C299.704 26.8226 299.791 27.8677 299.791 29.6094C299.878 31.5253 299.617 31.6994 299.704 32.4832C299.965 34.7475 302.316 35.27 303.709 37.36C304.58 38.5792 305.277 40.4951 304.667 43.8915" stroke="#111111" stroke-width="0.75" stroke-miterlimit="10" stroke-linecap="round" stroke-linejoin="round"/>
<path d="M217.76 70.1044C217.324 70.2786 215.931 70.8011 214.364 70.2786C213.057 69.8432 211.577 68.7111 211.664 67.5789C211.751 66.4468 213.231 66.2726 213.231 65.4889C213.231 64.2697 209.574 64.2697 206.875 62.0054C204.349 59.9154 204.001 56.6932 203.565 53.0356C203.043 48.8554 204.088 48.7683 203.304 45.372C202.433 41.366 200.692 40.6693 201.04 37.9697C201.301 35.1829 203.13 35.1829 203.391 32.3962C203.74 28.9998 201.04 27.7806 201.824 25.2551C202.433 23.165 204.436 23.6005 206.352 21.075C208.964 17.5915 206.526 14.8918 209.139 11.7567C210.271 10.3634 211.925 9.66668 215.234 8.09913C218.108 6.79284 218.979 6.79284 220.546 5.48655C222.723 3.74483 222.549 2.52562 224.117 2.09019C226.207 1.48059 227.165 3.57065 229.864 3.74483C233.87 4.00608 235.263 -0.435306 238.746 -0.0869617C241.533 0.174297 241.272 2.87397 244.755 4.18026C249.283 5.83489 252.592 2.43853 255.379 4.44151C257.295 5.74781 256.163 7.57661 258.34 9.49251C260.256 11.1471 261.562 10.2763 264.958 11.8438C265.219 12.018 270.618 14.5435 270.357 16.9819C270.183 18.5495 267.483 19.2462 267.745 20.2912C268.006 21.2491 270.444 21.075 270.792 22.12C271.054 22.9038 270.009 24.0359 268.18 25.3422C258.862 24.7326 249.545 24.123 240.227 23.6005C239.878 26.7356 239.53 29.7836 239.269 32.9187C238.05 33.0058 236.744 33.1799 235.524 33.267C235.611 30.8286 236.047 28.9998 236.395 27.6935C236.918 26.0389 237.701 24.4713 238.05 21.9458C238.05 21.8587 238.311 20.3783 237.789 18.8107C237.614 18.2882 237.353 17.7657 236.918 17.3303C236.656 17.069 236.221 16.8077 235.96 16.8077C235.263 16.8077 234.305 18.6365 232.738 26.0389C231.954 28.4773 231.17 31.0028 230.387 33.4412C230.038 33.4412 229.516 33.5283 228.993 33.8766C227.861 34.5733 228.122 35.7054 227.252 36.4021C225.945 37.4471 224.639 36.4892 223.768 37.3601C223.072 38.1438 223.943 39.1889 223.768 42.0627C223.681 43.4561 223.594 44.2399 222.985 44.8495C222.027 45.8945 220.546 44.8495 219.501 45.7203C218.369 46.6783 219.501 48.3329 218.805 51.6422C218.456 53.2968 217.673 54.9514 217.15 54.9514C216.541 54.8644 217.063 52.7743 215.496 51.0326C214.538 49.9005 213.231 49.5521 212.622 49.2909C212.274 49.2038 208.877 48.1587 207.31 49.7263C206.352 50.7713 206.439 52.6001 206.962 53.9064C208.616 57.8253 215.06 59.7412 214.712 61.2217C214.712 61.3087 214.625 61.57 214.625 62.0054C214.625 62.7021 214.973 63.2246 215.06 63.4859C215.234 64.0084 215.496 64.7922 215.931 66.0114C216.628 67.7531 217.237 69.1465 217.76 70.1044Z" fill="#111111"/>
<path d="M215.844 486.463C215.67 485.766 215.495 484.547 216.192 483.589C216.889 482.544 218.369 482.283 221.156 481.935C223.681 481.586 224.987 481.412 225.771 482.109C226.729 482.893 226.468 484.025 226.903 485.679C227.164 486.637 227.687 487.595 232.912 492.124C236.395 495.172 237.527 495.956 239.095 497.523C239.269 497.697 240.488 499.004 241.881 500.397C242.665 501.268 242.839 501.355 242.839 501.355C246.235 504.49 250.415 505.796 255.727 507.277C259.907 508.496 262.52 508.844 263.652 511.021C264.174 512.066 264.174 513.112 264.087 513.808C263.652 513.112 263.216 512.502 262.868 511.805C260.43 511.892 257.991 511.979 255.64 512.066C255.379 513.721 255.118 515.289 254.856 516.943C249.98 518.511 245.887 519.469 242.839 520.078C234.828 521.733 230.125 522.691 223.942 521.82C219.24 521.211 215.147 519.643 214.102 519.295C209.4 517.553 209.574 516.856 205.917 515.724C199.472 513.721 195.902 515.202 194.509 512.763C193.899 511.718 194.16 510.499 194.77 507.973C195.815 503.358 197.47 502.487 198.689 498.829C200.517 493.517 199.385 489.076 200.343 488.902C200.953 488.815 201.127 490.992 202.956 492.124C204.872 493.343 207.31 492.646 209.574 491.95C211.49 491.427 213.406 490.817 214.451 489.163C215.234 487.769 214.625 486.986 215.234 486.376C217.15 484.547 224.813 489.685 226.903 491.079C229.603 492.908 233.173 495.52 236.918 499.178" stroke="#111111" stroke-width="0.75" stroke-miterlimit="10" stroke-linecap="round" stroke-linejoin="round"/>
<path d="M244.755 509.105C236.569 508.06 230.299 508.844 226.294 509.628C222.549 510.412 220.285 511.282 218.892 513.372C217.063 516.159 217.847 519.468 218.195 520.688" stroke="#111111" stroke-width="0.75" stroke-miterlimit="10" stroke-linecap="round" stroke-linejoin="round"/>
<path d="M262.868 511.718C263.216 512.153 263.739 512.763 264.087 513.721C264.087 513.721 264.261 514.156 264.435 514.94C264.435 514.94 264.697 516.246 264.435 517.64C263.913 520.949 255.292 523.039 255.292 523.039C243.1 525.913 234.566 525.739 234.566 525.739C220.807 525.39 222.984 523.039 213.144 523.474C213.144 523.474 207.571 523.736 194.422 521.21C193.812 521.123 192.419 520.775 191.896 519.73C191.635 519.12 191.809 518.423 192.506 516.682C192.941 515.637 193.551 514.156 194.422 512.502" stroke="#111111" stroke-width="0.75" stroke-miterlimit="10" stroke-linecap="round" stroke-linejoin="round"/>
<path d="M227.687 502.922C226.294 503.532 223.246 505.012 220.895 508.409C218.108 512.328 217.934 516.421 217.934 517.901" stroke="#111111" stroke-width="0.75" stroke-miterlimit="10" stroke-linecap="round" stroke-linejoin="round"/>
<path d="M220.024 498.742C219.414 499.874 218.717 501.703 218.021 504.577C216.976 509.105 216.715 513.808 216.627 516.334" stroke="#111111" stroke-width="0.75" stroke-miterlimit="10" stroke-linecap="round" stroke-linejoin="round"/>
<path d="M213.144 497.087C212.622 499.613 212.187 503.096 212.535 507.015C212.883 510.499 213.754 513.198 214.625 515.114" stroke="#111111" stroke-width="0.75" stroke-miterlimit="10" stroke-linecap="round" stroke-linejoin="round"/>
<path d="M264.435 515.201C265.916 515.288 267.657 515.288 269.573 515.375C274.276 515.55 276.627 515.724 278.804 515.898C283.593 516.42 285.335 517.117 289.428 517.901C295.175 519.033 303.709 520.513 313.201 518.685C316.423 518.075 319.036 517.204 320.69 516.595C320.951 515.898 321.3 514.853 321.387 513.547C321.561 511.979 321.3 510.76 321.126 509.889C320.342 509.454 318.948 508.844 317.033 508.757C315.726 508.67 314.681 508.931 313.898 509.192C313.549 510.15 312.853 511.544 311.459 512.24C310.414 512.85 309.282 512.763 308.76 512.763C306.409 512.763 309.457 513.111 297.875 514.156C294.217 514.505 292.214 514.679 290.734 514.679C282.984 514.94 277.933 512.066 271.924 509.976C268.006 508.67 262.52 507.276 255.292 507.015" stroke="#111111" stroke-width="0.75" stroke-miterlimit="10" stroke-linecap="round" stroke-linejoin="round"/>
<path d="M321.213 509.889C321.039 509.454 320.69 508.844 320.168 508.234C318.861 506.841 317.207 506.405 316.51 506.231C314.943 505.796 310.415 504.664 306.931 503.009C303.274 501.267 301.532 499.177 301.097 498.655C300.139 497.523 300.052 497 299.181 495.781C297.352 493.081 295.872 492.82 292.65 490.033C287.86 486.114 285.422 484.024 284.638 480.802C284.377 479.67 284.29 478.364 283.245 477.667C282.984 477.493 282.287 477.058 278.891 477.319C276.453 477.493 275.234 477.58 275.059 478.016C274.885 478.364 274.798 479.322 281.503 484.46C288.557 489.859 289.08 488.988 291.17 491.601C292.824 493.691 293.695 495.52 296.133 496.652C297.701 497.349 299.181 497.436 300.139 497.436" stroke="#111111" stroke-width="0.75" stroke-miterlimit="10" stroke-linecap="round" stroke-linejoin="round"/>
<path d="M275.321 478.887C272.708 479.322 271.576 480.367 271.054 481.151C270.183 482.457 270.618 483.415 269.573 485.07C269.225 485.592 268.354 487.073 266.699 487.595C264.522 488.292 261.997 486.986 260.604 485.331C259.385 483.764 259.298 481.935 258.514 481.935C257.991 481.935 257.643 482.457 257.295 482.98C255.814 485.505 256.424 488.118 256.25 490.469C255.901 495.172 252.854 495.607 251.896 501.355C251.547 503.271 251.634 504.925 251.721 505.97" stroke="#111111" stroke-width="0.75" stroke-miterlimit="10" stroke-linecap="round" stroke-linejoin="round"/>
<path d="M294.043 500.048C290.908 500.397 288.557 501.355 287.077 502.051C284.377 503.358 281.503 504.751 280.546 507.799C279.849 509.976 280.371 511.979 280.72 513.111" stroke="#111111" stroke-width="0.75" stroke-miterlimit="10" stroke-linecap="round" stroke-linejoin="round"/>
<path d="M271.141 490.295C270.531 492.298 269.835 495.607 270.357 499.613C270.618 502.052 271.315 504.142 271.925 505.622" stroke="#111111" stroke-width="0.75" stroke-miterlimit="10" stroke-linecap="round" stroke-linejoin="round"/>
<path d="M265.916 490.469C265.393 491.514 264.522 493.865 264.871 496.826C265.306 501.006 267.744 503.706 268.528 504.49" stroke="#111111" stroke-width="0.75" stroke-miterlimit="10" stroke-linecap="round" stroke-linejoin="round"/>
<path d="M246.845 23.9485C247.455 22.8164 247.193 22.2068 247.106 21.9455C246.323 20.2909 242.317 20.0296 241.272 21.5972C240.836 22.2068 241.011 23.0776 241.185 23.5131" fill="white"/>
<path d="M246.845 23.9485C247.455 22.8164 247.193 22.2068 247.106 21.9455C246.323 20.2909 242.317 20.0296 241.272 21.5972C240.836 22.2068 241.011 23.0776 241.185 23.5131" stroke="#111111" stroke-width="0.75" stroke-miterlimit="10" stroke-linecap="round" stroke-linejoin="round"/>
<path d="M232.389 96.23C234.131 97.7975 236.482 100.323 238.05 103.806C241.707 111.818 239.095 119.569 238.05 124.098C234.479 139.686 243.971 141.689 246.932 170.34C249.022 190.457 244.233 188.454 247.28 203.955C249.719 216.496 254.944 228.078 248.848 234.61C247.28 236.264 245.452 237.135 244.32 237.571C244.755 239.661 245.103 242.883 244.494 246.628C243.884 250.198 242.752 252.985 241.707 254.814" stroke="white" stroke-width="0.75" stroke-miterlimit="10" stroke-linecap="round" stroke-linejoin="round"/>
<path d="M237.701 198.73C234.741 202.824 231.867 207.091 228.906 211.358C226.294 215.19 223.681 219.109 221.156 222.853" stroke="white" stroke-width="0.75" stroke-miterlimit="10" stroke-linecap="round" stroke-linejoin="round"/>
<path d="M259.559 198.295C261.997 200.82 265.045 204.565 267.657 209.616C270.618 215.364 271.75 220.589 272.273 224.247" stroke="white" stroke-width="0.75" stroke-miterlimit="10" stroke-linecap="round" stroke-linejoin="round"/>
<path d="M282.411 381.683C284.742 376.467 287.073 371.251 289.336 366.033C291.351 366.638 293.368 367.175 295.383 367.78C295.597 367.447 295.811 367.115 296.094 366.717C297.44 364.86 298.953 364.162 299.709 363.846C310.608 368.726 321.577 373.541 332.476 378.421L324.022 397.481" stroke="#111111" stroke-width="0.75" stroke-miterlimit="10" stroke-linecap="round" stroke-linejoin="round"/>
<path d="M289.336 366.033C292.816 365.327 296.227 364.619 299.709 363.846" stroke="#111111" stroke-width="0.75" stroke-miterlimit="10" stroke-linecap="round" stroke-linejoin="round"/>
<path d="M332.766 395.311L346.352 449.157L303.237 460.025C299.188 444.102 295.209 428.114 291.16 412.192C293.084 411.37 295.073 410.618 296.997 409.796C296.942 409.388 296.886 408.979 296.899 408.573C296.835 406.266 297.558 404.797 297.988 404.064C309.535 401.168 321.152 398.206 332.766 395.311Z" stroke="#111111" stroke-width="0.75" stroke-miterlimit="10" stroke-linecap="round" stroke-linejoin="round"/>
<path d="M291.16 412.192C293.413 409.482 295.667 406.772 297.988 404.064" stroke="#111111" stroke-width="0.75" stroke-miterlimit="10" stroke-linecap="round" stroke-linejoin="round"/>
<path d="M293.571 421.894L282.27 416.866" stroke="#111111" stroke-width="0.75" stroke-miterlimit="10" stroke-linecap="round" stroke-linejoin="round"/>
<path d="M349.266 339.103L347.254 338.208L359.747 310.846C369.879 315.451 379.976 320.064 390.116 324.703C389.71 326.08 389.295 327.423 388.923 328.791C389.137 328.917 389.394 329.068 389.626 329.262C390.845 330.182 391.332 331.218 391.541 331.745C389.967 335.205 388.384 338.631 386.844 342.082" stroke="#111111" stroke-width="0.75" stroke-miterlimit="10" stroke-linecap="round" stroke-linejoin="round"/>
<path d="M390.116 324.703C390.579 327.054 391.034 329.37 391.532 331.711" stroke="#111111" stroke-width="0.75" stroke-miterlimit="10" stroke-linecap="round" stroke-linejoin="round"/>
<path d="M371.121 369.88L346.599 341.429L369.378 321.793C376.651 330.227 383.914 338.626 391.152 347.069C390.231 348.143 389.268 349.192 388.347 350.266C388.511 350.478 388.65 350.733 388.788 350.988C389.542 352.355 389.509 353.489 389.471 354.044C383.357 359.334 377.235 364.59 371.121 369.88Z" stroke="#111111" stroke-width="0.75" stroke-miterlimit="10" stroke-linecap="round" stroke-linejoin="round"/>
<path d="M391.152 347.069C390.592 349.394 390.031 351.719 389.505 354.035" stroke="#111111" stroke-width="0.75" stroke-miterlimit="10" stroke-linecap="round" stroke-linejoin="round"/>
<path d="M378.408 319.344L389.901 310.553L405.516 330.994C399.847 335.333 394.143 339.682 388.473 344.021" stroke="#111111" stroke-width="0.75" stroke-miterlimit="10" stroke-linecap="round" stroke-linejoin="round"/>
<path d="M77.034 146.889L54.125 134.422L40.2693 159.885L63.1783 172.352L77.034 146.889Z" stroke="#111111" stroke-width="0.75" stroke-miterlimit="10" stroke-linecap="round" stroke-linejoin="round"/>
<path d="M63.0867 145.304C62.3276 144.635 57.1025 148.276 57.4671 150.426C57.5374 151.072 58.2108 151.555 58.8062 151.62C61.0089 151.74 63.7777 145.948 63.0867 145.304Z" fill="#111111" stroke="#111111" stroke-width="0.75" stroke-miterlimit="10" stroke-linecap="round" stroke-linejoin="round"/>
<path d="M62.7419 139.132C61.0268 142.293 59.1382 144.46 57.8759 145.774C56.0202 147.642 55.0205 148.666 53.3978 149.072C51.0105 149.658 49.4242 148.295 48.4926 149.344C47.5862 150.325 48.1628 152.321 48.2408 152.738C48.5253 153.851 49.1657 154.631 49.4986 154.987C48.7614 155.721 47.7111 156.881 46.764 158.389C45.817 159.898 45.3544 161.353 45.0434 162.4" stroke="#111111" stroke-width="0.75" stroke-miterlimit="10" stroke-linecap="round" stroke-linejoin="round"/>
<path d="M63.0932 142.362C63.3481 142.302 65.7277 141.945 67.3238 143.699C68.6124 145.03 68.909 147.155 68.2442 149.155" stroke="#111111" stroke-width="0.75" stroke-miterlimit="10" stroke-linecap="round" stroke-linejoin="round"/>
<path d="M47.7417 160.767C48.3898 161.317 49.7366 162.282 51.8031 162.351C52.7896 162.407 53.6224 162.251 54.2255 162.087" stroke="#111111" stroke-width="0.75" stroke-miterlimit="10" stroke-linecap="round" stroke-linejoin="round"/>
<path d="M73.7144 145.063C74.6282 148.657 73.9382 150.726 73.2362 151.782C72.4078 153.18 70.9488 154.188 66.4806 157.878C66.4806 157.878 66.2433 158.099 65.8873 158.432C64.6074 159.585 63.6582 160.473 63.7537 161.05C63.8317 161.467 64.6743 161.702 65.4137 161.589C67.1044 161.209 67.6912 158.792 68.6777 158.848C68.9755 158.881 69.3589 159.1 69.7796 160.264" stroke="#111111" stroke-width="0.75" stroke-miterlimit="10" stroke-linecap="round" stroke-linejoin="round"/>
<path d="M60.2333 170.748C61.3462 170.464 62.5272 170.204 63.6149 169.988" stroke="#111111" stroke-width="0.75" stroke-miterlimit="10" stroke-linecap="round" stroke-linejoin="round"/>
<path d="M64.8996 165.273C65.5962 165.066 66.4794 164.774 66.563 164.34C66.6465 163.906 65.7358 163.646 65.794 163.28C65.827 162.982 66.3192 162.7 68.4867 162.496" stroke="#111111" stroke-width="0.75" stroke-miterlimit="10" stroke-linecap="round" stroke-linejoin="round"/>
<path d="M119.685 148.558L77.1368 226.691L14.5381 192.618C27.1951 169.572 39.8093 146.433 52.3553 123.268C55.4884 124.43 58.6216 125.593 61.8228 126.781C62.1612 126.286 62.593 125.749 63.0501 125.144C65.4638 122.397 68.0027 121.402 69.209 121.074C86.0259 130.258 102.843 139.442 119.685 148.558Z" stroke="#111111" stroke-width="0.75" stroke-miterlimit="10" stroke-linecap="round" stroke-linejoin="round"/>
<path d="M52.3552 123.268C57.9647 122.56 63.5742 121.851 69.1836 121.142" stroke="#111111" stroke-width="0.75" stroke-miterlimit="10" stroke-linecap="round" stroke-linejoin="round"/>
<path d="M104.51 161.768L81.3452 149.163L80.2687 151.141L103.433 163.746L104.51 161.768Z" stroke="#111111" stroke-width="0.75" stroke-miterlimit="10" stroke-linecap="round" stroke-linejoin="round"/>
<path d="M102.125 166.063L78.9609 153.458L78.4053 154.479L101.57 167.084L102.125 166.063Z" stroke="#111111" stroke-width="0.75" stroke-miterlimit="10" stroke-linecap="round" stroke-linejoin="round"/>
<path d="M100.657 168.773L77.4924 156.168L76.9368 157.189L100.101 169.794L100.657 168.773Z" stroke="#111111" stroke-width="0.75" stroke-miterlimit="10" stroke-linecap="round" stroke-linejoin="round"/>
<path d="M99.1882 171.485L76.0239 158.879L75.4683 159.9L98.6326 172.506L99.1882 171.485Z" stroke="#111111" stroke-width="0.75" stroke-miterlimit="10" stroke-linecap="round" stroke-linejoin="round"/>
<path d="M95.9242 173.218L74.5466 161.585L73.991 162.606L95.3685 174.239L95.9242 173.218Z" stroke="#111111" stroke-width="0.75" stroke-miterlimit="10" stroke-linecap="round" stroke-linejoin="round"/>
<path d="M88.0344 172.452L73.1021 164.326L72.5464 165.347L87.4788 173.473L88.0344 172.452Z" stroke="#111111" stroke-width="0.75" stroke-miterlimit="10" stroke-linecap="round" stroke-linejoin="round"/>
<path d="M94.749 179.681L71.5847 167.076L71.0291 168.097L94.1934 180.702L94.749 179.681Z" stroke="#111111" stroke-width="0.75" stroke-miterlimit="10" stroke-linecap="round" stroke-linejoin="round"/>
<path d="M93.2805 182.392L70.1162 169.787L69.5606 170.808L92.7249 183.413L93.2805 182.392Z" stroke="#111111" stroke-width="0.75" stroke-miterlimit="10" stroke-linecap="round" stroke-linejoin="round"/>
<path d="M89.5492 183.915L68.6184 172.525L68.0628 173.546L88.9936 184.936L89.5492 183.915Z" stroke="#111111" stroke-width="0.75" stroke-miterlimit="10" stroke-linecap="round" stroke-linejoin="round"/>
<path d="M37.5862 164.748L87.9259 192.181" stroke="#111111" stroke-width="0.75" stroke-miterlimit="10" stroke-linecap="round" stroke-linejoin="round"/>
<path d="M36.2852 167.21L86.6502 194.575" stroke="#111111" stroke-width="0.75" stroke-miterlimit="10" stroke-linecap="round" stroke-linejoin="round"/>
<path d="M34.9844 169.672L85.3494 197.037" stroke="#111111" stroke-width="0.75" stroke-miterlimit="10" stroke-linecap="round" stroke-linejoin="round"/>
<path d="M33.6406 172.041L83.9804 199.473" stroke="#111111" stroke-width="0.75" stroke-miterlimit="10" stroke-linecap="round" stroke-linejoin="round"/>
<path d="M32.3396 174.503L82.6794 201.936" stroke="#111111" stroke-width="0.75" stroke-miterlimit="10" stroke-linecap="round" stroke-linejoin="round"/>
<path d="M30.9707 176.939L81.3357 204.304" stroke="#111111" stroke-width="0.75" stroke-miterlimit="10" stroke-linecap="round" stroke-linejoin="round"/>
<path d="M29.6699 179.401L53.0123 192.091" stroke="#111111" stroke-width="0.75" stroke-miterlimit="10" stroke-linecap="round" stroke-linejoin="round"/>
<path d="M28.3264 181.77L51.7369 194.485" stroke="#111111" stroke-width="0.75" stroke-miterlimit="10" stroke-linecap="round" stroke-linejoin="round"/>
<path d="M93.0351 133.551C100.738 127.903 108.402 122.317 116.105 116.669C117.834 118.428 119.502 120.149 121.231 121.908C121.646 121.653 122.023 121.46 122.5 121.243C124.947 120.197 126.926 120.316 127.858 120.468C136.079 131.737 144.337 142.945 152.558 154.215L100.29 192.469L97.757 189.099" stroke="#111111" stroke-width="0.75" stroke-miterlimit="10" stroke-linecap="round" stroke-linejoin="round"/>
<path d="M116.105 116.669C120.036 117.915 123.928 119.222 127.858 120.468" stroke="#111111" stroke-width="0.75" stroke-miterlimit="10" stroke-linecap="round" stroke-linejoin="round"/>
<path d="M418.521 195.717L447.08 217.96L418.902 254.152C412.473 249.181 406.086 244.158 399.604 239.145" stroke="#111111" stroke-width="0.75" stroke-miterlimit="10" stroke-linecap="round" stroke-linejoin="round"/>
<path d="M391.391 196.2C392.146 195.256 392.859 194.364 393.562 193.379" stroke="#111111" stroke-width="0.75" stroke-miterlimit="10" stroke-linecap="round" stroke-linejoin="round"/>
<path d="M350.344 194.036L329.759 205.653L342.665 228.519L363.249 216.901L350.344 194.036Z" stroke="#111111" stroke-width="0.75" stroke-miterlimit="10" stroke-linecap="round" stroke-linejoin="round"/>
<path d="M372.165 162.074L411.791 232.297L355.548 264.011C343.822 243.193 332.054 222.429 320.328 201.611C322.751 199.765 325.173 197.92 327.596 196.074C327.344 195.529 327.187 194.973 326.977 194.375C326.001 191.187 326.452 188.796 326.809 187.705C341.91 179.147 357.012 170.59 372.165 162.074Z" stroke="#111111" stroke-width="0.75" stroke-miterlimit="10" stroke-linecap="round" stroke-linejoin="round"/>
<path d="M320.381 201.653C322.541 197.018 324.649 192.34 326.809 187.705" stroke="#111111" stroke-width="0.75" stroke-miterlimit="10" stroke-linecap="round" stroke-linejoin="round"/>
<path d="M369.416 131.325C379.347 122.243 389.226 113.119 399.157 104.037L453.632 163.437L406.074 207.085C398.627 198.978 391.233 190.914 383.787 182.807" stroke="#111111" stroke-width="0.75" stroke-miterlimit="10" stroke-linecap="round" stroke-linejoin="round"/>
<path d="M367.31 164.811C364.101 161.298 360.891 157.785 357.64 154.324C359.58 152.006 361.51 149.594 363.45 147.276C363.114 146.836 362.768 146.301 362.422 145.766C360.765 142.893 360.681 140.418 360.743 139.264C363.648 136.6 366.511 133.989 369.416 131.325" stroke="#111111" stroke-width="0.75" stroke-miterlimit="10" stroke-linecap="round" stroke-linejoin="round"/>
<path d="M357.682 154.271C358.699 149.237 359.768 144.246 360.785 139.212" stroke="#111111" stroke-width="0.75" stroke-miterlimit="10" stroke-linecap="round" stroke-linejoin="round"/>
<path d="M374.997 180.085L354.179 191.834L355.202 193.647L376.02 181.898L374.997 180.085Z" stroke="#111111" stroke-width="0.75" stroke-miterlimit="10" stroke-linecap="round" stroke-linejoin="round"/>
<path d="M377.158 183.968L356.34 195.717L356.835 196.594L377.653 184.845L377.158 183.968Z" stroke="#111111" stroke-width="0.75" stroke-miterlimit="10" stroke-linecap="round" stroke-linejoin="round"/>
<path d="M378.548 186.347L357.729 198.096L358.225 198.973L379.043 187.224L378.548 186.347Z" stroke="#111111" stroke-width="0.75" stroke-miterlimit="10" stroke-linecap="round" stroke-linejoin="round"/>
<path d="M379.912 188.818L359.093 200.567L359.588 201.444L380.407 189.695L379.912 188.818Z" stroke="#111111" stroke-width="0.75" stroke-miterlimit="10" stroke-linecap="round" stroke-linejoin="round"/>
<path d="M381.275 191.288L360.457 203.037L360.952 203.914L381.77 192.165L381.275 191.288Z" stroke="#111111" stroke-width="0.75" stroke-miterlimit="10" stroke-linecap="round" stroke-linejoin="round"/>
<path d="M382.698 193.725L361.879 205.474L362.374 206.351L383.193 194.602L382.698 193.725Z" stroke="#111111" stroke-width="0.75" stroke-miterlimit="10" stroke-linecap="round" stroke-linejoin="round"/>
<path d="M380.143 201.64L364.647 210.386L365.142 211.263L380.639 202.517L380.143 201.64Z" stroke="#111111" stroke-width="0.75" stroke-miterlimit="10" stroke-linecap="round" stroke-linejoin="round"/>
<path d="M381.475 204.052L365.978 212.798L366.473 213.676L381.97 204.93L381.475 204.052Z" stroke="#111111" stroke-width="0.75" stroke-miterlimit="10" stroke-linecap="round" stroke-linejoin="round"/>
<path d="M345.164 232.916L390.437 207.39" stroke="#111111" stroke-width="0.75" stroke-miterlimit="10" stroke-linecap="round" stroke-linejoin="round"/>
<path d="M346.412 235.119L391.633 209.55" stroke="#111111" stroke-width="0.75" stroke-miterlimit="10" stroke-linecap="round" stroke-linejoin="round"/>
<path d="M347.66 237.32L392.88 211.752" stroke="#111111" stroke-width="0.75" stroke-miterlimit="10" stroke-linecap="round" stroke-linejoin="round"/>
<path d="M348.856 239.48L394.129 213.954" stroke="#111111" stroke-width="0.75" stroke-miterlimit="10" stroke-linecap="round" stroke-linejoin="round"/>
<path d="M350.104 241.683L395.325 216.115" stroke="#111111" stroke-width="0.75" stroke-miterlimit="10" stroke-linecap="round" stroke-linejoin="round"/>
<path d="M351.352 243.885L396.573 218.317" stroke="#111111" stroke-width="0.75" stroke-miterlimit="10" stroke-linecap="round" stroke-linejoin="round"/>
<path d="M352.59 245.994L371.74 235.171" stroke="#111111" stroke-width="0.75" stroke-miterlimit="10" stroke-linecap="round" stroke-linejoin="round"/>
<path d="M332.735 204.055C333.459 206.268 335.074 210.054 338.462 213.451C339.804 214.783 347.376 222.303 353.123 219.419C356.605 217.646 358.377 212.528 357.716 207.012" stroke="#111111" stroke-width="0.75" stroke-miterlimit="10" stroke-linecap="round" stroke-linejoin="round"/>
<path d="M344.208 204.117C346.746 206.319 347.166 207.945 347.051 209.057C346.935 210.598 345.803 211.584 346.254 212.203C346.652 212.78 348.131 212.759 348.96 212.046C349.264 211.773 349.421 211.469 349.494 211.269" stroke="#111111" stroke-width="0.75" stroke-miterlimit="10" stroke-linecap="round" stroke-linejoin="round"/>
<path d="M349.253 216.408C349.673 216.314 350.365 216.094 351.026 215.59C351.288 215.37 351.55 215.15 351.718 214.94" stroke="#111111" stroke-width="0.75" stroke-miterlimit="10" stroke-linecap="round" stroke-linejoin="round"/>
<path d="M340.622 206.666C340.129 206.96 340.737 208.994 342.038 209.949C342.562 210.368 343.517 210.788 343.863 210.463C344.293 210.033 343.579 208.344 342.373 207.379C341.859 207.054 340.926 206.394 340.622 206.666Z" fill="#111111"/>
<path d="M337.633 208.145C337.654 207.903 337.738 206.509 338.902 205.376C340.118 204.285 341.555 204.317 341.849 204.38" stroke="#111111" stroke-width="0.75" stroke-miterlimit="10" stroke-linecap="round" stroke-linejoin="round"/>
<path d="M348.497 202.303C348.98 201.915 350.689 203.111 351.151 204.684C351.371 205.376 351.476 206.32 351.067 206.508C350.522 206.76 349.148 205.575 348.655 204.149C348.455 203.645 348.141 202.534 348.497 202.303Z" fill="#111111"/>
<path d="M351.046 200.3C350.794 200.184 349.494 199.66 347.984 200.258C346.473 200.856 345.855 202.167 345.739 202.418" stroke="#111111" stroke-width="0.75" stroke-miterlimit="10" stroke-linecap="round" stroke-linejoin="round"/>
<path d="M334.833 208.743C333.836 208.806 333.49 209.131 333.417 209.33C332.861 210.347 334.791 212.235 335.053 212.445C336.448 213.818 338.231 214.385 339.688 214.605" stroke="#111111" stroke-width="0.75" stroke-miterlimit="10" stroke-linecap="round" stroke-linejoin="round"/>
<path d="M347.555 219.607C347.869 219.859 348.97 220.74 349.338 222.324C349.61 223.488 349.338 224.474 349.191 224.872" stroke="#111111" stroke-width="0.75" stroke-miterlimit="10" stroke-linecap="round" stroke-linejoin="round"/>
<path d="M356.164 216.262C356.206 216.639 356.395 217.908 357.402 218.799C357.78 219.188 358.231 219.376 358.535 219.534" stroke="#111111" stroke-width="0.75" stroke-miterlimit="10" stroke-linecap="round" stroke-linejoin="round"/>
<path d="M349.254 221.998C348.677 221.967 347.765 221.925 346.747 222.229C345.038 222.754 344.545 223.907 343.056 224.264C342.406 224.432 341.409 224.494 340.046 223.834C336.606 217.814 333.207 211.742 329.767 205.722C330.711 205.187 331.697 204.6 332.693 204.107C333.396 205.701 334.088 207.201 334.791 208.795C333.795 208.858 333.49 209.131 333.375 209.382C332.861 210.347 334.697 212.675 336.731 213.787C337.854 214.427 338.976 214.636 339.605 214.71C340.517 215.612 341.786 216.713 343.422 217.678C345.017 218.695 346.527 219.387 347.764 219.775C348.037 220.079 348.467 220.509 348.771 221.097C349.044 221.401 349.128 221.726 349.254 221.998Z" fill="#111111"/>
<path d="M356.616 217.74C357.213 216.67 357.927 216.209 358.472 215.957C359.29 215.58 360.118 215.726 361.23 214.982C361.545 214.804 361.807 214.583 361.985 214.468C360.664 212.035 359.248 209.612 357.926 207.179C358.083 208.595 358.073 210.651 357.423 212.968C357.087 214.248 356.636 215.349 356.207 216.209C356.311 216.723 356.458 217.184 356.616 217.74Z" fill="#111111"/>
<path d="M334.833 208.743C335.179 208.418 335.703 207.977 336.249 207.295C337.843 205.303 337.266 204.411 338.682 202.964C339.489 202.062 340.265 201.737 340.758 200.584C340.947 200.133 340.999 199.745 341.02 199.503C341.335 199.755 341.649 200.007 342.048 200.154C345.991 202.104 351.528 197.762 352.231 197.207C351.686 196.168 351.098 195.183 350.5 194.102C344.523 197.49 338.587 200.825 332.609 204.212C333.249 205.67 334.036 207.159 334.833 208.743Z" fill="#111111"/>
<path d="M141.208 358.373L95.9345 349.631L102.961 313.386C116.386 315.94 129.777 318.579 143.202 321.133C143.09 322.883 143.039 324.608 142.927 326.358C143.245 326.437 143.587 326.576 143.93 326.714C145.668 327.47 146.563 328.581 146.938 329.132C144.943 338.844 143.058 348.651 141.208 358.373Z" stroke="#111111" stroke-width="0.75" stroke-miterlimit="10" stroke-linecap="round" stroke-linejoin="round"/>
<path d="M143.141 321.159C144.407 323.817 145.612 326.5 146.852 329.097" stroke="#111111" stroke-width="0.75" stroke-miterlimit="10" stroke-linecap="round" stroke-linejoin="round"/>
<path d="M58.5055 301.471L35.2319 293.082L25.923 318.904L49.1966 327.294L58.5055 301.471Z" stroke="#111111" stroke-width="0.75" stroke-miterlimit="10" stroke-linecap="round" stroke-linejoin="round"/>
<path d="M98.7118 296.894L70.1087 376.157L6.66838 353.272C15.1214 329.771 23.6337 306.313 32.0867 282.812C35.2323 283.454 38.2758 284.113 41.4213 284.756C41.7043 284.238 41.9706 283.618 42.3557 283.083C44.1887 280.164 46.4488 278.905 47.5657 278.357C64.5233 284.621 81.6092 290.706 98.7118 296.894Z" stroke="#111111" stroke-width="0.75" stroke-miterlimit="10" stroke-linecap="round" stroke-linejoin="round"/>
<path d="M32.0437 282.871C37.155 281.412 42.3685 279.935 47.4798 278.476" stroke="#111111" stroke-width="0.75" stroke-miterlimit="10" stroke-linecap="round" stroke-linejoin="round"/>
<path d="M77.8124 354.823C79.1528 353.713 80.4933 352.604 81.8338 351.495C83.5629 353.102 85.3348 354.649 87.0046 356.213C87.3801 355.942 87.815 355.714 88.2499 355.486C90.5265 354.33 92.4155 354.338 93.3254 354.452C101.868 364.757 110.411 375.063 118.953 385.368L71.1146 424.968L39.4162 386.701C45.427 381.74 51.3783 376.735 57.3891 371.774" stroke="#111111" stroke-width="0.75" stroke-miterlimit="10" stroke-linecap="round" stroke-linejoin="round"/>
<path d="M81.8765 351.436C85.7015 352.388 89.4837 353.399 93.3681 354.393" stroke="#111111" stroke-width="0.75" stroke-miterlimit="10" stroke-linecap="round" stroke-linejoin="round"/>
<path d="M86.3605 311.425L62.8115 302.937L62.0668 305.002L85.6158 313.491L86.3605 311.425Z" stroke="#111111" stroke-width="0.75" stroke-miterlimit="10" stroke-linecap="round" stroke-linejoin="round"/>
<path d="M71.4252 310.987L61.2344 307.314L60.862 308.347L71.0528 312.02L71.4252 310.987Z" stroke="#111111" stroke-width="0.75" stroke-miterlimit="10" stroke-linecap="round" stroke-linejoin="round"/>
<path d="M83.8354 318.582L60.2864 310.094L59.914 311.127L83.463 319.615L83.8354 318.582Z" stroke="#111111" stroke-width="0.75" stroke-miterlimit="10" stroke-linecap="round" stroke-linejoin="round"/>
<path d="M82.852 321.305L59.303 312.816L58.9306 313.849L82.4796 322.338L82.852 321.305Z" stroke="#111111" stroke-width="0.75" stroke-miterlimit="10" stroke-linecap="round" stroke-linejoin="round"/>
<path d="M81.8434 324.096L58.2944 315.607L57.9221 316.64L81.4711 325.129L81.8434 324.096Z" stroke="#111111" stroke-width="0.75" stroke-miterlimit="10" stroke-linecap="round" stroke-linejoin="round"/>
<path d="M80.8351 326.888L57.2861 318.399L56.9138 319.432L80.4628 327.921L80.8351 326.888Z" stroke="#111111" stroke-width="0.75" stroke-miterlimit="10" stroke-linecap="round" stroke-linejoin="round"/>
<path d="M79.8515 329.61L56.3025 321.121L55.9301 322.154L79.4791 330.643L79.8515 329.61Z" stroke="#111111" stroke-width="0.75" stroke-miterlimit="10" stroke-linecap="round" stroke-linejoin="round"/>
<path d="M78.8432 332.401L55.2942 323.912L54.9218 324.945L78.4708 333.434L78.8432 332.401Z" stroke="#111111" stroke-width="0.75" stroke-miterlimit="10" stroke-linecap="round" stroke-linejoin="round"/>
<path d="M72.8056 333.301L54.2832 326.624L53.9108 327.657L72.4333 334.334L72.8056 333.301Z" stroke="#111111" stroke-width="0.75" stroke-miterlimit="10" stroke-linecap="round" stroke-linejoin="round"/>
<path d="M24.1737 323.844L75.2011 342.296" stroke="#111111" stroke-width="0.75" stroke-miterlimit="10" stroke-linecap="round" stroke-linejoin="round"/>
<path d="M23.2696 326.35L74.3398 344.743" stroke="#111111" stroke-width="0.75" stroke-miterlimit="10" stroke-linecap="round" stroke-linejoin="round"/>
<path d="M22.4086 328.797L73.4787 347.19" stroke="#111111" stroke-width="0.75" stroke-miterlimit="10" stroke-linecap="round" stroke-linejoin="round"/>
<path d="M21.505 331.303L72.5751 349.696" stroke="#111111" stroke-width="0.75" stroke-miterlimit="10" stroke-linecap="round" stroke-linejoin="round"/>
<path d="M20.6439 333.75L71.714 352.143" stroke="#111111" stroke-width="0.75" stroke-miterlimit="10" stroke-linecap="round" stroke-linejoin="round"/>
<path d="M19.6808 336.214L70.8103 354.649" stroke="#111111" stroke-width="0.75" stroke-miterlimit="10" stroke-linecap="round" stroke-linejoin="round"/>
<path d="M18.8197 338.661L69.9492 357.096" stroke="#111111" stroke-width="0.75" stroke-miterlimit="10" stroke-linecap="round" stroke-linejoin="round"/>
<path d="M17.9159 341.168L68.986 359.56" stroke="#111111" stroke-width="0.75" stroke-miterlimit="10" stroke-linecap="round" stroke-linejoin="round"/>
<path d="M45.1995 360.646L65.7515 368.056" stroke="#111111" stroke-width="0.75" stroke-miterlimit="10" stroke-linecap="round" stroke-linejoin="round"/>
<path d="M42.5464 306.858C45.1585 310.995 45.2336 313.395 44.7341 314.84C44.6651 315.061 44.3988 315.681 44.225 316.548C44.1892 316.973 44.0058 318.104 44.3403 319.518C44.625 320.625 44.8504 321.69 45.6556 322.451C47.0546 323.639 48.8273 322.931 49.2072 323.656C49.3758 324.048 49.2876 324.797 47.4336 326.619" stroke="#111111" stroke-width="0.75" stroke-miterlimit="10" stroke-linecap="round" stroke-linejoin="round"/>
<path d="M42.5464 306.858C42.4442 306.875 42.2826 306.849 42.0783 306.882C40.5029 307.19 41.2452 310.792 39.2323 311.958C37.5521 312.913 36.4596 311.675 34.8222 312.57C32.9115 313.719 33.7019 316.003 31.9335 317.706C31.0707 318.528 29.4333 319.423 25.8956 318.949" stroke="#111111" stroke-width="0.75" stroke-miterlimit="10" stroke-linecap="round" stroke-linejoin="round"/>
<path d="M36.7088 319.342C36.7777 319.121 37.2895 316.784 39.6159 315.934C41.3459 315.286 42.909 315.871 43.2488 316.025" stroke="#111111" stroke-width="0.75" stroke-miterlimit="10" stroke-linecap="round" stroke-linejoin="round"/>
<path d="M40.3885 320.37C40.3483 319.8 40.819 319.146 41.287 319.123C42.1804 319.135 43.2083 321.59 42.7472 321.979C42.2695 322.267 40.3666 321.527 40.3885 320.37Z" fill="#111111" stroke="#111111" stroke-width="0.75" stroke-miterlimit="10" stroke-linecap="round" stroke-linejoin="round"/>
<path d="M34.3389 295.712C36.2305 295.09 37.2758 295.392 37.8103 295.777C38.9814 296.531 38.5508 297.754 39.8739 298.798C41.0616 299.654 41.9314 299.198 42.7697 300.163C43.3706 300.956 42.9261 301.448 43.5435 302.344C44.3889 303.675 45.7433 303.298 46.1136 304.286C46.5599 305.42 45.0081 306.196 45.2998 307.669C45.5749 309.04 47.2167 309.141 47.2708 310.443C47.3346 311.481 46.1085 311.68 45.9749 313.118C45.8509 314.292 46.6491 314.686 46.492 315.656C46.3872 316.302 45.8903 317.117 44.2363 317.91" stroke="#111111" stroke-width="0.75" stroke-miterlimit="10" stroke-linecap="round" stroke-linejoin="round"/>
</g>
<defs>
<clipPath id="clip0">
<rect width="461" height="526" fill="white"/>
</clipPath>
</defs>
</svg>
