<svg width="642" height="448" viewBox="0 0 642 448" fill="none" xmlns="http://www.w3.org/2000/svg">
<path d="M396.968 154.216C412.998 160.902 426.692 163.025 435.928 163.662C451.003 164.723 465.122 165.679 478.179 160.053C479.877 159.31 485.716 156.869 493.784 156.657C497.181 156.551 499.941 156.869 501.746 157.188C501.746 157.824 501.852 158.567 502.383 159.31C503.444 160.69 505.78 160.478 507.266 160.372C510.769 160.053 513.529 158.249 515.228 156.869C518.2 156.232 522.553 155.596 527.861 155.808C538.583 156.126 546.651 159.629 552.383 162.388C574.039 173.002 593.572 184.677 605.144 191.788C606.205 194.017 605.568 196.458 603.976 197.519C602.277 198.687 600.154 197.732 600.048 197.732C595.059 195.821 591.025 194.335 588.477 193.486C576.056 189.241 569.793 188.179 557.479 183.509C554.931 182.554 552.808 181.705 551.428 181.174C551.64 183.828 551.852 186.693 552.277 189.665C552.489 191.363 552.702 193.062 553.02 194.654C549.305 194.547 543.784 194.441 537.097 194.123C527.861 193.592 524.145 193.168 519.262 192.955C512.999 192.637 504.081 192.743 492.935 194.441C490.918 193.698 488.158 192.955 484.761 192.743C481.045 192.531 477.861 193.062 475.737 193.592C475.1 191.363 474.463 189.135 473.933 186.906C473.614 185.738 473.402 184.677 473.083 183.509C456.31 182.554 435.079 179.052 412.573 169.181C406.947 166.74 401.745 163.98 396.862 161.327C395.376 160.266 394.633 158.567 395.057 156.975C395.27 155.065 396.756 154.322 396.968 154.216Z" fill="#111111"/>
<path d="M516.396 143.602C516.29 145.512 516.396 147.954 517.033 150.819C517.033 150.819 517.139 151.35 517.245 151.881C517.67 153.579 518.625 156.657 520.96 160.69" stroke="#111111" stroke-width="0.75" stroke-miterlimit="10"/>
<path d="M516.82 141.692C517.776 141.798 520.111 141.798 522.341 140.1C524.888 138.189 527.012 134.368 526.162 132.882C526.056 132.67 525.419 131.609 522.234 132.458C523.721 129.592 526.587 122.906 524.57 117.174C524.145 116.007 523.296 113.672 511.725 107.516C499.729 101.042 497.712 101.572 497.075 102.528C496.65 103.164 496.65 104.013 496.757 104.756C495.27 107.94 488.795 122.481 489.963 132.246C490.069 133.201 490.387 134.899 490.6 136.491C492.192 146.256 493.253 148.484 494.103 149.334C494.209 149.44 494.315 149.546 494.421 149.652C496.332 151.35 499.198 150.926 500.684 150.713C505.992 149.864 512.574 145.088 513.423 144.451" stroke="#111111" stroke-width="0.75" stroke-miterlimit="10" stroke-linecap="round" stroke-linejoin="round"/>
<path d="M500.578 168.226C500.897 165.891 501.003 163.449 501.109 160.69C501.215 157.187 501.109 154.003 500.791 151.138" stroke="#111111" stroke-width="0.75" stroke-miterlimit="10"/>
<g filter="url(#filter0_d)">
<path d="M254.505 372.962C253.868 372.643 253.019 372.113 252.169 371.37C251.32 370.521 250.789 369.884 250.471 369.247C249.94 369.884 248.454 371.582 245.8 372.325C243.677 372.856 241.978 372.431 241.129 372.113C241.129 373.28 241.341 374.766 241.978 376.358C242.615 377.738 243.252 378.905 243.995 379.755C244.632 380.073 245.481 380.604 246.755 380.816C246.755 380.816 246.755 380.816 246.861 380.816C247.605 381.028 253.443 381.559 254.505 379.224C254.929 378.162 253.974 377.738 254.186 375.403C254.08 374.342 254.292 373.493 254.505 372.962Z" fill="#EAE8D3"/>
</g>
<path d="M255.885 371.051C257.371 370.627 258.645 373.386 261.617 376.252C262.891 377.526 266.819 379.648 274.568 383.788C279.133 386.229 281.469 387.503 282.106 387.503C282.106 387.503 285.29 387.821 285.821 389.095V389.201C285.927 389.413 286.14 390.05 286.033 390.58C285.503 393.552 278.815 395.675 272.658 395.357C268.093 395.144 266.288 393.658 262.042 392.491C260.131 391.96 258.539 391.748 256.522 391.43C249.94 390.58 247.817 391.536 245.906 389.731C244.844 388.776 244.526 387.609 243.677 385.168C242.615 381.877 242.509 379.012 242.509 377.207C242.933 377.844 243.677 378.693 244.526 379.436C248.029 381.983 253.549 381.241 254.611 379.118C255.142 377.844 253.762 376.995 254.186 374.554C253.974 374.448 254.398 371.476 255.885 371.051Z" fill="white" stroke="#111111" stroke-width="0.75" stroke-miterlimit="10"/>
<path d="M285.927 390.687C285.397 391.96 284.547 394.083 282.424 395.675C278.178 399.071 272.445 398.01 269.473 397.479C266.182 396.843 261.723 396.206 259.494 393.34C259.282 393.022 258.433 391.854 257.265 391.748C256.309 391.642 255.672 392.173 255.354 392.385C252.806 394.083 247.074 393.977 244.844 391.323C244.42 390.899 243.464 389.519 243.783 386.547" stroke="#111111" stroke-width="0.75" stroke-miterlimit="10"/>
<path d="M275.312 391.005C274.25 389.731 272.658 387.821 270.428 387.503C267.774 387.078 266.925 388.988 264.059 388.882C260.449 388.67 258.539 385.486 256.628 386.335C255.566 386.76 255.354 387.821 255.142 388.67" fill="white"/>
<path d="M275.312 391.005C274.25 389.731 272.658 387.821 270.428 387.503C267.774 387.078 266.925 388.988 264.059 388.882C260.449 388.67 258.539 385.486 256.628 386.335C255.566 386.76 255.354 387.821 255.142 388.67" stroke="#111111" stroke-width="0.75" stroke-miterlimit="10"/>
<path d="M242.933 377.95C242.084 378.799 234.865 374.129 235.396 372.75C235.609 372.113 237.095 372.219 237.732 372.325C241.235 372.856 243.57 377.314 242.933 377.95Z" fill="white" stroke="#111111" stroke-width="0.75" stroke-miterlimit="10"/>
<path d="M503.763 123.648C505.037 122.375 506.842 121.844 508.328 122.481C510.663 123.436 511.088 126.302 511.088 126.408" stroke="#111111" stroke-width="0.75" stroke-miterlimit="10" stroke-linecap="round" stroke-linejoin="round"/>
<path d="M490.6 123.224C491.661 121.738 493.36 120.995 494.952 121.313C497.394 121.844 498.243 124.604 498.349 124.71" stroke="#111111" stroke-width="0.75" stroke-miterlimit="10" stroke-linecap="round" stroke-linejoin="round"/>
<path d="M498.774 126.833C499.304 130.017 499.517 133.519 497.606 135.217C496.013 136.597 493.678 136.172 493.466 137.022C493.36 137.446 494.103 138.189 497.181 139.463" stroke="#111111" stroke-width="0.75" stroke-miterlimit="10" stroke-linecap="round" stroke-linejoin="round"/>
<path d="M317.244 317.24C316.501 319.682 315.333 321.274 314.484 322.229C313.847 323.078 312.255 324.776 311.511 327.111C311.405 327.43 311.405 327.642 311.405 327.854C311.405 329.552 313.21 331.25 315.015 331.781C315.439 331.887 316.713 332.206 317.987 331.569C318.73 331.25 319.155 330.614 319.686 329.871C321.172 327.642 322.021 325.837 322.021 325.731C322.658 324.352 323.613 322.547 325.312 320.531C324.781 320.743 323.72 321.061 322.552 320.955C321.915 320.955 320.641 320.849 319.473 320.106C317.987 319.257 317.456 317.771 317.244 317.24Z" fill="#FFC910"/>
<path d="M267.031 312.358C266.925 313.632 266.713 319.257 266.713 321.91C266.713 322.017 266.713 322.441 266.819 322.866C267.138 324.245 268.199 325.731 269.685 326.156C270.641 326.474 271.384 326.262 272.233 326.05C273.613 325.731 274.675 325.094 275.312 324.67C275.524 320.743 275.63 316.816 275.842 312.889C274.887 313.42 274.144 313.632 273.613 313.738C271.915 314.056 270.428 313.526 268.411 312.783C267.881 312.677 267.35 312.464 267.031 312.358Z" fill="#FFC910"/>
<g filter="url(#filter1_d)">
<path d="M207.689 412.763C207.689 411.808 207.689 410.958 207.689 410.003C207.795 406.076 208.114 402.361 208.644 398.965C207.264 399.496 204.398 400.239 200.895 399.496C198.878 399.071 197.392 398.434 196.224 397.798C196.224 398.328 196.224 398.859 196.224 399.39C196.118 404.166 195.693 408.73 195.162 413.081C195.375 413.612 195.693 414.355 196.33 415.098C197.816 416.902 200.895 418.282 203.655 417.221C206.627 416.053 207.583 413.081 207.689 412.763Z" fill="#EAE8D3"/>
</g>
<path d="M210.874 410.852C212.36 411.383 211.935 414.461 212.891 418.6C213.315 420.405 215.438 424.544 219.897 432.61C222.551 437.386 223.825 439.827 224.356 440.252C224.356 440.252 226.904 442.375 226.691 443.861V443.967C226.691 444.179 226.479 444.816 226.054 445.347C223.931 447.682 216.819 445.559 211.617 441.738C206.415 437.917 206.946 434.945 199.833 429.002C196.118 425.924 194.525 425.499 193.358 423.058C191.341 418.919 193.145 413.824 194.95 410.109C195.162 411.383 195.375 412.551 195.587 413.824C201.638 417.751 204.08 417.857 205.141 416.902C206.097 416.053 205.778 414.461 207.37 412.657C207.37 412.55 209.494 410.322 210.874 410.852Z" fill="white" stroke="#111111" stroke-width="0.75" stroke-miterlimit="10"/>
<path d="M225.948 445.24C224.78 446.09 222.763 447.257 220.11 447.469C214.483 447.894 210.025 443.755 207.795 441.526C205.247 439.085 201.85 435.794 201.426 432.186C201.32 431.655 201.32 430.275 200.47 429.532C199.515 428.683 198.347 429.108 196.967 429.002C194.207 428.683 190.916 425.924 190.492 422.74C190.173 419.98 191.978 417.857 192.509 417.433" stroke="#111111" stroke-width="0.75" stroke-miterlimit="10"/>
<path d="M212.466 434.627C212.36 432.822 211.935 430.381 210.131 428.789C208.114 426.879 206.309 428.152 203.761 426.242C200.683 424.013 200.789 420.192 198.666 419.768C197.604 419.555 196.649 420.298 196.012 420.935" fill="white"/>
<path d="M212.466 434.627C212.36 432.822 211.935 430.381 210.131 428.789C208.114 426.879 206.309 428.152 203.761 426.242C200.683 424.013 200.789 420.192 198.666 419.768C197.604 419.555 196.649 420.298 196.012 420.935" stroke="#111111" stroke-width="0.75" stroke-miterlimit="10"/>
<path d="M195.162 410.852C193.995 411.065 190.385 402.892 191.553 401.937C192.084 401.512 193.358 402.468 193.782 402.892C196.649 405.439 196.012 410.746 195.162 410.852Z" fill="white" stroke="#111111" stroke-width="0.75" stroke-miterlimit="10"/>
<path d="M275.842 302.063C284.229 301.957 293.783 302.382 304.611 304.717C312.573 306.415 318.836 308.644 322.339 309.917" stroke="#111111" stroke-width="0.75" stroke-miterlimit="10"/>
<path d="M239.218 217.685C238.369 220.657 237.307 222.886 236.458 224.265C234.229 227.98 230.088 232.969 228.921 234.879C228.39 235.834 227.965 236.683 227.541 237.532C227.541 237.639 227.434 237.745 227.328 237.851C227.01 238.594 225.948 241.141 225.099 244.007C223.931 248.358 223.507 252.816 223.507 253.877" stroke="#111111" stroke-width="0.75" stroke-miterlimit="10"/>
<path d="M388.051 149.44C388.794 133.519 388.051 126.514 387.096 123.118C386.989 122.587 386.459 120.783 386.14 118.236C385.609 113.672 386.246 110.169 386.352 109.32C388.157 97.4329 364.059 76.418 366.607 57.5258C366.819 56.2522 367.563 51.3699 364.696 48.292C361.724 45.214 356.416 45.8508 355.991 45.957C352.488 46.4876 349.091 48.7165 347.605 51.6883C344.845 57.1012 349.94 60.6037 347.923 65.3799C345.588 70.7928 337.626 69.3069 328.921 75.675C323.613 79.4959 321.384 83.8475 319.473 87.0316C310.768 100.935 297.711 108.577 271.808 132.988C248.135 155.277 236.245 166.527 234.972 176.08C233.273 188.179 239.006 195.184 240.173 205.161" stroke="#111111" stroke-width="0.75" stroke-miterlimit="10"/>
<path d="M484.549 281.473C481.788 280.305 479.453 279.032 477.542 277.758C468.094 272.027 465.228 266.826 451.64 259.715C444.527 256 442.935 256.212 440.387 253.453C433.699 246.448 436.99 237.533 436.671 226.07C436.141 208.982 428.179 207.178 425.631 191.469C422.022 169.075 434.761 150.501 442.616 139.251C456.098 119.722 463.211 123.755 473.614 104.544C481.576 90.0035 479.028 84.909 489.326 70.5806C495.907 61.4529 500.26 58.7995 502.595 49.9902C505.356 39.4828 501.534 34.2821 506.417 29.0814C511.831 23.244 522.553 23.244 529.135 24.6237C537.734 26.428 543.254 31.4164 551.64 39.0582C554.4 41.6055 559.708 46.3816 563.424 51.6884C576.587 70.7929 558.541 82.3617 567.882 110.488C571.067 120.252 577.967 132.989 574.358 141.586C573.933 142.647 572.341 146.043 572.872 150.607C573.403 155.277 575.844 158.673 576.8 160.159C576.8 160.266 576.906 160.266 576.906 160.266C578.923 163.025 585.929 172.896 603.445 197.519" stroke="#111111" stroke-width="0.75" stroke-miterlimit="10"/>
<path d="M534.018 290.07C526.268 289.857 517.033 289.327 506.735 287.416C502.808 286.779 499.623 286.037 497.394 285.506" stroke="#111111" stroke-width="0.75" stroke-miterlimit="10"/>
<path d="M612.999 212.166C613.53 212.803 617.564 217.685 619.475 220.338C620.112 221.188 622.554 224.796 622.66 224.902C622.766 225.008 622.766 225.008 622.872 225.115C630.94 236.471 634.549 239.974 638.583 248.04C639.539 249.95 640.07 251.012 640.282 251.542C643.148 261.519 630.728 271.496 627.118 274.362C607.904 289.751 578.18 289.964 549.623 289.964C548.562 289.964 547.394 289.964 546.226 289.964" stroke="#111111" stroke-width="0.75" stroke-miterlimit="10"/>
<path d="M354.399 226.707C357.902 230.421 364.59 238.806 365.546 250.587C366.076 257.486 364.378 263.111 362.255 268.524C354.187 288.69 339.749 305.778 330.62 315.436C330.938 316.285 331.363 317.241 331.681 318.09C330.514 318.09 329.346 318.09 328.178 318.09C328.497 319.045 328.709 320.106 329.027 321.061C327.86 320.955 326.692 320.849 325.418 320.743C325.1 320.849 322.764 322.017 320.322 320.743C318.199 319.682 317.562 317.771 317.35 317.453C316.925 316.498 316.501 315.436 315.97 314.375C317.138 314.375 318.305 314.481 319.367 314.481C319.155 313.314 318.942 312.252 318.73 311.085C319.473 311.297 320.322 311.615 321.066 311.828C322.87 308.962 325.736 304.292 329.134 298.454C350.79 261.201 347.923 252.391 346.225 249.101C345.163 247.191 343.677 245.599 340.811 242.415C335.503 236.683 330.195 232.969 326.48 230.634C335.821 229.36 345.163 228.086 354.399 226.707Z" stroke="#111111" stroke-width="0.75" stroke-miterlimit="10"/>
<path d="M310.025 231.27C304.293 234.985 291.129 244.537 282.636 262.474C273.613 281.685 275.312 299.197 276.373 305.884C277.329 306.202 278.284 306.521 279.346 306.839C278.496 307.37 277.647 307.9 276.904 308.537C277.753 309.386 278.709 310.235 279.558 311.084C278.39 311.721 277.222 312.252 275.948 312.889C275.418 313.207 274.675 313.526 273.931 313.738C270.747 314.587 267.987 313.207 267.137 312.677C266.288 312.464 265.545 312.358 264.696 312.146C265.651 311.191 266.5 310.129 267.456 309.174C266.5 308.749 265.439 308.219 264.483 307.794C265.333 307.264 266.076 306.733 266.925 306.202C265.757 301.108 264.271 293.572 263.847 284.338C263.21 271.708 262.466 258.229 269.579 244.537C274.781 234.348 282.424 227.768 288.263 223.628C295.375 226.07 302.7 228.723 310.025 231.27Z" stroke="#111111" stroke-width="0.75" stroke-miterlimit="10"/>
<path d="M269.367 199.005C270.11 201.234 271.49 201.765 273.295 203.887C277.859 208.982 276.161 213.015 279.452 215.987C281.15 217.473 284.229 218.959 290.704 218.003C289.961 218.64 289.112 219.489 288.369 220.657C287.944 221.294 287.52 221.93 287.307 222.461C293.146 225.964 303.55 231.164 317.456 232.862C335.078 235.091 348.985 230.527 355.673 227.874C355.779 227.343 355.779 226.388 355.355 225.327C355.142 224.69 354.824 224.159 354.505 223.841C360.132 223.098 364.166 222.143 365.015 221.718C365.333 221.506 365.652 221.294 365.652 221.294C366.395 220.763 366.926 220.126 370.323 217.685C375.418 213.97 376.374 213.758 377.86 211.954C378.815 210.786 381.576 207.602 381.151 203.781C380.832 201.234 379.346 200.491 378.391 197.201C377.435 193.698 378.815 193.061 378.285 189.559C377.648 185.101 374.781 181.811 371.915 178.521C369.474 175.761 368.943 175.867 366.713 173.108C363.741 169.499 362.361 166.315 361.83 165.36C359.919 161.751 354.718 156.975 339.643 152.73C338.688 153.367 332.106 157.4 324.993 154.746C322.446 153.791 320.747 152.305 319.579 151.138C316.076 151.244 310.556 151.987 304.717 154.959C299.409 157.718 296.225 161.221 290.492 167.377C283.486 175.018 285.184 175.124 279.239 180.962C275.312 184.889 271.915 186.693 270.004 191.576C268.305 195.715 269.154 198.368 269.367 199.005ZM346.862 214.182C347.287 210.574 353.444 209.406 354.081 209.3C355.461 209.088 356.947 208.77 357.69 209.619C358.433 210.468 358.221 212.166 357.478 213.227C356.841 214.289 355.992 214.289 353.656 215.35C350.259 217.048 349.728 218.11 348.56 217.685C347.499 217.367 346.65 215.562 346.862 214.182ZM294.632 206.01C295.588 205.373 296.968 206.01 298.242 206.647C298.879 206.965 304.399 209.725 303.868 213.333C303.656 214.713 302.382 216.199 301.108 216.305C299.94 216.411 299.728 215.138 296.862 212.697C294.951 210.998 294.208 210.786 293.783 209.619C293.465 208.345 293.677 206.753 294.632 206.01Z" fill="#111111"/>
<path d="M354.081 209.3C355.461 209.088 356.947 208.77 357.69 209.619C358.433 210.468 358.221 212.166 357.478 213.227C356.841 214.289 355.992 214.289 353.656 215.35C350.259 217.048 349.728 218.11 348.56 217.685C347.393 217.261 346.543 215.562 346.756 214.076C347.287 210.574 353.338 209.406 354.081 209.3Z" fill="white" stroke="#111111" stroke-width="0.75" stroke-miterlimit="10"/>
<path d="M294.632 206.01C295.588 205.373 296.968 206.01 298.242 206.647C298.879 206.965 304.399 209.725 303.868 213.333C303.656 214.713 302.382 216.199 301.108 216.305C299.94 216.411 299.728 215.138 296.862 212.696C294.951 210.998 294.208 210.786 293.783 209.618C293.465 208.345 293.677 206.753 294.632 206.01Z" fill="white" stroke="#111111" stroke-width="0.75" stroke-miterlimit="10"/>
<path d="M353.125 185.101C352.488 197.519 351.851 209.937 351.108 222.355C334.017 222.143 317.032 221.824 299.94 221.612C300.365 209.088 300.789 196.564 301.108 184.04C318.518 184.358 335.822 184.677 353.125 185.101Z" stroke="#111111" stroke-width="0.75" stroke-miterlimit="10"/>
<path d="M353.125 185.101C352.488 197.519 351.851 209.937 351.108 222.355C334.017 222.143 317.032 221.824 299.94 221.612C300.365 209.088 300.789 196.564 301.108 184.04C318.518 184.358 335.822 184.677 353.125 185.101Z" fill="white" stroke="#111111" stroke-width="0.75" stroke-miterlimit="10"/>
<path d="M339.749 153.154C338.794 153.048 336.883 152.73 336.246 151.35C336.14 151.138 336.034 150.819 336.034 149.121C336.034 148.06 336.034 147.105 336.14 146.468" stroke="#111111" stroke-width="0.75" stroke-miterlimit="10"/>
<path d="M315.97 151.987C316.925 151.987 319.685 151.774 321.384 149.864C322.021 149.015 322.339 148.06 322.658 146.998C323.189 145.194 323.295 143.602 323.295 142.541" stroke="#111111" stroke-width="0.75" stroke-miterlimit="10"/>
<path d="M322.87 138.189C321.596 136.279 320.959 134.474 320.535 133.307C319.898 133.307 318.836 133.307 317.562 132.776C313.422 131.078 311.405 125.453 312.785 123.861C313.316 123.118 314.696 123.012 315.545 123.118C316.182 123.224 316.713 123.542 317.032 123.755C317.35 119.403 318.199 115.901 318.942 113.566C319.686 111.124 321.703 105.818 324.675 104.862C326.798 104.119 327.435 105.818 330.407 105.393C334.123 104.862 334.866 102.209 337.945 101.678C339.537 101.466 341.979 101.784 345.163 104.544C348.136 109.002 348.879 112.61 348.985 115.051C349.091 116.431 348.879 117.28 348.985 120.358C348.985 122.056 349.091 123.224 349.197 123.648C349.197 124.285 349.304 127.151 348.667 130.441C347.499 136.066 344.739 140.1 343.89 141.267C341.979 143.92 341.129 145.406 339.112 146.149C337.202 146.892 335.397 146.468 333.38 146.043C331.575 145.619 328.603 144.663 325.312 141.904" stroke="#111111" stroke-width="0.75" stroke-miterlimit="10" stroke-linecap="round" stroke-linejoin="round"/>
<path d="M173.931 296.969C205.672 309.599 212.254 327.536 213.634 332.206C217.456 344.73 215.014 360.65 210.449 391.323C210.025 394.295 209.6 396.736 209.282 398.328C208.326 398.859 206.946 399.39 205.354 399.602C200.577 400.239 196.755 397.798 195.693 397.055C195.693 394.189 195.587 389.731 195.269 384.425C193.995 363.197 193.358 352.584 188.05 343.987C185.821 340.484 178.708 330.72 159.387 326.687" stroke="#111111" stroke-width="0.75" stroke-miterlimit="10"/>
<path d="M177.222 288.902C182.424 290.176 189.642 292.405 197.71 296.332C204.292 299.516 219.367 307.157 232.105 323.609C245.906 341.333 249.621 359.801 250.789 368.929C250.258 369.565 248.985 371.051 246.755 371.794C243.677 372.856 241.129 371.9 240.386 371.582C238.263 365.957 234.653 358.209 228.178 350.249C223.507 344.517 218.73 340.272 214.802 337.3" stroke="#111111" stroke-width="0.75" stroke-miterlimit="10"/>
<path d="M537.415 289.327C537.097 293.041 536.884 294.952 537.521 296.332C537.734 296.862 538.477 298.348 540.069 299.197C541.98 300.153 543.891 299.622 544.422 299.516C544.315 298.985 544.209 298.03 544.528 296.862C544.846 295.907 545.377 295.27 545.695 294.846C545.908 293.891 546.12 292.723 546.439 291.662C546.969 289.857 547.606 288.159 548.243 286.886C547.076 287.098 545.483 287.204 543.679 286.886C541.025 286.461 539.008 285.4 537.84 284.657C537.734 285.93 537.627 287.629 537.415 289.327Z" fill="#FF4A47"/>
<path d="M498.561 288.584C498.561 288.584 501.109 294.315 500.578 296.12C500.578 296.226 500.472 296.226 500.472 296.226C500.366 296.332 500.26 296.438 499.941 296.969C499.623 297.499 498.88 298.561 498.561 298.985C498.137 299.622 496.969 300.471 493.89 301.108C493.253 299.41 492.616 298.03 492.192 297.075C491.236 294.952 490.493 293.148 489.219 290.919C488.689 289.857 488.158 289.008 487.839 288.478C488.795 288.478 490.281 288.478 491.98 287.841C494.633 286.78 496.226 284.869 496.757 284.02C497.5 286.037 498.137 287.629 498.561 288.584Z" fill="#FF4A47"/>
<path d="M492.616 194.016C485.929 192.318 480.621 192.531 477.224 192.955C472.871 193.486 463.529 194.653 460.663 200.915C459.601 203.144 459.814 205.161 459.814 206.01C461.618 231.695 485.504 283.807 485.504 283.807C486.565 286.036 487.309 287.734 487.627 288.477C488.476 288.584 490.493 288.69 492.723 287.628C495.058 286.567 496.226 284.869 496.757 284.126C493.36 266.401 490.599 253.665 488.158 243.582C487.733 241.99 486.884 238.912 487.946 235.516C490.175 228.617 498.774 225.751 505.568 223.416C512.043 221.293 517.564 221.081 528.498 220.55C539.22 220.126 543.148 221.081 544.634 223.628C545.483 225.114 545.165 226.706 545.058 227.449C542.723 241.565 542.298 255.894 539.857 270.01C539.326 273.3 538.477 278.288 537.627 284.444C538.583 285.081 540.175 286.036 542.298 286.567C544.74 287.098 546.757 286.885 547.925 286.673C550.897 279.244 571.386 226.812 574.039 208.239C574.252 206.434 574.57 203.887 573.19 201.34C569.475 194.653 556.842 194.229 545.058 193.804C542.086 193.698 539.538 193.698 538.052 193.804C531.683 192.849 524.358 192.106 516.183 192.106C507.479 192.212 499.411 193.061 492.616 194.016Z" stroke="#111111" stroke-width="0.75" stroke-miterlimit="10"/>
<path d="M156.627 328.703C160.237 329.128 165.438 325.413 167.349 320.425C168.729 316.816 167.88 313.42 167.243 311.403C172.445 307.264 177.646 303.018 182.848 298.773C185.184 296.862 187.519 294.952 189.855 293.041C190.81 293.36 191.765 293.572 192.721 293.891C193.676 292.192 194.313 290.176 193.995 287.947C193.358 284.126 190.279 283.489 189.642 279.562C189.112 276.272 191.022 274.362 189.748 272.876C188.687 271.602 187.307 272.557 185.396 271.708C181.787 270.116 181.893 264.385 179.239 254.833C178.283 251.436 177.434 248.783 176.797 247.297C179.451 246.342 181.787 245.705 183.591 245.28C183.591 245.28 188.475 244.113 192.19 243.794C194.419 243.582 196.012 243.688 196.649 243.688C203.867 243.901 212.36 237.426 217.668 233.393C221.383 230.527 226.267 226.282 231.468 220.444C231.575 219.914 231.893 218.64 231.256 217.367C230.407 215.562 228.071 214.395 225.524 214.819C223.613 216.093 220.64 217.897 217.031 219.702C208.538 223.947 199.833 228.511 189.324 227.874C186.564 227.768 187.413 227.343 180.937 226.494C174.78 225.645 169.685 225.327 166.394 225.221C165.12 224.371 163.421 223.416 161.404 222.673C157.477 221.187 153.867 220.975 151.532 220.975C150.47 220.551 149.515 220.126 148.453 219.595C150.045 221.93 150.576 223.522 150.045 224.371C148.772 226.282 142.402 224.902 130.937 220.126C129.663 221.506 128.495 222.992 127.222 224.69C125.098 227.556 123.4 230.315 122.126 232.862C126.372 238.275 130.831 245.174 134.759 253.559C143.358 271.92 145.268 288.902 145.481 299.94C146.118 316.498 150.895 328.066 156.627 328.703Z" fill="#111111"/>
<path d="M145.481 329.446C147.71 310.978 146.118 295.907 144.313 285.824C141.871 272.133 137.625 249.95 120.428 230.739C117.243 227.237 114.377 224.584 112.253 222.779" stroke="#111111" stroke-width="0.75" stroke-miterlimit="10"/>
<path d="M158.856 210.68C166.287 213.545 174.143 217.154 182.211 221.718C216.182 240.928 236.989 267.675 248.878 286.673" stroke="#111111" stroke-width="0.75" stroke-miterlimit="10"/>
<path d="M193.358 413.612C191.128 414.673 187.625 416.159 182.954 417.008C174.568 418.494 170.215 417.114 154.929 414.355C125.735 409.048 123.824 417.751 105.353 411.489C95.5865 408.199 88.2616 402.68 73.5056 391.536C62.7837 383.469 57.3697 379.33 55.2465 374.129C50.0448 361.393 59.7051 352.159 62.5714 332.524C63.5268 325.944 62.8899 324.139 56.7327 289.857C45.9046 229.36 45.9046 223.416 47.6032 215.032C49.6202 205.267 52.8049 197.944 53.9726 182.342C54.928 169.711 53.3357 165.784 53.3357 154.64C53.2295 137.34 56.5204 102.103 70.0024 98.7065C78.2827 96.6899 88.2616 107.303 92.4017 113.566C99.7266 124.285 97.9219 133.307 100.682 145.937C103.017 156.444 108.75 170.454 123.931 185.738" stroke="#111111" stroke-width="0.75" stroke-miterlimit="10"/>
<path d="M130.725 211.529C131.256 212.059 134.228 214.607 133.379 218.428C133.166 219.383 132.742 220.126 132.317 220.763" stroke="#111111" stroke-width="0.75" stroke-miterlimit="10"/>
<path d="M319.792 334.01C319.792 335.071 319.792 336.133 319.792 337.194C319.792 340.696 321.172 344.517 323.613 350.673C324.463 352.902 325.312 354.812 324.463 356.405C324.463 356.511 323.826 357.466 322.764 357.784C319.898 358.74 315.545 354.706 313.21 350.885C310.556 346.64 311.936 344.836 308.645 338.574C306.628 334.859 306.097 334.01 305.885 333.055C305.885 332.842 305.779 332.736 305.779 332.524C305.567 329.552 308.008 327.323 308.221 327.111C309.813 325.731 311.618 325.519 312.467 325.413C312.148 325.944 311.936 326.474 311.618 327.111C313.104 329.764 315.015 332.206 316.713 331.993C318.306 331.781 319.049 329.234 319.792 329.446C320.004 329.658 319.792 330.932 319.792 334.01Z" fill="white" stroke="#111111" stroke-width="0.75" stroke-miterlimit="10"/>
<path d="M322.658 357.784C321.49 357.997 319.579 358.209 317.456 357.466C313.104 355.98 311.193 351.841 310.237 349.612C309.176 347.171 307.69 343.881 308.645 341.227C308.751 340.803 309.176 339.954 308.857 339.104C308.433 338.149 307.371 338.149 306.416 337.619C304.505 336.557 302.913 333.692 303.656 331.357C304.293 329.34 306.416 328.491 306.947 328.279" stroke="#111111" stroke-width="0.75" stroke-miterlimit="10"/>
<path d="M316.182 346.428C316.713 345.154 317.138 343.35 316.395 341.758C315.439 339.848 313.741 340.166 312.467 338.043C310.981 335.602 312.361 332.949 310.874 332.1C310.131 331.675 309.176 331.887 308.433 332.1" fill="white"/>
<path d="M316.182 346.428C316.713 345.154 317.138 343.35 316.395 341.758C315.439 339.848 313.741 340.166 312.467 338.043C310.981 335.602 312.361 332.949 310.874 332.1C310.131 331.675 309.176 331.887 308.433 332.1" stroke="#111111" stroke-width="0.75" stroke-miterlimit="10"/>
<path d="M311.936 325.413C310.98 325.201 311.087 318.514 312.254 318.196C312.785 318.09 313.422 319.151 313.634 319.575C314.908 322.123 312.679 325.519 311.936 325.413Z" fill="white" stroke="#111111" stroke-width="0.75" stroke-miterlimit="10"/>
<path d="M491.555 296.756C491.024 296.969 491.13 298.455 491.13 299.516C491.13 300.683 490.599 302.806 489.432 307.052C487.096 315.861 485.928 320.319 484.23 322.441C483.168 323.821 481.151 325.731 481.682 327.748C481.682 327.854 482.001 328.916 482.85 329.552C485.398 331.357 492.298 328.703 495.589 323.715C497.181 321.274 496.863 320.849 499.41 314.375C499.941 313.101 500.684 311.509 501.852 309.705C504.188 306.096 505.461 305.247 505.674 302.806C505.992 298.773 502.807 295.164 499.835 292.723C500.047 293.785 500.26 294.846 500.472 296.013C500.366 296.544 499.835 298.455 498.03 299.94C496.332 301.214 494.527 301.32 493.996 301.32C493.996 300.577 493.89 299.41 493.147 298.242C493.041 297.924 492.192 296.65 491.555 296.756Z" stroke="#111111" stroke-width="0.75" stroke-miterlimit="10"/>
<path d="M482.85 329.552C483.275 329.871 484.018 330.401 485.079 330.72C490.069 332.206 497.712 327.217 498.986 321.592C499.411 319.682 499.092 317.877 500.26 314.057C500.685 312.783 501.003 311.722 501.322 311.085C502.065 310.766 503.339 310.129 504.506 309.068C505.143 308.431 507.373 306.202 507.266 302.912C507.16 299.091 503.975 296.969 503.657 296.756" stroke="#111111" stroke-width="0.75" stroke-miterlimit="10"/>
<path d="M501.64 294.421C502.808 294.315 503.232 286.461 501.852 286.036C501.215 285.824 500.472 286.992 500.154 287.522C498.455 290.388 500.791 294.527 501.64 294.421Z" stroke="#111111" stroke-width="0.75" stroke-miterlimit="10"/>
<path d="M266.501 322.123C265.864 322.123 265.439 323.821 264.484 325.944C264.059 326.899 262.997 328.491 260.768 331.675C258.008 335.814 256.522 337.831 255.885 338.468C254.08 340.06 252.275 340.803 252.275 342.289C252.275 343.35 253.018 344.093 253.125 344.199C255.035 346.11 260.237 344.73 263.74 342.607C267.668 340.272 267.35 338.255 272.658 334.647C276.267 332.206 276.904 331.993 277.541 330.932C278.284 329.658 278.496 327.217 275.736 322.547C275.63 323.184 275.63 323.821 275.524 324.458C273.188 325.838 270.535 327.005 268.942 325.944C267.244 324.988 267.35 322.123 266.501 322.123Z" fill="white" stroke="#111111" stroke-width="0.75" stroke-miterlimit="10"/>
<path d="M253.019 344.305C253.868 344.942 255.354 345.897 257.265 346.322C261.405 346.959 264.696 344.411 266.394 343.032C268.305 341.546 270.853 339.529 271.172 336.982C271.172 336.557 271.278 335.708 271.915 335.177C272.658 334.647 273.507 335.071 274.569 334.965C276.586 334.859 279.027 333.267 279.452 331.038C279.77 329.128 278.39 327.536 278.072 327.217" stroke="#111111" stroke-width="0.75" stroke-miterlimit="10"/>
<path d="M263.104 337.831C263.21 336.663 263.634 334.965 264.908 333.904C266.501 332.736 267.774 333.692 269.579 332.63C271.808 331.25 271.808 328.597 273.401 328.491C274.144 328.385 274.887 329.022 275.312 329.552" fill="white"/>
<path d="M263.104 337.831C263.21 336.663 263.634 334.965 264.908 333.904C266.501 332.736 267.774 333.692 269.579 332.63C271.808 331.25 271.808 328.597 273.401 328.491C274.144 328.385 274.887 329.022 275.312 329.552" stroke="#111111" stroke-width="0.75" stroke-miterlimit="10"/>
<path d="M276.798 324.458C277.647 324.67 280.407 319.257 279.558 318.514C279.239 318.196 278.284 318.726 277.859 319.045C275.842 320.637 276.161 324.246 276.798 324.458Z" fill="white" stroke="#111111" stroke-width="0.75" stroke-miterlimit="10"/>
<path d="M330.195 208.982C332.849 208.239 333.698 201.552 331.681 200.279C330.301 199.43 327.647 201.234 326.798 201.871C324.993 200.279 322.976 199.536 321.703 200.279C319.686 201.446 319.898 206.859 322.446 207.814C324.038 208.451 325.949 207.178 326.267 206.859C326.798 207.496 328.603 209.406 330.195 208.982Z" stroke="#111111" stroke-width="0.75" stroke-miterlimit="10"/>
<path d="M344.845 139.569C345.163 139.994 348.03 139.038 349.091 136.916C349.834 135.536 349.091 134.899 349.728 133.413C350.578 131.29 352.276 131.715 353.125 129.804C354.187 127.682 352.488 126.62 353.338 123.967C354.081 122.057 355.036 122.375 355.779 120.252C356.416 118.342 355.567 118.023 356.204 115.264C356.629 113.141 357.265 112.61 356.947 111.231C356.735 109.957 356.098 109.957 355.567 108.471C354.505 105.818 356.098 104.544 355.036 103.058C353.975 101.466 351.639 102.421 350.896 100.829C350.153 99.3435 351.745 97.8576 351.002 96.7962C350.153 95.7348 348.136 97.0085 346.756 95.7348C345.588 94.6735 346.544 93.0814 345.376 92.0201C344.314 90.9587 343.04 92.1262 339.962 91.5955C336.777 91.0649 336.352 89.579 334.335 90.0035C332.318 90.428 332.531 91.914 330.301 92.763C327.329 93.9305 325.63 91.914 323.613 93.2937C322.021 94.3551 322.87 95.841 321.172 97.3269C319.155 99.0251 317.138 97.6453 315.758 99.2373C314.59 100.617 315.758 101.997 314.484 104.013C313.316 105.924 311.724 105.393 310.981 106.985C310.025 109.108 312.573 110.7 311.618 113.353C310.981 115.264 309.282 115.582 309.388 117.493C309.388 118.13 309.601 119.085 310.131 119.828C310.662 120.465 310.981 120.571 311.405 121.101C311.936 121.632 312.361 122.693 312.148 124.71C312.573 123.649 313.422 122.906 314.484 122.693C315.758 122.481 316.607 123.33 316.819 123.436C316.713 122.906 316.501 122.163 317.032 121.632C317.987 120.465 320.535 122.163 322.34 121.101C324.463 119.722 323.401 115.795 325.1 115.264C326.055 114.945 326.692 116.219 327.86 116.007C329.664 115.688 329.24 112.504 331.681 110.488C331.788 110.382 334.229 108.365 336.671 109.002C339.325 109.745 339.749 113.035 341.979 113.035C343.04 113.035 343.253 112.292 344.208 112.292C346.119 112.186 347.711 114.627 348.773 116.538C349.091 118.66 349.41 121.314 349.304 124.285C349.197 126.833 348.985 129.062 348.561 130.972C348.242 132.458 347.711 134.474 346.544 136.597C345.482 138.614 344.633 139.357 344.845 139.569Z" fill="#111111"/>
<path d="M335.397 120.677C334.866 120.464 333.38 120.04 331.681 120.464C330.514 120.783 329.664 121.42 329.24 121.844" fill="white"/>
<path d="M335.397 120.677C334.866 120.464 333.38 120.04 331.681 120.464C330.514 120.783 329.664 121.42 329.24 121.844" stroke="#111111" stroke-width="0.75" stroke-miterlimit="10" stroke-linecap="round" stroke-linejoin="round"/>
<path d="M347.074 121.101C346.65 120.677 345.376 119.509 343.783 119.721C342.722 119.827 341.873 120.57 341.448 120.995" fill="white"/>
<path d="M347.074 121.101C346.65 120.677 345.376 119.509 343.783 119.721C342.722 119.827 341.873 120.57 341.448 120.995" stroke="#111111" stroke-width="0.75" stroke-miterlimit="10" stroke-linecap="round" stroke-linejoin="round"/>
<path d="M323.613 143.496C321.596 143.177 320.747 142.434 320.429 141.798C319.792 140.63 320.535 139.675 319.792 138.507C319.155 137.552 318.199 137.764 317.244 136.915C316.607 136.279 315.864 135.111 316.182 132.352C316.607 132.67 317.35 133.095 318.412 133.307C319.367 133.519 320.11 133.413 320.641 133.307C320.747 134.05 321.066 135.323 321.915 136.597C322.34 137.128 322.764 137.552 323.189 137.871C323.507 138.614 323.932 139.675 323.932 141.055C323.826 142.116 323.72 142.965 323.613 143.496Z" fill="#111111"/>
<path d="M319.155 130.123C318.518 129.91 317.881 129.804 317.244 129.592C317.669 128.849 317.987 128 318.412 127.257C317.456 126.726 316.501 126.196 315.439 125.771C315.333 125.983 315.015 126.514 315.015 127.151C315.015 128.106 315.545 128.743 315.758 128.955" fill="white"/>
<path d="M319.155 130.123C318.518 129.91 317.881 129.804 317.244 129.592C317.669 128.849 317.987 128 318.412 127.257C317.456 126.726 316.501 126.196 315.439 125.771C315.333 125.983 315.015 126.514 315.015 127.151C315.015 128.106 315.545 128.743 315.758 128.955" stroke="#111111" stroke-width="0.75" stroke-miterlimit="10" stroke-linecap="round" stroke-linejoin="round"/>
<path d="M339.749 123.224C338.051 127.257 338.582 129.486 339.537 130.76C340.811 132.458 343.04 132.989 342.722 133.944C342.509 134.687 340.811 135.324 339.643 135.324C339.006 135.324 338.475 135.217 338.157 135.217" stroke="#111111" stroke-width="0.75" stroke-miterlimit="10" stroke-linecap="round" stroke-linejoin="round"/>
<path d="M339.537 139.569C339.006 139.675 338.157 139.781 337.095 139.463C335.397 139.038 334.229 137.977 333.698 137.446" fill="white"/>
<path d="M339.537 139.569C339.006 139.675 338.157 139.781 337.095 139.463C335.397 139.038 334.229 137.977 333.698 137.446" stroke="#111111" stroke-width="0.75" stroke-miterlimit="10" stroke-linecap="round" stroke-linejoin="round"/>
<path d="M507.16 134.156C509.496 131.927 508.222 127.045 507.16 126.939C505.78 126.727 502.595 133.732 503.975 135.111C504.718 135.642 506.311 135.005 507.16 134.156Z" fill="#1D1D1B"/>
<path d="M492.298 131.29C491.661 128.425 494.846 125.559 495.801 126.09C496.969 126.62 495.907 133.413 494.209 133.625C493.466 133.732 492.617 132.352 492.298 131.29Z" fill="#1D1D1B"/>
<path d="M519.156 138.402C519.793 138.402 520.43 138.402 520.536 138.189C520.642 137.871 519.793 137.552 519.687 137.022C519.581 135.854 522.341 134.156 523.084 134.793C523.615 135.217 523.084 136.916 522.659 137.659" stroke="#111111" stroke-width="0.75" stroke-miterlimit="10" stroke-linecap="round" stroke-linejoin="round"/>
<path d="M495.589 144.027C496.757 144.239 498.349 144.345 500.154 143.921C501.428 143.708 502.489 143.39 503.338 142.965" stroke="#111111" stroke-width="0.75" stroke-miterlimit="10" stroke-linecap="round" stroke-linejoin="round"/>
<path d="M493.997 304.08C495.695 303.867 496.969 303.231 497.818 302.806C498.986 302.169 500.472 301.426 501.215 299.728C501.534 298.985 501.64 298.348 501.64 297.818" fill="white"/>
<path d="M493.997 304.08C495.695 303.867 496.969 303.231 497.818 302.806C498.986 302.169 500.472 301.426 501.215 299.728C501.534 298.985 501.64 298.348 501.64 297.818" stroke="#111111" stroke-width="0.75" stroke-miterlimit="10"/>
<path d="M501.428 306.521C499.941 308.113 498.455 310.129 497.394 312.677C495.483 317.134 496.438 319.469 494.209 321.592C492.298 323.29 491.13 322.335 488.583 324.67C487.096 325.944 486.672 327.111 484.973 327.748C483.699 328.173 482.425 328.066 481.682 327.854" stroke="#111111" stroke-width="0.75" stroke-miterlimit="10"/>
<path d="M546.12 294.74C546.651 294.846 546.863 296.332 547.075 297.393C547.288 298.454 548.243 300.471 550.048 304.504C553.87 312.783 555.78 316.922 557.904 318.726C559.284 319.894 561.513 321.38 561.301 323.502C561.301 323.609 561.194 324.67 560.451 325.413C558.222 327.642 551.003 326.262 546.863 321.91C544.846 319.788 545.165 319.257 541.449 313.42C540.706 312.252 539.644 310.872 538.264 309.28C535.398 306.096 533.912 305.459 533.275 303.231C532.213 299.304 534.761 295.164 537.203 292.192C537.203 293.254 537.097 294.421 537.097 295.483C537.309 296.013 538.158 297.818 540.281 298.879C542.192 299.834 543.891 299.622 544.528 299.516C544.421 298.879 544.315 297.605 544.846 296.332C544.846 296.119 545.483 294.634 546.12 294.74Z" stroke="#111111" stroke-width="0.75" stroke-miterlimit="10"/>
<path d="M560.451 325.413C560.027 325.838 559.496 326.474 558.54 327.005C553.869 329.34 545.483 325.838 543.254 320.425C542.511 318.62 542.511 316.816 540.6 313.207C539.963 312.04 539.432 311.085 539.007 310.448C538.158 310.236 536.884 309.917 535.504 308.962C534.761 308.431 532.213 306.733 531.682 303.337C531.152 299.516 533.806 296.862 534.124 296.65" stroke="#111111" stroke-width="0.75" stroke-miterlimit="10"/>
<path d="M536.035 295.27C534.867 295.27 533.063 287.735 534.337 286.992C534.867 286.673 535.929 287.735 536.247 288.159C538.371 290.707 536.884 295.164 536.035 295.27Z" stroke="#111111" stroke-width="0.75" stroke-miterlimit="10"/>
<path d="M545.059 302.275C543.36 302.381 541.98 302.063 541.131 301.745C539.857 301.32 538.264 300.789 537.309 299.304C536.884 298.667 536.672 297.924 536.566 297.499" fill="white"/>
<path d="M545.059 302.275C543.36 302.381 541.98 302.063 541.131 301.745C539.857 301.32 538.264 300.789 537.309 299.304C536.884 298.667 536.672 297.924 536.566 297.499" stroke="#111111" stroke-width="0.75" stroke-miterlimit="10"/>
<path d="M538.158 305.99C539.857 307.264 541.661 309.068 543.148 311.297C545.802 315.33 545.271 317.771 547.925 319.469C550.048 320.849 551.109 319.682 553.976 321.486C555.674 322.547 556.311 323.609 558.01 323.821C559.39 324.033 560.557 323.715 561.301 323.396" stroke="#111111" stroke-width="0.75" stroke-miterlimit="10"/>
<path d="M389.75 143.071C390.174 142.965 390.705 144.982 392.298 148.06C393.147 149.758 393.571 150.182 394.421 151.668C395.376 153.367 396.756 155.808 397.924 159.204C397.499 158.886 396.969 158.461 396.332 158.461C395.376 158.461 394.739 159.098 394.527 159.31C391.979 161.645 381.788 158.886 378.603 157.93C374.675 156.869 372.128 155.808 372.128 155.702C372.128 155.489 374.569 156.232 378.179 156.232C380.514 156.232 382.531 156.02 382.531 155.808C382.531 155.489 377.966 155.808 372.977 153.473C370.96 152.517 369.261 151.244 369.368 151.032C369.58 150.713 372.658 152.305 377.223 153.048C379.559 153.473 381.576 153.473 382.956 153.473C381.257 153.048 378.709 152.305 375.949 150.819C372.658 149.121 370.004 146.892 370.217 146.574C370.429 146.255 373.189 148.06 378.179 149.652C380.408 150.395 382.213 150.819 383.486 151.032C380.302 149.227 377.86 147.423 376.055 146.043C375.1 145.3 374.038 144.451 374.145 144.239C374.357 143.92 378.072 146.468 383.274 148.378C385.928 149.333 388.157 149.864 389.644 150.076C389.537 149.333 389.431 148.06 389.325 146.68C389.431 145.088 389.431 143.178 389.75 143.071Z" stroke="#111111" stroke-width="0.75" stroke-miterlimit="10" stroke-linecap="round" stroke-linejoin="round"/>
<path d="M597.182 190.09C597.606 189.241 599.623 189.135 601.216 189.665C601.534 189.771 601.853 189.984 602.065 190.09C603.339 190.939 604.082 191.894 604.4 192.319C604.613 192.531 604.825 192.743 605.037 192.955C607.054 194.972 609.178 196.246 609.178 196.246C610.345 197.095 611.513 198.156 612.681 199.111C612.893 199.217 613.424 199.642 613.636 200.279C613.955 200.916 613.742 201.552 613.742 201.765C613.53 202.932 613.318 206.859 612.893 212.272C612.15 210.999 611.407 209.725 610.664 208.557C610.558 206.435 610.558 206.435 610.451 202.295C610.558 206.435 610.558 206.435 610.664 208.557C610.133 207.814 609.602 206.965 609.071 206.116C608.434 205.055 608.01 203.994 607.691 203.144C607.373 202.932 607.054 202.614 606.842 202.402C606.736 202.614 606.524 202.826 606.311 203.144C605.781 203.994 604.825 205.373 604.188 206.753C603.127 209.3 603.763 210.68 602.702 211.105C602.171 211.317 601.534 211.211 601.11 210.892C600.473 210.468 600.366 209.513 600.685 206.753C600.897 205.373 601.11 203.569 601.64 201.446C598.986 195.29 597.712 192.212 597.712 192.212C597.394 191.47 596.863 190.62 597.182 190.09Z" stroke="#111111" stroke-width="0.75" stroke-miterlimit="10" stroke-linecap="round" stroke-linejoin="round"/>
<path d="M606.948 202.189C607.161 201.977 608.329 201.34 609.602 201.658C610.027 201.764 610.346 201.977 610.558 202.083" stroke="#111111" stroke-width="0.75" stroke-miterlimit="10" stroke-linecap="round" stroke-linejoin="round"/>
<path d="M608.222 201.658C608.328 202.083 608.328 202.613 608.435 203.144C608.541 203.569 608.541 204.099 608.541 204.524" stroke="#111111" stroke-width="0.75" stroke-miterlimit="10" stroke-linecap="round" stroke-linejoin="round"/>
<path d="M159.812 316.922C161.617 316.71 163.846 325.519 165.014 330.295C165.757 333.267 168.623 344.623 167.349 345.048C166.818 345.26 165.651 343.881 162.466 337.088C158.963 343.668 154.822 346.852 151.956 348.657C149.939 349.824 147.179 351.204 146.967 350.885C146.755 350.567 148.878 349.081 151.319 346.958C154.292 344.199 156.415 341.546 157.795 339.529C156.309 341.015 153.973 343.031 150.789 344.942C146.967 347.171 142.827 348.55 142.614 348.126C142.402 347.808 144.95 346.428 148.878 343.562C152.275 341.121 154.929 338.786 156.733 337.3C154.822 338.786 151.956 340.59 148.028 342.076C143.782 343.562 139.536 344.093 139.323 343.668C139.217 343.244 142.614 342.395 147.285 339.847C150.789 337.937 153.549 336.026 155.247 334.647C154.079 335.602 152.275 336.769 149.833 337.406C146.436 338.361 143.145 337.937 143.145 337.618C143.145 337.3 146.33 337.406 149.727 335.39C150.789 334.753 152.381 333.479 154.292 330.72C159.069 323.502 158.22 317.028 159.812 316.922Z" stroke="#111111" stroke-width="0.75" stroke-miterlimit="10" stroke-linecap="round" stroke-linejoin="round"/>
<path d="M166.712 376.464C166.818 373.493 166.712 370.096 166.5 366.594C166.181 361.712 165.438 357.36 164.589 353.539" stroke="#111111" stroke-width="0.75" stroke-miterlimit="10"/>
<path d="M221.277 219.808C221.065 221.081 222.233 222.567 223.507 222.779C225.205 223.204 226.161 220.975 229.239 220.657C229.558 220.657 229.77 220.657 229.982 220.657C230.832 220.657 231.468 220.869 231.575 220.869C232.742 221.187 239.643 217.473 241.235 216.623C242.509 215.987 242.19 216.305 246.649 214.288C250.471 212.59 250.683 212.378 250.683 212.272C250.577 211.953 246.755 212.378 243.252 213.864C242.615 214.076 241.872 214.501 241.872 214.395C241.766 214.288 244.101 213.121 246.543 211.317C248.029 210.255 252.275 207.177 251.957 206.753C251.638 206.328 247.711 208.239 244.844 209.725C242.297 211.104 240.386 212.484 240.386 212.484C240.28 212.378 243.04 210.574 246.331 207.708C248.348 206.01 251.638 202.932 251.426 202.613C251.214 202.295 248.772 203.887 245.481 206.116C242.827 207.814 240.704 209.3 239.324 210.255C239.643 209.937 240.067 209.406 240.598 208.769C244.738 203.993 246.861 202.083 246.543 201.764C246.331 201.446 244.314 202.613 243.677 203.038C241.341 204.418 240.386 205.585 238.687 206.753C237.626 207.496 236.033 208.557 233.698 209.406C233.379 208.982 233.061 208.239 232.955 207.283C232.849 205.904 233.485 205.479 233.485 204.206C233.485 202.72 232.636 201.234 232.105 201.34C231.681 201.34 231.681 202.507 230.619 205.585C230.301 206.541 229.982 207.177 229.558 207.92C229.027 208.875 228.602 209.406 228.39 209.618C226.585 211.953 227.647 214.076 226.054 216.199C224.25 218.322 221.49 218.003 221.277 219.808Z" stroke="#111111" stroke-width="0.75" stroke-miterlimit="10" stroke-linecap="round" stroke-linejoin="round"/>
<path d="M135.183 213.652C138.687 216.836 142.084 218.216 144.207 218.746C149.409 220.232 156.415 220.02 157.689 217.366C158.22 216.305 157.37 215.562 158.007 212.909C158.326 211.423 158.75 211.104 159.281 209.618C159.6 208.557 159.918 206.965 159.812 204.736C160.98 204.524 161.723 203.993 162.147 203.675C162.678 203.25 163.315 202.826 163.315 202.189C163.315 201.552 162.466 201.128 161.935 200.703C158.538 198.262 159.069 192.318 159.175 191.363C159.281 190.726 159.494 190.196 159.494 190.196C159.494 189.771 159.387 189.24 159.387 188.497C159.387 188.497 158.963 183.934 157.37 180.856C155.353 177.247 150.682 174.063 145.693 172.789C138.687 170.985 129.876 173.426 125.098 178.733C118.41 186.162 119.578 200.172 130.512 209.088" stroke="#111111" stroke-width="0.75" stroke-miterlimit="10" stroke-linecap="round" stroke-linejoin="round"/>
<path d="M154.079 198.368C153.018 198.156 152.806 192.743 153.867 192.425C154.504 192.212 155.566 193.486 155.778 194.76C156.309 196.67 154.716 198.581 154.079 198.368Z" fill="#1D1D1B" stroke="#111111" stroke-width="0.75" stroke-miterlimit="10"/>
<path d="M148.984 190.832C150.258 188.816 152.381 187.754 154.398 188.073C155.672 188.285 156.521 188.922 157.052 189.346" stroke="#111111" stroke-width="0.75" stroke-miterlimit="10" stroke-linecap="round" stroke-linejoin="round"/>
<path d="M150.152 209.831C150.789 210.043 151.85 210.362 153.23 210.468C154.504 210.468 155.566 210.256 156.203 210.149" stroke="#111111" stroke-width="0.75" stroke-miterlimit="10" stroke-linecap="round" stroke-linejoin="round"/>
<path d="M140.81 203.038C140.279 202.826 137.306 201.87 136.245 199.005C135.396 196.776 135.714 193.486 137.519 192.849C138.899 192.424 140.597 193.698 140.916 194.016" stroke="#111111" stroke-width="0.75" stroke-miterlimit="10" stroke-linecap="round" stroke-linejoin="round"/>
<path d="M124.886 205.161C124.143 204.206 122.657 202.614 122.126 201.659C122.02 201.446 121.914 201.34 121.808 201.022C121.064 199.324 121.595 199.111 120.746 197.625C119.684 195.715 118.623 195.609 118.198 194.123C117.88 193.168 118.198 192.743 118.835 190.408C119.791 186.8 119.366 186.163 120.427 182.66C120.852 181.068 121.277 180.219 121.914 179.264C122.444 178.521 122.657 178.415 123.294 177.46C124.037 176.292 124.249 175.125 124.886 174.7C125.523 174.169 125.842 174.488 126.797 173.957C127.965 173.32 127.859 172.79 128.814 172.471C129.769 172.153 129.982 172.683 130.831 172.365C131.999 171.94 131.893 170.985 132.848 170.879C133.591 170.773 133.697 171.304 134.546 171.304C135.396 171.304 135.502 170.773 136.457 170.561C137.094 170.455 137.094 170.561 138.58 170.561C139.748 170.561 139.854 170.455 140.704 170.455C141.765 170.455 141.765 170.667 143.358 170.773C145.056 170.985 145.056 170.773 145.799 170.985C146.861 171.304 146.967 171.728 147.816 171.728C148.665 171.834 148.984 171.41 149.621 171.622C149.833 171.728 149.833 171.728 150.682 172.683C151.213 173.32 151.532 173.639 151.744 173.745C152.381 174.275 152.699 174.169 153.124 174.594C153.761 175.125 153.336 175.655 153.973 176.292C154.398 176.717 154.716 176.717 154.823 176.929C154.929 177.46 153.867 177.99 153.124 178.203C152.381 178.415 151.85 178.415 150.789 178.415C150.258 178.415 149.515 178.415 148.453 178.203C147.392 177.99 147.498 177.884 146.967 177.884C145.799 177.884 145.587 178.521 144.844 178.415C143.888 178.309 143.57 177.353 143.039 177.46C142.508 177.566 142.721 179.264 142.084 180.325C141.341 181.493 140.173 181.599 140.279 182.236C140.385 182.66 141.022 182.66 141.341 183.403C141.553 183.934 141.234 184.04 141.341 184.571C141.553 185.314 142.296 185.314 142.296 185.844C142.296 186.163 141.871 186.587 140.916 187.224C140.067 187.861 139.748 187.967 139.748 188.285C139.642 188.816 140.597 188.922 141.128 189.877C141.553 190.727 141.128 191.045 141.553 191.894C142.084 192.849 142.721 192.637 143.145 193.486C143.676 194.547 143.251 196.033 142.721 196.14C142.296 196.14 142.296 195.078 140.916 194.017C140.173 193.274 139.536 193.062 139.324 193.062C139.005 192.955 138.156 192.743 137.519 192.955C136.033 193.486 135.608 196.352 136.033 198.368C136.351 199.854 136.988 200.916 137.413 201.446C135.927 203.038 134.653 203.569 133.697 203.675C132.636 203.781 131.362 203.569 131.043 204.206C130.831 204.524 131.256 204.949 130.937 205.373C130.619 205.904 130.088 205.798 129.663 206.222C128.708 207.072 129.982 208.982 129.345 209.513C128.814 209.831 127.646 209.194 127.009 208.664C125.735 207.496 126.16 206.859 124.886 205.161Z" fill="#111111"/>
<path d="M129.132 387.609C127.752 383.045 124.568 375.191 117.667 367.337C110.555 359.376 102.912 355.343 98.4529 353.433" stroke="#111111" stroke-width="0.75" stroke-miterlimit="10"/>
<path d="M84.2276 163.343C81.3613 160.265 74.3549 151.774 72.7625 138.932C71.7009 130.759 73.2933 124.073 74.5672 120.252" stroke="#111111" stroke-width="0.75" stroke-miterlimit="10"/>
<path d="M109.069 247.085C108.962 241.884 108.538 235.94 107.37 229.36C105.247 217.367 101.319 206.859 97.7097 199.748" stroke="#111111" stroke-width="0.75" stroke-miterlimit="10" stroke-linecap="round" stroke-linejoin="round"/>
<path d="M257.796 233.181C262.148 230.209 269.048 226.282 278.072 224.159C292.615 220.657 297.18 225.539 318.199 225.963C340.917 226.494 348.454 221.081 360.45 227.449C367.138 230.952 371.384 236.152 373.826 239.761" stroke="#111111" stroke-width="0.75" stroke-miterlimit="10"/>
<path d="M207.689 409.154C214.908 405.97 219.154 401.937 221.49 399.177C223.825 396.418 225.63 393.658 231.787 379.648C234.335 373.917 236.352 369.141 237.838 365.638" stroke="#111111" stroke-width="0.75" stroke-miterlimit="10"/>
<path d="M246.543 350.673C249.728 346.003 253.974 338.362 255.991 328.173C259.813 308.007 251.745 291.98 248.878 286.78" stroke="#111111" stroke-width="0.75" stroke-miterlimit="10"/>
<path d="M265.757 301.108C264.696 301.745 262.891 302.594 260.556 302.912C258.433 303.231 256.628 303.018 255.46 302.806" stroke="#111111" stroke-width="0.75" stroke-miterlimit="10"/>
<path d="M332.637 313.207C334.972 313.738 337.202 314.162 339.643 314.162C343.677 314.268 346.756 313.526 348.136 313.207C362.786 309.705 365.652 312.464 372.446 308.431C377.648 305.353 376.48 303.336 382.955 299.728C387.839 297.074 389.643 297.499 393.465 294.633C395.907 292.829 401.321 288.796 401.002 284.126C400.684 278.925 393.677 277.864 392.616 270.54C392.51 269.585 392.191 267.675 392.934 265.34C393.89 262.156 395.801 261.307 396.968 258.866C398.455 255.575 397.287 252.073 396.65 249.95C393.677 239.018 399.198 232.862 398.03 210.574C397.924 208.026 397.711 204.099 396.862 199.005C395.588 191.151 392.297 180.431 390.174 169.605C389.75 167.482 389.113 164.192 388.582 159.947" stroke="#111111" stroke-width="0.75" stroke-miterlimit="10"/>
<path d="M504.825 113.353C504.188 112.822 501.852 111.018 498.774 111.337C494.952 111.761 492.829 115.37 492.298 116.431C491.024 118.554 490.706 121.207 490.069 126.514C489.856 127.894 489.75 129.061 489.75 129.804C488.901 129.274 488.158 128.637 487.309 128.106C487.521 128.106 488.583 127.894 488.795 127.257C489.007 126.514 488.264 125.24 486.566 124.497C486.99 124.179 487.521 123.542 487.946 122.587C488.689 120.889 488.264 119.297 488.052 118.766C487.627 118.872 486.99 118.872 486.353 118.872C485.61 118.872 485.079 118.766 484.549 118.66C485.079 118.554 486.035 118.342 486.99 117.705C487.839 117.068 488.37 116.431 488.689 116.007C487.946 116.537 486.353 117.492 484.018 117.705C482.001 117.811 480.515 117.28 479.665 116.962C480.515 116.749 481.576 116.219 482.638 115.476C484.336 114.202 485.398 112.716 485.929 111.867C485.61 111.867 485.292 111.973 484.973 112.079C483.699 112.398 482.744 112.929 482.107 113.459C482.744 112.398 483.699 111.018 485.186 109.638C486.672 108.365 488.052 107.516 489.113 107.091C488.795 106.985 488.476 106.773 487.946 106.773C487.096 106.667 486.353 106.879 485.929 106.985C486.672 106.03 487.733 104.968 488.901 104.013C492.617 101.041 496.438 100.192 498.774 99.8738C498.031 99.7677 497.181 99.6616 496.226 99.5554C495.589 99.5554 494.952 99.5554 494.315 99.5554C496.651 99.237 499.092 98.9186 501.428 98.6002C501.534 98.3879 501.534 98.1757 501.534 97.9634C501.534 97.4327 501.428 97.0082 501.321 96.7959C501.852 97.0082 502.489 97.3266 503.126 97.7511C503.763 98.1757 504.4 98.6002 504.931 99.0248C505.143 98.8125 505.355 98.4941 505.674 98.1757C506.417 97.4327 507.16 97.1143 507.691 96.902C507.372 97.2204 507.054 97.7511 506.842 98.4941C506.736 98.7064 506.736 99.0248 506.736 99.237C507.585 98.6002 508.753 97.8573 510.026 97.2204C513.636 95.5223 517.033 95.6284 518.944 95.8407C517.882 95.8407 515.547 96.1591 513.53 97.9634C512.893 98.4941 512.468 99.0248 512.15 99.5554C513.53 98.9186 516.821 97.645 520.961 98.1757C524.145 98.6002 526.587 99.98 527.861 100.829C526.906 100.617 525.632 100.405 524.145 100.617C523.721 100.723 523.402 100.723 523.084 100.829C524.57 101.466 527.967 103.27 530.515 107.197C532.107 109.744 532.744 112.292 532.957 113.778C532.001 112.186 530.515 111.23 529.347 111.443C529.135 111.443 528.816 111.549 528.498 111.867C528.498 113.035 528.604 115.688 530.196 118.448C531.47 120.676 533.063 121.95 534.018 122.587C533.7 122.799 532.744 123.118 531.576 122.905C530.833 122.799 530.303 122.481 529.984 122.269C530.409 123.542 530.94 125.134 531.152 126.939C531.47 129.698 531.258 132.033 531.046 133.625C531.046 132.776 530.833 131.609 530.303 130.441C530.09 130.123 529.984 129.804 529.772 129.486C530.09 130.653 530.621 132.882 530.09 135.536C529.772 137.021 529.241 138.189 528.816 138.932C528.604 137.977 528.286 136.915 528.073 136.915C527.967 136.915 527.967 137.552 527.861 138.083C527.755 138.932 527.542 139.993 526.799 141.373C525.95 140.099 524.57 139.887 524.039 140.418C523.508 140.948 523.721 142.116 523.721 142.116C523.19 141.691 522.553 141.798 522.235 142.116C521.916 142.434 521.916 142.859 521.916 142.965C521.173 142.965 520.324 142.965 519.581 142.965C519.474 143.708 519.368 144.451 519.156 145.194C518.201 144.557 517.245 144.133 517.033 144.451C516.714 144.769 517.139 145.725 518.094 146.998C517.457 146.892 516.821 146.786 516.184 146.68C516.077 146.043 515.971 145.088 515.971 144.026C515.971 142.965 516.184 142.116 516.29 141.479C517.139 141.691 520.111 142.222 522.765 140.418C525.738 138.401 527.118 134.156 526.056 132.882C525.738 132.564 524.782 132.033 521.598 133.519C521.385 133.201 521.067 132.67 520.748 132.033C519.687 129.804 519.262 128 519.156 127.469C518.838 125.771 516.502 115.051 511.088 113.035C509.92 112.292 507.903 111.973 504.825 113.353Z" fill="#111111"/>
<path d="M332.106 123.967C331.257 124.073 330.726 126.196 330.832 127.788C330.832 128.212 331.044 130.017 332.212 130.441C332.318 130.441 332.743 130.653 333.168 130.441C334.229 129.91 334.123 127.788 334.123 127.575C333.911 125.877 332.955 123.967 332.106 123.967Z" fill="#1D1D1B"/>
<path d="M343.677 123.436C342.828 123.542 342.297 125.665 342.403 127.257C342.403 127.682 342.616 129.486 343.783 129.91C343.89 129.91 344.314 130.123 344.739 129.91C345.8 129.38 345.694 127.257 345.694 127.045C345.588 125.347 344.526 123.33 343.677 123.436Z" fill="#1D1D1B"/>
<path d="M226.691 214.076H216.925V0" stroke="#111111" stroke-width="0.75" stroke-miterlimit="10"/>
<path d="M434.442 214.076H397.924" stroke="#111111" stroke-width="0.75" stroke-miterlimit="10"/>
<path d="M202.487 226.706L216.925 214.076" stroke="#111111" stroke-width="0.75" stroke-miterlimit="10"/>
<path d="M1.2124 402.468L56.4144 354.282" stroke="#111111" stroke-width="0.75" stroke-miterlimit="10"/>
<defs>
<filter id="filter0_d" x="237.129" y="369.247" width="21.486" height="19.774" filterUnits="userSpaceOnUse" color-interpolation-filters="sRGB">
<feFlood flood-opacity="0" result="BackgroundImageFix"/>
<feColorMatrix in="SourceAlpha" type="matrix" values="0 0 0 0 0 0 0 0 0 0 0 0 0 0 0 0 0 0 127 0"/>
<feOffset dy="4"/>
<feGaussianBlur stdDeviation="2"/>
<feColorMatrix type="matrix" values="0 0 0 0 0 0 0 0 0 0 0 0 0 0 0 0 0 0 0.25 0"/>
<feBlend mode="normal" in2="BackgroundImageFix" result="effect1_dropShadow"/>
<feBlend mode="normal" in="SourceGraphic" in2="effect1_dropShadow" result="shape"/>
</filter>
<filter id="filter1_d" x="191.162" y="397.798" width="21.4821" height="27.7932" filterUnits="userSpaceOnUse" color-interpolation-filters="sRGB">
<feFlood flood-opacity="0" result="BackgroundImageFix"/>
<feColorMatrix in="SourceAlpha" type="matrix" values="0 0 0 0 0 0 0 0 0 0 0 0 0 0 0 0 0 0 127 0"/>
<feOffset dy="4"/>
<feGaussianBlur stdDeviation="2"/>
<feColorMatrix type="matrix" values="0 0 0 0 0 0 0 0 0 0 0 0 0 0 0 0 0 0 0.25 0"/>
<feBlend mode="normal" in2="BackgroundImageFix" result="effect1_dropShadow"/>
<feBlend mode="normal" in="SourceGraphic" in2="effect1_dropShadow" result="shape"/>
</filter>
</defs>
</svg>
