<svg width="390" height="467" viewBox="0 0 390 467" fill="none" xmlns="http://www.w3.org/2000/svg">
<path d="M37.1001 203.6L58.4001 257.5L127.7 278.4L107.4 219.3L37.1001 203.6Z" stroke="#111111" stroke-width="0.75" stroke-miterlimit="10" stroke-linecap="round" stroke-linejoin="round"/>
<path d="M107.4 219.3L108.6 218.1" stroke="#111111" stroke-width="0.75" stroke-miterlimit="10" stroke-linecap="round" stroke-linejoin="round"/>
<path d="M155.9 248.6C142.1 244.2 128.4 239.9 114.6 235.5" stroke="#111111" stroke-width="0.75" stroke-miterlimit="10" stroke-linecap="round" stroke-linejoin="round"/>
<path d="M128.9 277.2L127.7 278.4L155.9 250.8" stroke="#111111" stroke-width="0.75" stroke-miterlimit="10" stroke-linecap="round" stroke-linejoin="round"/>
<path d="M1.7002 418.4C1.5002 418.5 2.0002 422.4 4.8002 424.9C7.5002 427.3 11.2002 427.3 12.6002 427.2C19.7002 427 21.9002 422.1 34.3002 415.2C37.7002 413.3 39.4002 412.4 42.0002 411.3C46.6002 409.4 51.2002 408.2 56.0002 404.6C57.2002 403.7 58.3002 402.7 58.3002 401.4C58.3002 399.6 56.3002 397.7 54.2002 397.3C52.8002 397 51.6002 397.5 50.4002 398C44.7002 400.5 40.6002 402.3 38.4002 406.9C38.0002 407.7 37.5002 408.9 37.2002 410.6C33.1002 413.7 28.5002 416.9 23.2002 420C20.0002 421.9 16.9002 423.5 13.9002 425C11.3002 425.3 7.7002 425.3 5.0002 423.1C2.5002 421.3 1.8002 418.3 1.7002 418.4Z" fill="#111111"/>
<path d="M40.6 388.6C39.5 389.5 38.4 390.8 38.6 392.1C38.7 393 39.4 393.3 39.5 393.8C39.6 394.9 36.8 396.7 26 399.7C26.7 401.4 28.2 404.6 31.4 407.3C33.3 408.9 35.1 409.8 36.5 410.3C38.5 409.7 40.7 409 42.9 408.2C47.7 406.4 51.7 404.2 55.1 402.2C56 399.7 55.7 398.2 55.2 397.4C54.4 396 53 395.6 53.1 394.6C53.2 393.5 55 393.4 55.2 392.4C55.4 391.1 53.1 389.5 51.5 388.8C47.4 386.9 43.1 387.8 40.6 388.6Z" fill="#FFC910"/>
<path d="M25.2001 396.4C25.5001 398.2 26.5001 403.4 31.3001 407.5C33.4001 409.2 35.5001 410.2 37.2001 410.8C33.0001 413.7 29.2001 416.2 26.1001 418.3C16.7001 424.5 14.0001 425.8 10.6001 425.5C10.3001 425.5 6.10009 425 3.40009 421.9C-0.799913 417 2.40009 409.4 5.10009 405.6C11.3001 396.8 23.8001 396.5 25.2001 396.4Z" stroke="#111111" stroke-width="0.75" stroke-miterlimit="10" stroke-linecap="round" stroke-linejoin="round"/>
<path d="M25.2002 396.4C26.0002 397.3 26.7002 398.2 27.5002 399.1L25.2002 396.4Z" fill="white"/>
<path d="M25.2002 396.4C26.0002 397.3 26.7002 398.2 27.5002 399.1" stroke="#111111" stroke-width="0.75" stroke-miterlimit="10" stroke-linecap="round" stroke-linejoin="round"/>
<path d="M46.3999 455.2C46.3999 456.2 46.3999 460.8 49.7999 463.8C52.5999 466.2 56.0999 466.2 57.5999 466.1C64.6999 465.9 66.8999 461 79.2999 454.1C82.6999 452.2 84.3999 451.3 86.9999 450.2C91.5999 448.3 96.1999 447.1 101 443.5C102.2 442.6 103.3 441.6 103.3 440.3C103.3 438.5 101.1 436.8 99.1999 436.2C99.0999 436.2 97.2999 435.6 95.3999 436C90.4999 437.1 88.5999 443.4 82.8999 449.5C81.8999 450.5 82.5999 449.7 65.5999 461.1C63.6999 462.4 61.3999 463.9 58.1999 464.1C57.2999 464.2 52.5999 464.5 49.1999 460.9C46.9999 458.8 46.4999 456.2 46.3999 455.2Z" fill="#111111"/>
<path d="M79.2 419.3C78.5 420.4 77.7 422.1 78.3 423.5C78.9 424.8 80.4 424.8 80.8 425.9C81.3 427.2 80 428.8 77.7 431.3C76.1 433.1 73.9 435.4 71 438C71.4 439.5 72.3 442 74.3 444.4C77.3 448 80.9 449.4 82.5 449.9C86.8 447 91.2 444 95.5 441.1C95.9 440.2 96.3 439 96.4 437.6C96.6 435.7 96.1 434.7 95.3 430.4C94.7 426.9 94.7 426.2 95 425.4C95.7 423.8 96.9 423.7 97.1 422.5C97.5 420.6 94.9 418.3 93.4 417.4C88 414 80.1 418.7 79.2 419.3Z" fill="#FFC910"/>
<path d="M70.2 435.3C70.5 437.1 71.7 442.3 76.3 446.4C78.7 448.5 81.2 449.5 82.8 450C78.3 453.3 74.5 455.8 71.5 457.7C61.4 464.1 58.4 464.7 55.5 464.3C54.6 464.2 50.8 463.6 48.3 460.7C44.1 455.8 47.3 448.2 50 444.4C56.3 435.7 68.8 435.3 70.2 435.3Z" stroke="#111111" stroke-width="0.75" stroke-miterlimit="10" stroke-linecap="round" stroke-linejoin="round"/>
<path d="M70.2 435.3C70.7 435.9 71.2 436.5 71.8 437.2L70.2 435.3Z" fill="white"/>
<path d="M70.2 435.3C70.7 435.9 71.2 436.5 71.8 437.2" stroke="#111111" stroke-width="0.75" stroke-miterlimit="10" stroke-linecap="round" stroke-linejoin="round"/>
<path d="M37.1001 203.6L38.3001 202.4L108.6 218.1L128.2 275.2" stroke="#111111" stroke-width="0.75" stroke-miterlimit="10" stroke-linecap="round" stroke-linejoin="round"/>
<path d="M128.2 275.2C137.4 266.3 146.7 257.5 155.9 248.6C155.9 249.3 155.9 250.1 155.9 250.8" stroke="#111111" stroke-width="0.75" stroke-miterlimit="10" stroke-linecap="round" stroke-linejoin="round"/>
<path d="M71.3001 261.4C60.9001 274.3 41.9001 301.6 37.7001 340.3C36.0001 355.6 37.1001 369.1 38.8001 379.9C37.7001 380.7 36.7001 381.5 35.6001 382.3C37.0001 383.1 38.4001 383.8 39.8001 384.6C38.8001 385.5 37.7001 386.5 36.7001 387.4C37.5001 388.4 38.6001 389.5 40.0001 390.3C46.0001 394.1 53.0001 392 54.6001 391.5C56.4001 390.9 58.2001 390.3 60.0001 389.8C58.3001 389 56.7001 388.3 55.0001 387.5C56.5001 386.7 57.9001 385.9 59.4001 385.1C58.4001 384.3 57.4001 383.6 56.5001 382.8C56.5001 380.1 56.5001 376.2 56.8001 371.6C57.6001 357 59.4001 326 79.1001 298.3C84.1001 291.2 92.6001 281.3 106.1 271.9C94.5001 268.3 82.9001 264.9 71.3001 261.4Z" fill="#111111" stroke="#1D1E1B" stroke-miterlimit="10"/>
<path d="M146.4 72.6C144.6 72.8 142.7 72.7 142 71.6C141.4 70.7 142 70 141.5 69.4C140.2 68 136.2 71.2 133.7 69.8C131.9 68.8 130.9 66 131.7 65C132.4 64.1 134.2 64.5 134.4 63.8C134.6 63.2 133 62.6 133.1 61.9C133.2 60.9 136.3 61.3 137.1 59.7C137.7 58.5 136.4 57.2 137.1 56.5C137.7 55.8 139.1 56.7 139.9 56C140.9 55.1 139.2 53.1 140.1 51.2C141.1 49 144.2 49.5 144.7 47.8C145.2 46 142.1 44.5 142.6 43.2C143.4 41 152.9 43 153.4 41.1C153.7 40 150.9 38.3 151.3 37.6C151.7 36.9 154.6 38.6 156.1 37.4C157.5 36.3 156.4 33.8 157.5 33.1C158.7 32.4 160 34.9 163 35.4C166.7 36 168.6 33 171.1 34.2C173 35.1 172.8 37.2 174.1 37.3C176.1 37.4 177.3 32 179.3 32.1C180.7 32.2 180.9 34.9 182.7 35.2C184.7 35.5 186.2 32.6 187.3 33.2C188.3 33.7 187.5 36.5 188.4 36.9C189.4 37.3 191.1 34.4 191.8 34.8C192.1 35 192.1 35.7 191.6 39.2C191.2 42 191.2 42.1 191.3 42.3C192.5 44.5 198.8 41.6 201.1 44.4C202.3 45.8 202.2 48.5 202.2 49C202.2 50.8 201.6 51.6 202.2 52.6C203 54 204.7 53.8 204.8 54.6C204.9 55.7 201.7 56.4 201.7 57.8C201.7 59.2 205.1 59.6 205.3 61.4C205.5 62.8 203.2 63.2 202.8 65.3C202.3 67.8 204.8 69.5 203.9 70.8C203.2 71.8 201.3 71.1 200.9 72C200.3 73.3 203.8 75.7 203.2 76.7C202.8 77.5 200.4 76.8 200.2 77.4C200 78 202.3 78.7 202.9 80.7C203.2 81.9 202.6 82.2 202.5 84.6C202.4 86.6 202.8 86.7 202.8 88C202.6 91 200.1 93.2 199.5 93.7C197 95.9 195.5 95 194.4 97C193.4 98.8 193.8 100.7 192.5 101.3C191.6 101.7 190.8 101.2 190.3 101.7C189.6 102.4 190.7 103.8 190.1 105C189.7 105.9 188.7 106.3 187.8 106.5C187.7 105.2 187.7 103.7 187.8 102C187.9 100.8 188.1 99.7 188.2 98.7C188.8 98.1 189.8 97.2 191.1 96.2C194.5 93.7 195.7 94.1 198.1 92.2C198.8 91.6 202.8 88.4 202.6 84.3C202.6 83.5 202.5 82.3 201.6 81.6C199.8 80.1 195.2 81.7 192.6 84.5C190.6 86.6 190.3 88.7 189.5 88.6C188.6 88.5 188.2 86.3 187.8 83.9C186.4 76.4 185.7 72.6 185.2 71.1C184.1 67.8 182.5 63.1 178.6 61.6C176.4 60.8 175.1 61.7 172.8 60.2C170.6 58.8 169.9 56.9 168.4 57.1C167.2 57.3 167.2 58.6 166 58.7C164.4 58.9 163.9 56.7 162 56.4C159.6 56.1 157.2 59 156.9 59.3C155.7 60.7 155.5 62 154.2 62.3C153.2 62.5 152.6 62 152.2 62.4C151.5 63.1 152.6 64.8 151.9 65.5C151.2 66.1 149.7 64.8 148.7 65.5C148 66 148.3 67.2 147.6 67.5C147 67.8 146.3 66.8 145.9 67C145.7 67.5 145.5 68.7 146.4 72.6Z" fill="#111111"/>
<path d="M116.6 275C107.2 283.8 93.5999 298.9 83.8999 321.1C67.4999 358.7 72.6999 393 75.4999 406.7C74.2999 407.4 73.0999 408.2 71.8999 408.9C73.1999 409.7 74.5999 410.5 75.8999 411.3C74.9999 412.4 73.9999 413.6 73.0999 414.7C74.1999 415.2 75.3999 415.6 76.4999 416.1C75.7999 417.3 75.1999 418.5 74.4999 419.7C75.4999 420.2 76.4999 420.8 77.4999 421.3C79.5999 421.9 82.8999 422.6 86.8999 422.3C90.4999 422 93.3999 421.1 95.2999 420.3C96.3999 419.2 97.5999 418 98.6999 416.9C97.5999 416 96.3999 415 95.2999 414.1C96.4999 413.5 97.6999 412.9 98.8999 412.3C97.3999 411.2 95.7999 410 94.2999 408.9C95.5999 407.9 96.7999 406.9 98.0999 405.9C96.8999 404.8 95.6999 403.8 94.4999 402.7C91.5999 361.2 102.5 339.6 113.6 327.4C121 319.3 144.4 297.7 172.1 281.2C176.5 278.6 184.6 274 190.4 264.5C197.6 252.8 197.6 239.8 196.6 231.2C183.7 232.9 168.5 233.5 151.8 231.4C148 230.9 144.3 230.3 140.8 229.6C140 234.1 139.1 238.6 138.3 243.1C144.2 245 150 246.8 155.9 248.7C155.9 249.4 155.9 250.2 155.9 250.9C146.5 260.1 137.1 269.2 127.7 278.4C124 277.2 120.3 276.1 116.6 275Z" fill="#111111" stroke="#1D1E1B" stroke-miterlimit="10"/>
<path d="M193.8 117.6C191.4 120.5 188.2 124.9 186.6 131C184.6 138.5 185.9 144.5 186.6 149.5C188.6 163.4 185.6 164.2 186.1 182.4C186.5 197.5 186.9 209.7 192.5 223.9C196.5 234 201.6 240.8 205.1 256.3C206.1 260.8 206.7 264.5 207 267C208.7 266.7 211.2 266.1 213.4 264.3C215.8 262.4 215.5 261.1 217.4 258.9C221.5 254.2 226.5 256.3 230.5 251.9C231.5 250.8 232.8 249 233.4 245.7C234.8 246.6 236.9 248.1 237.4 250.5C238.2 254 235.1 255.7 233.9 261.2C232.7 266.6 235.2 267.3 233.9 271.9C232.3 277.4 228.3 277.9 227.2 282.3C226.6 284.8 226.9 288.7 231.2 294.4C231.3 292.2 231.4 289.9 231.5 287.7C236.6 291.4 241.3 293 244.4 293.9C248.6 295 255.7 297 258.9 293.6C260.2 292.2 260 290.8 260.5 286.9C261.1 282.7 262.1 279.3 264.2 272.4C267 263.3 268.5 265.1 270.9 257.1C272.2 252.9 271.9 252 274.6 237.8C275 235.5 276.3 233.7 275.9 231.1C275.4 227.3 272.9 225.4 270.3 222C267.6 218.5 267.1 216.3 264.4 209.7C254.7 186 234.1 149 227.4 144.3C227.1 144.1 226.1 143.4 225.5 142.2C224.3 139.5 226.7 137 227.6 133.4C228.8 128.9 227.8 122.6 224.7 120.8C221.9 119.2 220 122.4 212.9 122.4C209.4 122.4 206.6 121.6 201.9 120.3C198.6 119.5 195.8 118.4 193.8 117.6Z" fill="#111111"/>
<path d="M171.2 121.2C170.8 121.9 170.2 123.1 169.3 124.5C167.7 127.1 166.3 128.8 166.1 129.1C163.8 132.1 154.4 148 149.8 160.4C145.2 172.7 146.8 177.3 143.9 205.1C143 213.8 141.5 226.9 138.8 243.1C131 240.6 123.1 238.1 115.3 235.7C114.4 230.1 113.6 221.7 115 211.8C116.6 200.6 119.4 199.5 123.8 184.7C129.9 164.5 127.2 158 135 144.3C137 140.8 139.1 137.1 143 133.3C152.9 123.8 165.2 121.7 171.2 121.2Z" fill="#111111"/>
<path d="M164.9 123.3C166.7 124.7 170 127 174.7 128C182.5 129.7 188.7 126.7 190.6 125.7" stroke="#111111" stroke-width="0.75" stroke-miterlimit="10" stroke-linecap="round" stroke-linejoin="round"/>
<path d="M146.1 67.4001C145.4 74.3001 146.8 78.1001 148.2 80.4001C148.6 80.9001 149 81.6001 149.5 82.7001C151.3 86.5001 150.7 90.2001 150.6 91.8001C149.8 100.9 155.8 109.2 156.2 109.7C157.6 111.5 161.2 116.4 166.4 116.5C167.9 116.6 169.9 116.2 173.9 113.6C184.2 106.8 183.2 101 191.7 96.2001C195.1 94.3001 197.5 93.9001 199.9 90.8001C202 88.1001 203.7 83.8001 202.2 82.2001C200.7 80.6001 196.2 82.1001 193.5 84.2001C191.3 85.9001 190.2 88.0001 189.8 89.3001C189.2 87.9001 188.5 85.8001 187.8 83.3001C185.7 75.6001 186.3 71.0001 183.1 65.8001C182.2 64.3001 181.1 62.9001 179.4 62.2001C177.6 61.4001 177.1 62.2001 175.1 61.7001C171.5 60.6001 170.7 57.2001 168.7 57.5001C167.5 57.7001 167.5 59.0001 166.3 59.1001C164.7 59.3001 164.2 57.1001 162.3 56.8001C160 56.5001 157.8 59.0001 157.6 59.2001C156.3 60.8001 156.4 62.1001 155.1 62.5001C154 62.9001 153.1 62.2001 152.6 62.8001C151.9 63.6001 153 65.3001 152.3 65.9001C151.6 66.5001 150.1 65.2001 149.1 65.9001C148.4 66.4001 148.7 67.6001 148 67.9001C147.3 68.1001 146.6 67.8001 146.1 67.4001Z" stroke="#111111" stroke-width="0.75" stroke-miterlimit="10" stroke-linecap="round" stroke-linejoin="round"/>
<path d="M156.3 81.6001C155.2 81.6001 153 88.8001 155.8 91.1001C156 91.2001 156.7 91.9001 157.3 91.6001C159.1 90.9001 157.5 81.6001 156.3 81.6001Z" fill="#1D1D1B" stroke="#111111" stroke-width="0.75" stroke-miterlimit="10"/>
<path d="M172.3 80.3999C173.4 80.3999 175.6 87.5999 172.8 89.8999C172.6 89.9999 171.9 90.6999 171.3 90.3999C169.6 89.6999 171.1 80.4999 172.3 80.3999Z" fill="#1D1D1B" stroke="#111111" stroke-width="0.75" stroke-miterlimit="10"/>
<path d="M163 87.2C163.5 91.6 162.5 93.7 161.4 94.8C160.1 96.2 158 96.7 158.1 97.9C158.1 98.7 159.2 99.3 159.6 99.5C161.5 100.6 163.7 99.7 164.2 99.5" stroke="#111111" stroke-width="0.75" stroke-miterlimit="10" stroke-linecap="round" stroke-linejoin="round"/>
<path d="M149.3 76.4C150.1 75.6 152.3 73.9 155.5 73.6C156.9 73.5 158.1 73.6 159 73.9" stroke="#111111" stroke-width="0.75" stroke-miterlimit="10" stroke-linecap="round" stroke-linejoin="round"/>
<path d="M165.7 73.3999C166.9 72.7999 169.7 71.4999 173.5 71.7999C175.9 71.9999 177.8 72.7999 178.9 73.3999" stroke="#111111" stroke-width="0.75" stroke-miterlimit="10" stroke-linecap="round" stroke-linejoin="round"/>
<path d="M163.9 108.7C165.5 108.4 168 107.6 170.6 105.9C172.3 104.8 173.5 103.6 174.3 102.6" stroke="#111111" stroke-width="0.75" stroke-miterlimit="10" stroke-linecap="round" stroke-linejoin="round"/>
<path d="M192.3 92.4001C193.1 91.8001 194.2 90.9001 194 90.4001C193.8 89.8001 192.2 90.3001 191.8 89.7001C191.3 88.8001 193.6 86.1001 196.5 85.6001C196.7 85.6001 198.9 85.2001 199.3 86.1001C199.5 86.6001 199.1 87.4001 198.4 88.1001" stroke="#111111" stroke-width="0.75" stroke-miterlimit="10" stroke-linecap="round" stroke-linejoin="round"/>
<path d="M168.3 125.6C169.3 124.6 171.2 122.3 171.9 118.9C172.2 117.3 172.2 115.8 172 114.8" stroke="#111111" stroke-width="0.75" stroke-miterlimit="10" stroke-linecap="round" stroke-linejoin="round"/>
<path d="M194.2 120.2C193.8 119.9 193.1 119.3 192.4 118.4C187.3 112.5 187.8 104.4 188 102.2C188.1 101.3 188.2 100 188.5 98.5" stroke="#111111" stroke-width="0.75" stroke-miterlimit="10" stroke-linecap="round" stroke-linejoin="round"/>
<path d="M163.7 127.1C165.4 128.5 168.2 130.4 171.9 131.5C180.2 134 187.4 130.9 189.5 129.9" stroke="#111111" stroke-width="0.75" stroke-miterlimit="10" stroke-linecap="round" stroke-linejoin="round"/>
<path d="M180.7 214.1C175.1 213.8 170.9 210.4 170.5 206.7C170.3 204.8 171.1 203.7 171.9 201.7C174.5 194.9 170.8 189.8 169.3 179.8C168.8 176.4 168.3 171.2 169.1 164.7" stroke="#111111" stroke-width="0.75" stroke-miterlimit="10" stroke-linecap="round" stroke-linejoin="round"/>
<path d="M79.2 247C76.6 247.5 74.1 246.7 72.8 244.8C70.9 242.1 72 237.6 74.5 236.8C76.4 236.2 78.6 238.1 78.8 238.3C79 238.2 81.4 236.6 83.6 237.6C86.2 238.7 87.2 242.8 85.4 245.3C84.1 247 81.6 247.7 79.2 247Z" stroke="#111111" stroke-width="0.75" stroke-miterlimit="10" stroke-linecap="round" stroke-linejoin="round"/>
<path d="M79.4999 234.6C78.3999 234.8 76.3999 232 77.2999 230.6C77.7999 229.7 79.4999 229.5 80.2999 230.1C81.5999 231.1 80.5999 234.4 79.4999 234.6Z" stroke="#111111" stroke-width="0.75" stroke-miterlimit="10" stroke-linecap="round" stroke-linejoin="round"/>
<path d="M221.1 129.1C222.6 125.7 225.3 121.1 229.9 117C233.4 113.9 236.5 112.5 237.9 111.8C254.6 103.4 256.5 85.8 276.9 74.4C283.3 70.9 285 71.5 287.3 68.4C294.3 59.1 283.9 46.8 290.5 37.5C291.9 35.5 292.2 36.3 308.2 27.9C316.8 23.3 321.2 21 323.1 19.1C331.2 10.8 329.7 1.39998 333.9 0.499982C339 -0.600018 345.7 12 347.2 14.7C354.5 28.2 366.9 47.4 389.4 72.2C387.8 78 386.2 83.7 384.6 89.5C380.6 91.9 376.6 94.3 372.5 96.7C377.1 105.8 380.2 113.8 382.1 119.6C388 137.2 392.5 151.2 386.9 165C384.6 170.6 381.3 174.6 378.9 177.1C382.4 179.2 385.9 181.4 389.3 183.5C387.7 189.8 384.9 198.4 379.3 207.6C371.8 219.9 362.8 227.7 356.8 232.1C360.9 240.2 365.7 243.9 369.3 245.8C374 248.3 379.4 249.1 381 253.4C381.2 254.1 381.7 255.6 381 258.2C378.3 268.8 364.1 270.3 356.1 281.9C355 283.6 354.7 284.3 350.9 297.2C350.9 297.2 344.5 318.6 338 354.2C337.3 357.9 336.2 364.7 340 370.3C341.6 372.6 343.5 373.9 344.8 374.7C341 379.2 335.1 384.5 327.1 385.5C323.4 386 323.6 385 319.1 385.5C308.8 386.6 305.5 392 297.4 391.5C295.7 391.4 293.2 391 290.2 389.5C287.7 392.4 283.6 396.6 278.1 401.2C261.3 415 247.7 417.1 209.8 428.9C174.3 440 173.6 442 165.2 441C147.9 438.8 146 429.5 120.6 421.3C98.9001 414.3 93.8001 419 80.0001 412.1C61.9001 402.9 53.4001 386.1 48.3001 375.9C45.1001 369.6 19.9001 320.5 42.7001 274.3C47.4001 264.7 53.0001 257.8 56.8001 253.5" stroke="#111111" stroke-width="0.75" stroke-miterlimit="10" stroke-linecap="round" stroke-linejoin="round"/>
<path d="M140.4 293.8C151.9 287 171 278.2 195.4 276.9C203.1 276.5 210.1 276.9 216.3 277.7" stroke="#111111" stroke-width="0.75" stroke-miterlimit="10" stroke-linecap="round" stroke-linejoin="round"/>
<path d="M148.8 279.8C154.2 280 167.5 281.2 180.5 290.6C190.1 297.6 195.3 306 197.8 310.7" stroke="#111111" stroke-width="0.75" stroke-miterlimit="10" stroke-linecap="round" stroke-linejoin="round"/>
<path d="M255.3 285.8C258.4 287.5 266.5 291.5 277.4 290.6C289.3 289.7 297.2 283.6 299.9 281.4" stroke="#111111" stroke-width="0.75" stroke-miterlimit="10" stroke-linecap="round" stroke-linejoin="round"/>
<path d="M260.5 133.5C264.6 125.6 270.6 115.8 279.4 105.8C290.8 92.7999 302.7 84.2999 311.5 78.8999" stroke="#111111" stroke-width="0.75" stroke-miterlimit="10" stroke-linecap="round" stroke-linejoin="round"/>
<path d="M361.3 176.5C353.6 171.3 341.7 161.6 334 145.6C331.8 141.1 330.3 136.7 329.2 132.7" stroke="#111111" stroke-width="0.75" stroke-miterlimit="10" stroke-linecap="round" stroke-linejoin="round"/>
<path d="M353.7 163.3C349.7 158.6 345.7 153.9 341.6 149.2" stroke="#111111" stroke-width="0.75" stroke-miterlimit="10" stroke-linecap="round" stroke-linejoin="round"/>
<path d="M298.6 94.2C300.2 99.3 301.8 104.4 303.4 109.5" stroke="#111111" stroke-width="0.75" stroke-miterlimit="10" stroke-linecap="round" stroke-linejoin="round"/>
<path d="M339.2 16.9999C341.2 16.5999 344.7 19.3999 351.3 35.4999C349 37.5999 346.7 39.7999 344.5 41.8999C343.4 41.1999 335.7 35.5999 335.7 26.5999C335.6 23.0999 336.7 17.4999 339.2 16.9999Z" stroke="#111111" stroke-width="0.75" stroke-miterlimit="10" stroke-linecap="round" stroke-linejoin="round"/>
<path d="M231.9 286.4C231.2 290.5 230.6 296.3 231.5 303.3C232.1 307.9 233.3 313.2 234.3 313.1C235.5 313 236.5 304.5 236.5 304.2C236.8 301.3 236.7 300 237.3 299.8C238.7 299.3 241.9 305.6 242.5 306.8C247.9 317.5 248.5 325.7 249.5 325.6C250.3 325.5 250.7 320 249.9 314.6C249.2 309.9 247.7 306.4 247.7 306.4C247.7 306.4 249.2 309.8 249.9 314.6C250.6 319.5 250.1 322.5 250.9 322.6C251.6 322.8 253 320.4 253.7 318C256 310.3 251.6 303.3 252.4 302.9C253 302.6 256 306.3 257.5 311.4C259 316.5 258.1 320.2 258.6 320.2C259.3 320.3 261.8 314.5 260.5 308.3C259.4 303.1 255.9 299.8 256.2 299.6C256.7 299.2 264 308.5 264.8 307.9C265.4 307.5 262.6 301.8 258.5 296.7C256.2 293.9 254.1 291.8 252.5 290.5C245.7 289.1 238.8 287.8 231.9 286.4Z" stroke="#111111" stroke-width="0.75" stroke-miterlimit="10" stroke-linecap="round" stroke-linejoin="round"/>
<path d="M99.2 216C101.3 214.3 103.4 212.6 105.5 210.8C115.3 202.3 123.6 193.6 130.7 185.1" stroke="#111111" stroke-width="0.75" stroke-miterlimit="10" stroke-linecap="round" stroke-linejoin="round"/>
<path d="M156.4 124.7C145 128.2 136 131.4 129.7 133.9C116.5 139.1 114.4 138.1 105.6 140.5C103.1 141.2 97.5999 142.7 95.5999 140.3C94.6999 139.2 94.7999 137.7 94.7999 137.1C95.2999 129.1 90.3999 125.2 89.9999 113.8C89.6999 105.9 91.7999 100.2 90.0999 90.8999C89.8999 89.6999 89.4999 88.0999 88.2999 87.2999C85.0999 85.0999 80.7999 90.6999 72.3999 90.4999C68.8999 90.3999 66.8999 89.3999 65.7999 90.6999C64.3999 92.2999 65.8999 95.4999 66.6999 97.6999C69.2999 105 66.4999 107.1 66.3999 122C66.3999 131.7 67.5999 129.5 67.9999 142.5C68.2999 153.4 67.4999 157.1 70.3999 160.6C73.8999 164.8 79.7999 165.1 83.8999 165.2C102.9 165.8 123.9 163.7 135.5 162.3" fill="#111111"/>
<path d="M64.9 79C64.9 79.3 64.9 79.9 64.4 80.3C64.1 80.5 63.6 80.6 62.7 80.4C62.3 80.3 56.7 78.9 56.3 75C56.3 74.7 56.1 73.1 57 72.3C58.4 71.1 61.3 72.4 61.3 72.3C61.4 72 53.9 67.4 47.6 67C47 66.9 44.8 66.8 43.6 65.3C43.5 65.2 42.7 64.2 43.1 63.5C43.5 62.7 45.2 62.9 46.3 63.1C53.7 64.2 64.5 68.6 65.7 69.1C66.9 69.6 68.9 70.4 71.5 71.4" stroke="#111111" stroke-width="0.75" stroke-miterlimit="10" stroke-linecap="round" stroke-linejoin="round"/>
<path d="M74.3 82.1C73.6 82 72.1 81.7 70.8 80.5C70 79.9 69.5 79.2 69.2 78.7" stroke="#111111" stroke-width="0.75" stroke-miterlimit="10" stroke-linecap="round" stroke-linejoin="round"/>
<path d="M64.4001 80.3C64.5001 80.5 64.9001 81.3 64.6001 82.1C64.3001 83 63.5001 83.3 63.1001 83.5C61.1001 84.4 58.9001 83.3 57.7001 82.7C56.1001 81.9 55.0001 81.4 54.6001 80.3C54.0001 78.7 54.7001 76.7 56.3001 75" stroke="#111111" stroke-width="0.75" stroke-miterlimit="10" stroke-linecap="round" stroke-linejoin="round"/>
<path d="M61.3 74.5C61.6 74.7 61.9001 74.8 62.2001 75" stroke="#111111" stroke-width="0.75" stroke-miterlimit="10" stroke-linecap="round" stroke-linejoin="round"/>
<path d="M55.9 81.7C55.7 82 55.3 82.5 55.3 83.2C55.2 84.7 56.6 85.8 57.1 86.2C59.3 87.9 62 87.3 62.6 87.1C63.4 86.9 64.6 86.6 65.2 85.6C65.5 85.1 65.9 84.1 65.3 83.5C64.9 83.1 64.3 83 63.6 83.3" stroke="#111111" stroke-width="0.75" stroke-miterlimit="10" stroke-linecap="round" stroke-linejoin="round"/>
<path d="M61.3 87.5C62.1 88.3 63.3 89.3 65 90C69.3 91.8 72.1 89.7 74.2 91.6C76 93.4 74.9 95.9 77 97.2C78.2 97.9 79.8001 97.9 80.9001 97.3C83.0001 96.3 83.4 93.4 83.7 91.2C84.2 88 83.5001 85.4 82.9001 82.9C82.3001 80.4 81.8 78.7 80.7 76.8C79.2 74.3 75.6 70.1 72.5 70.8C70.5 71.2 70.7 73.1 68 74C65.3 74.9 63.3 73.7 62.6 74.7C62 75.6 62.8001 77.3 63.9001 78.2C65.6001 79.6 68.6 79.3 71.2 77.4" stroke="#111111" stroke-width="0.75" stroke-miterlimit="10" stroke-linecap="round" stroke-linejoin="round"/>
</svg>
