<svg width="430" height="512" viewBox="0 0 430 512" fill="none" xmlns="http://www.w3.org/2000/svg">
<g clip-path="url(#clip0)">
<path d="M123.4 297.2L39.5999 453.5L0.399902 429L84.0999 272.6L123.4 297.2Z" stroke="white" stroke-width="0.75" stroke-miterlimit="10" stroke-linecap="round" stroke-linejoin="round"/>
<path d="M123.4 308.2L47.6001 449.5" stroke="white" stroke-width="0.75" stroke-miterlimit="10" stroke-linecap="round" stroke-linejoin="round"/>
<path d="M92.2002 268.6L123.3 288.1" stroke="white" stroke-width="0.75" stroke-miterlimit="10" stroke-linecap="round" stroke-linejoin="round"/>
<path d="M39.6001 453.5L47.6001 449.5" stroke="white" stroke-width="0.75" stroke-miterlimit="10" stroke-linecap="round" stroke-linejoin="round"/>
<path d="M84.1001 272.6L92.2001 268.6" stroke="white" stroke-width="0.75" stroke-miterlimit="10" stroke-linecap="round" stroke-linejoin="round"/>
<path d="M319.4 219.9C269.4 219.9 219.3 219.9 169.3 219.9" stroke="white" stroke-width="0.75" stroke-miterlimit="10" stroke-linecap="round" stroke-linejoin="round"/>
<path d="M355.2 199.9C355.1 206.6 355.1 213.2 355 219.9C351.7 219.9 348.5 219.9 345.2 219.9" stroke="white" stroke-width="0.75" stroke-miterlimit="10" stroke-linecap="round" stroke-linejoin="round"/>
<path d="M355 150.9C354.9 155.7 354.9 160.4 354.8 165.2" stroke="white" stroke-width="0.75" stroke-miterlimit="10" stroke-linecap="round" stroke-linejoin="round"/>
<path d="M166.5 215.7L169.2 219.9" stroke="white" stroke-width="0.75" stroke-miterlimit="10" stroke-linecap="round" stroke-linejoin="round"/>
<path d="M352.3 215.7L355 219.9" stroke="white" stroke-width="0.75" stroke-miterlimit="10" stroke-linecap="round" stroke-linejoin="round"/>
<path d="M352.3 146.7C353.2 148.1 354.1 149.6 355 151L352.3 146.7Z" fill="white"/>
<path d="M352.3 146.7C353.2 148.1 354.1 149.6 355 151" stroke="white" stroke-width="0.75" stroke-miterlimit="10" stroke-linecap="round" stroke-linejoin="round"/>
<path d="M331.9 215.7C276.8 215.7 221.6 215.7 166.5 215.7V146.7H352.3C352.3 157.8 352.3 169 352.3 180.1C352.3 181.9 352.3 183.7 352.3 185.5" stroke="white" stroke-width="0.75" stroke-miterlimit="10" stroke-linecap="round" stroke-linejoin="round"/>
<path d="M352.3 192.4V215.7H338.1" stroke="white" stroke-width="0.75" stroke-miterlimit="10" stroke-linecap="round" stroke-linejoin="round"/>
<path d="M410.8 449.4C412 448.3 413.8 446.8 416.2 445.3C419.6 443.1 421.3 442 422.6 442.8C424 443.6 423.3 446 425 449.2C426.1 451.2 427.6 452.5 428.5 453.2C428.8 454.2 429.1 455.6 428.8 457.2C428 461.7 423.8 462.5 419.4 467.1C415.4 471.3 415.6 474.1 413.4 477.7C412.2 479.7 411.5 480.4 411 480.8C409.7 481.9 408.4 482.3 407.6 482.5C404.7 483.3 402.1 482.7 400.6 482.2C399.9 481.2 399.2 480 399.5 478.8C399.8 477.6 401.1 477.2 401.9 476.8C404.3 475.5 405.2 472.6 406.7 467.3C407.7 464 408.8 458.9 408.9 452.5" stroke="white" stroke-width="0.75" stroke-miterlimit="10" stroke-linecap="round" stroke-linejoin="round"/>
<path d="M415.2 441.2C412 441.3 409.3 439.4 409.2 439.7C409.1 439.9 409.7 440.1 410.2 440.9C410.7 441.7 410.4 442.5 410.6 443.9C410.9 446 410.8 447.7 410.8 449.4C410.8 450.5 410.7 451.4 410.6 452.1C410.9 452.3 411.3 452.7 411.9 452.9C412.3 453.1 413.5 453.5 416 452.4C417.8 451.6 420.8 450.4 421.4 447.6C421.5 447.2 421.4 447.3 421.4 445.3C421.4 440.8 421.7 440.3 421.2 439.8C420.3 438.9 418.6 441.2 415.2 441.2Z" fill="#5F9DD5"/>
<path d="M408.9 452.3C409 451.9 409.1 451.3 408.9 450.9C408.7 450.6 408.4 450.5 408 450.3C407.1 449.8 406.4 448.7 406.6 448.2C406.8 447.5 409.8 447.5 410.6 448.9C411.2 450 410.1 451.1 410.6 452C411.5 453.6 416.1 453 419 450.6C419.7 450 421.8 448.3 421.7 446.2C421.7 446.2 421.7 446.1 421.7 445.9C421.3 443.1 421.1 442.5 421 441.4C420.9 439.9 420.8 438.9 421.4 438.5C422.2 438 423.8 438.9 423.9 439.6C423.9 440.1 423.3 440.2 422.3 441.3C421.8 441.8 421.5 442.3 421.3 442.7" stroke="white" stroke-width="0.75" stroke-miterlimit="10" stroke-linecap="round" stroke-linejoin="round"/>
<path d="M410.5 451.4C410.3 455.1 410.3 458.1 410.4 460.1C410.5 463.4 410.8 465.6 409.6 466.6C408.8 467.2 407.7 467 406.9 466.8" stroke="white" stroke-width="0.75" stroke-miterlimit="10" stroke-linecap="round" stroke-linejoin="round"/>
<path d="M399.5 480C399.4 480.6 399.3 482.1 400.2 483.2C401.1 484.2 402.4 484.2 404.3 484.1C406 484 407.7 484 409.7 482.9C412.1 481.5 413.4 479.5 414.3 478C415.1 476.6 415.6 475.6 416.1 474.2C416.8 472.4 416.7 471.6 417.9 469.9C419.7 467.3 426.2 465.2 428.3 461.9C429.2 460.5 429.9 458 428.5 453.3" stroke="white" stroke-width="0.75" stroke-miterlimit="10" stroke-linecap="round" stroke-linejoin="round"/>
<path d="M386.6 446.8C387.6 445.7 389.1 444.1 391.2 442.5C394.1 440.1 395.6 438.9 396.8 439.5C398.2 440.1 397.8 442.3 399.6 445C400.8 446.7 402.2 447.7 403.2 448.2C403.5 449 403.9 450.3 403.8 451.8C403.5 456 399.7 457.2 396.2 461.9C393 466.1 393.4 468.8 391.7 472.2C390.8 474.1 390.2 474.9 389.8 475.3C388.7 476.4 387.5 476.9 386.8 477.2C384.2 478.3 381.8 478 380.4 477.7C379.7 476.9 378.9 475.8 379.1 474.7C379.3 473.6 380.4 473 381.1 472.6C383.2 471.2 383.7 468.4 384.6 463.4C385.2 460.3 385.7 455.5 385.2 449.6" stroke="white" stroke-width="0.75" stroke-miterlimit="10" stroke-linecap="round" stroke-linejoin="round"/>
<path d="M394.1 435.5C394 435.5 394.1 436.2 394.2 436.9C393.9 437.2 393.3 437.7 392.6 438.1C392 438.4 390.4 439.2 388.3 438.7C386.5 438.3 385.3 437.2 384.9 436.7C386 438.4 386.4 440 386.6 441C386.8 442.6 386.6 443.6 386.6 446.8C386.6 447.8 386.7 448.7 386.7 449.2C387 449.4 387.4 449.6 387.9 449.8C388.3 449.9 389.4 450.1 391.6 448.9C393.2 448 395.8 446.5 396.1 443.9C396.2 443.3 396.1 442.8 395.9 441.8C395.5 439.7 395.5 438.4 394.8 437.1C394.7 436.9 394.2 435.5 394.1 435.5Z" fill="#5F9DD5"/>
<path d="M385.2 449.6C385.3 449.2 385.3 448.7 385 448.4C384.8 448.1 384.5 448.1 384.1 448C383.2 447.7 382.5 446.7 382.6 446.2C382.8 445.6 385.4 445.2 386.3 446.4C387 447.3 386 448.4 386.6 449.2C387.6 450.5 391.7 449.5 394.1 447C394.7 446.4 396.5 444.5 396.1 442.7C396.1 442.7 396.1 442.6 396 442.4C395.3 439.9 395.1 439.4 394.9 438.4C394.7 437.1 394.5 436.1 395 435.7C395.7 435.1 397.3 435.8 397.3 436.5C397.4 436.9 396.8 437.1 396 438.3C395.6 438.8 395.4 439.3 395.2 439.7" stroke="white" stroke-width="0.75" stroke-miterlimit="10" stroke-linecap="round" stroke-linejoin="round"/>
<path d="M386.5 448.6C386.6 452 386.9 454.7 387.2 456.6C387.6 459.6 388.1 461.6 387.1 462.6C386.4 463.2 385.4 463.2 384.7 463" stroke="white" stroke-width="0.75" stroke-miterlimit="10" stroke-linecap="round" stroke-linejoin="round"/>
<path d="M379.2 475.9C379.2 476.5 379.3 477.9 380.2 478.7C381.1 479.5 382.3 479.4 384 479.1C385.5 478.9 387.1 478.6 388.8 477.4C390.9 475.9 391.8 473.9 392.5 472.4C393.1 471.1 393.5 470.1 393.8 468.7C394.2 467 394.1 466.2 395 464.6C396.4 462.1 402.1 459.4 403.7 456.1C404.4 454.7 404.8 452.4 403.1 448.3" stroke="white" stroke-width="0.75" stroke-miterlimit="10" stroke-linecap="round" stroke-linejoin="round"/>
<path d="M166.5 150.9H143.8V229.4H325.7V221.6" stroke="white" stroke-width="0.75" stroke-miterlimit="10" stroke-linecap="round" stroke-linejoin="round" stroke-dasharray="12 12"/>
<path d="M360.4 196.6C359.8 193.2 360.8 192 360.5 188.3C360.4 186.8 360.1 184.7 359.2 182.2C358.7 185.8 358.6 186.6 358.5 186.6C358.5 186.6 359.2 183.1 359 178.7C358.8 174.9 358 170.9 357.4 170.9C357 170.9 356.6 173.4 356.6 184.4C355.5 168.8 355 165.3 354.7 165.3C354.4 165.3 354 171.7 353.7 177.8C353.6 181.9 353.5 185.2 352.2 185.7C351.6 185.9 351.1 185.4 349.2 184.5C349 184.4 344.7 182.4 344.2 183.1C343.7 184 350.1 186.9 352.5 193.9C353.5 196.7 353.2 198.4 355 200.1C357 202.1 360.4 202.8 361.2 201.6C362 200.7 360.9 199.6 360.4 196.6Z" stroke="white" stroke-width="0.75" stroke-miterlimit="10" stroke-linecap="round" stroke-linejoin="round"/>
<path d="M341.2 224.4C338.3 223.6 337.2 224.4 333.9 223.9C332.6 223.7 330.8 223.3 328.6 222.1C331.8 221.8 332.5 221.8 332.5 221.7C332.5 221.7 329.4 222.1 325.6 221.6C322.3 221.2 318.8 220 318.9 219.5C319 219.1 321.1 218.9 330.7 219.6C317.2 217.3 314.1 216.5 314.2 216.3C314.2 216 319.8 216 325.2 216.2C328.8 216.3 331.6 216.6 332.2 215.2C332.5 214.6 332 214.1 331.4 212C331.3 211.8 329.9 207.2 330.6 206.9C331.4 206.4 333.5 213.2 339.4 216.2C341.7 217.4 343.3 217.3 344.6 219.1C346.2 221.3 346.6 224.8 345.5 225.6C344.6 226.3 343.8 225.1 341.2 224.4Z" stroke="white" stroke-width="0.75" stroke-miterlimit="10" stroke-linecap="round" stroke-linejoin="round"/>
<path d="M380.2 323C379.2 336.9 378.7 352.6 379.4 369.7C380.3 391.4 382.8 410.7 385.9 427.2C384.4 427.9 382.8 428.6 381.3 429.3C382.7 430 384 430.6 385.4 431.3C384.6 432.4 383.8 433.5 383.1 434.7C383.8 435.5 384.6 436.3 385.3 437C385.7 437.4 387.3 438.8 389.9 438.8C392.3 438.7 393.9 437.3 394.3 436.9C394.4 435.9 394.4 434.9 394.5 433.9C395.8 433.9 397.2 433.9 398.5 433.9C397.5 432.3 396.5 430.6 395.6 429C394.9 415.3 394.8 400.7 395.5 385.2C395.8 379 396.1 373 396.6 367.1" stroke="white" stroke-width="0.75" stroke-miterlimit="10" stroke-linecap="round" stroke-linejoin="round"/>
<path d="M390.5 321.6C391.9 337 394 353.7 397.2 371.4C401.1 393.5 406 413.6 411.2 431.4C409.7 432.4 408.1 433.4 406.6 434.4C408.1 434.9 409.7 435.4 411.2 435.9C410.5 437.2 409.9 438.5 409.2 439.8C410.3 440.4 412.5 441.3 415.2 441.3C418 441.3 420.1 440.5 421.3 439.9C420.9 438.8 420.4 437.6 420 436.5C421.6 434.8 423.2 433.1 424.8 431.4C423.3 431 421.8 430.7 420.3 430.3C416.3 405 413.6 376.6 413.4 345.6C413.3 335.7 413.5 326.2 413.9 316.9C406.1 318.5 398.3 320.1 390.5 321.6Z" stroke="white" stroke-width="0.75" stroke-miterlimit="10" stroke-linecap="round" stroke-linejoin="round"/>
<path d="M356.2 200.2C356.3 199.5 356.6 197.8 357.9 196.3C359.5 194.4 361.6 194 362.1 193.9C368.6 206.1 375 218.3 381.5 230.5C380.9 233.9 380.1 237.4 379.1 241C378.9 241.7 378.7 242.5 378.5 243.2C379.2 244.2 380.4 245.7 382.4 247C384.2 248.1 385.9 248.5 386.9 248.7C386.9 249 386.9 249.3 386.8 249.6C387.1 250.4 387.8 251.5 388.9 252.2C391 253.5 394.1 252.7 396.4 250.3C397.2 250.9 398.3 251.8 399.5 253.2C404.6 259.3 403.7 266.4 405.7 275.8C405.9 276.5 407.9 282.1 411.9 293.1C415.8 303.8 417.6 309.7 416.1 316.9C415.8 318.2 415.3 319.4 414.5 320.8C407.1 333 382.3 334.1 376.2 324.7C374.1 321.5 374.4 317.9 374.8 313.7C375.8 302.4 377.3 287.5 379.7 269.9C374.4 267.8 364.7 263 355.8 252.9C347.6 243.6 343.6 234 341.8 228.3C341.3 226.5 341.8 224.6 343 223.4C344.2 222.3 345.5 222.3 345.9 222.3C351.2 230 359.4 239.6 371.2 247.6C375.1 250.2 378.9 252.4 382.4 254.1C382.7 253.5 383 252.9 383.3 252.2C379.4 247.7 375.2 242.3 371.1 235.8C363.1 222.5 358.7 209.8 356.2 200.2Z" fill="white"/>
<path d="M387 249.3C387 249.8 387 250.2 387 250.7C387.3 251.4 387.8 252.4 388.7 253C391 254.6 394.4 253.9 395.8 251.9C395.9 251.7 396 251.5 396 251.5C396.6 250.4 396.7 249.3 396.7 248.6" stroke="white" stroke-width="0.75" stroke-miterlimit="10" stroke-linecap="round" stroke-linejoin="round"/>
<path d="M392 248.9C389.9 249.1 388.2 248.8 387 248.6C381.4 247.4 378.6 243.8 378.6 243.1C378.6 242.7 378.7 242.5 379 241.6C379.3 240.6 379.9 237.5 380.3 235.3C380.5 234.1 380.9 232.5 381.5 230.5C380.7 229.1 379.8 227.4 380.3 226.7C380.7 226.3 381.3 226.7 382.2 226.7C385.9 226.6 386.8 217.2 392.2 215.4C392.7 215.2 393.2 215.2 393.4 215.1" stroke="white" stroke-width="0.75" stroke-miterlimit="10" stroke-linecap="round" stroke-linejoin="round"/>
<path d="M384.3 228.6C385.4 226.8 386.6 225 387.7 223.2C389.3 222.9 390.9 222.6 392.5 222.3C391.1 224.9 389.8 227.5 388.5 230.2C387.1 229.6 385.7 229.1 384.3 228.6Z" stroke="white" stroke-width="0.75" stroke-miterlimit="10" stroke-linecap="round" stroke-linejoin="round"/>
<path d="M388.7 225.7C387.8 227.8 386.1 229 385.9 228.7C385.5 228.3 388.8 223.1 389.2 223.4C389.5 223.6 389 224.9 388.7 225.7Z" fill="white"/>
<path d="M382.2 239.1C383 239.1 384.5 239 385.8 237.9C386.1 237.7 386.3 237.4 386.5 237.2" stroke="white" stroke-width="0.75" stroke-miterlimit="10" stroke-linecap="round" stroke-linejoin="round"/>
<path d="M394.1 235C394.7 235.1 396.7 235.3 398.4 233.8C399.7 232.5 400.9 230 400.1 228.7C399.4 227.5 397.3 228 397 228.1" stroke="white" stroke-width="0.75" stroke-miterlimit="10" stroke-linecap="round" stroke-linejoin="round"/>
<path d="M396 235C397.5 239 397.4 241.6 396.8 243.3C396.5 244.1 395.9 245.7 396 247.9C396 249 396.2 250 396.4 250.6C396.8 250.7 397.3 250.9 397.7 251C397.5 250.3 397.5 249.7 397.5 249.3C397.5 249.2 397.6 248.7 397.7 248.3C398.3 247 399.8 247.5 401.2 246.1C401.9 245.4 401.6 245.2 402.4 244.4C403.3 243.5 404.2 243.2 405.1 242.8C405.1 242.8 406.9 242.1 409.1 241C412.3 239.4 414.3 236.7 415.3 235.3C416.3 233.9 417.2 232.7 417.7 230.8C418.9 226.8 417.6 223.2 417.2 222C415.6 217.4 412.4 215.1 405.9 210.5C399.5 205.9 396.2 205.1 395.7 205.9C395.5 206.2 395.7 206.9 395.3 207.2C394.8 207.6 394.1 206.7 393.5 207C393 207.2 393.2 207.7 392.8 208.1C391.7 209.1 388.9 206.6 388.6 207.1C388.5 207.4 389.6 208.2 389.5 209.1C389.4 210 387.8 210 387.7 210.9C387.6 211.6 388.5 212 388.5 212.9C388.6 214 387.5 214.4 387.7 214.9C387.9 215.5 389.5 214.9 391.1 215.2C393.9 215.8 395.7 219.1 395.9 219.5C398.1 223.6 396.9 227.9 396.7 228.3C397 228.2 397.5 228 398.2 228.2C398.5 228.3 399.3 228.4 399.7 229C400.6 230.2 399.3 233.5 397 234.8C396.8 234.8 396.3 234.9 396 235Z" fill="white"/>
<path d="M389.3 220.6C389.8 220.4 390.8 220 392.1 220.2C392.8 220.3 393.4 220.5 393.8 220.8" stroke="white" stroke-width="0.75" stroke-miterlimit="10" stroke-linecap="round" stroke-linejoin="round"/>
<path d="M385 223.8C385.7 223.9 386.4 224.1 387.1 224.2" stroke="white" stroke-width="0.75" stroke-miterlimit="10" stroke-linecap="round" stroke-linejoin="round"/>
<path d="M392.5 222.3C394.2 224.1 396 225.9 397.7 227.6" stroke="white" stroke-width="0.75" stroke-miterlimit="10" stroke-linecap="round" stroke-linejoin="round"/>
<path d="M404.4 326.2C404.5 328.2 404.7 330.9 405.6 333.9C406.2 336 407 337.8 407.7 339.2C407.7 339.6 407.5 340.2 407.1 340.4C405.8 341.1 402.5 338.2 400.8 335.8C398.2 332.2 398 328 398.2 324.9" stroke="white" stroke-width="0.75" stroke-miterlimit="10" stroke-linecap="round" stroke-linejoin="round"/>
<path d="M388.3 318.4C387.5 317.4 381.9 310.6 384.2 304.3C384.5 303.6 384.8 302.9 385.4 302.1" stroke="white" stroke-width="0.75" stroke-miterlimit="10" stroke-linecap="round" stroke-linejoin="round"/>
<path d="M208.7 458.9H155.4C137.7 458.9 123.3 444.5 123.3 426.8V32.4001C123.3 14.7001 137.7 0.300049 155.4 0.300049H316.9C334.6 0.300049 349 14.7001 349 32.4001V146.6" stroke="white" stroke-width="0.75"/>
<path d="M348.9 220.4V426.8C348.9 444.5 334.5 458.9 316.8 458.9H275.3" stroke="white" stroke-width="0.75"/>
<path d="M209.3 453.4H157C141 453.4 127.9 440.4 127.9 424.3V34.4001C127.9 18.4001 140.9 5.30005 157 5.30005H314.5C330.5 5.30005 343.6 18.3001 343.6 34.4001V146.7" stroke="white" stroke-width="0.75"/>
<path d="M343.5 231.5V424.3C343.5 440.3 330.5 453.4 314.4 453.4H275.7" stroke="white" stroke-width="0.75"/>
<path d="M210.1 445.7H156.5C145.5 445.7 136.5 436.7 136.5 425.7V33.3C136.5 22.3 145.5 13.3 156.5 13.3H176.8C178.6 13.3 180 14.8 180.2 16.5C180.7 21.1 183 29 192.7 29.2C206.5 29.5 267.9 29.2 280 29.2C288.7 29.2 290.8 21 291.3 16.4C291.5 14.7 292.9 13.3 294.6 13.3H315.4C326.4 13.3 335.4 22.3 335.4 33.3V146.7" stroke="white" stroke-width="0.75"/>
<path d="M335.4 224.1V425.7C335.4 436.7 326.4 445.7 315.4 445.7H276.3" stroke="white" stroke-width="0.75"/>
<path d="M121.6 137.8C121.6 137.1 122.1 136.6 122.8 136.6H123V170.2H122.8C122.1 170.2 121.6 169.7 121.6 169V137.8Z" fill="white"/>
<path d="M121.6 95.7C121.6 95 122.1 94.5 122.8 94.5H123V128.1H122.8C122.1 128.1 121.6 127.6 121.6 126.9V95.7Z" fill="white"/>
<path d="M121.6 62.8001C121.6 62.1001 122.1 61.6001 122.8 61.6001H123V79.3001H122.8C122.1 79.3001 121.6 78.8001 121.6 78.1001V62.8001Z" fill="white"/>
<path d="M349.1 146.7V105.7H349.3C350 105.7 350.5 106.2 350.5 106.9V146.7" fill="white"/>
<path d="M224.1 16.8999H246.5C247.4 16.8999 248.1 17.5999 248.1 18.4999C248.1 19.3999 247.4 20.0999 246.5 20.0999H224.1C223.2 20.0999 222.5 19.3999 222.5 18.4999C222.5 17.5999 223.3 16.8999 224.1 16.8999Z" stroke="white" stroke-width="0.75"/>
<path d="M260.3 22.0999C262.3 22.0999 263.9 20.4999 263.9 18.4999C263.9 16.4999 262.3 14.8999 260.3 14.8999C258.3 14.8999 256.7 16.4999 256.7 18.4999C256.7 20.4999 258.3 22.0999 260.3 22.0999Z" stroke="white" stroke-width="0.75"/>
<path opacity="0.35" d="M316.2 22.3H325.2C325.9 22.3 326.5 22.9 326.5 23.6V26.7001C326.5 27.4001 325.9 28 325.2 28H316.2C315.5 28 314.9 27.4001 314.9 26.7001V23.6C314.9 22.9 315.5 22.3 316.2 22.3Z" stroke="white"/>
<path fill-rule="evenodd" clip-rule="evenodd" d="M316.5 23.1001C316.1 23.1001 315.7 23.5001 315.7 23.9001V26.4001C315.7 26.8001 316.1 27.2001 316.5 27.2001H324.9C325.3 27.2001 325.7 26.8001 325.7 26.4001V23.9001C325.7 23.5001 325.3 23.1001 324.9 23.1001H316.5ZM327.4 26.2001V24.0001C327.8 24.2001 328.1 24.6001 328.1 25.1001C328.1 25.6001 327.8 26.1001 327.4 26.2001Z" fill="white"/>
<path fill-rule="evenodd" clip-rule="evenodd" d="M308.2 23.1999C309.4 23.1999 310.5 23.5999 311.3 24.3999C311.4 24.4999 311.5 24.4999 311.5 24.3999L312.1 23.7999V23.6999C312.1 23.6999 312.1 23.5999 312 23.5999C309.8 21.4999 306.3 21.4999 304.1 23.5999C304.1 23.5999 304.1 23.6999 304 23.6999V23.7999L304.6 24.3999C304.7 24.4999 304.8 24.4999 304.8 24.3999C305.9 23.5999 307 23.1999 308.2 23.1999ZM308.2 25.1999C308.8 25.1999 309.5 25.3999 309.9 25.8999C310 25.9999 310.1 25.9999 310.1 25.8999L310.7 25.2999C310.7 25.2999 310.8 25.1999 310.7 25.1999C310.6 25.1999 310.7 25.0999 310.6 25.0999C309.2 23.7999 306.9 23.7999 305.5 25.0999L305.4 25.1999V25.2999L306 25.8999C306.1 25.9999 306.2 25.9999 306.2 25.8999C306.9 25.3999 307.6 25.1999 308.2 25.1999ZM309.4 26.4999V26.5999L308.4 27.6999H308.3H308.2L307.2 26.5999C307.2 26.5999 307.1 26.4999 307.2 26.4999C307.2 26.4999 307.2 26.3999 307.3 26.3999C308 25.7999 308.9 25.7999 309.6 26.3999C309.4 26.3999 309.4 26.4999 309.4 26.4999Z" fill="white"/>
<path fill-rule="evenodd" clip-rule="evenodd" d="M301.2 22.2H300.7C300.4 22.2 300.2 22.4 300.2 22.7V27.2999C300.2 27.5999 300.4 27.7999 300.7 27.7999H301.2C301.5 27.7999 301.7 27.5999 301.7 27.2999V22.7C301.8 22.5 301.5 22.2 301.2 22.2ZM298.2 23.5H298.7C299 23.5 299.2 23.7 299.2 24V27.4C299.2 27.7 299 27.9 298.7 27.9H298.2C297.9 27.9 297.7 27.7 297.7 27.4V24C297.7 23.7 297.9 23.5 298.2 23.5ZM296.3 24.7H295.8C295.5 24.7 295.3 24.9 295.3 25.2V27.2999C295.3 27.5999 295.5 27.7999 295.8 27.7999H296.3C296.6 27.7999 296.8 27.5999 296.8 27.2999V25.2C296.8 24.9 296.6 24.7 296.3 24.7ZM293.8 25.7999H293.3C293 25.7999 292.8 25.9999 292.8 26.2999V27.4C292.8 27.7 293 27.9 293.3 27.9H293.8C294.1 27.9 294.3 27.7 294.3 27.4V26.2999C294.3 25.9999 294.1 25.7999 293.8 25.7999Z" fill="white"/>
<path d="M216.8 384.4L204.5 497.1L267.9 503.2L276.8 384.4H216.8Z" stroke="white" stroke-width="0.75" stroke-miterlimit="10" stroke-linecap="round" stroke-linejoin="round"/>
<path d="M208 504.8L271.4 510.9L280.3 392.1" stroke="white" stroke-width="0.75" stroke-miterlimit="10" stroke-linecap="round" stroke-linejoin="round"/>
<path d="M204.5 497.1L208 504.8" stroke="white" stroke-width="0.75" stroke-miterlimit="10" stroke-linecap="round" stroke-linejoin="round"/>
<path d="M267.9 503.2L271.4 510.9" stroke="white" stroke-width="0.75" stroke-miterlimit="10" stroke-linecap="round" stroke-linejoin="round"/>
<path d="M276.8 384.4L280.3 392.1" stroke="white" stroke-width="0.75" stroke-miterlimit="10" stroke-linecap="round" stroke-linejoin="round"/>
<path d="M185.6 177.4L179.2 182.2L185.6 185.7" stroke="white" stroke-width="0.75" stroke-miterlimit="10" stroke-linecap="round" stroke-linejoin="round"/>
<path d="M206 177.4L212.4 182.2L206 185.7" stroke="white" stroke-width="0.75" stroke-miterlimit="10" stroke-linecap="round" stroke-linejoin="round"/>
<path d="M226.7 189.5C228.6 184.4 230.6 179.3 232.5 174.2" stroke="white" stroke-width="0.75" stroke-miterlimit="10" stroke-linecap="round" stroke-linejoin="round"/>
<path d="M224 177.4L217.6 182.2L224 185.7" stroke="white" stroke-width="0.75" stroke-miterlimit="10" stroke-linecap="round" stroke-linejoin="round"/>
<path d="M248.5 177.4L254.8 182.2L248.5 185.7" stroke="white" stroke-width="0.75" stroke-miterlimit="10" stroke-linecap="round" stroke-linejoin="round"/>
</g>
<defs>
<clipPath id="clip0">
<rect width="429.7" height="511.3" fill="white"/>
</clipPath>
</defs>
</svg>
