<svg width="539" height="511" viewBox="0 0 539 511" fill="none" xmlns="http://www.w3.org/2000/svg">
<path d="M38.5029 222.791C40.5473 222.223 42.7053 221.542 45.0905 220.86" stroke="white" stroke-width="0.75" stroke-miterlimit="10"/>
<path d="M58.2656 215.861C71.6679 209.84 86.2059 200.296 96.9958 184.732C121.983 148.717 105.628 111.907 131.296 91.5706C149.355 77.2556 162.19 86.6853 198.308 71.4614C216.935 63.6223 231.7 53.2836 242.83 43.6267" stroke="white" stroke-width="0.75" stroke-miterlimit="10" stroke-dasharray="12.41 12.41"/>
<path d="M248.055 38.9687C249.758 37.3781 251.462 35.7876 252.939 34.197" stroke="white" stroke-width="0.75" stroke-miterlimit="10"/>
<path d="M74.394 221.087C115.85 213.93 139.361 197.57 153.672 182.005C176.387 157.124 190.925 117.815 229.315 108.612C239.196 106.226 247.715 106.567 253.053 107.135" stroke="white" stroke-width="4" stroke-miterlimit="10"/>
<path d="M70.873 221.655C71.6681 221.541 72.3496 221.428 73.1446 221.314" stroke="white" stroke-width="4" stroke-miterlimit="10"/>
<path d="M66.7842 222.223C67.5792 222.11 68.2607 221.996 69.0557 221.882" stroke="white" stroke-width="4" stroke-miterlimit="10"/>
<path d="M30.8936 224.723C42.365 223.927 53.8364 223.246 65.3078 222.45" stroke="white" stroke-width="4" stroke-miterlimit="10"/>
<path d="M91.4305 242.56C91.7712 241.537 87.9096 240.742 85.638 237.447C82.4578 232.789 84.6158 226.427 83.7072 226.313C83.5936 226.313 83.3664 226.768 82.2307 229.267C81.4356 231.085 81.2085 231.312 80.9813 231.426C79.7319 231.767 77.3468 227.79 76.6653 226.654C73.7123 221.428 73.3716 217.338 73.0308 217.452C72.5765 217.565 72.4629 222.223 74.2802 226.995C75.0752 229.154 75.8703 230.403 75.7567 230.403C75.5295 230.517 72.0086 226.881 70.6457 221.655C69.8506 218.815 69.9642 216.543 69.6235 216.543C69.2827 216.543 68.4877 219.156 68.7148 221.996C69.1691 227.563 73.0308 231.199 72.6901 231.539C72.4629 231.767 70.5321 230.403 68.942 228.017C65.8754 223.473 66.1025 218.474 65.6482 218.474C65.3075 218.474 64.8532 220.633 65.0803 223.246C65.7618 228.926 69.9642 232.448 69.6235 232.789C69.3963 233.016 66.8976 231.199 64.7396 228.358C62.9223 225.859 62.3544 223.814 62.1273 223.814C61.9001 223.927 62.2409 227.222 63.9445 230.403C64.626 231.539 65.3075 232.562 69.8506 236.652C76.0974 242.332 77.3468 242.787 78.4826 243.128C79.164 243.355 81.0949 243.355 84.9565 243.355C90.749 243.241 91.3169 242.9 91.4305 242.56Z" stroke="white" stroke-width="0.75" stroke-miterlimit="10"/>
<path d="M341.757 160.305C341.644 161.555 341.644 162.237 341.871 162.237C342.325 162.35 343.234 160.533 344.824 156.783C343.915 156.67 343.234 156.443 343.12 156.215C343.007 155.42 346.982 153.829 347.777 154.738C348.004 154.966 348.004 155.42 347.322 157.465C346.414 160.192 345.732 161.669 345.846 161.782C345.96 161.896 348.231 158.147 351.071 152.58C352.888 148.944 353.683 146.899 354.024 147.013C354.364 147.126 353.569 150.194 353.001 152.353C351.184 158.374 348.913 162.35 349.14 162.464C349.367 162.578 350.957 160.192 352.547 157.238C354.705 153.034 355.5 149.853 355.954 149.967C356.295 150.08 356.068 151.898 355.841 153.602C354.819 159.283 352.206 162.918 352.547 163.146C352.774 163.259 354.932 160.76 356.636 158.033C357.545 156.556 357.999 155.647 358.112 155.761C358.34 155.874 357.431 158.942 356.068 161.782C355.387 163.146 354.478 164.509 352.774 167.008C352.774 167.008 348.799 172.803 345.732 174.507C345.505 174.62 345.392 174.62 345.278 174.734C343.461 175.529 343.234 174.847 338.918 175.984C335.624 176.779 334.147 177.574 333.807 177.006C333.239 176.324 335.851 173.939 337.668 170.303C339.372 166.668 339.599 163.146 339.486 160.76" stroke="white" stroke-width="0.75" stroke-miterlimit="10"/>
<path d="M343.347 160.078L287.694 168.712L276.563 121.337L334.942 112.248L344.937 154.738" stroke="white" stroke-width="0.75" stroke-miterlimit="10"/>
<path d="M54.1768 31.4702V247.445" stroke="white" stroke-width="0.75" stroke-miterlimit="10" stroke-linecap="round" stroke-linejoin="round"/>
<path d="M97.1094 31.4702V247.445" stroke="white" stroke-width="0.75" stroke-miterlimit="10" stroke-linecap="round" stroke-linejoin="round"/>
<path d="M140.042 31.4702V247.445" stroke="white" stroke-width="0.75" stroke-miterlimit="10" stroke-linecap="round" stroke-linejoin="round"/>
<path d="M182.975 31.4702V247.445" stroke="white" stroke-width="0.75" stroke-miterlimit="10" stroke-linecap="round" stroke-linejoin="round"/>
<path d="M226.248 31.4702V165.758" stroke="white" stroke-width="0.75" stroke-miterlimit="10" stroke-linecap="round" stroke-linejoin="round"/>
<path d="M255.097 52.4883H28.0537" stroke="white" stroke-width="0.75" stroke-miterlimit="10" stroke-linecap="round" stroke-linejoin="round"/>
<path d="M255.097 95.4333H28.0537" stroke="white" stroke-width="0.75" stroke-miterlimit="10" stroke-linecap="round" stroke-linejoin="round"/>
<path d="M255.097 138.378H28.0537" stroke="white" stroke-width="0.75" stroke-miterlimit="10" stroke-linecap="round" stroke-linejoin="round"/>
<path d="M210.46 181.437H28.0537" stroke="white" stroke-width="0.75" stroke-miterlimit="10" stroke-linecap="round" stroke-linejoin="round"/>
<path d="M65.5346 224.268H28.0537" stroke="white" stroke-width="0.75" stroke-miterlimit="10" stroke-linecap="round" stroke-linejoin="round"/>
<path d="M69.3965 224.268H67.3521" stroke="white" stroke-width="0.75" stroke-miterlimit="10" stroke-linecap="round" stroke-linejoin="round"/>
<path d="M73.599 224.268H71.7817" stroke="white" stroke-width="0.75" stroke-miterlimit="10" stroke-linecap="round" stroke-linejoin="round"/>
<path d="M255.097 224.268H75.6431" stroke="white" stroke-width="0.75" stroke-miterlimit="10" stroke-linecap="round" stroke-linejoin="round"/>
<path d="M226.135 213.702C223.295 213.589 222.273 214.725 221.251 213.93C220.228 213.248 221.024 211.998 220.001 210.862C218.979 209.84 217.843 210.635 215.799 209.84C213.641 209.044 214.095 207.795 211.71 206.658C209.552 205.522 208.53 206.318 207.053 205.295C206.599 204.954 205.918 204.273 204.782 200.978C203.532 197.342 202.851 195.525 202.851 193.139C202.737 189.39 204.1 189.276 203.76 186.436C203.305 183.027 201.374 182.8 201.034 179.392C200.92 178.142 201.261 176.665 201.942 173.711C202.624 170.644 202.965 169.053 203.532 168.144C205.463 165.304 207.735 166.099 209.779 163.259C211.369 160.987 210.461 159.964 211.937 158.601C213.755 156.897 215.685 158.147 220.115 157.465C225.339 156.556 226.135 154.17 229.315 154.625C232.154 154.965 231.927 157.578 235.448 158.828C238.742 159.964 240.105 158.374 242.149 159.851C244.193 161.214 243.171 162.918 245.67 166.327C247.828 169.28 249.759 169.508 250.327 172.007C250.667 173.484 250.213 173.938 249.986 175.983C249.645 181.778 253.507 183.595 252.485 187.458C251.917 189.503 250.895 189.049 249.077 192.684C247.601 195.752 248.282 196.206 247.033 198.251C245.329 201.091 243.966 200.296 240.445 204.273C239.082 205.863 238.628 206.658 236.697 208.59C235.675 209.612 234.994 210.18 233.858 211.089C230.678 213.816 229.769 213.93 229.428 214.043C228.179 214.384 228.179 213.816 226.135 213.702Z" fill="white"/>
<path d="M462.599 337.429L469.527 354.13L471.799 352.426C473.503 354.584 475.32 356.743 477.024 358.902C477.819 358.334 478.614 357.652 479.295 357.084C477.591 355.039 475.888 352.994 474.184 350.949C474.979 350.381 475.661 349.926 476.456 349.358L462.599 337.429Z" fill="white"/>
<path d="M340.503 279.942H522.796" stroke="white" stroke-width="0.75" stroke-miterlimit="10" stroke-linecap="round" stroke-linejoin="round"/>
<path d="M401.721 288.009H349.248V387.645H401.721V288.009Z" stroke="white" stroke-width="0.75" stroke-miterlimit="10" stroke-linecap="round" stroke-linejoin="round"/>
<path d="M514.732 288.009H410.921V323.682H514.732V288.009Z" stroke="white" stroke-width="0.75" stroke-miterlimit="10" stroke-linecap="round" stroke-linejoin="round"/>
<path d="M459.079 331.181H410.921V387.645H459.079V331.181Z" stroke="white" stroke-width="0.75" stroke-miterlimit="10" stroke-linecap="round" stroke-linejoin="round"/>
<path d="M514.732 331.181H467.483V387.645H514.732V331.181Z" stroke="white" stroke-width="0.75" stroke-miterlimit="10" stroke-linecap="round" stroke-linejoin="round"/>
<path d="M455.217 292.553H415.01V296.189H455.217V292.553Z" stroke="white" stroke-width="0.75" stroke-miterlimit="10" stroke-linecap="round" stroke-linejoin="round"/>
<path d="M455.217 301.301H415.01V303.119H455.217V301.301Z" stroke="white" stroke-width="0.75" stroke-miterlimit="10" stroke-linecap="round" stroke-linejoin="round"/>
<path d="M455.217 305.845H415.01V307.663H455.217V305.845Z" stroke="white" stroke-width="0.75" stroke-miterlimit="10" stroke-linecap="round" stroke-linejoin="round"/>
<path d="M455.217 310.39H415.01V312.208H455.217V310.39Z" stroke="white" stroke-width="0.75" stroke-miterlimit="10" stroke-linecap="round" stroke-linejoin="round"/>
<path d="M455.217 314.934H415.01V316.752H455.217V314.934Z" stroke="white" stroke-width="0.75" stroke-miterlimit="10" stroke-linecap="round" stroke-linejoin="round"/>
<path d="M511.211 301.301H471.004V303.119H511.211V301.301Z" stroke="white" stroke-width="0.75" stroke-miterlimit="10" stroke-linecap="round" stroke-linejoin="round"/>
<path d="M511.211 305.845H471.004V307.663H511.211V305.845Z" stroke="white" stroke-width="0.75" stroke-miterlimit="10" stroke-linecap="round" stroke-linejoin="round"/>
<path d="M511.211 310.39H471.004V312.208H511.211V310.39Z" stroke="white" stroke-width="0.75" stroke-miterlimit="10" stroke-linecap="round" stroke-linejoin="round"/>
<path d="M511.211 314.934H471.004V316.752H511.211V314.934Z" stroke="white" stroke-width="0.75" stroke-miterlimit="10" stroke-linecap="round" stroke-linejoin="round"/>
<path d="M395.588 297.552H355.381V299.369H395.588V297.552Z" stroke="white" stroke-width="0.75" stroke-miterlimit="10" stroke-linecap="round" stroke-linejoin="round"/>
<path d="M395.588 302.096H355.381V303.914H395.588V302.096Z" stroke="white" stroke-width="0.75" stroke-miterlimit="10" stroke-linecap="round" stroke-linejoin="round"/>
<path d="M395.588 306.527H355.381V308.345H395.588V306.527Z" stroke="white" stroke-width="0.75" stroke-miterlimit="10" stroke-linecap="round" stroke-linejoin="round"/>
<path d="M395.588 311.072H355.381V312.889H395.588V311.072Z" stroke="white" stroke-width="0.75" stroke-miterlimit="10" stroke-linecap="round" stroke-linejoin="round"/>
<path d="M395.588 315.616H355.381V317.434H395.588V315.616Z" stroke="white" stroke-width="0.75" stroke-miterlimit="10" stroke-linecap="round" stroke-linejoin="round"/>
<path d="M395.588 320.16H355.381V321.978H395.588V320.16Z" stroke="white" stroke-width="0.75" stroke-miterlimit="10" stroke-linecap="round" stroke-linejoin="round"/>
<path d="M395.588 324.591H355.381V326.409H395.588V324.591Z" stroke="white" stroke-width="0.75" stroke-miterlimit="10" stroke-linecap="round" stroke-linejoin="round"/>
<path d="M395.588 329.136H355.381V330.954H395.588V329.136Z" stroke="white" stroke-width="0.75" stroke-miterlimit="10" stroke-linecap="round" stroke-linejoin="round"/>
<path d="M395.588 333.68H355.381V335.498H395.588V333.68Z" stroke="white" stroke-width="0.75" stroke-miterlimit="10" stroke-linecap="round" stroke-linejoin="round"/>
<path d="M395.588 338.225H355.381V340.042H395.588V338.225Z" stroke="white" stroke-width="0.75" stroke-miterlimit="10" stroke-linecap="round" stroke-linejoin="round"/>
<path d="M395.588 342.655H355.381V344.473H395.588V342.655Z" stroke="white" stroke-width="0.75" stroke-miterlimit="10" stroke-linecap="round" stroke-linejoin="round"/>
<path d="M395.588 347.2H355.381V349.018H395.588V347.2Z" stroke="white" stroke-width="0.75" stroke-miterlimit="10" stroke-linecap="round" stroke-linejoin="round"/>
<path d="M395.588 351.744H355.381V353.562H395.588V351.744Z" stroke="white" stroke-width="0.75" stroke-miterlimit="10" stroke-linecap="round" stroke-linejoin="round"/>
<path d="M395.588 356.289H355.381V358.106H395.588V356.289Z" stroke="white" stroke-width="0.75" stroke-miterlimit="10" stroke-linecap="round" stroke-linejoin="round"/>
<path d="M485.429 248.017H384.798V262.446H485.429V248.017Z" stroke="white" stroke-width="0.75" stroke-miterlimit="10"/>
<path d="M395.02 364.696H355.381V373.898H395.02V364.696Z" stroke="white" stroke-width="0.75" stroke-miterlimit="10" stroke-linecap="round" stroke-linejoin="round"/>
<path d="M522.682 227.795H340.503V387.645H522.682V227.795Z" stroke="white" stroke-width="0.75" stroke-miterlimit="10" stroke-linecap="round" stroke-linejoin="round"/>
<path d="M279.516 133.834C279.516 182.346 279.516 230.971 279.516 279.483H0.454102V0.454346H279.402C279.402 40.5591 279.402 80.7774 279.402 120.882" stroke="white" stroke-width="0.75" stroke-miterlimit="10" stroke-linecap="round" stroke-linejoin="round"/>
<path d="M274.973 4.99878H4.99756V275.052H274.973V4.99878Z" stroke="white" stroke-width="0.75" stroke-miterlimit="10" stroke-linecap="round" stroke-linejoin="round"/>
<path d="M312.34 155.988C324.008 155.988 333.466 149.274 333.466 140.991C333.466 132.709 324.008 125.995 312.34 125.995C300.673 125.995 291.215 132.709 291.215 140.991C291.215 149.274 300.673 155.988 312.34 155.988Z" stroke="white" stroke-width="0.75" stroke-miterlimit="10" stroke-linecap="round" stroke-linejoin="round"/>
<path d="M291.215 124.972L296.894 130.653" stroke="white" stroke-width="0.75" stroke-miterlimit="10" stroke-linecap="round" stroke-linejoin="round"/>
<path d="M298.597 122.132C298.711 122.359 302.232 127.812 302.232 127.812" stroke="white" stroke-width="0.75" stroke-miterlimit="10" stroke-linecap="round" stroke-linejoin="round"/>
<path d="M307.57 120.428C307.57 120.769 308.251 126.336 308.251 126.336" stroke="white" stroke-width="0.75" stroke-miterlimit="10" stroke-linecap="round" stroke-linejoin="round"/>
<path d="M314.612 120.882C314.499 121.109 313.931 125.995 313.931 125.995" stroke="white" stroke-width="0.75" stroke-miterlimit="10" stroke-linecap="round" stroke-linejoin="round"/>
<path d="M318.587 126.676L322.108 121.791" stroke="white" stroke-width="0.75" stroke-miterlimit="10" stroke-linecap="round" stroke-linejoin="round"/>
<path d="M324.266 128.608L328.355 124.177" stroke="white" stroke-width="0.75" stroke-miterlimit="10" stroke-linecap="round" stroke-linejoin="round"/>
<path d="M328.355 131.221L333.466 128.153" stroke="white" stroke-width="0.75" stroke-miterlimit="10" stroke-linecap="round" stroke-linejoin="round"/>
<path d="M294.054 133.039L288.035 130.653" stroke="white" stroke-width="0.75" stroke-miterlimit="10" stroke-linecap="round" stroke-linejoin="round"/>
<path d="M293.032 151.103L295.077 149.626" stroke="white" stroke-width="0.75" stroke-miterlimit="10" stroke-linecap="round" stroke-linejoin="round"/>
<path d="M294.622 152.693L296.78 151.103" stroke="white" stroke-width="0.75" stroke-miterlimit="10" stroke-linecap="round" stroke-linejoin="round"/>
<path d="M296.78 154.056L298.598 152.693" stroke="white" stroke-width="0.75" stroke-miterlimit="10" stroke-linecap="round" stroke-linejoin="round"/>
<path d="M299.393 155.42L300.415 153.375" stroke="white" stroke-width="0.75" stroke-miterlimit="10" stroke-linecap="round" stroke-linejoin="round"/>
<path d="M302.118 156.329V154.397" stroke="white" stroke-width="0.75" stroke-miterlimit="10" stroke-linecap="round" stroke-linejoin="round"/>
<path d="M304.39 156.897L305.071 155.079" stroke="white" stroke-width="0.75" stroke-miterlimit="10" stroke-linecap="round" stroke-linejoin="round"/>
<path d="M306.775 156.897L306.888 155.42" stroke="white" stroke-width="0.75" stroke-miterlimit="10" stroke-linecap="round" stroke-linejoin="round"/>
<path d="M309.16 157.692V155.988" stroke="white" stroke-width="0.75" stroke-miterlimit="10" stroke-linecap="round" stroke-linejoin="round"/>
<path d="M220.229 475.917C220.569 476.712 220.796 477.621 221.024 478.757C221.478 481.256 221.137 483.301 220.796 484.551C221.251 485.006 222.614 486.369 224.999 486.71C228.179 487.051 230.223 485.006 230.564 484.665C230.451 484.21 230.451 483.642 230.337 483.188C229.996 480.347 229.769 477.507 229.542 474.781C228.86 475.349 227.498 476.257 225.567 476.598C223.068 477.166 221.024 476.257 220.229 475.917Z" fill="#EAE8D3"/>
<path d="M260.776 473.417C260.549 474.894 260.435 476.712 260.549 478.643C260.549 481.029 260.889 483.074 261.23 484.778C260.776 485.233 259.413 486.71 257.028 487.164C253.847 487.732 251.462 485.801 251.122 485.574C251.349 484.665 251.462 483.642 251.576 482.62C252.03 479.098 251.917 475.917 251.576 473.076C252.598 473.417 253.961 473.644 255.438 473.758C257.596 473.872 259.413 473.644 260.776 473.417Z" fill="#EAE8D3"/>
<path d="M312.34 157.692L311.772 155.988" stroke="white" stroke-width="0.75" stroke-miterlimit="10" stroke-linecap="round" stroke-linejoin="round"/>
<path d="M315.066 157.692L314.612 155.874" stroke="white" stroke-width="0.75" stroke-miterlimit="10" stroke-linecap="round" stroke-linejoin="round"/>
<path d="M318.133 156.783L317.565 155.533" stroke="white" stroke-width="0.75" stroke-miterlimit="10" stroke-linecap="round" stroke-linejoin="round"/>
<path d="M320.858 156.102L320.063 155.079" stroke="white" stroke-width="0.75" stroke-miterlimit="10" stroke-linecap="round" stroke-linejoin="round"/>
<path d="M323.585 155.874L321.654 154.397" stroke="white" stroke-width="0.75" stroke-miterlimit="10" stroke-linecap="round" stroke-linejoin="round"/>
<path d="M325.061 154.397L324.152 153.375" stroke="white" stroke-width="0.75" stroke-miterlimit="10" stroke-linecap="round" stroke-linejoin="round"/>
<path d="M325.856 152.466L327.9 153.602" stroke="white" stroke-width="0.75" stroke-miterlimit="10" stroke-linecap="round" stroke-linejoin="round"/>
<path d="M327.333 151.557L328.923 151.898" stroke="white" stroke-width="0.75" stroke-miterlimit="10" stroke-linecap="round" stroke-linejoin="round"/>
<path d="M294.508 148.944H292.805" stroke="white" stroke-width="0.75" stroke-miterlimit="10" stroke-linecap="round" stroke-linejoin="round"/>
<path d="M328.809 150.421H330.172" stroke="white" stroke-width="0.75" stroke-miterlimit="10" stroke-linecap="round" stroke-linejoin="round"/>
<path d="M293.032 134.856C292.919 135.083 289.284 134.856 289.284 134.856" stroke="white" stroke-width="0.75" stroke-miterlimit="10" stroke-linecap="round" stroke-linejoin="round"/>
<path d="M330.172 132.811H332.898" stroke="white" stroke-width="0.75" stroke-miterlimit="10" stroke-linecap="round" stroke-linejoin="round"/>
<path d="M312.567 147.581C317.711 147.581 321.881 144.631 321.881 140.991C321.881 137.352 317.711 134.402 312.567 134.402C307.424 134.402 303.254 137.352 303.254 140.991C303.254 144.631 307.424 147.581 312.567 147.581Z" fill="white"/>
<path d="M220.229 220.974C220.683 220.974 224.09 220.974 228.633 220.633C231.132 220.406 233.176 220.178 234.085 220.178C238.287 219.724 241.695 219.042 244.421 218.474C274.633 212.339 287.126 207.227 287.126 207.227C296.553 203.478 315.407 194.502 335.965 171.78C336.76 171.78 338.918 171.894 340.849 173.484C341.871 174.279 342.439 175.188 342.779 175.756C336.306 184.959 326.765 196.661 312.908 207.568C289.284 226.2 265.319 233.357 251.235 236.311C252.258 243.014 253.507 251.421 254.87 260.965C258.959 290.844 257.255 287.777 258.959 292.549C261.344 299.479 265.319 307.659 262.593 317.429C262.252 318.679 261.912 319.588 261.685 320.156C261.685 319.702 261.685 319.247 261.798 318.793C253.734 317.997 243.739 317.657 232.381 318.679C221.024 319.702 211.369 321.974 203.646 324.246C203.646 324.587 203.76 324.814 203.76 325.155C203.419 324.928 202.851 324.473 202.283 323.792C196.491 317.543 199.217 307.772 200.807 292.321C201.147 289.254 201.375 282.437 201.942 268.917C202.397 258.92 202.51 250.74 202.51 245.4C187.064 249.376 166.506 253.126 142.087 253.239C120.052 253.353 101.085 250.512 86.5468 247.218C86.4333 246.991 84.616 245.173 85.0703 242.56C85.4111 240.628 86.774 239.492 87.1147 239.265C144.358 240.401 169.232 235.629 180.93 230.744C180.703 230.858 203.987 221.087 220.229 220.974Z" fill="white"/>
<path d="M202.283 290.958C202.851 314.703 203.987 339.811 206.145 366.169C209.325 405.705 214.209 442.288 219.888 475.462C220.796 475.917 222.614 476.485 224.772 476.371C227.498 476.144 229.542 474.667 230.337 473.985C228.974 454.785 228.179 433.994 228.52 411.84C228.861 386.959 230.451 363.896 232.836 342.765C237.606 361.965 241.922 383.324 245.216 406.614C248.623 430.472 250.554 452.627 251.463 472.849C252.712 473.304 254.529 473.758 256.801 473.872C258.504 473.872 259.981 473.645 261.117 473.417C262.48 435.471 262.82 396.048 262.139 355.035C261.798 337.766 261.344 320.838 260.662 304.137C241.241 299.82 221.705 295.389 202.283 290.958Z" stroke="white" stroke-width="0.75" stroke-miterlimit="10"/>
<path d="M205.35 320.042C207.167 326.973 209.098 333.903 210.915 340.947C215.344 340.606 219.66 340.379 224.09 340.038C224.999 333.108 225.907 326.177 226.816 319.361C219.774 319.474 212.619 319.701 205.35 320.042Z" stroke="white" stroke-width="0.75" stroke-miterlimit="10"/>
<path d="M237.833 316.975C239.196 324.019 240.672 330.949 242.035 337.993C246.465 337.879 250.781 337.766 255.21 337.652C256.573 330.835 257.936 323.905 259.299 317.088C252.144 316.975 244.988 316.975 237.833 316.975Z" stroke="white" stroke-width="0.75" stroke-miterlimit="10"/>
<path d="M214.663 415.703C216.367 415.589 218.07 415.476 219.774 415.362" stroke="white" stroke-width="0.75" stroke-miterlimit="10"/>
<path d="M253.848 409.909C256.006 409.454 258.05 409 260.208 408.659" stroke="white" stroke-width="0.75" stroke-miterlimit="10"/>
<path d="M254.416 413.431C256.006 413.772 257.482 413.999 259.072 414.34" stroke="white" stroke-width="0.75" stroke-miterlimit="10"/>
<path d="M214.663 409.681C216.367 410.249 218.184 410.931 219.888 411.499" stroke="white" stroke-width="0.75" stroke-miterlimit="10"/>
<path d="M219.547 484.551C218.297 485.233 218.184 487.505 218.07 489.777C217.843 492.39 218.297 493.527 218.411 496.14C218.411 497.503 218.411 499.548 217.957 502.047C218.411 502.502 221.023 505.456 225.68 505.683C231.018 506.024 234.198 502.502 234.539 502.161C232.154 499.321 231.7 497.049 231.813 495.572C231.927 493.527 232.949 492.618 233.062 489.664C233.062 488.641 233.176 485.574 231.813 484.779C230.223 483.87 228.746 486.823 225.68 486.823C222.386 486.71 221.137 483.756 219.547 484.551Z" stroke="white" stroke-width="0.75" stroke-miterlimit="10"/>
<path d="M220.342 504.319C220.228 499.775 222.386 496.253 224.544 495.912C227.043 495.458 230.904 498.866 231.018 504.547" stroke="white" stroke-width="0.75" stroke-miterlimit="10"/>
<path d="M218.298 497.73C215.685 501.593 216.026 503.751 216.253 504.66C218.07 510 232.949 509.886 234.994 506.024C235.675 504.774 234.994 503.07 234.426 502.161" stroke="white" stroke-width="0.75" stroke-miterlimit="10"/>
<path d="M213.982 231.994C217.616 228.245 219.547 224.382 219.888 222.223C220.001 221.769 220.229 220.405 220.115 218.701C220.115 217.565 220.001 216.884 219.774 216.315C219.661 215.747 219.433 215.407 219.32 215.066C218.071 214.157 216.594 212.794 215.004 210.976C213.187 208.704 212.051 206.545 211.256 204.954" stroke="white" stroke-width="0.75" stroke-miterlimit="10"/>
<path d="M239.536 228.813C237.833 226.995 234.88 223.359 233.971 218.133C233.744 216.656 233.63 215.406 233.63 214.27C234.539 213.589 235.788 212.453 236.924 210.748C238.741 208.022 239.309 205.295 239.423 203.818" stroke="white" stroke-width="0.75" stroke-miterlimit="10"/>
<path d="M224.545 490.345C223.636 489.55 223.182 488.414 223.522 487.732C224.09 486.483 226.93 486.369 227.611 487.619C227.952 488.3 227.611 489.437 226.703 490.459C225.907 490.459 225.226 490.459 224.545 490.345Z" stroke="white" stroke-width="0.75" stroke-miterlimit="10"/>
<path d="M262.139 485.119C263.388 485.687 263.616 488.073 263.843 490.345C264.07 492.958 263.729 494.094 263.729 496.707C263.729 498.071 263.843 500.116 264.411 502.615C263.956 503.07 261.458 506.024 256.801 506.478C251.463 506.932 248.169 503.524 247.828 503.183C250.213 500.229 250.554 498.071 250.44 496.48C250.327 494.435 249.191 493.526 248.964 490.686C248.85 489.664 248.737 486.596 250.1 485.687C251.576 484.778 253.166 487.619 256.347 487.505C259.413 487.391 260.662 484.437 262.139 485.119Z" stroke="white" stroke-width="0.75" stroke-miterlimit="10"/>
<path d="M261.912 505.001C261.912 500.457 259.64 497.048 257.482 496.707C254.983 496.253 251.235 499.775 251.235 505.569" stroke="white" stroke-width="0.75" stroke-miterlimit="10"/>
<path d="M263.842 498.298C266.568 502.047 266.341 504.206 266 505.228C264.41 510.568 249.418 510.909 247.26 507.16C246.578 505.91 247.26 504.206 247.828 503.297" stroke="white" stroke-width="0.75" stroke-miterlimit="10"/>
<path d="M257.482 491.141C258.391 490.232 258.845 489.209 258.504 488.528C257.936 487.278 254.983 487.278 254.415 488.528C254.075 489.209 254.415 490.345 255.438 491.254C256.005 491.141 256.687 491.141 257.482 491.141Z" stroke="white" stroke-width="0.75" stroke-miterlimit="10"/>
<path d="M537.659 65.5581H435.211V168.035H537.659V65.5581Z" stroke="white" stroke-width="0.75" stroke-miterlimit="10" stroke-linecap="round" stroke-linejoin="round"/>
<path d="M457.7 87.4849H449.977V157.81H457.7V87.4849Z" stroke="white" stroke-width="0.75" stroke-miterlimit="10"/>
<path d="M470.648 110.434H462.925V157.697H470.648V110.434Z" stroke="white" stroke-width="0.75" stroke-miterlimit="10"/>
<path d="M483.483 104.413H475.759V157.697H483.483V104.413Z" stroke="white" stroke-width="0.75" stroke-miterlimit="10"/>
<path d="M496.43 118.16H488.707V157.697H496.43V118.16Z" stroke="white" stroke-width="0.75" stroke-miterlimit="10"/>
<path d="M509.265 91.575H501.542V157.81H509.265V91.575Z" fill="white" stroke="white" stroke-width="0.75" stroke-miterlimit="10"/>
<path d="M522.213 80.5547H514.489V157.697H522.213V80.5547Z" stroke="white" stroke-width="0.75" stroke-miterlimit="10"/>
<path d="M32.4834 224.496C33.1649 218.02 34.4142 208.363 37.8216 197.115C49.5201 157.579 72.0086 144.059 83.7072 117.815C91.2034 101.114 96.0872 75.3242 83.8208 35.7876" stroke="white" stroke-width="0.75" stroke-miterlimit="10" stroke-linecap="round" stroke-linejoin="round"/>
</svg>
