<svg width="752" height="512" viewBox="0 0 752 512" fill="none" xmlns="http://www.w3.org/2000/svg">
<path d="M505.217 275.1C503.817 276.5 503.517 278.6 504.517 280.1C505.617 281.9 507.917 282.5 509.917 281.5C522.617 279.3 537.517 274.8 552.117 265.4C554.217 264.1 556.217 262.7 558.117 261.3C568.417 264.2 576.817 265.9 582.817 266.9C588.017 267.8 592.417 268.3 594.017 266C595.617 263.7 593.517 259.7 592.817 258.2C585.817 243.7 592.917 231.2 586.317 192.8C585.617 189 584.817 185.2 583.117 177.8C579.517 162.1 576.817 154.2 570.117 150.2C569.617 149.9 569.117 149.7 568.817 149.5C563.317 146.9 557.617 147.7 553.917 148.8C551.017 151 543.517 157.4 539.817 168.8C536.417 179.3 538.217 188.2 539.217 191.8C535.817 183.7 532.617 173.9 530.917 162.6C530.417 159.4 530.117 156.3 529.817 153.3C527.517 152.7 524.317 152.3 520.917 153.3C515.617 154.9 509.017 160.2 502.617 185.6C497.717 205.4 498.017 217 494.817 243.8C493.417 255.1 492.017 264.4 491.117 270.4C491.417 270.7 492.817 271.9 495.017 271.9C497.217 271.9 498.617 270.7 498.917 270.4C501.817 261.1 503.717 253.5 504.917 248.4C508.217 234.1 508.717 226.5 512.717 207.7C513.917 201.9 515.117 197.2 515.817 194.3C518.417 207.4 520.517 222.1 521.217 238.1C521.417 243.3 521.517 248.3 521.517 253.2C523.617 254 526.417 254.9 529.717 255.4C532.917 255.9 535.717 255.9 537.917 255.7C534.417 259 529.817 262.9 523.817 266.5C516.717 271 510.217 273.5 505.217 275.1Z" fill="#111111"/>
<path d="M455.017 446C454.617 446.9 453.917 448.3 453.117 449.9C450.917 454.1 450.017 455.2 449.717 455.6C449.017 456.4 447.917 457.6 446.217 458.8C446.717 459.4 447.417 460.1 448.517 460.8C449.717 461.5 451.017 461.9 453.317 462.1C458.017 462.5 460.417 462.6 461.817 461.1C462.417 460.5 462.417 459.9 463.217 455.5C463.617 453.1 463.917 451.2 464.117 450.2C463.917 450.3 461.717 452.2 459.017 451.5C456.617 450.8 455.017 448.6 455.017 446Z" fill="#49A6FF"/>
<path d="M167.816 459C168.616 459.6 169.416 460.2 170.216 461C171.916 462.5 173.216 464 174.316 465.4C174.616 465.6 176.716 466.5 178.616 465.5C179.916 464.9 180.416 463.7 181.016 462.1C181.516 461 182.016 459.9 181.616 458.7C181.516 458.4 181.416 458.3 180.816 457.2C180.416 456.4 180.016 455.7 179.816 455.3C178.916 455.1 177.816 454.7 176.616 454.1C175.716 453.6 175.016 453.1 174.416 452.7C174.516 453.2 174.616 455 173.416 456.6C172.216 458.4 170.116 459.3 167.816 459Z" fill="#49A6FF"/>
<path d="M238.117 417.6C238.617 420.9 239.117 424.3 239.617 427.6C239.917 427.8 240.217 428.1 240.517 428.4C241.517 429.3 242.317 430.3 242.917 431.1C243.817 431.2 249.717 431.9 251.217 429C251.517 428.4 251.617 427.7 251.317 425.2C251.017 423 250.617 420.5 249.917 417.8C247.917 417.9 245.717 417.9 243.517 417.9C241.717 417.8 239.917 417.7 238.117 417.6Z" fill="#FFC910"/>
<path d="M355.616 418.7C355.416 420.5 355.216 422.2 355.016 424C354.716 424.7 354.316 425.4 354.016 426.1C353.816 426.9 353.616 427.7 353.516 428.5C350.816 430.4 347.816 431 345.616 429.9C345.216 429.7 344.016 429 343.416 427.7C342.916 426.6 343.116 425.5 343.316 424.7C343.616 423.1 343.916 420.8 344.116 417.7C345.916 418.2 348.216 418.7 350.916 418.9C352.616 419 354.216 418.9 355.616 418.7Z" fill="#FFC910"/>
<path d="M456.417 382.6C457.317 383.8 458.816 386.2 459.316 389.6C459.616 391.6 459.417 393.4 459.217 394.6C459.617 394.8 460.117 395.2 460.917 395.4C464.217 396.4 467.317 394.3 468.717 393.4C469.917 392.6 470.817 391.9 471.417 390.6C471.517 390.3 472.117 388.9 471.617 387.3C471.217 386.1 470.417 385.6 469.417 384.5C468.517 383.6 467.417 382.2 466.417 380C466.317 380.4 465.816 382.6 463.816 383.8C461.516 385.1 458.517 384.6 456.417 382.6Z" fill="#FF4A47"/>
<path d="M509.317 85.5C506.517 84.6 501.217 83.5 494.817 84.8C491.317 85.5 488.517 86.7 486.517 87.8C489.117 87.8 492.517 88.1 496.417 89.2C498.817 89.9 500.817 90.8 502.517 91.6C501.717 91.7 497.917 92.1 495.517 95.2C494.617 96.3 494.217 97.5 493.917 98.3C495.217 97.7 497.717 96.6 500.917 96.9C502.117 97 503.117 97.3 503.917 97.6C502.817 98 500.217 99 498.417 101.7C497.517 103 497.017 104.3 496.817 105.3C498.917 104.5 501.017 103.8 503.117 103C502.217 104.2 500.617 106.9 500.317 110.6C500.217 112.6 500.517 114.2 500.817 115.4C501.917 112.3 505.317 111.1 507.617 112.3C509.417 113.2 510.417 115.7 509.717 118.1C508.417 118.4 507.817 118.2 507.517 117.9C506.317 116.7 507.817 112.4 510.317 109.5C512.517 106.9 513.717 107.5 514.717 105.5C516.617 102.1 513.717 99.1 515.217 96.7C516.517 94.7 519.817 94.7 525.717 94.9C534.517 95.2 539.617 95.4 542.717 99.3C543.717 100.5 544.817 102.6 545.017 106C545.517 104.4 546.017 102.8 546.517 101.1C549.417 106.4 549.817 110.5 549.717 113.2C549.517 115.6 548.817 118.9 549.617 119.2C550.317 119.5 551.517 116.6 553.017 116.8C553.917 116.9 554.617 118.1 555.017 119.4C555.217 120.6 555.417 122.4 554.917 124.6C554.717 125.7 554.317 126.7 553.917 127.5C553.617 128 553.117 129 552.017 129.7C550.717 130.6 549.517 130.8 548.917 130.8C550.217 130.9 551.817 130.9 553.717 130.6C555.317 130.4 556.817 130 557.917 129.6C558.317 126.5 558.817 123.4 559.217 120.3C559.717 119 560.317 117.6 560.817 116.3C561.817 117 562.817 117.8 563.917 118.5C564.817 117 565.717 115.5 566.617 114C566.617 110.7 566.717 107.4 566.717 104C567.717 104.8 568.717 105.6 569.817 106.4C570.317 104.6 570.917 101.7 570.517 98.2C570.217 95.9 569.617 94 569.017 92.7C570.317 93 571.517 93.3 572.817 93.7C572.817 92.4 572.717 91.2 572.417 90.2C570.017 80.1 554.717 77 553.117 76.7C554.517 76.3 555.917 75.9 557.317 75.5C555.117 74.1 545.117 68.2 531.917 70.6C517.917 73.3 510.617 83.5 509.317 85.5Z" fill="#111111"/>
<path d="M639.517 252.8C632.117 254 627.917 262.8 625.717 266.9C619.517 278.6 609.617 288.1 589.817 307.3C584.017 312.9 575.117 320.7 562.717 328.7C562.417 329 561.617 330.1 561.417 331.7C561.317 333 561.717 333.9 561.917 334.3C564.517 334 567.017 333.7 569.617 333.4C569.717 334.5 569.917 336 570.417 337.7C570.717 338.8 571.517 341.1 573.217 343.5C574.117 344.7 578.017 350 584.717 350.7C587.417 351 589.617 350.4 590.917 350C592.917 351.3 594.917 352.6 596.917 353.8C600.317 352.7 604.917 351.2 610.417 349.2C639.417 338.6 640.917 332.8 652.217 332.9C654.917 332.9 660.917 333.3 666.117 329.5C668.417 327.8 669.817 325.9 670.717 324.7C678.917 312.7 686.417 301.7 685.417 287C685.317 286.1 682.917 278.9 678.017 264.7C674.617 254.9 672.317 248.5 667.717 247.6C666.617 247.4 665.117 247.8 662.217 248.6C656.017 250.2 654.617 252 650.717 252.9C645.117 254.3 643.617 252.1 639.517 252.8Z" fill="#111111"/>
<path d="M364.617 79.6C366.717 78.9 368.717 78.9 370.017 78.9C370.717 79.7 371.417 80.5 372.217 81.3C374.417 83.8 376.417 86.3 378.217 88.8C379.717 87.1 382.017 84.8 385.217 82.7C388.117 80.8 390.817 79.7 392.917 79C393.617 78.9 395.617 78.6 398.017 79C420.717 81.9 429.417 127.3 431.017 140.1C431.817 147.1 431.917 155.1 427.217 162.4C425.817 164.5 424.416 166.1 423.316 167.1C423.216 168.7 423.017 170.3 422.917 171.9C422.517 176.9 422.017 181.9 421.617 186.9C415.517 188.4 408.317 189.8 400.017 190.4C381.417 191.8 365.917 189 355.717 186.3C354.217 192.1 352.717 198 351.217 203.8C350.217 207.7 349.316 211.5 348.316 215.4C347.616 216.6 346.217 217.5 344.717 217.6C342.717 217.7 340.817 216.4 340.417 214.6C340.417 206.4 340.417 194.7 340.717 180.6C340.917 171.4 341.017 165.6 341.417 158.4C343.017 128.1 346.117 113.9 348.517 105.4C352.917 89.7 357.317 81.9 364.617 79.6Z" fill="#111111"/>
<path d="M641.517 198.8C642.517 201.4 644.817 206.4 649.917 210.4C652.117 212.2 654.417 213.3 656.217 214C657.317 213.7 659.617 213.2 660.917 214.3C662.717 215.9 662.517 220.5 658.917 225C655.217 228 654.417 231 654.117 232.2C653.317 236.1 655.217 239.6 657.517 244.2C658.817 246.6 660.017 248.5 660.917 249.7C664.417 248.1 667.917 246.4 671.417 244.8C674.317 244.6 677.117 244.4 680.017 244.2C682.017 241.3 683.917 238.4 685.917 235.5C688.617 233.7 691.317 232 694.117 230.2C693.417 228.1 692.417 225 691.117 221.3C687.617 211.8 685.017 204.9 679.717 197.7C675.417 191.9 670.117 184.8 660.717 182.3C653.517 180.4 647.217 182 643.817 183.2C641.817 182.8 638.817 182.4 635.317 183.3C628.117 185.3 624.517 191.6 621.817 196.5C619.617 200.4 614.917 208.7 617.017 217.2C617.417 218.9 618.017 220.1 618.617 222.2C618.617 222.2 619.017 223.8 619.417 225.4C620.117 228.3 620.817 234 621.117 241.3C622.217 239.8 623.317 238.4 624.417 236.9C623.717 234.8 622.717 231.9 622.017 228.2C621.517 225.8 621.117 223.2 621.117 220.4C621.117 218.6 621.317 211.6 626.417 205.8C631.517 199.9 638.917 199 641.517 198.8Z" fill="#111111"/>
<path d="M377.717 23.7C378.117 25.7 378.817 28.8 380.317 32.3C383.417 39.6 386.217 40.4 386.717 44.8C387.317 49.8 383.917 51.3 382.817 58.1C382.017 63.1 383.017 67.5 384.017 70.5C386.717 72.2 392.117 74.9 399.317 75.5C409.117 76.3 416.417 72.6 419.217 70.9C414.717 63.8 413.417 57.8 413.117 53.7C412.317 44.5 415.617 39.1 412.317 30.6C410.817 26.9 408.917 24.6 407.417 22.9C406.717 22 395.117 8.90001 381.517 11.7C378.617 12.3 376.417 13.4 374.917 14.3C371.717 14.7 365.217 16 359.517 21.2C350.917 29 350.417 40.2 350.417 42C350.117 51.1 354.417 54.6 355.417 70.1C355.617 72.6 355.617 74.6 355.617 75.9C358.017 75.6 360.717 75.2 363.617 74.6C366.517 73.9 369.217 73.2 371.617 72.3C370.617 72 369.417 71.6 368.217 71C366.417 70.1 365.017 69 364.117 68.1C362.617 65.9 360.517 62.5 359.017 58C354.317 43.6 359.317 34.1 359.317 34.1C361.217 31.9 364.617 28.5 370.017 26.1C372.817 24.7 375.517 24.1 377.717 23.7Z" fill="#111111"/>
<path d="M368.917 43.4C368.617 49.5 367.017 51.8 365.317 52.7C364.517 53.2 363.217 53.5 363.117 54.3C363.017 55.2 364.517 56.1 365.517 56.5C366.517 56.9 367.517 56.8 368.017 56.8" stroke="#111111" stroke-width="0.75" stroke-miterlimit="10" stroke-linecap="round" stroke-linejoin="round"/>
<path d="M372.617 38C372.917 37.9 374.217 37.1 376.117 37.3C377.817 37.4 378.917 38.2 379.117 38.4" stroke="#111111" stroke-width="0.75" stroke-miterlimit="10" stroke-linecap="round" stroke-linejoin="round"/>
<path d="M359.816 38.2C360.016 38 361.316 37.2 363.316 37.2C365.016 37.2 366.116 37.9 366.416 38" stroke="#111111" stroke-width="0.75" stroke-miterlimit="10" stroke-linecap="round" stroke-linejoin="round"/>
<path d="M357.117 53.4C357.617 55.8 358.617 59.4 360.917 63.3C363.017 66.8 365.117 70.3 369.017 71.8C375.617 74.3 382.517 69.2 383.317 68.6" stroke="#111111" stroke-width="0.75" stroke-miterlimit="10" stroke-linecap="round" stroke-linejoin="round"/>
<path d="M371.917 72.4C373.217 74.2 373.517 76.5 372.617 78.3C372.017 79.5 371.017 80.1 370.517 80.4" stroke="#111111" stroke-width="0.75" stroke-miterlimit="10" stroke-linecap="round" stroke-linejoin="round"/>
<path d="M385.317 67.3C385.217 68.1 384.617 71.9 387.117 75.3C389.317 78.4 393.217 80 397.217 79.4" stroke="#111111" stroke-width="0.75" stroke-miterlimit="10" stroke-linecap="round" stroke-linejoin="round"/>
<path d="M373.717 42.3C372.217 42.9 372.217 46.2 374.117 48.1C374.517 48.5 374.817 48.9 375.217 48.8C376.517 48.7 378.317 44.6 376.117 42.9C375.617 42.4 374.517 42 373.717 42.3Z" fill="#111111"/>
<path d="M362.317 43.4999C361.017 43.9999 361.017 46.8999 362.717 48.6999C363.017 48.9999 363.317 49.3999 363.717 49.2999C364.917 49.1999 366.517 45.5999 364.517 44.0999C363.917 43.5999 363.017 43.1999 362.317 43.4999Z" fill="#111111"/>
<path d="M366.617 63C367.617 63 369.117 62.9001 370.817 62.4001C373.417 61.6001 375.017 60.1 375.917 59.3" stroke="#111111" stroke-width="0.75" stroke-miterlimit="10" stroke-linecap="round" stroke-linejoin="round"/>
<path d="M570.717 330.3C570.617 330.4 570.517 330.5 570.517 330.5C569.817 331.2 569.817 332.5 570.517 333.2C571.217 333.9 572.417 333.9 573.217 333.2C573.317 333.1 573.417 333 573.417 333C574.117 332.3 574.117 331 573.417 330.3C572.617 329.6 571.417 329.5 570.717 330.3Z" fill="#111111"/>
<path d="M572.016 333C544.116 336.8 516.216 340.5 488.416 344.3C477.316 378 466.116 411.7 455.016 445.5C454.916 448.5 456.816 451 459.316 451.5C462.016 452.1 464.216 450 464.316 449.8C473.116 427.7 481.916 405.6 490.716 383.5C488.116 379.3 487.516 377.7 487.816 377.5C488.416 377.1 492.116 381.9 493.616 381.1C495.216 380.3 493.116 373.6 493.816 373.4C494.416 373.2 495.116 376.8 497.416 378C500.816 379.7 505.816 375.5 508.516 373.7C513.216 370.4 523.716 369.4 544.816 367.2C560.316 365.6 562.916 366.3 566.616 365.9C568.116 365.7 569.416 365.4 570.116 365.3C572.416 364.8 574.416 364.3 575.816 363.8" stroke="#111111" stroke-width="0.75" stroke-miterlimit="10" stroke-linecap="round" stroke-linejoin="round"/>
<path d="M539.316 382C555.516 383.3 567.316 387.4 575.116 390.9C587.616 396.5 596.316 403.6 611.416 404.6C617.516 405 622.616 404.3 625.816 403.6" stroke="#111111" stroke-width="0.75" stroke-miterlimit="10" stroke-linecap="round" stroke-linejoin="round"/>
<path d="M468.717 438.9C484.117 467.4 495.517 488.3 497.317 491.6C497.617 492.1 498.317 493.5 499.917 494.5C501.417 495.4 503.017 495.4 503.517 495.5C510.517 495.7 558.517 498.9 564.517 502.2C564.817 502.4 566.217 503.2 567.917 502.9C569.417 502.6 570.417 501.4 570.817 501C575.617 495.2 582.417 487 586.417 487.8C587.017 487.9 588.117 488.3 589.017 489C590.517 490 591.317 491.2 591.417 491.4C596.617 498.9 615.017 501.3 615.017 501.3C635.917 504 689.917 503.6 694.117 503.7C695.017 503.7 696.617 503.8 697.717 504.9C698.917 506.1 698.817 507.5 699.417 508.5C701.117 511.7 708.917 510.6 710.517 510.4C725.017 508.3 733.717 495.9 734.817 494.3C735.617 493.1 736.217 492.2 736.717 491.2C742.917 480.3 741.417 474.9 745.417 460.7C748.317 450.4 751.517 444.4 750.417 435.2C750.217 433.7 750.017 432.3 749.917 432.1C748.017 422 743.117 415.4 742.017 413.8C735.217 403.9 730.617 377.4 724.917 344.6C724.917 344.6 718.717 309 706.217 298.5C704.817 297.3 703.317 296.3 703.317 296.3C694.817 290.6 685.617 289.9 680.017 290.1" stroke="#111111" stroke-width="0.75" stroke-miterlimit="10" stroke-linecap="round" stroke-linejoin="round"/>
<path d="M498.816 291C515.016 290.9 530.116 291.2 537.116 291.4" stroke="#111111" stroke-width="0.75" stroke-miterlimit="10" stroke-linecap="round" stroke-linejoin="round"/>
<path d="M489.917 291.1C490.517 291.1 491.117 291.1 491.717 291.1" stroke="#111111" stroke-width="0.75" stroke-miterlimit="10" stroke-linecap="round" stroke-linejoin="round"/>
<path d="M485.316 291.2C486.016 291.2 486.616 291.2 487.316 291.2" stroke="#111111" stroke-width="0.75" stroke-miterlimit="10" stroke-linecap="round" stroke-linejoin="round"/>
<path d="M478.717 291.4C480.017 291.4 481.717 291.4 483.817 291.4" stroke="#111111" stroke-width="0.75" stroke-miterlimit="10" stroke-linecap="round" stroke-linejoin="round"/>
<path d="M523.817 251.6C458.617 255.5 433.617 268 422.917 277.9C422.617 278.1 422.517 278.3 422.217 278.5C404.617 296.2 438.117 353.9 455.817 382.1C457.217 384 459.617 384.9 461.817 384.5C464.717 384 466.017 381.4 466.117 381.1C453.917 352.2 435.417 303.4 448.617 294.6C450.017 293.7 451.217 293.5 452.117 293.4C457.617 292.6 462.017 291.5 477.317 291.5" stroke="#111111" stroke-width="0.75" stroke-miterlimit="10" stroke-linecap="round" stroke-linejoin="round"/>
<path d="M541.016 268.6C538.816 285.4 536.116 297.1 534.016 304.9C533.016 308.5 530.916 316.1 530.216 326.5C529.816 331.6 529.916 335.8 530.116 338.7" stroke="#111111" stroke-width="0.75" stroke-miterlimit="10" stroke-linecap="round" stroke-linejoin="round"/>
<path d="M592.316 265.4C592.016 266.5 591.617 268.3 590.917 270.3C587.717 280.6 583.116 287.6 581.216 290.6C575.916 298.9 568.217 312.6 557.917 331.2" stroke="#111111" stroke-width="0.75" stroke-miterlimit="10" stroke-linecap="round" stroke-linejoin="round"/>
<path d="M468.117 291.9C468.117 319.1 468.117 346.3 468.117 373.4C471.717 373.3 475.217 373.3 478.817 373.2" stroke="#111111" stroke-width="0.75" stroke-miterlimit="10" stroke-linecap="round" stroke-linejoin="round"/>
<path d="M581.217 290.6C582.717 290.6 584.217 290.6 585.717 290.6C585.717 299.1 585.717 307.7 585.717 316.2" stroke="#111111" stroke-width="0.75" stroke-miterlimit="10" stroke-linecap="round" stroke-linejoin="round"/>
<path d="M278.817 302.7C270.717 299.9 249.117 292.8 236.617 293.3C235.917 293.3 234.817 293.4 233.717 294C227.317 297.1 228.017 310.2 229.517 329.7C233.117 378.9 234.917 403.5 235.717 405.4C235.917 405.8 236.517 407.2 235.917 408.3C234.917 410.3 230.917 409.9 230.917 410.7C230.817 411.5 234.617 411.8 234.717 413.1C234.917 414.5 230.417 415.8 230.617 416.7C230.717 417.4 233.217 417.4 235.217 417.4C244.917 417.6 246.517 418.6 251.517 417.4C252.617 417.1 256.617 416.2 256.517 415C256.417 413.4 248.217 412.5 248.317 411.4C248.417 410.6 252.717 410.9 253.317 409.2C253.817 407.8 251.717 405.8 249.917 404.4C250.117 400.4 250.217 396.4 250.417 392.3C251.417 369.9 252.417 347.6 253.517 325.4C251.717 326.9 249.917 328.4 248.117 329.9" stroke="#111111" stroke-width="0.75" stroke-miterlimit="10" stroke-linecap="round" stroke-linejoin="round"/>
<path d="M253.717 328.1C267.717 334.3 284.417 338.2 303.217 335.8C317.317 333.9 330.117 328.8 341.217 322.4" stroke="#111111" stroke-width="0.75" stroke-miterlimit="10" stroke-linecap="round" stroke-linejoin="round"/>
<path d="M341.017 319.9C343.117 331.4 344.817 344.5 345.617 358.8C346.517 375.2 346.117 390.1 345.117 403.1C342.117 403.2 339.017 403.3 336.017 403.5C338.417 405.7 340.817 408 343.217 410.2C341.717 411.6 340.217 412.9 338.617 414.3C339.917 415.3 341.117 416.3 342.417 417.2C344.417 417.9 347.217 418.7 350.717 418.9C354.117 419.1 356.916 418.6 358.816 418.1C358.216 416.2 357.617 414.4 357.117 412.5C358.617 411.5 360.117 410.4 361.717 409.4C360.217 407.6 358.717 405.7 357.117 403.9C357.717 401 366.916 353.8 371.316 323.2C372.116 317.5 373.517 306.7 367.517 301.6C364.917 299.4 361.917 299 359.017 298.8C345.117 297.9 331.217 302.6 322.417 306.4" stroke="#111111" stroke-width="0.75" stroke-miterlimit="10" stroke-linecap="round" stroke-linejoin="round"/>
<path d="M280.116 235C282.816 234.4 285.816 234.1 285.816 234.1C288.116 233.8 290.116 233.7 291.516 233.7C292.716 236.3 293.916 239.1 295.016 241.9C297.416 247.8 299.316 253.5 300.916 258.8C301.516 255 302.416 250.5 304.116 245.6C306.016 240.2 308.216 235.7 310.316 232.2C313.116 231.6 317.616 231.1 322.716 232.4C330.216 234.4 335.016 239.5 339.216 244.9C350.516 259.7 366.616 280.9 358.316 295.1C351.816 306.2 331.016 308.9 318.916 307.8C318.616 307.8 318.316 307.7 318.116 307.7C318.416 306.8 318.316 306.2 318.216 305.8C318.016 304.9 317.416 304.4 314.616 302.4C314.016 301.9 313.416 301.5 313.016 301.2C311.216 301.2 308.216 301.5 304.816 303C300.816 304.8 298.316 307.4 297.016 308.9C294.916 306.8 291.616 304.4 287.316 303.5C284.416 302.9 283.216 303.5 282.716 303.8C280.016 305.3 280.016 309.3 280.016 309.8C278.016 310.1 275.116 310.3 271.616 310.1C260.616 309.6 241.416 305.2 238.116 295C237.816 293.9 237.616 293 237.716 292.1C238.816 280.1 248.716 275.4 259.916 259.6C266.416 250.8 274.216 236.2 280.116 235Z" fill="#111111"/>
<path d="M313.917 233.8C312.817 232.9 310.317 230.5 309.017 226.5C308.017 223.5 308.217 220.8 308.417 219.4" stroke="#111111" stroke-width="0.75" stroke-miterlimit="10" stroke-linecap="round" stroke-linejoin="round"/>
<path d="M291.417 229.2C291.317 232.2 291.117 235.2 291.017 238.2" stroke="#111111" stroke-width="0.75" stroke-miterlimit="10" stroke-linecap="round" stroke-linejoin="round"/>
<path d="M270.817 179.8C270.517 182.2 270.217 185.6 270.717 189.8C271.017 192.3 271.417 193.9 273.317 200.6C277.217 214 277.817 215.4 278.917 217C281.117 220.2 284.317 223.3 285.217 224.2C287.717 226.6 289.017 227.7 289.517 227.9C295.817 230.7 305.317 222.6 309.717 217.5C310.917 216.2 311.717 215 312.217 214.2" stroke="#111111" stroke-width="0.75" stroke-miterlimit="10" stroke-linecap="round" stroke-linejoin="round"/>
<path d="M287.717 196.5C289.717 205.5 288.817 208.6 287.317 209.5C286.317 210.1 284.617 209.9 284.317 210.8C284.017 211.8 285.317 213.1 286.117 213.7C287.117 214.4 288.217 214.6 288.817 214.7" stroke="#111111" stroke-width="0.75" stroke-miterlimit="10" stroke-linecap="round" stroke-linejoin="round"/>
<path d="M296.517 193C295.417 193.1 293.617 198.5 296.117 202.2C296.917 203.3 298.517 204.9 299.317 204.5C301.017 203.6 298.117 192.9 296.517 193Z" fill="#111111"/>
<path d="M280.817 193C279.717 193.1 277.917 198.5 280.417 202.2C281.217 203.3 282.817 204.9 283.617 204.5C285.317 203.6 282.417 192.9 280.817 193Z" fill="#111111"/>
<path d="M276.617 191.1C277.917 189.3 280.017 188.3 282.017 188.6C284.417 188.9 285.717 190.8 285.917 191.1" stroke="#111111" stroke-width="0.75" stroke-miterlimit="10" stroke-linecap="round" stroke-linejoin="round"/>
<path d="M292.217 191.5C293.317 189.5 295.417 188.4 297.517 188.6C299.817 188.9 301.117 190.8 301.317 191.1" stroke="#111111" stroke-width="0.75" stroke-miterlimit="10" stroke-linecap="round" stroke-linejoin="round"/>
<path d="M288.117 219.5C289.117 219.5 291.417 219.3 293.617 218.1C295.017 217.4 295.717 216.5 296.217 216" stroke="#111111" stroke-width="0.75" stroke-miterlimit="10" stroke-linecap="round" stroke-linejoin="round"/>
<path d="M314.017 207.7C315.817 207.2 316.217 206.8 316.217 206.5C316.217 205.9 314.817 205.7 314.717 204.9C314.617 204.2 315.617 203.4 316.417 203.1C316.617 203 318.117 202.5 318.717 203.4C319.117 203.9 318.917 204.8 318.317 205.5" stroke="#111111" stroke-width="0.75" stroke-miterlimit="10" stroke-linecap="round" stroke-linejoin="round"/>
<path d="M173.917 358.6C174.617 355.1 175.317 352.4 175.917 350.6C176.517 348.8 179.117 340.8 184.217 333.1C197.917 312.5 221.617 305.6 228.817 303.8" stroke="#111111" stroke-width="0.75" stroke-miterlimit="10" stroke-linecap="round" stroke-linejoin="round"/>
<path d="M233.017 436.6C224.017 434.4 215.217 431.8 206.617 427.5C200.517 424.5 191.917 419.5 182.717 411" stroke="#111111" stroke-width="0.75" stroke-miterlimit="10" stroke-linecap="round" stroke-linejoin="round"/>
<path d="M338.816 450.2C327.916 453.3 317.316 452.6 309.416 452.1C301.816 451.6 300.116 450.7 291.016 448.4C286.616 447.3 287.416 447.7 272.516 444.3C270.116 443.8 268.116 443.3 266.816 443" stroke="#111111" stroke-width="0.75" stroke-miterlimit="10" stroke-linecap="round" stroke-linejoin="round"/>
<path d="M447.717 368.6C447.817 371.5 447.917 376.3 448.317 382.2C449.017 393.2 449.617 395.5 448.517 400C447.017 405.6 444.117 409.4 441.517 412.8C439.617 415.2 436.217 419.2 430.917 422.9C425.217 426.9 421.417 427.6 409.617 431.6C389.617 438.3 392.617 438.7 387.617 439.4C380.717 440.3 376.217 439.2 371.717 438.8" stroke="#111111" stroke-width="0.75" stroke-miterlimit="10" stroke-linecap="round" stroke-linejoin="round"/>
<path d="M53.7168 381.6C49.5168 402.7 45.4168 423.7 41.2168 444.8C43.0168 447.8 45.4168 451.1 48.6168 454.2C60.4168 465.3 76.1168 466 84.9168 466.5C90.3168 466.8 95.5168 467 102.217 465.5C107.917 464.2 112.817 462.1 116.917 459.6" stroke="#111111" stroke-width="0.75" stroke-miterlimit="10" stroke-linecap="round" stroke-linejoin="round"/>
<path d="M63.4165 410.6C66.5165 409.1 69.6165 407.6 72.8165 406C80.1165 411.8 88.1165 417.6 96.8165 423.3C121.917 439.7 146.217 451 167.517 458.9C167.717 458.9 170.617 459.6 172.817 457.5C174.817 455.6 174.517 453 174.517 452.7C147.117 427.6 119.716 402.4 92.2165 377.3" stroke="#111111" stroke-width="0.75" stroke-miterlimit="10" stroke-linecap="round" stroke-linejoin="round"/>
<path d="M203.717 381.7C202.417 384.2 200.917 386.8 199.317 389.3C186.517 410.1 169.817 424.5 154.617 434.5" stroke="#111111" stroke-width="0.75" stroke-miterlimit="10" stroke-linecap="round" stroke-linejoin="round"/>
<path d="M112.117 395.7C139.317 379.4 166.417 363 193.617 346.7C196.217 349.8 198.117 353 199.517 355.9" stroke="#111111" stroke-width="0.75" stroke-miterlimit="10" stroke-linecap="round" stroke-linejoin="round"/>
<path d="M181.317 373.9C169.317 391.3 157.417 408.8 145.417 426.2" stroke="#111111" stroke-width="0.75" stroke-miterlimit="10" stroke-linecap="round" stroke-linejoin="round"/>
<path d="M41.2166 444.8C40.3166 444.2 39.0166 443.3 37.6166 441.9C31.9166 436.2 31.6166 428.9 30.2166 419.6C29.4166 414.6 28.0166 407.5 25.4166 398.9C22.4166 398.4 17.7166 397.3 12.9166 394.1C12.9166 394.1 6.51663 389.9 2.31663 382.6C-1.58337 375.8 -3.38337 343.1 20.8166 308.3C28.3166 297.6 32.9166 291.1 40.8166 290.1C54.4166 288.3 67.3166 304.4 72.7166 314.1C77.5166 322.8 78.8166 331.2 79.3166 336.2C78.8166 329.2 79.1166 323.4 79.6166 319.3C80.6166 310.6 82.4166 307.2 81.9166 301C81.4166 294.7 78.8166 289.7 76.5166 286.2C89.7166 287 104.317 289 119.917 293.1C176.617 307.9 203.217 338.8 204.917 347.7C205.217 349.3 205.917 353.4 203.717 355.4C202.217 356.8 199.817 356.6 198.417 356.4C194.717 352.4 190.517 348.4 185.717 344.6C158.417 323.1 127.217 319.3 109.417 318.8C101.217 351.9 104.417 363.7 109.417 368C111.017 369.4 118.117 374.5 123.217 384C124.117 385.6 124.717 387 125.117 387.9C120.817 390.5 116.517 393.1 112.217 395.7C105.317 389.6 98.3166 383.5 91.4166 377.4C90.2166 375.3 88.3166 372.4 85.2166 369.5C82.9166 367.4 81.0166 365.6 78.0166 364.6C75.2166 363.7 72.7166 363.8 71.1166 364C70.2166 364 67.8166 364.2 65.7166 366C64.8166 366.7 64.3166 367.5 63.9166 368.1C60.7166 371.2 57.0166 375.7 54.4166 381.9C53.8166 383.2 53.4166 384.5 53.0166 385.7C49.0166 405.3 45.1166 425.1 41.2166 444.8Z" fill="#111111"/>
<path d="M67.7168 464.2C68.1168 460.4 68.5168 456.5 68.9168 452.7C76.8168 451.7 84.6168 450.8 92.5168 449.8C94.8168 455.2 97.0168 460.6 99.3168 466" stroke="#111111" stroke-width="0.75" stroke-miterlimit="10" stroke-linecap="round" stroke-linejoin="round"/>
<path d="M47.7168 290.7C48.5168 290.3 53.1168 287.6 54.5168 281.7C56.0168 275.6 52.6168 270.9 52.1168 270.2" stroke="#111111" stroke-width="0.75" stroke-miterlimit="10" stroke-linecap="round" stroke-linejoin="round"/>
<path d="M83.2165 287.5C78.9165 288.8 74.8165 287.4 73.3165 284.5C72.3165 282.7 72.6165 280.7 72.8165 279.8" stroke="#111111" stroke-width="0.75" stroke-miterlimit="10" stroke-linecap="round" stroke-linejoin="round"/>
<path d="M358.917 287C370.817 287.5 379.917 290.2 385.717 292.4C392.917 295.2 397.517 298.1 398.717 298.9C403.117 301.8 408.317 305.2 412.417 311.2C417.317 318.3 415.717 321.7 420.617 328.5C424.117 333.3 428.217 336.3 431.017 337.9" stroke="#111111" stroke-width="0.75" stroke-miterlimit="10" stroke-linecap="round" stroke-linejoin="round"/>
<path d="M416.617 186.5C416.617 199.6 416.817 213.1 417.317 227C418.017 245.6 419.117 263.4 420.617 280.5" stroke="#111111" stroke-width="0.75" stroke-miterlimit="10" stroke-linecap="round" stroke-linejoin="round"/>
<path d="M403.717 302.3C396.617 279.4 392.417 261.8 390.717 253.6C388.017 241.1 386.017 228.4 386.017 228.4C385.917 227.8 385.817 227.2 385.717 226.6C384.317 248.1 382.917 269.5 381.517 291" stroke="#111111" stroke-width="0.75" stroke-miterlimit="10" stroke-linecap="round" stroke-linejoin="round"/>
<path d="M358.816 185.5C357.916 198.2 357.317 211.6 357.217 225.8C357.017 245.9 357.717 264.6 358.917 281.9" stroke="#111111" stroke-width="0.75" stroke-miterlimit="10" stroke-linecap="round" stroke-linejoin="round"/>
<path d="M373.016 187.3C371.616 190.9 369.616 194.9 367.016 199.2C363.716 204.6 360.316 208.8 357.316 211.9" stroke="#111111" stroke-width="0.75" stroke-miterlimit="10" stroke-linecap="round" stroke-linejoin="round"/>
<path d="M395.816 188.1C397.216 191.5 399.916 197 404.816 202.1C409.016 206.5 413.216 209 416.116 210.3" stroke="#111111" stroke-width="0.75" stroke-miterlimit="10" stroke-linecap="round" stroke-linejoin="round"/>
<path d="M163.316 70.5C158.816 70.5 150.716 71.2 145.416 76.9C142.116 80.5 141.216 84.6 140.716 86.6C133.216 116.9 129.416 132.1 128.616 145.5C127.916 157.2 128.116 165.9 128.316 174.1C128.816 192.2 130.516 207.2 132.016 218.1C132.316 218.4 133.616 219.7 135.616 219.9C138.216 220.1 140.016 218.3 140.216 218.1C140.516 209.8 140.916 201.5 141.216 193.2C144.516 193.8 149.416 194.5 155.416 195C171.016 196.3 182.416 197.4 195.116 193.9C200.216 192.5 207.916 189.6 216.616 183.4C216.116 171.9 215.716 160.3 215.216 148.8C216.816 140.6 217.316 133.7 217.416 128.9C217.416 128.9 218.316 102 206.716 80C204.816 76.5 202.316 72.4 197.516 70.6C193.116 68.9 188.816 69.9 186.516 70.6C183.816 77.2 181.116 83.9 178.316 90.5C177.516 88 176.216 85 174.216 81.8C170.716 76.2 166.316 72.6 163.316 70.5Z" fill="#111111"/>
<path d="M145.316 235.5C147.516 253 149.716 270.6 151.916 288.1C155.216 314.1 158.416 340.1 161.516 366" stroke="#111111" stroke-width="0.75" stroke-miterlimit="10" stroke-linecap="round" stroke-linejoin="round"/>
<path d="M139.316 189C140.916 201.7 142.616 214.3 144.216 227" stroke="#111111" stroke-width="0.75" stroke-miterlimit="10" stroke-linecap="round" stroke-linejoin="round"/>
<path d="M201.516 315.9C199.016 299.4 196.116 282.5 192.916 265.2C189.516 247 185.916 229.4 182.116 212.4C179.916 230.3 178.316 249.6 177.416 270.1C176.316 296.9 176.716 321.8 178.116 344.6" stroke="#111111" stroke-width="0.75" stroke-miterlimit="10" stroke-linecap="round" stroke-linejoin="round"/>
<path d="M214.117 181.1C215.417 190.2 216.517 199.5 217.417 209.1C220.817 244 221.317 276.7 219.917 306.6" stroke="#111111" stroke-width="0.75" stroke-miterlimit="10" stroke-linecap="round" stroke-linejoin="round"/>
<path d="M190.117 191.5C199.217 197.4 208.317 203.3 217.417 209.1" stroke="#111111" stroke-width="0.75" stroke-miterlimit="10" stroke-linecap="round" stroke-linejoin="round"/>
<path d="M144.017 209.9C149.317 203.1 154.617 196.2 159.917 189.4" stroke="#111111" stroke-width="0.75" stroke-miterlimit="10" stroke-linecap="round" stroke-linejoin="round"/>
<path d="M545.117 134.8C545.717 134.2 546.417 133.6 547.117 132.9C547.817 132.2 548.517 131.5 549.017 130.8C550.417 130.6 551.417 130.1 552.117 129.7C555.517 127.3 556.217 121.1 553.817 114.3" stroke="#111111" stroke-width="0.75" stroke-miterlimit="10" stroke-linecap="round" stroke-linejoin="round"/>
<path d="M509.417 97.7C508.617 110.3 510.417 120.2 512.117 126.5C512.117 126.5 515.917 141 522.617 144.2C524.717 145.2 526.817 145.4 526.817 145.4C526.817 145.4 529.417 145.4 532.317 144.5C534.317 143.9 541.417 139.2 549.117 130.7" stroke="#111111" stroke-width="0.75" stroke-miterlimit="10" stroke-linecap="round" stroke-linejoin="round"/>
<path d="M561.816 156.5C559.716 155.2 554.216 151.3 551.116 143.9C548.816 138.3 548.916 133.3 549.216 130.8" stroke="#111111" stroke-width="0.75" stroke-miterlimit="10" stroke-linecap="round" stroke-linejoin="round"/>
<path d="M528.417 155.8C529.117 154.9 530.717 152.5 530.917 149.2C531.017 147.7 530.717 146.5 530.417 145.6" stroke="#111111" stroke-width="0.75" stroke-miterlimit="10" stroke-linecap="round" stroke-linejoin="round"/>
<path d="M622.817 198.6C621.017 205.6 619.717 215 621.317 225.3C621.317 225.3 623.117 237.2 628.017 242.2C630.217 244.5 633.217 246.5 633.217 246.5C634.417 247.3 635.717 248.2 636.617 248.5C641.617 250.3 649.417 240.7 650.317 239.5" stroke="#111111" stroke-width="0.75" stroke-miterlimit="10" stroke-linecap="round" stroke-linejoin="round"/>
<path d="M643.517 264.3C644.517 262.5 646.617 258 645.817 252.4C645.517 250 644.717 248.1 644.017 246.7" stroke="#111111" stroke-width="0.75" stroke-miterlimit="10" stroke-linecap="round" stroke-linejoin="round"/>
<path d="M661.617 230.2C661.717 233.7 662.217 238 663.417 242.9C664.517 247.5 666.017 251.4 667.517 254.6" stroke="#111111" stroke-width="0.75" stroke-miterlimit="10" stroke-linecap="round" stroke-linejoin="round"/>
<path d="M523.816 114.1C525.516 121.2 524.416 124 523.016 125.3C522.116 126.1 520.316 126.8 520.316 128C520.316 128.9 521.216 129.5 521.916 130" stroke="#111111" stroke-width="0.75" stroke-miterlimit="10" stroke-linecap="round" stroke-linejoin="round"/>
<path d="M527.316 110.7C527.916 110.1 529.616 108.4 532.416 107.9C536.316 107.2 539.216 109.4 539.716 109.8" stroke="#111111" stroke-width="0.75" stroke-miterlimit="10" stroke-linecap="round" stroke-linejoin="round"/>
<path d="M520.316 110.9C520.116 110.7 519.017 109.6 517.017 109.3C514.917 109.1 513.616 110 513.316 110.2C512.316 110.9 512.017 111.7 511.917 112" stroke="#111111" stroke-width="0.75" stroke-miterlimit="10" stroke-linecap="round" stroke-linejoin="round"/>
<path d="M518.017 115.7C517.217 115.1 515.917 115.1 515.217 115.7C514.217 116.6 514.917 118.5 515.217 119.4C515.617 120.4 516.517 122.4 517.417 122.3C518.417 122.1 518.617 119.4 518.617 118.3C518.617 117.1 518.617 116.2 518.017 115.7Z" fill="#111111"/>
<path d="M533.816 114.6C533.016 114 531.716 114 531.016 114.6C530.016 115.5 530.716 117.4 531.016 118.3C531.416 119.3 532.316 121.3 533.216 121.2C534.216 121 534.416 118.3 534.416 117.2C534.516 116 534.516 115.2 533.816 114.6Z" fill="#111111"/>
<path d="M550.917 128C552.217 127.4 553.316 126.7 553.216 126.2C553.116 125.7 551.717 125.9 551.417 125.2C551.217 124.7 551.617 123.7 553.917 121.9" stroke="#111111" stroke-width="0.75" stroke-miterlimit="10" stroke-linecap="round" stroke-linejoin="round"/>
<path d="M630.617 220.1C632.117 224.5 631.717 227.2 630.417 228.8C629.117 230.4 627.217 230.8 627.217 231.8C627.317 232.9 629.917 233.7 632.217 234.2" stroke="#111111" stroke-width="0.75" stroke-miterlimit="10" stroke-linecap="round" stroke-linejoin="round"/>
<path d="M634.517 215.3C635.117 214.7 637.417 212.9 640.717 212.9C642.517 212.9 643.917 213.4 644.717 213.8" stroke="#111111" stroke-width="0.75" stroke-miterlimit="10" stroke-linecap="round" stroke-linejoin="round"/>
<path d="M628.117 216.8C627.517 216.6 626.417 216.3 625.017 216.5C622.817 216.8 621.417 218.2 621.017 218.7" stroke="#111111" stroke-width="0.75" stroke-miterlimit="10" stroke-linecap="round" stroke-linejoin="round"/>
<path d="M633.917 241.3C634.517 241.4 636.016 241.4 637.516 240.5C640.016 239 640.416 236.3 640.516 235.9" stroke="#111111" stroke-width="0.75" stroke-miterlimit="10" stroke-linecap="round" stroke-linejoin="round"/>
<path d="M638.017 218.9C637.017 219 636.217 224.6 637.717 225.4C638.317 225.7 639.117 225.4 639.517 224.9C641.117 223.3 638.917 218.8 638.017 218.9Z" fill="#111111"/>
<path d="M625.717 222.4C624.717 222.5 623.917 228.1 625.417 228.9C626.017 229.2 626.817 228.9 627.217 228.4C628.817 226.8 626.617 222.3 625.717 222.4Z" fill="#111111"/>
<path d="M75.2168 312.7C80.3168 332.7 80.9168 342.9 80.1168 348.4C80.1168 348.6 80.0168 349.1 79.9168 349.8C79.1168 358 82.1168 364.8 85.1168 369.5" stroke="white" stroke-miterlimit="10"/>
<path d="M655.416 223C656.316 222.4 657.016 221.7 656.916 221.3C656.716 220.7 655.316 220.9 655.016 220.2C654.516 219.1 657.416 216.2 658.616 216.8C659.616 217.3 659.216 219.8 659.116 220.2" stroke="#111111" stroke-width="0.75" stroke-miterlimit="10" stroke-linecap="round" stroke-linejoin="round"/>
<path d="M656.816 224.2C657.416 225.2 657.916 226.1 658.516 227.1" stroke="#111111" stroke-width="0.75" stroke-miterlimit="10" stroke-linecap="round" stroke-linejoin="round"/>
<path d="M657.717 223.1C658.617 223.6 659.617 224.2 660.517 224.7" stroke="#111111" stroke-width="0.75" stroke-miterlimit="10" stroke-linecap="round" stroke-linejoin="round"/>
<path d="M629.517 233.5C629.717 234.2 630.117 235.8 630.517 235.8C630.817 235.8 631.017 234.8 631.117 234" stroke="#111111" stroke-width="0.75" stroke-miterlimit="10" stroke-linecap="round" stroke-linejoin="round"/>
<path d="M563.516 330.5C561.816 331 559.716 331.8 557.516 333.1C556.116 333.9 554.816 334.8 553.816 335.6" stroke="#111111" stroke-width="0.75" stroke-miterlimit="10" stroke-linecap="round" stroke-linejoin="round"/>
<path d="M378.217 82.2C378.117 87.5 378.117 95.3 378.517 104.9C379.517 130.6 381.817 131.2 381.217 144.7C380.417 163.4 375.717 167.3 377.417 183.8C378.217 191.7 380.017 198 381.517 202.2" stroke="white" stroke-miterlimit="10"/>
<path d="M393.117 155.2C394.117 158.5 396.017 163.1 399.617 168C402.617 172 405.717 174.9 408.317 176.9" stroke="white" stroke-miterlimit="10"/>
<path d="M61.9166 361.9C54.5166 362.8 44.1166 363.8 34.0166 364.3C32.2166 364.4 29.5166 364.5 28.6166 362.9C26.9166 360 32.9166 353.5 35.4166 351" stroke="white" stroke-miterlimit="10"/>
<path d="M14.2168 395.4C15.8168 396.4 20.0168 398.6 25.7168 398.3C33.2168 397.9 37.9168 393.3 39.0168 392.2" stroke="white" stroke-miterlimit="10"/>
<path d="M298.117 239.2C300.117 247.1 300.716 253.7 300.916 258.3C301.216 265.2 301.416 270.7 299.916 277.7C298.616 283.7 296.616 288.3 297.316 295.6C297.516 297.9 298.016 299.8 298.316 301" stroke="white" stroke-miterlimit="10"/>
<path d="M341.017 319.9C344.017 321 347.017 322.2 350.117 323.3" stroke="#111111" stroke-width="0.75" stroke-miterlimit="10" stroke-linecap="round" stroke-linejoin="round"/>
<path d="M83.8167 222.6C86.4167 227.4 87.3167 231.4 87.6167 234.2C88.4167 240.7 86.3167 241.8 86.8167 250.6C87.1167 255 87.7167 256.8 87.4167 261.5C87.2167 264.1 86.9167 266 86.3167 269.1C85.4167 273.8 84.6167 275.9 83.5167 277.7C82.7167 279.1 82.3167 279.7 81.6167 280.3C79.0167 282.2 75.2167 280.9 71.4167 279.5C68.7167 278.5 64.8167 276.8 60.6167 273.7" stroke="#111111" stroke-width="0.75" stroke-miterlimit="10" stroke-linecap="round" stroke-linejoin="round"/>
<path d="M78.7164 251.3C78.5164 252.3 78.4164 253.9 79.0164 255.7C79.3164 256.6 79.6164 257.4 80.3164 258.2C81.5164 259.5 82.7164 259.3 82.9164 260.1C83.1164 260.9 81.8164 261.9 80.9164 262.3C79.5164 262.9 78.2164 262.7 77.8164 262.5" stroke="#111111" stroke-width="0.75" stroke-miterlimit="10" stroke-linecap="round" stroke-linejoin="round"/>
<path d="M81.3165 270.7C80.4165 271 79.0165 271.4 77.3165 270.9C76.1165 270.5 75.1165 269.9 74.4165 269.3" stroke="#111111" stroke-width="0.75" stroke-miterlimit="10" stroke-linecap="round" stroke-linejoin="round"/>
<path d="M54.3166 248.3C53.9166 248.2 49.7167 247.5 48.4167 249.4C47.1167 251.3 48.5166 255.6 53.3166 259" stroke="#111111" stroke-width="0.75" stroke-miterlimit="10" stroke-linecap="round" stroke-linejoin="round"/>
<path d="M54.3164 248.3C57.7164 247.9 61.0164 247.5 64.4164 247.1V258.5L76.6164 256C76.6164 252.9 76.7164 249.8 76.7164 246.6C72.6164 246.8 68.5164 246.9 64.3164 247.1" stroke="#111111" stroke-width="0.75" stroke-miterlimit="10" stroke-linecap="round" stroke-linejoin="round"/>
<path d="M80.3164 246.7L80.4164 254.5C82.6164 254.1 84.8164 253.6 87.0164 253.2C87.0164 251 86.9164 248.8 86.9164 246.7C84.7164 246.7 82.5164 246.7 80.3164 246.7Z" stroke="#111111" stroke-width="0.75" stroke-miterlimit="10" stroke-linecap="round" stroke-linejoin="round"/>
<path d="M77.0166 249.2H80.3166" stroke="#111111" stroke-width="0.75" stroke-miterlimit="10" stroke-linecap="round" stroke-linejoin="round"/>
<path d="M71.5165 252.8C69.5165 251.5 71.5165 246.7 72.8165 246.6C74.1165 246.5 76.2165 251.4 74.4165 252.8C73.6165 253.4 72.2165 253.3 71.5165 252.8Z" fill="#111111"/>
<path d="M83.1168 251.5C81.5168 250.5 83.1168 246.7 84.1168 246.6C85.1168 246.5 86.7168 250.4 85.3168 251.5C84.7168 251.9 83.7168 251.8 83.1168 251.5Z" fill="#111111"/>
<path d="M53.9165 255.2C53.0165 253.9 53.0165 253.4 53.1165 253.2C53.3165 252.9 53.9165 253 54.1165 252.6C54.4165 252.2 54.1165 251.4 53.7165 251C53.2165 250.4 52.1165 249.8 51.2165 250.4C50.5165 250.9 50.2165 252 50.7165 252.8" stroke="#111111" stroke-width="0.75" stroke-miterlimit="10" stroke-linecap="round" stroke-linejoin="round"/>
<path d="M47.7164 272.7C48.0164 273 48.6164 273 49.8164 273.1C50.4164 273.2 50.8164 273.2 50.8164 273.2C51.6164 273.2 52.2164 273.1 52.2164 273.1C53.1164 273 54.2164 272.8 54.4164 272.1C54.7164 271.1 52.3164 270.4 51.6164 268.1C50.9164 265.9 52.6164 264.9 51.8164 262.9C51.1164 261 49.2164 260.7 49.3164 259.7C49.4164 258.9 50.5164 258.3 51.9164 257.9C51.3164 257.6 49.5164 256.7 48.5164 254.6C48.2164 253.9 47.0164 251.4 48.4164 249.5C49.5164 248 51.7164 247.5 53.2164 248.1C54.3164 248.6 54.7164 249.7 55.4164 249.6C56.1164 249.5 56.4164 248.3 56.5164 247.9C57.1164 245.3 55.7164 243.7 55.5164 241.9C54.8164 236.9 64.0164 231.9 64.4164 231.6C65.6164 231 73.9164 226.7 78.6164 230.1C80.3164 231.3 80.3164 232.6 82.2164 233.1C84.8164 233.9 86.3164 230.7 89.6164 231.2C91.4164 231.4 93.0164 232.5 93.4164 232C93.6164 231.7 93.1164 231.2 93.4164 230.5C93.7164 229.6 94.8164 229.5 94.8164 229.2C94.7164 228.7 91.9164 229 91.8164 228.4C91.7164 228 93.0164 227.5 92.9164 226.9C92.8164 226.2 91.2164 226.3 91.0164 225.5C90.8164 224.6 92.6164 223.8 92.4164 223.1C92.2164 222.4 90.1164 222.8 89.7164 221.9C89.2164 220.9 91.1164 219.5 90.6164 218.7C90.2164 218 88.9164 218.7 87.6164 217.8C86.5164 217.1 86.7164 216.3 85.8164 215.7C84.4164 214.7 83.2164 216 80.2164 215.7C78.6164 215.5 77.4164 215 75.8164 214.3C74.3164 213.6 73.2164 213 71.9164 212.1C70.5164 211.2 70.1164 210.7 68.6164 210.2C64.6164 208.7 60.8164 209.7 56.5164 210.8C51.7164 212 52.0164 213 46.7164 214.3C43.3164 215.1 42.0164 214.9 39.9164 216.1C38.3164 217 36.7164 218.5 34.7164 221.8C31.8164 226.7 27.3164 233.5 29.2164 240.9C29.7164 243 30.6164 244.4 31.7164 247.2C32.7164 250 32.5164 250.6 33.2164 252C34.5164 254.7 35.8164 254.6 38.4164 257.7C42.3164 262.3 40.8164 264 44.2164 266.5C45.7164 267.6 47.5164 268.4 47.8164 270.2C47.6164 271 47.1164 272.1 47.7164 272.7Z" fill="#111111"/>
<path d="M64.1167 243.4C65.2167 242.9 67.0167 242.3 69.3167 242.1C71.5167 242 73.3167 242.3 74.4167 242.6" stroke="#111111" stroke-width="0.75" stroke-miterlimit="10" stroke-linecap="round" stroke-linejoin="round"/>
<path d="M80.1167 242.5C80.9167 242.1 82.0167 241.8 83.2167 241.5C84.9167 241.2 86.4167 241.2 87.5167 241.3" stroke="#111111" stroke-width="0.75" stroke-miterlimit="10" stroke-linecap="round" stroke-linejoin="round"/>
<path d="M159.517 75.8C160.317 73.9 161.117 71.6 161.517 69C163.117 59.7 159.617 52 157.717 48.4" stroke="#111111" stroke-width="0.75" stroke-miterlimit="10" stroke-linecap="round" stroke-linejoin="round"/>
<path d="M189.617 71.4C189.317 71.4 184.917 71.9 182.417 68.8C181.117 67.2 180.917 65.5 180.917 64.7" stroke="#111111" stroke-width="0.75" stroke-miterlimit="10" stroke-linecap="round" stroke-linejoin="round"/>
<path d="M191.017 13.5C193.017 17.8 194.017 21.3 194.617 23.7C195.517 27.5 195.417 29 194.917 30.3C194.517 31.4 194.117 31.8 193.917 33.1C193.617 35 194.017 36.5 194.417 37.9C194.417 37.9 195.217 40.9 195.617 44.8C196.017 49 195.117 52.4 194.517 54.5C193.417 58.3 191.917 60.7 191.117 61.8C190.217 63.1 189.717 63.8 188.917 64.3C186.317 65.9 182.817 64.8 179.317 63.6C176.817 62.8 173.117 61.3 169.117 58.5" stroke="#111111" stroke-width="0.75" stroke-miterlimit="10" stroke-linecap="round" stroke-linejoin="round"/>
<path d="M185.617 34.8C185.517 35.2 184.817 39.9001 186.517 42.7001C187.217 43.9001 187.817 44.5 187.817 44.5C189.117 45.8 190.117 45.9 190.217 46.6C190.317 47.5 189.017 48.2 188.317 48.5C187.317 49.1 186.317 49.2001 185.717 49.2001" stroke="#111111" stroke-width="0.75" stroke-miterlimit="10" stroke-linecap="round" stroke-linejoin="round"/>
<path d="M177.516 42.4C175.516 40.8 177.216 35.5 178.416 35.5C179.716 35.5 181.916 41.1 180.216 42.5C179.516 43.1 178.216 43 177.516 42.4Z" fill="#111111"/>
<path d="M189.216 40.9C187.616 39.7 189.016 35.5 189.916 35.5C190.916 35.5 192.617 39.9 191.317 41C190.817 41.4 189.816 41.3 189.216 40.9Z" fill="#111111"/>
<path d="M162.717 42.2C161.817 41.1 161.817 40.6 162.017 40.4C162.217 40.1 162.717 40.3 163.017 39.9C163.317 39.5 163.017 38.8 162.617 38.5C162.117 38 161.117 37.5 160.217 38C159.517 38.4 159.317 39.4 159.817 40.1" stroke="#111111" stroke-width="0.75" stroke-miterlimit="10" stroke-linecap="round" stroke-linejoin="round"/>
<path d="M159.117 47.1C159.217 46.6 159.617 46.1 160.117 45.9C160.817 45.6 161.317 46.2 162.117 46C162.517 45.9 163.117 45.6 163.717 44.7C163.117 44.6 161.017 44.2 159.617 42.3C159.217 41.8 157.817 40 158.317 38C158.417 37.7 158.717 36.3 160.017 35.7C161.517 35 163.117 35.9 163.217 36C163.917 36.8 164.817 37.9 165.117 39.4C165.317 40.6 165.117 41.4 165.517 41.6C166.017 41.8 167.217 40.7 167.317 39.5C167.317 38.4 166.417 38 166.617 37C166.717 36.3 167.317 36.3 167.417 35.6C167.517 34.9 167.017 34.2 166.417 33.3C165.717 32.4 165.617 32.5 165.417 32C164.917 30.8 165.617 29.4 165.917 28.8C166.317 28 166.417 28.1 167.317 26.9C168.517 25.2 168.417 24.7 169.117 24.4C170.117 23.9 170.817 24.7 171.517 24.2C172.517 23.5 171.517 21.5 172.517 20.6C173.417 19.8 174.717 20.6 175.317 19.9C175.817 19.2 174.917 18.5 175.317 17.5C175.817 16.4 177.117 16.8 178.717 15.4C179.717 14.5 179.817 13.9 180.317 13.9C181.317 13.9 181.317 16.2 182.917 16.9C184.217 17.4 184.917 16.3 186.717 16.8C187.817 17.1 187.917 17.6 189.017 17.8C189.717 17.9 190.317 17.7 191.617 17.4C193.317 16.9 194.117 16.7 194.217 16.2C194.317 15.7 193.317 15.3 192.217 14.3C190.217 12.5 190.917 11.1 189.217 9C188.317 8 188.317 8.5 185.517 6.4C183.317 4.8 183.217 4.3 181.117 2.8C179.517 1.6 178.717 1.1 177.517 0.6C175.717 0 174.217 0 172.017 0C171.117 0 169.517 0.2 166.517 0.5C163.117 0.9 161.417 1 160.717 1.3C158.317 2.2 158.717 3 155.917 4.2C153.217 5.4 152.317 4.8 150.817 6.1C149.617 7.1 150.017 7.6 148.417 9.4C147.017 11 146.517 10.8 145.217 12.3C144.417 13.2 143.017 14.8 142.817 17C142.717 18.1 143.017 18 143.117 19.7C143.217 22.1 142.517 22.6 142.617 24.7C142.617 26 142.817 25.5 143.417 28.9C144.017 32.2 143.817 31.9 144.017 32.6C144.617 34.4 145.117 34 146.017 36.3C146.317 37.1 146.617 38 147.417 38.9C147.817 39.5 148.317 39.9 148.417 39.9C149.517 40.9 150.017 40.7 150.617 41.4C151.317 42.2 150.917 42.7 151.617 43.4C152.417 44.2 153.017 43.7 153.917 44.3C155.217 45.3 154.417 47.1 155.717 48C156.117 48.3 156.517 48.3 156.917 48.9C157.317 49.4 157.217 49.8 157.517 49.9C157.917 50.1 158.217 49.6 159.017 49.5C159.817 49.4 160.417 49.9 160.517 49.8C160.817 49.6 158.917 48.4 159.117 47.1Z" fill="#111111"/>
<path d="M172.316 31.9C173.316 31.5 175.016 30.9 177.216 30.8C179.316 30.7 180.916 31 182.016 31.3" stroke="#111111" stroke-width="0.75" stroke-miterlimit="10" stroke-linecap="round" stroke-linejoin="round"/>
<path d="M187.517 31.1C188.317 30.8 189.317 30.4 190.517 30.2C192.117 29.9 193.517 29.9 194.517 30" stroke="#111111" stroke-width="0.75" stroke-miterlimit="10" stroke-linecap="round" stroke-linejoin="round"/>
<path d="M522.117 137.2C522.917 137.2 523.917 137.2 524.917 136.9C526.617 136.6 528.017 136 529.017 135.5" stroke="#111111" stroke-width="0.75" stroke-miterlimit="10" stroke-linecap="round" stroke-linejoin="round"/>
<path d="M271.717 303.5C274.117 303.2 277.017 302.9 280.217 303C287.317 303.2 289.917 304 290.917 304.5C293.217 305.5 294.617 306.7 295.017 307.1C296.417 308.3 297.217 309.6 297.817 310.5L297.217 311.7C297.317 311.9 297.317 312.1 297.417 312.4C300.117 321.3 299.017 329.4 298.517 329.4C298.117 329.4 298.417 324.8 295.917 317.6C294.817 314.3 293.817 312.4 293.717 312.4C293.617 312.4 296.517 317.2 296.417 323.3C296.417 328.6 294.217 332.9 293.717 332.8C293.317 332.7 294.417 329 293.917 323.2C293.417 317.5 291.417 313.2 291.317 313.2C291.317 313.2 292.017 315.6 292.617 318.6C294.017 325.1 290.617 331.4 290.017 331.3C289.517 331.2 290.817 327.1 289.917 320.4C289.417 316.6 288.417 313.8 288.417 313.8C288.317 313.8 289.217 316.1 289.017 319.2C288.917 322.5 287.717 325.4 287.317 325.3C287.017 325.2 287.217 323.5 286.917 320.7C286.517 317.5 285.617 314.9 285.217 314C282.617 308.2 270.517 308 269.517 308C270.317 306.6 271.017 305 271.717 303.5Z" stroke="#111111" stroke-width="0.75" stroke-miterlimit="10" stroke-linecap="round" stroke-linejoin="round"/>
<path d="M299.117 326.8C300.417 330.4 301.017 331.2 301.317 331.2C301.817 331.1 300.617 327.1 301.117 321.6C301.617 315.9 303.617 311.6 303.717 311.6C303.717 311.6 303.017 314 302.417 317C301.017 323.5 304.417 329.8 305.017 329.7C305.517 329.6 304.217 325.5 305.117 318.8C305.617 315 306.617 312.2 306.617 312.2C306.717 312.2 305.817 314.5 306.017 317.6C306.117 320.9 307.317 323.8 307.717 323.7C308.017 323.6 307.817 321.9 308.117 319.1C308.517 315.9 309.417 313.3 309.817 312.4C312.417 306.6 324.517 306.4 325.517 306.4" stroke="#111111" stroke-width="0.75" stroke-miterlimit="10" stroke-linecap="round" stroke-linejoin="round"/>
<path d="M298.417 316.3C300.217 312.6 301.216 310.8 301.316 310.9C301.516 311 300.617 313.4 298.717 318.1" stroke="#111111" stroke-width="0.75" stroke-miterlimit="10" stroke-linecap="round" stroke-linejoin="round"/>
<path d="M323.316 301.9C321.716 301.5 319.316 301.2 316.416 301.2C313.516 301.2 308.316 301.3 303.016 304.5C301.616 305.3 299.516 306.8 297.416 309.2C297.616 309.5 297.816 309.7 298.116 310C298.016 310.2 297.816 310.5 297.716 310.8C297.616 311.1 297.416 311.4 297.316 311.7" stroke="#111111" stroke-width="0.75" stroke-miterlimit="10" stroke-linecap="round" stroke-linejoin="round"/>
<path d="M63.0166 366.6C62.9166 367.1 63.2166 367.6 68.3166 371.8C72.0166 374.9 74.0166 376.3 76.7166 378.5C82.2166 382.9 83.6166 384.3 83.8166 384.1C84.2166 383.7 81.9166 379.9 78.7166 377C76.8166 375.3 75.2166 374.4 75.3166 374.4C75.3166 374.4 79.4166 376.3 82.8166 380.3C85.9166 383.9 86.8166 387.3 87.3166 387.1C87.7166 387 87.3166 384.2 86.2166 381.5C83.8166 375.8 79.1166 372.8 79.1166 372.8C79.1166 372.8 83.3166 375.2 87.0166 380.5C90.3166 385.2 91.1166 389.4 91.5166 389.2C91.9166 389.1 91.5166 385.1 89.8166 381C87.3166 374.9 83.0166 371.3 83.1166 371.3C83.1166 371.3 85.7166 373.7 89.1166 378.2C93.0166 383.2 94.2166 386 94.5166 385.8C94.9166 385.6 92.6166 377.7 86.5166 370.9C84.2166 368.3 82.3166 366.2 79.1166 364.8C72.1166 361.9 63.4166 364.1 63.0166 366.6Z" stroke="#111111" stroke-width="0.75" stroke-miterlimit="10" stroke-linecap="round" stroke-linejoin="round"/>
<path d="M573.417 262.2C569.417 268.2 565.417 274.3 561.417 280.3C561.017 278.2 560.717 275.1 561.117 271.6C562.017 265.2 565.017 260.7 566.717 258.6" stroke="#111111" stroke-width="0.75" stroke-miterlimit="10" stroke-linecap="round" stroke-linejoin="round"/>
<path d="M441.417 288.8C443.017 291.7 444.617 294.6 446.217 297.4" stroke="#111111" stroke-width="0.75" stroke-miterlimit="10" stroke-linecap="round" stroke-linejoin="round"/>
<path d="M446.116 297.4C443.316 297.8 440.516 298.1 437.816 298.5" stroke="#111111" stroke-width="0.75" stroke-miterlimit="10" stroke-linecap="round" stroke-linejoin="round"/>
<path d="M253.717 325.4C252.817 324.8 251.817 324.2 250.917 323.6" stroke="#111111" stroke-width="0.75" stroke-miterlimit="10" stroke-linecap="round" stroke-linejoin="round"/>
<path d="M341.017 319.9C342.417 319 343.817 318.1 345.217 317.2" stroke="#111111" stroke-width="0.75" stroke-miterlimit="10" stroke-linecap="round" stroke-linejoin="round"/>
<path d="M205.317 379C205.117 378.9 205.417 377.1 205.917 374.7C206.617 371.4 207.317 368.3 207.417 368.3C207.417 368.3 206.717 371.7 205.917 374.7C205.117 377.8 204.117 381.8 203.717 381.8C203.417 381.7 203.717 378.1 204.117 375.4C204.717 371.3 205.717 368 205.717 368C205.817 368 205.017 371.8 204.117 375.4C203.417 378.3 201.717 384.2 201.317 384.1C200.817 384 202.017 376.4 202.217 375.3C202.817 371.8 203.517 368.2 203.517 368.3C203.517 368.3 203.117 371.6 202.217 375.3C201.517 378.3 200.217 382.7 199.817 382.6C199.217 382.5 200.117 374.5 200.717 369.6C200.717 369.6 201.117 364.7 200.917 364.7C200.817 364.7 200.717 366.7 199.617 369C199.517 369.2 198.417 371.6 197.917 371.4C197.317 371.2 198.117 367.4 198.817 362.5C199.417 358.1 199.717 354.3 199.817 351.8C200.917 351 202.117 350.2 203.217 349.4C204.317 350.6 205.917 352.6 207.117 355.4C208.917 359.6 209.017 363.2 209.017 365.3C209.017 366.5 209.017 369.6 207.917 373.4C207.017 376.1 205.617 379.1 205.317 379Z" stroke="#111111" stroke-width="0.75" stroke-miterlimit="10" stroke-linecap="round" stroke-linejoin="round"/>
<path d="M599.416 345.6C591.716 349.7 587.716 352.9 585.416 355.1C585.116 355.4 584.116 356.4 582.716 357.7C579.816 360.4 577.316 362.5 575.816 363.8C577.716 363.2 579.516 362.5 581.416 361.9C581.216 363.4 581.016 365.6 581.216 368.3C581.516 372.9 582.716 376.9 583.116 376.9C583.416 376.9 583.016 374.4 583.316 368.9C583.416 366.8 583.516 364.5 583.716 364.5C583.816 364.5 583.716 367 583.916 369.9C584.316 375.7 585.616 380.3 585.816 380.2C586.016 380.2 585.216 376.2 585.616 370.2C585.816 367.5 586.216 364.9 586.416 364.9C586.616 364.9 586.416 367 586.716 370C587.016 374.3 587.916 378.3 588.316 378.3C588.616 378.3 588.216 375.4 588.516 370.5C588.816 366.2 589.416 362.7 589.616 362.7C589.716 362.7 589.416 365 589.816 368.5C590.016 371.2 590.616 374 590.916 374C591.216 374 591.016 371.5 591.316 367.9C591.616 364.6 592.216 361.8 592.616 360.6C593.116 358.9 594.916 353.9 602.716 349.2C601.416 348 600.416 346.8 599.416 345.6Z" stroke="#111111" stroke-width="0.75" stroke-miterlimit="10" stroke-linecap="round" stroke-linejoin="round"/>
<path d="M370.417 155.7C369.717 158.8 368.417 163.2 365.417 167.9C363.217 171.4 360.717 174.1 358.717 176" stroke="white" stroke-miterlimit="10"/>
<path d="M370.017 81.9C371.817 82.6 374.217 83.3 377.217 83.6C382.617 84.1 387.017 82.7 389.317 81.8" stroke="#111111" stroke-width="0.75" stroke-miterlimit="10" stroke-linecap="round" stroke-linejoin="round"/>
<path d="M378.517 88.4001C379.217 87.9001 384.117 92.6001 383.517 93.4001C383.317 93.8001 382.117 93.4001 381.917 93.3001C379.017 92.4001 378.017 88.8001 378.517 88.4001Z" stroke="white" stroke-miterlimit="10"/>
<path d="M291.517 238.4C293.617 239 296.517 239.6 299.917 239.6C303.617 239.6 306.717 239 308.817 238.3" stroke="#111111" stroke-width="0.75" stroke-miterlimit="10" stroke-linecap="round" stroke-linejoin="round"/>
<path d="M300.917 257.4C301.217 257.2 303.017 258.5 303.517 260.4C303.617 261.1 303.717 262.2 303.417 262.3C302.717 262.5 300.417 257.8 300.917 257.4Z" stroke="white" stroke-miterlimit="10"/>
<path d="M527.316 157.9C529.816 158.3 532.716 158.6 535.716 158.7C542.216 158.9 547.716 158.1 552.216 157" stroke="#111111" stroke-width="0.75" stroke-miterlimit="10" stroke-linecap="round" stroke-linejoin="round"/>
<path d="M536.617 181C537.017 183.4 537.817 187 539.017 191.4C540.217 195.6 541.117 198.2 541.617 199.6C543.717 206.1 545.817 217.1 542.617 227.3C540.617 233.7 537.517 237 537.917 244.2C538.117 248.2 539.217 251.4 540.217 253.5" stroke="white" stroke-width="0.75" stroke-miterlimit="10" stroke-linecap="round" stroke-linejoin="round"/>
<path d="M529.717 250.1C530.717 246.6 531.817 243 532.917 239.5C534.217 235.4 535.517 231.3 536.817 227.2" stroke="white" stroke-width="0.75" stroke-miterlimit="10" stroke-linecap="round" stroke-linejoin="round"/>
<path d="M537.917 186.9C534.117 193.5 533.617 195.2 534.017 195.4C534.417 195.7 535.617 194.5 536.117 194C538.617 191.3 538.017 187.5 537.917 186.9Z" stroke="white" stroke-width="0.75" stroke-miterlimit="10" stroke-linecap="round" stroke-linejoin="round"/>
<path d="M133.417 211.8C135.217 211.1 139.717 218.1 142.317 223.1C145.717 229.5 148.217 237 147.317 237.5C146.917 237.7 145.717 236.5 141.917 230.4C140.917 233.7 139.517 238.4 137.217 243.9C137.017 244.4 134.117 251.6 133.617 251.4C133.317 251.3 134.017 248.9 135.317 242.7C135.817 240.2 136.217 238.2 136.517 236.8C135.917 238.1 134.917 239.8 133.717 241.9C131.017 246.6 127.117 252.7 126.617 252.4C126.017 252.1 130.617 242.2 130.917 241.7C132.617 238 134.017 235.6 133.717 235.4C133.517 235.3 132.117 237.2 129.817 240C126.717 243.6 123.117 247 122.817 246.7C122.317 246.3 128.317 238.3 128.917 237.6C130.717 235.2 132.217 233.3 132.017 233.1C131.817 232.9 130.817 234 128.417 235.8C127.117 236.8 123.717 239.4 123.417 239.1C123.317 239 123.417 238.7 126.617 235C128.417 232.8 128.517 232.7 128.917 232.2C130.717 229.8 131.517 227.4 131.917 226.1C134.217 218.8 131.817 212.5 133.417 211.8Z" stroke="#111111" stroke-width="0.75" stroke-miterlimit="10" stroke-linecap="round" stroke-linejoin="round"/>
<path d="M342.516 209.7C343.516 209.4 344.916 210.8 346.316 212.3C346.716 212.7 347.017 213.1 347.217 213.4C347.817 214.3 348.916 215.8 349.916 217.8C351.516 221.3 352.516 226 352.016 226.2C351.616 226.3 350.017 223.7 349.117 221.3C348.717 220.2 348.616 219.8 348.416 219.8C347.716 219.8 347.416 226.8 347.516 232.9C347.616 238.3 348.017 241.1 347.617 241.2C347.217 241.3 345.916 237.6 345.416 233.6C344.916 229.1 345.516 225.7 345.416 225.7C345.316 225.7 344.616 228.5 344.516 232.1C344.216 239.3 346.316 244 345.816 244.1C345.416 244.2 342.417 239.4 342.217 233.1C342.117 229.1 343.016 225.9 342.916 225.9C342.816 225.9 341.917 228.5 341.717 231.9C341.317 237.8 343.216 241.9 342.916 242C342.616 242.1 339.916 237.3 340.016 231.1C340.116 228 340.817 225.1 340.717 225.1C340.617 225.1 340.116 226.8 339.816 228.7C339.016 232.8 339.016 235.6 338.916 235.6C338.816 235.6 338.316 232.8 338.516 228.8C338.816 224.5 339.616 224.1 340.416 219C341.416 212.8 341.116 210.1 342.516 209.7Z" stroke="#111111" stroke-width="0.75" stroke-miterlimit="10" stroke-linecap="round" stroke-linejoin="round"/>
<path d="M488.417 288.4C488.017 288.8 487.717 289.1 487.317 289.5C487.017 289.8 482.617 293.9 482.317 293.6C482.117 293.4 483.417 292 486.317 288.1C487.517 286.5 488.417 285.2 489.017 284.4C488.117 285.1 486.917 286 485.417 287.1C482.017 289.5 477.317 292.5 477.017 292.2C476.717 291.8 483.117 286.4 483.417 286.1C485.817 284.1 487.517 282.8 487.417 282.6C487.317 282.4 485.717 283.4 483.217 284.5C479.917 286 476.317 287.2 476.117 286.9C475.917 286.5 482.717 282.8 483.217 282.5C485.217 281.4 486.917 280.6 486.817 280.4C486.717 280.2 485.717 280.6 483.417 281.1C482.217 281.4 478.917 282.1 478.817 281.8C478.817 281.7 478.917 281.6 482.317 279.9C484.317 279 484.417 278.9 484.817 278.7C486.817 277.6 488.117 276.2 488.917 275.4C492.817 271.1 493.217 265.9 494.517 266C496.017 266.1 496.917 272.4 497.117 276.8C497.217 277.8 497.217 278.9 497.217 279.9" stroke="#111111" stroke-width="0.75" stroke-miterlimit="10" stroke-linecap="round" stroke-linejoin="round"/>
<path d="M506.917 276.6C492.717 281.3 485.717 283.9 485.917 284.3C486.017 284.5 488.217 284.1 492.617 283C491.617 284 490.417 285.3 489.317 287.1C485.117 293.9 486.017 301.2 486.517 301.3C487.017 301.4 487.317 296.3 491.017 289C491.717 287.6 492.817 285.3 493.117 285.4C493.417 285.5 492.017 288.9 491.517 292.9C490.717 299.8 493.417 305.3 493.717 305.3C494.017 305.3 492.617 300.8 493.517 294.2C494.117 290 495.317 287 495.417 287.1C495.517 287.1 494.117 290.5 494.417 295C494.717 299.2 496.517 302.5 496.817 302.5C497.117 302.4 496.117 299.5 496.217 294.7C496.217 291.1 496.817 288.8 496.817 288.8C496.817 288.8 495.917 292 496.817 295.9C497.317 297.9 498.117 299.9 498.417 299.9C498.617 299.9 498.417 298.4 498.317 296.6C498.217 294.8 498.417 292.4 499.217 289.5C502.517 286.1 505.817 282.7 509.117 279.4" stroke="#111111" stroke-width="0.75" stroke-miterlimit="10" stroke-linecap="round" stroke-linejoin="round"/>
<path d="M467.717 471.5C467.417 472.8 466.917 474.6 465.617 476.2C461.817 480.8 456.117 478.8 447.917 481C440.417 483 438.817 486.4 433.917 488.9C433.417 489.2 431.517 490.1 429.017 490.8C426.817 491.4 422.917 492.1 417.817 491.2C417.617 491 417.417 490.8 417.117 490.5C416.417 489.9 416.117 489.8 415.917 489.5C415.617 489.1 415.417 488.4 415.817 486.9C416.917 485.5 418.217 484 419.617 482.5C423.917 478 428.317 474.5 432.217 471.9C432.317 471.8 432.517 471.5 432.717 471.2C432.917 470.8 432.917 470.4 432.917 470.2V470.1C432.917 469.4 438.517 464.3 440.417 461.1C441.017 460.1 441.717 458.6 441.917 456.4" stroke="#1D1D1B" stroke-width="0.75" stroke-miterlimit="10" stroke-linecap="round" stroke-linejoin="round"/>
<path d="M442.017 456.5C442.517 456.3 443.117 456 443.317 455.4C443.517 454.8 443.217 454.3 443.517 454.1C443.817 453.9 444.417 454.6 445.217 455C447.117 456 448.917 455.1 449.017 455.7C449.217 456.8 446.117 457.4 446.117 458.8C446.117 461.5 459.017 463.9 461.717 461.1C461.917 460.9 463.617 459.1 463.617 459.1C464.017 459.1 464.517 459.1 465.217 459.3C465.417 459.3 466.517 459.6 467.017 460.1C467.817 460.8 467.417 463.7 467.317 465.8C467.217 467.2 467.317 469.1 467.817 471.5" stroke="#1D1D1B" stroke-width="0.75" stroke-miterlimit="10" stroke-linecap="round" stroke-linejoin="round"/>
<path d="M447.217 457.5C443.317 460.8 440.917 464 439.417 466.4C438.017 468.6 436.417 471.8 434.417 471.7C433.717 471.7 433.217 471.3 432.917 471" stroke="#1D1D1B" stroke-width="0.75" stroke-miterlimit="10" stroke-linecap="round" stroke-linejoin="round"/>
<path d="M417.816 491.2C418.516 491.5 419.616 491.8 420.916 492.1C421.416 492.2 423.016 492.4 426.216 492.1C428.116 491.9 431.716 491.5 434.816 489.9C436.316 489.2 437.716 488.1 437.716 488.1C438.316 487.7 438.816 487.3 439.416 486.8C440.716 485.7 441.416 484.9 442.516 484.1C442.516 484.1 443.216 483.6 444.316 483.1C446.916 481.9 450.116 481.6 452.516 481.4C459.416 480.9 460.116 480.9 461.716 480.3C463.216 479.7 464.916 479.1 466.216 477.3C467.916 475 467.816 472.4 467.716 471.5" stroke="#1D1D1B" stroke-width="0.75" stroke-miterlimit="10" stroke-linecap="round" stroke-linejoin="round"/>
<path d="M464.817 462C464.717 463.2 464.717 464.8 465.117 466.6C465.617 469.2 466.717 471.1 467.517 472.3" stroke="#1D1D1B" stroke-width="0.75" stroke-miterlimit="10" stroke-linecap="round" stroke-linejoin="round"/>
<path d="M453.916 472.9C452.616 470.7 453.216 468.2 454.816 467.2C456.316 466.2 458.316 467.1 458.416 467.1C459.316 466.9 460.316 466.6 461.216 466.4" stroke="#1D1D1B" stroke-width="0.75" stroke-miterlimit="10" stroke-linecap="round" stroke-linejoin="round"/>
<path d="M464.917 415.3C464.417 416.8 463.417 419 461.717 421.3C460.417 423 459.217 424.2 458.917 424.5C457.517 425.8 455.017 427.7 451.017 429C450.217 428.8 449.217 428.3 448.517 427.3C446.217 423.9 451.317 418.2 454.317 410.2C455.617 406.8 457.017 401.6 457.217 394.8" stroke="#1D1D1B" stroke-width="0.75" stroke-miterlimit="10" stroke-linecap="round" stroke-linejoin="round"/>
<path d="M471.117 384.6C471.517 384.8 472.217 385.2 472.817 385.8C473.517 386.5 473.817 387.1 474.117 387.6" stroke="#1D1D1B" stroke-width="0.75" stroke-miterlimit="10" stroke-linecap="round" stroke-linejoin="round"/>
<path d="M457.217 394.8C457.417 394.4 457.517 393.8 457.217 393.4C457.017 393 456.617 393 456.217 392.8C455.217 392.3 454.517 391.1 454.717 390.5C455.117 389.6 458.617 389.3 459.517 390.8C460.317 392 458.517 393.5 459.117 394.6C460.017 396.3 465.317 395.8 468.617 393.4C469.417 392.8 471.817 391 471.717 388.8C471.717 388.7 471.717 388.7 471.717 388.5C471.517 386.9 471.317 385.6 471.217 384.5" stroke="#1D1D1B" stroke-width="0.75" stroke-miterlimit="10" stroke-linecap="round" stroke-linejoin="round"/>
<path d="M459.016 393.8C457.816 398.2 457.816 401.3 458.016 403.4C458.116 404.3 458.416 406.1 457.316 407.4C456.616 408.2 455.516 408.5 454.816 408.6" stroke="#1D1D1B" stroke-width="0.75" stroke-miterlimit="10" stroke-linecap="round" stroke-linejoin="round"/>
<path d="M448.917 427.8C449.417 428.3 450.317 429 451.617 429.3C452.117 429.4 453.816 429.7 456.816 427.9C459.816 426.1 461.717 423.3 462.717 421.7C462.817 421.6 462.917 421.4 462.917 421.3" stroke="#1D1D1B" stroke-width="0.75" stroke-miterlimit="10" stroke-linecap="round" stroke-linejoin="round"/>
<path d="M448.217 424.1C448.317 424.4 448.517 424.8 448.917 425.1C450.817 426.4 455.717 423.4 458.517 419.5C460.517 416.7 459.317 416.3 461.417 412.6C462.017 411.5 464.217 408.1 468.217 405.3" stroke="#1D1D1B" stroke-width="0.75" stroke-miterlimit="10" stroke-linecap="round" stroke-linejoin="round"/>
<path d="M453.517 412.6C453.917 412.3 455.617 411.2 457.017 411.7C458.817 412.4 460.017 415.6 458.617 419.2" stroke="#1D1D1B" stroke-width="0.75" stroke-miterlimit="10" stroke-linecap="round" stroke-linejoin="round"/>
<path d="M45.6167 292.2C48.7167 293.6 57.5167 296.9 67.9167 294.2C72.9167 292.9 76.6167 290.7 79.0167 288.9" stroke="#111111" stroke-width="0.75" stroke-miterlimit="10" stroke-linecap="round" stroke-linejoin="round"/>
<path d="M97.4165 372.3C98.8165 374.2 101.417 377.1 105.517 379.4C108.717 381.2 111.616 382.1 113.716 382.5" stroke="white" stroke-miterlimit="10"/>
<path d="M79.0166 327.8C80.9166 328.6 82.2166 330.3 82.1166 332.1C82.1166 333 81.7166 334.3 81.2166 334.3C80.8166 334.3 80.1166 333.2 79.0166 327.8Z" stroke="white" stroke-miterlimit="10"/>
<path d="M184.117 55.4C184.717 55.8 185.717 56.4 186.917 56.7C187.817 56.9 188.617 57 189.317 57" stroke="#111111" stroke-width="0.75" stroke-miterlimit="10" stroke-linecap="round" stroke-linejoin="round"/>
<path d="M163.217 73.5C164.817 74.4 170.417 77.4 177.717 76.1C182.517 75.2 185.817 72.8 187.317 71.5" stroke="#111111" stroke-width="0.75" stroke-miterlimit="10" stroke-linecap="round" stroke-linejoin="round"/>
<path d="M178.817 85.4C177.017 93.2 176.617 99.5 176.617 103.9C176.617 114.9 178.917 119.4 179.717 135.6C180.017 142.3 180.217 145.6 179.817 148.3C177.917 160.6 171.117 164.3 172.817 172.6C173.417 175.7 174.417 175.3 177.417 183C179.217 187.7 180.317 191.6 181.017 194.2" stroke="white" stroke-width="0.75" stroke-miterlimit="10" stroke-linecap="round" stroke-linejoin="round"/>
<path d="M208.816 108.4C209.416 120.7 211.316 133.6 214.816 147C215.116 148.3 215.516 149.5 215.816 150.7" stroke="white" stroke-width="0.75" stroke-miterlimit="10" stroke-linecap="round" stroke-linejoin="round"/>
<path d="M188.417 154.4C189.417 157.6 191.517 162.5 195.517 167.3C198.117 170.4 200.817 172.6 203.017 174.1" stroke="white" stroke-width="0.75" stroke-miterlimit="10" stroke-linecap="round" stroke-linejoin="round"/>
<path d="M168.617 148.9C168.417 152.3 167.317 160.7 160.917 168.1C157.917 171.6 154.717 173.9 152.217 175.2" stroke="white" stroke-width="0.75" stroke-miterlimit="10" stroke-linecap="round" stroke-linejoin="round"/>
<path d="M181.016 457.1C180.616 456.8 179.916 456.3 179.816 455.4C179.716 454.5 180.316 453.7 181.616 452.1C182.716 450.7 183.316 450 184.116 449.9C185.016 449.8 185.316 450.6 186.416 451.2C187.016 451.6 187.716 451.8 192.616 451.7C195.816 451.6 196.816 451.5 198.416 451.5C198.516 451.5 199.916 451.6 201.216 451.7C202.016 451.7 202.116 451.8 202.216 451.8C205.516 451.8 208.216 450.4 211.716 448.7C214.416 447.3 216.016 446.2 217.616 446.8C218.316 447.1 218.816 447.6 219.216 448C218.716 447.9 218.116 447.7 217.616 447.6C216.416 448.8 215.216 450 214.016 451.2C214.616 452.2 215.316 453.1 215.916 454.1C214.116 457.2 212.516 459.7 211.216 461.5C207.916 466.2 205.916 468.9 202.316 471.4C199.616 473.3 196.716 474.5 196.016 474.8C192.716 476.1 192.516 475.7 190.116 476.9C185.816 479 184.716 481.4 182.816 480.8C182.016 480.5 181.516 479.8 180.716 478.2C179.116 475.3 179.416 474.1 178.316 471.6C176.716 468 174.016 466.2 174.416 465.7C174.716 465.3 175.816 466.4 177.316 466.1C178.916 465.8 179.816 464.3 180.616 462.9C181.316 461.7 182.116 460.5 181.816 459.1C181.516 458 180.916 457.9 180.916 457.3C181.016 455.5 187.416 454.4 189.216 454.2C191.516 453.8 194.516 453.5 198.316 453.6" stroke="#111111" stroke-width="0.75" stroke-miterlimit="10" stroke-linecap="round" stroke-linejoin="round"/>
<path d="M206.817 454.9C202.117 458.3 199.217 461.7 197.517 464C195.917 466.2 195.217 467.7 195.517 469.4C195.917 471.7 197.917 473.1 198.717 473.5" stroke="#111111" stroke-width="0.75" stroke-miterlimit="10" stroke-linecap="round" stroke-linejoin="round"/>
<path d="M217.416 447.6C217.816 447.6 218.416 447.7 219.016 448C219.016 448 219.316 448.2 219.716 448.5C219.716 448.5 220.516 449.1 221.016 449.9C222.316 451.9 218.816 457.1 218.816 457.1C213.916 464.4 209.416 468.4 209.416 468.4C202.116 474.8 202.116 472.5 197.216 477.5C197.216 477.5 194.416 480.3 186.416 485.3C186.116 485.5 185.216 486.1 184.416 485.7C184.016 485.5 183.716 485.1 183.316 483.8C183.016 483 182.716 482 182.316 480.7" stroke="#111111" stroke-width="0.75" stroke-miterlimit="10" stroke-linecap="round" stroke-linejoin="round"/>
<path d="M195.017 459.9C194.617 460.9 193.717 463.1 194.117 466C194.517 469.4 196.417 471.6 197.117 472.3" stroke="#111111" stroke-width="0.75" stroke-miterlimit="10" stroke-linecap="round" stroke-linejoin="round"/>
<path d="M189.117 461.4C189.317 462.2 189.817 463.6 190.817 465.4C192.417 468.3 194.517 470.8 195.717 472.2" stroke="#111111" stroke-width="0.75" stroke-miterlimit="10" stroke-linecap="round" stroke-linejoin="round"/>
<path d="M184.717 463.9C185.617 465.5 187.117 467.5 189.117 469.3C190.917 470.9 192.717 471.9 194.017 472.5" stroke="#111111" stroke-width="0.75" stroke-miterlimit="10" stroke-linecap="round" stroke-linejoin="round"/>
<path d="M241.217 429.7C241.117 429.2 240.817 428.4 240.117 428C239.317 427.6 238.317 427.9 236.417 428.5C234.717 429.1 233.817 429.4 233.517 430.1C233.117 430.9 233.717 431.5 233.917 432.7C234.017 433.4 234.017 434.1 232.117 438.6C230.917 441.6 230.417 442.5 229.917 443.9C229.917 444 229.517 445.3 229.017 446.6C228.717 447.4 228.717 447.5 228.717 447.5C227.617 450.6 225.317 452.7 222.517 455.3C220.217 457.4 218.717 458.4 218.717 460.2C218.717 461 219.017 461.7 219.317 462.1C219.417 461.5 219.417 461 219.517 460.4C220.217 460.1 220.817 459.9 221.517 459.6C222.417 460.1 223.317 460.6 224.117 461.1C228.517 460.7 232.217 459.9 234.817 459.3C239.117 458.2 243.417 457.1 247.217 454.5C250.017 452.6 252.117 450.4 252.617 449.8C255.017 447.2 254.717 446.8 256.617 445C260.017 441.7 262.717 441.5 262.817 439.6C262.917 438.7 262.317 438.1 261.117 436.7C259.017 434.2 257.717 434.1 255.717 432.1C252.917 429.3 252.217 426.2 251.517 426.4C251.117 426.5 251.717 427.9 250.917 429.3C250.117 430.7 248.317 431 246.717 431.3C244.717 431.7 244.217 431 242.717 431.1C239.517 431.2 237.117 434.2 235.417 436.3C233.117 439.1 232.117 442.2 231.617 444.6" stroke="#111111" stroke-width="0.75" stroke-miterlimit="10" stroke-linecap="round" stroke-linejoin="round"/>
<path d="M230.117 453.1C235.917 451.6 239.917 450.1 242.617 448.9C243.817 448.4 245.617 447.5 247.517 448.2C249.317 448.9 250.117 451 250.517 452" stroke="#111111" stroke-width="0.75" stroke-miterlimit="10" stroke-linecap="round" stroke-linejoin="round"/>
<path d="M219.617 460.4C219.517 460.8 219.417 461.3 219.417 462.1C219.417 462.1 219.417 462.5 219.617 463C220.117 463.5 220.717 464 221.517 464.4C224.217 465.9 226.917 465.4 227.917 465.2C236.517 463.2 241.817 460.4 241.817 460.4C250.417 455.9 248.217 455 254.617 452.2C254.617 452.2 258.217 450.6 265.717 444.9C266.017 444.7 266.816 444 266.816 443.2C266.816 442.7 266.517 442.4 265.517 441.5C264.917 441 264.017 440.3 263.017 439.5" stroke="#111111" stroke-width="0.75" stroke-miterlimit="10" stroke-linecap="round" stroke-linejoin="round"/>
<path d="M239.017 443.8C240.017 443.7 242.517 443.7 245.017 445.1C248.417 446.9 249.717 449.9 250.017 450.8" stroke="#111111" stroke-width="0.75" stroke-miterlimit="10" stroke-linecap="round" stroke-linejoin="round"/>
<path d="M130.317 442.8C129.917 443.8 129.417 444.9 129.017 446.1" stroke="#111111" stroke-width="0.75" stroke-miterlimit="10" stroke-linecap="round" stroke-linejoin="round"/>
<path d="M128.617 441.9C127.917 443.6 127.517 444.4 127.217 445.5C127.217 445.6 126.817 446.9 126.417 448.2C126.217 449 126.117 449.1 126.117 449.1C125.017 452.2 122.717 454.3 119.917 456.9C117.617 459 116.117 460 116.117 461.8C116.117 462.6 116.417 463.3 116.717 463.7C116.817 463.1 116.817 462.6 116.917 462C118.517 461.3 120.017 460.6 121.617 459.9C122.317 460.8 123.017 461.8 123.617 462.7C127.117 462.1 130.117 461.5 132.217 460.9C137.817 459.4 141.017 458.5 144.617 456C146.917 454.4 148.817 452.5 149.617 451.7" stroke="#111111" stroke-width="0.75" stroke-miterlimit="10" stroke-linecap="round" stroke-linejoin="round"/>
<path d="M127.316 454.7C130.116 453.5 134.616 451.7 139.216 450.6C140.316 450.3 141.916 450 143.616 450.5C145.716 451.2 147.016 452.7 147.616 453.6" stroke="#111111" stroke-width="0.75" stroke-miterlimit="10" stroke-linecap="round" stroke-linejoin="round"/>
<path d="M116.817 462.1C116.717 462.5 116.617 463.1 116.617 463.8C116.617 463.8 116.617 464.2 116.817 464.7C116.817 464.7 117.117 465.6 117.617 466.4C119.017 468.3 125.117 466.9 125.117 466.9C133.717 464.8 139.017 462 139.017 462C147.617 457.4 145.417 456.6 151.817 453.8C151.817 453.8 152.117 453.7 152.817 453.3" stroke="#111111" stroke-width="0.75" stroke-miterlimit="10" stroke-linecap="round" stroke-linejoin="round"/>
<path d="M250.816 434C252.916 434.8 254.716 435.3 255.916 435.6C257.616 436.1 258.816 436.3 260.016 437.3C260.816 438 261.216 438.7 261.416 439.3" stroke="#111111" stroke-width="0.75" stroke-miterlimit="10" stroke-linecap="round" stroke-linejoin="round"/>
<path d="M354.016 426.8C353.916 426.3 353.916 425.5 354.516 424.8C355.116 424.1 356.116 424.1 358.116 424C359.916 423.9 360.816 423.9 361.316 424.5C361.916 425.1 361.616 425.9 361.816 427.1C361.916 427.8 362.216 428.5 365.516 432.1C367.716 434.5 368.416 435.2 369.416 436.4C369.516 436.5 370.316 437.5 371.116 438.6C371.616 439.3 371.716 439.3 371.716 439.4C373.816 441.9 376.716 443.1 380.216 444.5C383.016 445.7 384.916 446.1 385.516 447.8C385.816 448.5 385.716 449.3 385.616 449.8C385.416 449.3 385.116 448.8 384.916 448.3C384.216 448.3 383.516 448.3 382.816 448.3C382.216 449.1 381.516 449.9 380.916 450.6C376.616 451.7 372.916 452.3 370.316 452.6C365.916 453.1 361.516 453.5 357.016 452.3C353.816 451.5 351.016 450.1 350.316 449.8C347.216 448.2 347.316 447.7 344.916 446.7C340.516 444.8 337.916 445.5 337.216 443.8C336.916 443 337.216 442.2 337.716 440.5C338.816 437.4 340.016 436.9 341.216 434.4C342.916 430.8 342.516 427.6 343.116 427.6C343.616 427.6 343.516 429.1 344.716 430.1C346.016 431.1 347.716 430.8 349.316 430.5C351.316 430.2 351.616 429.4 352.916 428.9C356.016 427.9 359.216 429.9 361.516 431.2C364.616 433.1 366.616 435.6 367.916 437.6" stroke="#111111" stroke-width="0.75" stroke-miterlimit="10" stroke-linecap="round" stroke-linejoin="round"/>
<path d="M372.517 444.9C366.617 445.5 362.317 445.5 359.317 445.3C358.017 445.2 356.017 445 354.517 446.3C353.117 447.6 353.017 449.8 353.017 450.9" stroke="#111111" stroke-width="0.75" stroke-miterlimit="10" stroke-linecap="round" stroke-linejoin="round"/>
<path d="M384.917 448.2C385.117 448.5 385.417 449 385.617 449.7C385.617 449.7 385.717 450 385.717 450.6C385.417 451.2 385.017 451.9 384.417 452.6C382.417 454.9 379.717 455.4 378.617 455.5C369.817 456.6 363.917 455.7 363.917 455.7C354.317 454.4 356.017 452.9 349.117 452.4C349.117 452.4 345.217 452.1 336.217 449.3C335.817 449.2 334.817 448.9 334.617 448.1C334.517 447.6 334.617 447.2 335.317 446C335.717 445.3 336.317 444.3 337.017 443.2" stroke="#111111" stroke-width="0.75" stroke-miterlimit="10" stroke-linecap="round" stroke-linejoin="round"/>
<path d="M361.017 439.2C360.017 439.5 357.717 440.3 355.817 442.5C353.317 445.4 353.117 448.7 353.117 449.6" stroke="#111111" stroke-width="0.75" stroke-miterlimit="10" stroke-linecap="round" stroke-linejoin="round"/>
<path d="M346.517 434.2C344.817 435.7 343.316 436.7 342.316 437.5C340.816 438.5 339.817 439.1 339.117 440.5C338.617 441.4 338.517 442.2 338.417 442.8" stroke="#111111" stroke-width="0.75" stroke-miterlimit="10" stroke-linecap="round" stroke-linejoin="round"/>
<path d="M634.117 314.8C643.717 312.7 648.017 308.7 650.217 305.4C652.917 301.3 652.517 297.7 655.817 287.3C657.217 282.8 658.717 279.2 659.617 276.8" stroke="white" stroke-width="0.75" stroke-miterlimit="10" stroke-linecap="round" stroke-linejoin="round"/>
<path d="M270.917 187C271.817 186.5 273.317 185.7 274.917 184.4C278.817 181.4 279.317 179.1 281.417 179.1C284.017 179.1 285.017 182 287.117 181.5C289.117 181 289.117 178.1 290.917 177.8C292.617 177.5 293.417 179.9 296.517 182.3C301.017 185.9 303.617 184.2 305.417 186.9C307.717 190.4 304.317 194.6 306.817 196.7C307.617 197.4 310.317 198.9 312.117 199.4C312.317 199.5 313.017 199.6 313.317 200.2C313.617 200.7 313.517 201.3 313.317 201.6C314.117 201.2 315.517 200.7 317.217 200.6C318.317 200.5 319.117 200.5 319.717 201C320.917 202 320.317 204.7 319.817 206.2C318.717 208.9 316.517 210.4 314.917 211.4C313.917 212.1 313.017 212.5 312.417 212.8C311.817 214.2 311.117 215.6 310.517 217C311.517 219 312.317 219.3 312.817 219.3C313.817 219.2 313.917 217.7 315.417 217.1C316.917 216.5 317.917 217.6 318.717 216.9C319.417 216.3 318.617 215.2 319.417 213.7C319.917 212.7 320.517 212.8 321.217 211.9C322.017 210.7 321.617 210 322.117 208.1C322.717 205.3 323.917 205.4 324.117 203.2C324.317 201.1 323.217 200.5 323.817 199.1C324.417 197.7 325.617 197.9 326.617 196.6C328.017 194.8 326.517 193 326.717 189.4C327.017 184.7 329.617 183.7 328.817 180.7C328.217 178.4 326.617 178.8 325.417 176.1C323.817 172.4 326.117 170 324.317 167.7C323.117 166.2 321.817 167 320.117 165.2C318.417 163.4 319.117 161.9 317.717 160.4C316.017 158.6 314.217 159.7 310.217 158.6C304.817 157.1 304.617 154.1 300.617 154C297.717 153.9 297.717 155.5 293.717 155.8C289.617 156.1 288.717 154.5 286.117 155.4C283.517 156.3 284.017 158 280.817 160C277.217 162.3 275.317 161 273.117 163.3C271.717 164.8 272.517 165.3 270.517 168.5C268.617 171.6 267.517 171.6 266.917 173.6C266.317 175.7 267.317 176.2 267.317 179.4C267.417 183.1 265.617 183.2 265.817 186.2C266.117 189.6 268.217 189.7 268.417 193.4C268.517 195.2 268.017 196.5 268.917 197.4C269.717 198.1 270.617 197.8 271.717 198.6C272.717 199.3 273.117 200.5 273.317 201.3C272.617 196.4 271.717 191.7 270.917 187Z" fill="#1D1D1B"/>
</svg>
