<svg width="386" height="385" viewBox="0 0 386 385" fill="none" xmlns="http://www.w3.org/2000/svg">
<path d="M306.118 241.389C313.256 246.369 315.07 256.161 310.162 263.38L297.221 254.411L306.118 241.389Z" fill="#FF3D00"/>
<path d="M288.17 267.425C281.032 262.445 279.218 252.652 284.126 245.433L297.067 254.403L288.17 267.425Z" fill="#F8F8F8"/>
<path d="M284.126 245.433C289.107 238.294 298.899 236.481 306.118 241.389L297.148 254.33L284.126 245.433Z" fill="#3848D8"/>
<path d="M310.162 263.38C305.181 270.519 295.389 272.332 288.17 267.425L297.14 254.483L310.162 263.38Z" fill="#FFDB73"/>
<path d="M284.639 214.05C285.003 214.453 285.633 214.177 286.708 214.232C288.163 214.382 288.286 215.004 289.806 215.389C291.245 215.847 291.576 215.402 295.649 215.531C296.11 215.555 296.498 215.497 297.105 215.682C298.091 215.963 299.143 216.478 302.03 217.24C302.943 217.44 303.396 217.617 303.404 217.464C303.581 217.011 297.037 213.985 297.294 213.459C297.559 212.78 306.319 216.149 306.504 215.542C306.673 215.243 303.687 213.398 300.048 212.29C298.455 211.824 297.153 211.681 297.161 211.528C297.169 211.374 298.017 211.34 305.938 211.51C306.706 211.549 307.401 211.507 307.328 211.427C307.417 211.2 304.683 210.446 302.008 210.079C298.871 209.69 296.552 209.88 296.632 209.807C296.567 209.573 305.441 209.175 305.391 208.634C305.407 208.327 302.804 208.041 300.419 207.997C296.726 207.964 294.698 208.477 294.495 207.928C294.154 207.064 298.021 205.181 297.738 204.705C297.527 204.309 294.086 205.367 291.074 207.062C290.679 207.273 289.403 208.132 287.087 209.786C286.449 210.215 285.57 210.864 284.974 211.988C284.878 212.368 284.201 213.566 284.639 214.05Z" fill="white" stroke="#111111" stroke-width="0.75" stroke-miterlimit="10"/>
<path d="M149.608 197.279C151.855 197.008 155.272 196.411 159.335 195.231C165.199 193.45 167.216 191.627 172.297 190.114C177.539 188.455 180.522 188.837 184.861 188.287C190.283 187.637 197.998 185.796 207.386 179.804C214.626 187.331 228.406 199.5 249.104 207.323C264.512 213.184 278.303 214.498 287.606 214.739C287.929 214.447 288.744 213.565 289.048 212.117C289.352 210.67 288.946 209.571 288.735 209.176C285.08 208.375 281.287 207.259 277.437 205.755C247.834 194.402 231.99 168.271 225.011 154.06C224.899 154.747 224.337 156.72 222.682 157.483C220.235 158.668 216.893 156.266 215.393 153.958C213.69 151.1 214.126 147.042 216.448 143.772C215.888 142.666 215.19 141.245 214.661 139.524C214.661 139.524 214.059 137.723 213.846 135.865C213.387 132.762 212.682 107.167 212.006 71.8731C211.787 71.631 210.621 70.3402 208.616 70.3927C206.693 70.3722 205.394 71.6922 205.233 71.838C205.025 72.9052 204.785 74.5868 204.45 76.6485C197.888 118.042 198.934 139.959 188.395 144.353C186.982 144.897 185.189 145.345 181.997 146.03C177.094 147.091 172.351 148.005 166.911 147.499C162.392 147.039 156.085 145.411 152.211 144.368C151.071 144.079 148.338 143.325 145.576 144.648C144.47 145.207 143.663 145.936 143.098 146.447C143.486 146.389 143.793 146.405 144.181 146.348C142.702 154.279 143.166 160.308 143.878 164.501C144.547 167.999 145.727 172.062 145.359 177.817C145.123 180.962 144.449 183.622 143.903 185.288C143.304 184.95 142.859 184.62 142.26 184.281C140.699 187.744 141.192 191.695 143.371 194.269C145.865 196.705 148.767 197.16 149.608 197.279Z" fill="#111111"/>
<path d="M226.269 148.965C227.23 148.244 228.344 147.531 229.458 146.817C229.853 146.606 230.249 146.395 230.571 146.104C230.863 146.426 232.49 147.741 234.664 147.389C235.827 147.217 237.717 146.389 237.94 145.014C238.164 143.64 236.755 142.568 236.31 142.237C234.464 140.681 232.065 140.944 231.442 141.067C231.838 140.856 232.476 140.426 233.267 140.004C234.527 139.452 235.456 139.345 236.312 139.158C236.934 139.035 241.757 138.048 242.085 136.14C242.093 135.986 242.166 136.067 241.58 133.959C241.449 133.49 241.319 133.022 241.277 132.327C241.152 130.242 241.628 129.958 241.487 128.18C241.365 127.558 241.308 127.17 241.177 126.702C240.495 124.973 240.058 124.489 239.878 123.479C239.763 122.704 239.917 122.711 240.122 120.181C240.296 118.265 240.343 117.344 240.051 117.021C239.322 116.214 237.893 117.066 233.224 118.061C229.879 118.739 227.56 118.929 226.868 120.434C226.698 120.733 226.594 121.267 226.103 121.858C225.442 122.748 224.643 123.323 224.408 123.389C222.987 124.086 220.947 126.37 217.923 129.835C214.246 134.037 210.325 141.537 212.569 144.345C213.006 144.829 213.605 145.167 215.029 145.932C216.906 146.874 218.653 147.348 219.793 147.636" fill="white"/>
<path d="M226.269 148.965C227.23 148.244 228.344 147.531 229.458 146.817C229.853 146.606 230.249 146.395 230.571 146.104C230.863 146.426 232.49 147.741 234.664 147.389C235.827 147.217 237.717 146.389 237.94 145.014C238.164 143.64 236.755 142.568 236.31 142.237C234.464 140.681 232.065 140.944 231.442 141.067C231.838 140.856 232.476 140.426 233.267 140.004C234.527 139.452 235.456 139.345 236.312 139.158C236.934 139.035 241.757 138.048 242.085 136.14C242.093 135.986 242.166 136.067 241.58 133.959C241.449 133.49 241.319 133.022 241.277 132.327C241.152 130.242 241.628 129.958 241.487 128.18C241.365 127.558 241.308 127.17 241.177 126.702C240.495 124.973 240.058 124.489 239.878 123.479C239.763 122.704 239.917 122.711 240.122 120.181C240.296 118.265 240.343 117.344 240.051 117.021C239.322 116.214 237.893 117.066 233.224 118.061C229.879 118.739 227.56 118.929 226.868 120.434C226.698 120.733 226.594 121.267 226.103 121.858C225.442 122.748 224.643 123.323 224.408 123.389C222.987 124.086 220.947 126.37 217.923 129.835C214.246 134.037 210.325 141.537 212.569 144.345C213.006 144.829 213.605 145.167 215.029 145.932C216.906 146.874 218.653 147.348 219.793 147.636" stroke="#111111" stroke-width="0.75" stroke-miterlimit="10"/>
<path d="M194.339 19.3974L195.828 20.3967L196.872 21.0655C192.155 22.9822 187.911 26.2316 184.759 30.6911C176.45 42.742 179.465 59.2157 191.589 67.6053C203.64 75.9143 220.114 72.8994 228.503 60.7756C231.662 56.1625 233.155 51.003 233.186 45.8465L236.755 48.3369L243.404 38.6655L201.003 9.41888L194.339 19.3974ZM219.626 55.1679C214.645 62.3063 204.934 64.047 197.868 59.147C190.73 54.1663 188.989 44.4549 193.889 37.3894C198.789 30.3239 208.581 28.5103 215.647 33.4103C222.793 38.2375 224.607 48.0295 219.626 55.1679Z" fill="#111111"/>
<path d="M205.485 60.7651C205.09 60.976 204.92 61.2754 204.678 61.4941C204.897 61.7361 205.124 61.8245 205.342 62.0666C206.225 62.8811 206.72 63.7531 206.996 64.3829C207.41 65.3277 208.035 66.6681 207.9 67.8161C207.892 67.9697 207.788 68.5033 208.079 68.826C208.152 68.9067 208.225 68.9873 208.379 68.9951C208.84 69.0185 209.37 67.6596 209.513 66.3581C209.568 65.283 209.226 64.4189 208.958 63.6355C208.682 63.0056 208.479 62.4564 208.479 62.4564C208.479 62.4564 208.682 63.0056 208.885 63.5548C209.154 64.3382 209.406 65.4289 209.563 66.8995C209.958 66.6886 210.669 66.3397 210.942 65.5066C210.95 65.3531 211.119 65.0537 211.012 64.1244C210.928 62.7345 210.668 61.7974 210.668 61.7974C210.668 61.7974 211.001 62.8151 211.012 64.1244C210.981 64.7387 210.958 65.1995 210.942 65.5066C211.411 65.3764 212.04 65.1003 212.459 64.4287C213.362 63.3196 213.068 61.5341 213.068 61.5341C213.068 61.5341 213.117 62.0754 213.006 62.7627C212.902 63.2963 212.725 63.7493 212.556 64.0487C212.87 63.9106 214.856 62.7024 214.773 61.3125C214.781 61.1589 214.731 60.6175 214.432 60.4483C214.059 60.1985 213.648 60.7166 213.268 60.6204C212.888 60.5241 212.904 60.217 212.524 60.1207C212.144 60.0245 211.756 60.0818 211.675 60.1547C210.819 60.3423 210.884 60.5766 210.423 60.5532C210.116 60.5377 210.043 60.457 209.582 60.4337C209.275 60.4181 208.968 60.4025 208.734 60.4677C208.184 60.6708 207.919 61.3502 207.831 61.5767C207.758 61.496 207.562 60.7933 206.802 60.6008C206.284 60.1897 205.8 60.6271 205.485 60.7651Z" fill="white" stroke="#111111" stroke-width="0.75" stroke-miterlimit="10"/>
<path d="M226.895 125.978C223.629 129.662 221.747 130.337 220.672 130.282C220.365 130.267 219.904 130.243 218.983 130.197C216.833 130.088 216.525 130.072 216.283 130.291C215.872 130.809 216.271 132.061 216.927 132.787C217.291 133.19 217.664 133.44 217.971 133.456" fill="white"/>
<path d="M226.895 125.978C223.629 129.662 221.747 130.337 220.672 130.282C220.365 130.267 219.904 130.243 218.983 130.197C216.833 130.088 216.525 130.072 216.283 130.291C215.872 130.809 216.271 132.061 216.927 132.787C217.291 133.19 217.664 133.44 217.971 133.456" stroke="#111111" stroke-width="0.75" stroke-miterlimit="10"/>
<path d="M223.381 126.955C224.971 125.958 226.147 124.016 225.928 123.774C225.564 123.37 221.311 126.773 221.353 127.468C221.491 127.783 222.662 127.458 223.381 126.955Z" fill="#1D1D1B" stroke="#111111" stroke-width="0.75" stroke-miterlimit="10"/>
<path d="M227.414 130.931C228.647 129.377 230.974 129.033 231.258 129.509C231.607 130.22 227.42 133.857 226.756 133.284C226.311 132.954 226.761 131.668 227.414 130.931Z" fill="#1D1D1B" stroke="#111111" stroke-width="0.75" stroke-miterlimit="10"/>
<path d="M214.512 137.899C214.803 138.222 216.392 140.304 218.929 140.356C219.544 140.387 220.093 140.184 220.562 140.054" stroke="#111111" stroke-width="0.75" stroke-miterlimit="10"/>
<path d="M224.932 155.595C224.649 155.118 224.307 154.254 224.37 153.026C224.494 150.568 226.488 149.207 226.73 148.988" stroke="#111111" stroke-width="0.75" stroke-miterlimit="10"/>
<path d="M233.296 130.305C233.246 129.764 233.139 128.835 232.652 127.809C231.947 126.542 231.056 125.881 230.611 125.55" stroke="#111111" stroke-width="0.75" stroke-miterlimit="10"/>
<path d="M228.628 123.679C228.57 123.291 228.448 122.669 228.099 121.959C227.612 120.933 226.875 120.28 226.43 119.95" stroke="#111111" stroke-width="0.75" stroke-miterlimit="10"/>
<path d="M225.809 148.942C228.134 151.677 229.355 151.893 230.138 151.625C231.075 151.364 231.049 150.362 232.066 150.028C233.633 149.492 234.745 151.858 236.596 151.798C238.681 151.672 238.514 148.892 241.51 147.504C243.875 146.392 245.591 147.48 246.736 146.152C247.72 144.97 246.853 143.849 247.756 142.74C248.982 141.339 250.997 142.596 252.529 141.211C253.74 140.117 252.945 139.076 254.429 137.15C255.751 135.369 256.891 135.658 257.502 134.226C258.114 132.794 257.554 131.688 257.494 129.837C257.522 127.76 258.363 127.88 258.053 126.401C257.75 124.769 256.74 124.949 255.928 122.752C255.384 121.339 255.422 120.571 254.759 119.999C254.022 119.345 253.699 119.637 252.736 118.895C251.845 118.234 251.424 117.443 250.994 116.805C250.005 115.062 250.408 114.697 249.752 113.971C248.731 112.841 247.69 113.636 246.201 112.636C244.639 111.556 244.636 110.094 243.715 110.047C242.64 109.992 242.458 112.062 240.745 112.437C239.889 112.625 239.532 112.068 238.668 112.409C237.731 112.669 237.773 113.364 236.909 113.705C235.495 114.25 234.313 113.266 233.822 113.857C233.491 114.302 234.09 114.64 233.744 115.393C233.382 116.452 231.927 116.302 231.323 117.58C231.147 118.033 231.05 118.413 231.035 118.72C233.07 118.053 234.71 117.597 235.954 117.352C238.523 116.79 239.445 116.836 239.882 117.32C240.473 117.812 240.426 118.734 240.46 119.582C240.463 121.045 239.971 121.636 239.763 122.703C239.516 124.539 240.81 124.835 241.292 127.477C242.05 130.749 240.379 131.819 241.564 134.266C241.848 134.742 242.197 135.452 242.005 136.212C241.885 137.053 241.086 137.629 240.448 138.058C238.535 139.347 237.096 138.889 234.431 139.832C233.413 140.166 232.775 140.595 232.299 140.879C233.689 140.795 234.668 141.23 235.194 141.488C235.719 141.745 236.011 142.068 236.602 142.56C237.557 143.455 238.003 143.785 238.125 144.407C238.248 145.03 237.909 145.628 237.587 145.92C236.668 147.336 234.882 147.631 234.495 147.688C232.402 147.967 230.848 146.733 230.475 146.484C229.838 146.913 229.127 147.262 228.489 147.692C227.545 148.106 226.673 148.601 225.809 148.942Z" fill="#111111"/>
<path d="M157.282 146.087C150.839 145.606 140.818 145.869 129.066 149.893C124.365 151.502 120.19 153.369 116.63 155.268" stroke="#111111" stroke-width="0.75" stroke-miterlimit="10"/>
<path d="M231.248 144.906C231.862 144.937 232.557 144.895 232.734 144.442C232.984 144.07 232.547 143.586 232.643 143.206C232.9 142.68 234.363 142.677 235.334 143.265C235.779 143.596 236.443 144.168 236.266 144.621C236.17 145.001 235.782 145.058 235.306 145.342C234.757 145.545 234.369 145.603 234.054 145.741" fill="white"/>
<path d="M231.248 144.906C231.862 144.937 232.557 144.895 232.734 144.442C232.984 144.07 232.547 143.586 232.643 143.206C232.9 142.68 234.363 142.677 235.334 143.265C235.779 143.596 236.443 144.168 236.266 144.621C236.17 145.001 235.782 145.058 235.306 145.342C234.757 145.545 234.369 145.603 234.054 145.741" stroke="#111111" stroke-width="0.75" stroke-miterlimit="10"/>
<path d="M96.8788 233.64C97.2667 233.583 97.8081 233.533 98.4953 233.645C99.4897 233.772 100.242 234.118 100.541 234.288C101.367 234.714 102.725 235.245 104.86 235.661C105.524 236.234 106.245 237.194 106.644 238.446C107.847 242.048 104.877 244.438 103.304 249.671C101.834 254.369 103.115 256.436 102.863 259.887C102.767 260.268 102.697 261.65 102.158 263.162C101.701 264.602 100.735 266.939 98.5336 269.368C98.3801 269.361 98.2994 269.434 98.0651 269.499C98.0651 269.499 97.7579 269.483 97.3701 269.54C96.7558 269.509 95.8343 269.463 95.0898 268.963C94.944 268.802 94.6446 268.633 94.4259 268.391C93.9565 263.979 93.4871 259.567 92.8641 255.147C92.7912 255.066 92.799 254.913 92.6532 254.751C92.5151 254.436 92.2158 254.267 92.2158 254.267C91.9164 254.098 91.0387 251.667 89.0511 243.791" stroke="#111111" stroke-width="0.75" stroke-miterlimit="10"/>
<path d="M86.8074 233.361C86.4847 233.653 86.0736 234.171 86.2038 234.639C86.2612 235.027 86.8026 234.977 87.5471 235.477C87.6929 235.638 88.4375 236.138 89.0129 236.937C89.2967 237.413 89.5805 237.89 89.7107 238.358C90.5807 240.943 90.115 242.536 90.7945 242.801C91.3932 243.139 92.3614 242.265 93.8943 240.88C95.0238 239.859 95.6692 239.276 96.265 238.151C96.7725 237.253 97.3761 235.975 97.0505 234.804C96.6024 233.01 94.8402 232.844 94.6263 230.985C94.5194 230.056 94.8577 229.457 94.4932 229.054C94.2016 228.731 93.5066 228.773 93.0381 228.903C93.111 228.984 93.111 228.984 93.1032 229.138C92.6843 229.809 91.7501 231.533 89.6992 232.507C88.5852 233.22 87.5024 233.319 86.8074 233.361Z" fill="#FF3D00"/>
<path d="M89.22 243.491C89.1549 243.257 89.0898 243.023 88.8711 242.781C88.5795 242.458 88.4259 242.45 88.2801 242.289C88.077 241.74 89.3105 240.185 89.9899 240.451C90.6693 240.716 89.9539 242.682 90.6256 243.101C92.0418 244.019 97.7437 237.841 97.1732 235.426C97.1809 235.272 96.7251 233.632 96.7251 233.632C96.8135 233.406 97.0556 233.187 97.3783 232.895C97.459 232.823 98.0237 232.312 98.3386 232.174C99.2028 231.833 100.143 233.035 101.559 233.954C102.303 234.454 103.347 235.122 104.787 235.58" stroke="#111111" stroke-width="0.75" stroke-miterlimit="10"/>
<path d="M98.7879 173.149C95.5452 176.372 84.0033 188.413 81.297 205.367C79.5161 216.209 82.191 224.197 83.8394 228.129C83.5896 228.502 83.4934 228.882 83.2436 229.254C83.6965 229.431 84.2301 229.535 84.6831 229.712C84.5062 230.165 84.3293 230.618 84.1523 231.071C84.686 231.175 85.1389 231.352 85.7455 231.536C86.1022 232.093 86.386 232.57 86.662 233.199C87.8829 233.415 88.6663 233.147 89.1426 232.863C90.0874 232.449 90.66 231.785 91.9586 230.465C92.5233 229.955 92.8538 229.51 93.1765 229.218C92.8043 228.968 92.432 228.719 91.9868 228.388C92.398 227.87 92.8091 227.352 93.2203 226.834C92.7596 226.811 92.1453 226.779 91.6845 226.756C91.8615 226.303 92.119 225.777 92.2231 225.244C91.6894 225.14 91.1558 225.036 90.6222 224.932C89.5978 217.797 90.8877 212.088 91.9074 208.676C96.7094 192.906 110.896 181.846 116.835 177.065C118.038 176.125 118.998 175.404 119.636 174.975" stroke="#111111" stroke-width="0.75" stroke-miterlimit="10"/>
<path d="M89.9853 242.068C90.8892 245.501 92.0896 247.64 93.1024 248.923C93.532 249.561 94.399 250.683 94.1832 251.903C93.9752 252.971 93.2413 253.78 92.6844 254.137" stroke="#111111" stroke-width="0.75" stroke-miterlimit="10"/>
<path d="M98.1537 269.272C98.5415 269.215 99.1636 269.092 99.7206 268.736C100.431 268.387 101.157 267.731 101.946 265.846C103.249 262.909 103.535 260.306 103.582 259.385C103.659 257.849 103.625 257.001 103.453 255.837C103.354 254.754 103.078 254.124 103.044 253.276C102.995 252.734 103.099 252.201 103.114 251.894C103.145 251.279 103.481 249.218 105.029 247.526C105.682 246.789 105.667 247.096 106.239 246.432C107.465 245.031 107.704 243.35 107.87 241.588C108.102 240.06 108.141 239.292 107.872 238.508C107.198 236.626 105.321 235.684 104.795 235.427" stroke="#111111" stroke-width="0.75" stroke-miterlimit="10"/>
<path d="M38.2793 191.333C38.3366 191.721 38.3055 192.335 38.1208 192.941C37.9128 194.009 37.4938 194.68 37.3247 194.98C36.898 195.805 36.2215 197.002 35.5712 199.202C34.9257 199.785 34.046 200.434 32.7212 200.751C29.0615 201.567 26.9134 198.379 21.9309 196.433C17.3285 194.583 15.1969 195.63 11.7608 195.071C11.3807 194.974 10.0063 194.751 8.57458 194.139C7.21571 193.609 4.96648 192.417 2.77949 189.997C2.78727 189.843 2.71437 189.762 2.72992 189.455C2.72992 189.455 2.74548 189.148 2.76104 188.841C2.79215 188.227 2.9924 187.313 3.56492 186.649C3.72628 186.503 3.96833 186.285 4.21036 186.066C8.67968 185.984 13.0761 185.822 17.5454 185.74C17.699 185.748 17.7797 185.675 18.0139 185.61C18.3288 185.472 18.498 185.173 18.498 185.173C18.6671 184.873 21.2362 184.311 29.2349 182.945" stroke="#111111" stroke-width="0.75" stroke-miterlimit="10"/>
<path d="M40.8361 180.376C40.042 179.335 39.6619 179.239 39.4277 179.304C39.0398 179.361 39.0894 179.903 38.5898 180.647C38.2593 181.092 37.9366 181.384 37.3796 181.741C36.8955 182.178 36.6613 182.243 35.0788 183.087C33.1815 184.069 33.1008 184.141 32.7129 184.199C32.018 184.241 31.1694 184.275 31.0158 184.267C30.0137 184.293 29.8679 184.132 29.7065 184.277C29.2953 184.796 30.6571 186.789 31.597 187.992C32.9743 189.678 34.2787 191.284 36.1946 191.458C36.5017 191.473 37.4232 191.52 38.2951 191.025C38.7714 190.741 38.8598 190.515 39.5053 189.932C40.312 189.203 41.2802 188.328 42.5088 188.39C43.511 188.364 44.0942 189.009 44.4976 188.645C44.9009 188.28 44.7863 187.505 44.656 187.036C44.5753 187.109 44.5024 187.028 44.4217 187.101C43.7501 186.682 42.1959 185.449 41.3755 183.406C40.8235 182.146 40.8779 181.071 40.8361 180.376Z" fill="#FF3D00"/>
<path d="M161.189 160.142C155.358 158.23 146.77 156.025 135.963 155.092C112.658 153.142 94.339 159.143 77.9751 164.55C69.5185 167.355 58.1314 171.782 45.0839 178.589C44.5581 178.332 44.0322 178.074 43.5064 177.816C43.5559 178.358 43.6133 178.746 43.6628 179.287C43.2099 179.11 42.7569 178.933 42.304 178.756C42.1271 179.209 42.023 179.743 41.8461 180.196C41.4816 179.792 41.0442 179.308 40.6797 178.905C40.5679 179.592 40.2821 182.195 42.0006 184.746C43.1514 186.344 44.5754 187.109 45.2549 187.374C45.1975 186.986 45.0595 186.671 45.075 186.364C45.3666 186.687 45.5853 186.929 45.7963 187.325C45.9732 186.872 46.3037 186.426 46.4806 185.974C47.0142 186.078 47.6208 186.262 48.1544 186.366C48.1777 185.906 48.1204 185.518 48.1437 185.057C53.4091 182.937 60.6293 180.223 69.5961 177.983C82.6182 174.716 98.1209 171.113 116.668 174.285C121.931 175.245 129.613 177.097 138.019 181.372C143.043 184.013 146.831 186.745 149.648 188.889" stroke="#111111" stroke-width="0.75" stroke-miterlimit="10"/>
<path d="M29.2431 182.791C29.3966 182.799 29.7116 182.661 30.0265 182.523C30.4221 182.312 30.357 182.078 30.5913 182.013C31.1404 181.809 32.5333 183.189 32.268 183.868C32.0026 184.548 30.1256 183.606 29.626 184.35C28.5539 185.759 34.2478 191.898 36.6555 191.481C36.8091 191.489 38.4411 191.187 38.4411 191.187C38.5869 191.348 38.8862 191.517 39.1778 191.84C39.2507 191.92 39.7611 192.485 39.7377 192.946C39.9253 193.802 38.8036 194.669 37.6585 195.997C37.086 196.661 36.3444 197.624 35.7329 199.056" stroke="#111111" stroke-width="0.75" stroke-miterlimit="10"/>
<path d="M30.5058 183.702C27.0075 184.372 24.8029 185.338 23.3741 186.189C22.7364 186.619 21.4689 187.325 20.3287 187.036C19.2615 186.828 18.6132 185.948 18.1835 185.311" stroke="#111111" stroke-width="0.75" stroke-miterlimit="10"/>
<path d="M2.65659 189.373C2.71393 189.761 2.6828 190.375 2.95884 191.005C3.30778 191.716 3.88321 192.515 5.67947 193.53C8.44676 195.132 11.042 195.572 11.8828 195.691C13.4108 195.923 14.3323 195.97 15.4151 195.87C16.5708 195.852 17.12 195.649 18.0415 195.695C18.6558 195.727 19.0358 195.823 19.343 195.838C19.9495 196.023 21.9305 196.431 23.615 198.133C24.2711 198.859 23.9639 198.844 24.6278 199.416C25.9477 200.715 27.5486 201.027 29.2953 201.5C30.7427 201.805 31.5028 201.997 32.3591 201.81C34.3061 201.369 35.3209 199.573 35.6592 198.974" stroke="#111111" stroke-width="0.75" stroke-miterlimit="10"/>
<path d="M2.89941 189.155C3.27169 189.405 4.76858 190.251 6.70774 189.964C7.87125 189.792 8.82381 189.224 9.2272 188.86" stroke="#111111" stroke-width="0.75" stroke-miterlimit="10"/>
<path d="M96.7785 269.048C97.0206 268.829 97.9314 267.567 97.7827 265.943C97.634 264.318 96.6785 263.423 96.4599 263.181" stroke="#111111" stroke-width="0.75" stroke-miterlimit="10"/>
<path d="M146.878 173.66C144.694 172.702 141.443 171.537 137.458 171.181C134.547 170.88 132.075 171.062 130.063 171.268C130.812 170.151 132.288 168.379 134.661 167.113C139.651 164.363 144.883 165.937 145.942 166.299" stroke="#111111" stroke-width="0.75" stroke-miterlimit="10"/>
<path d="M140.245 158.697C140.729 158.259 144.125 155.044 149.097 155.681C153.228 156.198 153.729 159.995 157.49 161.726C161.778 163.713 164.771 160.863 177.275 157.185C187.985 153.955 193.3 152.376 198.314 153.708C201.654 154.647 204.114 156.234 208.219 155.749C211.782 155.314 214.567 153.53 216.407 152.161" stroke="white" stroke-width="0.75" stroke-miterlimit="10"/>
<path d="M153.097 175.515C156.4 174.142 159.775 172.85 163.078 171.478" stroke="white" stroke-width="0.75" stroke-miterlimit="10"/>
<path d="M85.3408 228.128C86.4536 227.77 87.3959 227.431 88.3893 226.839" stroke="black" stroke-width="0.75" stroke-linecap="round" stroke-linejoin="round"/>
<path d="M87.0718 230.044C87.8687 229.7 88.6069 229.359 89.3427 228.908" stroke="black" stroke-width="0.75" stroke-linecap="round" stroke-linejoin="round"/>
<path d="M45.6917 184.452C45.0449 183.386 44.5526 182.397 44.2204 181.202" stroke="black" stroke-width="0.75" stroke-linecap="round" stroke-linejoin="round"/>
</svg>
