<svg xmlns="http://www.w3.org/2000/svg" width="24" height="24" viewBox="0 0 24 24"><g class="nc-icon-wrapper" fill="#ffffff"><path d="M9.5 19.752h-9a.5.5 0 0 1-.5-.5v-15a.5.5 0 0 1 .147-.354c.094-.095.186-.118.355-.146-.001 0 3.494.013 6.996 0h.017c1.188 0 2.31.465 3.157 1.31A4.475 4.475 0 0 1 12 8.252c0 1.366-.244 2.175-.938 2.833 1.94.882 1.938 2.62 1.938 4.051v1.115c0 1.93-1.57 3.501-3.5 3.501zm-8.5-1h8.5c1.379 0 2.5-1.122 2.5-2.5v-1.116c.002-1.609.003-2.881-2.118-3.398a.5.5 0 0 1-.14-.914C10.686 10.255 11 9.803 11 8.252c0-.937-.367-1.818-1.033-2.482a3.453 3.453 0 0 0-2.452-1.018h-.013c-2.708.01-5.412.005-6.502.001v13.999z"></path><path d="M7 10.752H3.5a.5.5 0 0 1-.5-.5v-3a.5.5 0 0 1 .5-.5H7c1.103 0 2 .897 2 2s-.897 2-2 2zm-3-1h3a1.001 1.001 0 0 0 0-2H4v2z"></path><path d="M8 16.752H3.5a.5.5 0 0 1-.5-.5v-3a.5.5 0 0 1 .5-.5H8c1.103 0 2 .897 2 2s-.897 2-2 2zm-4-1h4a1.001 1.001 0 0 0 0-2H4v2z"></path><path d="M18 20.252c-3.309 0-6-2.58-6-5.75s2.691-5.75 6-5.75 6 2.58 6 5.75-2.691 5.75-6 5.75zm0-10.5c-2.757 0-5 2.131-5 4.75s2.243 4.75 5 4.75 5-2.131 5-4.75-2.243-4.75-5-4.75z"></path><path d="M21.5 7.752h-7a.5.5 0 0 1-.5-.5v-3a.5.5 0 0 1 .5-.5h7a.5.5 0 0 1 .5.5v3a.5.5 0 0 1-.5.5zm-6.5-1h6v-2h-6v2z"></path><path d="M20.816 13.752h-5.633a.501.501 0 0 1-.471-.667 3.5 3.5 0 0 1 3.287-2.333 3.5 3.5 0 0 1 3.287 2.333.498.498 0 0 1-.47.667zm-4.803-1h3.975c-.463-.617-1.195-1-1.987-1s-1.525.382-1.988 1z"></path><path d="M18 17.752a3.5 3.5 0 0 1-3.287-2.333.498.498 0 0 1 .471-.667h5.633a.501.501 0 0 1 .471.667A3.503 3.503 0 0 1 18 17.752zm-1.987-2c.463.617 1.195 1 1.987 1s1.524-.383 1.987-1h-3.974z"></path><g><path d="M23 15.752h-2.184a.5.5 0 0 1 0-1H23a.5.5 0 0 1 0 1z"></path></g></g></svg>