<svg width="272" height="254" viewBox="0 0 272 254" fill="none" xmlns="http://www.w3.org/2000/svg">
<path d="M84.8563 30.0341C85.5087 29.273 86.4873 28.1856 87.4659 26.7721C89.0969 24.2712 89.3144 22.7489 91.7066 15.4636C92.5765 12.9627 93.1201 11.3317 92.9027 11.2229C92.5765 11.1142 90.1843 16.4422 89.7494 16.2248C89.097 16.0073 92.794 5.67744 92.2503 5.45997C91.9241 5.35124 90.4018 8.17835 89.3144 10.8967C88.0096 14.1588 87.6834 16.116 87.4659 16.116C86.8135 16.0073 88.5532 1.21933 87.7921 1.00186C87.3572 0.893126 86.0523 5.56875 85.2912 9.91815C84.6388 13.7239 84.6388 16.2248 84.4213 16.2248C83.8777 16.2248 83.4427 3.39405 82.899 3.39405C82.5728 3.39405 81.703 8.17838 81.703 13.5064C81.703 16.551 81.9205 19.1606 81.0506 19.378C80.7244 19.4868 80.3982 19.1606 78.1147 17.4208C75.8313 15.5723 75.5051 15.3549 75.3963 15.4636C74.8527 15.7898 76.1575 18.9431 77.8972 21.444C78.006 21.5528 78.006 21.6615 78.1147 21.7702C79.5283 23.9449 81.703 26.7721 84.8563 30.0341Z" stroke="#111111" stroke-width="0.75" stroke-miterlimit="10"/>
<path d="M68.3284 221.408C69.1982 220.211 70.503 218.472 72.2428 216.514C74.7437 213.796 76.1572 212.382 77.4621 212.6C78.9844 212.926 78.8756 215.101 81.2678 217.276C82.7901 218.689 84.4211 219.342 85.5085 219.668C86.0522 220.429 86.5958 221.516 86.7045 222.93C87.1395 226.953 83.4425 228.801 80.6154 233.803C78.0058 238.37 78.8757 240.762 77.7883 244.351C77.6796 244.786 77.2446 246.09 76.3747 247.613C75.6136 248.917 74.0913 251.201 71.1554 253.267C70.503 253.267 69.5244 253.158 68.6545 252.506C66.0449 250.331 68.9807 245.329 68.9807 237.283C68.9807 230.541 66.9148 227.605 67.3497 224.126" stroke="#111111" stroke-width="0.75" stroke-miterlimit="10"/>
<path d="M74.853 209.556C74.7443 208.468 75.2879 207.925 75.5054 206.728C75.7229 205.859 75.9404 204.771 75.5054 204.119C74.9617 203.249 73.222 203.249 71.2648 203.793C71.6997 204.989 72.0259 206.076 72.4608 207.272C72.1346 207.598 71.0473 209.229 68.8726 209.556C67.5678 209.773 66.4804 209.447 65.9367 209.338C65.0669 208.033 64.0882 206.728 63.2184 205.424C62.8922 205.532 61.0436 206.185 60.8262 207.598C60.8262 207.924 60.8262 208.251 61.0437 208.686C61.9135 210.86 64.3057 210.752 66.0454 212.926C66.8066 213.796 67.0241 214.666 67.4591 215.971C68.0027 217.711 67.894 218.689 68.4376 221.408C68.6551 222.386 68.7638 223.147 68.9813 223.691C69.3075 223.8 69.7425 224.017 70.2861 224.017C70.7211 224.017 71.9172 224.017 73.9832 222.495C75.3967 221.408 77.8976 219.559 77.7889 217.058C77.7889 216.515 77.5714 215.971 77.2452 215.101C76.5928 213.47 75.9403 212.818 75.2879 210.86C74.9617 210.208 74.853 209.882 74.853 209.556Z" fill="#3848D8"/>
<path d="M31.25 203.901C32.2286 202.922 33.7509 201.509 35.8168 199.986C38.644 197.812 40.1663 196.724 41.3624 197.268C42.7759 197.812 42.341 199.878 44.0808 202.379C45.2768 204.01 46.6904 204.879 47.669 205.423C47.9952 206.184 48.4301 207.38 48.3214 208.794C47.9952 212.708 44.1895 213.796 40.6012 218.036C37.3392 221.951 37.7741 224.343 36.0343 227.496C35.8169 227.822 35.1645 229.019 34.0771 230.323C33.0985 231.519 31.25 233.259 28.2054 234.782C27.553 234.673 26.6831 234.347 26.0307 233.694C23.856 231.193 27.6617 226.953 28.9665 219.45C30.1626 213.143 28.6404 209.881 29.7277 206.728" stroke="#111111" stroke-width="0.75" stroke-miterlimit="10"/>
<path d="M31.141 205.532C30.5973 209.12 30.9235 211.621 31.3585 213.361C31.5759 214.122 31.9021 215.536 31.141 216.623C30.706 217.384 29.8362 217.711 29.2925 217.819" stroke="#111111" stroke-width="0.75" stroke-miterlimit="10"/>
<path d="M26.4658 233.804C26.9008 234.13 27.7706 234.565 28.7492 234.674C29.0754 234.674 30.5977 234.783 32.7724 233.043C34.6209 231.629 35.817 229.781 36.9044 227.498C39.0791 223.039 38.1005 222.604 39.514 220.321C42.3411 215.754 46.5818 216.407 48.3215 212.601C48.974 211.187 49.3002 208.904 47.7779 205.424" stroke="#111111" stroke-width="0.75" stroke-miterlimit="10"/>
<path d="M36.3603 191.505C36.2516 190.853 35.9254 189.439 36.1428 187.808C36.3603 186.286 36.6866 186.069 36.4691 185.525C36.2516 184.873 35.1642 184.22 31.2498 184.438C31.6847 185.634 32.0109 186.83 32.4459 188.026C32.3372 188.461 32.1197 189.004 31.6847 189.548C30.2712 191.505 27.5528 191.397 27.2266 191.397C26.3567 190.309 25.4868 189.222 24.6169 188.135C22.3335 190.744 22.2247 191.832 22.551 192.375C22.9859 193.136 24.182 192.81 25.813 193.789C26.6829 194.333 27.1178 194.985 27.9877 196.181C28.4226 196.725 29.945 199.008 30.8149 202.923C31.2498 205.097 31.141 205.75 31.4672 206.185C31.4672 206.293 31.576 206.402 31.6847 206.402C33.207 207.707 40.7097 204.662 40.9272 201.183C41.0359 199.552 39.6224 199.117 37.339 194.224C36.904 193.463 36.5778 192.702 36.3603 191.505Z" fill="#3848D8"/>
<path d="M29.8362 206.512C29.9449 206.185 29.9449 205.642 29.7275 205.316C29.51 205.098 29.1838 205.098 28.8576 204.881C27.9877 204.554 27.3352 203.685 27.444 203.25C27.5527 202.706 30.2711 202.38 31.141 203.467C31.7934 204.337 30.8148 205.316 31.4672 206.077C32.4458 207.273 36.5778 206.403 38.9699 204.119C39.5136 203.576 41.3621 201.836 41.0359 200.205C40.9271 199.661 40.7097 199.553 38.9699 197.269C37.6651 195.421 37.4477 194.986 37.5564 194.551C37.8826 193.681 39.2961 193.246 39.8398 193.572C40.166 193.79 39.9485 194.333 39.8398 195.638C39.7311 196.617 39.7311 197.487 39.7311 198.03" stroke="#111111" stroke-width="0.75" stroke-miterlimit="10"/>
<path d="M76.2661 96.7975C70.5031 109.628 61.913 133.441 63.4353 163.778C64.3052 181.828 68.5459 196.725 72.4603 207.272C72.2429 207.599 71.1555 209.012 69.307 209.447C67.676 209.882 66.3712 209.447 65.9362 209.338C58.3248 198.465 47.7775 180.415 41.9058 156.058C34.2943 124.09 38.6437 97.3411 41.9058 83.2056C53.4317 87.6637 64.8489 92.2306 76.2661 96.7975Z" fill="white" stroke="#111111" stroke-width="0.75" stroke-miterlimit="10"/>
<path d="M36.3605 77.9863C32.1198 81.7921 26.0307 87.555 19.724 95.4927C9.93786 107.562 2.76134 116.587 1.23905 129.092C0.151698 138.769 2.87009 145.946 7.43696 157.58C10.9165 166.605 16.8969 178.675 27.2268 191.397C27.553 191.397 29.5102 191.723 31.0325 190.31C31.9024 189.44 32.2285 188.461 32.3373 188.026C27.9879 177.044 25.5957 167.584 24.1821 160.842C21.2463 146.924 19.8327 139.857 23.3123 132.571C26.9005 124.96 33.7508 121.045 37.774 119.088" fill="white"/>
<path d="M36.3605 77.9863C32.1198 81.7921 26.0307 87.555 19.724 95.4927C9.93786 107.562 2.76134 116.587 1.23905 129.092C0.151698 138.769 2.87009 145.946 7.43696 157.58C10.9165 166.605 16.8969 178.675 27.2268 191.397C27.553 191.397 29.5102 191.723 31.0325 190.31C31.9024 189.44 32.2285 188.461 32.3373 188.026C27.9879 177.044 25.5957 167.584 24.1821 160.842C21.2463 146.924 19.8327 139.857 23.3123 132.571C26.9005 124.96 33.7508 121.045 37.774 119.088" stroke="#111111" stroke-width="0.75" stroke-miterlimit="10"/>
<path d="M127.915 42.1041C126.393 40.5818 125.414 39.0595 124.871 37.9722C122.044 32.7529 122.805 28.5122 123.348 27.9685C123.675 27.6423 123.892 27.6423 124.762 27.4248C125.741 27.0986 128.35 25.6851 130.199 24.5978C131.177 24.0541 132.7 23.2929 134.548 22.6405C134.983 21.1182 135.744 19.3784 136.505 19.3784C137.049 19.3784 137.158 20.2484 137.701 20.792C140.202 23.6191 147.596 18.726 152.489 21.7706C152.924 22.0968 153.251 22.423 153.468 22.5318" stroke="#111111" stroke-width="0.75" stroke-miterlimit="10"/>
<path d="M271.554 89.0772C270.793 82.1181 267.423 75.4853 261.442 70.9184C249.916 61.8934 233.171 63.9594 224.146 75.4853C215.121 87.0112 217.187 103.756 228.713 112.781C234.585 117.348 241.761 119.088 248.611 118.109L247.307 107.888C243.283 108.432 239.043 107.345 235.672 104.735C228.822 99.407 227.625 89.6209 232.953 82.7706C238.281 75.9203 248.068 74.7242 254.918 80.0522C258.289 82.7706 260.355 86.4675 260.79 90.4907L271.554 89.0772Z" fill="#101010"/>
<path d="M208.706 77.8776C210.989 81.5746 218.709 77.8776 221.319 81.4658C223.385 84.2929 220.993 89.7297 222.189 90.0559C222.298 90.0559 222.515 90.0559 222.732 89.9472C225.125 88.5336 225.016 85.0541 226.321 84.8366C227.299 84.7279 228.713 86.9026 229.365 88.5336V88.6423C230.344 91.4694 229.583 93.8616 229.909 93.8616C230.235 93.9703 231.649 91.252 231.54 88.2074C231.431 85.5978 230.344 83.7492 230.453 83.7492C230.453 83.7492 231.431 85.5978 231.54 88.2074C231.54 89.186 231.54 90.0559 231.431 90.5995C232.192 89.9471 233.28 88.7511 233.606 87.0113C234.041 84.1842 232.084 81.5746 232.192 81.4658C232.301 81.4658 233.062 82.6619 233.388 84.4017C233.606 85.489 233.606 86.3589 233.497 87.0113C234.367 86.0327 235.346 84.6191 235.128 82.8794C234.911 80.8134 232.954 79.5086 233.388 78.8562C233.715 78.4212 234.693 78.9649 236.977 78.7475C237.955 78.6387 239.151 78.53 239.151 78.2038C239.26 77.6601 236.324 76.899 232.845 76.0291C229.257 75.1592 226.756 74.7242 226.756 74.7242C213.925 72.767 210.554 71.0273 208.923 72.9845C207.836 74.2893 207.836 76.464 208.706 77.8776Z" fill="white" stroke="#111111" stroke-width="0.75" stroke-miterlimit="10"/>
<path d="M81.3767 21.009C78.1146 22.7488 78.4408 29.0555 78.6583 32.535C78.767 35.3621 79.4194 39.7115 81.7029 44.6046C61.5869 54.8257 41.4709 65.0468 21.4636 75.2679C21.2461 76.3552 20.5937 79.6172 22.2248 83.2055C23.4209 85.7064 25.1607 87.2287 26.1393 87.8811C26.5742 87.5549 26.9004 87.12 27.3353 86.7938C39.5137 88.9685 52.6706 92.2305 66.3713 97.3411C69.3071 98.4284 72.0254 99.5158 74.7438 100.712C74.4176 101.364 73.9827 102.125 73.6564 102.778C73.9827 102.995 76.4836 104.3 79.4195 103.213C81.8116 102.343 83.1164 100.059 83.4426 99.4071C86.9221 93.3179 105.298 70.4835 123.022 68.0914C124.762 67.8739 125.958 67.8739 135.418 69.5049C160.645 73.7456 186.523 73.963 211.424 79.726C212.729 80.0522 216.317 80.9221 218.274 79.0736C219.905 77.5513 219.579 74.7242 219.253 72.767C163.907 58.7401 140.637 52.4335 137.593 50.8025C137.375 50.6937 135.853 49.8238 133.678 48.954C131.395 47.9753 129.22 47.3229 127.48 46.7793C125.306 46.7793 116.172 46.4531 113.997 42.6473C113.78 42.2124 113.127 41.0163 113.562 40.1464C113.997 39.2766 115.519 38.8416 117.259 39.1678C115.302 37.9717 112.475 36.5581 108.887 35.6883C105.407 34.9271 104.211 35.3621 101.928 34.2747C99.1005 32.9699 99.318 31.4476 95.5122 27.3157C90.293 21.7702 86.596 21.0091 85.7261 20.7916C84.2038 20.5741 82.7902 20.2479 81.3767 21.009Z" fill="#111111"/>
<path d="M67.3501 224.344C67.3501 223.909 67.3501 223.474 67.0239 223.148C66.6977 222.93 66.4802 222.93 66.0452 222.93C65.0666 222.821 64.1968 221.951 64.1968 221.517C64.1968 220.864 66.9152 219.994 68.0025 221.082C68.8724 221.843 68.1112 223.039 68.7636 223.691C69.9597 224.779 73.9829 223.148 76.0489 220.32C76.5925 219.668 78.0061 217.602 77.3537 215.862C77.3537 215.862 77.3537 215.754 77.245 215.645C76.1576 213.361 75.8314 212.926 75.3965 212.057C74.9615 210.86 74.6353 209.991 74.9615 209.447C75.5052 208.795 77.2449 209.121 77.4624 209.773C77.5711 210.208 77.0275 210.426 76.3751 211.622C76.0488 212.165 75.9401 212.709 75.8314 213.035" stroke="#111111" stroke-width="0.75" stroke-miterlimit="10"/>
<path d="M68.5459 223.039C68.7634 226.844 69.5245 229.345 70.1769 230.976C70.5031 231.737 71.1555 233.042 70.6118 234.347C70.2856 235.217 69.5245 235.652 68.8721 235.978" stroke="#111111" stroke-width="0.75" stroke-miterlimit="10"/>
<path d="M69.0898 252.941C69.6335 253.159 70.5034 253.485 71.6994 253.376C72.1344 253.376 73.5479 253.158 75.5052 250.984C77.1362 249.135 78.0061 247.069 78.6585 244.46C79.9633 239.458 78.9847 239.24 79.9634 236.631C81.9206 231.412 86.4874 231.303 87.466 227.062C87.7922 225.54 87.7923 223.148 85.5088 219.777" stroke="#111111" stroke-width="0.75" stroke-miterlimit="10"/>
<path d="M57.4551 97.776C56.9114 98.6459 55.1716 101.69 55.7153 105.931C56.2589 110.063 58.7599 112.564 59.4123 113.325C61.587 107.345 63.7617 101.364 65.9364 95.3838" stroke="#111111" stroke-width="0.75" stroke-miterlimit="10"/>
<path d="M137.701 23.7278C139.767 23.5103 141.833 23.4016 143.79 23.1841C145.095 24.2714 146.291 25.3588 147.596 26.4461C144.769 26.9898 142.051 27.5335 139.223 27.9685C138.68 26.5549 138.245 25.1413 137.701 23.7278Z" stroke="#111111" stroke-width="0.75" stroke-miterlimit="10"/>
<path d="M143.03 25.6845C141.29 26.1194 139.659 25.6844 139.659 25.3582C139.767 24.9233 144.552 24.4884 144.661 24.9233C144.661 25.1408 143.682 25.467 143.03 25.6845Z" fill="#1D1D1B" stroke="#111111" stroke-width="0.75" stroke-miterlimit="10"/>
<path d="M128.459 27.5332C129.003 28.1856 129.981 29.273 131.721 29.5992C132.047 29.7079 132.373 29.7079 132.7 29.7079" stroke="#111111" stroke-width="0.75" stroke-miterlimit="10"/>
<path d="M139.441 35.362C139.768 35.9057 140.964 37.6455 143.138 37.9717C144.878 38.2979 147.597 37.6454 147.923 36.2319C148.249 34.927 146.618 33.6223 146.4 33.4048" stroke="#111111" stroke-width="0.75" stroke-miterlimit="10"/>
<path d="M142.921 34.9272C143.03 35.1447 143.247 35.3621 143.573 35.2534C144.008 35.2534 144.117 34.601 144.552 34.4922C145.313 34.2748 146.4 35.3621 146.183 35.9058C145.965 36.3407 145.096 36.5582 144.117 36.4494" stroke="#111111" stroke-width="0.75" stroke-miterlimit="10"/>
<path d="M140.746 36.8847C138.789 40.4729 136.832 41.9952 135.31 42.5389C134.548 42.8651 133.026 43.3001 131.504 44.7136C130.743 45.4748 130.09 46.1272 129.764 46.6708C129.982 47.1058 130.09 47.5407 130.308 47.8669C130.743 47.2145 131.069 46.8883 131.395 46.6708C131.504 46.5621 131.83 46.3446 132.265 46.2359C133.57 45.9097 134.222 47.4319 136.071 47.6494C137.049 47.7582 137.049 47.432 138.137 47.5407C139.333 47.6494 140.203 48.1931 141.073 48.7368C141.073 48.7368 142.704 49.7154 145.096 50.8028C148.358 52.4338 151.62 52.2163 153.36 52.2163C154.991 52.1076 156.513 52.1076 158.253 51.3464C161.95 49.8241 163.689 46.6708 164.342 45.6922C166.625 41.669 166.19 37.7546 165.321 29.8169C164.451 21.988 162.82 18.9434 161.95 19.0521C161.624 19.1608 161.189 19.5958 160.754 19.4871C160.21 19.2696 160.319 18.291 159.666 17.9648C159.231 17.7473 158.905 18.1823 158.47 18.0735C157.057 17.8561 156.948 14.0503 156.513 14.159C156.187 14.159 156.404 15.6813 155.643 16.1162C154.882 16.5512 153.903 15.3551 153.142 15.7901C152.599 16.1163 152.925 17.0949 152.164 17.6386C151.402 18.291 150.424 17.856 150.206 18.1822C149.88 18.7259 151.402 19.5958 152.164 21.1181C153.577 23.7277 152.381 27.0985 152.272 27.5334C150.75 31.7741 146.836 33.2964 146.401 33.5139C146.618 33.6226 147.162 34.0575 147.488 34.6012C147.597 34.8187 148.032 35.5798 147.923 36.2322C147.597 37.6458 144.335 38.6245 141.943 37.6458C141.399 37.4284 140.964 36.9934 140.746 36.8847Z" fill="#111111"/>
<path d="M145.748 22.314C146.292 22.5314 147.162 23.0751 147.923 24.2712C148.358 24.9236 148.575 25.4673 148.684 26.011" stroke="#111111" stroke-width="0.75" stroke-miterlimit="10"/>
<path d="M141.725 21.3354C142.051 21.9879 142.486 22.6402 142.812 23.1839" stroke="#111111" stroke-width="0.75" stroke-miterlimit="10"/>
<path d="M147.597 26.3374C147.488 28.8383 147.27 31.2305 147.162 33.7314" stroke="#111111" stroke-width="0.75" stroke-miterlimit="10"/>
<path d="M128.568 49.6065C128.459 49.389 127.915 48.5191 128.242 47.5405C128.35 47.2143 128.568 46.9968 128.894 46.7794C129.22 46.4532 129.873 46.0183 130.96 45.8008" stroke="#111111" stroke-width="0.75" stroke-miterlimit="10"/>
<path d="M114.867 38.7332C116.28 39.3856 117.259 39.3856 117.803 39.2769C119.107 39.0594 119.542 38.0808 121.391 37.1022C122.261 36.5585 123.131 36.341 123.674 36.1235" stroke="#111111" stroke-width="0.75" stroke-miterlimit="10"/>
<path d="M115.193 44.061C115.52 45.1484 115.628 46.3445 114.976 47.1056C113.889 48.193 111.605 47.2144 108.995 46.7794C102.254 45.8008 96.5997 49.3891 95.0774 50.2589C91.7066 52.3249 91.8154 53.8472 88.9883 56.3481C80.7244 63.7421 72.8955 57.5442 64.1967 63.7421C57.2376 68.7439 58.3249 75.5942 51.5834 77.1165C48.3213 77.8777 46.6903 76.5728 42.3409 78.0951C40.3836 78.7475 35.5993 80.3786 34.9469 84.1843C34.512 87.0114 36.5779 89.4036 37.1216 90.056" stroke="white" stroke-width="0.75" stroke-miterlimit="10"/>
<path d="M110.844 47.3228C111.605 48.0839 111.822 48.9538 111.605 49.7149C111.387 50.2586 110.844 50.911 110.518 50.8023C110.083 50.6936 110.083 49.4974 110.3 48.7363C110.409 47.9752 110.626 47.5402 110.844 47.3228Z" stroke="white" stroke-width="0.75" stroke-miterlimit="10"/>
<path d="M114.65 41.6689C112.366 42.865 111.823 43.7349 111.823 44.3873C111.823 45.0397 112.475 45.366 112.366 45.8009C112.258 46.4533 111.062 46.7795 110.083 46.997" stroke="#111111" stroke-width="0.75" stroke-miterlimit="10"/>
<path d="M116.172 40.6905C115.302 40.3643 110.953 41.7778 110.953 43.735C110.953 44.4962 111.496 44.7136 111.388 45.3661C111.17 46.4534 109.213 46.4534 109.213 46.8884C109.213 47.4321 112.366 48.5194 115.411 47.5408C116.172 47.3233 117.803 46.7796 118.02 45.5835C118.238 44.4962 116.716 43.9525 116.716 42.2127C116.716 41.8865 116.716 41.1254 116.281 40.7992C116.389 40.7992 116.281 40.6905 116.172 40.6905Z" fill="white"/>
<path d="M112.149 40.3638C112.149 41.0162 112.149 42.321 112.91 43.7345C113.671 45.2568 114.759 46.018 115.411 46.3442C116.825 47.3228 118.238 47.5402 118.999 47.649" stroke="#111111" stroke-width="0.75" stroke-miterlimit="10"/>
<path d="M79.0938 78.5303C79.3112 82.8797 79.5287 87.2291 79.7462 91.5785" stroke="white" stroke-width="0.75" stroke-miterlimit="10"/>
</svg>
