<svg width="241" height="174" viewBox="0 0 241 174" fill="none" xmlns="http://www.w3.org/2000/svg">
<path d="M56.5639 97.0158C51.0184 101.256 48.0826 106.15 49.2786 109.847C50.1485 112.565 53.1931 113.87 56.9988 115.501C64.3928 118.654 68.0898 117.023 73.5266 120.394C74.179 120.829 75.4838 121.59 78.4196 123.547C79.507 124.308 80.9205 125.178 82.769 126.266C85.8136 128.114 88.2058 129.528 89.8368 130.397C85.2699 133.986 80.5944 137.683 75.9187 141.597C73.6353 143.446 71.4606 145.403 69.2859 147.251C69.2859 147.36 69.2859 148.665 70.2645 149.535C71.1344 150.296 72.2217 150.187 72.4392 150.187C74.179 149.1 76.6799 147.686 79.6157 146.273C85.9224 143.337 91.0329 142.032 95.926 140.727C100.275 139.531 106.038 138.335 112.889 137.574C119.848 138.553 125.502 139.314 128.873 139.749C160.297 144.098 173.128 145.838 198.137 149.209C200.964 149.644 205.531 150.187 211.076 151.166C211.185 151.057 211.946 150.622 212.273 149.644C212.599 148.448 211.838 147.578 211.729 147.469C199.768 142.25 189.547 139.531 182.153 137.9C182.153 137.9 159.427 133.007 147.358 125.722C145.074 124.308 141.812 122.025 141.269 118.437C140.942 116.262 141.812 114.413 142.356 113.326C142.138 113.109 141.703 112.891 141.269 112.456C131.809 105.062 126.807 102.561 121.261 98.7556C107.343 89.0781 105.277 81.358 95.1649 80.7056C93.7513 80.5968 92.6639 80.7056 92.0115 80.7056C92.229 82.0104 92.4465 83.2065 92.6639 84.5113C87.9883 88.7519 80.4856 94.5149 69.9383 98.2119C65.154 99.9517 60.5871 100.93 56.7814 101.474C56.8901 100.169 56.7814 98.6468 56.5639 97.0158Z" fill="#111111"/>
<path d="M29.597 37.6464C28.5096 37.8639 28.1834 38.1901 28.0747 38.5163C27.966 38.7338 28.0747 38.7338 28.0747 39.06C28.0747 39.06 28.0747 39.7124 27.6398 40.3648C27.3135 41.0172 26.8786 41.126 26.2262 41.5609C25.7912 41.8871 25.2476 42.4308 24.8126 43.1919C24.1602 43.4094 23.0729 43.6269 21.8768 43.5181C18.506 42.9745 17.8536 39.6037 14.3741 36.2329C11.2207 33.0796 9.04605 33.297 6.43641 31.5573C6.00147 31.2311 5.02284 30.5787 4.04423 29.7088C3.28308 28.8389 1.65207 26.8817 1.1084 23.4021C1.1084 23.2934 1.21711 23.1847 1.32585 22.9672C1.54332 22.5323 1.97828 22.0973 2.19575 21.9886C2.73942 21.6624 3.50056 21.9886 4.26171 22.2061C5.89274 22.7497 6.11021 22.3148 7.6325 22.7497C10.0247 23.4021 12.6343 24.4895 14.3741 25.7943C14.7003 26.0118 14.7003 26.1205 14.9177 26.2293C16.1138 26.8817 17.2012 26.6642 18.7235 26.5555C20.6807 26.4467 22.4205 26.6642 24.7039 27.0991C25.3563 27.2079 25.7913 27.3166 26.1175 27.3166" stroke="#111111" stroke-width="0.75" stroke-miterlimit="10"/>
<path d="M36.4478 29.6002C36.0128 28.8391 35.6866 28.6216 35.3604 28.6216C35.1429 28.6216 35.1429 28.6216 33.7294 29.1653C33.2944 29.274 32.8595 29.4915 32.3158 29.6002C31.7721 29.7089 31.5547 29.7089 29.9236 29.7089C28.2926 29.7089 28.5101 29.8177 27.7489 29.7089C27.0965 29.6002 26.3354 29.3827 26.1179 29.3827C25.0306 29.0565 24.9218 28.8391 24.7043 28.9478C24.0519 29.274 24.5956 31.7749 24.7043 32.3186C24.8131 32.971 25.683 36.0156 27.314 36.8855C27.7489 37.1029 28.5101 37.4291 29.1625 37.4291C29.7062 37.4291 29.8149 37.3204 30.576 37.1029C31.4459 36.8855 32.642 36.5592 33.6206 37.1029C34.4905 37.5379 34.5992 38.1903 35.1429 38.1903C35.6866 38.1903 36.2303 37.4291 36.4478 36.8855C34.3818 34.2758 34.5993 33.0797 34.8167 32.6448C34.9255 32.3186 35.3604 31.5574 35.7953 30.7963C36.1215 30.1439 36.339 29.8177 36.4478 29.6002Z" fill="#3848D8"/>
<path d="M26.1178 27.3161C26.8789 27.2074 27.5313 27.6423 27.64 28.186C27.7488 28.6209 27.5313 29.1646 27.0964 29.2733C26.2265 29.7083 25.2479 28.4034 24.7042 28.7296C23.3994 29.4908 25.9003 36.5586 28.075 37.1022C28.1837 37.1022 29.5973 37.4285 29.5973 37.4285C29.706 37.6459 29.8148 37.8634 29.9235 38.2983C29.9235 38.2983 30.0322 38.6245 29.706 39.0595C29.2711 39.8206 27.2051 40.908 27.2051 40.908C26.3352 41.6691 25.4653 42.4303 24.5954 43.0827" stroke="#111111" stroke-width="0.75" stroke-miterlimit="10"/>
<path d="M26.5529 29.2736C26.118 29.0562 25.5743 28.8387 24.7044 28.6212C23.2909 28.295 22.6385 28.4037 21.2249 28.1863C19.3764 27.9688 19.7026 27.5339 18.1803 27.3164C16.1143 27.0989 14.8095 27.6426 14.3746 26.9902C14.1571 26.664 14.2658 26.229 14.3746 25.9028" stroke="#111111" stroke-width="0.75" stroke-miterlimit="10"/>
<path d="M149.314 120.176C148.988 120.502 147.901 121.372 147.901 122.568C147.901 123.438 148.445 124.09 148.879 124.525C149.206 122.459 149.532 121.481 149.858 121.481C150.293 121.481 150.619 123.221 150.945 126.809C150.619 125.069 151.815 123.764 152.794 123.764C153.664 123.764 154.751 124.743 154.86 126.265C155.947 125.287 156.926 124.308 158.013 123.329C159.97 125.395 165.19 130.18 170.192 129.201C171.714 128.875 174.323 127.896 175.193 127.57C175.846 127.353 177.912 126.483 180.521 125.069C182.914 123.764 184.11 123.112 184.98 122.133C186.284 120.611 186.719 118.871 186.937 118.11C187.372 116.479 187.154 115.718 187.263 113.326C187.263 112.13 187.48 110.39 187.807 108.215C189.329 109.303 190.851 110.499 192.482 111.586C191.395 110.064 190.308 108.433 189.22 106.91C189.546 106.91 191.504 107.019 193.026 105.497C194.657 103.866 195.092 101.039 194.113 100.169C192.7 98.9727 188.242 101.909 185.632 103.648C184.98 102.996 183.457 101.582 181.5 99.6251C177.586 95.8193 176.716 95.2757 175.411 94.8407C173.345 94.0796 171.388 94.0796 170.192 94.0796C168.017 94.0796 166.277 94.5145 165.407 94.8407C161.71 96.0368 159.101 98.3203 155.839 101.147C152.576 103.974 151.163 101.582 149.967 103.105C146.814 107.128 152.685 117.023 149.314 120.176Z" fill="#111111"/>
<path d="M1.10874 23.4019C1.00001 23.9455 1 24.5979 1 25.3591C1 25.794 1.10872 26.9901 1.76113 28.2949C2.63101 30.0347 4.04457 31.0133 6.21927 32.3181C7.41536 33.0793 8.06777 33.4055 9.04639 33.7317C10.025 34.0579 10.5687 34.1666 11.2211 34.4928C11.7648 34.7103 12.1997 35.0365 12.1997 35.1452C12.7434 35.5802 13.3958 36.2326 14.3744 38.2986C15.1355 39.8209 14.9181 39.8208 15.353 40.6907C15.4617 41.0169 16.5491 42.7567 18.3976 43.7353C21.3335 45.1489 24.2693 43.6266 24.7042 43.4091" stroke="#111111" stroke-width="0.75" stroke-miterlimit="10"/>
<path d="M44.3856 8.50507C44.7118 7.63519 44.9293 6.65659 44.4943 6.22165C44.0594 5.89544 43.5157 6.22164 42.1022 6.43911C41.5585 6.54785 39.275 6.87405 37.2091 6.43911C36.6654 6.33038 36.013 6.22164 35.2519 6.1129C34.382 6.00417 34.2732 6.00417 33.5121 5.89544C32.316 5.67797 32.0985 5.4605 31.8811 5.67797C31.4461 6.00418 31.6636 7.6352 32.316 9.15749C32.7509 10.2448 33.7296 12.0933 36.013 13.7244C36.1217 13.8331 36.3392 14.0506 36.5567 14.0506C36.9916 14.0506 37.2091 13.7244 37.644 13.5069C38.7314 13.072 40.1449 13.9418 40.3624 14.1593C41.1235 14.5943 41.2323 15.0292 41.6672 15.1379C42.2109 15.1379 42.6458 14.4855 42.8633 14.0506C42.7546 13.8331 41.776 12.0933 42.6458 10.3536C43.1895 9.26623 44.0594 8.72254 44.3856 8.50507Z" fill="#3848D8"/>
<path d="M56.9985 101.691C56.6723 99.7334 56.3461 96.6888 56.6723 92.9918C57.216 85.5979 59.7169 80.1611 60.8043 77.9864C70.373 57.5442 75.3748 47.2144 73.635 39.2767C71.569 29.4905 63.8489 23.0752 60.2606 20.4655C59.4994 19.9219 58.7383 19.4869 58.7383 19.4869C54.1714 16.4423 49.822 15.0288 46.6687 14.2676C46.2338 14.5938 45.7988 15.0288 45.3639 15.355C45.2551 14.92 45.1464 14.3764 45.0377 13.9414C44.6027 14.2676 44.059 14.7026 43.6241 15.0288C43.4066 14.7026 43.2979 14.2676 43.0804 13.9414C42.863 13.724 42.2106 12.5279 42.428 11.0056C42.7543 9.04835 44.3853 8.17847 44.494 8.06974C44.7115 7.85227 45.0377 7.63479 45.2551 7.41732C45.6901 7.85226 46.0163 8.17847 46.4512 8.61341C46.8862 8.17847 47.2124 7.74353 47.6473 7.30859C47.8648 7.85227 48.191 8.2872 48.4085 8.83088C52.2142 9.26582 57.7597 10.3532 63.8488 12.9628C68.1982 14.92 82.7687 21.1179 88.3142 35.2535C89.7278 38.733 90.2715 42.2126 90.4889 50.0415C90.7064 59.6102 90.054 73.5283 86.4658 90.7084" stroke="#111111" stroke-width="0.75" stroke-miterlimit="10"/>
<path d="M61.1303 77.2256C62.8701 73.8548 65.4797 67.4394 65.371 59.0668C65.2622 54.3912 65.2622 48.302 61.1303 43.0827C54.28 34.3839 41.558 35.4713 40.1444 35.58C39.927 36.1237 39.6008 36.5586 39.3833 37.1023C38.9483 36.5586 38.5134 36.015 37.9697 35.4713C37.7523 36.1237 37.4261 36.7761 37.2086 37.3198C36.7736 36.9936 36.23 36.3412 35.795 35.4713C35.3601 34.7101 34.8164 33.7315 35.0339 32.6442C35.2514 31.1219 36.4474 30.252 36.7737 29.9258C36.9911 29.3821 37.3173 28.7297 37.5348 28.186C37.9698 28.621 38.4047 29.0559 38.8396 29.4909C39.0571 29.0559 39.3833 28.621 39.6008 28.186C40.0357 28.5122 40.3619 28.8384 40.7969 29.0559C44.6026 28.4035 53.1927 27.6424 62.5439 31.6656C67.6544 33.949 71.3514 36.8848 73.7436 39.1683" stroke="#111111" stroke-width="0.75" stroke-miterlimit="10"/>
<path d="M140.29 112.782C141.269 113.217 143.552 114.087 146.162 113.326C146.814 113.108 147.249 112.891 147.793 112.673" stroke="#111111" stroke-width="0.75" stroke-miterlimit="10"/>
<path d="M141.377 125.613C142.464 124.635 144.095 123.33 146.27 122.351C148.01 121.59 149.641 121.155 150.946 120.938" stroke="#111111" stroke-width="0.75" stroke-miterlimit="10"/>
<path d="M208.358 148.23C207.923 149.643 213.795 152.905 217.926 154.754C223.254 157.146 229.452 158.777 229.67 158.016C229.779 157.69 228.8 156.711 223.689 153.993C226.299 153.014 229.887 151.6 234.237 149.534C234.672 149.317 240.217 146.599 240.108 146.164C240 145.946 238.151 146.599 233.258 148.012C231.301 148.556 229.67 148.991 228.583 149.317C229.561 148.773 230.866 147.903 232.497 146.816C236.085 144.424 240.761 140.944 240.543 140.509C240.217 140.074 232.606 144.315 232.171 144.533C229.344 146.164 227.386 147.36 227.278 147.142C227.169 146.925 228.691 145.729 230.757 143.771C233.476 141.053 235.977 138.009 235.759 137.791C235.433 137.465 229.344 142.684 228.8 143.119C226.951 144.75 225.538 146.055 225.429 145.837C225.32 145.729 226.082 144.75 227.386 142.793C228.148 141.706 229.996 138.77 229.779 138.552C229.67 138.552 229.452 138.552 226.625 141.379C224.994 143.01 224.886 143.01 224.451 143.445C222.602 145.076 220.754 145.729 219.666 146.164C214.012 148.447 208.793 146.925 208.358 148.23Z" stroke="#111111" stroke-width="0.75" stroke-miterlimit="10"/>
<path d="M75.8097 146.055C74.9398 144.859 68.4157 148.012 64.8274 149.752C62.544 150.839 54.0626 154.971 54.4976 155.95C54.6063 156.276 56.0199 156.385 61.8916 154.862C59.7169 160.408 59.8256 164.648 60.1518 167.258C60.478 169.107 61.1304 171.499 61.3479 171.499C61.5654 171.499 61.4566 169.324 61.5654 166.823C61.6741 163.561 62.2178 160.843 62.7615 158.994C62.6527 160.734 62.544 163.235 63.0877 166.171C63.7401 169.65 65.0449 173.021 65.3711 172.912C65.6973 172.804 65.2624 170.629 64.9362 166.714C64.7187 163.344 64.7187 160.516 64.7187 158.668C64.8274 160.625 65.1536 163.344 66.3497 166.497C67.6546 169.868 69.503 172.804 69.8292 172.695C70.1554 172.586 68.9594 169.976 67.9808 165.845C67.3284 162.691 67.1109 159.973 67.1109 158.233C67.1109 159.429 67.3283 161.169 68.1982 163.017C69.3943 165.627 71.3515 167.367 71.569 167.258C71.7865 167.041 70.0467 165.192 69.6118 162.039C69.5031 160.951 69.3943 159.429 70.1555 156.819C72.2214 149.86 76.5708 147.033 75.8097 146.055Z" stroke="#111111" stroke-width="0.75" stroke-miterlimit="10"/>
<path d="M192.156 49.6071C199.115 36.6676 194.114 20.901 182.37 14.7031C169.213 7.63534 153.338 11.9847 146.27 25.1417C139.202 38.2986 144.204 54.6089 157.361 61.6767C163.885 65.1562 171.17 65.6999 177.695 63.7426L174.324 52.7604C170.409 54.0652 166.06 53.8477 162.145 51.7818C155.621 48.3023 152.468 40.6908 154.425 33.9492L190.09 52.9779C190.852 51.8905 191.504 50.8032 192.156 49.6071ZM159.427 25.9028C164.103 21.8796 170.409 21.1185 176.281 24.1631C182.588 27.5339 184.871 32.9706 184.11 39.0598L159.427 25.9028Z" fill="#111111"/>
<path d="M143.66 110.716C143.117 106.693 148.988 102.67 151.598 101.365C154.751 99.7342 157.47 99.0817 157.47 99.0817C158.557 98.8643 158.883 98.7555 159.644 98.5381C161.819 97.7769 162.363 97.0158 163.885 96.4721C163.994 96.4721 163.994 96.3634 164.103 96.3634C164.755 96.1459 166.495 95.4935 169.539 95.3848C170.627 95.3848 171.17 95.276 171.279 95.3848C173.454 96.0372 174.432 99.5167 174.867 101.256C174.976 101.691 175.085 102.018 175.194 102.67C175.52 104.41 175.955 106.15 175.846 107.889C175.846 108.868 175.737 111.478 174.215 113.978C173.997 114.305 173.236 115.392 171.714 116.697C167.691 120.068 163.124 120.611 163.124 120.829C163.124 120.938 164.103 120.938 167.908 120.285C169.539 121.916 169.648 122.895 169.431 123.438C168.778 125.504 163.45 126.592 159.753 124.635C158.883 124.2 158.231 123.656 157.796 123.221C156.817 123.112 155.404 122.895 153.99 122.134C153.338 121.807 152.794 121.481 152.359 121.155C148.118 117.675 145.183 113.435 145.183 113.435C144.204 112.021 143.769 111.26 143.66 110.716Z" fill="white" stroke="#111111" stroke-width="0.75" stroke-miterlimit="10"/>
<path d="M163.341 99.8428C163.233 99.2991 159.644 99.0817 158.775 100.278C158.448 100.713 158.448 101.256 158.883 101.583C159.971 102.018 163.559 100.386 163.341 99.8428Z" fill="#1D1D1B" stroke="#111111" stroke-width="0.75" stroke-miterlimit="10"/>
<path d="M165.842 109.52C165.842 110.063 162.472 111.803 161.384 111.151C160.949 110.933 160.841 110.389 161.167 109.955C162.037 108.976 165.842 108.867 165.842 109.52Z" fill="#1D1D1B" stroke="#111111" stroke-width="0.75" stroke-miterlimit="10"/>
<path d="M164.973 104.518C160.732 106.367 158.014 106.04 156.383 105.388C155.078 104.844 153.882 103.974 153.338 104.409C152.577 104.953 153.121 106.91 153.556 108.432" stroke="#111111" stroke-width="0.75" stroke-miterlimit="10"/>
<path d="M158.013 104.301L157.035 99.6255C156.817 98.7556 157.47 97.777 158.34 97.6682L163.015 96.6896C163.885 96.4721 164.864 97.1245 164.973 97.9944L165.951 102.67C166.169 103.54 165.516 104.519 164.646 104.627L159.971 105.606C159.101 105.823 158.231 105.171 158.013 104.301Z" stroke="#111111" stroke-width="0.75" stroke-miterlimit="10"/>
<path d="M160.731 117.132L159.209 109.956C158.992 109.086 159.644 108.107 160.514 107.998L165.19 107.02C166.059 106.802 167.038 107.455 167.147 108.325L168.669 115.501C168.887 116.371 168.234 117.35 167.364 117.458L162.689 118.437C161.819 118.654 160.84 118.111 160.731 117.132Z" stroke="#111111" stroke-width="0.75" stroke-miterlimit="10"/>
<path d="M149.423 108.215C149.532 109.085 149.75 110.934 151.163 112.782C151.816 113.543 152.468 114.087 153.12 114.522" stroke="#111111" stroke-width="0.75" stroke-miterlimit="10"/>
<path d="M152.794 105.823C152.142 105.932 151.816 106.367 151.924 106.802C152.033 107.237 152.577 107.563 153.121 107.237" stroke="#111111" stroke-width="0.75" stroke-miterlimit="10"/>
<path d="M160.514 123.655C159.862 124.199 159.21 124.851 158.557 125.395" stroke="#111111" stroke-width="0.75" stroke-miterlimit="10"/>
<path d="M161.602 124.09C161.167 124.851 160.732 125.613 160.297 126.374" stroke="#111111" stroke-width="0.75" stroke-miterlimit="10"/>
<path d="M161.493 122.894C162.146 123.329 162.907 123.764 163.124 123.655C163.45 123.438 162.689 122.459 163.233 122.133C163.777 121.698 166.386 122.459 166.277 123.329C166.277 123.981 164.973 124.416 164.864 124.525" stroke="#111111" stroke-width="0.75" stroke-miterlimit="10"/>
<path d="M165.407 94.8408C165.733 95.0583 168.126 96.4718 168.343 99.4077C168.452 100.93 167.908 102.235 167.582 102.67" stroke="#111111" stroke-width="0.75" stroke-miterlimit="10"/>
<path d="M168.235 106.367C168.67 106.693 170.627 108.215 171.171 110.934C171.714 113.543 170.736 115.5 170.41 116.044" stroke="#111111" stroke-width="0.75" stroke-miterlimit="10"/>
<path d="M93.4248 85.9247C92.7724 83.2063 92.2288 80.3792 91.6851 77.5521C91.0327 74.1813 90.489 70.9193 89.9453 67.6572" stroke="#111111" stroke-width="0.75" stroke-miterlimit="10"/>
<path d="M151.598 106.91C151.815 106.91 151.924 106.802 152.141 106.802L151.598 106.91Z" fill="white"/>
<path d="M151.598 106.91C151.815 106.91 151.924 106.802 152.141 106.802" stroke="#111111" stroke-width="0.75" stroke-miterlimit="10"/>
<path d="M164.973 104.518C165.081 104.518 165.625 104.844 165.843 105.497C166.06 106.258 165.408 106.91 165.408 106.91" stroke="#111111" stroke-width="0.75" stroke-miterlimit="10"/>
<path d="M168.452 116.805C168.234 118.001 168.126 119.197 167.908 120.393" stroke="#111111" stroke-width="0.75" stroke-miterlimit="10"/>
<path d="M23.1818 41.2346C24.0517 39.9297 24.0517 39.2773 23.8342 38.8424C23.2906 37.755 21.2246 38.2987 18.9412 36.8852C17.8538 36.2327 17.0927 35.3629 16.6577 34.7104" stroke="#111111" stroke-width="0.75" stroke-miterlimit="10"/>
<path d="M38.079 14.3768C36.9916 14.703 36.6654 15.1379 36.5567 15.4641C36.5567 15.6816 36.5567 15.6816 36.5567 16.1165C36.5567 16.1165 36.5567 16.7689 36.2305 17.5301C35.9043 18.2912 35.4693 18.4 34.8169 19.0524C34.382 19.4873 33.947 20.031 33.5121 21.0096C32.7509 21.3358 31.7723 21.7707 30.4675 21.662C26.8793 21.4445 25.6832 17.965 21.66 14.8117C17.963 11.8758 15.6795 12.3108 12.6349 10.8972C12.0913 10.6798 11.0039 10.1361 9.91657 9.15748C8.93795 8.39633 7.08946 6.54783 6.11084 2.85084C6.11084 2.7421 6.21958 2.52464 6.21958 2.4159C6.43705 1.87223 6.76327 1.43728 6.98074 1.21981C7.52442 0.784871 8.3943 1.11108 9.15544 1.21981C11.0039 1.65475 11.1127 1.11108 12.8524 1.32855C15.4621 1.65476 18.3979 2.52464 20.3551 3.72072C20.6813 3.93819 20.7901 3.9382 21.0076 4.04693C22.4211 4.59061 23.5085 4.26439 25.0308 3.93819C27.0967 3.61198 28.9452 3.61199 31.4461 3.82946C32.0985 3.82946 32.6422 3.93819 32.9684 3.93819" stroke="#111111" stroke-width="0.75" stroke-miterlimit="10"/>
<path d="M33.0769 3.82965C33.9468 3.61218 34.7079 4.04712 34.8167 4.59079C34.9254 5.02573 34.8166 5.56941 34.3817 5.89561C33.6205 6.43929 32.3157 5.13446 31.7721 5.5694C30.4672 6.54802 34.0555 13.7245 36.3389 14.0507C36.5564 14.0507 38.0787 14.2682 38.0787 14.2682C38.1874 14.4857 38.4049 14.7032 38.5136 15.1381C38.5136 15.1381 38.6224 15.4643 38.4049 16.008C38.0787 16.8779 36.0127 18.1827 36.0127 18.1827C35.1428 19.0526 34.3817 19.9224 33.5118 20.9011" stroke="#111111" stroke-width="0.75" stroke-miterlimit="10"/>
<path d="M33.8377 5.8954C33.4028 5.78667 32.7504 5.5692 31.8805 5.35173C30.3582 5.13426 29.7058 5.35173 28.1835 5.35173C26.2263 5.24299 26.4438 4.80805 24.8127 4.80805C22.638 4.80805 21.3332 5.56921 20.7895 4.9168C20.572 4.59059 20.5721 4.15564 20.6808 3.7207" stroke="#111111" stroke-width="0.75" stroke-miterlimit="10"/>
<path d="M6.11084 2.74219C6.11084 3.28586 6.11085 3.93827 6.21958 4.80815C6.32832 5.24309 6.54579 6.54791 7.41567 7.85273C8.61176 9.59249 10.1341 10.4624 12.5262 11.5497C13.9398 12.2021 14.7009 12.4196 15.6795 12.6371C16.6582 12.8545 17.3106 12.9633 18.0717 13.1807C18.7241 13.3982 19.1591 13.6157 19.2678 13.7244C19.9202 14.0506 20.6813 14.703 21.9862 16.769C22.9648 18.2913 22.7473 18.4 23.291 19.1612C23.5085 19.4874 24.8133 21.2271 26.8792 21.9883C30.1413 23.0756 33.0772 21.2271 33.5121 20.9009" stroke="#111111" stroke-width="0.75" stroke-miterlimit="10"/>
<path d="M21.3335 7.52669C24.3781 6.98301 25.5742 7.52668 26.0091 8.28783C26.9877 9.59265 25.4655 11.8761 26.6615 13.5071C27.0965 14.1595 27.8576 14.4857 28.2926 14.5945" stroke="#111111" stroke-width="0.75" stroke-miterlimit="10"/>
<path d="M80.2676 36.5585C82.7685 35.6886 85.2694 34.9275 87.7703 34.0576" stroke="#111111" stroke-width="0.75" stroke-miterlimit="10"/>
<path d="M83.7476 39.3857C85.4873 38.5158 87.1183 37.7546 88.8581 36.8848" stroke="#111111" stroke-width="0.75" stroke-miterlimit="10"/>
<path d="M75.2661 101.69C74.2875 99.733 72.3303 95.1661 72.7652 89.0769C73.4177 81.6829 77.4409 76.7899 78.8544 75.2676C77.9845 77.6598 76.8972 81.9004 77.3321 87.1197C77.767 91.7953 79.1806 95.3836 80.268 97.5583" stroke="#111111" stroke-width="0.75" stroke-miterlimit="10"/>
<path d="M69.938 41.8864C70.9166 40.7991 71.7865 39.603 72.7651 38.5156" stroke="#111111" stroke-width="0.75" stroke-miterlimit="10"/>
<path d="M45.69 9.91895C45.4725 10.5714 45.2551 11.3325 45.0376 11.9849" stroke="#111111" stroke-width="0.75" stroke-miterlimit="10"/>
<path d="M38.4046 31.0127C38.4046 31.8826 38.2959 32.7525 38.2959 33.6223" stroke="#111111" stroke-width="0.75" stroke-miterlimit="10"/>
<path d="M71.0254 43.5179C72.004 42.9742 72.9826 42.5393 73.9613 41.9956" stroke="#111111" stroke-width="0.75" stroke-miterlimit="10"/>
<path d="M142.79 116.697C141.268 115.609 138.876 114.196 135.722 113.217C128.22 110.825 125.501 113.652 120.499 111.369C115.171 108.977 117.455 105.497 109.952 99.5166C105.276 95.8196 101.688 95.1672 100.275 91.0353C99.2961 88.4256 100.057 86.6859 98.7524 85.4898C96.6864 83.6413 91.9021 85.5985 88.2051 87.5558" stroke="white" stroke-width="0.75" stroke-miterlimit="10"/>
<path d="M141.486 115.609C139.855 116.37 138.876 117.457 139.094 118.219C139.202 118.436 139.42 118.762 139.637 118.762C140.29 118.871 140.942 117.566 141.486 115.609Z" stroke="#111111" stroke-width="0.75" stroke-miterlimit="10"/>
<path d="M86.792 130.179C87.5531 130.179 88.6405 130.288 90.054 130.505C96.2519 131.484 96.9044 133.767 102.015 135.072C107.343 136.377 110.496 134.964 113.106 137.682C113.65 138.334 113.976 138.878 114.193 139.313" stroke="white" stroke-width="0.75" stroke-miterlimit="10"/>
<path d="M80.2676 102.996C80.7025 107.128 81.2462 111.259 81.6811 115.391" stroke="white" stroke-width="0.75" stroke-miterlimit="10"/>
</svg>
