<svg width="155" height="41" viewBox="0 0 155 41" fill="none" xmlns="http://www.w3.org/2000/svg">
<path d="M102.73 20.8579C102.73 24.2121 100.015 26.9275 96.6606 26.9275V20.8579H102.73Z" fill="#FF3D00"/>
<path d="M90.5908 20.8586C90.5908 17.5044 93.3062 14.7891 96.6604 14.7891V20.8586H90.5908Z" fill="#F8F8F8"/>
<path d="M96.6602 14.7749C100.014 14.7749 102.73 17.4902 102.73 20.8445H96.6602V14.7749Z" fill="#3848D8"/>
<path d="M96.6604 26.9275C93.3062 26.9275 90.5908 24.2121 90.5908 20.8579H96.6604V26.9275Z" fill="#FFDB73"/>
<path d="M29.256 20.951C29.256 17.6234 30.6403 14.9346 33.9679 14.9346C37.2955 14.9346 38.6798 17.6234 38.6798 20.951V30.7208H42.8327V19.7663C42.8327 17.1708 44.8825 14.9746 47.478 14.948C50.8588 14.8947 52.2165 17.61 52.2165 20.9643V30.6543H56.1032V20.8312C56.1032 14.7084 53.0018 10.6354 47.3715 10.6354C44.1105 10.6354 42.5265 12.1528 40.6631 14.522L40.6364 14.4821C40.6364 14.4688 40.6098 14.4555 40.6098 14.4422C38.946 12.0729 37.1757 10.6221 33.9679 10.6221C32.0379 10.6221 30.5471 11.4074 29.2427 12.592V11.1279H25.0898V30.7075H29.2427L29.256 20.951Z" fill="#111111"/>
<path d="M130.269 13.683C128.406 11.7663 125.797 10.5683 122.922 10.5817C117.292 10.595 112.74 15.1738 112.753 20.8041C112.766 26.4344 117.345 30.9865 122.975 30.9732C125.837 30.9599 128.406 29.7886 130.256 27.8852L127.434 25.1033C126.343 26.2081 124.826 26.9002 123.148 26.9135C119.821 26.9269 117.119 24.2382 117.119 20.9105C117.105 17.5829 119.794 14.8809 123.122 14.8809C124.786 14.8809 126.29 15.5464 127.381 16.6379L130.269 13.683Z" fill="#111111"/>
<path d="M142.422 29.8022L137.896 40.3174L142.541 40.3041L155 11.0078L150.621 11.0211L144.951 24.5445L138.934 11.0478L134.302 11.0611L142.422 29.8022Z" fill="#111111"/>
<path d="M72.3154 10.5419C70.1858 10.5419 68.2158 11.1941 66.592 12.2988L66.5787 0C66.5787 0 62.5722 0 62.0797 0C61.5872 0 62.0797 30.7205 62.0797 30.7205H66.4855V29.0966C68.136 30.2546 70.1458 30.9334 72.3154 30.9334C77.9458 30.9334 82.5112 26.368 82.5112 20.7377C82.4979 15.1073 77.9324 10.5419 72.3154 10.5419ZM72.5018 26.8738C69.1742 26.8738 66.4855 24.185 66.4855 20.8574C66.4855 17.5298 69.1742 14.8411 72.5018 14.8411C75.8294 14.8411 78.3451 17.5298 78.3451 20.8574C78.3451 24.1717 75.8161 26.8738 72.5018 26.8738Z" fill="#111111"/>
<path d="M102.45 11.0606V11.7661L102.464 12.2586C100.84 11.1671 98.8965 10.5415 96.7935 10.5415C91.1631 10.5415 86.5977 15.107 86.5977 20.7373C86.5977 26.3676 91.1631 30.9331 96.7935 30.9331C98.9231 30.9331 100.893 30.2809 102.53 29.1628V30.8266H107.056V11.0606H102.45ZM96.6603 26.8734C93.3327 26.8734 90.644 24.1847 90.644 20.8571C90.644 17.5295 93.3327 14.8408 96.6603 14.8408C99.988 14.8408 102.677 17.5295 102.677 20.8571C102.69 24.1714 99.988 26.8734 96.6603 26.8734Z" fill="#111111"/>
<path d="M19.9656 20.6979C19.9656 15.041 15.4268 10.6353 10.3422 10.6353C4.61872 10.6353 0 14.9611 0 20.6979C0 26.4347 4.64534 31.0668 10.3688 31.0668C13.2039 31.0668 15.7862 29.9221 17.6496 28.0719L14.5217 24.944C13.4435 26.0887 11.9128 26.8074 10.2091 26.8074C7.37398 26.8074 4.92486 24.8242 4.3392 22.1621H19.8725C19.939 21.6962 19.9656 21.1904 19.9656 20.6979ZM4.5921 18.5949C5.43066 16.372 7.44053 14.9745 9.98282 14.9745C12.7115 14.9745 14.4951 16.412 15.3336 18.5949H4.5921Z" fill="#111111"/>
</svg>
