<svg width="354" height="274" viewBox="0 0 354 274" fill="none" xmlns="http://www.w3.org/2000/svg">
<path d="M300.126 111.482C298.747 111.033 296.618 110.41 294.038 109.965C290.384 109.316 288.453 108.928 287.59 110.053C286.609 111.277 287.884 112.917 287.382 116.148C286.985 118.187 286.084 119.745 285.457 120.672C285.489 121.548 285.709 122.768 286.471 124.036C288.569 127.495 292.563 126.754 297.926 129.081C302.756 131.251 303.531 133.612 306.61 135.847C306.916 136.092 308.158 136.856 309.726 137.649C311.195 138.323 313.747 139.093 317.242 139.073C317.821 138.687 318.538 137.986 318.732 137.02C319.568 133.71 314.196 131.492 309.303 125.059C305.3 119.686 305.181 116.074 302.673 113.561" stroke="#111111" stroke-width="0.75" stroke-miterlimit="10"/>
<path d="M287.951 105.937C287.674 105.367 287.358 105.23 286.766 104.523C286.064 103.806 285.669 103.335 285.58 103.109C285.5 102.775 285.468 101.898 287.914 100.149C288.568 101.407 289.122 102.547 289.776 103.805C290.802 104.55 292.201 104.782 293.341 104.227C294.707 103.583 295.5 102.015 295.2 100.461C295.069 99.4671 294.938 98.4732 294.797 97.5876C295.023 97.4983 296.842 96.6756 297.76 97.4112C298.569 98.1372 298.436 99.6536 298.223 100.836C297.982 102.343 297.51 102.738 297.485 104.264C297.409 105.13 297.578 105.691 297.738 106.36C298.287 108.809 299.326 110.647 300.187 112.033C300.563 112.721 300.958 113.192 301.146 113.536C301.01 113.851 300.647 114.256 300.284 114.661C299.93 114.957 298.997 115.639 296.487 115.637C294.636 115.584 291.584 115.534 290.121 113.55C289.834 113.088 289.655 112.636 289.416 111.632C288.909 109.951 289.093 109.094 288.398 107.068C288.318 106.733 288.13 106.389 287.951 105.937Z" fill="#FFDB73"/>
<path d="M302.701 113.236C302.513 112.892 302.217 112.538 302.255 112.105C302.283 111.78 302.627 111.592 302.863 111.394C303.471 110.684 303.792 109.511 303.496 109.158C303.101 108.686 300.397 109.65 300.155 111.157C299.952 112.23 301.322 112.787 301.128 113.753C300.768 115.358 296.529 116.405 293.228 115.46C292.38 115.167 289.937 114.407 289.429 112.725C289.429 112.725 289.439 112.617 289.34 112.499C288.899 110.059 288.839 109.508 288.599 108.504C288.271 107.275 288.022 106.38 287.382 106.214C286.524 106.03 285.318 107.343 285.586 108.021C285.774 108.365 286.325 108.305 287.587 108.852C288.109 109.116 288.632 109.38 288.938 109.626" stroke="#111111" stroke-width="0.75" stroke-miterlimit="10"/>
<path d="M301.086 112.984C303.212 116.118 304.086 118.596 304.475 120.377C304.625 121.154 304.926 122.709 306.178 123.365C307.006 123.874 307.892 123.733 308.551 123.682" stroke="#111111" stroke-width="0.75" stroke-miterlimit="10"/>
<path d="M318.496 137.218C318.232 137.74 317.722 138.569 316.69 139.133C316.346 139.321 314.971 140.074 312.183 139.501C309.828 138.967 307.846 137.92 305.705 136.204C301.619 133.007 302.345 132.197 299.968 130.679C295.214 127.641 291.481 130.37 288.244 127.466C287.02 126.485 285.665 124.511 285.367 120.446" stroke="#111111" stroke-width="0.75" stroke-miterlimit="10"/>
<path d="M320.926 33.7349C319.56 34.3789 317.623 35.3004 315.422 36.7444C312.298 38.7622 310.677 39.8206 310.671 41.1299C310.755 42.6654 312.911 42.9639 314.633 45.7348C315.79 47.4737 316.071 49.2449 316.301 50.3566C316.903 50.9553 317.92 51.8086 319.309 52.1489C323.142 53.2496 325.613 49.9737 331.129 48.0568C336.086 46.309 338.265 47.592 342.015 47.1572C342.457 47.087 343.894 46.8857 345.477 46.2606C346.942 45.7344 349.44 44.6438 351.952 42.1357C352.117 41.4953 352.095 40.5109 351.629 39.5968C350.035 36.6188 344.509 38.644 336.56 37.1818C329.901 35.9421 327.393 33.4296 323.917 33.2335" stroke="#111111" stroke-width="0.75" stroke-miterlimit="10"/>
<path d="M308.22 37.9674C307.579 37.802 306.929 37.745 306.378 37.8057C305.945 37.7677 305.61 37.8474 305.078 37.6916C304.753 37.663 304.655 37.5452 304.546 37.5357C303.826 37.0358 304.676 34.8182 304.685 34.7099C305.641 35.0121 306.715 35.2156 307.671 35.5178C308.005 35.4381 309.579 34.9213 310.489 33.2548C311.135 32.1109 311.014 31.0087 310.944 30.5659C309.889 30.1458 308.943 29.7352 307.878 29.4235C308.916 27.5499 310.33 26.3642 311.394 26.676C312.035 26.8414 312.618 27.6567 313.182 28.6886C313.657 29.4944 313.737 29.8289 314.123 30.4085C314.419 30.762 314.824 31.125 315.751 31.7522C317.804 33.2423 319.932 33.8658 321.429 34.2157C322.178 34.3906 322.818 34.556 323.143 34.5845C323.223 34.919 323.293 35.3617 323.236 36.0117C323.198 36.4449 322.985 37.6269 321.09 39.3161C319.785 40.5113 317.419 42.5957 314.956 42.052C314.424 41.8961 313.901 41.6319 313.073 41.1225C311.623 40.2311 311.04 39.4158 309.265 38.4958C309.058 38.3685 308.643 38.1138 308.22 37.9674Z" fill="#FFDB73"/>
<path d="M324.026 33.2438C323.592 33.2058 323.168 33.0594 322.98 32.7154C322.792 32.3715 322.92 32.1643 322.958 31.7311C322.935 30.7467 322.371 29.7147 321.829 29.6672C321.179 29.6101 319.868 32.1146 320.738 33.3917C321.312 34.3154 322.669 33.7796 323.144 34.5854C324.004 35.9708 321.604 39.6895 318.527 41.1658C317.731 41.5325 315.45 42.642 313.902 41.6328C313.902 41.6328 313.793 41.6233 313.694 41.5054C311.642 40.0154 311.346 39.6619 310.419 39.0347C309.275 38.3884 308.554 37.8886 307.984 38.1659C307.178 38.6409 307.243 40.3931 307.874 40.6668C308.189 40.8036 308.661 40.4084 309.9 39.9715C310.46 39.8024 311.011 39.7416 311.454 39.6714" stroke="#111111" stroke-width="0.75" stroke-miterlimit="10"/>
<path d="M322.63 34.2129C326.374 35.0874 328.671 36.2716 330.112 37.2713C330.724 37.7617 332.065 38.6436 333.403 38.3244C334.298 38.0756 334.897 37.4732 335.269 36.9602" stroke="#111111" stroke-width="0.75" stroke-miterlimit="10"/>
<path d="M351.915 40.0591C352.085 40.6197 352.216 41.6136 351.904 42.6777C351.757 43.1015 351.309 44.4811 348.882 46.0144C346.809 47.2513 344.585 47.711 341.938 48.0242C336.771 48.4437 336.758 47.351 333.983 47.8714C328.434 48.9122 327.502 53.3057 323.221 53.5846C321.577 53.6585 319.331 53.1338 316.409 50.3666" stroke="#111111" stroke-width="0.75" stroke-miterlimit="10"/>
<path d="M94.6042 153.575C94.0721 153.419 93.69 154.041 92.7569 154.723C91.4893 155.485 91.0941 155.013 89.5206 155.53C88.1637 156.066 88.1161 156.608 84.6478 158.813C84.3038 159.002 83.9503 159.298 83.498 159.477C82.4851 159.824 81.3733 160.054 78.5512 161.116C77.6466 161.473 77.3027 161.661 77.2931 161.77C77.3634 162.212 84.467 160.872 84.6361 161.432C84.7956 162.101 75.7365 164.58 75.9055 165.141C75.9853 165.475 79.4991 165.238 82.9901 164.016C84.5637 163.5 85.7134 162.837 85.8123 162.954C85.9111 163.072 85.3219 163.566 78.7006 168.115C78.121 168.501 77.5413 168.886 77.5318 168.995C77.6211 169.221 80.2171 168.248 82.6154 167.04C85.3673 165.535 87.1348 164.053 87.1252 164.161C87.2241 164.279 80.3993 169.901 80.6957 170.255C80.8934 170.491 83.1929 169.164 85.0496 167.909C88.0752 165.773 89.4189 164.144 89.932 164.517C90.6522 165.017 88.7932 168.783 89.2075 169.038C89.6217 169.292 91.739 166.313 93.2064 163.276C93.3528 162.853 93.9097 161.483 94.8069 158.723C95.0902 157.984 95.3924 157.028 95.29 155.709C95.347 155.06 95.2446 153.741 94.6042 153.575Z" fill="white" stroke="#111111" stroke-width="0.75" stroke-miterlimit="10"/>
<path d="M225.293 180.552C224.615 180.82 224.364 182.436 224.692 183.665C225.011 185.003 225.77 185.07 226.531 186.337C227.392 187.723 227.485 189.15 227.789 191.905C227.952 193.775 227.975 194.76 227.654 195.932C227.157 197.853 226.087 198.851 226.294 198.978C226.502 199.106 227.425 198.532 228.269 197.623C230.084 195.6 229.879 192.962 230.096 192.981C230.312 193 230.495 194.653 230.168 197.135C229.764 200.484 228.835 202.367 228.934 202.485C229.141 202.612 231.475 199.651 231.709 195.743C231.772 193.783 231.236 192.426 231.354 192.328C231.58 192.238 232.9 195.847 233.702 200.393C234.063 202.498 234.203 203.384 234.42 203.403C234.853 203.441 235.572 200.23 235.108 196.805C234.617 193.706 233.173 191.505 233.182 191.397C233.29 191.406 234.339 193.136 235.43 195.633C236.779 198.917 237.139 201.022 237.366 200.933C237.592 200.844 237.533 197.782 236.735 194.437C235.938 191.093 234.159 188.972 234.866 188.379C235.22 188.083 235.822 188.681 237.24 188.697C239.307 188.769 241.154 187.621 241.084 187.179C241.004 186.844 240.01 186.975 237.971 186.578C237.971 186.578 236.681 186.355 235.419 185.808C230.462 183.844 226.79 180.902 226.79 180.902C226.357 180.864 225.745 180.374 225.293 180.552Z" fill="white" stroke="#111111" stroke-width="0.75" stroke-miterlimit="10"/>
<path d="M91.3015 155.14C98.9209 145.44 109.783 133.623 124.426 122.247C137.076 112.443 149.252 105.544 159.387 100.758C162.261 94.1337 165.469 87.4296 169.031 80.4291C175.764 67.1579 182.815 55.2245 189.87 44.4922C191.892 42.5958 194.648 42.2921 196.521 43.3298C197.873 44.1034 198.408 45.4603 198.577 46.0209C197.437 46.5757 196.287 47.2388 195.147 47.7936C196.435 50.5264 198.039 53.3961 200.174 56.4216C207.649 67.0111 217.069 72.8594 223.448 76.0393C224.941 75.1881 226.435 74.3369 228.037 73.4953C228.847 74.2213 229.844 75.2913 230.813 76.6862C231.199 77.2659 233.838 80.7723 233.944 83.2921C234.166 88.2235 228.035 92.1604 225.835 93.6044C219.341 97.946 210.15 105.653 196.728 120.52C203.308 131.358 209.84 142.738 216.334 154.551C221.502 164.065 226.472 173.343 231.226 182.601C230.726 183.322 229.863 184.447 228.468 185.416C227.427 186.088 226.513 186.554 225.726 186.812C208.209 166.281 195.355 151.071 188.011 141.476C187.23 140.425 182.026 135.056 171.744 124.111C168.742 121.009 164.643 116.719 163.258 117.58C162.678 117.966 162.682 119.167 162.803 120.269C127.944 139.366 103.954 152.759 99.6135 156.198C98.916 156.682 96.2059 158.955 93.9883 158.105C92.392 157.638 91.6396 156.262 91.3015 155.14Z" fill="#111111"/>
<path d="M349.468 38.0976C349.666 38.3333 349.854 38.6773 349.934 39.0117C350.087 40.99 346.049 43.4733 341.965 43.9879C339.092 44.3904 339.187 43.3073 335.683 43.4361C334.59 43.4493 330.525 43.7472 326.604 46.1318C324.757 47.2794 324.827 47.7221 322.999 48.6531C320.483 49.9603 318.151 50.4104 316.508 50.4844" stroke="#111111" stroke-width="0.75" stroke-miterlimit="10"/>
<path d="M318.002 43.4113C318.897 43.1625 320.372 42.5279 321.923 41.0268C322.884 40.0198 323.521 38.9841 323.804 38.2449" stroke="#111111" stroke-width="0.75" stroke-miterlimit="10"/>
<path d="M186.64 53.9233C199.233 44.7688 210.664 38.8961 218.952 35.2578C233.61 28.6861 259.645 18.0925 290.329 24.1711C299.343 25.9451 306.41 28.7488 311.033 30.7921C311.004 31.1171 311.059 32.9775 309.744 34.281C309.028 34.9822 308.123 35.3393 307.68 35.4096C304.252 34.6719 300.49 34.014 296.482 33.662C274.474 31.9475 256.532 39.8682 246.076 45.8265" stroke="#111111" stroke-width="0.75" stroke-miterlimit="10"/>
<path d="M194.965 56.0735C196.714 54.808 224.358 35.8418 256.077 48.7788C277.575 57.5435 292.61 77.7475 295.143 101.11C294.863 103.051 293.548 104.354 291.993 104.654C290.891 104.776 290.053 104.375 289.639 104.12C287.279 98.6734 279.831 84.0477 263.415 75.8384C258.397 73.3237 247.729 68.0207 234.802 71.0333C228.448 72.5491 223.712 75.5169 220.903 77.6716C212.375 70.3734 203.719 63.2824 194.965 56.0735Z" stroke="#111111" stroke-width="0.75" stroke-miterlimit="10"/>
<path d="M169.758 128.084C166.934 125.435 164.076 124.419 162.48 123.952C158.322 122.823 152.623 123.086 151.764 125.412C151.353 126.358 152.064 126.967 151.657 129.114C151.434 130.404 151.081 130.701 150.75 131.981C150.556 132.947 150.225 134.228 150.389 136.097C149.494 136.346 148.806 136.723 148.56 137.028C148.207 137.325 147.618 137.819 147.688 138.262C147.749 138.813 148.38 139.087 148.893 139.459C151.665 141.449 151.444 146.451 151.269 147.199C151.222 147.741 151.075 148.165 151.075 148.165C151.155 148.499 151.107 149.041 151.277 149.601C151.277 149.601 151.759 152.809 153.174 155.335C154.877 158.322 158.694 160.841 162.753 161.852C168.418 163.223 175.334 161.538 179.011 156.949C184.16 150.525 182.903 138.735 173.932 131.507" fill="white"/>
<path d="M169.758 128.084C166.934 125.435 164.076 124.419 162.48 123.952C158.322 122.823 152.623 123.086 151.764 125.412C151.353 126.358 152.064 126.967 151.657 129.114C151.434 130.404 151.081 130.701 150.75 131.981C150.556 132.947 150.225 134.228 150.389 136.097C149.494 136.346 148.806 136.723 148.56 137.028C148.207 137.325 147.618 137.819 147.688 138.262C147.749 138.813 148.38 139.087 148.893 139.459C151.665 141.449 151.444 146.451 151.269 147.199C151.222 147.741 151.075 148.165 151.075 148.165C151.155 148.499 151.107 149.041 151.277 149.601C151.277 149.601 151.759 152.809 153.174 155.335C154.877 158.322 158.694 160.841 162.753 161.852C168.418 163.223 175.334 161.538 179.011 156.949C184.16 150.525 182.903 138.735 173.932 131.507" stroke="#111111" stroke-width="0.75" stroke-miterlimit="10"/>
<path d="M161.652 117.222C162.436 119.474 163.221 121.726 164.006 123.978" stroke="#111111" stroke-width="0.75" stroke-miterlimit="10"/>
<path d="M175.624 124.67C175.134 125.282 173.86 127.353 174.065 129.991C174.196 130.985 174.455 131.771 174.732 132.341" stroke="#111111" stroke-width="0.75" stroke-miterlimit="10"/>
<path d="M29.5045 224.921C22.2743 220.247 18.2957 213.348 23.0777 206.128C27.7514 198.897 35.6586 199.592 42.8794 204.374L64.2548 218.258L70.1829 209.173L46.1149 193.633C40.4332 189.969 38.5888 182.385 42.1449 176.693C46.8376 169.247 54.6175 170.148 61.9561 174.831L83.1244 188.588L88.6705 180.125L67.1867 166.231C53.8701 157.53 40.5733 158.545 32.5089 170.826C27.8448 177.948 28.9939 183.507 31.5073 190.932L31.3989 190.922L31.2906 190.913C23.7311 191.231 18.1154 193.03 13.569 200.053C10.796 204.285 10.4155 208.618 11.2169 213.163L8.02081 211.027L2.0927 220.112L44.8436 247.88L50.7717 238.795L29.5045 224.921Z" fill="#111111"/>
<path d="M206.501 71.386C211.355 68.3194 216.11 65.1349 220.963 62.0683C219.631 61.0781 216.633 59.1774 212.587 59.2587C206.907 59.3056 200.658 63.3413 201.004 66.8646C201.326 69.4034 205.338 70.9564 206.501 71.386Z" stroke="#111111" stroke-width="0.75" stroke-miterlimit="10"/>
<path d="M318.113 134.127C318.084 134.452 318.056 134.777 317.81 135.083C316.584 136.613 311.866 135.653 308.689 133.3C306.331 131.565 307.156 130.873 304.511 128.676C303.701 127.95 300.534 125.489 296.032 124.547C293.884 124.141 293.639 124.446 291.718 123.95C289.048 123.279 286.986 121.897 285.654 120.907" stroke="#111111" stroke-width="0.75" stroke-miterlimit="10"/>
<path d="M291.38 116.608C292.218 117.009 293.805 117.585 295.773 117.54C297.201 117.447 298.322 117.109 299.109 116.85" stroke="#111111" stroke-width="0.75" stroke-miterlimit="10"/>
<path d="M154.952 141.302C155.809 141.487 156.178 145.994 155.273 146.351C154.821 146.53 153.931 145.47 153.692 144.466C153.284 142.902 154.411 141.255 154.952 141.302Z" fill="#1D1D1B" stroke="#111111" stroke-width="0.75" stroke-miterlimit="10"/>
<path d="M159.313 147.579C158.403 149.245 156.673 150.294 155.058 150.043C153.975 149.948 153.264 149.34 152.958 149.095" stroke="#111111" stroke-width="0.75" stroke-miterlimit="10"/>
<path d="M157.876 131.625C157.344 131.469 156.496 131.176 155.404 131.189C154.311 131.203 153.534 131.353 152.973 131.522" stroke="#111111" stroke-width="0.75" stroke-miterlimit="10"/>
<path d="M165.582 137.104C166.005 137.251 168.449 138.011 169.332 140.381C170.047 142.19 169.908 145.016 168.443 145.542C167.312 145.989 165.989 144.89 165.683 144.645" stroke="#111111" stroke-width="0.75" stroke-miterlimit="10"/>
<path d="M178.215 134.94C178.799 135.755 180.102 137.07 180.587 137.768C180.685 137.885 180.775 138.112 180.874 138.229C181.518 139.596 181.065 139.774 181.827 141.042C182.669 142.644 183.644 142.73 183.972 143.959C184.231 144.746 183.976 145.16 183.588 147.091C182.987 150.204 183.274 150.665 182.466 153.651C182.126 155.04 181.843 155.779 181.343 156.499C180.961 157.121 180.735 157.21 180.225 158.038C179.589 159.074 179.668 159.409 179.197 159.804C178.608 160.298 178.42 159.954 177.605 160.537C176.681 161.111 176.751 161.554 176.073 161.822C175.286 162.08 175.098 161.736 174.419 162.004C173.515 162.361 173.557 163.129 172.888 163.288C172.337 163.349 172.266 162.906 171.499 162.948C170.839 162.999 170.801 163.433 169.906 163.681C169.454 163.86 169.364 163.634 168.154 163.746C167.169 163.769 167.052 163.867 166.392 163.919C165.516 163.951 165.526 163.842 164.334 163.738C162.926 163.614 162.916 163.722 162.384 163.567C161.537 163.274 161.457 162.939 160.798 162.991C160.039 162.924 159.893 163.348 159.371 163.084C159.154 163.065 159.163 162.956 158.462 162.24C157.959 161.759 157.761 161.523 157.554 161.396C157.041 161.023 156.815 161.113 156.41 160.75C155.907 160.269 156.161 159.855 155.658 159.374C155.253 159.011 155.027 159.1 154.947 158.766C154.877 158.323 155.683 157.848 156.243 157.679C156.804 157.51 157.247 157.439 158.123 157.407C158.556 157.445 159.215 157.394 159.964 157.569C160.821 157.753 160.812 157.862 161.254 157.791C162.13 157.759 162.286 157.227 162.936 157.284C163.694 157.351 163.953 158.137 164.405 157.959C164.857 157.78 164.491 156.984 165.01 156.047C165.637 155.12 166.532 154.871 166.462 154.428C166.391 153.985 165.84 154.046 165.563 153.476C165.384 153.024 165.61 152.935 165.54 152.492C165.381 151.823 164.721 151.874 164.759 151.441C164.788 151.116 165.141 150.819 165.848 150.227C166.555 149.634 166.781 149.544 166.8 149.328C166.838 148.895 166.08 148.828 165.714 148.032C165.337 147.344 165.691 147.047 165.315 146.359C164.948 145.563 164.387 145.732 164.011 145.044C163.546 144.13 163.876 142.849 164.201 142.878C164.536 142.798 164.568 143.674 165.683 144.645C166.286 145.244 166.818 145.4 167.035 145.419C167.35 145.556 167.99 145.721 168.443 145.543C169.573 145.096 169.901 142.614 169.502 140.942C169.281 139.722 168.698 138.907 168.303 138.435C169.411 137.004 170.424 136.657 171.201 136.507C172.087 136.366 173.16 136.57 173.316 136.038C173.453 135.722 173.147 135.477 173.293 135.053C173.44 134.629 173.981 134.677 174.335 134.381C175.061 133.571 173.993 132.058 174.573 131.673C175.035 131.386 175.971 131.905 176.475 132.385C177.511 133.022 177.138 133.535 178.215 134.94Z" fill="#111111"/>
<path d="M164.711 119.673C164.322 117.892 163.91 115.127 164.934 112.161C165.978 108.978 168.099 107.2 170.003 105.402C170.003 105.402 175.137 100.395 179.499 94.2292C186.869 83.6337 183.677 76.4767 188.87 68.3096C189.497 67.3823 191.981 65.199 194.48 61.5982C195.98 59.4376 195.864 57.0261 197.565 56.3022C198.932 55.6582 200.627 56.2437 201.672 56.7721" stroke="white" stroke-width="0.75" stroke-miterlimit="10"/>
<path d="M197.448 82.4883C201.627 80.8905 205.924 79.194 210.103 77.5962" stroke="white" stroke-width="0.75" stroke-miterlimit="10"/>
<path d="M182.063 63.782C181.543 61.0074 181.013 58.3412 180.384 55.5571" stroke="white" stroke-width="0.75" stroke-miterlimit="10"/>
</svg>
