<svg width="260" height="92" viewBox="0 0 260 92" fill="none" xmlns="http://www.w3.org/2000/svg">
<path d="M118.946 58.6114C118.342 52.6796 117.801 46.7494 117.197 40.8176C120.716 41.0331 124.235 41.2486 127.755 41.4012C127.988 47.0718 128.284 52.744 128.516 58.4775" stroke="#111111" stroke-width="0.75" stroke-miterlimit="10" stroke-linecap="round" stroke-linejoin="round"/>
<path d="M136.199 40.9871C133.419 41.4198 131.978 46.1036 132.208 49.4453C132.429 53.1015 134.834 57.5057 137.478 57.5101C140.372 57.5208 143.273 52.3706 142.567 47.9468C142.03 44.3455 138.916 40.5527 136.199 40.9871Z" stroke="#111111" stroke-width="0.75" stroke-miterlimit="10" stroke-linecap="round" stroke-linejoin="round"/>
<path d="M162.365 41.5904C157.448 41.9058 153.568 45.9611 153.448 50.6786C153.336 55.0816 156.57 59.0662 161.015 59.9977" stroke="#111111" stroke-width="0.75" stroke-miterlimit="10" stroke-linecap="round" stroke-linejoin="round"/>
<path d="M170.53 42.2391C166.537 43.3333 163.682 46.7223 163.46 50.4931C163.217 55.0816 166.882 59.4549 172.028 60.0265" stroke="#111111" stroke-width="0.75" stroke-miterlimit="10" stroke-linecap="round" stroke-linejoin="round"/>
<path d="M176.413 43.5215C176.214 48.8664 176.08 54.15 175.88 59.4949C179.72 59.4668 182.226 57.4536 182.2 56.0053C182.172 54.6199 179.764 52.7962 176.241 52.7694" stroke="#111111" stroke-width="0.75" stroke-miterlimit="10" stroke-linecap="round" stroke-linejoin="round"/>
<path d="M185.309 42.6785C185.29 48.3427 185.209 54.0052 185.189 59.7323" stroke="#111111" stroke-width="0.75" stroke-miterlimit="10" stroke-linecap="round" stroke-linejoin="round"/>
<path d="M190.095 59.8571C190.348 57.346 191.73 42.5901 194.186 42.5268C196.643 42.4635 198.845 57.3106 199.223 59.7749" stroke="#111111" stroke-width="0.75" stroke-miterlimit="10" stroke-linecap="round" stroke-linejoin="round"/>
<path d="M202.992 42.751C203.165 48.2942 203.276 53.8358 203.45 59.379" stroke="#111111" stroke-width="0.75" stroke-miterlimit="10" stroke-linecap="round" stroke-linejoin="round"/>
<path d="M207.688 43.6889C206.234 46.4212 204.719 49.0891 203.265 51.8214C205.528 54.3967 207.726 57.0332 209.989 59.6085" stroke="#111111" stroke-width="0.75" stroke-miterlimit="10" stroke-linecap="round" stroke-linejoin="round"/>
<path d="M219.175 59.7166C217.23 59.4783 215.285 59.2399 213.34 59.0016C213.094 53.8342 212.911 48.6684 212.665 43.501C214.615 43.5506 216.627 43.6019 218.577 43.6516" stroke="#111111" stroke-width="0.75" stroke-miterlimit="10" stroke-linecap="round" stroke-linejoin="round"/>
<path d="M218.288 52.5191C216.651 52.5403 215.077 52.5632 213.441 52.5845" stroke="#111111" stroke-width="0.75" stroke-miterlimit="10" stroke-linecap="round" stroke-linejoin="round"/>
<path d="M230.865 43.0205C230.904 48.9379 230.94 54.9182 231.041 60.8372" stroke="#111111" stroke-width="0.75" stroke-miterlimit="10" stroke-linecap="round" stroke-linejoin="round"/>
<path d="M231.119 55.3003C233.2 55.1645 235.28 55.0286 237.359 54.9557" stroke="#111111" stroke-width="0.75" stroke-miterlimit="10" stroke-linecap="round" stroke-linejoin="round"/>
<path d="M237.473 43.0627C237.577 48.8559 237.618 54.6475 237.722 60.4407" stroke="#111111" stroke-width="0.75" stroke-miterlimit="10" stroke-linecap="round" stroke-linejoin="round"/>
<path d="M240.8 60.7081C241.108 53.5407 241.727 44.0524 243.114 43.9619C244.564 43.8729 246.272 53.4205 247.413 60.4989" stroke="#111111" stroke-width="0.75" stroke-miterlimit="10" stroke-linecap="round" stroke-linejoin="round"/>
<path d="M250.041 43.8235C250.4 49.4973 250.758 55.1711 251.056 60.7804C253.641 60.5945 256.163 60.4069 258.749 60.221C258.822 54.8729 258.834 49.4603 258.907 44.1123" stroke="#111111" stroke-width="0.75" stroke-miterlimit="10" stroke-linecap="round" stroke-linejoin="round"/>
<path d="M254.625 44.1919C254.867 49.548 255.045 54.9025 255.288 60.1957" stroke="#111111" stroke-width="0.75" stroke-miterlimit="10" stroke-linecap="round" stroke-linejoin="round"/>
<path d="M241.029 56.6228C242.979 56.6725 244.929 56.7221 246.816 56.7702" stroke="#111111" stroke-width="0.75" stroke-miterlimit="10" stroke-linecap="round" stroke-linejoin="round"/>
<path d="M120.475 87.5401C120.135 81.1115 119.797 74.6201 119.394 68.1899C120.406 68.0268 125.337 67.1453 126.978 69.453C128.678 71.888 126.514 77.7494 120.215 82.9389" stroke="#111111" stroke-width="0.75" stroke-miterlimit="10" stroke-linecap="round" stroke-linejoin="round"/>
<path d="M128.768 88.129C129.466 80.468 130.93 67.4766 132.881 67.4634C134.77 67.4485 136.327 80.4539 137.139 88.0905" stroke="#111111" stroke-width="0.75" stroke-miterlimit="10" stroke-linecap="round" stroke-linejoin="round"/>
<path d="M129.358 82.2278C131.748 82.2887 134.076 82.3479 136.466 82.4088" stroke="#111111" stroke-width="0.75" stroke-miterlimit="10" stroke-linecap="round" stroke-linejoin="round"/>
<path d="M142.648 86.783C142.173 80.7286 141.697 74.6742 141.222 68.6198C143.556 68.4275 145.889 68.2351 148.223 68.0428" stroke="#111111" stroke-width="0.75" stroke-miterlimit="10" stroke-linecap="round" stroke-linejoin="round"/>
<path d="M142.065 80.0336C145.411 79.6153 147.954 81.0648 148.171 82.455C148.385 83.9081 146.247 86.3083 142.585 86.7815" stroke="#111111" stroke-width="0.75" stroke-miterlimit="10" stroke-linecap="round" stroke-linejoin="round"/>
<path d="M153.693 68.2451C149.707 71.5424 151.487 85.6864 155.108 86.8486C155.919 87.1211 156.686 86.6371 156.815 86.5145C160.722 83.8446 159.651 69.0892 156.036 67.6754C155.041 67.2095 154.014 68.0015 153.693 68.2451Z" stroke="#111111" stroke-width="0.75" stroke-miterlimit="10" stroke-linecap="round" stroke-linejoin="round"/>
<path d="M164.9 68.09C162.714 74.832 163.768 80.3976 166.505 81.6632C167.065 81.9292 168.252 82.2741 170.348 81.5093" stroke="#111111" stroke-width="0.75" stroke-miterlimit="10" stroke-linecap="round" stroke-linejoin="round"/>
<path d="M170.109 68.6633C170.02 74.6404 169.992 80.682 169.902 86.6591" stroke="#111111" stroke-width="0.75" stroke-miterlimit="10" stroke-linecap="round" stroke-linejoin="round"/>
<path d="M189.468 69.6599C189.385 75.3854 189.239 81.1093 189.156 86.8348C191.316 81.0992 193.476 75.3637 195.699 69.6298C195.611 75.544 195.461 81.4566 195.373 87.3708" stroke="#111111" stroke-width="0.75" stroke-miterlimit="10" stroke-linecap="round" stroke-linejoin="round"/>
<path d="M190.981 67.0549C191.925 67.079 192.931 67.1046 193.875 67.1286" stroke="#111111" stroke-width="0.75" stroke-miterlimit="10" stroke-linecap="round" stroke-linejoin="round"/>
<path d="M175.706 68.8059C175.367 74.7137 175.029 80.5586 174.69 86.4664C177.663 80.9404 180.634 75.4773 183.607 69.9513C183.595 75.3638 183.646 80.778 183.634 86.1906" stroke="#111111" stroke-width="0.75" stroke-miterlimit="10" stroke-linecap="round" stroke-linejoin="round"/>
<path d="M214.556 70.5508C209.901 72.9499 208.521 77.6982 210.031 80.1914C211.541 82.6845 216.248 83.1821 219.135 81.0526C222.471 78.5571 222.744 72.7735 220.025 70.816C217.986 69.3164 215.064 70.3749 214.556 70.5508ZM214.556 70.5508C214.599 76.2795 214.705 82.0098 214.749 87.6756" stroke="#111111" stroke-width="0.75" stroke-miterlimit="10" stroke-linecap="round" stroke-linejoin="round"/>
<path d="M223.245 87.703C223.712 81.7355 224.769 69.8667 226.597 69.7873C228.424 69.708 230.196 81.6489 230.989 87.5855" stroke="#111111" stroke-width="0.75" stroke-miterlimit="10" stroke-linecap="round" stroke-linejoin="round"/>
<path d="M223.779 81.5486C225.858 81.4757 227.935 81.4657 230.077 81.3943" stroke="#111111" stroke-width="0.75" stroke-miterlimit="10" stroke-linecap="round" stroke-linejoin="round"/>
<path d="M234.937 70.9439C234.98 76.6726 235.022 82.4642 235.065 88.1929C237.539 82.4654 240.076 76.7395 242.551 71.0119C242.728 76.4293 242.904 81.8467 243.079 87.327" stroke="#111111" stroke-width="0.75" stroke-miterlimit="10" stroke-linecap="round" stroke-linejoin="round"/>
<path d="M237.638 68.6841C238.391 68.7662 239.209 68.787 239.962 68.8691" stroke="#111111" stroke-width="0.75" stroke-miterlimit="10" stroke-linecap="round" stroke-linejoin="round"/>
<path d="M247.911 87.8907C248.394 83.7489 250.135 69.7575 252.148 69.8088C254.098 69.8584 255.266 83.2945 255.66 87.5845" stroke="#111111" stroke-width="0.75" stroke-miterlimit="10" stroke-linecap="round" stroke-linejoin="round"/>
<path d="M1.5 6.5C27.8092 13.9824 53.8552 22.3892 79.6944 31.3611C85.1935 33.2705 90.3739 35.3021 95.5 38" stroke="black" stroke-width="0.75" stroke-linecap="round" stroke-linejoin="round"/>
<path d="M1 6.5C7.09976 11.2927 11.7533 16.3293 16.5 22.5" stroke="black" stroke-width="0.75" stroke-linecap="round" stroke-linejoin="round"/>
<path d="M1 6.5C7.1596 5.09655 13.0611 3.13801 19 1" stroke="black" stroke-width="0.75" stroke-linecap="round" stroke-linejoin="round"/>
</svg>
