<svg width="105" height="124" viewBox="0 0 105 124" fill="none" xmlns="http://www.w3.org/2000/svg">
<path opacity="0.15" d="M93.0173 23.4104L92.7183 23.6366L93.0173 23.4104ZM3.89207 90.8365L3.59301 91.0627L3.89207 90.8365ZM70.5027 40.4375L70.2037 40.6638L70.2037 40.6638L70.5027 40.4375ZM23.8061 75.765L23.5071 75.9913L23.5071 75.9913L23.8061 75.765ZM100.621 33.3891L100.322 33.6162L100.324 33.6178L100.621 33.3891ZM59.3534 71.462L59.127 71.1631L59.1269 71.1632L59.3534 71.462ZM45.4046 53.0918C57.7037 43.7871 69.2008 35.851 77.8448 30.542C82.1686 27.8863 85.7686 25.8941 88.3936 24.7161C89.709 24.1259 90.7609 23.7486 91.5277 23.5897C91.9123 23.5101 92.2029 23.4902 92.409 23.5142C92.6149 23.5381 92.6899 23.5991 92.7183 23.6366L93.3164 23.1842C93.1186 22.9227 92.8141 22.8062 92.4956 22.7692C92.177 22.7321 91.7979 22.7678 91.3756 22.8553C90.5287 23.0308 89.4182 23.4343 88.0865 24.0319C85.4176 25.2296 81.7855 27.2414 77.4523 29.9029C68.7819 35.2282 57.2642 43.1791 44.9521 52.4936L45.4046 53.0918ZM92.7183 23.6366C92.7466 23.6742 92.785 23.7629 92.752 23.9676C92.719 24.1724 92.6209 24.4466 92.4396 24.795C92.0781 25.4898 91.429 26.3994 90.5032 27.5047C88.6556 29.7103 85.7594 32.6327 82.0278 36.0712C74.5679 42.9453 63.8039 51.8504 51.5048 61.1551L51.9573 61.7532C64.2694 52.4387 75.0533 43.5179 82.5361 36.6228C86.2758 33.1767 89.1997 30.2288 91.0781 27.9863C92.0154 26.8674 92.7057 25.9085 93.1049 25.1412C93.304 24.7586 93.4415 24.4035 93.4925 24.0869C93.5435 23.7703 93.5142 23.4456 93.3164 23.1842L92.7183 23.6366ZM51.5048 61.1551C39.2057 70.4598 27.7085 78.3959 19.0646 83.7049C14.7408 86.3606 11.1408 88.3527 8.51578 89.5307C7.20043 90.121 6.14851 90.4982 5.38164 90.6571C4.99706 90.7368 4.70645 90.7567 4.50043 90.7327C4.29444 90.7088 4.21951 90.6477 4.19113 90.6102L3.59301 91.0627C3.79081 91.3242 4.09525 91.4407 4.41382 91.4777C4.73236 91.5147 5.11148 91.479 5.53379 91.3915C6.38071 91.2161 7.49123 90.8125 8.82285 90.215C11.4918 89.0173 15.1238 87.0054 19.4571 84.344C28.1275 79.0187 39.6451 71.0677 51.9573 61.7532L51.5048 61.1551ZM4.19113 90.6102C4.16274 90.5727 4.1244 90.484 4.15738 90.2793C4.19037 90.0745 4.28852 89.8002 4.46979 89.4518C4.83126 88.7571 5.48041 87.8474 6.40619 86.7422C8.25376 84.5366 11.1499 81.6142 14.8816 78.1756C22.3415 71.3016 33.1055 62.3964 45.4046 53.0918L44.9521 52.4936C32.64 61.8082 21.8561 70.729 14.3733 77.6241C10.6336 81.0701 7.70972 84.0181 5.83125 86.2606C4.89402 87.3795 4.20365 88.3384 3.80446 89.1057C3.6054 89.4882 3.46793 89.8434 3.41692 90.16C3.36591 90.4766 3.3952 90.8012 3.59301 91.0627L4.19113 90.6102ZM46.7634 57.5844C53.2085 52.7085 59.111 48.3866 63.4434 45.341C65.6102 43.8176 67.3807 42.6162 68.6285 41.8247C69.2538 41.4281 69.7403 41.1393 70.0767 40.9648C70.2473 40.8763 70.3648 40.8249 70.4357 40.8017C70.4737 40.7893 70.4766 40.7923 70.4571 40.7932C70.4565 40.7932 70.3095 40.8037 70.2037 40.6638L70.8018 40.2113C70.6746 40.0432 70.4861 40.0412 70.4241 40.0439C70.3432 40.0475 70.265 40.0685 70.2024 40.0889C70.0725 40.1314 69.9118 40.2054 69.7313 40.2991C69.3653 40.489 68.8568 40.7918 68.2268 41.1914C66.9639 41.9924 65.1821 43.2019 63.012 44.7274C58.6705 47.7795 52.7607 52.1068 46.3109 56.9863L46.7634 57.5844ZM70.2037 40.6638C70.0978 40.5239 70.1479 40.3853 70.1481 40.3847C70.1542 40.3662 70.1563 40.3698 70.1341 40.403C70.0924 40.465 70.011 40.564 69.8794 40.7041C69.62 40.9804 69.2098 41.37 68.6581 41.8638C67.5571 42.8493 65.9194 44.2262 63.8641 45.8971C59.7549 49.2377 53.9906 53.7422 47.5455 58.6182L47.998 59.2163C54.4477 54.3368 60.2194 49.8268 64.3372 46.4791C66.3955 44.8058 68.044 43.4201 69.1583 42.4227C69.7142 41.9251 70.1439 41.5181 70.4261 41.2176C70.5654 41.0693 70.6803 40.9348 70.7565 40.8213C70.7932 40.7667 70.8347 40.6971 70.8601 40.6203C70.8796 40.5614 70.929 40.3794 70.8018 40.2113L70.2037 40.6638ZM47.5455 58.6182C41.1003 63.4941 35.1978 67.816 30.8655 70.8616C28.6986 72.3849 26.9282 73.5864 25.6804 74.3778C25.055 74.7745 24.5686 75.0632 24.2322 75.2377C24.0615 75.3262 23.9441 75.3776 23.8732 75.4008C23.8352 75.4133 23.8323 75.4102 23.8517 75.4094C23.8524 75.4093 23.9993 75.3988 24.1052 75.5388L23.5071 75.9913C23.6342 76.1593 23.8228 76.1614 23.8848 76.1586C23.9656 76.1551 24.0439 76.1341 24.1064 76.1136C24.2364 76.0711 24.397 75.9971 24.5776 75.9035C24.9436 75.7136 25.4521 75.4108 26.0821 75.0112C27.345 74.2102 29.1268 73.0007 31.2968 71.4752C35.6383 68.4231 41.5482 64.0957 47.998 59.2163L47.5455 58.6182ZM24.1052 75.5388C24.211 75.6787 24.161 75.8172 24.1608 75.8178C24.1546 75.8363 24.1525 75.8327 24.1748 75.7996C24.2164 75.7376 24.2978 75.6386 24.4294 75.4984C24.6889 75.2222 25.099 74.8326 25.6508 74.3387C26.7518 73.3532 28.3895 71.9763 30.4448 70.3054C34.5539 66.9648 40.3183 62.4603 46.7634 57.5844L46.3109 56.9863C39.8611 61.8658 34.0895 66.3758 29.9716 69.7235C27.9134 71.3968 26.2649 72.7825 25.1506 73.7799C24.5947 74.2775 24.165 74.6844 23.8827 74.985C23.7435 75.1332 23.6286 75.2677 23.5523 75.3812C23.5156 75.4358 23.4741 75.5054 23.4487 75.5822C23.4292 75.6412 23.3799 75.8232 23.5071 75.9913L24.1052 75.5388ZM100.324 33.6178C100.351 33.6538 100.39 33.7404 100.358 33.944C100.325 34.1477 100.228 34.4212 100.047 34.7694C99.6862 35.4637 99.0374 36.3739 98.1116 37.4803C96.2642 39.6884 93.367 42.6159 89.6349 46.0599C82.174 52.945 71.411 61.8627 59.127 71.1631L59.5797 71.761C71.8769 62.4507 82.6599 53.5172 90.1436 46.6111C93.8838 43.1595 96.8085 40.2065 98.6868 37.9616C99.624 36.8415 100.314 35.8821 100.712 35.1152C100.911 34.7328 101.048 34.378 101.098 34.0618C101.149 33.7454 101.118 33.4207 100.918 33.1603L100.324 33.6178ZM59.1269 71.1632C47.9412 79.6403 37.3949 86.9817 29.0641 92.2357C24.8981 94.8631 21.2908 96.9654 18.4373 98.4264C17.0104 99.157 15.777 99.7246 14.7598 100.117C13.7345 100.512 12.9575 100.718 12.433 100.749L12.4762 101.497C13.1212 101.46 13.9874 101.219 15.0297 100.817C16.0801 100.412 17.3389 99.8314 18.7791 99.094C21.6602 97.6189 25.2882 95.5037 29.4641 92.8701C37.8171 87.6021 48.3812 80.2479 59.5799 71.7609L59.1269 71.1632ZM3.69009 91.0443C5.04789 92.7505 6.39729 94.4747 7.74778 96.2003C9.09795 97.9254 10.4492 99.652 11.8092 101.361L12.3961 100.894C11.0383 99.1878 9.68888 97.4636 8.3384 95.738C6.98823 94.0129 5.63696 92.2863 4.27695 90.5773L3.69009 91.0443ZM92.7355 23.6451L100.322 33.6162L100.919 33.162L93.3323 23.1909L92.7355 23.6451Z" fill="#111111"/>
</svg>
