<svg width="123" height="156" viewBox="0 0 123 156" fill="none" xmlns="http://www.w3.org/2000/svg">
<path opacity="0.1" d="M66.3622 148.035L66.0088 148.161L66.1168 148.465L66.4338 148.403L66.3622 148.035ZM6.93963 48.1583L6.7264 47.8498L6.43717 48.0497L6.61808 48.3512L6.93963 48.1583ZM67.3798 6.37848L67.7547 6.38117L67.7599 5.65981L67.1665 6.07001L67.3798 6.37848ZM95.0233 0.999964L95.3983 1.00238L95.4012 0.544387L94.9517 0.631868L95.0233 0.999964ZM94.1125 142.636L94.1841 143.004L94.4855 142.945L94.4874 142.638L94.1125 142.636ZM66.7156 147.91C66.6807 147.811 66.5841 147.624 66.4571 147.388C66.3226 147.139 66.1355 146.803 65.8999 146.387C65.4285 145.555 64.7595 144.396 63.9217 142.96C62.2459 140.086 59.8925 136.094 57.0897 131.364C51.484 121.903 44.0789 109.482 36.697 97.1272C29.315 84.772 21.9561 72.4815 16.4427 63.2799C13.6859 58.679 11.3906 54.8504 9.78439 52.172C8.9813 50.8328 8.3505 49.7811 7.92047 49.0642C7.70546 48.7058 7.54064 48.4311 7.42957 48.246C7.37404 48.1534 7.33195 48.0832 7.30373 48.0362C7.28963 48.0127 7.27899 47.995 7.27188 47.9831C7.26833 47.9772 7.26565 47.9728 7.26387 47.9698C7.26298 47.9683 7.26231 47.9672 7.26186 47.9664C7.26141 47.9657 7.26119 47.9653 6.93963 48.1583C6.61808 48.3512 6.6183 48.3516 6.61875 48.3523C6.6192 48.3531 6.61987 48.3542 6.62076 48.3557C6.62254 48.3586 6.62521 48.3631 6.62877 48.369C6.63588 48.3809 6.64651 48.3986 6.66061 48.4221C6.68882 48.4691 6.73091 48.5393 6.78644 48.6318C6.8975 48.8169 7.06231 49.0916 7.27732 49.4501C7.70733 50.1669 8.3381 51.2185 9.14117 52.5577C10.7473 55.2361 13.0426 59.0646 15.7993 63.6653C21.3127 72.8668 28.6714 85.157 36.0532 97.5119C43.435 109.867 50.8395 122.286 56.4445 131.746C59.247 136.476 61.5993 140.466 63.2738 143.338C64.1111 144.773 64.7783 145.929 65.2474 146.757C65.482 147.171 65.6662 147.502 65.797 147.744C65.8625 147.866 65.9136 147.963 65.9506 148.037C65.9691 148.074 65.9833 148.103 65.9937 148.126C65.9988 148.137 66.0026 148.146 66.0053 148.152C66.0082 148.159 66.0091 148.161 66.0088 148.161L66.7156 147.91ZM7.15287 48.4667L67.593 6.68695L67.1665 6.07001L6.7264 47.8498L7.15287 48.4667ZM67.0048 6.37579L65.9872 148.032L66.7372 148.038L67.7547 6.38117L67.0048 6.37579ZM94.6483 0.997552L93.7375 142.633L94.4874 142.638L95.3983 1.00238L94.6483 0.997552ZM66.4338 148.403L94.1841 143.004L94.0408 142.268L66.2906 147.667L66.4338 148.403ZM67.3444 6.76808L95.0949 1.36806L94.9517 0.631868L67.2011 6.03189L67.3444 6.76808Z" fill="#111111"/>
</svg>
