<svg width="56" height="53" viewBox="0 0 56 53" fill="none" xmlns="http://www.w3.org/2000/svg">
<path opacity="0.2" d="M19.5244 4.31834L19.6161 4.68218L19.6288 4.67848L19.5244 4.31834ZM48.8006 38.3072L48.4576 38.1555L48.8006 38.3072ZM43.7927 42.9708L43.6814 42.6126L43.6792 42.6134L43.7927 42.9708ZM14.4898 8.2522L14.1579 8.07749L14.1553 8.0827L14.4898 8.2522ZM36.789 48.8744L36.9026 49.2319L36.9125 49.2285L36.789 48.8744ZM7.48608 14.1558L7.15192 13.9857L7.15158 13.9863L7.48608 14.1558ZM21.7692 7.91111L21.6808 7.54668L21.6617 7.55131L21.6432 7.5579L21.7692 7.91111ZM44.5517 34.5051L44.2015 34.371L44.201 34.3724L44.5517 34.5051ZM41.0961 37.7808L41.193 38.1431L41.197 38.142L41.0961 37.7808ZM18.291 10.651L17.9499 10.4952L17.9495 10.4961L18.291 10.651ZM19.6288 4.67848C22.628 3.8083 26.2514 4.67156 29.9638 6.72367C33.6667 8.7705 37.401 11.9699 40.5874 15.6663C43.7739 19.3626 46.3971 23.5381 47.8921 27.5247C49.3907 31.5212 49.7345 35.2685 48.4576 38.1555L49.1435 38.4588C50.5354 35.3118 50.1231 31.3382 48.5943 27.2614C47.0618 23.1746 44.3862 18.9242 41.1555 15.1766C37.9249 11.429 34.1239 8.16628 30.3267 6.06728C26.539 3.97356 22.6973 3.00727 19.4199 3.95819L19.6288 4.67848ZM48.4576 38.1555C48.2679 38.5844 46.8451 41.6298 43.6814 42.6126L43.9039 43.3289C47.407 42.2406 48.945 38.9076 49.1435 38.4588L48.4576 38.1555ZM43.6792 42.6134C40.8543 43.5106 37.3047 42.5673 33.5937 40.3673C29.8974 38.1761 26.1154 34.7805 22.8688 30.9153C19.6223 27.0501 16.9274 22.7348 15.3909 18.7166C13.8481 14.6815 13.5035 11.0282 14.8243 8.4217L14.1553 8.0827C12.6887 10.9769 13.1237 14.887 14.6904 18.9844C16.2635 23.0987 19.0082 27.4852 22.2945 31.3976C25.5808 35.31 29.4249 38.7679 33.2112 41.0125C36.9828 43.2484 40.7723 44.3235 43.9062 43.3282L43.6792 42.6134ZM14.8216 8.42689C16.2449 5.72328 19.0417 4.82679 19.6161 4.68195L19.4327 3.95472C18.7934 4.11593 15.7325 5.08652 14.1579 8.07752L14.8216 8.42689ZM38.3535 47.7015C37.8751 48.0081 37.309 48.2959 36.6655 48.5203L36.9125 49.2285C37.6148 48.9836 38.2335 48.6693 38.7582 48.333L38.3535 47.7015ZM36.6755 48.517C33.8506 49.4142 30.301 48.471 26.59 46.271C22.8937 44.0797 19.1117 40.6841 15.8651 36.8189C12.6186 32.9538 9.92367 28.6384 8.38725 24.6202C6.8444 20.5851 6.49986 16.9318 7.82059 14.3253L7.15158 13.9863C5.68503 16.8806 6.12001 20.7906 7.68671 24.888C9.25985 29.0023 12.0045 33.3888 15.2908 37.3013C18.5771 41.2137 22.4212 44.6715 26.2075 46.9161C29.9792 49.1521 33.7686 50.2272 36.9025 49.2318L36.6755 48.517ZM7.82025 14.326C8.46775 13.0545 9.38038 12.2081 10.2833 11.6295L9.87861 10.998C8.88663 11.6337 7.87122 12.5731 7.15192 13.9857L7.82025 14.326ZM21.8576 8.27555C23.9564 7.7665 26.6032 8.54682 29.3945 10.2377C32.1714 11.9198 35.0233 14.4627 37.5001 17.3536C39.9767 20.2444 42.0636 23.4662 43.3224 26.4954C44.5873 29.5395 44.9874 32.3188 44.2015 34.371L44.9019 34.6392C45.7917 32.3157 45.3044 29.3107 44.015 26.2077C42.7194 23.0898 40.585 19.8017 38.0696 16.8656C35.5543 13.9297 32.6435 11.3289 29.7831 9.59618C26.9372 7.87223 24.0721 6.96671 21.6808 7.54668L21.8576 8.27555ZM44.201 34.3724C44.0885 34.6698 43.1997 36.8039 40.9952 37.4196L41.197 38.142C43.777 37.4213 44.7795 34.9629 44.9025 34.6377L44.201 34.3724ZM40.9993 37.4185C39.0292 37.9454 36.4329 37.1081 33.6335 35.303C30.8546 33.511 27.9608 30.8197 25.4358 27.802C22.9108 24.7844 20.7697 21.4587 19.4843 18.4083C18.1891 15.3346 17.8024 12.6359 18.6325 10.806L17.9495 10.4961C16.9822 12.6284 17.4817 15.5871 18.7932 18.6995C20.1145 21.8351 22.3007 25.224 24.8606 28.2833C27.4204 31.3425 30.369 34.0903 33.227 35.9333C36.0646 37.763 38.8999 38.7563 41.193 38.1431L40.9993 37.4185ZM18.6321 10.8069C19.4938 8.92067 21.44 8.42661 21.8951 8.26433L21.6432 7.5579C21.2686 7.6915 18.9671 8.26862 17.9499 10.4952L18.6321 10.8069ZM17.8087 13.5793C19.8868 13.8613 22.2509 14.9953 24.6315 16.7039C27.0064 18.4084 29.3703 20.6652 31.4453 23.1539C33.5206 25.6426 35.2989 28.3536 36.5092 30.9618C37.7227 33.5769 38.3492 36.0545 38.1653 38.0888L38.9123 38.1563C39.1131 35.9348 38.4289 33.3169 37.1895 30.6461C35.947 27.9683 34.1303 25.2027 32.0214 22.6736C29.9123 20.1442 27.503 17.8417 25.0688 16.0946C22.6402 14.3515 20.1593 13.1414 17.9095 12.8361L17.8087 13.5793ZM16.4898 5.4281L8.685 11.9234L9.16476 12.4999L16.9696 6.00459L16.4898 5.4281ZM45.1704 42.0776L37.9952 47.8942L38.4675 48.4768L45.6427 42.6602L45.1704 42.0776Z" fill="#111111"/>
</svg>
