<svg width="90" height="144" viewBox="0 0 90 144" fill="none" xmlns="http://www.w3.org/2000/svg">
<path opacity="0.25" d="M0.999941 15.5152L0.856031 15.1689L0.506311 15.3143L0.65509 15.6625L0.999941 15.5152ZM54.0695 95.9088L53.7105 96.0171L53.733 96.0916L53.7832 96.151L54.0695 95.9088ZM55.0663 142.076L54.7215 142.223L54.9228 142.695L55.3111 142.36L55.0663 142.076ZM9.14245 12.1313L9.45594 11.9256L9.28544 11.6658L8.99854 11.7851L9.14245 12.1313ZM44.3578 33.3456L44.7168 33.2373L44.6744 33.0966L44.5476 33.0222L44.3578 33.3456ZM85.2245 119.724L85.4693 120.008L85.7509 119.766L85.5108 119.482L85.2245 119.724ZM0.686449 15.721C0.72291 15.7765 0.770117 15.8216 0.799295 15.8482C0.834604 15.8805 0.876377 15.9149 0.921739 15.9504C1.01283 16.0216 1.13352 16.1088 1.27892 16.2096C1.57058 16.4116 1.9773 16.6787 2.48015 17.0002C3.48672 17.6438 4.89031 18.5127 6.55545 19.5285C9.88635 21.5605 14.2713 24.1852 18.6368 26.7811C23.0025 29.3771 27.3496 31.9451 30.6053 33.864C32.2332 34.8234 33.5882 35.6207 34.5363 36.178C35.0103 36.4567 35.3826 36.6754 35.6364 36.8245C35.7633 36.899 35.8606 36.9561 35.9261 36.9946C35.9589 37.0138 35.9838 37.0284 36.0004 37.0382C36.0087 37.0431 36.015 37.0468 36.0192 37.0492C36.0213 37.0505 36.0229 37.0514 36.024 37.052C36.0245 37.0523 36.0249 37.0526 36.0251 37.0527C36.0254 37.0529 36.0255 37.0529 36.2153 36.7295C36.4051 36.4061 36.405 36.406 36.4047 36.4058C36.4044 36.4057 36.404 36.4055 36.4035 36.4052C36.4025 36.4045 36.4009 36.4036 36.3988 36.4024C36.3946 36.3999 36.3883 36.3962 36.38 36.3914C36.3634 36.3816 36.3386 36.367 36.3058 36.3478C36.2403 36.3093 36.1431 36.2523 36.0162 36.1778C35.7625 36.0288 35.3903 35.8101 34.9164 35.5315C33.9685 34.9742 32.6137 34.1772 30.9861 33.2179C27.7309 31.2992 23.3847 28.7318 19.0201 26.1364C14.6553 23.5409 10.2732 20.918 6.94605 18.8882C5.28215 17.8732 3.88394 17.0076 2.88416 16.3684C2.38384 16.0485 1.98625 15.7872 1.70599 15.593C1.56544 15.4957 1.45827 15.4179 1.3838 15.3596C1.34637 15.3303 1.32093 15.3089 1.30512 15.2945C1.28319 15.2744 1.29537 15.2819 1.31343 15.3094L0.686449 15.721ZM35.8563 36.8378L53.7105 96.0171L54.4285 95.8005L36.5743 36.6212L35.8563 36.8378ZM53.7832 96.151L76.7957 123.35L77.3683 122.866L54.3558 95.6666L53.7832 96.151ZM76.8373 122.824L54.8216 141.792L55.3111 142.36L77.3268 123.392L76.8373 122.824ZM55.4112 141.929L1.34479 15.3679L0.65509 15.6625L54.7215 142.223L55.4112 141.929ZM8.82896 12.3371C8.86542 12.3927 8.91262 12.4377 8.9418 12.4643C8.97711 12.4966 9.01889 12.531 9.06425 12.5665C9.15534 12.6377 9.27603 12.725 9.42143 12.8257C9.71309 13.0277 10.1198 13.2949 10.6227 13.6164C11.6292 14.2599 13.0328 15.1288 14.698 16.1446C18.0289 18.1766 22.4139 20.8013 26.7793 23.3972C31.145 25.9932 35.4921 28.5612 38.7478 30.4801C40.3757 31.4396 41.7307 32.2368 42.6788 32.7941C43.1528 33.0728 43.5251 33.2915 43.7789 33.4406C43.9058 33.5151 44.0031 33.5722 44.0686 33.6107C44.1014 33.63 44.1263 33.6445 44.1429 33.6543C44.1513 33.6592 44.1575 33.6629 44.1617 33.6654C44.1638 33.6666 44.1654 33.6675 44.1665 33.6681C44.167 33.6684 44.1674 33.6687 44.1677 33.6688C44.1679 33.669 44.1681 33.6691 44.3578 33.3456C44.5476 33.0222 44.5475 33.0221 44.5472 33.022C44.547 33.0218 44.5466 33.0216 44.546 33.0213C44.545 33.0207 44.5434 33.0197 44.5413 33.0185C44.5371 33.0161 44.5309 33.0124 44.5225 33.0075C44.5059 32.9977 44.4811 32.9832 44.4483 32.9639C44.3828 32.9255 44.2856 32.8684 44.1587 32.7939C43.905 32.6449 43.5328 32.4262 43.0589 32.1476C42.111 31.5904 40.7562 30.7933 39.1286 29.834C35.8734 27.9154 31.5272 25.3479 27.1626 22.7525C22.7978 20.157 18.4157 17.5341 15.0886 15.5044C13.4247 14.4893 12.0264 13.6237 11.0267 12.9845C10.5263 12.6646 10.1288 12.4033 9.8485 12.2091C9.70795 12.1118 9.60078 12.034 9.5263 11.9757C9.48888 11.9465 9.46344 11.925 9.44763 11.9106C9.42569 11.8905 9.43788 11.898 9.45594 11.9256L8.82896 12.3371ZM43.9988 33.4539L61.853 92.6333L62.571 92.4166L44.7168 33.2373L43.9988 33.4539ZM61.9257 92.7672L84.9383 119.966L85.5108 119.482L62.4983 92.2827L61.9257 92.7672ZM84.9798 119.44L62.9641 138.408L63.4536 138.976L85.4693 120.008L84.9798 119.44ZM55.1834 142.358L63.3257 138.974L63.0378 138.281L54.8956 141.665L55.1834 142.358ZM77.2259 123.454L85.4052 120.055L85.1174 119.363L76.9381 122.762L77.2259 123.454ZM54.2134 96.2551L62.3559 92.8712L62.0681 92.1787L53.9256 95.5625L54.2134 96.2551ZM36.3592 37.0758L44.5017 33.6919L44.2139 32.9993L36.0714 36.3832L36.3592 37.0758ZM1.14385 15.8615L9.28636 12.4776L8.99854 11.7851L0.856031 15.1689L1.14385 15.8615Z" fill="#111111"/>
</svg>
