<svg width="156" height="153" viewBox="0 0 156 153" fill="none" xmlns="http://www.w3.org/2000/svg">
<path opacity="0.2" d="M70.1316 128.297L69.9445 128.622L70.0289 128.671L70.1263 128.672L70.1316 128.297ZM129.944 50.1012L130.317 50.133L130.337 49.8954L130.131 49.7763L129.944 50.1012ZM126.585 89.5598L126.883 89.7877L126.95 89.7008L126.959 89.5916L126.585 89.5598ZM96.6581 128.669L96.6529 129.044L96.8414 129.046L96.956 128.897L96.6581 128.669ZM82.3561 112.291L81.9824 112.259L81.9482 112.66L82.3508 112.666L82.3561 112.291ZM84.3472 88.9685L84.049 88.741L83.9828 88.8278L83.9736 88.9366L84.3472 88.9685ZM101.986 65.8456L101.991 65.4706L101.802 65.468L101.688 65.6181L101.986 65.8456ZM117.698 66.0657L118.071 66.0972L118.105 65.6964L117.703 65.6907L117.698 66.0657ZM115.728 89.4303L116.026 89.6582L116.092 89.5711L116.102 89.4618L115.728 89.4303ZM98.0677 112.511L98.0624 112.886L98.2509 112.889L98.3655 112.739L98.0677 112.511ZM25.896 102.842L25.5223 102.81L25.5022 103.048L25.7089 103.167L25.896 102.842ZM29.2327 63.3407L28.9351 63.1126L28.8682 63.1997L28.859 63.3092L29.2327 63.3407ZM59.1814 24.2742L59.1864 23.8992L58.9983 23.8968L58.8838 24.0461L59.1814 24.2742ZM85.7505 24.624L85.9378 24.2991L85.8531 24.2503L85.7554 24.249L85.7505 24.624ZM70.5053 128.328L73.7995 88.8491L73.0521 88.7867L69.7578 128.266L70.5053 128.328ZM73.7236 89.0458L103.651 49.937L103.055 49.4812L73.128 88.59L73.7236 89.0458ZM103.348 50.084L129.938 50.4762L129.949 49.7263L103.359 49.3341L103.348 50.084ZM129.57 50.0694L126.212 89.528L126.959 89.5916L130.317 50.133L129.57 50.0694ZM126.288 89.332L96.3603 128.441L96.956 128.897L126.883 89.7877L126.288 89.332ZM96.6634 128.294L70.1368 127.922L70.1263 128.672L96.6529 129.044L96.6634 128.294ZM82.7297 112.323L84.7208 89.0004L83.9736 88.9366L81.9824 112.259L82.7297 112.323ZM84.6453 89.1959L102.284 66.073L101.688 65.6181L84.049 88.741L84.6453 89.1959ZM101.981 66.2205L117.692 66.4407L117.703 65.6907L101.991 65.4706L101.981 66.2205ZM117.324 66.0342L115.354 89.3988L116.102 89.4618L118.071 66.0972L117.324 66.0342ZM115.43 89.2025L97.7698 112.283L98.3655 112.739L116.026 89.6582L115.43 89.2025ZM98.0729 112.136L82.3613 111.916L82.3508 112.666L98.0624 112.886L98.0729 112.136ZM26.2697 102.873L29.6063 63.3723L28.859 63.3092L25.5223 102.81L26.2697 102.873ZM29.5303 63.5689L59.479 24.5024L58.8838 24.0461L28.9351 63.1126L29.5303 63.5689ZM59.1765 24.6492L85.7455 24.999L85.7554 24.249L59.1864 23.8992L59.1765 24.6492ZM130.131 49.7763L85.9378 24.2991L85.5632 24.9489L129.756 50.4261L130.131 49.7763ZM103.54 49.3841L59.3686 23.9492L58.9943 24.5992L103.166 50.0341L103.54 49.3841ZM73.6131 88.493L29.42 63.0158L29.0454 63.6656L73.2385 89.1428L73.6131 88.493ZM70.3186 127.972L26.083 102.517L25.7089 103.167L69.9445 128.622L70.3186 127.972ZM115.915 89.1054L93.8615 76.3985L93.4871 77.0483L115.541 89.7553L115.915 89.1054ZM98.2544 112.186L83.2461 103.568L82.8726 104.218L97.8809 112.836L98.2544 112.186Z" fill="#111111"/>
</svg>
