<svg width="2100" height="870" viewBox="0 0 2100 870" fill="none" xmlns="http://www.w3.org/2000/svg">
<path opacity="0.1" d="M1942 96.2534L1941.94 95.8825L1941.63 95.9304L1941.63 96.2534L1942 96.2534ZM2051.39 57L2051.73 56.8496L2051.59 56.5275L2051.26 56.6475L2051.39 57ZM2080.85 124.307L2080.78 124.675L2081.49 124.817L2081.2 124.157L2080.85 124.307ZM2080.85 152.469L2080.78 152.837L2081.23 152.927L2081.23 152.469L2080.85 152.469ZM1942 124.524L1941.63 124.524L1941.62 124.831L1941.93 124.892L1942 124.524ZM1942.06 96.6242C1942.16 96.6087 1942.36 96.5497 1942.62 96.47C1942.89 96.3857 1943.25 96.2662 1943.71 96.1144C1944.61 95.8106 1945.88 95.3751 1947.45 94.8271C1950.59 93.731 1954.96 92.1833 1960.14 90.3356C1970.49 86.6401 1984.1 81.7434 1997.64 76.8571C2011.17 71.9707 2024.64 67.0946 2034.73 63.44C2039.77 61.6128 2043.97 60.0909 2046.9 59.0258C2048.37 58.4933 2049.53 58.0749 2050.31 57.7898C2050.7 57.6472 2051 57.5378 2051.21 57.4642C2051.31 57.4273 2051.39 57.3994 2051.44 57.3807C2051.46 57.3713 2051.48 57.3643 2051.5 57.3596C2051.5 57.3572 2051.51 57.3554 2051.51 57.3543C2051.51 57.3537 2051.51 57.3532 2051.51 57.3529C2051.52 57.3526 2051.52 57.3525 2051.39 57C2051.26 56.6475 2051.26 56.6477 2051.26 56.648C2051.26 56.6483 2051.26 56.6487 2051.25 56.6493C2051.25 56.6505 2051.25 56.6522 2051.24 56.6546C2051.23 56.6593 2051.21 56.6664 2051.18 56.6757C2051.13 56.6944 2051.05 56.7224 2050.95 56.7592C2050.75 56.8328 2050.45 56.9422 2050.06 57.0847C2049.27 57.3699 2048.12 57.7882 2046.65 58.3208C2043.71 59.3858 2039.52 60.9077 2034.47 62.7349C2024.39 66.3894 2010.92 71.2654 1997.38 76.1516C1983.84 81.0379 1970.24 85.9342 1959.88 89.6292C1954.71 91.4768 1950.34 93.0238 1947.2 94.119C1945.63 94.6666 1944.37 95.1009 1943.47 95.4032C1943.02 95.5544 1942.66 95.672 1942.39 95.7541C1942.26 95.7952 1942.16 95.8267 1942.08 95.849C1942.04 95.8601 1942.01 95.8684 1941.98 95.8743C1941.97 95.8772 1941.96 95.8793 1941.95 95.8807C1941.95 95.8822 1941.94 95.8826 1941.94 95.8825L1942.06 96.6242ZM2051.04 57.1504L2080.51 124.457L2081.2 124.157L2051.73 56.8496L2051.04 57.1504ZM2080.93 123.939L1942.07 95.8858L1941.93 96.6209L2080.78 124.675L2080.93 123.939ZM2080.93 152.101L1942.07 124.156L1941.93 124.892L2080.78 152.837L2080.93 152.101ZM1941.63 96.2534L1941.63 124.524L1942.37 124.524L1942.38 96.2534L1941.63 96.2534ZM2080.48 124.198L2080.48 152.469L2081.23 152.469L2081.23 124.198L2080.48 124.198Z" fill="#111111"/>
<path opacity="0.2" d="M1046.16 416.979L1045.95 416.67L1045.78 416.784L1045.79 416.985L1046.16 416.979ZM1401.89 172.597L1402.18 172.359L1401.96 172.093L1401.68 172.287L1401.89 172.597ZM1634.83 456.453L1635.2 456.539L1635.24 456.359L1635.12 456.215L1634.83 456.453ZM1046.37 428.77L1045.99 428.777L1045.99 428.906L1046.07 429.007L1046.37 428.77ZM1268.95 703.122L1268.66 703.358L1268.87 703.62L1269.15 703.436L1268.95 703.122ZM1632.57 466.109L1632.77 466.423L1632.9 466.341L1632.93 466.195L1632.57 466.109ZM1046.37 417.288C1105.66 376.58 1164.95 335.838 1224.24 295.097C1283.53 254.355 1342.82 213.614 1402.1 172.906L1401.68 172.287C1342.39 212.995 1283.1 253.737 1223.81 294.479C1164.52 335.22 1105.23 375.962 1045.95 416.67L1046.37 417.288ZM1401.6 172.834L1634.54 456.691L1635.12 456.215L1402.18 172.359L1401.6 172.834ZM1634.63 456.139C1513.32 535.357 1392.15 614.605 1270.88 693.688L1271.29 694.316C1392.56 615.233 1513.73 535.984 1635.04 456.767L1634.63 456.139ZM1271.38 693.766C1196.39 601.469 1121.41 509.173 1046.45 416.742L1045.87 417.215C1120.82 509.646 1195.81 601.942 1270.8 694.239L1271.38 693.766ZM1045.79 416.985L1045.99 428.777L1046.74 428.764L1046.54 416.972L1045.79 416.985ZM1046.07 429.007L1268.66 703.358L1269.24 702.885L1046.66 428.534L1046.07 429.007ZM1269.31 703.207L1271.45 694.088L1270.72 693.917L1268.58 703.036L1269.31 703.207ZM1271.29 694.316L1635.04 456.767L1634.63 456.139L1270.88 693.688L1271.29 694.316ZM1634.47 456.368L1632.2 466.023L1632.93 466.195L1635.2 456.539L1634.47 456.368ZM1632.36 465.795C1571.74 505.269 1511.15 544.785 1450.55 584.301C1389.96 623.817 1329.36 663.333 1268.74 702.807L1269.15 703.436C1329.77 663.961 1390.37 624.445 1450.96 584.929C1511.56 545.414 1572.15 505.898 1632.77 466.423L1632.36 465.795Z" fill="#111111"/>
<path opacity="0.15" d="M922.703 100.439L922.369 100.269L922.703 100.439ZM785.176 30.2317L784.842 30.0612L785.176 30.2317ZM887.969 82.7L887.635 82.5295L887.635 82.5295L887.969 82.7ZM815.912 45.9152L815.578 45.7447L815.578 45.7447L815.912 45.9152ZM914.875 115.904L914.541 115.735L914.54 115.737L914.875 115.904ZM842.675 87.5245L842.846 87.1905L842.845 87.1904L842.675 87.5245ZM857.181 58.9867C876.162 68.6766 892.96 78.1945 904.773 85.748C910.682 89.526 915.333 92.8062 918.386 95.3666C919.915 96.6488 921.028 97.7374 921.697 98.6077C922.032 99.0437 922.242 99.407 922.343 99.698C922.444 99.989 922.423 100.163 922.369 100.269L923.037 100.61C923.219 100.254 923.19 99.8492 923.051 99.4512C922.912 99.0532 922.65 98.6172 922.291 98.1506C921.572 97.2155 920.411 96.0856 918.868 94.7919C915.778 92.2006 911.095 88.9001 905.177 85.1162C893.338 77.546 876.517 68.0161 857.522 58.3187L857.181 58.9867ZM922.369 100.269C922.315 100.374 922.187 100.493 921.892 100.582C921.597 100.67 921.179 100.714 920.629 100.698C919.532 100.666 917.998 100.404 916.063 99.918C912.199 98.947 906.813 97.1035 900.288 94.5339C887.241 89.3964 869.68 81.374 850.699 71.6841L850.358 72.3521C869.353 82.0494 886.938 90.0829 900.013 95.2317C906.549 97.8054 911.969 99.6627 915.88 100.645C917.833 101.136 919.429 101.414 920.608 101.448C921.196 101.464 921.704 101.421 922.107 101.3C922.511 101.179 922.856 100.965 923.037 100.61L922.369 100.269ZM850.699 71.6841C831.717 61.9942 814.919 52.4762 803.106 44.9227C797.197 41.1448 792.546 37.8646 789.493 35.3042C787.964 34.022 786.852 32.9333 786.183 32.0631C785.847 31.6271 785.638 31.2638 785.536 30.9728C785.435 30.6818 785.456 30.5078 785.51 30.4022L784.842 30.0612C784.66 30.4169 784.689 30.8216 784.828 31.2196C784.967 31.6176 785.229 32.0536 785.588 32.5202C786.307 33.4553 787.468 34.5852 789.011 35.8788C792.101 38.4701 796.784 41.7707 802.702 45.5546C814.541 53.1248 831.362 62.6547 850.358 72.3521L850.699 71.6841ZM785.51 30.4022C785.564 30.2966 785.692 30.1774 785.987 30.0888C786.283 30.0003 786.7 29.9572 787.25 29.9729C788.347 30.0043 789.881 30.2666 791.816 30.7528C795.681 31.7238 801.066 33.5673 807.591 36.1369C820.638 41.2744 838.199 49.2968 857.181 58.9867L857.522 58.3187C838.526 48.6214 820.942 40.5879 807.866 35.439C801.33 32.8654 795.91 31.0081 791.999 30.0254C790.046 29.5348 788.45 29.257 787.271 29.2232C786.683 29.2064 786.176 29.2494 785.772 29.3705C785.368 29.4916 785.023 29.7055 784.842 30.0612L785.51 30.4022ZM852.413 63.3826C862.359 68.4601 871.29 73.197 877.689 76.7505C880.889 78.5277 883.452 80.0067 885.19 81.0833C886.061 81.6226 886.717 82.0561 887.142 82.3731C887.357 82.5333 887.499 82.6539 887.579 82.7366C887.62 82.7799 887.629 82.7963 887.625 82.7894C887.623 82.7853 887.61 82.7605 887.603 82.7195C887.596 82.6748 887.597 82.6041 887.635 82.5295L888.303 82.8705C888.402 82.6768 888.32 82.498 888.285 82.433C888.241 82.3515 888.178 82.2778 888.118 82.2159C887.995 82.0885 887.814 81.9388 887.591 81.772C887.139 81.4351 886.461 80.9878 885.585 80.4457C883.831 79.3597 881.256 77.8739 878.053 76.0949C871.644 72.5359 862.705 67.7948 852.754 62.7146L852.413 63.3826ZM887.635 82.5295C887.673 82.4548 887.73 82.4129 887.77 82.3924C887.807 82.3735 887.835 82.3697 887.84 82.3691C887.847 82.368 887.829 82.3709 887.77 82.3624C887.656 82.3463 887.475 82.302 887.219 82.2221C886.713 82.064 885.977 81.7868 885.03 81.3978C883.138 80.6211 880.437 79.413 877.121 77.8635C870.489 74.7654 861.415 70.3102 851.468 65.2327L851.127 65.9007C861.079 70.9809 870.162 75.4401 876.803 78.543C880.123 80.0941 882.837 81.3081 884.745 82.0916C885.697 82.4827 886.458 82.77 886.995 82.938C887.262 83.0211 887.489 83.0802 887.664 83.105C887.75 83.1171 887.846 83.1247 887.938 83.1126C888.011 83.1029 888.204 83.0642 888.303 82.8705L887.635 82.5295ZM851.468 65.2327C841.522 60.1551 832.591 55.4182 826.192 51.8647C822.992 50.0875 820.429 48.6085 818.691 47.5319C817.82 46.9926 817.164 46.5591 816.739 46.2421C816.524 46.082 816.382 45.9613 816.302 45.8786C816.261 45.8353 816.252 45.8189 816.256 45.8258C816.258 45.8299 816.271 45.8547 816.278 45.8957C816.285 45.9404 816.284 46.0111 816.246 46.0857L815.578 45.7447C815.479 45.9385 815.561 46.1172 815.596 46.1822C815.64 46.2637 815.703 46.3374 815.762 46.3993C815.885 46.5267 816.067 46.6764 816.29 46.8432C816.742 47.1801 817.42 47.6274 818.296 48.1695C820.05 49.2555 822.625 50.7413 825.828 52.5204C832.236 56.0793 841.176 60.8204 851.127 65.9007L851.468 65.2327ZM816.246 46.0857C816.208 46.1604 816.151 46.2023 816.111 46.2228C816.074 46.2417 816.046 46.2455 816.041 46.2461C816.034 46.2472 816.052 46.2443 816.111 46.2528C816.225 46.2689 816.406 46.3132 816.662 46.3931C817.168 46.5512 817.904 46.8284 818.851 47.2174C820.743 47.9941 823.444 49.2023 826.76 50.7517C833.391 53.8499 842.466 58.305 852.413 63.3826L852.754 62.7146C842.802 57.6343 833.719 53.1751 827.078 50.0722C823.758 48.5211 821.044 47.3071 819.136 46.5236C818.183 46.1325 817.423 45.8452 816.885 45.6772C816.619 45.5941 816.392 45.535 816.216 45.5102C816.131 45.4981 816.035 45.4905 815.943 45.5026C815.87 45.5123 815.677 45.551 815.578 45.7447L816.246 46.0857ZM914.54 115.737C914.488 115.841 914.362 115.96 914.068 116.049C913.775 116.137 913.359 116.181 912.809 116.165C911.713 116.135 910.179 115.873 908.242 115.388C904.375 114.418 898.982 112.577 892.45 110.01C879.389 104.878 861.813 96.8641 842.846 87.1905L842.505 87.8586C861.486 97.5398 879.086 105.565 892.176 110.708C898.719 113.279 904.146 115.134 908.06 116.115C910.014 116.605 911.61 116.882 912.788 116.915C913.376 116.932 913.883 116.888 914.285 116.767C914.688 116.645 915.032 116.43 915.211 116.072L914.54 115.737ZM842.845 87.1904C825.564 78.3865 810.079 69.693 798.523 62.4962C792.745 58.8974 787.954 55.6759 784.414 53.0042C782.643 51.6682 781.19 50.4732 780.085 49.44C778.973 48.401 778.235 47.5465 777.87 46.8924L777.215 47.2577C777.639 48.0172 778.447 48.9365 779.573 49.988C780.704 51.0455 782.18 52.2579 783.962 53.6029C787.527 56.2932 792.338 59.5279 798.127 63.1328C809.704 70.3434 825.209 79.0474 842.505 87.8587L842.845 87.1904ZM784.925 30.1677C783.621 32.8844 782.289 35.6014 780.957 38.3201C779.625 41.0382 778.293 43.7579 776.987 46.4779L777.663 46.8025C778.967 44.0857 780.299 41.3687 781.631 38.6501C782.963 35.9319 784.295 33.2122 785.601 30.4922L784.925 30.1677ZM922.369 100.295L914.541 115.735L915.21 116.074L923.038 100.634L922.369 100.295Z" fill="#111111"/>
<path opacity="0.15" d="M1800.44 748.322L1800.13 748.542L1800.44 748.322ZM1709.99 813.964L1709.69 814.184L1709.99 813.964ZM1777.59 764.898L1777.28 765.119L1777.28 765.119L1777.59 764.898ZM1730.2 799.291L1729.9 799.511L1729.9 799.511L1730.2 799.291ZM1807.84 758.45L1807.54 758.671L1807.54 758.673L1807.84 758.45ZM1765.82 795.695L1765.6 795.392L1765.6 795.392L1765.82 795.695ZM1752.24 777.051C1764.73 767.993 1776.38 760.287 1785.13 755.151C1789.5 752.582 1793.14 750.661 1795.79 749.536C1797.11 748.972 1798.17 748.615 1798.94 748.472C1799.33 748.4 1799.62 748.386 1799.83 748.414C1800.03 748.442 1800.11 748.504 1800.13 748.542L1800.74 748.102C1800.55 747.837 1800.25 747.714 1799.93 747.671C1799.61 747.627 1799.23 747.655 1798.81 747.735C1797.96 747.893 1796.84 748.275 1795.49 748.846C1792.8 749.99 1789.13 751.929 1784.75 754.504C1775.97 759.656 1764.3 767.376 1751.8 776.444L1752.24 777.051ZM1800.13 748.542C1800.16 748.58 1800.2 748.67 1800.16 748.874C1800.12 749.078 1800.02 749.35 1799.83 749.695C1799.46 750.382 1798.79 751.279 1797.84 752.366C1795.95 754.534 1793 757.398 1789.2 760.762C1781.6 767.487 1770.66 776.176 1758.18 785.234L1758.62 785.841C1771.12 776.773 1782.08 768.069 1789.69 761.324C1793.5 757.953 1796.48 755.063 1798.41 752.859C1799.37 751.759 1800.08 750.814 1800.49 750.054C1800.7 749.676 1800.84 749.323 1800.9 749.008C1800.96 748.692 1800.93 748.367 1800.74 748.102L1800.13 748.542ZM1758.18 785.234C1745.7 794.293 1734.05 801.999 1725.3 807.135C1720.92 809.704 1717.29 811.625 1714.64 812.75C1713.31 813.314 1712.25 813.67 1711.48 813.814C1711.1 813.886 1710.8 813.9 1710.6 813.872C1710.39 813.844 1710.32 813.782 1710.29 813.743L1709.69 814.184C1709.88 814.449 1710.18 814.572 1710.5 814.615C1710.82 814.659 1711.2 814.63 1711.62 814.551C1712.47 814.393 1713.59 814.011 1714.93 813.44C1717.62 812.296 1721.29 810.357 1725.68 807.782C1734.45 802.63 1746.13 794.909 1758.62 785.841L1758.18 785.234ZM1710.29 813.743C1710.26 813.705 1710.23 813.616 1710.27 813.412C1710.3 813.208 1710.41 812.936 1710.59 812.591C1710.97 811.903 1711.64 811.007 1712.58 809.92C1714.48 807.752 1717.43 804.887 1721.23 801.524C1728.82 794.799 1739.76 786.11 1752.24 777.051L1751.8 776.444C1739.31 785.512 1728.35 794.217 1720.73 800.962C1716.92 804.333 1713.94 807.223 1712.02 809.427C1711.06 810.527 1710.35 811.472 1709.94 812.232C1709.73 812.61 1709.58 812.962 1709.53 813.278C1709.47 813.594 1709.49 813.919 1709.69 814.184L1710.29 813.743ZM1753.51 781.57C1760.05 776.823 1766.04 772.62 1770.43 769.661C1772.63 768.181 1774.42 767.015 1775.69 766.248C1776.32 765.864 1776.81 765.585 1777.15 765.417C1777.32 765.332 1777.44 765.283 1777.51 765.261C1777.55 765.25 1777.55 765.253 1777.54 765.253C1777.53 765.253 1777.39 765.261 1777.28 765.119L1777.89 764.678C1777.77 764.508 1777.58 764.502 1777.52 764.503C1777.44 764.505 1777.36 764.525 1777.29 764.544C1777.16 764.584 1777 764.655 1776.82 764.745C1776.45 764.927 1775.94 765.22 1775.3 765.607C1774.02 766.383 1772.21 767.557 1770.01 769.039C1765.61 772.004 1759.62 776.213 1753.07 780.963L1753.51 781.57ZM1777.28 765.119C1777.18 764.977 1777.23 764.839 1777.23 764.839C1777.24 764.82 1777.24 764.824 1777.22 764.857C1777.18 764.918 1777.09 765.015 1776.96 765.153C1776.69 765.424 1776.28 765.805 1775.72 766.288C1774.6 767.251 1772.93 768.595 1770.84 770.225C1766.67 773.483 1760.81 777.872 1754.27 782.619L1754.71 783.226C1761.26 778.476 1767.12 774.082 1771.3 770.816C1773.39 769.184 1775.07 767.832 1776.2 766.857C1776.77 766.37 1777.21 765.972 1777.5 765.677C1777.64 765.531 1777.76 765.399 1777.83 765.287C1777.87 765.233 1777.91 765.165 1777.94 765.088C1777.96 765.03 1778.02 764.849 1777.89 764.678L1777.28 765.119ZM1754.27 782.619C1747.73 787.366 1741.75 791.57 1737.35 794.529C1735.16 796.009 1733.36 797.175 1732.1 797.941C1731.47 798.325 1730.98 798.604 1730.64 798.772C1730.46 798.857 1730.34 798.906 1730.27 798.928C1730.23 798.94 1730.23 798.937 1730.25 798.936C1730.25 798.936 1730.4 798.929 1730.5 799.071L1729.9 799.511C1730.02 799.682 1730.21 799.688 1730.27 799.686C1730.35 799.684 1730.43 799.665 1730.49 799.646C1730.62 799.606 1730.78 799.535 1730.97 799.445C1731.34 799.262 1731.85 798.97 1732.49 798.583C1733.77 797.807 1735.57 796.633 1737.77 795.151C1742.17 792.186 1748.17 787.977 1754.71 783.226L1754.27 782.619ZM1730.5 799.071C1730.61 799.213 1730.55 799.35 1730.55 799.351C1730.55 799.369 1730.54 799.366 1730.57 799.333C1730.61 799.272 1730.69 799.174 1730.83 799.037C1731.09 798.766 1731.51 798.384 1732.07 797.902C1733.19 796.938 1734.86 795.594 1736.94 793.964C1741.12 790.706 1746.97 786.317 1753.51 781.57L1753.07 780.963C1746.53 785.714 1740.67 790.108 1736.48 793.373C1734.39 795.005 1732.72 796.358 1731.58 797.333C1731.02 797.819 1730.58 798.218 1730.29 798.513C1730.15 798.658 1730.03 798.79 1729.95 798.902C1729.91 798.956 1729.87 799.025 1729.85 799.101C1729.82 799.16 1729.77 799.341 1729.9 799.511L1730.5 799.071ZM1807.54 758.673C1807.57 758.709 1807.6 758.797 1807.57 758.999C1807.53 759.203 1807.43 759.474 1807.24 759.819C1806.86 760.506 1806.2 761.403 1805.25 762.49C1803.36 764.661 1800.4 767.531 1796.6 770.9C1789.01 777.635 1778.07 786.337 1765.6 795.392L1766.04 795.999C1778.52 786.935 1789.48 778.217 1797.1 771.461C1800.91 768.085 1803.89 765.19 1805.82 762.983C1806.78 761.882 1807.48 760.936 1807.9 760.178C1808.1 759.799 1808.25 759.447 1808.3 759.132C1808.36 758.817 1808.34 758.491 1808.14 758.227L1807.54 758.673ZM1765.6 795.392C1754.25 803.645 1743.56 810.776 1735.13 815.863C1730.91 818.407 1727.26 820.437 1724.38 821.841C1722.94 822.543 1721.7 823.086 1720.67 823.458C1719.64 823.833 1718.86 824.024 1718.33 824.044L1718.36 824.793C1719.01 824.769 1719.88 824.545 1720.93 824.163C1721.98 823.779 1723.25 823.224 1724.71 822.515C1727.62 821.098 1731.29 819.055 1735.52 816.505C1743.97 811.404 1754.68 804.261 1766.05 795.999L1765.6 795.392ZM1709.78 814.168C1711.11 815.9 1712.42 817.651 1713.74 819.403C1715.05 821.155 1716.37 822.908 1717.7 824.644L1718.29 824.188C1716.97 822.455 1715.65 820.705 1714.34 818.953C1713.02 817.201 1711.7 815.448 1710.38 813.712L1709.78 814.168ZM1800.15 748.551L1807.54 758.671L1808.14 758.229L1800.76 748.109L1800.15 748.551Z" fill="#111111"/>
</svg>
