<svg width="2100" height="870" viewBox="0 0 2100 870" fill="none" xmlns="http://www.w3.org/2000/svg">
<path opacity="0.3" d="M1889.78 595.861L1889.48 596.082L1890.97 598.13L1890.14 595.738L1889.78 595.861ZM1841.76 529.014L1841.42 528.859L1841.33 529.056L1841.45 529.233L1841.76 529.014ZM1855.79 498.224L1855.63 497.884L1855.5 497.943L1855.45 498.068L1855.79 498.224ZM1865.55 493.647L1865.91 493.524L1865.77 493.131L1865.39 493.307L1865.55 493.647ZM1899.71 591.731L1899.87 592.07L1900.18 591.927L1900.07 591.607L1899.71 591.731ZM1890.08 595.64C1889.19 594.416 1877.19 577.706 1865.41 561.3C1859.51 553.097 1853.68 544.971 1849.31 538.895C1847.13 535.858 1845.32 533.333 1844.05 531.567C1843.42 530.684 1842.92 529.991 1842.58 529.519C1842.41 529.283 1842.28 529.102 1842.19 528.98C1842.15 528.919 1842.12 528.873 1842.1 528.842C1842.08 528.827 1842.08 528.815 1842.07 528.807C1842.07 528.803 1842.07 528.8 1842.06 528.798C1842.06 528.797 1842.06 528.797 1842.06 528.796C1842.06 528.796 1842.06 528.795 1841.76 529.014C1841.45 529.233 1841.45 529.233 1841.45 529.234C1841.45 529.234 1841.45 529.235 1841.45 529.236C1841.46 529.238 1841.46 529.241 1841.46 529.245C1841.47 529.252 1841.48 529.264 1841.49 529.279C1841.51 529.31 1841.54 529.357 1841.59 529.418C1841.67 529.54 1841.8 529.72 1841.97 529.957C1842.31 530.429 1842.81 531.122 1843.44 532.005C1844.71 533.77 1846.52 536.295 1848.71 539.333C1853.07 545.408 1858.9 553.534 1864.8 561.737C1876.58 578.141 1888.59 594.855 1889.48 596.082L1890.08 595.64ZM1842.1 529.17L1856.13 498.379L1855.45 498.068L1841.42 528.859L1842.1 529.17ZM1855.43 498.347L1889.43 595.984L1890.14 595.738L1856.14 498.101L1855.43 498.347ZM1865.2 493.77L1899.36 591.854L1900.07 591.607L1865.91 493.524L1865.2 493.77ZM1899.55 591.391L1889.82 595.952L1890.14 596.631L1899.87 592.07L1899.55 591.391ZM1855.95 498.564L1865.71 493.987L1865.39 493.307L1855.63 497.884L1855.95 498.564Z" fill="#111111"/>
<path opacity="0.25" d="M1049 784.495L1049.36 784.603L1049.47 784.24L1049.1 784.135L1049 784.495ZM970.423 776.412L970.566 776.066L970.494 776.036L970.417 776.037L970.423 776.412ZM940.61 753.065L940.715 752.705L940.223 752.562L940.236 753.075L940.61 753.065ZM1046.92 791.419L1046.88 791.792L1047.19 791.825L1047.28 791.527L1046.92 791.419ZM1015.17 802.746L1015.02 803.092L1015.16 803.149L1015.3 803.098L1015.17 802.746ZM939.129 783.811L938.754 783.821L938.764 784.192L939.135 784.186L939.129 783.811ZM1049.04 784.122C1048.98 784.116 1048.92 784.123 1048.88 784.128C1048.84 784.134 1048.8 784.143 1048.75 784.154C1048.66 784.175 1048.54 784.207 1048.4 784.247C1048.11 784.327 1047.73 784.447 1047.27 784.599C1046.34 784.904 1045.05 785.343 1043.55 785.872C1040.53 786.93 1036.58 788.35 1032.67 789.771C1028.75 791.193 1024.87 792.618 1021.96 793.687C1020.5 794.221 1019.29 794.667 1018.45 794.979C1018.02 795.135 1017.69 795.258 1017.46 795.342C1017.35 795.383 1017.26 795.415 1017.21 795.437C1017.18 795.448 1017.15 795.456 1017.14 795.462C1017.13 795.464 1017.13 795.466 1017.12 795.468C1017.12 795.468 1017.12 795.469 1017.12 795.469C1017.12 795.469 1017.12 795.47 1017.12 795.47C1017.12 795.47 1017.12 795.47 1017.25 795.822C1017.38 796.173 1017.38 796.173 1017.38 796.173C1017.38 796.173 1017.38 796.173 1017.38 796.173C1017.38 796.172 1017.38 796.172 1017.38 796.171C1017.39 796.17 1017.39 796.168 1017.4 796.165C1017.41 796.16 1017.44 796.151 1017.47 796.141C1017.52 796.119 1017.61 796.087 1017.72 796.045C1017.95 795.962 1018.28 795.839 1018.71 795.683C1019.55 795.371 1020.76 794.925 1022.22 794.391C1025.12 793.322 1029.01 791.898 1032.92 790.476C1036.84 789.055 1040.78 787.637 1043.79 786.58C1045.3 786.051 1046.58 785.614 1047.5 785.312C1047.96 785.161 1048.33 785.044 1048.6 784.968C1048.74 784.929 1048.84 784.902 1048.91 784.885C1048.95 784.877 1048.98 784.872 1048.99 784.87C1049.01 784.867 1049 784.872 1048.96 784.868L1049.04 784.122ZM1017.39 795.475L970.566 776.066L970.279 776.759L1017.1 796.168L1017.39 795.475ZM970.417 776.037L941.205 776.512L941.217 777.262L970.429 776.787L970.417 776.037ZM941.586 776.878L940.985 753.056L940.236 753.075L940.836 776.897L941.586 776.878ZM940.506 753.425L1048.9 784.855L1049.1 784.135L940.715 752.705L940.506 753.425ZM1046.96 791.046C1046.89 791.04 1046.83 791.048 1046.8 791.052C1046.76 791.058 1046.71 791.067 1046.67 791.078C1046.57 791.099 1046.45 791.131 1046.31 791.171C1046.03 791.251 1045.65 791.371 1045.19 791.523C1044.25 791.828 1042.97 792.267 1041.46 792.796C1038.44 793.855 1034.5 795.274 1030.59 796.696C1026.67 798.117 1022.78 799.542 1019.87 800.611C1018.42 801.146 1017.21 801.591 1016.36 801.904C1015.94 802.06 1015.61 802.182 1015.38 802.266C1015.27 802.308 1015.18 802.34 1015.12 802.361C1015.09 802.372 1015.07 802.38 1015.06 802.386C1015.05 802.389 1015.04 802.391 1015.04 802.392C1015.04 802.393 1015.04 802.393 1015.04 802.394C1015.04 802.394 1015.04 802.394 1015.04 802.394C1015.04 802.394 1015.04 802.394 1015.17 802.746C1015.3 803.098 1015.3 803.098 1015.3 803.097C1015.3 803.097 1015.3 803.097 1015.3 803.097C1015.3 803.097 1015.3 803.096 1015.3 803.095C1015.3 803.094 1015.31 803.092 1015.32 803.089C1015.33 803.084 1015.35 803.076 1015.38 803.065C1015.44 803.043 1015.53 803.011 1015.64 802.969C1015.87 802.886 1016.2 802.763 1016.62 802.607C1017.47 802.295 1018.68 801.85 1020.13 801.315C1023.04 800.246 1026.93 798.822 1030.84 797.4C1034.76 795.979 1038.7 794.561 1041.71 793.504C1043.22 792.976 1044.49 792.538 1045.42 792.236C1045.88 792.085 1046.25 791.969 1046.52 791.892C1046.65 791.853 1046.76 791.826 1046.83 791.81C1046.87 791.801 1046.89 791.797 1046.91 791.795C1046.93 791.791 1046.91 791.796 1046.88 791.792L1046.96 791.046ZM1015.31 802.399L968.484 782.99L968.197 783.683L1015.02 803.092L1015.31 802.399ZM968.335 782.962L939.123 783.436L939.135 784.186L968.347 783.712L968.335 782.962ZM939.504 783.802L938.903 759.98L938.153 759.999L938.754 783.821L939.504 783.802ZM940.306 752.974L938.224 759.898L938.942 760.114L941.024 753.19L940.306 752.974ZM940.852 776.779L938.76 783.735L939.479 783.951L941.57 776.995L940.852 776.779ZM970.064 776.304L967.982 783.229L968.7 783.445L970.782 776.52L970.064 776.304ZM1016.89 795.714L1014.81 802.638L1015.52 802.854L1017.61 795.93L1016.89 795.714ZM1048.64 784.387L1046.56 791.311L1047.28 791.527L1049.36 784.603L1048.64 784.387Z" fill="#111111"/>
<path opacity="0.2" d="M217.573 156.271L217.888 156.067L217.835 155.985L217.748 155.939L217.573 156.271ZM15 253.915L14.681 253.718L14.5561 253.92L14.6856 254.12L15 253.915ZM62.626 176.822L62.4632 176.484L62.3645 176.532L62.3069 176.625L62.626 176.822ZM163.967 128L164.142 127.668L163.975 127.58L163.804 127.662L163.967 128ZM176.146 176.278L176.465 176.475L176.676 176.134L176.321 175.946L176.146 176.278ZM147.983 221.838L148.146 222.176L148.245 222.128L148.302 222.035L147.983 221.838ZM88.1789 250.762L88.004 251.093L88.1716 251.182L88.3422 251.099L88.1789 250.762ZM56.4283 234.016L56.1091 233.82L55.8985 234.161L56.2533 234.348L56.4283 234.016ZM84.5907 188.348L84.4279 188.01L84.3291 188.057L84.2715 188.151L84.5907 188.348ZM144.395 159.533L144.57 159.201L144.403 159.113L144.232 159.195L144.395 159.533ZM281.292 254.133L281.611 254.33L281.736 254.127L281.606 253.928L281.292 254.133ZM233.666 331.335L233.829 331.673L233.928 331.625L233.985 331.532L233.666 331.335ZM132.325 380.048L132.15 380.38L132.317 380.468L132.488 380.386L132.325 380.048ZM78.61 351.777L78.2956 351.981L78.3488 352.063L78.4353 352.109L78.61 351.777ZM217.254 156.075L169.737 233.276L170.376 233.67L217.893 156.468L217.254 156.075ZM169.893 233.135L68.5523 281.957L68.8778 282.633L170.219 233.811L169.893 233.135ZM68.8903 281.964L15.1752 253.584L14.8248 254.247L68.5399 282.627L68.8903 281.964ZM15.319 254.112L62.945 177.019L62.3069 176.625L14.681 253.718L15.319 254.112ZM62.7887 177.16L164.13 128.338L163.804 127.662L62.4632 176.484L62.7887 177.16ZM163.792 128.332L217.399 156.603L217.748 155.939L164.142 127.668L163.792 128.332ZM175.827 176.081L147.664 221.641L148.302 222.035L176.465 176.475L175.827 176.081ZM147.82 221.501L88.0157 250.424L88.3422 251.099L148.146 222.176L147.82 221.501ZM88.3539 250.43L56.6032 233.685L56.2533 234.348L88.004 251.093L88.3539 250.43ZM56.7475 234.213L84.9099 188.545L84.2715 188.151L56.1091 233.82L56.7475 234.213ZM84.7535 188.686L144.558 159.871L144.232 159.195L84.4279 188.01L84.7535 188.686ZM144.22 159.865L175.971 176.61L176.321 175.946L144.57 159.201L144.22 159.865ZM280.973 253.936L233.347 331.138L233.985 331.532L281.611 254.33L280.973 253.936ZM233.504 330.997L132.163 379.71L132.488 380.386L233.829 331.673L233.504 330.997ZM132.5 379.716L78.7847 351.445L78.4353 352.109L132.15 380.38L132.5 379.716ZM14.6856 254.12L78.2956 351.981L78.9244 351.573L15.3144 253.711L14.6856 254.12ZM68.4008 282.5L132.011 380.253L132.639 379.843L69.0294 282.091L68.4008 282.5ZM169.742 233.677L233.352 331.539L233.981 331.13L170.371 233.269L169.742 233.677ZM217.259 156.476L280.978 254.337L281.606 253.928L217.888 156.067L217.259 156.476ZM84.2763 188.552L116.027 237.374L116.655 236.965L84.9051 188.143L84.2763 188.552ZM144.081 159.738L165.719 192.902L166.347 192.492L144.709 159.328L144.081 159.738Z" fill="#111111"/>
</svg>
