<svg width="171" height="190" viewBox="0 0 171 190" fill="none" xmlns="http://www.w3.org/2000/svg">
<path d="M63.5225 116.129C63.1963 116.129 60.9128 116.238 58.1944 117.108C57.2158 117.434 56.4547 117.76 56.0197 117.978C56.5634 119.174 57.4334 121.131 57.977 123.632C60.2605 133.527 55.6936 138.42 55.3674 148.641C55.0412 157.34 57.977 168.104 63.1963 169.736C66.1321 170.605 69.068 168.648 72.0038 166.8C87.5529 157.122 91.0325 158.971 99.9487 153.099C119.63 140.268 132.787 109.279 124.088 87.4231C122.566 83.6173 119.521 79.8116 113.432 72.4176C101.145 57.3034 89.8364 45.995 82.1162 38.7097C81.8987 38.601 80.8114 38.2748 79.724 38.8185C78.3105 39.5796 78.2017 41.2107 78.2017 41.3194C78.8541 42.733 80.4852 45.8863 81.1376 47.2998C87.2268 59.9131 93.4246 72.5264 99.5138 85.0309C92.7722 79.1592 85.1607 71.6565 77.7668 62.3053C73.4174 56.7598 69.7204 51.323 66.5671 46.2125C65.8059 45.2339 64.6098 45.0164 63.6312 45.4513C62.5439 45.995 62.0002 47.4085 62.5439 48.6046C66.4583 61.2179 73.0912 76.5496 84.5084 91.6637C87.2267 95.252 89.9451 98.5141 92.7723 101.559C72.6563 113.085 65.5885 116.02 63.5225 116.129Z" fill="#111111"/>
<path d="M9.80746 148.206C8.93758 148.098 7.74155 148.098 7.41534 148.75C7.19787 149.076 7.41532 149.511 7.52405 150.055C8.17646 152.121 7.74154 154.078 7.19786 156.035C7.08913 156.47 6.87162 157.231 6.54541 157.992C6.76288 158.101 6.98035 158.319 7.08909 158.536C7.41529 159.297 6.43671 160.058 6.65419 160.602C6.76292 160.928 7.52408 161.146 9.59005 160.711C10.6774 160.385 12.1997 159.732 13.722 158.645C14.2656 158.21 14.7006 157.775 15.1355 157.449C15.4617 156.47 15.7879 155.6 16.0054 154.622C16.3316 154.404 16.549 154.295 16.8752 154.078C16.8752 153.643 16.8753 152.991 17.0927 152.338C17.4189 151.468 17.9626 151.142 17.9626 150.598C17.9626 150.163 17.6364 149.729 16.3316 149.076C16.2228 149.511 16.0054 149.837 15.8967 149.946C14.9181 150.925 12.4171 150.163 9.80746 148.206Z" fill="#FF3D00"/>
<path d="M34.708 155.382C34.1644 155.49 33.5119 155.817 33.4032 156.252C33.2945 156.795 33.9469 157.339 34.2731 157.774C34.9255 158.644 35.3605 160.166 34.5993 163.211C34.8168 163.102 35.143 163.102 35.143 163.211C35.4692 163.645 33.5119 164.95 33.7294 165.711C33.8381 166.364 35.6866 166.908 41.0146 166.581C42.4282 166.255 44.0593 165.603 44.3855 164.407C44.4942 164.08 44.3855 163.972 44.168 162.993C43.8418 161.471 43.4069 159.187 43.8418 157.556C43.8418 157.448 43.8417 157.23 44.0592 156.904C44.3854 155.817 44.3854 155.273 44.2767 154.947C43.9505 154.294 42.9719 154.186 42.6457 154.186C42.4282 154.512 42.2108 154.838 41.9933 155.055C39.6011 157.23 35.2517 155.49 34.708 155.382Z" fill="#FF3D00"/>
<path d="M22.6384 123.306C21.551 127.111 20.4637 131.135 19.3763 135.158C18.3977 138.855 17.5278 142.552 16.6579 146.14C16.9841 146.466 17.3103 146.684 17.6365 147.01C17.2016 147.445 16.6579 147.771 16.223 148.206C16.4404 148.424 16.6579 148.75 16.8753 148.967C16.5491 149.402 16.2229 149.728 15.788 150.163C15.1356 150.272 13.9395 150.381 12.5259 149.837C11.3299 149.402 10.5688 148.75 10.1338 148.315C9.69888 147.771 9.37264 147.336 8.9377 146.792C9.37264 146.575 9.69888 146.358 10.1338 146.14C9.69888 145.705 9.15516 145.161 8.72021 144.727C9.15516 144.4 9.59015 144.074 10.1338 143.857C10.1338 138.42 10.3513 132.548 11.0037 126.35C12.3085 112.867 15.0268 101.015 17.9627 91.1201" fill="white"/>
<path d="M22.6384 123.306C21.551 127.111 20.4637 131.135 19.3763 135.158C18.3977 138.855 17.5278 142.552 16.6579 146.14C16.9841 146.466 17.3103 146.684 17.6365 147.01C17.2016 147.445 16.6579 147.771 16.223 148.206C16.4404 148.424 16.6579 148.75 16.8753 148.967C16.5491 149.402 16.2229 149.728 15.788 150.163C15.1356 150.272 13.9395 150.381 12.5259 149.837C11.3299 149.402 10.5688 148.75 10.1338 148.315C9.69888 147.771 9.37264 147.336 8.9377 146.792C9.37264 146.575 9.69888 146.358 10.1338 146.14C9.69888 145.705 9.15516 145.161 8.72021 144.727C9.15516 144.4 9.59015 144.074 10.1338 143.857C10.1338 138.42 10.3513 132.548 11.0037 126.35C12.3085 112.867 15.0268 101.015 17.9627 91.1201" stroke="#111111" stroke-width="0.75" stroke-miterlimit="10"/>
<path d="M41.4494 148.967C41.5581 150.054 41.6668 151.033 41.6668 152.12C41.993 152.229 42.2105 152.447 42.5367 152.555C42.3192 152.881 42.1017 153.208 41.8843 153.534C42.1017 153.86 42.4279 154.078 42.6454 154.404C42.4279 154.621 42.1017 154.947 41.8843 155.165C41.4493 155.382 41.0144 155.709 40.362 155.817C38.5135 156.47 36.7737 156.144 35.9038 155.817C35.5776 155.6 35.2515 155.491 34.9252 155.274C34.9252 154.947 35.034 154.512 35.034 154.186C34.7078 154.078 34.3816 154.078 34.0554 153.969C34.2729 153.751 34.3816 153.534 34.5991 153.316C26.6614 138.528 22.9644 125.371 21.0072 116.02C19.9198 110.692 14.3743 83.9434 21.6596 80.6813C22.5294 80.2464 25.1391 79.594 32.8593 85.9006C41.0144 92.5335 51.6705 104.168 60.1518 129.286C64.175 141.355 69.8292 157.883 63.8488 162.233C60.1518 164.951 53.4102 161.471 52.1054 160.819C42.3192 155.709 39.0572 144.4 34.9252 129.177C33.1855 122.871 31.1195 113.737 30.1409 102.428" fill="white"/>
<path d="M41.4494 148.967C41.5581 150.054 41.6668 151.033 41.6668 152.12C41.993 152.229 42.2105 152.447 42.5367 152.555C42.3192 152.881 42.1017 153.208 41.8843 153.534C42.1017 153.86 42.4279 154.078 42.6454 154.404C42.4279 154.621 42.1017 154.947 41.8843 155.165C41.4493 155.382 41.0144 155.709 40.362 155.817C38.5135 156.47 36.7737 156.143 35.9038 155.817C35.5776 155.6 35.2515 155.491 34.9252 155.274C34.9252 154.947 35.034 154.512 35.034 154.186C34.7078 154.078 34.3816 154.078 34.0554 153.969C34.2729 153.751 34.3816 153.534 34.5991 153.316C26.6614 138.528 22.9644 125.371 21.0072 116.02C19.9198 110.692 14.3743 83.9434 21.6596 80.6813C22.5294 80.2464 25.1391 79.594 32.8593 85.9006C41.0144 92.5335 51.6705 104.168 60.1518 129.286C64.175 141.355 69.8292 157.883 63.8488 162.233C60.1518 164.951 53.4102 161.471 52.1054 160.819C42.3192 155.709 39.0572 144.4 34.9252 129.177C33.1855 122.871 31.1195 113.737 30.1409 102.428" stroke="#111111" stroke-width="0.75" stroke-miterlimit="10"/>
<path d="M123.762 90.7936C122.24 90.2499 121.696 89.38 121.478 88.9451C120.609 86.9879 122.022 84.5957 123.762 81.5511C124.849 79.7026 125.393 78.8327 126.371 77.8541C128.003 76.1144 129.199 75.6794 130.938 73.7222C131.917 72.5261 132.352 71.5475 132.787 71.0038C134.744 67.8505 138.985 65.0234 143.008 64.1535C148.336 63.0662 155.295 64.9147 158.775 70.0252C163.559 76.9843 158.992 86.2267 157.796 88.4014C157.687 88.5102 157.687 88.6189 157.578 88.7276C153.338 96.0129 144.422 96.9915 138.441 97.6439C137.136 97.7526 135.07 97.9701 132.569 97.8614" stroke="#111111" stroke-width="0.75" stroke-miterlimit="10"/>
<path d="M61.4564 53.1715L40.3618 74.1573L51.5615 78.6155L110.061 19.8985L99.5137 15.6578L72.7649 42.8416L71.3513 4.45811L60.1516 0L61.4564 53.1715Z" fill="#111111"/>
<path d="M22.6383 159.623C22.9645 160.384 23.2907 161.472 23.182 162.885C22.8558 166.691 19.1588 167.669 15.6792 171.801C12.5259 175.607 12.8522 177.891 11.2211 181.044C11.0037 181.37 10.3512 182.566 9.37261 183.762C8.394 184.85 6.65425 186.698 3.60967 188.003C3.50093 188.003 3.28342 187.894 2.95722 187.894C2.41354 187.785 2.19611 187.894 1.97864 187.785C1.65244 187.677 1.32621 187.459 1 186.481C1.10874 185.285 1.2175 184.088 1.43497 182.784C1.97864 178.869 3.06599 175.39 4.15334 172.671C4.15334 172.563 4.15334 172.345 4.15334 172.128C4.15334 171.801 3.93586 171.584 3.93586 171.584C3.71839 171.149 4.80571 166.473 4.58824 164.19C4.58824 163.429 4.37081 162.45 3.60967 161.145" stroke="#111111" stroke-width="0.75" stroke-miterlimit="10"/>
<path d="M3.60975 161.145C3.82722 160.928 4.04468 160.493 3.93594 160.058C3.82721 159.623 3.50098 159.514 3.50098 159.297C3.60971 159.079 4.15343 159.188 4.6971 159.188C6.00192 159.079 6.65431 157.883 6.98051 158.1C7.52419 158.535 6.11061 160.058 6.54555 160.819C7.52416 162.232 15.1357 158.753 15.5706 156.361C15.5706 156.143 15.788 154.621 15.788 154.621C16.0055 154.512 16.3318 154.295 16.658 154.186C16.7667 154.186 17.4191 153.86 17.854 153.968C18.5064 154.077 19.3763 155.708 20.0287 156.904C20.4637 157.665 21.2248 158.644 22.4209 159.731" stroke="#111111" stroke-width="0.75" stroke-miterlimit="10"/>
<path d="M6.76292 159.731C5.89304 162.885 5.78432 165.386 5.89306 167.234C6.00179 168.865 6.32802 171.149 5.24067 171.801C4.91447 172.019 4.47953 172.019 4.15332 172.019" stroke="#111111" stroke-width="0.75" stroke-miterlimit="10"/>
<path d="M3.60986 188.003C4.0448 187.894 4.80594 187.677 5.56708 187.35C5.89329 187.242 6.76314 186.698 8.39417 185.393C9.37278 184.523 11.0038 183.11 12.0912 181.044C12.6349 180.065 12.9611 179.087 12.9611 179.087C13.0698 178.652 13.2873 178.217 13.396 177.782C13.7222 176.694 13.7222 176.042 14.0484 175.281C14.0484 175.281 14.2659 174.737 14.5921 174.085C15.5707 172.454 17.093 171.149 18.2891 170.279C21.6599 167.452 22.0948 167.235 22.7472 166.365C23.2909 165.495 23.9433 164.516 24.052 163.211C24.1608 161.363 23.0734 160.058 22.7472 159.623" stroke="#111111" stroke-width="0.75" stroke-miterlimit="10"/>
<path d="M9.80755 179.739C9.59008 177.782 9.91634 176.259 10.1338 175.39C10.6775 173.541 11.6561 172.236 12.4172 171.366C14.0482 169.3 14.5919 169.518 14.7006 168.648C15.1356 166.582 12.4172 165.168 12.9609 162.776C13.1784 162.015 13.5045 161.689 13.6133 161.58C14.3744 161.036 15.4618 161.363 15.6793 161.471C16.0055 161.145 16.4404 160.928 16.7666 160.602" stroke="#111111" stroke-width="0.75" stroke-miterlimit="10"/>
<path d="M17.6367 155.709C18.0717 156.361 18.6153 157.231 19.4852 157.992C20.6813 159.188 21.9861 159.732 22.856 160.058" stroke="#111111" stroke-width="0.75" stroke-miterlimit="10"/>
<path d="M48.4086 171.475C48.4086 172.345 48.1911 173.433 47.5387 174.629C45.5815 177.891 41.7758 177.13 36.8827 179.304C32.3158 181.262 31.6634 183.545 28.8363 185.611C28.5101 185.829 27.4228 186.59 25.9005 187.242C24.5956 187.786 22.2035 188.656 18.8327 188.547C18.724 188.438 18.5065 188.329 18.289 188.112C17.8541 187.786 17.6366 187.786 17.4191 187.568C17.2016 187.351 16.9842 186.916 17.0929 185.937C17.6366 184.959 18.289 183.871 19.0501 182.784C21.3335 179.522 23.7257 176.912 26.0092 174.955C26.1179 174.846 26.2267 174.738 26.2267 174.52C26.3354 174.194 26.3354 173.976 26.2267 173.868C26.1179 173.433 29.1625 169.736 30.1411 167.561C30.4673 166.909 30.6848 165.821 30.6848 164.408" stroke="#111111" stroke-width="0.75" stroke-miterlimit="10"/>
<path d="M30.7935 164.408C31.1197 164.299 31.4458 163.973 31.5545 163.646C31.6633 163.211 31.4458 162.885 31.5545 162.776C31.6633 162.668 32.207 162.994 32.7507 163.211C34.0555 163.646 35.1428 162.994 35.2516 163.32C35.469 163.973 33.5118 164.734 33.7293 165.495C33.9467 167.235 42.3193 167.452 43.7329 165.495C43.8416 165.386 44.7115 163.973 44.7115 163.973C44.929 163.973 45.2552 163.864 45.6901 163.973C45.7988 163.973 46.56 164.081 46.8862 164.299C47.4299 164.625 47.4299 166.582 47.5386 167.887C47.6474 168.757 47.8648 169.953 48.4085 171.475" stroke="#111111" stroke-width="0.75" stroke-miterlimit="10"/>
<path d="M34.0557 164.516C31.881 166.908 30.6848 169.192 29.9237 170.823C29.2713 172.345 28.6189 174.52 27.3141 174.628C26.8792 174.628 26.5529 174.52 26.3354 174.302" stroke="#111111" stroke-width="0.75" stroke-miterlimit="10"/>
<path d="M18.7241 188.547C19.1591 188.656 19.9202 188.764 20.7901 188.764C21.1163 188.764 22.2036 188.764 24.1609 188.221C25.357 187.895 27.5316 187.351 29.3801 186.046C30.25 185.394 31.0112 184.633 31.0112 184.633C31.3374 184.306 31.6636 183.98 31.9898 183.654C32.751 182.784 33.0771 182.24 33.7295 181.697C33.7295 181.697 34.1645 181.262 34.8169 180.935C36.3392 179.957 38.4052 179.413 39.8188 179.087C44.0594 178.108 44.4943 178.108 45.5817 177.565C46.4516 177.021 47.4302 176.477 48.0826 175.281C48.9525 173.65 48.6263 172.019 48.5176 171.476" stroke="#111111" stroke-width="0.75" stroke-miterlimit="10"/>
<path d="M45.6904 165.712C45.6904 166.473 45.9079 167.452 46.3429 168.648C46.8866 170.279 47.7564 171.366 48.4088 172.019" stroke="#111111" stroke-width="0.75" stroke-miterlimit="10"/>
<path d="M39.8183 173.65C38.8397 172.345 38.9484 170.714 39.8183 169.953C40.6882 169.192 41.993 169.518 42.1017 169.518C42.6454 169.3 43.1891 169.083 43.8415 168.757" stroke="#111111" stroke-width="0.75" stroke-miterlimit="10"/>
<path d="M60.2606 52.6282C60.4781 52.8456 61.0217 53.2806 62.979 53.0631C63.7401 52.9544 65.6973 52.7369 65.6973 52.5194C65.6973 52.1932 62.2178 51.9758 62.2178 51.867C62.2178 51.7583 63.3052 51.9758 64.3925 51.5408C65.8061 50.9971 66.7847 49.801 66.676 49.5836C66.5672 49.3661 65.5886 50.1273 64.0663 50.3447C63.1964 50.4535 62.544 50.3447 62.1091 50.236C62.979 50.3447 64.61 50.5622 66.3497 49.6923C67.2196 49.2574 67.9808 48.605 67.872 48.4962C67.7633 48.2788 66.3498 49.0399 64.2838 48.9312C63.3052 48.8225 62.544 48.605 62.544 48.605C62.544 48.605 63.3052 48.9312 64.2838 48.9312C64.8275 48.9312 65.9148 48.8224 67.0022 48.2788C67.9808 47.7351 68.8507 46.8652 68.6332 46.6477C68.4157 46.3215 66.8935 47.6263 64.5013 47.4089C63.9576 47.4089 62.7615 47.3001 62.1091 46.3215C61.8916 45.9953 61.7829 45.6691 61.6741 45.4517C61.5654 41.8634 61.4567 40.8848 61.3479 40.8848C61.1305 40.8848 61.1305 42.5158 60.1519 44.6905C59.7169 45.7778 59.6082 45.4517 59.3907 46.2128C58.7383 48.17 59.3907 50.236 59.9344 51.867C60.0431 52.1932 60.0431 52.4107 60.2606 52.6282Z" fill="white" stroke="#111111" stroke-width="0.75" stroke-miterlimit="10"/>
<path d="M77.6581 42.4062C76.8969 42.2975 76.1358 41.8625 74.5047 41.7538C74.1785 41.7538 73.8524 41.7538 73.7437 41.7538C73.8524 41.3189 74.0698 40.8839 74.396 40.6665C75.0484 40.2315 75.9183 40.6664 76.0271 40.3402C76.1358 40.014 75.1572 39.3616 75.2659 38.7092C75.3746 38.4917 75.5921 38.2743 75.8096 38.1655C76.2445 38.0568 76.6795 38.4917 76.7882 38.383C76.897 38.2743 76.3533 37.7306 76.5707 37.2957C76.6795 36.9695 77.0057 36.752 77.3319 36.752C77.7668 36.752 77.9843 37.1869 78.0931 37.0782C78.2018 36.9694 77.8756 36.4258 78.0931 35.9908C78.2018 35.7734 78.528 35.5559 78.7454 35.5559C79.1804 35.5559 79.2891 36.0996 79.5066 35.9908C79.7241 35.8821 79.6153 35.3384 79.8328 35.0122C80.0503 34.9035 80.159 34.9035 80.2678 35.0122C80.4852 35.121 80.7027 35.3384 80.7027 35.6646C81.0289 38.0568 82.225 40.014 81.3551 41.3189C80.3765 42.8412 77.9843 42.515 77.6581 42.4062Z" fill="white" stroke="#111111" stroke-width="0.75" stroke-miterlimit="10"/>
<path d="M141.594 70.2431C142.029 70.3518 146.27 71.8741 147.684 76.1148C148.88 79.8118 147.466 84.1612 144.095 86.7708C145.509 86.3359 146.379 86.3359 146.596 86.7708C146.922 87.3145 145.944 88.7281 143.66 91.0115C145.726 91.0115 147.357 92.2076 147.575 93.2949C147.792 95.1434 144.639 96.4483 144.313 96.557C142.356 97.3181 140.507 96.8832 139.746 96.7745C139.094 97.1007 138.224 97.3181 137.354 97.5356C135.288 97.9706 133.548 97.8618 132.352 97.6444C133.222 98.9492 134.092 99.2754 134.635 99.2754C135.288 99.3841 135.505 99.1667 136.484 98.9492C137.571 98.8405 137.897 99.0579 138.985 99.1666C140.833 99.2754 140.833 98.7317 142.464 98.7317C144.53 98.8404 144.748 99.7103 146.379 99.4929C147.684 99.2754 147.357 98.7317 148.988 98.2968C150.076 98.0793 152.25 97.8618 152.794 97.4269C152.794 97.4269 153.012 97.3181 153.229 97.1007C153.555 96.8832 153.664 96.7745 153.773 96.7745C154.208 96.4483 154.316 95.7959 154.316 95.5784C154.425 95.0347 155.295 94.3823 158.448 93.7299C158.448 93.4037 158.557 93.0775 158.666 92.7513C158.775 92.4251 158.883 91.9901 159.101 91.5552C159.101 91.5552 159.971 89.5979 161.493 88.1844C164.646 85.2485 169.866 85.7922 170.192 85.901C169.757 83.9437 168.996 82.6389 168.343 81.769C167.8 81.1166 167.365 80.5729 167.473 80.2467C167.691 79.9205 169.104 80.3555 170.518 80.8992C170.409 79.2681 169.866 76.9847 168.561 74.5925C166.495 71.0042 163.45 69.1558 163.885 68.3946C164.103 68.0684 164.864 67.8509 167.473 68.6121C166.821 67.5247 165.299 65.4588 162.472 63.9365C158.883 61.9792 155.404 62.3055 154.208 62.5229C153.338 61.3268 151.924 59.9133 150.185 58.4997C147.14 56.2163 144.204 55.2377 142.356 54.8027C142.573 55.1289 144.856 58.0648 143.987 59.3696C143.552 59.9133 142.464 60.022 138.985 59.2609C136.81 58.8259 133.874 58.0648 130.612 56.9774C134.853 60.457 135.614 61.8705 135.397 62.3054C135.288 62.4142 135.179 62.5229 133.004 62.9579C132.243 63.0666 131.591 63.1753 131.047 63.2841C132.243 63.719 133.331 64.154 134.527 64.5889C134.2 65.1326 133.331 66.3287 131.808 66.7636C129.634 67.3073 127.024 66.1112 125.61 63.5015C125.937 64.4802 127.024 67.851 130.395 69.5907C131.373 70.1344 132.352 70.3518 133.113 70.4606C133.657 69.8082 134.2 69.1558 134.744 68.5034C137.136 66.3287 139.963 66.2199 141.051 67.416C141.812 68.2859 141.703 69.6994 141.594 70.2431Z" fill="#111111"/>
<path d="M131.047 72.5264C131.482 72.5264 132.678 72.7438 133.875 73.6137C134.962 74.4836 135.288 75.571 135.397 75.8972" stroke="#111111" stroke-width="0.75" stroke-miterlimit="10"/>
<path d="M137.572 77.6367C138.115 77.7455 139.42 77.9629 140.616 79.2677C141.704 80.4638 142.03 81.8774 142.139 82.4211" stroke="#111111" stroke-width="0.75" stroke-miterlimit="10"/>
<path d="M135.94 84.1609C137.463 83.726 137.898 81.3338 137.463 81.1163C136.919 80.6814 134.092 83.0736 134.418 83.9434C134.527 84.2697 135.397 84.3784 135.94 84.1609Z" fill="#1D1D1B" stroke="#111111" stroke-width="0.75" stroke-miterlimit="10"/>
<path d="M129.742 77.6365C130.177 76.3317 132.243 76.0055 132.569 76.4404C132.895 76.9841 130.721 79.3762 129.959 79.05C129.633 78.8326 129.525 78.0714 129.742 77.6365Z" fill="#1D1D1B" stroke="#111111" stroke-width="0.75" stroke-miterlimit="10"/>
<path d="M140.942 94.4912C141.377 94.7087 141.812 94.9262 141.92 94.8174C142.138 94.6 141.594 94.165 141.703 93.7301C141.921 92.9689 144.421 92.7515 144.748 93.4039C144.965 93.9476 144.095 94.8174 143.551 95.1437" stroke="#111111" stroke-width="0.75" stroke-miterlimit="10"/>
<path d="M124.741 103.625C125.393 102.32 126.263 100.798 127.459 99.2755C128.22 98.2969 128.873 97.5357 129.634 96.8833C130.721 97.427 132.461 98.0794 134.636 98.0794C135.179 98.0794 135.723 97.9707 136.158 97.9707" stroke="#111111" stroke-width="0.75" stroke-miterlimit="10"/>
<path d="M124.741 86.9878C125.502 87.5315 126.481 88.0751 127.894 88.5101C128.873 88.7275 129.634 88.945 130.286 88.945" stroke="#111111" stroke-width="0.75" stroke-miterlimit="10"/>
<path d="M134.418 78.0713C133.548 79.2674 132.787 80.0285 132.134 80.5722C131.156 81.4421 130.612 81.877 129.742 82.0945C128.111 82.5294 126.915 81.6595 126.589 82.2032C126.263 82.6381 126.915 83.508 127.024 83.6168C127.676 84.4867 128.655 84.7041 128.872 84.7041" stroke="#111111" stroke-width="0.75" stroke-miterlimit="10"/>
<path d="M127.242 95.3603C126.589 95.1429 125.828 94.7079 125.067 94.273C123.979 93.6206 123.218 92.8594 122.566 92.207" stroke="#111111" stroke-width="0.75" stroke-miterlimit="10"/>
<path d="M93.6425 75.2441C98.1007 81.5508 100.71 86.7701 101.037 88.5098C101.254 89.9234 101.471 91.5544 101.471 91.5544C101.58 92.3155 101.58 93.0767 101.58 93.4029C101.689 95.6863 99.188 98.4047 97.1221 99.8183C93.2076 102.428 88.7495 101.667 87.6621 101.449" stroke="white" stroke-width="0.75" stroke-miterlimit="10"/>
<path d="M56.02 132.983C57.4336 130.917 59.7171 128.307 63.1966 127.437C66.4586 126.567 67.7634 128.198 70.6993 127.872C75.8098 127.328 76.1361 121.892 84.0737 113.954C89.4017 108.626 91.6851 108.626 96.252 102.863C98.6442 99.9271 100.166 97.2087 101.145 95.2515" stroke="white" stroke-width="0.75" stroke-miterlimit="10"/>
<path d="M69.6118 149.728C74.7224 146.901 79.8329 143.965 84.8347 141.138" stroke="white" stroke-width="0.75" stroke-miterlimit="10"/>
<path d="M48.8669 158.535C48.7877 157.233 48.9017 155.936 49.3682 154.711C49.4325 154.542 49.5064 154.373 49.5923 154.214C49.6081 154.185 49.6063 154.179 49.6453 154.192C49.8986 154.273 50.1587 154.412 50.405 154.503C52.9288 155.441 55.5756 156.383 58.2608 156.683C59.1167 156.778 59.9595 156.787 60.8046 156.95" stroke="#111111" stroke-width="0.75" stroke-linecap="round" stroke-linejoin="round"/>
<path d="M36.2031 153.914C37.8276 153.914 39.4136 153.996 40.8244 153.099" stroke="black" stroke-width="0.75" stroke-linecap="round" stroke-linejoin="round"/>
<path d="M11.4658 146.439C12.5093 146.74 13.5284 147.042 14.592 147.254" stroke="black" stroke-width="0.75" stroke-linecap="round" stroke-linejoin="round"/>
<path d="M29.9507 102.401C28.478 101.631 27.3692 100.654 26.145 99.5469" stroke="black" stroke-width="0.75" stroke-linecap="round" stroke-linejoin="round"/>
<path d="M30.0868 102.265C30.0683 100.993 29.9251 99.726 29.8149 98.4595" stroke="black" stroke-width="0.75" stroke-linecap="round" stroke-linejoin="round"/>
</svg>
